<svg xmlns="http://www.w3.org/2000/svg" width="1200" height="672" viewBox="0 0 1200 672" role="img" aria-label="RFDELTA ranked option trade scores">
  <defs>
    <linearGradient id="background" x1="0" x2="1"><stop stop-color="#061b19"/><stop offset="1" stop-color="#0a2d28"/></linearGradient>
    <linearGradient id="scoreBar" x1="0" x2="1"><stop stop-color="#18e59c"/><stop offset="0.7" stop-color="#5bd7f4"/><stop offset="1" stop-color="#f4c95d"/></linearGradient>
    <style>.title{fill:#f4fff9;font:700 18px Arial,sans-serif}.rank,.score{fill:#f4fff9;font:800 18px Arial,sans-serif}.meta{fill:#9fc4bb;font:13px Arial,sans-serif}.head{fill:#f4fff9;font:800 28px Georgia,serif}.sub{fill:#9fc4bb;font:14px Arial,sans-serif}</style>
  </defs>
  <rect width="1200" height="672" fill="url(#background)"/>
  <text x="34" y="42" class="head">RFDELTA Top Option Trades</text>
  <text x="34" y="69" class="sub">Deterministic ranking for 2026-07-10. Labels and scores are separated from payoff bars for legibility.</text>
  <g>
      <text x="34" y="105" class="rank">1</text>
      <text x="78" y="105" class="title"><tspan x="78" dy="0">NFLX 7/24 76/77 Call Credit Spread</tspan></text>
      <text x="1166" y="105" class="score" text-anchor="end">52.76</text>
      <text x="78" y="144" class="meta">technology and AI leadership | credit | 65% modeled probability</text>
      <rect x="78" y="161" width="1070" height="16" rx="3" fill="#143b36"/>
      <rect x="78" y="161" width="564.5" height="16" rx="3" fill="url(#scoreBar)"/>
    </g>
<g>
      <text x="34" y="217" class="rank">2</text>
      <text x="78" y="217" class="title"><tspan x="78" dy="0">T 7/24 21.5/22 Call Credit Spread</tspan></text>
      <text x="1166" y="217" class="score" text-anchor="end">46.72</text>
      <text x="78" y="256" class="meta">consumer and communications demand | credit | 64% modeled probability</text>
      <rect x="78" y="273" width="1070" height="16" rx="3" fill="#143b36"/>
      <rect x="78" y="273" width="499.9" height="16" rx="3" fill="url(#scoreBar)"/>
    </g>
<g>
      <text x="34" y="329" class="rank">3</text>
      <text x="78" y="329" class="title"><tspan x="78" dy="0">WFC 7/24 85/84 Put Credit Spread</tspan></text>
      <text x="1166" y="329" class="score" text-anchor="end">43.48</text>
      <text x="78" y="368" class="meta">financial and digital-market structure | credit | 64% modeled probability</text>
      <rect x="78" y="385" width="1070" height="16" rx="3" fill="#143b36"/>
      <rect x="78" y="385" width="465.2" height="16" rx="3" fill="url(#scoreBar)"/>
    </g>
<g>
      <text x="34" y="441" class="rank">4</text>
      <text x="78" y="441" class="title"><tspan x="78" dy="0">TLT 7/24 85/84.5 Put Debit Spread</tspan></text>
      <text x="1166" y="441" class="score" text-anchor="end">37.88</text>
      <text x="78" y="480" class="meta">long-duration rates | debit | 51% modeled probability</text>
      <rect x="78" y="497" width="1070" height="16" rx="3" fill="#143b36"/>
      <rect x="78" y="497" width="405.3" height="16" rx="3" fill="url(#scoreBar)"/>
    </g>
<g>
      <text x="34" y="553" class="rank">5</text>
      <text x="78" y="553" class="title"><tspan x="78" dy="0">PLTR 7/24 125/120 Put Debit Spread</tspan></text>
      <text x="1166" y="553" class="score" text-anchor="end">36.57</text>
      <text x="78" y="592" class="meta">defense software and AI | debit | 40% modeled probability</text>
      <rect x="78" y="609" width="1070" height="16" rx="3" fill="#143b36"/>
      <rect x="78" y="609" width="391.3" height="16" rx="3" fill="url(#scoreBar)"/>
    </g>
  </svg>