<svg xmlns="http://www.w3.org/2000/svg" width="1200" height="500" viewBox="0 0 1200 500" role="img" aria-label="BAC underlying price from entry">
  <rect width="1200" height="500" fill="#071f1c"/>
  <style>.head{fill:#f4fff9;font:800 27px Georgia,serif}.sub{fill:#9fc4bb;font:14px Arial,sans-serif}.axis{fill:#8eaaa3;font:12px Arial,sans-serif}.marker{font:800 12px Arial,sans-serif}</style>
  <text x="86" y="40" class="head">BAC Underlying Price</text>
  <text x="86" y="66" class="sub">90 sessions | Entry marked; position remains open | Published option idea rank 1</text>
  <line x1="86" x2="1142" y1="100.0" y2="100.0" stroke="#1b4a42" stroke-width="1"/><text x="72" y="105.0" text-anchor="end" class="axis">$63.08</text><line x1="86" x2="1142" y1="183.5" y2="183.5" stroke="#1b4a42" stroke-width="1"/><text x="72" y="188.5" text-anchor="end" class="axis">$58.62</text><line x1="86" x2="1142" y1="267.0" y2="267.0" stroke="#1b4a42" stroke-width="1"/><text x="72" y="272.0" text-anchor="end" class="axis">$54.16</text><line x1="86" x2="1142" y1="350.5" y2="350.5" stroke="#1b4a42" stroke-width="1"/><text x="72" y="355.5" text-anchor="end" class="axis">$49.69</text><line x1="86" x2="1142" y1="434.0" y2="434.0" stroke="#1b4a42" stroke-width="1"/><text x="72" y="439.0" text-anchor="end" class="axis">$45.23</text>
  <path d="M86.0,398.5 L97.9,406.2 L109.7,399.8 L121.6,395.7 L133.5,404.1 L145.3,400.7 L157.2,397.9 L169.1,391.2 L180.9,379.6 L192.8,368.2 L204.7,377.7 L216.5,401.5 L228.4,396.6 L240.2,368.2 L252.1,358.4 L264.0,356.4 L275.8,343.6 L287.7,339.5 L299.6,309.6 L311.4,294.0 L323.3,297.2 L335.2,282.1 L347.0,282.1 L358.9,263.9 L370.8,279.1 L382.6,271.6 L394.5,270.8 L406.4,279.6 L418.2,286.4 L430.1,298.5 L442.0,306.4 L453.8,295.5 L465.7,295.0 L477.6,290.9 L489.4,280.0 L501.3,284.1 L513.1,303.8 L525.0,286.4 L536.9,277.4 L548.7,293.3 L560.6,320.3 L572.5,334.5 L584.3,330.2 L596.2,347.8 L608.1,347.6 L619.9,349.1 L631.8,331.9 L643.7,331.7 L655.5,321.7 L667.4,316.9 L679.3,311.1 L691.1,303.6 L703.0,324.2 L714.9,330.4 L726.7,314.8 L738.6,316.5 L750.4,298.4 L762.3,299.8 L774.2,266.7 L786.0,273.1 L797.9,276.8 L809.8,262.0 L821.6,259.8 L833.5,248.2 L845.4,232.1 L857.2,234.9 L869.1,216.7 L881.0,222.5 L892.8,228.7 L904.7,206.8 L916.6,196.7 L928.4,200.1 L940.3,191.5 L952.2,197.3 L964.0,197.3 L975.9,214.1 L987.8,188.3 L999.6,181.4 L1011.5,159.5 L1023.3,160.2 L1035.2,189.4 L1047.1,171.6 L1058.9,163.8 L1070.8,167.0 L1082.7,146.0 L1094.5,127.8 L1106.4,129.7 L1118.3,133.8 L1130.1,149.7 L1142.0,134.8 L1142.0,434.0 L86.0,434.0 Z" fill="#0f5949" opacity="0.28"/>
  <path d="M86.0,398.5 L97.9,406.2 L109.7,399.8 L121.6,395.7 L133.5,404.1 L145.3,400.7 L157.2,397.9 L169.1,391.2 L180.9,379.6 L192.8,368.2 L204.7,377.7 L216.5,401.5 L228.4,396.6 L240.2,368.2 L252.1,358.4 L264.0,356.4 L275.8,343.6 L287.7,339.5 L299.6,309.6 L311.4,294.0 L323.3,297.2 L335.2,282.1 L347.0,282.1 L358.9,263.9 L370.8,279.1 L382.6,271.6 L394.5,270.8 L406.4,279.6 L418.2,286.4 L430.1,298.5 L442.0,306.4 L453.8,295.5 L465.7,295.0 L477.6,290.9 L489.4,280.0 L501.3,284.1 L513.1,303.8 L525.0,286.4 L536.9,277.4 L548.7,293.3 L560.6,320.3 L572.5,334.5 L584.3,330.2 L596.2,347.8 L608.1,347.6 L619.9,349.1 L631.8,331.9 L643.7,331.7 L655.5,321.7 L667.4,316.9 L679.3,311.1 L691.1,303.6 L703.0,324.2 L714.9,330.4 L726.7,314.8 L738.6,316.5 L750.4,298.4 L762.3,299.8 L774.2,266.7 L786.0,273.1 L797.9,276.8 L809.8,262.0 L821.6,259.8 L833.5,248.2 L845.4,232.1 L857.2,234.9 L869.1,216.7 L881.0,222.5 L892.8,228.7 L904.7,206.8 L916.6,196.7 L928.4,200.1 L940.3,191.5 L952.2,197.3 L964.0,197.3 L975.9,214.1 L987.8,188.3 L999.6,181.4 L1011.5,159.5 L1023.3,160.2 L1035.2,189.4 L1047.1,171.6 L1058.9,163.8 L1070.8,167.0 L1082.7,146.0 L1094.5,127.8 L1106.4,129.7 L1118.3,133.8 L1130.1,149.7 L1142.0,134.8" fill="none" stroke="#62d9ee" stroke-width="4" stroke-linecap="round" stroke-linejoin="round"/>
  <g>
    <line x1="1070.8" x2="1070.8" y1="100" y2="434" stroke="#18e59c" stroke-width="2" stroke-dasharray="7 7" opacity="0.8"/>
    <circle cx="1070.8" cy="175.3" r="8" fill="#071f1c" stroke="#18e59c" stroke-width="4"/>
    <text x="1030.0" y="157.3" text-anchor="middle" class="marker" fill="#18e59c">ENTRY | Jul 13 | $59.05</text>
  </g>
  
  <text x="86.0" y="472" text-anchor="middle" class="axis">Mar 12</text><text x="347.0" y="472" text-anchor="middle" class="axis">Apr 14</text><text x="619.9" y="472" text-anchor="middle" class="axis">May 15</text><text x="881.0" y="472" text-anchor="middle" class="axis">Jun 17</text><text x="1142.0" y="472" text-anchor="middle" class="axis">Jul 21</text>
  </svg>