<svg xmlns="http://www.w3.org/2000/svg" width="1200" height="500" viewBox="0 0 1200 500" role="img" aria-label="BAC underlying price from entry">
  <rect width="1200" height="500" fill="#071f1c"/>
  <style>.head{fill:#f4fff9;font:800 27px Georgia,serif}.sub{fill:#9fc4bb;font:14px Arial,sans-serif}.axis{fill:#8eaaa3;font:12px Arial,sans-serif}.marker{font:800 12px Arial,sans-serif}</style>
  <text x="86" y="40" class="head">BAC Underlying Price</text>
  <text x="86" y="66" class="sub">90 sessions | Entry marked; position remains open | Published option idea rank 1</text>
  <line x1="86" x2="1142" y1="100.0" y2="100.0" stroke="#1b4a42" stroke-width="1"/><text x="72" y="105.0" text-anchor="end" class="axis">$63.08</text><line x1="86" x2="1142" y1="183.5" y2="183.5" stroke="#1b4a42" stroke-width="1"/><text x="72" y="188.5" text-anchor="end" class="axis">$58.62</text><line x1="86" x2="1142" y1="267.0" y2="267.0" stroke="#1b4a42" stroke-width="1"/><text x="72" y="272.0" text-anchor="end" class="axis">$54.16</text><line x1="86" x2="1142" y1="350.5" y2="350.5" stroke="#1b4a42" stroke-width="1"/><text x="72" y="355.5" text-anchor="end" class="axis">$49.69</text><line x1="86" x2="1142" y1="434.0" y2="434.0" stroke="#1b4a42" stroke-width="1"/><text x="72" y="439.0" text-anchor="end" class="axis">$45.23</text>
  <path d="M86.0,370.2 L97.9,384.1 L109.7,371.7 L121.6,372.5 L133.5,398.5 L145.3,406.2 L157.2,399.8 L169.1,395.7 L180.9,404.1 L192.8,400.7 L204.7,397.9 L216.5,391.2 L228.4,379.6 L240.2,368.2 L252.1,377.7 L264.0,401.5 L275.8,396.6 L287.7,368.2 L299.6,358.4 L311.4,356.4 L323.3,343.6 L335.2,339.5 L347.0,309.6 L358.9,294.0 L370.8,297.2 L382.6,282.1 L394.5,282.1 L406.4,263.9 L418.2,279.1 L430.1,271.6 L442.0,270.8 L453.8,279.6 L465.7,286.4 L477.6,298.5 L489.4,306.4 L501.3,295.5 L513.1,295.0 L525.0,290.9 L536.9,280.0 L548.7,284.1 L560.6,303.8 L572.5,286.4 L584.3,277.4 L596.2,293.3 L608.1,320.3 L619.9,334.5 L631.8,330.2 L643.7,347.8 L655.5,347.6 L667.4,349.1 L679.3,331.9 L691.1,331.7 L703.0,321.7 L714.9,316.9 L726.7,311.1 L738.6,303.6 L750.4,324.2 L762.3,330.4 L774.2,314.8 L786.0,316.5 L797.9,298.4 L809.8,299.8 L821.6,266.7 L833.5,273.1 L845.4,276.8 L857.2,262.0 L869.1,259.8 L881.0,248.2 L892.8,232.1 L904.7,234.9 L916.6,216.7 L928.4,222.5 L940.3,228.7 L952.2,206.8 L964.0,196.7 L975.9,200.1 L987.8,191.5 L999.6,197.3 L1011.5,197.3 L1023.3,214.1 L1035.2,188.3 L1047.1,181.4 L1058.9,159.5 L1070.8,160.2 L1082.7,189.4 L1094.5,171.6 L1106.4,163.8 L1118.3,167.0 L1130.1,146.0 L1142.0,127.8 L1142.0,434.0 L86.0,434.0 Z" fill="#0f5949" opacity="0.28"/>
  <path d="M86.0,370.2 L97.9,384.1 L109.7,371.7 L121.6,372.5 L133.5,398.5 L145.3,406.2 L157.2,399.8 L169.1,395.7 L180.9,404.1 L192.8,400.7 L204.7,397.9 L216.5,391.2 L228.4,379.6 L240.2,368.2 L252.1,377.7 L264.0,401.5 L275.8,396.6 L287.7,368.2 L299.6,358.4 L311.4,356.4 L323.3,343.6 L335.2,339.5 L347.0,309.6 L358.9,294.0 L370.8,297.2 L382.6,282.1 L394.5,282.1 L406.4,263.9 L418.2,279.1 L430.1,271.6 L442.0,270.8 L453.8,279.6 L465.7,286.4 L477.6,298.5 L489.4,306.4 L501.3,295.5 L513.1,295.0 L525.0,290.9 L536.9,280.0 L548.7,284.1 L560.6,303.8 L572.5,286.4 L584.3,277.4 L596.2,293.3 L608.1,320.3 L619.9,334.5 L631.8,330.2 L643.7,347.8 L655.5,347.6 L667.4,349.1 L679.3,331.9 L691.1,331.7 L703.0,321.7 L714.9,316.9 L726.7,311.1 L738.6,303.6 L750.4,324.2 L762.3,330.4 L774.2,314.8 L786.0,316.5 L797.9,298.4 L809.8,299.8 L821.6,266.7 L833.5,273.1 L845.4,276.8 L857.2,262.0 L869.1,259.8 L881.0,248.2 L892.8,232.1 L904.7,234.9 L916.6,216.7 L928.4,222.5 L940.3,228.7 L952.2,206.8 L964.0,196.7 L975.9,200.1 L987.8,191.5 L999.6,197.3 L1011.5,197.3 L1023.3,214.1 L1035.2,188.3 L1047.1,181.4 L1058.9,159.5 L1070.8,160.2 L1082.7,189.4 L1094.5,171.6 L1106.4,163.8 L1118.3,167.0 L1130.1,146.0 L1142.0,127.8" fill="none" stroke="#62d9ee" stroke-width="4" stroke-linecap="round" stroke-linejoin="round"/>
  <g>
    <line x1="1118.3" x2="1118.3" y1="100" y2="434" stroke="#18e59c" stroke-width="2" stroke-dasharray="7 7" opacity="0.8"/>
    <circle cx="1118.3" cy="175.3" r="8" fill="#071f1c" stroke="#18e59c" stroke-width="4"/>
    <text x="1030.0" y="157.3" text-anchor="middle" class="marker" fill="#18e59c">ENTRY | Jul 13 | $59.05</text>
  </g>
  
  <text x="86.0" y="472" text-anchor="middle" class="axis">Mar 6</text><text x="347.0" y="472" text-anchor="middle" class="axis">Apr 8</text><text x="619.9" y="472" text-anchor="middle" class="axis">May 11</text><text x="881.0" y="472" text-anchor="middle" class="axis">Jun 11</text><text x="1142.0" y="472" text-anchor="middle" class="axis">Jul 15</text>
  </svg>