<svg xmlns="http://www.w3.org/2000/svg" width="1200" height="500" viewBox="0 0 1200 500" role="img" aria-label="BAC underlying price from entry">
  <rect width="1200" height="500" fill="#071f1c"/>
  <style>.head{fill:#f4fff9;font:800 27px Georgia,serif}.sub{fill:#9fc4bb;font:14px Arial,sans-serif}.axis{fill:#8eaaa3;font:12px Arial,sans-serif}.marker{font:800 12px Arial,sans-serif}</style>
  <text x="86" y="40" class="head">BAC Underlying Price</text>
  <text x="86" y="66" class="sub">90 sessions | Entry marked; position remains open | Published option idea rank 1</text>
  <line x1="86" x2="1142" y1="100.0" y2="100.0" stroke="#1b4a42" stroke-width="1"/><text x="72" y="105.0" text-anchor="end" class="axis">$63.11</text><line x1="86" x2="1142" y1="183.5" y2="183.5" stroke="#1b4a42" stroke-width="1"/><text x="72" y="188.5" text-anchor="end" class="axis">$58.64</text><line x1="86" x2="1142" y1="267.0" y2="267.0" stroke="#1b4a42" stroke-width="1"/><text x="72" y="272.0" text-anchor="end" class="axis">$54.17</text><line x1="86" x2="1142" y1="350.5" y2="350.5" stroke="#1b4a42" stroke-width="1"/><text x="72" y="355.5" text-anchor="end" class="axis">$49.70</text><line x1="86" x2="1142" y1="434.0" y2="434.0" stroke="#1b4a42" stroke-width="1"/><text x="72" y="439.0" text-anchor="end" class="axis">$45.23</text>
  <path d="M86.0,406.2 L97.9,399.8 L109.7,395.7 L121.6,404.1 L133.5,400.7 L145.3,397.9 L157.2,391.2 L169.1,379.6 L180.9,368.2 L192.8,377.8 L204.7,401.5 L216.5,396.6 L228.4,368.2 L240.2,358.5 L252.1,356.5 L264.0,343.8 L275.8,339.7 L287.7,309.8 L299.6,294.3 L311.4,297.4 L323.3,282.3 L335.2,282.3 L347.0,264.2 L358.9,279.3 L370.8,271.9 L382.6,271.1 L394.5,279.9 L406.4,286.6 L418.2,298.8 L430.1,306.6 L442.0,295.8 L453.8,295.2 L465.7,291.1 L477.6,280.3 L489.4,284.4 L501.3,304.0 L513.1,286.6 L525.0,277.6 L536.9,293.5 L548.7,320.4 L560.6,334.6 L572.5,330.3 L584.3,347.9 L596.2,347.7 L608.1,349.2 L619.9,332.0 L631.8,331.8 L643.7,321.9 L655.5,317.1 L667.4,311.3 L679.3,303.8 L691.1,324.3 L703.0,330.5 L714.9,315.0 L726.7,316.7 L738.6,298.6 L750.4,300.1 L762.3,267.0 L774.2,273.4 L786.0,277.1 L797.9,262.3 L809.8,260.1 L821.6,248.5 L833.5,232.4 L845.4,235.2 L857.2,217.1 L869.1,222.9 L881.0,229.1 L892.8,207.2 L904.7,197.1 L916.6,200.5 L928.4,191.9 L940.3,197.7 L952.2,197.7 L964.0,214.5 L975.9,188.7 L987.8,181.8 L999.6,160.0 L1011.5,160.7 L1023.3,189.9 L1035.2,172.1 L1047.1,164.3 L1058.9,167.4 L1070.8,146.5 L1082.7,128.4 L1094.5,130.3 L1106.4,134.4 L1118.3,150.2 L1130.1,135.3 L1142.0,127.8 L1142.0,434.0 L86.0,434.0 Z" fill="#0f5949" opacity="0.28"/>
  <path d="M86.0,406.2 L97.9,399.8 L109.7,395.7 L121.6,404.1 L133.5,400.7 L145.3,397.9 L157.2,391.2 L169.1,379.6 L180.9,368.2 L192.8,377.8 L204.7,401.5 L216.5,396.6 L228.4,368.2 L240.2,358.5 L252.1,356.5 L264.0,343.8 L275.8,339.7 L287.7,309.8 L299.6,294.3 L311.4,297.4 L323.3,282.3 L335.2,282.3 L347.0,264.2 L358.9,279.3 L370.8,271.9 L382.6,271.1 L394.5,279.9 L406.4,286.6 L418.2,298.8 L430.1,306.6 L442.0,295.8 L453.8,295.2 L465.7,291.1 L477.6,280.3 L489.4,284.4 L501.3,304.0 L513.1,286.6 L525.0,277.6 L536.9,293.5 L548.7,320.4 L560.6,334.6 L572.5,330.3 L584.3,347.9 L596.2,347.7 L608.1,349.2 L619.9,332.0 L631.8,331.8 L643.7,321.9 L655.5,317.1 L667.4,311.3 L679.3,303.8 L691.1,324.3 L703.0,330.5 L714.9,315.0 L726.7,316.7 L738.6,298.6 L750.4,300.1 L762.3,267.0 L774.2,273.4 L786.0,277.1 L797.9,262.3 L809.8,260.1 L821.6,248.5 L833.5,232.4 L845.4,235.2 L857.2,217.1 L869.1,222.9 L881.0,229.1 L892.8,207.2 L904.7,197.1 L916.6,200.5 L928.4,191.9 L940.3,197.7 L952.2,197.7 L964.0,214.5 L975.9,188.7 L987.8,181.8 L999.6,160.0 L1011.5,160.7 L1023.3,189.9 L1035.2,172.1 L1047.1,164.3 L1058.9,167.4 L1070.8,146.5 L1082.7,128.4 L1094.5,130.3 L1106.4,134.4 L1118.3,150.2 L1130.1,135.3 L1142.0,127.8" fill="none" stroke="#62d9ee" stroke-width="4" stroke-linecap="round" stroke-linejoin="round"/>
  <g>
    <line x1="1058.9" x2="1058.9" y1="100" y2="434" stroke="#18e59c" stroke-width="2" stroke-dasharray="7 7" opacity="0.8"/>
    <circle cx="1058.9" cy="175.7" r="8" fill="#071f1c" stroke="#18e59c" stroke-width="4"/>
    <text x="1030.0" y="157.7" text-anchor="middle" class="marker" fill="#18e59c">ENTRY | Jul 13 | $59.05</text>
  </g>
  
  <text x="86.0" y="472" text-anchor="middle" class="axis">Mar 13</text><text x="347.0" y="472" text-anchor="middle" class="axis">Apr 15</text><text x="619.9" y="472" text-anchor="middle" class="axis">May 18</text><text x="881.0" y="472" text-anchor="middle" class="axis">Jun 18</text><text x="1142.0" y="472" text-anchor="middle" class="axis">Jul 22</text>
  </svg>