<svg xmlns="http://www.w3.org/2000/svg" width="1200" height="500" viewBox="0 0 1200 500" role="img" aria-label="BAC underlying price from entry">
  <rect width="1200" height="500" fill="#071f1c"/>
  <style>.head{fill:#f4fff9;font:800 27px Georgia,serif}.sub{fill:#9fc4bb;font:14px Arial,sans-serif}.axis{fill:#8eaaa3;font:12px Arial,sans-serif}.marker{font:800 12px Arial,sans-serif}</style>
  <text x="86" y="40" class="head">BAC Underlying Price</text>
  <text x="86" y="66" class="sub">90 sessions | Entry marked; position remains open | Published option idea rank 1</text>
  <line x1="86" x2="1142" y1="100.0" y2="100.0" stroke="#1b4a42" stroke-width="1"/><text x="72" y="105.0" text-anchor="end" class="axis">$63.08</text><line x1="86" x2="1142" y1="183.5" y2="183.5" stroke="#1b4a42" stroke-width="1"/><text x="72" y="188.5" text-anchor="end" class="axis">$58.62</text><line x1="86" x2="1142" y1="267.0" y2="267.0" stroke="#1b4a42" stroke-width="1"/><text x="72" y="272.0" text-anchor="end" class="axis">$54.16</text><line x1="86" x2="1142" y1="350.5" y2="350.5" stroke="#1b4a42" stroke-width="1"/><text x="72" y="355.5" text-anchor="end" class="axis">$49.69</text><line x1="86" x2="1142" y1="434.0" y2="434.0" stroke="#1b4a42" stroke-width="1"/><text x="72" y="439.0" text-anchor="end" class="axis">$45.23</text>
  <path d="M86.0,372.5 L97.9,398.5 L109.7,406.2 L121.6,399.8 L133.5,395.7 L145.3,404.1 L157.2,400.7 L169.1,397.9 L180.9,391.2 L192.8,379.6 L204.7,368.2 L216.5,377.7 L228.4,401.5 L240.2,396.6 L252.1,368.2 L264.0,358.4 L275.8,356.4 L287.7,343.6 L299.6,339.5 L311.4,309.6 L323.3,294.0 L335.2,297.2 L347.0,282.1 L358.9,282.1 L370.8,263.9 L382.6,279.1 L394.5,271.6 L406.4,270.8 L418.2,279.6 L430.1,286.4 L442.0,298.5 L453.8,306.4 L465.7,295.5 L477.6,295.0 L489.4,290.9 L501.3,280.0 L513.1,284.1 L525.0,303.8 L536.9,286.4 L548.7,277.4 L560.6,293.3 L572.5,320.3 L584.3,334.5 L596.2,330.2 L608.1,347.8 L619.9,347.6 L631.8,349.1 L643.7,331.9 L655.5,331.7 L667.4,321.7 L679.3,316.9 L691.1,311.1 L703.0,303.6 L714.9,324.2 L726.7,330.4 L738.6,314.8 L750.4,316.5 L762.3,298.4 L774.2,299.8 L786.0,266.7 L797.9,273.1 L809.8,276.8 L821.6,262.0 L833.5,259.8 L845.4,248.2 L857.2,232.1 L869.1,234.9 L881.0,216.7 L892.8,222.5 L904.7,228.7 L916.6,206.8 L928.4,196.7 L940.3,200.1 L952.2,191.5 L964.0,197.3 L975.9,197.3 L987.8,214.1 L999.6,188.3 L1011.5,181.4 L1023.3,159.5 L1035.2,160.2 L1047.1,189.4 L1058.9,171.6 L1070.8,163.8 L1082.7,167.0 L1094.5,146.0 L1106.4,127.8 L1118.3,129.7 L1130.1,133.8 L1142.0,149.7 L1142.0,434.0 L86.0,434.0 Z" fill="#0f5949" opacity="0.28"/>
  <path d="M86.0,372.5 L97.9,398.5 L109.7,406.2 L121.6,399.8 L133.5,395.7 L145.3,404.1 L157.2,400.7 L169.1,397.9 L180.9,391.2 L192.8,379.6 L204.7,368.2 L216.5,377.7 L228.4,401.5 L240.2,396.6 L252.1,368.2 L264.0,358.4 L275.8,356.4 L287.7,343.6 L299.6,339.5 L311.4,309.6 L323.3,294.0 L335.2,297.2 L347.0,282.1 L358.9,282.1 L370.8,263.9 L382.6,279.1 L394.5,271.6 L406.4,270.8 L418.2,279.6 L430.1,286.4 L442.0,298.5 L453.8,306.4 L465.7,295.5 L477.6,295.0 L489.4,290.9 L501.3,280.0 L513.1,284.1 L525.0,303.8 L536.9,286.4 L548.7,277.4 L560.6,293.3 L572.5,320.3 L584.3,334.5 L596.2,330.2 L608.1,347.8 L619.9,347.6 L631.8,349.1 L643.7,331.9 L655.5,331.7 L667.4,321.7 L679.3,316.9 L691.1,311.1 L703.0,303.6 L714.9,324.2 L726.7,330.4 L738.6,314.8 L750.4,316.5 L762.3,298.4 L774.2,299.8 L786.0,266.7 L797.9,273.1 L809.8,276.8 L821.6,262.0 L833.5,259.8 L845.4,248.2 L857.2,232.1 L869.1,234.9 L881.0,216.7 L892.8,222.5 L904.7,228.7 L916.6,206.8 L928.4,196.7 L940.3,200.1 L952.2,191.5 L964.0,197.3 L975.9,197.3 L987.8,214.1 L999.6,188.3 L1011.5,181.4 L1023.3,159.5 L1035.2,160.2 L1047.1,189.4 L1058.9,171.6 L1070.8,163.8 L1082.7,167.0 L1094.5,146.0 L1106.4,127.8 L1118.3,129.7 L1130.1,133.8 L1142.0,149.7" fill="none" stroke="#62d9ee" stroke-width="4" stroke-linecap="round" stroke-linejoin="round"/>
  <g>
    <line x1="1082.7" x2="1082.7" y1="100" y2="434" stroke="#18e59c" stroke-width="2" stroke-dasharray="7 7" opacity="0.8"/>
    <circle cx="1082.7" cy="175.3" r="8" fill="#071f1c" stroke="#18e59c" stroke-width="4"/>
    <text x="1030.0" y="157.3" text-anchor="middle" class="marker" fill="#18e59c">ENTRY | Jul 13 | $59.05</text>
  </g>
  
  <text x="86.0" y="472" text-anchor="middle" class="axis">Mar 11</text><text x="347.0" y="472" text-anchor="middle" class="axis">Apr 13</text><text x="619.9" y="472" text-anchor="middle" class="axis">May 14</text><text x="881.0" y="472" text-anchor="middle" class="axis">Jun 16</text><text x="1142.0" y="472" text-anchor="middle" class="axis">Jul 20</text>
  </svg>