<svg xmlns="http://www.w3.org/2000/svg" width="1200" height="500" viewBox="0 0 1200 500" role="img" aria-label="BAC underlying price from entry">
  <rect width="1200" height="500" fill="#071f1c"/>
  <style>.head{fill:#f4fff9;font:800 27px Georgia,serif}.sub{fill:#9fc4bb;font:14px Arial,sans-serif}.axis{fill:#8eaaa3;font:12px Arial,sans-serif}.marker{font:800 12px Arial,sans-serif}</style>
  <text x="86" y="40" class="head">BAC Underlying Price</text>
  <text x="86" y="66" class="sub">90 sessions | Entry marked; position remains open | Published option idea rank 1</text>
  <line x1="86" x2="1142" y1="100.0" y2="100.0" stroke="#1b4a42" stroke-width="1"/><text x="72" y="105.0" text-anchor="end" class="axis">$62.01</text><line x1="86" x2="1142" y1="183.5" y2="183.5" stroke="#1b4a42" stroke-width="1"/><text x="72" y="188.5" text-anchor="end" class="axis">$57.84</text><line x1="86" x2="1142" y1="267.0" y2="267.0" stroke="#1b4a42" stroke-width="1"/><text x="72" y="272.0" text-anchor="end" class="axis">$53.67</text><line x1="86" x2="1142" y1="350.5" y2="350.5" stroke="#1b4a42" stroke-width="1"/><text x="72" y="355.5" text-anchor="end" class="axis">$49.50</text><line x1="86" x2="1142" y1="434.0" y2="434.0" stroke="#1b4a42" stroke-width="1"/><text x="72" y="439.0" text-anchor="end" class="axis">$45.33</text>
  <path d="M86.0,344.3 L97.9,367.7 L109.7,382.5 L121.6,369.3 L133.5,370.1 L145.3,398.0 L157.2,406.2 L169.1,399.4 L180.9,395.0 L192.8,404.0 L204.7,400.4 L216.5,397.4 L228.4,390.1 L240.2,377.7 L252.1,365.5 L264.0,375.7 L275.8,401.2 L287.7,396.0 L299.6,365.5 L311.4,355.1 L323.3,352.9 L335.2,339.3 L347.0,334.9 L358.9,302.8 L370.8,286.2 L382.6,289.6 L394.5,273.4 L406.4,273.4 L418.2,254.0 L430.1,270.2 L442.0,262.2 L453.8,261.4 L465.7,270.8 L477.6,278.0 L489.4,291.0 L501.3,299.4 L513.1,287.8 L525.0,287.2 L536.9,282.8 L548.7,271.2 L560.6,275.6 L572.5,296.6 L584.3,278.0 L596.2,268.4 L608.1,285.4 L619.9,314.3 L631.8,329.5 L643.7,324.9 L655.5,343.7 L667.4,343.5 L679.3,345.1 L691.1,326.7 L703.0,326.5 L714.9,315.9 L726.7,310.7 L738.6,304.4 L750.4,296.4 L762.3,318.5 L774.2,325.1 L786.0,308.4 L797.9,310.3 L809.8,290.8 L821.6,292.4 L833.5,257.0 L845.4,263.8 L857.2,267.8 L869.1,252.0 L881.0,249.6 L892.8,237.2 L904.7,219.9 L916.6,222.9 L928.4,203.5 L940.3,209.7 L952.2,216.3 L964.0,192.9 L975.9,182.1 L987.8,185.7 L999.6,176.5 L1011.5,182.7 L1023.3,182.7 L1035.2,200.7 L1047.1,173.1 L1058.9,165.7 L1070.8,142.3 L1082.7,143.1 L1094.5,174.3 L1106.4,155.3 L1118.3,146.9 L1130.1,150.3 L1142.0,127.8 L1142.0,434.0 L86.0,434.0 Z" fill="#0f5949" opacity="0.28"/>
  <path d="M86.0,344.3 L97.9,367.7 L109.7,382.5 L121.6,369.3 L133.5,370.1 L145.3,398.0 L157.2,406.2 L169.1,399.4 L180.9,395.0 L192.8,404.0 L204.7,400.4 L216.5,397.4 L228.4,390.1 L240.2,377.7 L252.1,365.5 L264.0,375.7 L275.8,401.2 L287.7,396.0 L299.6,365.5 L311.4,355.1 L323.3,352.9 L335.2,339.3 L347.0,334.9 L358.9,302.8 L370.8,286.2 L382.6,289.6 L394.5,273.4 L406.4,273.4 L418.2,254.0 L430.1,270.2 L442.0,262.2 L453.8,261.4 L465.7,270.8 L477.6,278.0 L489.4,291.0 L501.3,299.4 L513.1,287.8 L525.0,287.2 L536.9,282.8 L548.7,271.2 L560.6,275.6 L572.5,296.6 L584.3,278.0 L596.2,268.4 L608.1,285.4 L619.9,314.3 L631.8,329.5 L643.7,324.9 L655.5,343.7 L667.4,343.5 L679.3,345.1 L691.1,326.7 L703.0,326.5 L714.9,315.9 L726.7,310.7 L738.6,304.4 L750.4,296.4 L762.3,318.5 L774.2,325.1 L786.0,308.4 L797.9,310.3 L809.8,290.8 L821.6,292.4 L833.5,257.0 L845.4,263.8 L857.2,267.8 L869.1,252.0 L881.0,249.6 L892.8,237.2 L904.7,219.9 L916.6,222.9 L928.4,203.5 L940.3,209.7 L952.2,216.3 L964.0,192.9 L975.9,182.1 L987.8,185.7 L999.6,176.5 L1011.5,182.7 L1023.3,182.7 L1035.2,200.7 L1047.1,173.1 L1058.9,165.7 L1070.8,142.3 L1082.7,143.1 L1094.5,174.3 L1106.4,155.3 L1118.3,146.9 L1130.1,150.3 L1142.0,127.8" fill="none" stroke="#62d9ee" stroke-width="4" stroke-linecap="round" stroke-linejoin="round"/>
  <g>
    <line x1="1130.1" x2="1130.1" y1="100" y2="434" stroke="#18e59c" stroke-width="2" stroke-dasharray="7 7" opacity="0.8"/>
    <circle cx="1130.1" cy="159.2" r="8" fill="#071f1c" stroke="#18e59c" stroke-width="4"/>
    <text x="1030.0" y="141.2" text-anchor="middle" class="marker" fill="#18e59c">ENTRY | Jul 13 | $59.05</text>
  </g>
  
  <text x="86.0" y="472" text-anchor="middle" class="axis">Mar 5</text><text x="347.0" y="472" text-anchor="middle" class="axis">Apr 7</text><text x="619.9" y="472" text-anchor="middle" class="axis">May 8</text><text x="881.0" y="472" text-anchor="middle" class="axis">Jun 10</text><text x="1142.0" y="472" text-anchor="middle" class="axis">Jul 14</text>
  </svg>