<svg xmlns="http://www.w3.org/2000/svg" width="1200" height="500" viewBox="0 0 1200 500" role="img" aria-label="BAC underlying price from entry">
  <rect width="1200" height="500" fill="#071f1c"/>
  <style>.head{fill:#f4fff9;font:800 27px Georgia,serif}.sub{fill:#9fc4bb;font:14px Arial,sans-serif}.axis{fill:#8eaaa3;font:12px Arial,sans-serif}.marker{font:800 12px Arial,sans-serif}</style>
  <text x="86" y="40" class="head">BAC Underlying Price</text>
  <text x="86" y="66" class="sub">90 sessions | Entry marked; position remains open | Published option idea rank 1</text>
  <line x1="86" x2="1142" y1="100.0" y2="100.0" stroke="#1b4a42" stroke-width="1"/><text x="72" y="105.0" text-anchor="end" class="axis">$61.22</text><line x1="86" x2="1142" y1="183.5" y2="183.5" stroke="#1b4a42" stroke-width="1"/><text x="72" y="188.5" text-anchor="end" class="axis">$57.26</text><line x1="86" x2="1142" y1="267.0" y2="267.0" stroke="#1b4a42" stroke-width="1"/><text x="72" y="272.0" text-anchor="end" class="axis">$53.31</text><line x1="86" x2="1142" y1="350.5" y2="350.5" stroke="#1b4a42" stroke-width="1"/><text x="72" y="355.5" text-anchor="end" class="axis">$49.36</text><line x1="86" x2="1142" y1="434.0" y2="434.0" stroke="#1b4a42" stroke-width="1"/><text x="72" y="439.0" text-anchor="end" class="axis">$45.40</text>
  <path d="M86.0,330.6 L97.9,340.9 L109.7,365.6 L121.6,381.2 L133.5,367.3 L145.3,368.2 L157.2,397.5 L169.1,406.2 L180.9,399.0 L192.8,394.3 L204.7,403.8 L216.5,400.0 L228.4,396.9 L240.2,389.3 L252.1,376.2 L264.0,363.3 L275.8,374.1 L287.7,400.9 L299.6,395.4 L311.4,363.3 L323.3,352.3 L335.2,350.0 L347.0,335.6 L358.9,331.0 L370.8,297.2 L382.6,279.7 L394.5,283.3 L406.4,266.2 L418.2,266.2 L430.1,245.7 L442.0,262.8 L453.8,254.3 L465.7,253.5 L477.6,263.4 L489.4,271.0 L501.3,284.7 L513.1,293.6 L525.0,281.4 L536.9,280.7 L548.7,276.1 L560.6,263.8 L572.5,268.5 L584.3,290.7 L596.2,271.0 L608.1,260.9 L619.9,278.8 L631.8,309.2 L643.7,325.3 L655.5,320.4 L667.4,340.3 L679.3,340.1 L691.1,341.8 L703.0,322.3 L714.9,322.1 L726.7,310.9 L738.6,305.4 L750.4,298.9 L762.3,290.4 L774.2,313.7 L786.0,320.6 L797.9,303.1 L809.8,305.0 L821.6,284.5 L833.5,286.2 L845.4,248.8 L857.2,256.0 L869.1,260.2 L881.0,243.6 L892.8,241.0 L904.7,227.9 L916.6,209.8 L928.4,212.9 L940.3,192.5 L952.2,199.0 L964.0,206.0 L975.9,181.3 L987.8,169.9 L999.6,173.7 L1011.5,163.9 L1023.3,170.5 L1035.2,170.5 L1047.1,189.5 L1058.9,160.4 L1070.8,152.5 L1082.7,127.8 L1094.5,128.7 L1106.4,161.6 L1118.3,141.6 L1130.1,132.7 L1142.0,136.3 L1142.0,434.0 L86.0,434.0 Z" fill="#0f5949" opacity="0.28"/>
  <path d="M86.0,330.6 L97.9,340.9 L109.7,365.6 L121.6,381.2 L133.5,367.3 L145.3,368.2 L157.2,397.5 L169.1,406.2 L180.9,399.0 L192.8,394.3 L204.7,403.8 L216.5,400.0 L228.4,396.9 L240.2,389.3 L252.1,376.2 L264.0,363.3 L275.8,374.1 L287.7,400.9 L299.6,395.4 L311.4,363.3 L323.3,352.3 L335.2,350.0 L347.0,335.6 L358.9,331.0 L370.8,297.2 L382.6,279.7 L394.5,283.3 L406.4,266.2 L418.2,266.2 L430.1,245.7 L442.0,262.8 L453.8,254.3 L465.7,253.5 L477.6,263.4 L489.4,271.0 L501.3,284.7 L513.1,293.6 L525.0,281.4 L536.9,280.7 L548.7,276.1 L560.6,263.8 L572.5,268.5 L584.3,290.7 L596.2,271.0 L608.1,260.9 L619.9,278.8 L631.8,309.2 L643.7,325.3 L655.5,320.4 L667.4,340.3 L679.3,340.1 L691.1,341.8 L703.0,322.3 L714.9,322.1 L726.7,310.9 L738.6,305.4 L750.4,298.9 L762.3,290.4 L774.2,313.7 L786.0,320.6 L797.9,303.1 L809.8,305.0 L821.6,284.5 L833.5,286.2 L845.4,248.8 L857.2,256.0 L869.1,260.2 L881.0,243.6 L892.8,241.0 L904.7,227.9 L916.6,209.8 L928.4,212.9 L940.3,192.5 L952.2,199.0 L964.0,206.0 L975.9,181.3 L987.8,169.9 L999.6,173.7 L1011.5,163.9 L1023.3,170.5 L1035.2,170.5 L1047.1,189.5 L1058.9,160.4 L1070.8,152.5 L1082.7,127.8 L1094.5,128.7 L1106.4,161.6 L1118.3,141.6 L1130.1,132.7 L1142.0,136.3" fill="none" stroke="#62d9ee" stroke-width="4" stroke-linecap="round" stroke-linejoin="round"/>
  <g>
    <line x1="1142.0" x2="1142.0" y1="100" y2="434" stroke="#18e59c" stroke-width="2" stroke-dasharray="7 7" opacity="0.8"/>
    <circle cx="1142.0" cy="145.7" r="8" fill="#071f1c" stroke="#18e59c" stroke-width="4"/>
    <text x="1030.0" y="179.7" text-anchor="middle" class="marker" fill="#18e59c">ENTRY | Jul 13 | $59.05</text>
  </g>
  
  <text x="86.0" y="472" text-anchor="middle" class="axis">Mar 4</text><text x="347.0" y="472" text-anchor="middle" class="axis">Apr 6</text><text x="619.9" y="472" text-anchor="middle" class="axis">May 7</text><text x="881.0" y="472" text-anchor="middle" class="axis">Jun 9</text><text x="1142.0" y="472" text-anchor="middle" class="axis">Jul 13</text>
  </svg>