<svg xmlns="http://www.w3.org/2000/svg" width="1200" height="500" viewBox="0 0 1200 500" role="img" aria-label="BAC underlying price from entry">
  <rect width="1200" height="500" fill="#071f1c"/>
  <style>.head{fill:#f4fff9;font:800 27px Georgia,serif}.sub{fill:#9fc4bb;font:14px Arial,sans-serif}.axis{fill:#8eaaa3;font:12px Arial,sans-serif}.marker{font:800 12px Arial,sans-serif}</style>
  <text x="86" y="40" class="head">BAC Underlying Price</text>
  <text x="86" y="66" class="sub">90 sessions | Entry marked; position remains open | Published option idea rank 1</text>
  <line x1="86" x2="1142" y1="100.0" y2="100.0" stroke="#1b4a42" stroke-width="1"/><text x="72" y="105.0" text-anchor="end" class="axis">$63.08</text><line x1="86" x2="1142" y1="183.5" y2="183.5" stroke="#1b4a42" stroke-width="1"/><text x="72" y="188.5" text-anchor="end" class="axis">$58.62</text><line x1="86" x2="1142" y1="267.0" y2="267.0" stroke="#1b4a42" stroke-width="1"/><text x="72" y="272.0" text-anchor="end" class="axis">$54.16</text><line x1="86" x2="1142" y1="350.5" y2="350.5" stroke="#1b4a42" stroke-width="1"/><text x="72" y="355.5" text-anchor="end" class="axis">$49.69</text><line x1="86" x2="1142" y1="434.0" y2="434.0" stroke="#1b4a42" stroke-width="1"/><text x="72" y="439.0" text-anchor="end" class="axis">$45.23</text>
  <path d="M86.0,384.1 L97.9,371.7 L109.7,372.5 L121.6,398.5 L133.5,406.2 L145.3,399.8 L157.2,395.7 L169.1,404.1 L180.9,400.7 L192.8,397.9 L204.7,391.2 L216.5,379.6 L228.4,368.2 L240.2,377.7 L252.1,401.5 L264.0,396.6 L275.8,368.2 L287.7,358.4 L299.6,356.4 L311.4,343.6 L323.3,339.5 L335.2,309.6 L347.0,294.0 L358.9,297.2 L370.8,282.1 L382.6,282.1 L394.5,263.9 L406.4,279.1 L418.2,271.6 L430.1,270.8 L442.0,279.6 L453.8,286.4 L465.7,298.5 L477.6,306.4 L489.4,295.5 L501.3,295.0 L513.1,290.9 L525.0,280.0 L536.9,284.1 L548.7,303.8 L560.6,286.4 L572.5,277.4 L584.3,293.3 L596.2,320.3 L608.1,334.5 L619.9,330.2 L631.8,347.8 L643.7,347.6 L655.5,349.1 L667.4,331.9 L679.3,331.7 L691.1,321.7 L703.0,316.9 L714.9,311.1 L726.7,303.6 L738.6,324.2 L750.4,330.4 L762.3,314.8 L774.2,316.5 L786.0,298.4 L797.9,299.8 L809.8,266.7 L821.6,273.1 L833.5,276.8 L845.4,262.0 L857.2,259.8 L869.1,248.2 L881.0,232.1 L892.8,234.9 L904.7,216.7 L916.6,222.5 L928.4,228.7 L940.3,206.8 L952.2,196.7 L964.0,200.1 L975.9,191.5 L987.8,197.3 L999.6,197.3 L1011.5,214.1 L1023.3,188.3 L1035.2,181.4 L1047.1,159.5 L1058.9,160.2 L1070.8,189.4 L1082.7,171.6 L1094.5,163.8 L1106.4,167.0 L1118.3,146.0 L1130.1,127.8 L1142.0,129.7 L1142.0,434.0 L86.0,434.0 Z" fill="#0f5949" opacity="0.28"/>
  <path d="M86.0,384.1 L97.9,371.7 L109.7,372.5 L121.6,398.5 L133.5,406.2 L145.3,399.8 L157.2,395.7 L169.1,404.1 L180.9,400.7 L192.8,397.9 L204.7,391.2 L216.5,379.6 L228.4,368.2 L240.2,377.7 L252.1,401.5 L264.0,396.6 L275.8,368.2 L287.7,358.4 L299.6,356.4 L311.4,343.6 L323.3,339.5 L335.2,309.6 L347.0,294.0 L358.9,297.2 L370.8,282.1 L382.6,282.1 L394.5,263.9 L406.4,279.1 L418.2,271.6 L430.1,270.8 L442.0,279.6 L453.8,286.4 L465.7,298.5 L477.6,306.4 L489.4,295.5 L501.3,295.0 L513.1,290.9 L525.0,280.0 L536.9,284.1 L548.7,303.8 L560.6,286.4 L572.5,277.4 L584.3,293.3 L596.2,320.3 L608.1,334.5 L619.9,330.2 L631.8,347.8 L643.7,347.6 L655.5,349.1 L667.4,331.9 L679.3,331.7 L691.1,321.7 L703.0,316.9 L714.9,311.1 L726.7,303.6 L738.6,324.2 L750.4,330.4 L762.3,314.8 L774.2,316.5 L786.0,298.4 L797.9,299.8 L809.8,266.7 L821.6,273.1 L833.5,276.8 L845.4,262.0 L857.2,259.8 L869.1,248.2 L881.0,232.1 L892.8,234.9 L904.7,216.7 L916.6,222.5 L928.4,228.7 L940.3,206.8 L952.2,196.7 L964.0,200.1 L975.9,191.5 L987.8,197.3 L999.6,197.3 L1011.5,214.1 L1023.3,188.3 L1035.2,181.4 L1047.1,159.5 L1058.9,160.2 L1070.8,189.4 L1082.7,171.6 L1094.5,163.8 L1106.4,167.0 L1118.3,146.0 L1130.1,127.8 L1142.0,129.7" fill="none" stroke="#62d9ee" stroke-width="4" stroke-linecap="round" stroke-linejoin="round"/>
  <g>
    <line x1="1106.4" x2="1106.4" y1="100" y2="434" stroke="#18e59c" stroke-width="2" stroke-dasharray="7 7" opacity="0.8"/>
    <circle cx="1106.4" cy="175.3" r="8" fill="#071f1c" stroke="#18e59c" stroke-width="4"/>
    <text x="1030.0" y="157.3" text-anchor="middle" class="marker" fill="#18e59c">ENTRY | Jul 13 | $59.05</text>
  </g>
  
  <text x="86.0" y="472" text-anchor="middle" class="axis">Mar 9</text><text x="347.0" y="472" text-anchor="middle" class="axis">Apr 9</text><text x="619.9" y="472" text-anchor="middle" class="axis">May 12</text><text x="881.0" y="472" text-anchor="middle" class="axis">Jun 12</text><text x="1142.0" y="472" text-anchor="middle" class="axis">Jul 16</text>
  </svg>