<svg xmlns="http://www.w3.org/2000/svg" width="1200" height="500" viewBox="0 0 1200 500" role="img" aria-label="CRM underlying price from entry">
  <rect width="1200" height="500" fill="#071f1c"/>
  <style>.head{fill:#f4fff9;font:800 27px Georgia,serif}.sub{fill:#9fc4bb;font:14px Arial,sans-serif}.axis{fill:#8eaaa3;font:12px Arial,sans-serif}.marker{font:800 12px Arial,sans-serif}</style>
  <text x="86" y="40" class="head">CRM Underlying Price</text>
  <text x="86" y="66" class="sub">90 sessions | Entry marked; position remains open | Published option idea rank 2</text>
  <line x1="86" x2="1142" y1="100.0" y2="100.0" stroke="#1b4a42" stroke-width="1"/><text x="72" y="105.0" text-anchor="end" class="axis">$215.55</text><line x1="86" x2="1142" y1="183.5" y2="183.5" stroke="#1b4a42" stroke-width="1"/><text x="72" y="188.5" text-anchor="end" class="axis">$197.70</text><line x1="86" x2="1142" y1="267.0" y2="267.0" stroke="#1b4a42" stroke-width="1"/><text x="72" y="272.0" text-anchor="end" class="axis">$179.86</text><line x1="86" x2="1142" y1="350.5" y2="350.5" stroke="#1b4a42" stroke-width="1"/><text x="72" y="355.5" text-anchor="end" class="axis">$162.02</text><line x1="86" x2="1142" y1="434.0" y2="434.0" stroke="#1b4a42" stroke-width="1"/><text x="72" y="439.0" text-anchor="end" class="axis">$144.17</text>
  <path d="M86.0,205.1 L97.9,166.3 L109.7,162.9 L121.6,178.4 L133.5,196.6 L145.3,200.2 L157.2,176.1 L169.1,206.3 L180.9,180.5 L192.8,194.7 L204.7,199.2 L216.5,196.2 L228.4,194.4 L240.2,195.3 L252.1,252.2 L264.0,257.2 L275.8,240.0 L287.7,269.6 L299.6,242.8 L311.4,235.1 L323.3,237.1 L335.2,232.7 L347.0,242.8 L358.9,252.5 L370.8,283.3 L382.6,309.2 L394.5,336.7 L406.4,299.9 L418.2,307.0 L430.1,277.6 L442.0,260.6 L453.8,256.3 L465.7,237.0 L477.6,233.1 L489.4,220.5 L501.3,297.7 L513.1,275.0 L525.0,265.5 L536.9,260.2 L548.7,260.6 L560.6,282.6 L572.5,248.5 L584.3,240.7 L596.2,233.6 L608.1,260.8 L619.9,236.7 L631.8,257.8 L643.7,278.1 L655.5,307.0 L667.4,332.6 L679.3,324.5 L691.1,296.7 L703.0,268.8 L714.9,269.1 L726.7,265.9 L738.6,283.6 L750.4,266.0 L762.3,270.6 L774.2,278.0 L786.0,284.3 L797.9,214.4 L809.8,127.8 L821.6,168.8 L833.5,216.7 L845.4,225.4 L857.2,239.9 L869.1,254.4 L881.0,288.1 L892.8,308.8 L904.7,329.8 L916.6,332.4 L928.4,338.6 L940.3,351.9 L952.2,383.2 L964.0,398.4 L975.9,406.2 L987.8,390.7 L999.6,393.8 L1011.5,405.8 L1023.3,367.6 L1035.2,369.6 L1047.1,375.6 L1058.9,344.8 L1070.8,331.3 L1082.7,333.5 L1094.5,315.4 L1106.4,329.1 L1118.3,348.2 L1130.1,344.4 L1142.0,308.5 L1142.0,434.0 L86.0,434.0 Z" fill="#0f5949" opacity="0.28"/>
  <path d="M86.0,205.1 L97.9,166.3 L109.7,162.9 L121.6,178.4 L133.5,196.6 L145.3,200.2 L157.2,176.1 L169.1,206.3 L180.9,180.5 L192.8,194.7 L204.7,199.2 L216.5,196.2 L228.4,194.4 L240.2,195.3 L252.1,252.2 L264.0,257.2 L275.8,240.0 L287.7,269.6 L299.6,242.8 L311.4,235.1 L323.3,237.1 L335.2,232.7 L347.0,242.8 L358.9,252.5 L370.8,283.3 L382.6,309.2 L394.5,336.7 L406.4,299.9 L418.2,307.0 L430.1,277.6 L442.0,260.6 L453.8,256.3 L465.7,237.0 L477.6,233.1 L489.4,220.5 L501.3,297.7 L513.1,275.0 L525.0,265.5 L536.9,260.2 L548.7,260.6 L560.6,282.6 L572.5,248.5 L584.3,240.7 L596.2,233.6 L608.1,260.8 L619.9,236.7 L631.8,257.8 L643.7,278.1 L655.5,307.0 L667.4,332.6 L679.3,324.5 L691.1,296.7 L703.0,268.8 L714.9,269.1 L726.7,265.9 L738.6,283.6 L750.4,266.0 L762.3,270.6 L774.2,278.0 L786.0,284.3 L797.9,214.4 L809.8,127.8 L821.6,168.8 L833.5,216.7 L845.4,225.4 L857.2,239.9 L869.1,254.4 L881.0,288.1 L892.8,308.8 L904.7,329.8 L916.6,332.4 L928.4,338.6 L940.3,351.9 L952.2,383.2 L964.0,398.4 L975.9,406.2 L987.8,390.7 L999.6,393.8 L1011.5,405.8 L1023.3,367.6 L1035.2,369.6 L1047.1,375.6 L1058.9,344.8 L1070.8,331.3 L1082.7,333.5 L1094.5,315.4 L1106.4,329.1 L1118.3,348.2 L1130.1,344.4 L1142.0,308.5" fill="none" stroke="#62d9ee" stroke-width="4" stroke-linecap="round" stroke-linejoin="round"/>
  <g>
    <line x1="1142.0" x2="1142.0" y1="100" y2="434" stroke="#18e59c" stroke-width="2" stroke-dasharray="7 7" opacity="0.8"/>
    <circle cx="1142.0" cy="308.5" r="8" fill="#071f1c" stroke="#18e59c" stroke-width="4"/>
    <text x="1030.0" y="290.5" text-anchor="middle" class="marker" fill="#18e59c">ENTRY | Jul 13 | $171.00</text>
  </g>
  
  <text x="86.0" y="472" text-anchor="middle" class="axis">Mar 4</text><text x="347.0" y="472" text-anchor="middle" class="axis">Apr 6</text><text x="619.9" y="472" text-anchor="middle" class="axis">May 7</text><text x="881.0" y="472" text-anchor="middle" class="axis">Jun 9</text><text x="1142.0" y="472" text-anchor="middle" class="axis">Jul 13</text>
  </svg>