<svg xmlns="http://www.w3.org/2000/svg" width="1200" height="500" viewBox="0 0 1200 500" role="img" aria-label="IWM underlying price from entry">
  <rect width="1200" height="500" fill="#071f1c"/>
  <style>.head{fill:#f4fff9;font:800 27px Georgia,serif}.sub{fill:#9fc4bb;font:14px Arial,sans-serif}.axis{fill:#8eaaa3;font:12px Arial,sans-serif}.marker{font:800 12px Arial,sans-serif}</style>
  <text x="86" y="40" class="head">IWM Underlying Price</text>
  <text x="86" y="66" class="sub">90 sessions | Entry marked; position remains open | Published option idea rank 2</text>
  <line x1="86" x2="1142" y1="100.0" y2="100.0" stroke="#1b4a42" stroke-width="1"/><text x="72" y="105.0" text-anchor="end" class="axis">$306.53</text><line x1="86" x2="1142" y1="183.5" y2="183.5" stroke="#1b4a42" stroke-width="1"/><text x="72" y="188.5" text-anchor="end" class="axis">$288.28</text><line x1="86" x2="1142" y1="267.0" y2="267.0" stroke="#1b4a42" stroke-width="1"/><text x="72" y="272.0" text-anchor="end" class="axis">$270.03</text><line x1="86" x2="1142" y1="350.5" y2="350.5" stroke="#1b4a42" stroke-width="1"/><text x="72" y="355.5" text-anchor="end" class="axis">$251.78</text><line x1="86" x2="1142" y1="434.0" y2="434.0" stroke="#1b4a42" stroke-width="1"/><text x="72" y="439.0" text-anchor="end" class="axis">$233.53</text>
  <path d="M86.0,304.8 L97.9,327.7 L109.7,354.6 L121.6,342.1 L133.5,343.3 L145.3,345.6 L157.2,370.5 L169.1,374.2 L180.9,363.6 L192.8,358.4 L204.7,376.8 L216.5,369.5 L228.4,394.2 L240.2,370.3 L252.1,364.2 L264.0,350.3 L275.8,370.3 L287.7,390.2 L299.6,406.2 L311.4,367.8 L323.3,360.6 L335.2,352.7 L347.0,347.8 L358.9,345.3 L370.8,310.7 L382.6,303.9 L394.5,306.9 L406.4,289.7 L418.2,273.0 L430.1,269.9 L442.0,267.4 L453.8,240.7 L465.7,233.5 L477.6,246.5 L489.4,237.5 L501.3,241.9 L513.1,236.7 L525.0,234.5 L536.9,249.2 L548.7,257.6 L560.6,230.7 L572.5,224.7 L584.3,231.1 L596.2,209.7 L608.1,190.3 L619.9,211.0 L631.8,202.3 L643.7,197.0 L655.5,209.6 L667.4,209.2 L679.3,201.0 L691.1,232.4 L703.0,239.8 L714.9,253.4 L726.7,222.0 L738.6,210.0 L750.4,198.0 L762.3,173.3 L774.2,173.9 L786.0,166.4 L797.9,173.7 L809.8,180.3 L821.6,168.0 L833.5,186.3 L845.4,166.4 L857.2,213.8 L869.1,202.6 L881.0,198.4 L892.8,212.0 L904.7,173.8 L916.6,162.1 L928.4,154.4 L940.3,166.1 L952.2,176.2 L964.0,150.1 L975.9,138.2 L987.8,151.3 L999.6,145.0 L1011.5,134.9 L1023.3,130.7 L1035.2,134.6 L1047.1,127.8 L1058.9,133.0 L1070.8,141.0 L1082.7,134.9 L1094.5,147.3 L1106.4,159.7 L1118.3,142.5 L1130.1,148.2 L1142.0,156.2 L1142.0,434.0 L86.0,434.0 Z" fill="#0f5949" opacity="0.28"/>
  <path d="M86.0,304.8 L97.9,327.7 L109.7,354.6 L121.6,342.1 L133.5,343.3 L145.3,345.6 L157.2,370.5 L169.1,374.2 L180.9,363.6 L192.8,358.4 L204.7,376.8 L216.5,369.5 L228.4,394.2 L240.2,370.3 L252.1,364.2 L264.0,350.3 L275.8,370.3 L287.7,390.2 L299.6,406.2 L311.4,367.8 L323.3,360.6 L335.2,352.7 L347.0,347.8 L358.9,345.3 L370.8,310.7 L382.6,303.9 L394.5,306.9 L406.4,289.7 L418.2,273.0 L430.1,269.9 L442.0,267.4 L453.8,240.7 L465.7,233.5 L477.6,246.5 L489.4,237.5 L501.3,241.9 L513.1,236.7 L525.0,234.5 L536.9,249.2 L548.7,257.6 L560.6,230.7 L572.5,224.7 L584.3,231.1 L596.2,209.7 L608.1,190.3 L619.9,211.0 L631.8,202.3 L643.7,197.0 L655.5,209.6 L667.4,209.2 L679.3,201.0 L691.1,232.4 L703.0,239.8 L714.9,253.4 L726.7,222.0 L738.6,210.0 L750.4,198.0 L762.3,173.3 L774.2,173.9 L786.0,166.4 L797.9,173.7 L809.8,180.3 L821.6,168.0 L833.5,186.3 L845.4,166.4 L857.2,213.8 L869.1,202.6 L881.0,198.4 L892.8,212.0 L904.7,173.8 L916.6,162.1 L928.4,154.4 L940.3,166.1 L952.2,176.2 L964.0,150.1 L975.9,138.2 L987.8,151.3 L999.6,145.0 L1011.5,134.9 L1023.3,130.7 L1035.2,134.6 L1047.1,127.8 L1058.9,133.0 L1070.8,141.0 L1082.7,134.9 L1094.5,147.3 L1106.4,159.7 L1118.3,142.5 L1130.1,148.2 L1142.0,156.2" fill="none" stroke="#62d9ee" stroke-width="4" stroke-linecap="round" stroke-linejoin="round"/>
  <g>
    <line x1="1142.0" x2="1142.0" y1="100" y2="434" stroke="#18e59c" stroke-width="2" stroke-dasharray="7 7" opacity="0.8"/>
    <circle cx="1142.0" cy="156.2" r="8" fill="#071f1c" stroke="#18e59c" stroke-width="4"/>
    <text x="1030.0" y="138.2" text-anchor="middle" class="marker" fill="#18e59c">ENTRY | Jul 13 | $294.26</text>
  </g>
  
  <text x="86.0" y="472" text-anchor="middle" class="axis">Mar 4</text><text x="347.0" y="472" text-anchor="middle" class="axis">Apr 6</text><text x="619.9" y="472" text-anchor="middle" class="axis">May 7</text><text x="881.0" y="472" text-anchor="middle" class="axis">Jun 9</text><text x="1142.0" y="472" text-anchor="middle" class="axis">Jul 13</text>
  </svg>