<svg xmlns="http://www.w3.org/2000/svg" width="1200" height="500" viewBox="0 0 1200 500" role="img" aria-label="NKE underlying price from entry">
  <rect width="1200" height="500" fill="#071f1c"/>
  <style>.head{fill:#f4fff9;font:800 27px Georgia,serif}.sub{fill:#9fc4bb;font:14px Arial,sans-serif}.axis{fill:#8eaaa3;font:12px Arial,sans-serif}.marker{font:800 12px Arial,sans-serif}</style>
  <text x="86" y="40" class="head">NKE Underlying Price</text>
  <text x="86" y="66" class="sub">90 sessions | Entry marked; position remains open | Published option idea rank 2</text>
  <line x1="86" x2="1142" y1="100.0" y2="100.0" stroke="#1b4a42" stroke-width="1"/><text x="72" y="105.0" text-anchor="end" class="axis">$58.11</text><line x1="86" x2="1142" y1="183.5" y2="183.5" stroke="#1b4a42" stroke-width="1"/><text x="72" y="188.5" text-anchor="end" class="axis">$53.37</text><line x1="86" x2="1142" y1="267.0" y2="267.0" stroke="#1b4a42" stroke-width="1"/><text x="72" y="272.0" text-anchor="end" class="axis">$48.64</text><line x1="86" x2="1142" y1="350.5" y2="350.5" stroke="#1b4a42" stroke-width="1"/><text x="72" y="355.5" text-anchor="end" class="axis">$43.91</text><line x1="86" x2="1142" y1="434.0" y2="434.0" stroke="#1b4a42" stroke-width="1"/><text x="72" y="439.0" text-anchor="end" class="axis">$39.17</text>
  <path d="M86.0,127.8 L97.9,135.8 L109.7,142.5 L121.6,170.2 L133.5,172.8 L145.3,158.5 L157.2,152.7 L169.1,181.8 L180.9,182.3 L192.8,201.2 L204.7,195.2 L216.5,181.5 L228.4,190.4 L240.2,206.5 L252.1,218.8 L264.0,221.1 L275.8,193.3 L287.7,337.7 L299.6,345.5 L311.4,348.3 L323.3,371.9 L335.2,364.2 L347.0,348.8 L358.9,373.2 L370.8,368.1 L382.6,345.3 L394.5,323.4 L406.4,318.9 L418.2,313.0 L430.1,305.1 L442.0,306.7 L453.8,319.2 L465.7,335.1 L477.6,336.7 L489.4,328.7 L501.3,330.7 L513.1,342.0 L525.0,342.5 L536.9,341.8 L548.7,364.9 L560.6,365.4 L572.5,351.0 L584.3,341.6 L596.2,346.4 L608.1,377.2 L619.9,377.9 L631.8,378.1 L643.7,383.8 L655.5,386.2 L667.4,374.1 L679.3,376.7 L691.1,345.5 L703.0,342.0 L714.9,337.0 L726.7,332.3 L738.6,313.9 L750.4,289.4 L762.3,309.5 L774.2,314.8 L786.0,353.6 L797.9,352.2 L809.8,355.5 L821.6,366.8 L833.5,362.4 L845.4,337.4 L857.2,349.5 L869.1,314.3 L881.0,332.4 L892.8,327.7 L904.7,330.5 L916.6,345.5 L928.4,327.7 L940.3,363.1 L952.2,377.4 L964.0,387.3 L975.9,403.5 L987.8,406.2 L999.6,393.3 L1011.5,400.9 L1023.3,365.4 L1035.2,347.3 L1047.1,360.5 L1058.9,362.8 L1070.8,368.4 L1082.7,370.4 L1094.5,342.3 L1106.4,353.1 L1118.3,368.9 L1130.1,370.5 L1142.0,338.8 L1142.0,434.0 L86.0,434.0 Z" fill="#0f5949" opacity="0.28"/>
  <path d="M86.0,127.8 L97.9,135.8 L109.7,142.5 L121.6,170.2 L133.5,172.8 L145.3,158.5 L157.2,152.7 L169.1,181.8 L180.9,182.3 L192.8,201.2 L204.7,195.2 L216.5,181.5 L228.4,190.4 L240.2,206.5 L252.1,218.8 L264.0,221.1 L275.8,193.3 L287.7,337.7 L299.6,345.5 L311.4,348.3 L323.3,371.9 L335.2,364.2 L347.0,348.8 L358.9,373.2 L370.8,368.1 L382.6,345.3 L394.5,323.4 L406.4,318.9 L418.2,313.0 L430.1,305.1 L442.0,306.7 L453.8,319.2 L465.7,335.1 L477.6,336.7 L489.4,328.7 L501.3,330.7 L513.1,342.0 L525.0,342.5 L536.9,341.8 L548.7,364.9 L560.6,365.4 L572.5,351.0 L584.3,341.6 L596.2,346.4 L608.1,377.2 L619.9,377.9 L631.8,378.1 L643.7,383.8 L655.5,386.2 L667.4,374.1 L679.3,376.7 L691.1,345.5 L703.0,342.0 L714.9,337.0 L726.7,332.3 L738.6,313.9 L750.4,289.4 L762.3,309.5 L774.2,314.8 L786.0,353.6 L797.9,352.2 L809.8,355.5 L821.6,366.8 L833.5,362.4 L845.4,337.4 L857.2,349.5 L869.1,314.3 L881.0,332.4 L892.8,327.7 L904.7,330.5 L916.6,345.5 L928.4,327.7 L940.3,363.1 L952.2,377.4 L964.0,387.3 L975.9,403.5 L987.8,406.2 L999.6,393.3 L1011.5,400.9 L1023.3,365.4 L1035.2,347.3 L1047.1,360.5 L1058.9,362.8 L1070.8,368.4 L1082.7,370.4 L1094.5,342.3 L1106.4,353.1 L1118.3,368.9 L1130.1,370.5 L1142.0,338.8" fill="none" stroke="#62d9ee" stroke-width="4" stroke-linecap="round" stroke-linejoin="round"/>
  <g>
    <line x1="1106.4" x2="1106.4" y1="100" y2="434" stroke="#18e59c" stroke-width="2" stroke-dasharray="7 7" opacity="0.8"/>
    <circle cx="1106.4" cy="344.4" r="8" fill="#071f1c" stroke="#18e59c" stroke-width="4"/>
    <text x="1030.0" y="326.4" text-anchor="middle" class="marker" fill="#18e59c">ENTRY | Jul 13 | $44.25</text>
  </g>
  
  <text x="86.0" y="472" text-anchor="middle" class="axis">Mar 9</text><text x="347.0" y="472" text-anchor="middle" class="axis">Apr 9</text><text x="619.9" y="472" text-anchor="middle" class="axis">May 12</text><text x="881.0" y="472" text-anchor="middle" class="axis">Jun 12</text><text x="1142.0" y="472" text-anchor="middle" class="axis">Jul 16</text>
  </svg>