<svg xmlns="http://www.w3.org/2000/svg" width="1200" height="500" viewBox="0 0 1200 500" role="img" aria-label="NKE underlying price from entry">
  <rect width="1200" height="500" fill="#071f1c"/>
  <style>.head{fill:#f4fff9;font:800 27px Georgia,serif}.sub{fill:#9fc4bb;font:14px Arial,sans-serif}.axis{fill:#8eaaa3;font:12px Arial,sans-serif}.marker{font:800 12px Arial,sans-serif}</style>
  <text x="86" y="40" class="head">NKE Underlying Price</text>
  <text x="86" y="66" class="sub">90 sessions | Entry marked; position remains open | Published option idea rank 2</text>
  <line x1="86" x2="1142" y1="100.0" y2="100.0" stroke="#1b4a42" stroke-width="1"/><text x="72" y="105.0" text-anchor="end" class="axis">$57.61</text><line x1="86" x2="1142" y1="183.5" y2="183.5" stroke="#1b4a42" stroke-width="1"/><text x="72" y="188.5" text-anchor="end" class="axis">$53.01</text><line x1="86" x2="1142" y1="267.0" y2="267.0" stroke="#1b4a42" stroke-width="1"/><text x="72" y="272.0" text-anchor="end" class="axis">$48.41</text><line x1="86" x2="1142" y1="350.5" y2="350.5" stroke="#1b4a42" stroke-width="1"/><text x="72" y="355.5" text-anchor="end" class="axis">$43.82</text><line x1="86" x2="1142" y1="434.0" y2="434.0" stroke="#1b4a42" stroke-width="1"/><text x="72" y="439.0" text-anchor="end" class="axis">$39.22</text>
  <path d="M86.0,127.8 L97.9,134.7 L109.7,163.2 L121.6,166.0 L133.5,151.3 L145.3,145.3 L157.2,175.2 L169.1,175.8 L180.9,195.2 L192.8,189.0 L204.7,174.9 L216.5,184.1 L228.4,200.6 L240.2,213.3 L252.1,215.7 L264.0,187.0 L275.8,335.7 L287.7,343.7 L299.6,346.6 L311.4,370.9 L323.3,363.0 L335.2,347.2 L347.0,372.2 L358.9,366.9 L370.8,343.5 L382.6,321.0 L394.5,316.3 L406.4,310.3 L418.2,302.1 L430.1,303.8 L442.0,316.7 L453.8,333.0 L465.7,334.6 L477.6,326.5 L489.4,328.5 L501.3,340.1 L513.1,340.6 L525.0,339.9 L536.9,363.7 L548.7,364.2 L560.6,349.3 L572.5,339.7 L584.3,344.6 L596.2,376.4 L608.1,377.1 L619.9,377.3 L631.8,383.1 L643.7,385.7 L655.5,373.1 L667.4,375.8 L679.3,343.7 L691.1,340.1 L703.0,335.0 L714.9,330.1 L726.7,311.2 L738.6,286.0 L750.4,306.7 L762.3,312.1 L774.2,352.1 L786.0,350.6 L797.9,354.1 L809.8,365.7 L821.6,361.1 L833.5,335.4 L845.4,347.9 L857.2,311.6 L869.1,330.3 L881.0,325.4 L892.8,328.3 L904.7,343.7 L916.6,325.4 L928.4,361.9 L940.3,376.6 L952.2,386.7 L964.0,403.4 L975.9,406.2 L987.8,392.9 L999.6,400.7 L1011.5,364.2 L1023.3,345.5 L1035.2,359.1 L1047.1,361.5 L1058.9,367.3 L1070.8,369.3 L1082.7,340.4 L1094.5,351.5 L1106.4,367.9 L1118.3,369.5 L1130.1,336.8 L1142.0,351.5 L1142.0,434.0 L86.0,434.0 Z" fill="#0f5949" opacity="0.28"/>
  <path d="M86.0,127.8 L97.9,134.7 L109.7,163.2 L121.6,166.0 L133.5,151.3 L145.3,145.3 L157.2,175.2 L169.1,175.8 L180.9,195.2 L192.8,189.0 L204.7,174.9 L216.5,184.1 L228.4,200.6 L240.2,213.3 L252.1,215.7 L264.0,187.0 L275.8,335.7 L287.7,343.7 L299.6,346.6 L311.4,370.9 L323.3,363.0 L335.2,347.2 L347.0,372.2 L358.9,366.9 L370.8,343.5 L382.6,321.0 L394.5,316.3 L406.4,310.3 L418.2,302.1 L430.1,303.8 L442.0,316.7 L453.8,333.0 L465.7,334.6 L477.6,326.5 L489.4,328.5 L501.3,340.1 L513.1,340.6 L525.0,339.9 L536.9,363.7 L548.7,364.2 L560.6,349.3 L572.5,339.7 L584.3,344.6 L596.2,376.4 L608.1,377.1 L619.9,377.3 L631.8,383.1 L643.7,385.7 L655.5,373.1 L667.4,375.8 L679.3,343.7 L691.1,340.1 L703.0,335.0 L714.9,330.1 L726.7,311.2 L738.6,286.0 L750.4,306.7 L762.3,312.1 L774.2,352.1 L786.0,350.6 L797.9,354.1 L809.8,365.7 L821.6,361.1 L833.5,335.4 L845.4,347.9 L857.2,311.6 L869.1,330.3 L881.0,325.4 L892.8,328.3 L904.7,343.7 L916.6,325.4 L928.4,361.9 L940.3,376.6 L952.2,386.7 L964.0,403.4 L975.9,406.2 L987.8,392.9 L999.6,400.7 L1011.5,364.2 L1023.3,345.5 L1035.2,359.1 L1047.1,361.5 L1058.9,367.3 L1070.8,369.3 L1082.7,340.4 L1094.5,351.5 L1106.4,367.9 L1118.3,369.5 L1130.1,336.8 L1142.0,351.5" fill="none" stroke="#62d9ee" stroke-width="4" stroke-linecap="round" stroke-linejoin="round"/>
  <g>
    <line x1="1094.5" x2="1094.5" y1="100" y2="434" stroke="#18e59c" stroke-width="2" stroke-dasharray="7 7" opacity="0.8"/>
    <circle cx="1094.5" cy="342.6" r="8" fill="#071f1c" stroke="#18e59c" stroke-width="4"/>
    <text x="1030.0" y="324.6" text-anchor="middle" class="marker" fill="#18e59c">ENTRY | Jul 13 | $44.25</text>
  </g>
  
  <text x="86.0" y="472" text-anchor="middle" class="axis">Mar 10</text><text x="347.0" y="472" text-anchor="middle" class="axis">Apr 10</text><text x="619.9" y="472" text-anchor="middle" class="axis">May 13</text><text x="881.0" y="472" text-anchor="middle" class="axis">Jun 15</text><text x="1142.0" y="472" text-anchor="middle" class="axis">Jul 17</text>
  </svg>