<svg xmlns="http://www.w3.org/2000/svg" width="1200" height="500" viewBox="0 0 1200 500" role="img" aria-label="NKE underlying price from entry">
  <rect width="1200" height="500" fill="#071f1c"/>
  <style>.head{fill:#f4fff9;font:800 27px Georgia,serif}.sub{fill:#9fc4bb;font:14px Arial,sans-serif}.axis{fill:#8eaaa3;font:12px Arial,sans-serif}.marker{font:800 12px Arial,sans-serif}</style>
  <text x="86" y="40" class="head">NKE Underlying Price</text>
  <text x="86" y="66" class="sub">90 sessions | Entry marked; position remains open | Published option idea rank 2</text>
  <line x1="86" x2="1142" y1="100.0" y2="100.0" stroke="#1b4a42" stroke-width="1"/><text x="72" y="105.0" text-anchor="end" class="axis">$57.20</text><line x1="86" x2="1142" y1="183.5" y2="183.5" stroke="#1b4a42" stroke-width="1"/><text x="72" y="188.5" text-anchor="end" class="axis">$52.71</text><line x1="86" x2="1142" y1="267.0" y2="267.0" stroke="#1b4a42" stroke-width="1"/><text x="72" y="272.0" text-anchor="end" class="axis">$48.23</text><line x1="86" x2="1142" y1="350.5" y2="350.5" stroke="#1b4a42" stroke-width="1"/><text x="72" y="355.5" text-anchor="end" class="axis">$43.74</text><line x1="86" x2="1142" y1="434.0" y2="434.0" stroke="#1b4a42" stroke-width="1"/><text x="72" y="439.0" text-anchor="end" class="axis">$39.26</text>
  <path d="M86.0,127.8 L97.9,157.1 L109.7,159.9 L121.6,144.8 L133.5,138.6 L145.3,169.4 L157.2,169.9 L169.1,189.8 L180.9,183.5 L192.8,169.0 L204.7,178.5 L216.5,195.4 L228.4,208.4 L240.2,210.9 L252.1,181.5 L264.0,333.9 L275.8,342.1 L287.7,345.1 L299.6,370.0 L311.4,361.9 L323.3,345.7 L335.2,371.4 L347.0,366.0 L358.9,341.9 L370.8,318.9 L382.6,314.0 L394.5,307.9 L406.4,299.5 L418.2,301.2 L430.1,314.4 L442.0,331.1 L453.8,332.8 L465.7,324.4 L477.6,326.5 L489.4,338.4 L501.3,339.0 L513.1,338.2 L525.0,362.6 L536.9,363.2 L548.7,347.9 L560.6,338.0 L572.5,343.1 L584.3,375.6 L596.2,376.4 L608.1,376.6 L619.9,382.5 L631.8,385.1 L643.7,372.3 L655.5,375.1 L667.4,342.1 L679.3,338.4 L691.1,333.2 L703.0,328.2 L714.9,308.8 L726.7,282.9 L738.6,304.1 L750.4,309.7 L762.3,350.7 L774.2,349.2 L786.0,352.7 L797.9,364.6 L809.8,360.0 L821.6,333.6 L833.5,346.4 L845.4,309.2 L857.2,328.3 L869.1,323.3 L881.0,326.3 L892.8,342.1 L904.7,323.3 L916.6,360.7 L928.4,375.8 L940.3,386.2 L952.2,403.4 L964.0,406.2 L975.9,392.6 L987.8,400.6 L999.6,363.2 L1011.5,344.0 L1023.3,357.9 L1035.2,360.4 L1047.1,366.3 L1058.9,368.4 L1070.8,338.8 L1082.7,350.1 L1094.5,366.9 L1106.4,368.6 L1118.3,335.0 L1130.1,350.1 L1142.0,355.5 L1142.0,434.0 L86.0,434.0 Z" fill="#0f5949" opacity="0.28"/>
  <path d="M86.0,127.8 L97.9,157.1 L109.7,159.9 L121.6,144.8 L133.5,138.6 L145.3,169.4 L157.2,169.9 L169.1,189.8 L180.9,183.5 L192.8,169.0 L204.7,178.5 L216.5,195.4 L228.4,208.4 L240.2,210.9 L252.1,181.5 L264.0,333.9 L275.8,342.1 L287.7,345.1 L299.6,370.0 L311.4,361.9 L323.3,345.7 L335.2,371.4 L347.0,366.0 L358.9,341.9 L370.8,318.9 L382.6,314.0 L394.5,307.9 L406.4,299.5 L418.2,301.2 L430.1,314.4 L442.0,331.1 L453.8,332.8 L465.7,324.4 L477.6,326.5 L489.4,338.4 L501.3,339.0 L513.1,338.2 L525.0,362.6 L536.9,363.2 L548.7,347.9 L560.6,338.0 L572.5,343.1 L584.3,375.6 L596.2,376.4 L608.1,376.6 L619.9,382.5 L631.8,385.1 L643.7,372.3 L655.5,375.1 L667.4,342.1 L679.3,338.4 L691.1,333.2 L703.0,328.2 L714.9,308.8 L726.7,282.9 L738.6,304.1 L750.4,309.7 L762.3,350.7 L774.2,349.2 L786.0,352.7 L797.9,364.6 L809.8,360.0 L821.6,333.6 L833.5,346.4 L845.4,309.2 L857.2,328.3 L869.1,323.3 L881.0,326.3 L892.8,342.1 L904.7,323.3 L916.6,360.7 L928.4,375.8 L940.3,386.2 L952.2,403.4 L964.0,406.2 L975.9,392.6 L987.8,400.6 L999.6,363.2 L1011.5,344.0 L1023.3,357.9 L1035.2,360.4 L1047.1,366.3 L1058.9,368.4 L1070.8,338.8 L1082.7,350.1 L1094.5,366.9 L1106.4,368.6 L1118.3,335.0 L1130.1,350.1 L1142.0,355.5" fill="none" stroke="#62d9ee" stroke-width="4" stroke-linecap="round" stroke-linejoin="round"/>
  <g>
    <line x1="1082.7" x2="1082.7" y1="100" y2="434" stroke="#18e59c" stroke-width="2" stroke-dasharray="7 7" opacity="0.8"/>
    <circle cx="1082.7" cy="341.0" r="8" fill="#071f1c" stroke="#18e59c" stroke-width="4"/>
    <text x="1030.0" y="323.0" text-anchor="middle" class="marker" fill="#18e59c">ENTRY | Jul 13 | $44.25</text>
  </g>
  
  <text x="86.0" y="472" text-anchor="middle" class="axis">Mar 11</text><text x="347.0" y="472" text-anchor="middle" class="axis">Apr 13</text><text x="619.9" y="472" text-anchor="middle" class="axis">May 14</text><text x="881.0" y="472" text-anchor="middle" class="axis">Jun 16</text><text x="1142.0" y="472" text-anchor="middle" class="axis">Jul 20</text>
  </svg>