<svg xmlns="http://www.w3.org/2000/svg" width="1200" height="500" viewBox="0 0 1200 500" role="img" aria-label="NKE underlying price from entry">
  <rect width="1200" height="500" fill="#071f1c"/>
  <style>.head{fill:#f4fff9;font:800 27px Georgia,serif}.sub{fill:#9fc4bb;font:14px Arial,sans-serif}.axis{fill:#8eaaa3;font:12px Arial,sans-serif}.marker{font:800 12px Arial,sans-serif}</style>
  <text x="86" y="40" class="head">NKE Underlying Price</text>
  <text x="86" y="66" class="sub">90 sessions | Entry marked; position remains open | Published option idea rank 2</text>
  <line x1="86" x2="1142" y1="100.0" y2="100.0" stroke="#1b4a42" stroke-width="1"/><text x="72" y="105.0" text-anchor="end" class="axis">$56.56</text><line x1="86" x2="1142" y1="183.5" y2="183.5" stroke="#1b4a42" stroke-width="1"/><text x="72" y="188.5" text-anchor="end" class="axis">$52.25</text><line x1="86" x2="1142" y1="267.0" y2="267.0" stroke="#1b4a42" stroke-width="1"/><text x="72" y="272.0" text-anchor="end" class="axis">$47.94</text><line x1="86" x2="1142" y1="350.5" y2="350.5" stroke="#1b4a42" stroke-width="1"/><text x="72" y="355.5" text-anchor="end" class="axis">$43.62</text><line x1="86" x2="1142" y1="434.0" y2="434.0" stroke="#1b4a42" stroke-width="1"/><text x="72" y="439.0" text-anchor="end" class="axis">$39.31</text>
  <path d="M86.0,149.9 L97.9,134.2 L109.7,127.8 L121.6,159.8 L133.5,160.4 L145.3,181.1 L157.2,174.5 L169.1,159.4 L180.9,169.3 L192.8,186.9 L204.7,200.5 L216.5,203.0 L228.4,172.4 L240.2,331.0 L252.1,339.5 L264.0,342.6 L275.8,368.6 L287.7,360.1 L299.6,343.2 L311.4,369.9 L323.3,364.3 L335.2,339.3 L347.0,315.3 L358.9,310.3 L370.8,303.9 L382.6,295.2 L394.5,296.9 L406.4,310.7 L418.2,328.1 L430.1,329.9 L442.0,321.1 L453.8,323.3 L465.7,335.7 L477.6,336.2 L489.4,335.5 L501.3,360.8 L513.1,361.4 L525.0,345.5 L536.9,335.3 L548.7,340.5 L560.6,374.4 L572.5,375.2 L584.3,375.4 L596.2,381.6 L608.1,384.3 L619.9,370.9 L631.8,373.8 L643.7,339.5 L655.5,335.7 L667.4,330.2 L679.3,325.0 L691.1,304.9 L703.0,277.9 L714.9,300.0 L726.7,305.8 L738.6,348.4 L750.4,346.9 L762.3,350.6 L774.2,363.0 L786.0,358.1 L797.9,330.6 L809.8,344.0 L821.6,305.3 L833.5,325.2 L845.4,320.0 L857.2,323.1 L869.1,339.5 L881.0,320.0 L892.8,358.9 L904.7,374.6 L916.6,385.4 L928.4,403.3 L940.3,406.2 L952.2,392.0 L964.0,400.4 L975.9,361.4 L987.8,341.5 L999.6,356.0 L1011.5,358.5 L1023.3,364.7 L1035.2,366.8 L1047.1,336.1 L1058.9,347.9 L1070.8,365.3 L1082.7,367.0 L1094.5,332.2 L1106.4,347.9 L1118.3,353.5 L1130.1,363.4 L1142.0,377.9 L1142.0,434.0 L86.0,434.0 Z" fill="#0f5949" opacity="0.28"/>
  <path d="M86.0,149.9 L97.9,134.2 L109.7,127.8 L121.6,159.8 L133.5,160.4 L145.3,181.1 L157.2,174.5 L169.1,159.4 L180.9,169.3 L192.8,186.9 L204.7,200.5 L216.5,203.0 L228.4,172.4 L240.2,331.0 L252.1,339.5 L264.0,342.6 L275.8,368.6 L287.7,360.1 L299.6,343.2 L311.4,369.9 L323.3,364.3 L335.2,339.3 L347.0,315.3 L358.9,310.3 L370.8,303.9 L382.6,295.2 L394.5,296.9 L406.4,310.7 L418.2,328.1 L430.1,329.9 L442.0,321.1 L453.8,323.3 L465.7,335.7 L477.6,336.2 L489.4,335.5 L501.3,360.8 L513.1,361.4 L525.0,345.5 L536.9,335.3 L548.7,340.5 L560.6,374.4 L572.5,375.2 L584.3,375.4 L596.2,381.6 L608.1,384.3 L619.9,370.9 L631.8,373.8 L643.7,339.5 L655.5,335.7 L667.4,330.2 L679.3,325.0 L691.1,304.9 L703.0,277.9 L714.9,300.0 L726.7,305.8 L738.6,348.4 L750.4,346.9 L762.3,350.6 L774.2,363.0 L786.0,358.1 L797.9,330.6 L809.8,344.0 L821.6,305.3 L833.5,325.2 L845.4,320.0 L857.2,323.1 L869.1,339.5 L881.0,320.0 L892.8,358.9 L904.7,374.6 L916.6,385.4 L928.4,403.3 L940.3,406.2 L952.2,392.0 L964.0,400.4 L975.9,361.4 L987.8,341.5 L999.6,356.0 L1011.5,358.5 L1023.3,364.7 L1035.2,366.8 L1047.1,336.1 L1058.9,347.9 L1070.8,365.3 L1082.7,367.0 L1094.5,332.2 L1106.4,347.9 L1118.3,353.5 L1130.1,363.4 L1142.0,377.9" fill="none" stroke="#62d9ee" stroke-width="4" stroke-linecap="round" stroke-linejoin="round"/>
  <g>
    <line x1="1058.9" x2="1058.9" y1="100" y2="434" stroke="#18e59c" stroke-width="2" stroke-dasharray="7 7" opacity="0.8"/>
    <circle cx="1058.9" cy="338.4" r="8" fill="#071f1c" stroke="#18e59c" stroke-width="4"/>
    <text x="1030.0" y="320.4" text-anchor="middle" class="marker" fill="#18e59c">ENTRY | Jul 13 | $44.25</text>
  </g>
  
  <text x="86.0" y="472" text-anchor="middle" class="axis">Mar 13</text><text x="347.0" y="472" text-anchor="middle" class="axis">Apr 15</text><text x="619.9" y="472" text-anchor="middle" class="axis">May 18</text><text x="881.0" y="472" text-anchor="middle" class="axis">Jun 18</text><text x="1142.0" y="472" text-anchor="middle" class="axis">Jul 22</text>
  </svg>