<svg xmlns="http://www.w3.org/2000/svg" width="1200" height="500" viewBox="0 0 1200 500" role="img" aria-label="NKE underlying price from entry">
  <rect width="1200" height="500" fill="#071f1c"/>
  <style>.head{fill:#f4fff9;font:800 27px Georgia,serif}.sub{fill:#9fc4bb;font:14px Arial,sans-serif}.axis{fill:#8eaaa3;font:12px Arial,sans-serif}.marker{font:800 12px Arial,sans-serif}</style>
  <text x="86" y="40" class="head">NKE Underlying Price</text>
  <text x="86" y="66" class="sub">90 sessions | Entry marked; position remains open | Published option idea rank 2</text>
  <line x1="86" x2="1142" y1="100.0" y2="100.0" stroke="#1b4a42" stroke-width="1"/><text x="72" y="105.0" text-anchor="end" class="axis">$60.43</text><line x1="86" x2="1142" y1="183.5" y2="183.5" stroke="#1b4a42" stroke-width="1"/><text x="72" y="188.5" text-anchor="end" class="axis">$55.06</text><line x1="86" x2="1142" y1="267.0" y2="267.0" stroke="#1b4a42" stroke-width="1"/><text x="72" y="272.0" text-anchor="end" class="axis">$49.70</text><line x1="86" x2="1142" y1="350.5" y2="350.5" stroke="#1b4a42" stroke-width="1"/><text x="72" y="355.5" text-anchor="end" class="axis">$44.33</text><line x1="86" x2="1142" y1="434.0" y2="434.0" stroke="#1b4a42" stroke-width="1"/><text x="72" y="439.0" text-anchor="end" class="axis">$38.96</text>
  <path d="M86.0,127.8 L97.9,137.5 L109.7,153.2 L121.6,160.7 L133.5,167.7 L145.3,173.6 L157.2,198.0 L169.1,200.3 L180.9,187.7 L192.8,182.6 L204.7,208.3 L216.5,208.7 L228.4,225.4 L240.2,220.1 L252.1,208.0 L264.0,215.9 L275.8,230.0 L287.7,240.9 L299.6,243.0 L311.4,218.4 L323.3,345.8 L335.2,352.6 L347.0,355.1 L358.9,376.0 L370.8,369.1 L382.6,355.6 L394.5,377.1 L406.4,372.6 L418.2,352.5 L430.1,333.2 L442.0,329.2 L453.8,324.0 L465.7,317.0 L477.6,318.4 L489.4,329.5 L501.3,343.5 L513.1,344.9 L525.0,337.9 L536.9,339.6 L548.7,349.5 L560.6,350.0 L572.5,349.4 L584.3,369.8 L596.2,370.2 L608.1,357.5 L619.9,349.2 L631.8,353.4 L643.7,380.7 L655.5,381.3 L667.4,381.4 L679.3,386.4 L691.1,388.6 L703.0,377.9 L714.9,380.2 L726.7,352.6 L738.6,349.5 L750.4,345.2 L762.3,341.0 L774.2,324.8 L786.0,303.2 L797.9,320.9 L809.8,325.6 L821.6,359.8 L833.5,358.6 L845.4,361.5 L857.2,371.5 L869.1,367.6 L881.0,345.5 L892.8,356.2 L904.7,325.1 L916.6,341.1 L928.4,336.9 L940.3,339.4 L952.2,352.6 L964.0,336.9 L975.9,368.2 L987.8,380.8 L999.6,389.5 L1011.5,403.8 L1023.3,406.2 L1035.2,394.8 L1047.1,401.5 L1058.9,370.2 L1070.8,354.2 L1082.7,365.9 L1094.5,367.9 L1106.4,372.9 L1118.3,374.6 L1130.1,349.8 L1142.0,359.3 L1142.0,434.0 L86.0,434.0 Z" fill="#0f5949" opacity="0.28"/>
  <path d="M86.0,127.8 L97.9,137.5 L109.7,153.2 L121.6,160.7 L133.5,167.7 L145.3,173.6 L157.2,198.0 L169.1,200.3 L180.9,187.7 L192.8,182.6 L204.7,208.3 L216.5,208.7 L228.4,225.4 L240.2,220.1 L252.1,208.0 L264.0,215.9 L275.8,230.0 L287.7,240.9 L299.6,243.0 L311.4,218.4 L323.3,345.8 L335.2,352.6 L347.0,355.1 L358.9,376.0 L370.8,369.1 L382.6,355.6 L394.5,377.1 L406.4,372.6 L418.2,352.5 L430.1,333.2 L442.0,329.2 L453.8,324.0 L465.7,317.0 L477.6,318.4 L489.4,329.5 L501.3,343.5 L513.1,344.9 L525.0,337.9 L536.9,339.6 L548.7,349.5 L560.6,350.0 L572.5,349.4 L584.3,369.8 L596.2,370.2 L608.1,357.5 L619.9,349.2 L631.8,353.4 L643.7,380.7 L655.5,381.3 L667.4,381.4 L679.3,386.4 L691.1,388.6 L703.0,377.9 L714.9,380.2 L726.7,352.6 L738.6,349.5 L750.4,345.2 L762.3,341.0 L774.2,324.8 L786.0,303.2 L797.9,320.9 L809.8,325.6 L821.6,359.8 L833.5,358.6 L845.4,361.5 L857.2,371.5 L869.1,367.6 L881.0,345.5 L892.8,356.2 L904.7,325.1 L916.6,341.1 L928.4,336.9 L940.3,339.4 L952.2,352.6 L964.0,336.9 L975.9,368.2 L987.8,380.8 L999.6,389.5 L1011.5,403.8 L1023.3,406.2 L1035.2,394.8 L1047.1,401.5 L1058.9,370.2 L1070.8,354.2 L1082.7,365.9 L1094.5,367.9 L1106.4,372.9 L1118.3,374.6 L1130.1,349.8 L1142.0,359.3" fill="none" stroke="#62d9ee" stroke-width="4" stroke-linecap="round" stroke-linejoin="round"/>
  <g>
    <line x1="1142.0" x2="1142.0" y1="100" y2="434" stroke="#18e59c" stroke-width="2" stroke-dasharray="7 7" opacity="0.8"/>
    <circle cx="1142.0" cy="351.7" r="8" fill="#071f1c" stroke="#18e59c" stroke-width="4"/>
    <text x="1030.0" y="333.7" text-anchor="middle" class="marker" fill="#18e59c">ENTRY | Jul 13 | $44.25</text>
  </g>
  
  <text x="86.0" y="472" text-anchor="middle" class="axis">Mar 4</text><text x="347.0" y="472" text-anchor="middle" class="axis">Apr 6</text><text x="619.9" y="472" text-anchor="middle" class="axis">May 7</text><text x="881.0" y="472" text-anchor="middle" class="axis">Jun 9</text><text x="1142.0" y="472" text-anchor="middle" class="axis">Jul 13</text>
  </svg>