<svg xmlns="http://www.w3.org/2000/svg" width="1200" height="500" viewBox="0 0 1200 500" role="img" aria-label="NKE underlying price from entry">
  <rect width="1200" height="500" fill="#071f1c"/>
  <style>.head{fill:#f4fff9;font:800 27px Georgia,serif}.sub{fill:#9fc4bb;font:14px Arial,sans-serif}.axis{fill:#8eaaa3;font:12px Arial,sans-serif}.marker{font:800 12px Arial,sans-serif}</style>
  <text x="86" y="40" class="head">NKE Underlying Price</text>
  <text x="86" y="66" class="sub">90 sessions | Entry marked; position remains open | Published option idea rank 2</text>
  <line x1="86" x2="1142" y1="100.0" y2="100.0" stroke="#1b4a42" stroke-width="1"/><text x="72" y="105.0" text-anchor="end" class="axis">$56.56</text><line x1="86" x2="1142" y1="183.5" y2="183.5" stroke="#1b4a42" stroke-width="1"/><text x="72" y="188.5" text-anchor="end" class="axis">$52.25</text><line x1="86" x2="1142" y1="267.0" y2="267.0" stroke="#1b4a42" stroke-width="1"/><text x="72" y="272.0" text-anchor="end" class="axis">$47.94</text><line x1="86" x2="1142" y1="350.5" y2="350.5" stroke="#1b4a42" stroke-width="1"/><text x="72" y="355.5" text-anchor="end" class="axis">$43.62</text><line x1="86" x2="1142" y1="434.0" y2="434.0" stroke="#1b4a42" stroke-width="1"/><text x="72" y="439.0" text-anchor="end" class="axis">$39.31</text>
  <path d="M86.0,134.2 L97.9,127.8 L109.7,159.8 L121.6,160.4 L133.5,181.1 L145.3,174.5 L157.2,159.4 L169.1,169.3 L180.9,186.9 L192.8,200.5 L204.7,203.0 L216.5,172.4 L228.4,331.0 L240.2,339.5 L252.1,342.6 L264.0,368.6 L275.8,360.1 L287.7,343.2 L299.6,369.9 L311.4,364.3 L323.3,339.3 L335.2,315.3 L347.0,310.3 L358.9,303.9 L370.8,295.2 L382.6,296.9 L394.5,310.7 L406.4,328.1 L418.2,329.9 L430.1,321.1 L442.0,323.3 L453.8,335.7 L465.7,336.2 L477.6,335.5 L489.4,360.8 L501.3,361.4 L513.1,345.5 L525.0,335.3 L536.9,340.5 L548.7,374.4 L560.6,375.2 L572.5,375.4 L584.3,381.6 L596.2,384.3 L608.1,370.9 L619.9,373.8 L631.8,339.5 L643.7,335.7 L655.5,330.2 L667.4,325.0 L679.3,304.9 L691.1,277.9 L703.0,300.0 L714.9,305.8 L726.7,348.4 L738.6,346.9 L750.4,350.6 L762.3,363.0 L774.2,358.1 L786.0,330.6 L797.9,344.0 L809.8,305.3 L821.6,325.2 L833.5,320.0 L845.4,323.1 L857.2,339.5 L869.1,320.0 L881.0,358.9 L892.8,374.6 L904.7,385.4 L916.6,403.3 L928.4,406.2 L940.3,392.0 L952.2,400.4 L964.0,361.4 L975.9,341.5 L987.8,356.0 L999.6,358.5 L1011.5,364.7 L1023.3,366.8 L1035.2,336.1 L1047.1,347.9 L1058.9,365.3 L1070.8,367.0 L1082.7,332.2 L1094.5,347.9 L1106.4,353.5 L1118.3,363.4 L1130.1,377.9 L1142.0,401.5 L1142.0,434.0 L86.0,434.0 Z" fill="#0f5949" opacity="0.28"/>
  <path d="M86.0,134.2 L97.9,127.8 L109.7,159.8 L121.6,160.4 L133.5,181.1 L145.3,174.5 L157.2,159.4 L169.1,169.3 L180.9,186.9 L192.8,200.5 L204.7,203.0 L216.5,172.4 L228.4,331.0 L240.2,339.5 L252.1,342.6 L264.0,368.6 L275.8,360.1 L287.7,343.2 L299.6,369.9 L311.4,364.3 L323.3,339.3 L335.2,315.3 L347.0,310.3 L358.9,303.9 L370.8,295.2 L382.6,296.9 L394.5,310.7 L406.4,328.1 L418.2,329.9 L430.1,321.1 L442.0,323.3 L453.8,335.7 L465.7,336.2 L477.6,335.5 L489.4,360.8 L501.3,361.4 L513.1,345.5 L525.0,335.3 L536.9,340.5 L548.7,374.4 L560.6,375.2 L572.5,375.4 L584.3,381.6 L596.2,384.3 L608.1,370.9 L619.9,373.8 L631.8,339.5 L643.7,335.7 L655.5,330.2 L667.4,325.0 L679.3,304.9 L691.1,277.9 L703.0,300.0 L714.9,305.8 L726.7,348.4 L738.6,346.9 L750.4,350.6 L762.3,363.0 L774.2,358.1 L786.0,330.6 L797.9,344.0 L809.8,305.3 L821.6,325.2 L833.5,320.0 L845.4,323.1 L857.2,339.5 L869.1,320.0 L881.0,358.9 L892.8,374.6 L904.7,385.4 L916.6,403.3 L928.4,406.2 L940.3,392.0 L952.2,400.4 L964.0,361.4 L975.9,341.5 L987.8,356.0 L999.6,358.5 L1011.5,364.7 L1023.3,366.8 L1035.2,336.1 L1047.1,347.9 L1058.9,365.3 L1070.8,367.0 L1082.7,332.2 L1094.5,347.9 L1106.4,353.5 L1118.3,363.4 L1130.1,377.9 L1142.0,401.5" fill="none" stroke="#62d9ee" stroke-width="4" stroke-linecap="round" stroke-linejoin="round"/>
  <g>
    <line x1="1047.1" x2="1047.1" y1="100" y2="434" stroke="#18e59c" stroke-width="2" stroke-dasharray="7 7" opacity="0.8"/>
    <circle cx="1047.1" cy="338.4" r="8" fill="#071f1c" stroke="#18e59c" stroke-width="4"/>
    <text x="1030.0" y="320.4" text-anchor="middle" class="marker" fill="#18e59c">ENTRY | Jul 13 | $44.25</text>
  </g>
  
  <text x="86.0" y="472" text-anchor="middle" class="axis">Mar 16</text><text x="347.0" y="472" text-anchor="middle" class="axis">Apr 16</text><text x="619.9" y="472" text-anchor="middle" class="axis">May 19</text><text x="881.0" y="472" text-anchor="middle" class="axis">Jun 22</text><text x="1142.0" y="472" text-anchor="middle" class="axis">Jul 23</text>
  </svg>