<svg xmlns="http://www.w3.org/2000/svg" width="1200" height="500" viewBox="0 0 1200 500" role="img" aria-label="NKE underlying price from entry">
  <rect width="1200" height="500" fill="#071f1c"/>
  <style>.head{fill:#f4fff9;font:800 27px Georgia,serif}.sub{fill:#9fc4bb;font:14px Arial,sans-serif}.axis{fill:#8eaaa3;font:12px Arial,sans-serif}.marker{font:800 12px Arial,sans-serif}</style>
  <text x="86" y="40" class="head">NKE Underlying Price</text>
  <text x="86" y="66" class="sub">90 sessions | Entry marked; position remains open | Published option idea rank 2</text>
  <line x1="86" x2="1142" y1="100.0" y2="100.0" stroke="#1b4a42" stroke-width="1"/><text x="72" y="105.0" text-anchor="end" class="axis">$56.56</text><line x1="86" x2="1142" y1="183.5" y2="183.5" stroke="#1b4a42" stroke-width="1"/><text x="72" y="188.5" text-anchor="end" class="axis">$52.25</text><line x1="86" x2="1142" y1="267.0" y2="267.0" stroke="#1b4a42" stroke-width="1"/><text x="72" y="272.0" text-anchor="end" class="axis">$47.94</text><line x1="86" x2="1142" y1="350.5" y2="350.5" stroke="#1b4a42" stroke-width="1"/><text x="72" y="355.5" text-anchor="end" class="axis">$43.62</text><line x1="86" x2="1142" y1="434.0" y2="434.0" stroke="#1b4a42" stroke-width="1"/><text x="72" y="439.0" text-anchor="end" class="axis">$39.31</text>
  <path d="M86.0,147.0 L97.9,149.9 L109.7,134.2 L121.6,127.8 L133.5,159.8 L145.3,160.4 L157.2,181.1 L169.1,174.5 L180.9,159.4 L192.8,169.3 L204.7,186.9 L216.5,200.5 L228.4,203.0 L240.2,172.4 L252.1,331.0 L264.0,339.5 L275.8,342.6 L287.7,368.6 L299.6,360.1 L311.4,343.2 L323.3,369.9 L335.2,364.3 L347.0,339.3 L358.9,315.3 L370.8,310.3 L382.6,303.9 L394.5,295.2 L406.4,296.9 L418.2,310.7 L430.1,328.1 L442.0,329.9 L453.8,321.1 L465.7,323.3 L477.6,335.7 L489.4,336.2 L501.3,335.5 L513.1,360.8 L525.0,361.4 L536.9,345.5 L548.7,335.3 L560.6,340.5 L572.5,374.4 L584.3,375.2 L596.2,375.4 L608.1,381.6 L619.9,384.3 L631.8,370.9 L643.7,373.8 L655.5,339.5 L667.4,335.7 L679.3,330.2 L691.1,325.0 L703.0,304.9 L714.9,277.9 L726.7,300.0 L738.6,305.8 L750.4,348.4 L762.3,346.9 L774.2,350.6 L786.0,363.0 L797.9,358.1 L809.8,330.6 L821.6,344.0 L833.5,305.3 L845.4,325.2 L857.2,320.0 L869.1,323.1 L881.0,339.5 L892.8,320.0 L904.7,358.9 L916.6,374.6 L928.4,385.4 L940.3,403.3 L952.2,406.2 L964.0,392.0 L975.9,400.4 L987.8,361.4 L999.6,341.5 L1011.5,356.0 L1023.3,358.5 L1035.2,364.7 L1047.1,366.8 L1058.9,336.1 L1070.8,347.9 L1082.7,365.3 L1094.5,367.0 L1106.4,332.2 L1118.3,347.9 L1130.1,353.5 L1142.0,363.4 L1142.0,434.0 L86.0,434.0 Z" fill="#0f5949" opacity="0.28"/>
  <path d="M86.0,147.0 L97.9,149.9 L109.7,134.2 L121.6,127.8 L133.5,159.8 L145.3,160.4 L157.2,181.1 L169.1,174.5 L180.9,159.4 L192.8,169.3 L204.7,186.9 L216.5,200.5 L228.4,203.0 L240.2,172.4 L252.1,331.0 L264.0,339.5 L275.8,342.6 L287.7,368.6 L299.6,360.1 L311.4,343.2 L323.3,369.9 L335.2,364.3 L347.0,339.3 L358.9,315.3 L370.8,310.3 L382.6,303.9 L394.5,295.2 L406.4,296.9 L418.2,310.7 L430.1,328.1 L442.0,329.9 L453.8,321.1 L465.7,323.3 L477.6,335.7 L489.4,336.2 L501.3,335.5 L513.1,360.8 L525.0,361.4 L536.9,345.5 L548.7,335.3 L560.6,340.5 L572.5,374.4 L584.3,375.2 L596.2,375.4 L608.1,381.6 L619.9,384.3 L631.8,370.9 L643.7,373.8 L655.5,339.5 L667.4,335.7 L679.3,330.2 L691.1,325.0 L703.0,304.9 L714.9,277.9 L726.7,300.0 L738.6,305.8 L750.4,348.4 L762.3,346.9 L774.2,350.6 L786.0,363.0 L797.9,358.1 L809.8,330.6 L821.6,344.0 L833.5,305.3 L845.4,325.2 L857.2,320.0 L869.1,323.1 L881.0,339.5 L892.8,320.0 L904.7,358.9 L916.6,374.6 L928.4,385.4 L940.3,403.3 L952.2,406.2 L964.0,392.0 L975.9,400.4 L987.8,361.4 L999.6,341.5 L1011.5,356.0 L1023.3,358.5 L1035.2,364.7 L1047.1,366.8 L1058.9,336.1 L1070.8,347.9 L1082.7,365.3 L1094.5,367.0 L1106.4,332.2 L1118.3,347.9 L1130.1,353.5 L1142.0,363.4" fill="none" stroke="#62d9ee" stroke-width="4" stroke-linecap="round" stroke-linejoin="round"/>
  <g>
    <line x1="1070.8" x2="1070.8" y1="100" y2="434" stroke="#18e59c" stroke-width="2" stroke-dasharray="7 7" opacity="0.8"/>
    <circle cx="1070.8" cy="338.4" r="8" fill="#071f1c" stroke="#18e59c" stroke-width="4"/>
    <text x="1030.0" y="320.4" text-anchor="middle" class="marker" fill="#18e59c">ENTRY | Jul 13 | $44.25</text>
  </g>
  
  <text x="86.0" y="472" text-anchor="middle" class="axis">Mar 12</text><text x="347.0" y="472" text-anchor="middle" class="axis">Apr 14</text><text x="619.9" y="472" text-anchor="middle" class="axis">May 15</text><text x="881.0" y="472" text-anchor="middle" class="axis">Jun 17</text><text x="1142.0" y="472" text-anchor="middle" class="axis">Jul 21</text>
  </svg>