<svg xmlns="http://www.w3.org/2000/svg" width="1200" height="500" viewBox="0 0 1200 500" role="img" aria-label="NKE underlying price from entry">
  <rect width="1200" height="500" fill="#071f1c"/>
  <style>.head{fill:#f4fff9;font:800 27px Georgia,serif}.sub{fill:#9fc4bb;font:14px Arial,sans-serif}.axis{fill:#8eaaa3;font:12px Arial,sans-serif}.marker{font:800 12px Arial,sans-serif}</style>
  <text x="86" y="40" class="head">NKE Underlying Price</text>
  <text x="86" y="66" class="sub">90 sessions | Entry marked; position remains open | Published option idea rank 2</text>
  <line x1="86" x2="1142" y1="100.0" y2="100.0" stroke="#1b4a42" stroke-width="1"/><text x="72" y="105.0" text-anchor="end" class="axis">$59.75</text><line x1="86" x2="1142" y1="183.5" y2="183.5" stroke="#1b4a42" stroke-width="1"/><text x="72" y="188.5" text-anchor="end" class="axis">$54.57</text><line x1="86" x2="1142" y1="267.0" y2="267.0" stroke="#1b4a42" stroke-width="1"/><text x="72" y="272.0" text-anchor="end" class="axis">$49.38</text><line x1="86" x2="1142" y1="350.5" y2="350.5" stroke="#1b4a42" stroke-width="1"/><text x="72" y="355.5" text-anchor="end" class="axis">$44.20</text><line x1="86" x2="1142" y1="434.0" y2="434.0" stroke="#1b4a42" stroke-width="1"/><text x="72" y="439.0" text-anchor="end" class="axis">$39.02</text>
  <path d="M86.0,127.8 L97.9,144.1 L109.7,151.8 L121.6,159.1 L133.5,165.2 L145.3,190.5 L157.2,192.9 L169.1,179.9 L180.9,174.6 L192.8,201.2 L204.7,201.6 L216.5,218.9 L228.4,213.4 L240.2,200.8 L252.1,209.1 L264.0,223.7 L275.8,235.0 L287.7,237.1 L299.6,211.6 L311.4,343.6 L323.3,350.7 L335.2,353.3 L347.0,374.9 L358.9,367.8 L370.8,353.8 L382.6,376.0 L394.5,371.4 L406.4,350.6 L418.2,330.6 L430.1,326.4 L442.0,321.1 L453.8,313.8 L465.7,315.3 L477.6,326.7 L489.4,341.2 L501.3,342.7 L513.1,335.4 L525.0,337.2 L536.9,347.5 L548.7,348.0 L560.6,347.3 L572.5,368.5 L584.3,368.9 L596.2,355.7 L608.1,347.2 L619.9,351.5 L631.8,379.7 L643.7,380.4 L655.5,380.5 L667.4,385.7 L679.3,388.0 L691.1,376.8 L703.0,379.3 L714.9,350.7 L726.7,347.5 L738.6,343.0 L750.4,338.6 L762.3,321.9 L774.2,299.5 L786.0,317.8 L797.9,322.7 L809.8,358.1 L821.6,356.8 L833.5,359.9 L845.4,370.2 L857.2,366.2 L869.1,343.3 L881.0,354.4 L892.8,322.2 L904.7,338.8 L916.6,334.4 L928.4,337.0 L940.3,350.7 L952.2,334.4 L964.0,366.8 L975.9,379.9 L987.8,388.9 L999.6,403.7 L1011.5,406.2 L1023.3,394.4 L1035.2,401.3 L1047.1,368.9 L1058.9,352.3 L1070.8,364.4 L1082.7,366.5 L1094.5,371.7 L1106.4,373.5 L1118.3,347.8 L1130.1,357.7 L1142.0,372.2 L1142.0,434.0 L86.0,434.0 Z" fill="#0f5949" opacity="0.28"/>
  <path d="M86.0,127.8 L97.9,144.1 L109.7,151.8 L121.6,159.1 L133.5,165.2 L145.3,190.5 L157.2,192.9 L169.1,179.9 L180.9,174.6 L192.8,201.2 L204.7,201.6 L216.5,218.9 L228.4,213.4 L240.2,200.8 L252.1,209.1 L264.0,223.7 L275.8,235.0 L287.7,237.1 L299.6,211.6 L311.4,343.6 L323.3,350.7 L335.2,353.3 L347.0,374.9 L358.9,367.8 L370.8,353.8 L382.6,376.0 L394.5,371.4 L406.4,350.6 L418.2,330.6 L430.1,326.4 L442.0,321.1 L453.8,313.8 L465.7,315.3 L477.6,326.7 L489.4,341.2 L501.3,342.7 L513.1,335.4 L525.0,337.2 L536.9,347.5 L548.7,348.0 L560.6,347.3 L572.5,368.5 L584.3,368.9 L596.2,355.7 L608.1,347.2 L619.9,351.5 L631.8,379.7 L643.7,380.4 L655.5,380.5 L667.4,385.7 L679.3,388.0 L691.1,376.8 L703.0,379.3 L714.9,350.7 L726.7,347.5 L738.6,343.0 L750.4,338.6 L762.3,321.9 L774.2,299.5 L786.0,317.8 L797.9,322.7 L809.8,358.1 L821.6,356.8 L833.5,359.9 L845.4,370.2 L857.2,366.2 L869.1,343.3 L881.0,354.4 L892.8,322.2 L904.7,338.8 L916.6,334.4 L928.4,337.0 L940.3,350.7 L952.2,334.4 L964.0,366.8 L975.9,379.9 L987.8,388.9 L999.6,403.7 L1011.5,406.2 L1023.3,394.4 L1035.2,401.3 L1047.1,368.9 L1058.9,352.3 L1070.8,364.4 L1082.7,366.5 L1094.5,371.7 L1106.4,373.5 L1118.3,347.8 L1130.1,357.7 L1142.0,372.2" fill="none" stroke="#62d9ee" stroke-width="4" stroke-linecap="round" stroke-linejoin="round"/>
  <g>
    <line x1="1130.1" x2="1130.1" y1="100" y2="434" stroke="#18e59c" stroke-width="2" stroke-dasharray="7 7" opacity="0.8"/>
    <circle cx="1130.1" cy="349.8" r="8" fill="#071f1c" stroke="#18e59c" stroke-width="4"/>
    <text x="1030.0" y="331.8" text-anchor="middle" class="marker" fill="#18e59c">ENTRY | Jul 13 | $44.25</text>
  </g>
  
  <text x="86.0" y="472" text-anchor="middle" class="axis">Mar 5</text><text x="347.0" y="472" text-anchor="middle" class="axis">Apr 7</text><text x="619.9" y="472" text-anchor="middle" class="axis">May 8</text><text x="881.0" y="472" text-anchor="middle" class="axis">Jun 10</text><text x="1142.0" y="472" text-anchor="middle" class="axis">Jul 14</text>
  </svg>