<svg xmlns="http://www.w3.org/2000/svg" width="1200" height="500" viewBox="0 0 1200 500" role="img" aria-label="NKE underlying price from entry">
  <rect width="1200" height="500" fill="#071f1c"/>
  <style>.head{fill:#f4fff9;font:800 27px Georgia,serif}.sub{fill:#9fc4bb;font:14px Arial,sans-serif}.axis{fill:#8eaaa3;font:12px Arial,sans-serif}.marker{font:800 12px Arial,sans-serif}</style>
  <text x="86" y="40" class="head">NKE Underlying Price</text>
  <text x="86" y="66" class="sub">90 sessions | Entry marked; position remains open | Published option idea rank 2</text>
  <line x1="86" x2="1142" y1="100.0" y2="100.0" stroke="#1b4a42" stroke-width="1"/><text x="72" y="105.0" text-anchor="end" class="axis">$58.64</text><line x1="86" x2="1142" y1="183.5" y2="183.5" stroke="#1b4a42" stroke-width="1"/><text x="72" y="188.5" text-anchor="end" class="axis">$53.76</text><line x1="86" x2="1142" y1="267.0" y2="267.0" stroke="#1b4a42" stroke-width="1"/><text x="72" y="272.0" text-anchor="end" class="axis">$48.88</text><line x1="86" x2="1142" y1="350.5" y2="350.5" stroke="#1b4a42" stroke-width="1"/><text x="72" y="355.5" text-anchor="end" class="axis">$44.00</text><line x1="86" x2="1142" y1="434.0" y2="434.0" stroke="#1b4a42" stroke-width="1"/><text x="72" y="439.0" text-anchor="end" class="axis">$39.12</text>
  <path d="M86.0,127.8 L97.9,136.0 L109.7,143.8 L121.6,150.3 L133.5,177.1 L145.3,179.7 L157.2,165.8 L169.1,160.2 L180.9,188.4 L192.8,188.9 L204.7,207.3 L216.5,201.4 L228.4,188.1 L240.2,196.8 L252.1,212.4 L264.0,224.4 L275.8,226.6 L287.7,199.6 L299.6,339.8 L311.4,347.3 L323.3,350.0 L335.2,373.0 L347.0,365.4 L358.9,350.5 L370.8,374.2 L382.6,369.2 L394.5,347.1 L406.4,325.9 L418.2,321.4 L430.1,315.8 L442.0,308.1 L453.8,309.6 L465.7,321.8 L477.6,337.2 L489.4,338.7 L501.3,331.0 L513.1,332.9 L525.0,343.9 L536.9,344.4 L548.7,343.7 L560.6,366.1 L572.5,366.6 L584.3,352.6 L596.2,343.5 L608.1,348.1 L619.9,378.1 L631.8,378.8 L643.7,378.9 L655.5,384.4 L667.4,386.8 L679.3,375.0 L691.1,377.6 L703.0,347.3 L714.9,343.9 L726.7,339.1 L738.6,334.4 L750.4,316.6 L762.3,292.8 L774.2,312.4 L786.0,317.5 L797.9,355.2 L809.8,353.8 L821.6,357.0 L833.5,368.0 L845.4,363.7 L857.2,339.4 L869.1,351.2 L881.0,317.0 L892.8,334.6 L904.7,330.0 L916.6,332.7 L928.4,347.3 L940.3,330.0 L952.2,364.4 L964.0,378.3 L975.9,387.9 L987.8,403.6 L999.6,406.2 L1011.5,393.7 L1023.3,401.0 L1035.2,366.6 L1047.1,349.0 L1058.9,361.8 L1070.8,364.1 L1082.7,369.5 L1094.5,371.4 L1106.4,344.2 L1118.3,354.6 L1130.1,370.0 L1142.0,371.6 L1142.0,434.0 L86.0,434.0 Z" fill="#0f5949" opacity="0.28"/>
  <path d="M86.0,127.8 L97.9,136.0 L109.7,143.8 L121.6,150.3 L133.5,177.1 L145.3,179.7 L157.2,165.8 L169.1,160.2 L180.9,188.4 L192.8,188.9 L204.7,207.3 L216.5,201.4 L228.4,188.1 L240.2,196.8 L252.1,212.4 L264.0,224.4 L275.8,226.6 L287.7,199.6 L299.6,339.8 L311.4,347.3 L323.3,350.0 L335.2,373.0 L347.0,365.4 L358.9,350.5 L370.8,374.2 L382.6,369.2 L394.5,347.1 L406.4,325.9 L418.2,321.4 L430.1,315.8 L442.0,308.1 L453.8,309.6 L465.7,321.8 L477.6,337.2 L489.4,338.7 L501.3,331.0 L513.1,332.9 L525.0,343.9 L536.9,344.4 L548.7,343.7 L560.6,366.1 L572.5,366.6 L584.3,352.6 L596.2,343.5 L608.1,348.1 L619.9,378.1 L631.8,378.8 L643.7,378.9 L655.5,384.4 L667.4,386.8 L679.3,375.0 L691.1,377.6 L703.0,347.3 L714.9,343.9 L726.7,339.1 L738.6,334.4 L750.4,316.6 L762.3,292.8 L774.2,312.4 L786.0,317.5 L797.9,355.2 L809.8,353.8 L821.6,357.0 L833.5,368.0 L845.4,363.7 L857.2,339.4 L869.1,351.2 L881.0,317.0 L892.8,334.6 L904.7,330.0 L916.6,332.7 L928.4,347.3 L940.3,330.0 L952.2,364.4 L964.0,378.3 L975.9,387.9 L987.8,403.6 L999.6,406.2 L1011.5,393.7 L1023.3,401.0 L1035.2,366.6 L1047.1,349.0 L1058.9,361.8 L1070.8,364.1 L1082.7,369.5 L1094.5,371.4 L1106.4,344.2 L1118.3,354.6 L1130.1,370.0 L1142.0,371.6" fill="none" stroke="#62d9ee" stroke-width="4" stroke-linecap="round" stroke-linejoin="round"/>
  <g>
    <line x1="1118.3" x2="1118.3" y1="100" y2="434" stroke="#18e59c" stroke-width="2" stroke-dasharray="7 7" opacity="0.8"/>
    <circle cx="1118.3" cy="346.3" r="8" fill="#071f1c" stroke="#18e59c" stroke-width="4"/>
    <text x="1030.0" y="328.3" text-anchor="middle" class="marker" fill="#18e59c">ENTRY | Jul 13 | $44.25</text>
  </g>
  
  <text x="86.0" y="472" text-anchor="middle" class="axis">Mar 6</text><text x="347.0" y="472" text-anchor="middle" class="axis">Apr 8</text><text x="619.9" y="472" text-anchor="middle" class="axis">May 11</text><text x="881.0" y="472" text-anchor="middle" class="axis">Jun 11</text><text x="1142.0" y="472" text-anchor="middle" class="axis">Jul 15</text>
  </svg>