<svg xmlns="http://www.w3.org/2000/svg" width="1200" height="500" viewBox="0 0 1200 500" role="img" aria-label="ORCL underlying price from entry">
  <rect width="1200" height="500" fill="#071f1c"/>
  <style>.head{fill:#f4fff9;font:800 27px Georgia,serif}.sub{fill:#9fc4bb;font:14px Arial,sans-serif}.axis{fill:#8eaaa3;font:12px Arial,sans-serif}.marker{font:800 12px Arial,sans-serif}</style>
  <text x="86" y="40" class="head">ORCL Underlying Price</text>
  <text x="86" y="66" class="sub">90 sessions | Entry marked; position remains open | Published option idea rank 3</text>
  <line x1="86" x2="1142" y1="100.0" y2="100.0" stroke="#1b4a42" stroke-width="1"/><text x="72" y="105.0" text-anchor="end" class="axis">$260.96</text><line x1="86" x2="1142" y1="183.5" y2="183.5" stroke="#1b4a42" stroke-width="1"/><text x="72" y="188.5" text-anchor="end" class="axis">$222.53</text><line x1="86" x2="1142" y1="267.0" y2="267.0" stroke="#1b4a42" stroke-width="1"/><text x="72" y="272.0" text-anchor="end" class="axis">$184.09</text><line x1="86" x2="1142" y1="350.5" y2="350.5" stroke="#1b4a42" stroke-width="1"/><text x="72" y="355.5" text-anchor="end" class="axis">$145.66</text><line x1="86" x2="1142" y1="434.0" y2="434.0" stroke="#1b4a42" stroke-width="1"/><text x="72" y="439.0" text-anchor="end" class="axis">$107.23</text>
  <path d="M86.0,328.1 L97.9,330.9 L109.7,334.8 L121.6,329.1 L133.5,341.8 L145.3,331.6 L157.2,347.4 L169.1,349.7 L180.9,356.7 L192.8,363.5 L204.7,365.4 L216.5,347.4 L228.4,351.4 L240.2,348.9 L252.1,350.8 L264.0,355.9 L275.8,354.8 L287.7,367.5 L299.6,367.0 L311.4,328.9 L323.3,312.8 L335.2,298.0 L347.0,279.5 L358.9,286.6 L370.8,281.2 L382.6,273.4 L394.5,259.6 L406.4,284.0 L418.2,290.5 L430.1,291.2 L442.0,306.4 L453.8,311.0 L465.7,316.3 L477.6,293.6 L489.4,275.3 L501.3,264.3 L513.1,245.4 L525.0,244.2 L536.9,241.2 L548.7,245.8 L560.6,261.1 L572.5,254.7 L584.3,242.0 L596.2,247.8 L608.1,261.5 L619.9,272.7 L631.8,258.2 L643.7,254.7 L655.5,249.7 L667.4,247.5 L679.3,252.1 L691.1,224.4 L703.0,176.4 L714.9,127.8 L726.7,135.6 L738.6,166.5 L750.4,153.5 L762.3,202.7 L774.2,206.8 L786.0,219.8 L797.9,229.7 L809.8,267.0 L821.6,266.9 L833.5,248.4 L845.4,257.8 L857.2,268.2 L869.1,266.6 L881.0,286.6 L892.8,308.1 L904.7,324.7 L916.6,335.7 L928.4,344.3 L940.3,345.9 L952.2,348.6 L964.0,357.4 L975.9,362.2 L987.8,354.6 L999.6,359.3 L1011.5,361.7 L1023.3,353.6 L1035.2,361.4 L1047.1,381.2 L1058.9,389.0 L1070.8,379.1 L1082.7,397.1 L1094.5,392.3 L1106.4,403.3 L1118.3,390.9 L1130.1,393.6 L1142.0,406.2 L1142.0,434.0 L86.0,434.0 Z" fill="#0f5949" opacity="0.28"/>
  <path d="M86.0,328.1 L97.9,330.9 L109.7,334.8 L121.6,329.1 L133.5,341.8 L145.3,331.6 L157.2,347.4 L169.1,349.7 L180.9,356.7 L192.8,363.5 L204.7,365.4 L216.5,347.4 L228.4,351.4 L240.2,348.9 L252.1,350.8 L264.0,355.9 L275.8,354.8 L287.7,367.5 L299.6,367.0 L311.4,328.9 L323.3,312.8 L335.2,298.0 L347.0,279.5 L358.9,286.6 L370.8,281.2 L382.6,273.4 L394.5,259.6 L406.4,284.0 L418.2,290.5 L430.1,291.2 L442.0,306.4 L453.8,311.0 L465.7,316.3 L477.6,293.6 L489.4,275.3 L501.3,264.3 L513.1,245.4 L525.0,244.2 L536.9,241.2 L548.7,245.8 L560.6,261.1 L572.5,254.7 L584.3,242.0 L596.2,247.8 L608.1,261.5 L619.9,272.7 L631.8,258.2 L643.7,254.7 L655.5,249.7 L667.4,247.5 L679.3,252.1 L691.1,224.4 L703.0,176.4 L714.9,127.8 L726.7,135.6 L738.6,166.5 L750.4,153.5 L762.3,202.7 L774.2,206.8 L786.0,219.8 L797.9,229.7 L809.8,267.0 L821.6,266.9 L833.5,248.4 L845.4,257.8 L857.2,268.2 L869.1,266.6 L881.0,286.6 L892.8,308.1 L904.7,324.7 L916.6,335.7 L928.4,344.3 L940.3,345.9 L952.2,348.6 L964.0,357.4 L975.9,362.2 L987.8,354.6 L999.6,359.3 L1011.5,361.7 L1023.3,353.6 L1035.2,361.4 L1047.1,381.2 L1058.9,389.0 L1070.8,379.1 L1082.7,397.1 L1094.5,392.3 L1106.4,403.3 L1118.3,390.9 L1130.1,393.6 L1142.0,406.2" fill="none" stroke="#62d9ee" stroke-width="4" stroke-linecap="round" stroke-linejoin="round"/>
  <g>
    <line x1="1047.1" x2="1047.1" y1="100" y2="434" stroke="#18e59c" stroke-width="2" stroke-dasharray="7 7" opacity="0.8"/>
    <circle cx="1047.1" cy="370.1" r="8" fill="#071f1c" stroke="#18e59c" stroke-width="4"/>
    <text x="1030.0" y="352.1" text-anchor="middle" class="marker" fill="#18e59c">ENTRY | Jul 13 | $136.66</text>
  </g>
  
  <text x="86.0" y="472" text-anchor="middle" class="axis">Mar 16</text><text x="347.0" y="472" text-anchor="middle" class="axis">Apr 16</text><text x="619.9" y="472" text-anchor="middle" class="axis">May 19</text><text x="881.0" y="472" text-anchor="middle" class="axis">Jun 22</text><text x="1142.0" y="472" text-anchor="middle" class="axis">Jul 23</text>
  </svg>