<svg xmlns="http://www.w3.org/2000/svg" width="1200" height="500" viewBox="0 0 1200 500" role="img" aria-label="ORCL underlying price from entry">
  <rect width="1200" height="500" fill="#071f1c"/>
  <style>.head{fill:#f4fff9;font:800 27px Georgia,serif}.sub{fill:#9fc4bb;font:14px Arial,sans-serif}.axis{fill:#8eaaa3;font:12px Arial,sans-serif}.marker{font:800 12px Arial,sans-serif}</style>
  <text x="86" y="40" class="head">ORCL Underlying Price</text>
  <text x="86" y="66" class="sub">90 sessions | Entry marked; position remains open | Published option idea rank 3</text>
  <line x1="86" x2="1142" y1="100.0" y2="100.0" stroke="#1b4a42" stroke-width="1"/><text x="72" y="105.0" text-anchor="end" class="axis">$260.17</text><line x1="86" x2="1142" y1="183.5" y2="183.5" stroke="#1b4a42" stroke-width="1"/><text x="72" y="188.5" text-anchor="end" class="axis">$224.11</text><line x1="86" x2="1142" y1="267.0" y2="267.0" stroke="#1b4a42" stroke-width="1"/><text x="72" y="272.0" text-anchor="end" class="axis">$188.04</text><line x1="86" x2="1142" y1="350.5" y2="350.5" stroke="#1b4a42" stroke-width="1"/><text x="72" y="355.5" text-anchor="end" class="axis">$151.98</text><line x1="86" x2="1142" y1="434.0" y2="434.0" stroke="#1b4a42" stroke-width="1"/><text x="72" y="439.0" text-anchor="end" class="axis">$115.92</text>
  <path d="M86.0,344.0 L97.9,348.2 L109.7,351.5 L121.6,356.5 L133.5,324.7 L145.3,333.9 L157.2,343.3 L169.1,341.3 L180.9,344.2 L192.8,348.4 L204.7,342.3 L216.5,355.8 L228.4,345.0 L240.2,361.8 L252.1,364.3 L264.0,371.7 L275.8,379.0 L287.7,381.0 L299.6,361.8 L311.4,366.1 L323.3,363.5 L335.2,365.4 L347.0,370.9 L358.9,369.8 L370.8,383.2 L382.6,382.7 L394.5,342.1 L406.4,325.0 L418.2,309.2 L430.1,289.5 L442.0,297.1 L453.8,291.2 L465.7,282.9 L477.6,268.3 L489.4,294.2 L501.3,301.2 L513.1,301.9 L525.0,318.1 L536.9,323.1 L548.7,328.7 L560.6,304.5 L572.5,285.0 L584.3,273.2 L596.2,253.1 L608.1,251.8 L619.9,248.7 L631.8,253.6 L643.7,269.8 L655.5,263.0 L667.4,249.5 L679.3,255.6 L691.1,270.3 L703.0,282.2 L714.9,266.7 L726.7,263.0 L738.6,257.7 L750.4,255.4 L762.3,260.3 L774.2,230.8 L786.0,179.6 L797.9,127.8 L809.8,136.1 L821.6,169.1 L833.5,155.2 L845.4,207.6 L857.2,212.0 L869.1,225.9 L881.0,236.4 L892.8,276.1 L904.7,276.1 L916.6,256.4 L928.4,266.3 L940.3,277.5 L952.2,275.7 L964.0,297.0 L975.9,320.0 L987.8,337.7 L999.6,349.4 L1011.5,358.5 L1023.3,360.3 L1035.2,363.1 L1047.1,372.5 L1058.9,377.6 L1070.8,369.5 L1082.7,374.5 L1094.5,377.1 L1106.4,368.5 L1118.3,376.8 L1130.1,397.8 L1142.0,406.2 L1142.0,434.0 L86.0,434.0 Z" fill="#0f5949" opacity="0.28"/>
  <path d="M86.0,344.0 L97.9,348.2 L109.7,351.5 L121.6,356.5 L133.5,324.7 L145.3,333.9 L157.2,343.3 L169.1,341.3 L180.9,344.2 L192.8,348.4 L204.7,342.3 L216.5,355.8 L228.4,345.0 L240.2,361.8 L252.1,364.3 L264.0,371.7 L275.8,379.0 L287.7,381.0 L299.6,361.8 L311.4,366.1 L323.3,363.5 L335.2,365.4 L347.0,370.9 L358.9,369.8 L370.8,383.2 L382.6,382.7 L394.5,342.1 L406.4,325.0 L418.2,309.2 L430.1,289.5 L442.0,297.1 L453.8,291.2 L465.7,282.9 L477.6,268.3 L489.4,294.2 L501.3,301.2 L513.1,301.9 L525.0,318.1 L536.9,323.1 L548.7,328.7 L560.6,304.5 L572.5,285.0 L584.3,273.2 L596.2,253.1 L608.1,251.8 L619.9,248.7 L631.8,253.6 L643.7,269.8 L655.5,263.0 L667.4,249.5 L679.3,255.6 L691.1,270.3 L703.0,282.2 L714.9,266.7 L726.7,263.0 L738.6,257.7 L750.4,255.4 L762.3,260.3 L774.2,230.8 L786.0,179.6 L797.9,127.8 L809.8,136.1 L821.6,169.1 L833.5,155.2 L845.4,207.6 L857.2,212.0 L869.1,225.9 L881.0,236.4 L892.8,276.1 L904.7,276.1 L916.6,256.4 L928.4,266.3 L940.3,277.5 L952.2,275.7 L964.0,297.0 L975.9,320.0 L987.8,337.7 L999.6,349.4 L1011.5,358.5 L1023.3,360.3 L1035.2,363.1 L1047.1,372.5 L1058.9,377.6 L1070.8,369.5 L1082.7,374.5 L1094.5,377.1 L1106.4,368.5 L1118.3,376.8 L1130.1,397.8 L1142.0,406.2" fill="none" stroke="#62d9ee" stroke-width="4" stroke-linecap="round" stroke-linejoin="round"/>
  <g>
    <line x1="1130.1" x2="1130.1" y1="100" y2="434" stroke="#18e59c" stroke-width="2" stroke-dasharray="7 7" opacity="0.8"/>
    <circle cx="1130.1" cy="386.0" r="8" fill="#071f1c" stroke="#18e59c" stroke-width="4"/>
    <text x="1030.0" y="368.0" text-anchor="middle" class="marker" fill="#18e59c">ENTRY | Jul 13 | $136.66</text>
  </g>
  
  <text x="86.0" y="472" text-anchor="middle" class="axis">Mar 5</text><text x="347.0" y="472" text-anchor="middle" class="axis">Apr 7</text><text x="619.9" y="472" text-anchor="middle" class="axis">May 8</text><text x="881.0" y="472" text-anchor="middle" class="axis">Jun 10</text><text x="1142.0" y="472" text-anchor="middle" class="axis">Jul 14</text>
  </svg>