<svg xmlns="http://www.w3.org/2000/svg" width="1200" height="500" viewBox="0 0 1200 500" role="img" aria-label="ORCL underlying price from entry">
  <rect width="1200" height="500" fill="#071f1c"/>
  <style>.head{fill:#f4fff9;font:800 27px Georgia,serif}.sub{fill:#9fc4bb;font:14px Arial,sans-serif}.axis{fill:#8eaaa3;font:12px Arial,sans-serif}.marker{font:800 12px Arial,sans-serif}</style>
  <text x="86" y="40" class="head">ORCL Underlying Price</text>
  <text x="86" y="66" class="sub">90 sessions | Entry marked; position remains open | Published option idea rank 3</text>
  <line x1="86" x2="1142" y1="100.0" y2="100.0" stroke="#1b4a42" stroke-width="1"/><text x="72" y="105.0" text-anchor="end" class="axis">$259.81</text><line x1="86" x2="1142" y1="183.5" y2="183.5" stroke="#1b4a42" stroke-width="1"/><text x="72" y="188.5" text-anchor="end" class="axis">$224.83</text><line x1="86" x2="1142" y1="267.0" y2="267.0" stroke="#1b4a42" stroke-width="1"/><text x="72" y="272.0" text-anchor="end" class="axis">$189.85</text><line x1="86" x2="1142" y1="350.5" y2="350.5" stroke="#1b4a42" stroke-width="1"/><text x="72" y="355.5" text-anchor="end" class="axis">$154.86</text><line x1="86" x2="1142" y1="434.0" y2="434.0" stroke="#1b4a42" stroke-width="1"/><text x="72" y="439.0" text-anchor="end" class="axis">$119.88</text>
  <path d="M86.0,356.4 L97.9,350.7 L109.7,355.0 L121.6,358.4 L133.5,363.5 L145.3,330.8 L157.2,340.2 L169.1,349.9 L180.9,347.9 L192.8,350.9 L204.7,355.2 L216.5,348.9 L228.4,362.9 L240.2,351.7 L252.1,369.1 L264.0,371.6 L275.8,379.3 L287.7,386.8 L299.6,388.8 L311.4,369.0 L323.3,373.5 L335.2,370.7 L347.0,372.8 L358.9,378.4 L370.8,377.2 L382.6,391.1 L394.5,390.5 L406.4,348.7 L418.2,331.1 L430.1,314.8 L442.0,294.5 L453.8,302.3 L465.7,296.3 L477.6,287.7 L489.4,272.6 L501.3,299.4 L513.1,306.5 L525.0,307.3 L536.9,324.0 L548.7,329.1 L560.6,334.9 L572.5,310.0 L584.3,289.8 L596.2,277.7 L608.1,257.0 L619.9,255.7 L631.8,252.4 L643.7,257.5 L655.5,274.2 L667.4,267.2 L679.3,253.2 L691.1,259.6 L703.0,274.7 L714.9,287.0 L726.7,271.0 L738.6,267.2 L750.4,261.7 L762.3,259.3 L774.2,264.3 L786.0,233.9 L797.9,181.2 L809.8,127.8 L821.6,136.4 L833.5,170.4 L845.4,156.0 L857.2,210.1 L869.1,214.5 L881.0,228.9 L892.8,239.8 L904.7,280.7 L916.6,280.6 L928.4,260.3 L940.3,270.6 L952.2,282.1 L964.0,280.3 L975.9,302.3 L987.8,325.9 L999.6,344.1 L1011.5,356.2 L1023.3,365.6 L1035.2,367.5 L1047.1,370.3 L1058.9,380.0 L1070.8,385.3 L1082.7,377.0 L1094.5,382.2 L1106.4,384.8 L1118.3,375.9 L1130.1,384.4 L1142.0,406.2 L1142.0,434.0 L86.0,434.0 Z" fill="#0f5949" opacity="0.28"/>
  <path d="M86.0,356.4 L97.9,350.7 L109.7,355.0 L121.6,358.4 L133.5,363.5 L145.3,330.8 L157.2,340.2 L169.1,349.9 L180.9,347.9 L192.8,350.9 L204.7,355.2 L216.5,348.9 L228.4,362.9 L240.2,351.7 L252.1,369.1 L264.0,371.6 L275.8,379.3 L287.7,386.8 L299.6,388.8 L311.4,369.0 L323.3,373.5 L335.2,370.7 L347.0,372.8 L358.9,378.4 L370.8,377.2 L382.6,391.1 L394.5,390.5 L406.4,348.7 L418.2,331.1 L430.1,314.8 L442.0,294.5 L453.8,302.3 L465.7,296.3 L477.6,287.7 L489.4,272.6 L501.3,299.4 L513.1,306.5 L525.0,307.3 L536.9,324.0 L548.7,329.1 L560.6,334.9 L572.5,310.0 L584.3,289.8 L596.2,277.7 L608.1,257.0 L619.9,255.7 L631.8,252.4 L643.7,257.5 L655.5,274.2 L667.4,267.2 L679.3,253.2 L691.1,259.6 L703.0,274.7 L714.9,287.0 L726.7,271.0 L738.6,267.2 L750.4,261.7 L762.3,259.3 L774.2,264.3 L786.0,233.9 L797.9,181.2 L809.8,127.8 L821.6,136.4 L833.5,170.4 L845.4,156.0 L857.2,210.1 L869.1,214.5 L881.0,228.9 L892.8,239.8 L904.7,280.7 L916.6,280.6 L928.4,260.3 L940.3,270.6 L952.2,282.1 L964.0,280.3 L975.9,302.3 L987.8,325.9 L999.6,344.1 L1011.5,356.2 L1023.3,365.6 L1035.2,367.5 L1047.1,370.3 L1058.9,380.0 L1070.8,385.3 L1082.7,377.0 L1094.5,382.2 L1106.4,384.8 L1118.3,375.9 L1130.1,384.4 L1142.0,406.2" fill="none" stroke="#62d9ee" stroke-width="4" stroke-linecap="round" stroke-linejoin="round"/>
  <g>
    <line x1="1142.0" x2="1142.0" y1="100" y2="434" stroke="#18e59c" stroke-width="2" stroke-dasharray="7 7" opacity="0.8"/>
    <circle cx="1142.0" cy="393.9" r="8" fill="#071f1c" stroke="#18e59c" stroke-width="4"/>
    <text x="1030.0" y="375.9" text-anchor="middle" class="marker" fill="#18e59c">ENTRY | Jul 13 | $136.66</text>
  </g>
  
  <text x="86.0" y="472" text-anchor="middle" class="axis">Mar 4</text><text x="347.0" y="472" text-anchor="middle" class="axis">Apr 6</text><text x="619.9" y="472" text-anchor="middle" class="axis">May 7</text><text x="881.0" y="472" text-anchor="middle" class="axis">Jun 9</text><text x="1142.0" y="472" text-anchor="middle" class="axis">Jul 13</text>
  </svg>