<svg xmlns="http://www.w3.org/2000/svg" width="1200" height="500" viewBox="0 0 1200 500" role="img" aria-label="ORCL underlying price from entry">
  <rect width="1200" height="500" fill="#071f1c"/>
  <style>.head{fill:#f4fff9;font:800 27px Georgia,serif}.sub{fill:#9fc4bb;font:14px Arial,sans-serif}.axis{fill:#8eaaa3;font:12px Arial,sans-serif}.marker{font:800 12px Arial,sans-serif}</style>
  <text x="86" y="40" class="head">ORCL Underlying Price</text>
  <text x="86" y="66" class="sub">90 sessions | Entry marked; position remains open | Published option idea rank 3</text>
  <line x1="86" x2="1142" y1="100.0" y2="100.0" stroke="#1b4a42" stroke-width="1"/><text x="72" y="105.0" text-anchor="end" class="axis">$260.54</text><line x1="86" x2="1142" y1="183.5" y2="183.5" stroke="#1b4a42" stroke-width="1"/><text x="72" y="188.5" text-anchor="end" class="axis">$223.36</text><line x1="86" x2="1142" y1="267.0" y2="267.0" stroke="#1b4a42" stroke-width="1"/><text x="72" y="272.0" text-anchor="end" class="axis">$186.18</text><line x1="86" x2="1142" y1="350.5" y2="350.5" stroke="#1b4a42" stroke-width="1"/><text x="72" y="355.5" text-anchor="end" class="axis">$149.00</text><line x1="86" x2="1142" y1="434.0" y2="434.0" stroke="#1b4a42" stroke-width="1"/><text x="72" y="439.0" text-anchor="end" class="axis">$111.82</text>
  <path d="M86.0,344.7 L97.9,349.6 L109.7,318.8 L121.6,327.7 L133.5,336.8 L145.3,334.8 L157.2,337.7 L169.1,341.7 L180.9,335.9 L192.8,349.0 L204.7,338.5 L216.5,354.8 L228.4,357.2 L240.2,364.4 L252.1,371.5 L264.0,373.4 L275.8,354.7 L287.7,359.0 L299.6,356.4 L311.4,358.3 L323.3,363.6 L335.2,362.5 L347.0,375.5 L358.9,375.0 L370.8,335.6 L382.6,319.1 L394.5,303.8 L406.4,284.6 L418.2,292.0 L430.1,286.3 L442.0,278.3 L453.8,264.0 L465.7,289.2 L477.6,296.0 L489.4,296.7 L501.3,312.4 L513.1,317.2 L525.0,322.7 L536.9,299.2 L548.7,280.2 L560.6,268.9 L572.5,249.4 L584.3,248.1 L596.2,245.1 L608.1,249.8 L619.9,265.5 L631.8,259.0 L643.7,245.8 L655.5,251.8 L667.4,266.0 L679.3,277.6 L691.1,262.6 L703.0,258.9 L714.9,253.8 L726.7,251.5 L738.6,256.3 L750.4,227.7 L762.3,178.1 L774.2,127.8 L786.0,135.9 L797.9,167.9 L809.8,154.4 L821.6,205.2 L833.5,209.4 L845.4,222.9 L857.2,233.1 L869.1,271.7 L881.0,271.6 L892.8,252.5 L904.7,262.2 L916.6,273.0 L928.4,271.2 L940.3,291.9 L952.2,314.2 L964.0,331.3 L975.9,342.7 L987.8,351.6 L999.6,353.3 L1011.5,356.0 L1023.3,365.1 L1035.2,370.1 L1047.1,362.3 L1058.9,367.1 L1070.8,369.6 L1082.7,361.2 L1094.5,369.3 L1106.4,389.7 L1118.3,397.8 L1130.1,387.6 L1142.0,406.2 L1142.0,434.0 L86.0,434.0 Z" fill="#0f5949" opacity="0.28"/>
  <path d="M86.0,344.7 L97.9,349.6 L109.7,318.8 L121.6,327.7 L133.5,336.8 L145.3,334.8 L157.2,337.7 L169.1,341.7 L180.9,335.9 L192.8,349.0 L204.7,338.5 L216.5,354.8 L228.4,357.2 L240.2,364.4 L252.1,371.5 L264.0,373.4 L275.8,354.7 L287.7,359.0 L299.6,356.4 L311.4,358.3 L323.3,363.6 L335.2,362.5 L347.0,375.5 L358.9,375.0 L370.8,335.6 L382.6,319.1 L394.5,303.8 L406.4,284.6 L418.2,292.0 L430.1,286.3 L442.0,278.3 L453.8,264.0 L465.7,289.2 L477.6,296.0 L489.4,296.7 L501.3,312.4 L513.1,317.2 L525.0,322.7 L536.9,299.2 L548.7,280.2 L560.6,268.9 L572.5,249.4 L584.3,248.1 L596.2,245.1 L608.1,249.8 L619.9,265.5 L631.8,259.0 L643.7,245.8 L655.5,251.8 L667.4,266.0 L679.3,277.6 L691.1,262.6 L703.0,258.9 L714.9,253.8 L726.7,251.5 L738.6,256.3 L750.4,227.7 L762.3,178.1 L774.2,127.8 L786.0,135.9 L797.9,167.9 L809.8,154.4 L821.6,205.2 L833.5,209.4 L845.4,222.9 L857.2,233.1 L869.1,271.7 L881.0,271.6 L892.8,252.5 L904.7,262.2 L916.6,273.0 L928.4,271.2 L940.3,291.9 L952.2,314.2 L964.0,331.3 L975.9,342.7 L987.8,351.6 L999.6,353.3 L1011.5,356.0 L1023.3,365.1 L1035.2,370.1 L1047.1,362.3 L1058.9,367.1 L1070.8,369.6 L1082.7,361.2 L1094.5,369.3 L1106.4,389.7 L1118.3,397.8 L1130.1,387.6 L1142.0,406.2" fill="none" stroke="#62d9ee" stroke-width="4" stroke-linecap="round" stroke-linejoin="round"/>
  <g>
    <line x1="1106.4" x2="1106.4" y1="100" y2="434" stroke="#18e59c" stroke-width="2" stroke-dasharray="7 7" opacity="0.8"/>
    <circle cx="1106.4" cy="378.2" r="8" fill="#071f1c" stroke="#18e59c" stroke-width="4"/>
    <text x="1030.0" y="360.2" text-anchor="middle" class="marker" fill="#18e59c">ENTRY | Jul 13 | $136.66</text>
  </g>
  
  <text x="86.0" y="472" text-anchor="middle" class="axis">Mar 9</text><text x="347.0" y="472" text-anchor="middle" class="axis">Apr 9</text><text x="619.9" y="472" text-anchor="middle" class="axis">May 12</text><text x="881.0" y="472" text-anchor="middle" class="axis">Jun 12</text><text x="1142.0" y="472" text-anchor="middle" class="axis">Jul 16</text>
  </svg>