<svg xmlns="http://www.w3.org/2000/svg" width="1200" height="500" viewBox="0 0 1200 500" role="img" aria-label="ORCL underlying price from entry">
  <rect width="1200" height="500" fill="#071f1c"/>
  <style>.head{fill:#f4fff9;font:800 27px Georgia,serif}.sub{fill:#9fc4bb;font:14px Arial,sans-serif}.axis{fill:#8eaaa3;font:12px Arial,sans-serif}.marker{font:800 12px Arial,sans-serif}</style>
  <text x="86" y="40" class="head">ORCL Underlying Price</text>
  <text x="86" y="66" class="sub">90 sessions | Entry marked; position remains open | Published option idea rank 3</text>
  <line x1="86" x2="1142" y1="100.0" y2="100.0" stroke="#1b4a42" stroke-width="1"/><text x="72" y="105.0" text-anchor="end" class="axis">$260.83</text><line x1="86" x2="1142" y1="183.5" y2="183.5" stroke="#1b4a42" stroke-width="1"/><text x="72" y="188.5" text-anchor="end" class="axis">$222.80</text><line x1="86" x2="1142" y1="267.0" y2="267.0" stroke="#1b4a42" stroke-width="1"/><text x="72" y="272.0" text-anchor="end" class="axis">$184.76</text><line x1="86" x2="1142" y1="350.5" y2="350.5" stroke="#1b4a42" stroke-width="1"/><text x="72" y="355.5" text-anchor="end" class="axis">$146.73</text><line x1="86" x2="1142" y1="434.0" y2="434.0" stroke="#1b4a42" stroke-width="1"/><text x="72" y="439.0" text-anchor="end" class="axis">$108.70</text>
  <path d="M86.0,323.2 L97.9,332.1 L109.7,330.2 L121.6,333.0 L133.5,337.0 L145.3,331.2 L157.2,344.0 L169.1,333.8 L180.9,349.7 L192.8,352.1 L204.7,359.1 L216.5,366.0 L228.4,367.9 L240.2,349.7 L252.1,353.8 L264.0,351.3 L275.8,353.1 L287.7,358.3 L299.6,357.2 L311.4,370.0 L323.3,369.5 L335.2,331.0 L347.0,314.8 L358.9,299.8 L370.8,281.1 L382.6,288.3 L394.5,282.8 L406.4,274.9 L418.2,261.0 L430.1,285.6 L442.0,292.2 L453.8,292.9 L465.7,308.3 L477.6,313.0 L489.4,318.3 L501.3,295.4 L513.1,276.8 L525.0,265.7 L536.9,246.7 L548.7,245.4 L560.6,242.4 L572.5,247.1 L584.3,262.5 L596.2,256.0 L608.1,243.2 L619.9,249.0 L631.8,262.9 L643.7,274.3 L655.5,259.5 L667.4,256.0 L679.3,250.9 L691.1,248.8 L703.0,253.4 L714.9,225.4 L726.7,176.9 L738.6,127.8 L750.4,135.7 L762.3,167.0 L774.2,153.8 L786.0,203.5 L797.9,207.6 L809.8,220.8 L821.6,230.8 L833.5,268.5 L845.4,268.4 L857.2,249.7 L869.1,259.2 L881.0,269.7 L892.8,268.0 L904.7,288.3 L916.6,310.0 L928.4,326.8 L940.3,337.9 L952.2,346.6 L964.0,348.2 L975.9,350.9 L987.8,359.8 L999.6,364.7 L1011.5,357.0 L1023.3,361.8 L1035.2,364.2 L1047.1,356.0 L1058.9,363.9 L1070.8,383.9 L1082.7,391.8 L1094.5,381.8 L1106.4,400.0 L1118.3,395.1 L1130.1,406.2 L1142.0,393.7 L1142.0,434.0 L86.0,434.0 Z" fill="#0f5949" opacity="0.28"/>
  <path d="M86.0,323.2 L97.9,332.1 L109.7,330.2 L121.6,333.0 L133.5,337.0 L145.3,331.2 L157.2,344.0 L169.1,333.8 L180.9,349.7 L192.8,352.1 L204.7,359.1 L216.5,366.0 L228.4,367.9 L240.2,349.7 L252.1,353.8 L264.0,351.3 L275.8,353.1 L287.7,358.3 L299.6,357.2 L311.4,370.0 L323.3,369.5 L335.2,331.0 L347.0,314.8 L358.9,299.8 L370.8,281.1 L382.6,288.3 L394.5,282.8 L406.4,274.9 L418.2,261.0 L430.1,285.6 L442.0,292.2 L453.8,292.9 L465.7,308.3 L477.6,313.0 L489.4,318.3 L501.3,295.4 L513.1,276.8 L525.0,265.7 L536.9,246.7 L548.7,245.4 L560.6,242.4 L572.5,247.1 L584.3,262.5 L596.2,256.0 L608.1,243.2 L619.9,249.0 L631.8,262.9 L643.7,274.3 L655.5,259.5 L667.4,256.0 L679.3,250.9 L691.1,248.8 L703.0,253.4 L714.9,225.4 L726.7,176.9 L738.6,127.8 L750.4,135.7 L762.3,167.0 L774.2,153.8 L786.0,203.5 L797.9,207.6 L809.8,220.8 L821.6,230.8 L833.5,268.5 L845.4,268.4 L857.2,249.7 L869.1,259.2 L881.0,269.7 L892.8,268.0 L904.7,288.3 L916.6,310.0 L928.4,326.8 L940.3,337.9 L952.2,346.6 L964.0,348.2 L975.9,350.9 L987.8,359.8 L999.6,364.7 L1011.5,357.0 L1023.3,361.8 L1035.2,364.2 L1047.1,356.0 L1058.9,363.9 L1070.8,383.9 L1082.7,391.8 L1094.5,381.8 L1106.4,400.0 L1118.3,395.1 L1130.1,406.2 L1142.0,393.7" fill="none" stroke="#62d9ee" stroke-width="4" stroke-linecap="round" stroke-linejoin="round"/>
  <g>
    <line x1="1070.8" x2="1070.8" y1="100" y2="434" stroke="#18e59c" stroke-width="2" stroke-dasharray="7 7" opacity="0.8"/>
    <circle cx="1070.8" cy="372.6" r="8" fill="#071f1c" stroke="#18e59c" stroke-width="4"/>
    <text x="1030.0" y="354.6" text-anchor="middle" class="marker" fill="#18e59c">ENTRY | Jul 13 | $136.66</text>
  </g>
  
  <text x="86.0" y="472" text-anchor="middle" class="axis">Mar 12</text><text x="347.0" y="472" text-anchor="middle" class="axis">Apr 14</text><text x="619.9" y="472" text-anchor="middle" class="axis">May 15</text><text x="881.0" y="472" text-anchor="middle" class="axis">Jun 17</text><text x="1142.0" y="472" text-anchor="middle" class="axis">Jul 21</text>
  </svg>