<svg xmlns="http://www.w3.org/2000/svg" width="1200" height="500" viewBox="0 0 1200 500" role="img" aria-label="ORCL underlying price from entry">
  <rect width="1200" height="500" fill="#071f1c"/>
  <style>.head{fill:#f4fff9;font:800 27px Georgia,serif}.sub{fill:#9fc4bb;font:14px Arial,sans-serif}.axis{fill:#8eaaa3;font:12px Arial,sans-serif}.marker{font:800 12px Arial,sans-serif}</style>
  <text x="86" y="40" class="head">ORCL Underlying Price</text>
  <text x="86" y="66" class="sub">90 sessions | Entry marked; position remains open | Published option idea rank 3</text>
  <line x1="86" x2="1142" y1="100.0" y2="100.0" stroke="#1b4a42" stroke-width="1"/><text x="72" y="105.0" text-anchor="end" class="axis">$260.83</text><line x1="86" x2="1142" y1="183.5" y2="183.5" stroke="#1b4a42" stroke-width="1"/><text x="72" y="188.5" text-anchor="end" class="axis">$222.80</text><line x1="86" x2="1142" y1="267.0" y2="267.0" stroke="#1b4a42" stroke-width="1"/><text x="72" y="272.0" text-anchor="end" class="axis">$184.76</text><line x1="86" x2="1142" y1="350.5" y2="350.5" stroke="#1b4a42" stroke-width="1"/><text x="72" y="355.5" text-anchor="end" class="axis">$146.73</text><line x1="86" x2="1142" y1="434.0" y2="434.0" stroke="#1b4a42" stroke-width="1"/><text x="72" y="439.0" text-anchor="end" class="axis">$108.70</text>
  <path d="M86.0,332.1 L97.9,330.2 L109.7,333.0 L121.6,337.0 L133.5,331.2 L145.3,344.0 L157.2,333.8 L169.1,349.7 L180.9,352.1 L192.8,359.1 L204.7,366.0 L216.5,367.9 L228.4,349.7 L240.2,353.8 L252.1,351.3 L264.0,353.1 L275.8,358.3 L287.7,357.2 L299.6,370.0 L311.4,369.5 L323.3,331.0 L335.2,314.8 L347.0,299.8 L358.9,281.1 L370.8,288.3 L382.6,282.8 L394.5,274.9 L406.4,261.0 L418.2,285.6 L430.1,292.2 L442.0,292.9 L453.8,308.3 L465.7,313.0 L477.6,318.3 L489.4,295.4 L501.3,276.8 L513.1,265.7 L525.0,246.7 L536.9,245.4 L548.7,242.4 L560.6,247.1 L572.5,262.5 L584.3,256.0 L596.2,243.2 L608.1,249.0 L619.9,262.9 L631.8,274.3 L643.7,259.5 L655.5,256.0 L667.4,250.9 L679.3,248.8 L691.1,253.4 L703.0,225.4 L714.9,176.9 L726.7,127.8 L738.6,135.7 L750.4,167.0 L762.3,153.8 L774.2,203.5 L786.0,207.6 L797.9,220.8 L809.8,230.8 L821.6,268.5 L833.5,268.4 L845.4,249.7 L857.2,259.2 L869.1,269.7 L881.0,268.0 L892.8,288.3 L904.7,310.0 L916.6,326.8 L928.4,337.9 L940.3,346.6 L952.2,348.2 L964.0,350.9 L975.9,359.8 L987.8,364.7 L999.6,357.0 L1011.5,361.8 L1023.3,364.2 L1035.2,356.0 L1047.1,363.9 L1058.9,383.9 L1070.8,391.8 L1082.7,381.8 L1094.5,400.0 L1106.4,395.1 L1118.3,406.2 L1130.1,393.7 L1142.0,396.4 L1142.0,434.0 L86.0,434.0 Z" fill="#0f5949" opacity="0.28"/>
  <path d="M86.0,332.1 L97.9,330.2 L109.7,333.0 L121.6,337.0 L133.5,331.2 L145.3,344.0 L157.2,333.8 L169.1,349.7 L180.9,352.1 L192.8,359.1 L204.7,366.0 L216.5,367.9 L228.4,349.7 L240.2,353.8 L252.1,351.3 L264.0,353.1 L275.8,358.3 L287.7,357.2 L299.6,370.0 L311.4,369.5 L323.3,331.0 L335.2,314.8 L347.0,299.8 L358.9,281.1 L370.8,288.3 L382.6,282.8 L394.5,274.9 L406.4,261.0 L418.2,285.6 L430.1,292.2 L442.0,292.9 L453.8,308.3 L465.7,313.0 L477.6,318.3 L489.4,295.4 L501.3,276.8 L513.1,265.7 L525.0,246.7 L536.9,245.4 L548.7,242.4 L560.6,247.1 L572.5,262.5 L584.3,256.0 L596.2,243.2 L608.1,249.0 L619.9,262.9 L631.8,274.3 L643.7,259.5 L655.5,256.0 L667.4,250.9 L679.3,248.8 L691.1,253.4 L703.0,225.4 L714.9,176.9 L726.7,127.8 L738.6,135.7 L750.4,167.0 L762.3,153.8 L774.2,203.5 L786.0,207.6 L797.9,220.8 L809.8,230.8 L821.6,268.5 L833.5,268.4 L845.4,249.7 L857.2,259.2 L869.1,269.7 L881.0,268.0 L892.8,288.3 L904.7,310.0 L916.6,326.8 L928.4,337.9 L940.3,346.6 L952.2,348.2 L964.0,350.9 L975.9,359.8 L987.8,364.7 L999.6,357.0 L1011.5,361.8 L1023.3,364.2 L1035.2,356.0 L1047.1,363.9 L1058.9,383.9 L1070.8,391.8 L1082.7,381.8 L1094.5,400.0 L1106.4,395.1 L1118.3,406.2 L1130.1,393.7 L1142.0,396.4" fill="none" stroke="#62d9ee" stroke-width="4" stroke-linecap="round" stroke-linejoin="round"/>
  <g>
    <line x1="1058.9" x2="1058.9" y1="100" y2="434" stroke="#18e59c" stroke-width="2" stroke-dasharray="7 7" opacity="0.8"/>
    <circle cx="1058.9" cy="372.6" r="8" fill="#071f1c" stroke="#18e59c" stroke-width="4"/>
    <text x="1030.0" y="354.6" text-anchor="middle" class="marker" fill="#18e59c">ENTRY | Jul 13 | $136.66</text>
  </g>
  
  <text x="86.0" y="472" text-anchor="middle" class="axis">Mar 13</text><text x="347.0" y="472" text-anchor="middle" class="axis">Apr 15</text><text x="619.9" y="472" text-anchor="middle" class="axis">May 18</text><text x="881.0" y="472" text-anchor="middle" class="axis">Jun 18</text><text x="1142.0" y="472" text-anchor="middle" class="axis">Jul 22</text>
  </svg>