<svg xmlns="http://www.w3.org/2000/svg" width="1200" height="500" viewBox="0 0 1200 500" role="img" aria-label="ORCL underlying price from entry">
  <rect width="1200" height="500" fill="#071f1c"/>
  <style>.head{fill:#f4fff9;font:800 27px Georgia,serif}.sub{fill:#9fc4bb;font:14px Arial,sans-serif}.axis{fill:#8eaaa3;font:12px Arial,sans-serif}.marker{font:800 12px Arial,sans-serif}</style>
  <text x="86" y="40" class="head">ORCL Underlying Price</text>
  <text x="86" y="66" class="sub">90 sessions | Entry marked; position remains open | Published option idea rank 3</text>
  <line x1="86" x2="1142" y1="100.0" y2="100.0" stroke="#1b4a42" stroke-width="1"/><text x="72" y="105.0" text-anchor="end" class="axis">$260.83</text><line x1="86" x2="1142" y1="183.5" y2="183.5" stroke="#1b4a42" stroke-width="1"/><text x="72" y="188.5" text-anchor="end" class="axis">$222.80</text><line x1="86" x2="1142" y1="267.0" y2="267.0" stroke="#1b4a42" stroke-width="1"/><text x="72" y="272.0" text-anchor="end" class="axis">$184.76</text><line x1="86" x2="1142" y1="350.5" y2="350.5" stroke="#1b4a42" stroke-width="1"/><text x="72" y="355.5" text-anchor="end" class="axis">$146.73</text><line x1="86" x2="1142" y1="434.0" y2="434.0" stroke="#1b4a42" stroke-width="1"/><text x="72" y="439.0" text-anchor="end" class="axis">$108.70</text>
  <path d="M86.0,314.5 L97.9,323.2 L109.7,332.1 L121.6,330.2 L133.5,333.0 L145.3,337.0 L157.2,331.2 L169.1,344.0 L180.9,333.8 L192.8,349.7 L204.7,352.1 L216.5,359.1 L228.4,366.0 L240.2,367.9 L252.1,349.7 L264.0,353.8 L275.8,351.3 L287.7,353.1 L299.6,358.3 L311.4,357.2 L323.3,370.0 L335.2,369.5 L347.0,331.0 L358.9,314.8 L370.8,299.8 L382.6,281.1 L394.5,288.3 L406.4,282.8 L418.2,274.9 L430.1,261.0 L442.0,285.6 L453.8,292.2 L465.7,292.9 L477.6,308.3 L489.4,313.0 L501.3,318.3 L513.1,295.4 L525.0,276.8 L536.9,265.7 L548.7,246.7 L560.6,245.4 L572.5,242.4 L584.3,247.1 L596.2,262.5 L608.1,256.0 L619.9,243.2 L631.8,249.0 L643.7,262.9 L655.5,274.3 L667.4,259.5 L679.3,256.0 L691.1,250.9 L703.0,248.8 L714.9,253.4 L726.7,225.4 L738.6,176.9 L750.4,127.8 L762.3,135.7 L774.2,167.0 L786.0,153.8 L797.9,203.5 L809.8,207.6 L821.6,220.8 L833.5,230.8 L845.4,268.5 L857.2,268.4 L869.1,249.7 L881.0,259.2 L892.8,269.7 L904.7,268.0 L916.6,288.3 L928.4,310.0 L940.3,326.8 L952.2,337.9 L964.0,346.6 L975.9,348.2 L987.8,350.9 L999.6,359.8 L1011.5,364.7 L1023.3,357.0 L1035.2,361.8 L1047.1,364.2 L1058.9,356.0 L1070.8,363.9 L1082.7,383.9 L1094.5,391.8 L1106.4,381.8 L1118.3,400.0 L1130.1,395.1 L1142.0,406.2 L1142.0,434.0 L86.0,434.0 Z" fill="#0f5949" opacity="0.28"/>
  <path d="M86.0,314.5 L97.9,323.2 L109.7,332.1 L121.6,330.2 L133.5,333.0 L145.3,337.0 L157.2,331.2 L169.1,344.0 L180.9,333.8 L192.8,349.7 L204.7,352.1 L216.5,359.1 L228.4,366.0 L240.2,367.9 L252.1,349.7 L264.0,353.8 L275.8,351.3 L287.7,353.1 L299.6,358.3 L311.4,357.2 L323.3,370.0 L335.2,369.5 L347.0,331.0 L358.9,314.8 L370.8,299.8 L382.6,281.1 L394.5,288.3 L406.4,282.8 L418.2,274.9 L430.1,261.0 L442.0,285.6 L453.8,292.2 L465.7,292.9 L477.6,308.3 L489.4,313.0 L501.3,318.3 L513.1,295.4 L525.0,276.8 L536.9,265.7 L548.7,246.7 L560.6,245.4 L572.5,242.4 L584.3,247.1 L596.2,262.5 L608.1,256.0 L619.9,243.2 L631.8,249.0 L643.7,262.9 L655.5,274.3 L667.4,259.5 L679.3,256.0 L691.1,250.9 L703.0,248.8 L714.9,253.4 L726.7,225.4 L738.6,176.9 L750.4,127.8 L762.3,135.7 L774.2,167.0 L786.0,153.8 L797.9,203.5 L809.8,207.6 L821.6,220.8 L833.5,230.8 L845.4,268.5 L857.2,268.4 L869.1,249.7 L881.0,259.2 L892.8,269.7 L904.7,268.0 L916.6,288.3 L928.4,310.0 L940.3,326.8 L952.2,337.9 L964.0,346.6 L975.9,348.2 L987.8,350.9 L999.6,359.8 L1011.5,364.7 L1023.3,357.0 L1035.2,361.8 L1047.1,364.2 L1058.9,356.0 L1070.8,363.9 L1082.7,383.9 L1094.5,391.8 L1106.4,381.8 L1118.3,400.0 L1130.1,395.1 L1142.0,406.2" fill="none" stroke="#62d9ee" stroke-width="4" stroke-linecap="round" stroke-linejoin="round"/>
  <g>
    <line x1="1082.7" x2="1082.7" y1="100" y2="434" stroke="#18e59c" stroke-width="2" stroke-dasharray="7 7" opacity="0.8"/>
    <circle cx="1082.7" cy="372.6" r="8" fill="#071f1c" stroke="#18e59c" stroke-width="4"/>
    <text x="1030.0" y="354.6" text-anchor="middle" class="marker" fill="#18e59c">ENTRY | Jul 13 | $136.66</text>
  </g>
  
  <text x="86.0" y="472" text-anchor="middle" class="axis">Mar 11</text><text x="347.0" y="472" text-anchor="middle" class="axis">Apr 13</text><text x="619.9" y="472" text-anchor="middle" class="axis">May 14</text><text x="881.0" y="472" text-anchor="middle" class="axis">Jun 16</text><text x="1142.0" y="472" text-anchor="middle" class="axis">Jul 20</text>
  </svg>