<svg xmlns="http://www.w3.org/2000/svg" width="1200" height="500" viewBox="0 0 1200 500" role="img" aria-label="ORCL underlying price from entry">
  <rect width="1200" height="500" fill="#071f1c"/>
  <style>.head{fill:#f4fff9;font:800 27px Georgia,serif}.sub{fill:#9fc4bb;font:14px Arial,sans-serif}.axis{fill:#8eaaa3;font:12px Arial,sans-serif}.marker{font:800 12px Arial,sans-serif}</style>
  <text x="86" y="40" class="head">ORCL Underlying Price</text>
  <text x="86" y="66" class="sub">90 sessions | Entry marked; position remains open | Published option idea rank 3</text>
  <line x1="86" x2="1142" y1="100.0" y2="100.0" stroke="#1b4a42" stroke-width="1"/><text x="72" y="105.0" text-anchor="end" class="axis">$260.54</text><line x1="86" x2="1142" y1="183.5" y2="183.5" stroke="#1b4a42" stroke-width="1"/><text x="72" y="188.5" text-anchor="end" class="axis">$223.36</text><line x1="86" x2="1142" y1="267.0" y2="267.0" stroke="#1b4a42" stroke-width="1"/><text x="72" y="272.0" text-anchor="end" class="axis">$186.18</text><line x1="86" x2="1142" y1="350.5" y2="350.5" stroke="#1b4a42" stroke-width="1"/><text x="72" y="355.5" text-anchor="end" class="axis">$149.00</text><line x1="86" x2="1142" y1="434.0" y2="434.0" stroke="#1b4a42" stroke-width="1"/><text x="72" y="439.0" text-anchor="end" class="axis">$111.82</text>
  <path d="M86.0,349.6 L97.9,318.8 L109.7,327.7 L121.6,336.8 L133.5,334.8 L145.3,337.7 L157.2,341.7 L169.1,335.9 L180.9,349.0 L192.8,338.5 L204.7,354.8 L216.5,357.2 L228.4,364.4 L240.2,371.5 L252.1,373.4 L264.0,354.7 L275.8,359.0 L287.7,356.4 L299.6,358.3 L311.4,363.6 L323.3,362.5 L335.2,375.5 L347.0,375.0 L358.9,335.6 L370.8,319.1 L382.6,303.8 L394.5,284.6 L406.4,292.0 L418.2,286.3 L430.1,278.3 L442.0,264.0 L453.8,289.2 L465.7,296.0 L477.6,296.7 L489.4,312.4 L501.3,317.2 L513.1,322.7 L525.0,299.2 L536.9,280.2 L548.7,268.9 L560.6,249.4 L572.5,248.1 L584.3,245.1 L596.2,249.8 L608.1,265.5 L619.9,259.0 L631.8,245.8 L643.7,251.8 L655.5,266.0 L667.4,277.6 L679.3,262.6 L691.1,258.9 L703.0,253.8 L714.9,251.5 L726.7,256.3 L738.6,227.7 L750.4,178.1 L762.3,127.8 L774.2,135.9 L786.0,167.9 L797.9,154.4 L809.8,205.2 L821.6,209.4 L833.5,222.9 L845.4,233.1 L857.2,271.7 L869.1,271.6 L881.0,252.5 L892.8,262.2 L904.7,273.0 L916.6,271.2 L928.4,291.9 L940.3,314.2 L952.2,331.3 L964.0,342.7 L975.9,351.6 L987.8,353.3 L999.6,356.0 L1011.5,365.1 L1023.3,370.1 L1035.2,362.3 L1047.1,367.1 L1058.9,369.6 L1070.8,361.2 L1082.7,369.3 L1094.5,389.7 L1106.4,397.8 L1118.3,387.6 L1130.1,406.2 L1142.0,401.2 L1142.0,434.0 L86.0,434.0 Z" fill="#0f5949" opacity="0.28"/>
  <path d="M86.0,349.6 L97.9,318.8 L109.7,327.7 L121.6,336.8 L133.5,334.8 L145.3,337.7 L157.2,341.7 L169.1,335.9 L180.9,349.0 L192.8,338.5 L204.7,354.8 L216.5,357.2 L228.4,364.4 L240.2,371.5 L252.1,373.4 L264.0,354.7 L275.8,359.0 L287.7,356.4 L299.6,358.3 L311.4,363.6 L323.3,362.5 L335.2,375.5 L347.0,375.0 L358.9,335.6 L370.8,319.1 L382.6,303.8 L394.5,284.6 L406.4,292.0 L418.2,286.3 L430.1,278.3 L442.0,264.0 L453.8,289.2 L465.7,296.0 L477.6,296.7 L489.4,312.4 L501.3,317.2 L513.1,322.7 L525.0,299.2 L536.9,280.2 L548.7,268.9 L560.6,249.4 L572.5,248.1 L584.3,245.1 L596.2,249.8 L608.1,265.5 L619.9,259.0 L631.8,245.8 L643.7,251.8 L655.5,266.0 L667.4,277.6 L679.3,262.6 L691.1,258.9 L703.0,253.8 L714.9,251.5 L726.7,256.3 L738.6,227.7 L750.4,178.1 L762.3,127.8 L774.2,135.9 L786.0,167.9 L797.9,154.4 L809.8,205.2 L821.6,209.4 L833.5,222.9 L845.4,233.1 L857.2,271.7 L869.1,271.6 L881.0,252.5 L892.8,262.2 L904.7,273.0 L916.6,271.2 L928.4,291.9 L940.3,314.2 L952.2,331.3 L964.0,342.7 L975.9,351.6 L987.8,353.3 L999.6,356.0 L1011.5,365.1 L1023.3,370.1 L1035.2,362.3 L1047.1,367.1 L1058.9,369.6 L1070.8,361.2 L1082.7,369.3 L1094.5,389.7 L1106.4,397.8 L1118.3,387.6 L1130.1,406.2 L1142.0,401.2" fill="none" stroke="#62d9ee" stroke-width="4" stroke-linecap="round" stroke-linejoin="round"/>
  <g>
    <line x1="1094.5" x2="1094.5" y1="100" y2="434" stroke="#18e59c" stroke-width="2" stroke-dasharray="7 7" opacity="0.8"/>
    <circle cx="1094.5" cy="378.2" r="8" fill="#071f1c" stroke="#18e59c" stroke-width="4"/>
    <text x="1030.0" y="360.2" text-anchor="middle" class="marker" fill="#18e59c">ENTRY | Jul 13 | $136.66</text>
  </g>
  
  <text x="86.0" y="472" text-anchor="middle" class="axis">Mar 10</text><text x="347.0" y="472" text-anchor="middle" class="axis">Apr 10</text><text x="619.9" y="472" text-anchor="middle" class="axis">May 13</text><text x="881.0" y="472" text-anchor="middle" class="axis">Jun 15</text><text x="1142.0" y="472" text-anchor="middle" class="axis">Jul 17</text>
  </svg>