<svg xmlns="http://www.w3.org/2000/svg" width="1200" height="500" viewBox="0 0 1200 500" role="img" aria-label="ORCL underlying price from entry">
  <rect width="1200" height="500" fill="#071f1c"/>
  <style>.head{fill:#f4fff9;font:800 27px Georgia,serif}.sub{fill:#9fc4bb;font:14px Arial,sans-serif}.axis{fill:#8eaaa3;font:12px Arial,sans-serif}.marker{font:800 12px Arial,sans-serif}</style>
  <text x="86" y="40" class="head">ORCL Underlying Price</text>
  <text x="86" y="66" class="sub">90 sessions | Entry marked; position remains open | Published option idea rank 3</text>
  <line x1="86" x2="1142" y1="100.0" y2="100.0" stroke="#1b4a42" stroke-width="1"/><text x="72" y="105.0" text-anchor="end" class="axis">$259.30</text><line x1="86" x2="1142" y1="183.5" y2="183.5" stroke="#1b4a42" stroke-width="1"/><text x="72" y="188.5" text-anchor="end" class="axis">$225.85</text><line x1="86" x2="1142" y1="267.0" y2="267.0" stroke="#1b4a42" stroke-width="1"/><text x="72" y="272.0" text-anchor="end" class="axis">$192.40</text><line x1="86" x2="1142" y1="350.5" y2="350.5" stroke="#1b4a42" stroke-width="1"/><text x="72" y="355.5" text-anchor="end" class="axis">$158.96</text><line x1="86" x2="1142" y1="434.0" y2="434.0" stroke="#1b4a42" stroke-width="1"/><text x="72" y="439.0" text-anchor="end" class="axis">$125.51</text>
  <path d="M86.0,366.9 L97.9,360.9 L109.7,365.5 L121.6,369.0 L133.5,374.4 L145.3,340.1 L157.2,350.0 L169.1,360.1 L180.9,358.0 L192.8,361.2 L204.7,365.6 L216.5,359.1 L228.4,373.7 L240.2,362.0 L252.1,380.1 L264.0,382.8 L275.8,390.8 L287.7,398.7 L299.6,400.8 L311.4,380.1 L323.3,384.8 L335.2,381.9 L347.0,384.0 L358.9,389.9 L370.8,388.7 L382.6,403.2 L394.5,402.6 L406.4,358.8 L418.2,340.4 L430.1,323.4 L442.0,302.1 L453.8,310.3 L465.7,304.0 L477.6,295.0 L489.4,279.2 L501.3,307.3 L513.1,314.7 L525.0,315.5 L536.9,333.0 L548.7,338.3 L560.6,344.4 L572.5,318.4 L584.3,297.2 L596.2,284.6 L608.1,262.9 L619.9,261.5 L631.8,258.1 L643.7,263.4 L655.5,280.9 L667.4,273.6 L679.3,259.0 L691.1,265.6 L703.0,281.5 L714.9,294.3 L726.7,277.6 L738.6,273.6 L750.4,267.8 L762.3,265.4 L774.2,270.6 L786.0,238.8 L797.9,183.7 L809.8,127.8 L821.6,136.7 L833.5,172.3 L845.4,157.3 L857.2,213.9 L869.1,218.5 L881.0,233.5 L892.8,244.9 L904.7,287.7 L916.6,287.7 L928.4,266.4 L940.3,277.2 L952.2,289.2 L964.0,287.3 L975.9,310.3 L987.8,335.0 L999.6,354.1 L1011.5,366.7 L1023.3,376.5 L1035.2,378.5 L1047.1,381.5 L1058.9,391.6 L1070.8,397.2 L1082.7,388.4 L1094.5,393.8 L1106.4,396.6 L1118.3,387.3 L1130.1,396.2 L1142.0,406.2 L1142.0,434.0 L86.0,434.0 Z" fill="#0f5949" opacity="0.28"/>
  <path d="M86.0,366.9 L97.9,360.9 L109.7,365.5 L121.6,369.0 L133.5,374.4 L145.3,340.1 L157.2,350.0 L169.1,360.1 L180.9,358.0 L192.8,361.2 L204.7,365.6 L216.5,359.1 L228.4,373.7 L240.2,362.0 L252.1,380.1 L264.0,382.8 L275.8,390.8 L287.7,398.7 L299.6,400.8 L311.4,380.1 L323.3,384.8 L335.2,381.9 L347.0,384.0 L358.9,389.9 L370.8,388.7 L382.6,403.2 L394.5,402.6 L406.4,358.8 L418.2,340.4 L430.1,323.4 L442.0,302.1 L453.8,310.3 L465.7,304.0 L477.6,295.0 L489.4,279.2 L501.3,307.3 L513.1,314.7 L525.0,315.5 L536.9,333.0 L548.7,338.3 L560.6,344.4 L572.5,318.4 L584.3,297.2 L596.2,284.6 L608.1,262.9 L619.9,261.5 L631.8,258.1 L643.7,263.4 L655.5,280.9 L667.4,273.6 L679.3,259.0 L691.1,265.6 L703.0,281.5 L714.9,294.3 L726.7,277.6 L738.6,273.6 L750.4,267.8 L762.3,265.4 L774.2,270.6 L786.0,238.8 L797.9,183.7 L809.8,127.8 L821.6,136.7 L833.5,172.3 L845.4,157.3 L857.2,213.9 L869.1,218.5 L881.0,233.5 L892.8,244.9 L904.7,287.7 L916.6,287.7 L928.4,266.4 L940.3,277.2 L952.2,289.2 L964.0,287.3 L975.9,310.3 L987.8,335.0 L999.6,354.1 L1011.5,366.7 L1023.3,376.5 L1035.2,378.5 L1047.1,381.5 L1058.9,391.6 L1070.8,397.2 L1082.7,388.4 L1094.5,393.8 L1106.4,396.6 L1118.3,387.3 L1130.1,396.2 L1142.0,406.2" fill="none" stroke="#62d9ee" stroke-width="4" stroke-linecap="round" stroke-linejoin="round"/>
  <g>
    <line x1="1142.0" x2="1142.0" y1="100" y2="434" stroke="#18e59c" stroke-width="2" stroke-dasharray="7 7" opacity="0.8"/>
    <circle cx="1142.0" cy="406.2" r="8" fill="#071f1c" stroke="#18e59c" stroke-width="4"/>
    <text x="1030.0" y="388.2" text-anchor="middle" class="marker" fill="#18e59c">ENTRY | Jul 13 | $136.66</text>
  </g>
  
  <text x="86.0" y="472" text-anchor="middle" class="axis">Mar 4</text><text x="347.0" y="472" text-anchor="middle" class="axis">Apr 6</text><text x="619.9" y="472" text-anchor="middle" class="axis">May 7</text><text x="881.0" y="472" text-anchor="middle" class="axis">Jun 9</text><text x="1142.0" y="472" text-anchor="middle" class="axis">Jul 13</text>
  </svg>