<svg xmlns="http://www.w3.org/2000/svg" width="1200" height="500" viewBox="0 0 1200 500" role="img" aria-label="ORCL underlying price from entry">
  <rect width="1200" height="500" fill="#071f1c"/>
  <style>.head{fill:#f4fff9;font:800 27px Georgia,serif}.sub{fill:#9fc4bb;font:14px Arial,sans-serif}.axis{fill:#8eaaa3;font:12px Arial,sans-serif}.marker{font:800 12px Arial,sans-serif}</style>
  <text x="86" y="40" class="head">ORCL Underlying Price</text>
  <text x="86" y="66" class="sub">90 sessions | Entry marked; position remains open | Published option idea rank 3</text>
  <line x1="86" x2="1142" y1="100.0" y2="100.0" stroke="#1b4a42" stroke-width="1"/><text x="72" y="105.0" text-anchor="end" class="axis">$260.17</text><line x1="86" x2="1142" y1="183.5" y2="183.5" stroke="#1b4a42" stroke-width="1"/><text x="72" y="188.5" text-anchor="end" class="axis">$224.11</text><line x1="86" x2="1142" y1="267.0" y2="267.0" stroke="#1b4a42" stroke-width="1"/><text x="72" y="272.0" text-anchor="end" class="axis">$188.04</text><line x1="86" x2="1142" y1="350.5" y2="350.5" stroke="#1b4a42" stroke-width="1"/><text x="72" y="355.5" text-anchor="end" class="axis">$151.98</text><line x1="86" x2="1142" y1="434.0" y2="434.0" stroke="#1b4a42" stroke-width="1"/><text x="72" y="439.0" text-anchor="end" class="axis">$115.92</text>
  <path d="M86.0,348.2 L97.9,351.5 L109.7,356.5 L121.6,324.7 L133.5,333.9 L145.3,343.3 L157.2,341.3 L169.1,344.2 L180.9,348.4 L192.8,342.3 L204.7,355.8 L216.5,345.0 L228.4,361.8 L240.2,364.3 L252.1,371.7 L264.0,379.0 L275.8,381.0 L287.7,361.8 L299.6,366.1 L311.4,363.5 L323.3,365.4 L335.2,370.9 L347.0,369.8 L358.9,383.2 L370.8,382.7 L382.6,342.1 L394.5,325.0 L406.4,309.2 L418.2,289.5 L430.1,297.1 L442.0,291.2 L453.8,282.9 L465.7,268.3 L477.6,294.2 L489.4,301.2 L501.3,301.9 L513.1,318.1 L525.0,323.1 L536.9,328.7 L548.7,304.5 L560.6,285.0 L572.5,273.2 L584.3,253.1 L596.2,251.8 L608.1,248.7 L619.9,253.6 L631.8,269.8 L643.7,263.0 L655.5,249.5 L667.4,255.6 L679.3,270.3 L691.1,282.2 L703.0,266.7 L714.9,263.0 L726.7,257.7 L738.6,255.4 L750.4,260.3 L762.3,230.8 L774.2,179.6 L786.0,127.8 L797.9,136.1 L809.8,169.1 L821.6,155.2 L833.5,207.6 L845.4,212.0 L857.2,225.9 L869.1,236.4 L881.0,276.1 L892.8,276.1 L904.7,256.4 L916.6,266.3 L928.4,277.5 L940.3,275.7 L952.2,297.0 L964.0,320.0 L975.9,337.7 L987.8,349.4 L999.6,358.5 L1011.5,360.3 L1023.3,363.1 L1035.2,372.5 L1047.1,377.6 L1058.9,369.5 L1070.8,374.5 L1082.7,377.1 L1094.5,368.5 L1106.4,376.8 L1118.3,397.8 L1130.1,406.2 L1142.0,395.6 L1142.0,434.0 L86.0,434.0 Z" fill="#0f5949" opacity="0.28"/>
  <path d="M86.0,348.2 L97.9,351.5 L109.7,356.5 L121.6,324.7 L133.5,333.9 L145.3,343.3 L157.2,341.3 L169.1,344.2 L180.9,348.4 L192.8,342.3 L204.7,355.8 L216.5,345.0 L228.4,361.8 L240.2,364.3 L252.1,371.7 L264.0,379.0 L275.8,381.0 L287.7,361.8 L299.6,366.1 L311.4,363.5 L323.3,365.4 L335.2,370.9 L347.0,369.8 L358.9,383.2 L370.8,382.7 L382.6,342.1 L394.5,325.0 L406.4,309.2 L418.2,289.5 L430.1,297.1 L442.0,291.2 L453.8,282.9 L465.7,268.3 L477.6,294.2 L489.4,301.2 L501.3,301.9 L513.1,318.1 L525.0,323.1 L536.9,328.7 L548.7,304.5 L560.6,285.0 L572.5,273.2 L584.3,253.1 L596.2,251.8 L608.1,248.7 L619.9,253.6 L631.8,269.8 L643.7,263.0 L655.5,249.5 L667.4,255.6 L679.3,270.3 L691.1,282.2 L703.0,266.7 L714.9,263.0 L726.7,257.7 L738.6,255.4 L750.4,260.3 L762.3,230.8 L774.2,179.6 L786.0,127.8 L797.9,136.1 L809.8,169.1 L821.6,155.2 L833.5,207.6 L845.4,212.0 L857.2,225.9 L869.1,236.4 L881.0,276.1 L892.8,276.1 L904.7,256.4 L916.6,266.3 L928.4,277.5 L940.3,275.7 L952.2,297.0 L964.0,320.0 L975.9,337.7 L987.8,349.4 L999.6,358.5 L1011.5,360.3 L1023.3,363.1 L1035.2,372.5 L1047.1,377.6 L1058.9,369.5 L1070.8,374.5 L1082.7,377.1 L1094.5,368.5 L1106.4,376.8 L1118.3,397.8 L1130.1,406.2 L1142.0,395.6" fill="none" stroke="#62d9ee" stroke-width="4" stroke-linecap="round" stroke-linejoin="round"/>
  <g>
    <line x1="1118.3" x2="1118.3" y1="100" y2="434" stroke="#18e59c" stroke-width="2" stroke-dasharray="7 7" opacity="0.8"/>
    <circle cx="1118.3" cy="386.0" r="8" fill="#071f1c" stroke="#18e59c" stroke-width="4"/>
    <text x="1030.0" y="368.0" text-anchor="middle" class="marker" fill="#18e59c">ENTRY | Jul 13 | $136.66</text>
  </g>
  
  <text x="86.0" y="472" text-anchor="middle" class="axis">Mar 6</text><text x="347.0" y="472" text-anchor="middle" class="axis">Apr 8</text><text x="619.9" y="472" text-anchor="middle" class="axis">May 11</text><text x="881.0" y="472" text-anchor="middle" class="axis">Jun 11</text><text x="1142.0" y="472" text-anchor="middle" class="axis">Jul 15</text>
  </svg>