<svg xmlns="http://www.w3.org/2000/svg" width="1200" height="500" viewBox="0 0 1200 500" role="img" aria-label="WFC underlying price from entry">
  <rect width="1200" height="500" fill="#071f1c"/>
  <style>.head{fill:#f4fff9;font:800 27px Georgia,serif}.sub{fill:#9fc4bb;font:14px Arial,sans-serif}.axis{fill:#8eaaa3;font:12px Arial,sans-serif}.marker{font:800 12px Arial,sans-serif}</style>
  <text x="86" y="40" class="head">WFC Underlying Price</text>
  <text x="86" y="66" class="sub">90 sessions | Entry marked; position remains open | Published option idea rank 3</text>
  <line x1="86" x2="1142" y1="100.0" y2="100.0" stroke="#1b4a42" stroke-width="1"/><text x="72" y="105.0" text-anchor="end" class="axis">$88.85</text><line x1="86" x2="1142" y1="183.5" y2="183.5" stroke="#1b4a42" stroke-width="1"/><text x="72" y="188.5" text-anchor="end" class="axis">$84.64</text><line x1="86" x2="1142" y1="267.0" y2="267.0" stroke="#1b4a42" stroke-width="1"/><text x="72" y="272.0" text-anchor="end" class="axis">$80.44</text><line x1="86" x2="1142" y1="350.5" y2="350.5" stroke="#1b4a42" stroke-width="1"/><text x="72" y="355.5" text-anchor="end" class="axis">$76.23</text><line x1="86" x2="1142" y1="434.0" y2="434.0" stroke="#1b4a42" stroke-width="1"/><text x="72" y="439.0" text-anchor="end" class="axis">$72.02</text>
  <path d="M86.0,197.7 L97.9,233.8 L109.7,267.3 L121.6,298.8 L133.5,309.4 L145.3,337.5 L157.2,369.9 L169.1,392.7 L180.9,359.9 L192.8,350.4 L204.7,351.2 L216.5,347.2 L228.4,323.2 L240.2,309.8 L252.1,283.4 L264.0,270.5 L275.8,295.1 L287.7,331.4 L299.6,339.1 L311.4,283.4 L323.3,264.3 L335.2,263.7 L347.0,238.9 L358.9,240.9 L370.8,183.2 L382.6,156.2 L394.5,168.5 L406.4,143.9 L418.2,241.9 L430.1,269.9 L442.0,250.8 L453.8,247.7 L465.7,236.5 L477.6,244.9 L489.4,264.1 L501.3,265.5 L513.1,287.1 L525.0,264.5 L536.9,245.9 L548.7,245.7 L560.6,231.4 L572.5,259.6 L584.3,291.9 L596.2,277.8 L608.1,267.3 L619.9,292.3 L631.8,362.1 L643.7,403.0 L655.5,371.3 L667.4,404.0 L679.3,398.8 L691.1,406.2 L703.0,387.3 L714.9,383.7 L726.7,358.8 L738.6,356.6 L750.4,347.0 L762.3,324.8 L774.2,352.8 L786.0,342.1 L797.9,324.4 L809.8,331.8 L821.6,286.7 L833.5,301.8 L845.4,243.5 L857.2,237.1 L869.1,256.6 L881.0,236.0 L892.8,236.5 L904.7,228.0 L916.6,201.6 L928.4,213.3 L940.3,175.4 L952.2,200.0 L964.0,232.0 L975.9,199.5 L987.8,193.7 L999.6,190.3 L1011.5,181.6 L1023.3,199.1 L1035.2,206.0 L1047.1,223.3 L1058.9,157.8 L1070.8,166.3 L1082.7,127.8 L1094.5,133.2 L1106.4,165.3 L1118.3,138.5 L1130.1,133.6 L1142.0,145.9 L1142.0,434.0 L86.0,434.0 Z" fill="#0f5949" opacity="0.28"/>
  <path d="M86.0,197.7 L97.9,233.8 L109.7,267.3 L121.6,298.8 L133.5,309.4 L145.3,337.5 L157.2,369.9 L169.1,392.7 L180.9,359.9 L192.8,350.4 L204.7,351.2 L216.5,347.2 L228.4,323.2 L240.2,309.8 L252.1,283.4 L264.0,270.5 L275.8,295.1 L287.7,331.4 L299.6,339.1 L311.4,283.4 L323.3,264.3 L335.2,263.7 L347.0,238.9 L358.9,240.9 L370.8,183.2 L382.6,156.2 L394.5,168.5 L406.4,143.9 L418.2,241.9 L430.1,269.9 L442.0,250.8 L453.8,247.7 L465.7,236.5 L477.6,244.9 L489.4,264.1 L501.3,265.5 L513.1,287.1 L525.0,264.5 L536.9,245.9 L548.7,245.7 L560.6,231.4 L572.5,259.6 L584.3,291.9 L596.2,277.8 L608.1,267.3 L619.9,292.3 L631.8,362.1 L643.7,403.0 L655.5,371.3 L667.4,404.0 L679.3,398.8 L691.1,406.2 L703.0,387.3 L714.9,383.7 L726.7,358.8 L738.6,356.6 L750.4,347.0 L762.3,324.8 L774.2,352.8 L786.0,342.1 L797.9,324.4 L809.8,331.8 L821.6,286.7 L833.5,301.8 L845.4,243.5 L857.2,237.1 L869.1,256.6 L881.0,236.0 L892.8,236.5 L904.7,228.0 L916.6,201.6 L928.4,213.3 L940.3,175.4 L952.2,200.0 L964.0,232.0 L975.9,199.5 L987.8,193.7 L999.6,190.3 L1011.5,181.6 L1023.3,199.1 L1035.2,206.0 L1047.1,223.3 L1058.9,157.8 L1070.8,166.3 L1082.7,127.8 L1094.5,133.2 L1106.4,165.3 L1118.3,138.5 L1130.1,133.6 L1142.0,145.9" fill="none" stroke="#62d9ee" stroke-width="4" stroke-linecap="round" stroke-linejoin="round"/>
  <g>
    <line x1="1142.0" x2="1142.0" y1="100" y2="434" stroke="#18e59c" stroke-width="2" stroke-dasharray="7 7" opacity="0.8"/>
    <circle cx="1142.0" cy="145.9" r="8" fill="#071f1c" stroke="#18e59c" stroke-width="4"/>
    <text x="1030.0" y="179.9" text-anchor="middle" class="marker" fill="#18e59c">ENTRY | Jul 13 | $86.54</text>
  </g>
  
  <text x="86.0" y="472" text-anchor="middle" class="axis">Mar 4</text><text x="347.0" y="472" text-anchor="middle" class="axis">Apr 6</text><text x="619.9" y="472" text-anchor="middle" class="axis">May 7</text><text x="881.0" y="472" text-anchor="middle" class="axis">Jun 9</text><text x="1142.0" y="472" text-anchor="middle" class="axis">Jul 13</text>
  </svg>