<svg xmlns="http://www.w3.org/2000/svg" width="1200" height="500" viewBox="0 0 1200 500" role="img" aria-label="CMCSA underlying price from entry">
  <rect width="1200" height="500" fill="#071f1c"/>
  <style>.head{fill:#f4fff9;font:800 27px Georgia,serif}.sub{fill:#9fc4bb;font:14px Arial,sans-serif}.axis{fill:#8eaaa3;font:12px Arial,sans-serif}.marker{font:800 12px Arial,sans-serif}</style>
  <text x="86" y="40" class="head">CMCSA Underlying Price</text>
  <text x="86" y="66" class="sub">90 sessions | Entry marked; position remains open | Published option idea rank 4</text>
  <line x1="86" x2="1142" y1="100.0" y2="100.0" stroke="#1b4a42" stroke-width="1"/><text x="72" y="105.0" text-anchor="end" class="axis">$33.07</text><line x1="86" x2="1142" y1="183.5" y2="183.5" stroke="#1b4a42" stroke-width="1"/><text x="72" y="188.5" text-anchor="end" class="axis">$30.14</text><line x1="86" x2="1142" y1="267.0" y2="267.0" stroke="#1b4a42" stroke-width="1"/><text x="72" y="272.0" text-anchor="end" class="axis">$27.21</text><line x1="86" x2="1142" y1="350.5" y2="350.5" stroke="#1b4a42" stroke-width="1"/><text x="72" y="355.5" text-anchor="end" class="axis">$24.27</text><line x1="86" x2="1142" y1="434.0" y2="434.0" stroke="#1b4a42" stroke-width="1"/><text x="72" y="439.0" text-anchor="end" class="axis">$21.34</text>
  <path d="M86.0,127.8 L97.9,141.8 L109.7,133.0 L121.6,157.7 L133.5,156.9 L145.3,171.1 L157.2,182.8 L169.1,182.8 L180.9,177.7 L192.8,185.1 L204.7,228.1 L216.5,216.4 L228.4,215.3 L240.2,215.6 L252.1,209.6 L264.0,223.6 L275.8,223.8 L287.7,235.0 L299.6,218.7 L311.4,224.1 L323.3,242.9 L335.2,246.3 L347.0,254.0 L358.9,250.3 L370.8,245.5 L382.6,235.5 L394.5,246.3 L406.4,242.9 L418.2,240.4 L430.1,235.8 L442.0,205.9 L453.8,197.9 L465.7,195.1 L477.6,214.4 L489.4,205.3 L501.3,140.7 L513.1,256.9 L525.0,258.3 L536.9,254.6 L548.7,279.7 L560.6,271.7 L572.5,267.4 L584.3,270.8 L596.2,288.2 L608.1,288.8 L619.9,294.5 L631.8,318.4 L643.7,329.0 L655.5,332.7 L667.4,331.5 L679.3,325.0 L691.1,336.7 L703.0,331.8 L714.9,335.5 L726.7,333.2 L738.6,327.5 L750.4,323.8 L762.3,325.5 L774.2,323.5 L786.0,325.3 L797.9,333.5 L809.8,328.4 L821.6,334.1 L833.5,372.0 L845.4,377.4 L857.2,363.4 L869.1,365.1 L881.0,362.6 L892.8,359.2 L904.7,359.2 L916.6,344.1 L928.4,359.2 L940.3,368.0 L952.2,395.6 L964.0,403.0 L975.9,406.2 L987.8,392.5 L999.6,397.1 L1011.5,395.6 L1023.3,382.0 L1035.2,352.0 L1047.1,342.6 L1058.9,366.0 L1070.8,364.3 L1082.7,376.0 L1094.5,375.1 L1106.4,381.4 L1118.3,376.8 L1130.1,370.6 L1142.0,352.6 L1142.0,434.0 L86.0,434.0 Z" fill="#0f5949" opacity="0.28"/>
  <path d="M86.0,127.8 L97.9,141.8 L109.7,133.0 L121.6,157.7 L133.5,156.9 L145.3,171.1 L157.2,182.8 L169.1,182.8 L180.9,177.7 L192.8,185.1 L204.7,228.1 L216.5,216.4 L228.4,215.3 L240.2,215.6 L252.1,209.6 L264.0,223.6 L275.8,223.8 L287.7,235.0 L299.6,218.7 L311.4,224.1 L323.3,242.9 L335.2,246.3 L347.0,254.0 L358.9,250.3 L370.8,245.5 L382.6,235.5 L394.5,246.3 L406.4,242.9 L418.2,240.4 L430.1,235.8 L442.0,205.9 L453.8,197.9 L465.7,195.1 L477.6,214.4 L489.4,205.3 L501.3,140.7 L513.1,256.9 L525.0,258.3 L536.9,254.6 L548.7,279.7 L560.6,271.7 L572.5,267.4 L584.3,270.8 L596.2,288.2 L608.1,288.8 L619.9,294.5 L631.8,318.4 L643.7,329.0 L655.5,332.7 L667.4,331.5 L679.3,325.0 L691.1,336.7 L703.0,331.8 L714.9,335.5 L726.7,333.2 L738.6,327.5 L750.4,323.8 L762.3,325.5 L774.2,323.5 L786.0,325.3 L797.9,333.5 L809.8,328.4 L821.6,334.1 L833.5,372.0 L845.4,377.4 L857.2,363.4 L869.1,365.1 L881.0,362.6 L892.8,359.2 L904.7,359.2 L916.6,344.1 L928.4,359.2 L940.3,368.0 L952.2,395.6 L964.0,403.0 L975.9,406.2 L987.8,392.5 L999.6,397.1 L1011.5,395.6 L1023.3,382.0 L1035.2,352.0 L1047.1,342.6 L1058.9,366.0 L1070.8,364.3 L1082.7,376.0 L1094.5,375.1 L1106.4,381.4 L1118.3,376.8 L1130.1,370.6 L1142.0,352.6" fill="none" stroke="#62d9ee" stroke-width="4" stroke-linecap="round" stroke-linejoin="round"/>
  <g>
    <line x1="1142.0" x2="1142.0" y1="100" y2="434" stroke="#18e59c" stroke-width="2" stroke-dasharray="7 7" opacity="0.8"/>
    <circle cx="1142.0" cy="352.6" r="8" fill="#071f1c" stroke="#18e59c" stroke-width="4"/>
    <text x="1030.0" y="334.6" text-anchor="middle" class="marker" fill="#18e59c">ENTRY | Jul 13 | $24.20</text>
  </g>
  
  <text x="86.0" y="472" text-anchor="middle" class="axis">Mar 4</text><text x="347.0" y="472" text-anchor="middle" class="axis">Apr 6</text><text x="619.9" y="472" text-anchor="middle" class="axis">May 7</text><text x="881.0" y="472" text-anchor="middle" class="axis">Jun 9</text><text x="1142.0" y="472" text-anchor="middle" class="axis">Jul 13</text>
  </svg>