<svg xmlns="http://www.w3.org/2000/svg" width="1200" height="500" viewBox="0 0 1200 500" role="img" aria-label="PLTR underlying price from entry">
  <rect width="1200" height="500" fill="#071f1c"/>
  <style>.head{fill:#f4fff9;font:800 27px Georgia,serif}.sub{fill:#9fc4bb;font:14px Arial,sans-serif}.axis{fill:#8eaaa3;font:12px Arial,sans-serif}.marker{font:800 12px Arial,sans-serif}</style>
  <text x="86" y="40" class="head">PLTR Underlying Price</text>
  <text x="86" y="66" class="sub">90 sessions | Entry marked; position remains open | Published option idea rank 4</text>
  <line x1="86" x2="1142" y1="100.0" y2="100.0" stroke="#1b4a42" stroke-width="1"/><text x="72" y="105.0" text-anchor="end" class="axis">$166.20</text><line x1="86" x2="1142" y1="183.5" y2="183.5" stroke="#1b4a42" stroke-width="1"/><text x="72" y="188.5" text-anchor="end" class="axis">$150.13</text><line x1="86" x2="1142" y1="267.0" y2="267.0" stroke="#1b4a42" stroke-width="1"/><text x="72" y="272.0" text-anchor="end" class="axis">$134.06</text><line x1="86" x2="1142" y1="350.5" y2="350.5" stroke="#1b4a42" stroke-width="1"/><text x="72" y="355.5" text-anchor="end" class="axis">$117.98</text><line x1="86" x2="1142" y1="434.0" y2="434.0" stroke="#1b4a42" stroke-width="1"/><text x="72" y="439.0" text-anchor="end" class="axis">$101.91</text>
  <path d="M86.0,167.6 L97.9,170.3 L109.7,147.0 L121.6,150.7 L133.5,178.2 L145.3,175.8 L157.2,166.0 L169.1,179.2 L180.9,170.0 L192.8,157.8 L204.7,169.8 L216.5,154.6 L228.4,180.6 L240.2,127.8 L252.1,159.3 L264.0,158.4 L275.8,196.8 L287.7,220.2 L299.6,248.8 L311.4,203.5 L323.3,202.4 L335.2,192.2 L347.0,194.9 L358.9,183.8 L370.8,232.2 L382.6,285.5 L394.5,298.1 L406.4,275.8 L418.2,258.5 L430.1,224.9 L442.0,221.8 L453.8,202.9 L465.7,205.5 L477.6,205.1 L489.4,170.5 L501.3,228.0 L513.1,220.1 L525.0,220.0 L536.9,230.0 L548.7,246.7 L560.6,240.7 L572.5,215.0 L584.3,204.8 L596.2,257.4 L608.1,268.4 L619.9,251.4 L631.8,247.5 L643.7,252.3 L655.5,256.9 L667.4,287.8 L679.3,268.7 L691.1,267.3 L703.0,261.4 L714.9,260.7 L726.7,250.9 L738.6,249.5 L750.4,252.3 L762.3,253.8 L774.2,275.0 L786.0,218.8 L797.9,150.2 L809.8,128.8 L821.6,172.9 L833.5,224.7 L845.4,227.3 L857.2,259.3 L869.1,254.5 L881.0,277.3 L892.8,287.0 L904.7,282.5 L916.6,298.5 L928.4,263.6 L940.3,271.2 L952.2,284.8 L964.0,296.0 L975.9,342.6 L987.8,357.2 L999.6,373.8 L1011.5,406.2 L1023.3,376.8 L1035.2,362.4 L1047.1,357.3 L1058.9,310.3 L1070.8,291.7 L1082.7,274.9 L1094.5,265.4 L1106.4,276.5 L1118.3,293.1 L1130.1,304.7 L1142.0,295.7 L1142.0,434.0 L86.0,434.0 Z" fill="#0f5949" opacity="0.28"/>
  <path d="M86.0,167.6 L97.9,170.3 L109.7,147.0 L121.6,150.7 L133.5,178.2 L145.3,175.8 L157.2,166.0 L169.1,179.2 L180.9,170.0 L192.8,157.8 L204.7,169.8 L216.5,154.6 L228.4,180.6 L240.2,127.8 L252.1,159.3 L264.0,158.4 L275.8,196.8 L287.7,220.2 L299.6,248.8 L311.4,203.5 L323.3,202.4 L335.2,192.2 L347.0,194.9 L358.9,183.8 L370.8,232.2 L382.6,285.5 L394.5,298.1 L406.4,275.8 L418.2,258.5 L430.1,224.9 L442.0,221.8 L453.8,202.9 L465.7,205.5 L477.6,205.1 L489.4,170.5 L501.3,228.0 L513.1,220.1 L525.0,220.0 L536.9,230.0 L548.7,246.7 L560.6,240.7 L572.5,215.0 L584.3,204.8 L596.2,257.4 L608.1,268.4 L619.9,251.4 L631.8,247.5 L643.7,252.3 L655.5,256.9 L667.4,287.8 L679.3,268.7 L691.1,267.3 L703.0,261.4 L714.9,260.7 L726.7,250.9 L738.6,249.5 L750.4,252.3 L762.3,253.8 L774.2,275.0 L786.0,218.8 L797.9,150.2 L809.8,128.8 L821.6,172.9 L833.5,224.7 L845.4,227.3 L857.2,259.3 L869.1,254.5 L881.0,277.3 L892.8,287.0 L904.7,282.5 L916.6,298.5 L928.4,263.6 L940.3,271.2 L952.2,284.8 L964.0,296.0 L975.9,342.6 L987.8,357.2 L999.6,373.8 L1011.5,406.2 L1023.3,376.8 L1035.2,362.4 L1047.1,357.3 L1058.9,310.3 L1070.8,291.7 L1082.7,274.9 L1094.5,265.4 L1106.4,276.5 L1118.3,293.1 L1130.1,304.7 L1142.0,295.7" fill="none" stroke="#62d9ee" stroke-width="4" stroke-linecap="round" stroke-linejoin="round"/>
  <g>
    <line x1="1142.0" x2="1142.0" y1="100" y2="434" stroke="#18e59c" stroke-width="2" stroke-dasharray="7 7" opacity="0.8"/>
    <circle cx="1142.0" cy="295.7" r="8" fill="#071f1c" stroke="#18e59c" stroke-width="4"/>
    <text x="1030.0" y="277.7" text-anchor="middle" class="marker" fill="#18e59c">ENTRY | Jul 13 | $128.54</text>
  </g>
  
  <text x="86.0" y="472" text-anchor="middle" class="axis">Mar 4</text><text x="347.0" y="472" text-anchor="middle" class="axis">Apr 6</text><text x="619.9" y="472" text-anchor="middle" class="axis">May 7</text><text x="881.0" y="472" text-anchor="middle" class="axis">Jun 9</text><text x="1142.0" y="472" text-anchor="middle" class="axis">Jul 13</text>
  </svg>