<svg xmlns="http://www.w3.org/2000/svg" width="1200" height="500" viewBox="0 0 1200 500" role="img" aria-label="QQQ underlying price from entry">
  <rect width="1200" height="500" fill="#071f1c"/>
  <style>.head{fill:#f4fff9;font:800 27px Georgia,serif}.sub{fill:#9fc4bb;font:14px Arial,sans-serif}.axis{fill:#8eaaa3;font:12px Arial,sans-serif}.marker{font:800 12px Arial,sans-serif}</style>
  <text x="86" y="40" class="head">QQQ Underlying Price</text>
  <text x="86" y="66" class="sub">90 sessions | Entry marked; position remains open | Published option idea rank 4</text>
  <line x1="86" x2="1142" y1="100.0" y2="100.0" stroke="#1b4a42" stroke-width="1"/><text x="72" y="105.0" text-anchor="end" class="axis">$764.95</text><line x1="86" x2="1142" y1="183.5" y2="183.5" stroke="#1b4a42" stroke-width="1"/><text x="72" y="188.5" text-anchor="end" class="axis">$708.58</text><line x1="86" x2="1142" y1="267.0" y2="267.0" stroke="#1b4a42" stroke-width="1"/><text x="72" y="272.0" text-anchor="end" class="axis">$652.22</text><line x1="86" x2="1142" y1="350.5" y2="350.5" stroke="#1b4a42" stroke-width="1"/><text x="72" y="355.5" text-anchor="end" class="axis">$595.86</text><line x1="86" x2="1142" y1="434.0" y2="434.0" stroke="#1b4a42" stroke-width="1"/><text x="72" y="439.0" text-anchor="end" class="axis">$539.49</text>
  <path d="M86.0,332.9 L97.9,332.9 L109.7,333.0 L121.6,348.4 L133.5,353.7 L145.3,343.8 L157.2,339.5 L169.1,351.9 L180.9,354.7 L192.8,370.9 L204.7,362.1 L216.5,368.1 L228.4,362.4 L240.2,383.2 L252.1,399.8 L264.0,406.2 L275.8,378.2 L287.7,367.6 L299.6,366.6 L311.4,361.4 L323.3,361.3 L335.2,335.3 L347.0,329.3 L358.9,328.0 L370.8,318.6 L382.6,302.0 L394.5,289.0 L406.4,284.4 L418.2,272.0 L430.1,275.0 L442.0,278.7 L453.8,262.7 L465.7,268.2 L477.6,249.7 L489.4,249.2 L501.3,259.1 L513.1,253.1 L525.0,244.0 L536.9,234.5 L548.7,236.4 L560.6,223.5 L572.5,202.5 L584.3,203.7 L596.2,179.6 L608.1,176.5 L619.9,185.5 L631.8,174.4 L643.7,166.9 L655.5,183.0 L667.4,187.5 L679.3,194.0 L691.1,176.7 L703.0,174.7 L714.9,170.2 L726.7,151.4 L738.6,152.6 L750.4,143.5 L762.3,139.5 L774.2,132.9 L786.0,127.8 L797.9,130.7 L809.8,136.1 L821.6,188.7 L833.5,172.4 L845.4,184.6 L857.2,205.6 L869.1,170.9 L881.0,164.6 L892.8,131.0 L904.7,152.0 L916.6,162.9 L928.4,136.0 L940.3,140.0 L952.2,176.0 L964.0,180.5 L975.9,172.0 L987.8,186.6 L999.6,160.5 L1011.5,142.3 L1023.3,158.9 L1035.2,177.6 L1047.1,162.4 L1058.9,182.2 L1070.8,179.3 L1082.7,161.7 L1094.5,158.4 L1106.4,178.8 L1118.3,167.0 L1130.1,169.9 L1142.0,187.4 L1142.0,434.0 L86.0,434.0 Z" fill="#0f5949" opacity="0.28"/>
  <path d="M86.0,332.9 L97.9,332.9 L109.7,333.0 L121.6,348.4 L133.5,353.7 L145.3,343.8 L157.2,339.5 L169.1,351.9 L180.9,354.7 L192.8,370.9 L204.7,362.1 L216.5,368.1 L228.4,362.4 L240.2,383.2 L252.1,399.8 L264.0,406.2 L275.8,378.2 L287.7,367.6 L299.6,366.6 L311.4,361.4 L323.3,361.3 L335.2,335.3 L347.0,329.3 L358.9,328.0 L370.8,318.6 L382.6,302.0 L394.5,289.0 L406.4,284.4 L418.2,272.0 L430.1,275.0 L442.0,278.7 L453.8,262.7 L465.7,268.2 L477.6,249.7 L489.4,249.2 L501.3,259.1 L513.1,253.1 L525.0,244.0 L536.9,234.5 L548.7,236.4 L560.6,223.5 L572.5,202.5 L584.3,203.7 L596.2,179.6 L608.1,176.5 L619.9,185.5 L631.8,174.4 L643.7,166.9 L655.5,183.0 L667.4,187.5 L679.3,194.0 L691.1,176.7 L703.0,174.7 L714.9,170.2 L726.7,151.4 L738.6,152.6 L750.4,143.5 L762.3,139.5 L774.2,132.9 L786.0,127.8 L797.9,130.7 L809.8,136.1 L821.6,188.7 L833.5,172.4 L845.4,184.6 L857.2,205.6 L869.1,170.9 L881.0,164.6 L892.8,131.0 L904.7,152.0 L916.6,162.9 L928.4,136.0 L940.3,140.0 L952.2,176.0 L964.0,180.5 L975.9,172.0 L987.8,186.6 L999.6,160.5 L1011.5,142.3 L1023.3,158.9 L1035.2,177.6 L1047.1,162.4 L1058.9,182.2 L1070.8,179.3 L1082.7,161.7 L1094.5,158.4 L1106.4,178.8 L1118.3,167.0 L1130.1,169.9 L1142.0,187.4" fill="none" stroke="#62d9ee" stroke-width="4" stroke-linecap="round" stroke-linejoin="round"/>
  <g>
    <line x1="1106.4" x2="1106.4" y1="100" y2="434" stroke="#18e59c" stroke-width="2" stroke-dasharray="7 7" opacity="0.8"/>
    <circle cx="1106.4" cy="169.9" r="8" fill="#071f1c" stroke="#18e59c" stroke-width="4"/>
    <text x="1030.0" y="151.9" text-anchor="middle" class="marker" fill="#18e59c">ENTRY | Jul 13 | $717.77</text>
  </g>
  
  <text x="86.0" y="472" text-anchor="middle" class="axis">Mar 9</text><text x="347.0" y="472" text-anchor="middle" class="axis">Apr 9</text><text x="619.9" y="472" text-anchor="middle" class="axis">May 12</text><text x="881.0" y="472" text-anchor="middle" class="axis">Jun 12</text><text x="1142.0" y="472" text-anchor="middle" class="axis">Jul 16</text>
  </svg>