<svg xmlns="http://www.w3.org/2000/svg" width="1200" height="500" viewBox="0 0 1200 500" role="img" aria-label="QQQ underlying price from entry">
  <rect width="1200" height="500" fill="#071f1c"/>
  <style>.head{fill:#f4fff9;font:800 27px Georgia,serif}.sub{fill:#9fc4bb;font:14px Arial,sans-serif}.axis{fill:#8eaaa3;font:12px Arial,sans-serif}.marker{font:800 12px Arial,sans-serif}</style>
  <text x="86" y="40" class="head">QQQ Underlying Price</text>
  <text x="86" y="66" class="sub">90 sessions | Entry marked; position remains open | Published option idea rank 4</text>
  <line x1="86" x2="1142" y1="100.0" y2="100.0" stroke="#1b4a42" stroke-width="1"/><text x="72" y="105.0" text-anchor="end" class="axis">$764.95</text><line x1="86" x2="1142" y1="183.5" y2="183.5" stroke="#1b4a42" stroke-width="1"/><text x="72" y="188.5" text-anchor="end" class="axis">$708.58</text><line x1="86" x2="1142" y1="267.0" y2="267.0" stroke="#1b4a42" stroke-width="1"/><text x="72" y="272.0" text-anchor="end" class="axis">$652.22</text><line x1="86" x2="1142" y1="350.5" y2="350.5" stroke="#1b4a42" stroke-width="1"/><text x="72" y="355.5" text-anchor="end" class="axis">$595.86</text><line x1="86" x2="1142" y1="434.0" y2="434.0" stroke="#1b4a42" stroke-width="1"/><text x="72" y="439.0" text-anchor="end" class="axis">$539.49</text>
  <path d="M86.0,331.2 L97.9,344.7 L109.7,332.9 L121.6,332.9 L133.5,333.0 L145.3,348.4 L157.2,353.7 L169.1,343.8 L180.9,339.5 L192.8,351.9 L204.7,354.7 L216.5,370.9 L228.4,362.1 L240.2,368.1 L252.1,362.4 L264.0,383.2 L275.8,399.8 L287.7,406.2 L299.6,378.2 L311.4,367.6 L323.3,366.6 L335.2,361.4 L347.0,361.3 L358.9,335.3 L370.8,329.3 L382.6,328.0 L394.5,318.6 L406.4,302.0 L418.2,289.0 L430.1,284.4 L442.0,272.0 L453.8,275.0 L465.7,278.7 L477.6,262.7 L489.4,268.2 L501.3,249.7 L513.1,249.2 L525.0,259.1 L536.9,253.1 L548.7,244.0 L560.6,234.5 L572.5,236.4 L584.3,223.5 L596.2,202.5 L608.1,203.7 L619.9,179.6 L631.8,176.5 L643.7,185.5 L655.5,174.4 L667.4,166.9 L679.3,183.0 L691.1,187.5 L703.0,194.0 L714.9,176.7 L726.7,174.7 L738.6,170.2 L750.4,151.4 L762.3,152.6 L774.2,143.5 L786.0,139.5 L797.9,132.9 L809.8,127.8 L821.6,130.7 L833.5,136.1 L845.4,188.7 L857.2,172.4 L869.1,184.6 L881.0,205.6 L892.8,170.9 L904.7,164.6 L916.6,131.0 L928.4,152.0 L940.3,162.9 L952.2,136.0 L964.0,140.0 L975.9,176.0 L987.8,180.5 L999.6,172.0 L1011.5,186.6 L1023.3,160.5 L1035.2,142.3 L1047.1,158.9 L1058.9,177.6 L1070.8,162.4 L1082.7,182.2 L1094.5,179.3 L1106.4,161.7 L1118.3,158.4 L1130.1,178.8 L1142.0,167.0 L1142.0,434.0 L86.0,434.0 Z" fill="#0f5949" opacity="0.28"/>
  <path d="M86.0,331.2 L97.9,344.7 L109.7,332.9 L121.6,332.9 L133.5,333.0 L145.3,348.4 L157.2,353.7 L169.1,343.8 L180.9,339.5 L192.8,351.9 L204.7,354.7 L216.5,370.9 L228.4,362.1 L240.2,368.1 L252.1,362.4 L264.0,383.2 L275.8,399.8 L287.7,406.2 L299.6,378.2 L311.4,367.6 L323.3,366.6 L335.2,361.4 L347.0,361.3 L358.9,335.3 L370.8,329.3 L382.6,328.0 L394.5,318.6 L406.4,302.0 L418.2,289.0 L430.1,284.4 L442.0,272.0 L453.8,275.0 L465.7,278.7 L477.6,262.7 L489.4,268.2 L501.3,249.7 L513.1,249.2 L525.0,259.1 L536.9,253.1 L548.7,244.0 L560.6,234.5 L572.5,236.4 L584.3,223.5 L596.2,202.5 L608.1,203.7 L619.9,179.6 L631.8,176.5 L643.7,185.5 L655.5,174.4 L667.4,166.9 L679.3,183.0 L691.1,187.5 L703.0,194.0 L714.9,176.7 L726.7,174.7 L738.6,170.2 L750.4,151.4 L762.3,152.6 L774.2,143.5 L786.0,139.5 L797.9,132.9 L809.8,127.8 L821.6,130.7 L833.5,136.1 L845.4,188.7 L857.2,172.4 L869.1,184.6 L881.0,205.6 L892.8,170.9 L904.7,164.6 L916.6,131.0 L928.4,152.0 L940.3,162.9 L952.2,136.0 L964.0,140.0 L975.9,176.0 L987.8,180.5 L999.6,172.0 L1011.5,186.6 L1023.3,160.5 L1035.2,142.3 L1047.1,158.9 L1058.9,177.6 L1070.8,162.4 L1082.7,182.2 L1094.5,179.3 L1106.4,161.7 L1118.3,158.4 L1130.1,178.8 L1142.0,167.0" fill="none" stroke="#62d9ee" stroke-width="4" stroke-linecap="round" stroke-linejoin="round"/>
  <g>
    <line x1="1130.1" x2="1130.1" y1="100" y2="434" stroke="#18e59c" stroke-width="2" stroke-dasharray="7 7" opacity="0.8"/>
    <circle cx="1130.1" cy="169.9" r="8" fill="#071f1c" stroke="#18e59c" stroke-width="4"/>
    <text x="1030.0" y="151.9" text-anchor="middle" class="marker" fill="#18e59c">ENTRY | Jul 13 | $717.77</text>
  </g>
  
  <text x="86.0" y="472" text-anchor="middle" class="axis">Mar 5</text><text x="347.0" y="472" text-anchor="middle" class="axis">Apr 7</text><text x="619.9" y="472" text-anchor="middle" class="axis">May 8</text><text x="881.0" y="472" text-anchor="middle" class="axis">Jun 10</text><text x="1142.0" y="472" text-anchor="middle" class="axis">Jul 14</text>
  </svg>