<svg xmlns="http://www.w3.org/2000/svg" width="1200" height="500" viewBox="0 0 1200 500" role="img" aria-label="QQQ underlying price from entry">
  <rect width="1200" height="500" fill="#071f1c"/>
  <style>.head{fill:#f4fff9;font:800 27px Georgia,serif}.sub{fill:#9fc4bb;font:14px Arial,sans-serif}.axis{fill:#8eaaa3;font:12px Arial,sans-serif}.marker{font:800 12px Arial,sans-serif}</style>
  <text x="86" y="40" class="head">QQQ Underlying Price</text>
  <text x="86" y="66" class="sub">90 sessions | Entry marked; position remains open | Published option idea rank 4</text>
  <line x1="86" x2="1142" y1="100.0" y2="100.0" stroke="#1b4a42" stroke-width="1"/><text x="72" y="105.0" text-anchor="end" class="axis">$764.95</text><line x1="86" x2="1142" y1="183.5" y2="183.5" stroke="#1b4a42" stroke-width="1"/><text x="72" y="188.5" text-anchor="end" class="axis">$708.58</text><line x1="86" x2="1142" y1="267.0" y2="267.0" stroke="#1b4a42" stroke-width="1"/><text x="72" y="272.0" text-anchor="end" class="axis">$652.22</text><line x1="86" x2="1142" y1="350.5" y2="350.5" stroke="#1b4a42" stroke-width="1"/><text x="72" y="355.5" text-anchor="end" class="axis">$595.86</text><line x1="86" x2="1142" y1="434.0" y2="434.0" stroke="#1b4a42" stroke-width="1"/><text x="72" y="439.0" text-anchor="end" class="axis">$539.49</text>
  <path d="M86.0,328.4 L97.9,331.2 L109.7,344.7 L121.6,332.9 L133.5,332.9 L145.3,333.0 L157.2,348.4 L169.1,353.7 L180.9,343.8 L192.8,339.5 L204.7,351.9 L216.5,354.7 L228.4,370.9 L240.2,362.1 L252.1,368.1 L264.0,362.4 L275.8,383.2 L287.7,399.8 L299.6,406.2 L311.4,378.2 L323.3,367.6 L335.2,366.6 L347.0,361.4 L358.9,361.3 L370.8,335.3 L382.6,329.3 L394.5,328.0 L406.4,318.6 L418.2,302.0 L430.1,289.0 L442.0,284.4 L453.8,272.0 L465.7,275.0 L477.6,278.7 L489.4,262.7 L501.3,268.2 L513.1,249.7 L525.0,249.2 L536.9,259.1 L548.7,253.1 L560.6,244.0 L572.5,234.5 L584.3,236.4 L596.2,223.5 L608.1,202.5 L619.9,203.7 L631.8,179.6 L643.7,176.5 L655.5,185.5 L667.4,174.4 L679.3,166.9 L691.1,183.0 L703.0,187.5 L714.9,194.0 L726.7,176.7 L738.6,174.7 L750.4,170.2 L762.3,151.4 L774.2,152.6 L786.0,143.5 L797.9,139.5 L809.8,132.9 L821.6,127.8 L833.5,130.7 L845.4,136.1 L857.2,188.7 L869.1,172.4 L881.0,184.6 L892.8,205.6 L904.7,170.9 L916.6,164.6 L928.4,131.0 L940.3,152.0 L952.2,162.9 L964.0,136.0 L975.9,140.0 L987.8,176.0 L999.6,180.5 L1011.5,172.0 L1023.3,186.6 L1035.2,160.5 L1047.1,142.3 L1058.9,158.9 L1070.8,177.6 L1082.7,162.4 L1094.5,182.2 L1106.4,179.3 L1118.3,161.7 L1130.1,158.4 L1142.0,169.9 L1142.0,434.0 L86.0,434.0 Z" fill="#0f5949" opacity="0.28"/>
  <path d="M86.0,328.4 L97.9,331.2 L109.7,344.7 L121.6,332.9 L133.5,332.9 L145.3,333.0 L157.2,348.4 L169.1,353.7 L180.9,343.8 L192.8,339.5 L204.7,351.9 L216.5,354.7 L228.4,370.9 L240.2,362.1 L252.1,368.1 L264.0,362.4 L275.8,383.2 L287.7,399.8 L299.6,406.2 L311.4,378.2 L323.3,367.6 L335.2,366.6 L347.0,361.4 L358.9,361.3 L370.8,335.3 L382.6,329.3 L394.5,328.0 L406.4,318.6 L418.2,302.0 L430.1,289.0 L442.0,284.4 L453.8,272.0 L465.7,275.0 L477.6,278.7 L489.4,262.7 L501.3,268.2 L513.1,249.7 L525.0,249.2 L536.9,259.1 L548.7,253.1 L560.6,244.0 L572.5,234.5 L584.3,236.4 L596.2,223.5 L608.1,202.5 L619.9,203.7 L631.8,179.6 L643.7,176.5 L655.5,185.5 L667.4,174.4 L679.3,166.9 L691.1,183.0 L703.0,187.5 L714.9,194.0 L726.7,176.7 L738.6,174.7 L750.4,170.2 L762.3,151.4 L774.2,152.6 L786.0,143.5 L797.9,139.5 L809.8,132.9 L821.6,127.8 L833.5,130.7 L845.4,136.1 L857.2,188.7 L869.1,172.4 L881.0,184.6 L892.8,205.6 L904.7,170.9 L916.6,164.6 L928.4,131.0 L940.3,152.0 L952.2,162.9 L964.0,136.0 L975.9,140.0 L987.8,176.0 L999.6,180.5 L1011.5,172.0 L1023.3,186.6 L1035.2,160.5 L1047.1,142.3 L1058.9,158.9 L1070.8,177.6 L1082.7,162.4 L1094.5,182.2 L1106.4,179.3 L1118.3,161.7 L1130.1,158.4 L1142.0,169.9" fill="none" stroke="#62d9ee" stroke-width="4" stroke-linecap="round" stroke-linejoin="round"/>
  <g>
    <line x1="1142.0" x2="1142.0" y1="100" y2="434" stroke="#18e59c" stroke-width="2" stroke-dasharray="7 7" opacity="0.8"/>
    <circle cx="1142.0" cy="169.9" r="8" fill="#071f1c" stroke="#18e59c" stroke-width="4"/>
    <text x="1030.0" y="151.9" text-anchor="middle" class="marker" fill="#18e59c">ENTRY | Jul 13 | $717.77</text>
  </g>
  
  <text x="86.0" y="472" text-anchor="middle" class="axis">Mar 4</text><text x="347.0" y="472" text-anchor="middle" class="axis">Apr 6</text><text x="619.9" y="472" text-anchor="middle" class="axis">May 7</text><text x="881.0" y="472" text-anchor="middle" class="axis">Jun 9</text><text x="1142.0" y="472" text-anchor="middle" class="axis">Jul 13</text>
  </svg>