<svg xmlns="http://www.w3.org/2000/svg" width="1200" height="500" viewBox="0 0 1200 500" role="img" aria-label="QQQ underlying price from entry">
  <rect width="1200" height="500" fill="#071f1c"/>
  <style>.head{fill:#f4fff9;font:800 27px Georgia,serif}.sub{fill:#9fc4bb;font:14px Arial,sans-serif}.axis{fill:#8eaaa3;font:12px Arial,sans-serif}.marker{font:800 12px Arial,sans-serif}</style>
  <text x="86" y="40" class="head">QQQ Underlying Price</text>
  <text x="86" y="66" class="sub">90 sessions | Entry marked; position remains open | Published option idea rank 4</text>
  <line x1="86" x2="1142" y1="100.0" y2="100.0" stroke="#1b4a42" stroke-width="1"/><text x="72" y="105.0" text-anchor="end" class="axis">$764.95</text><line x1="86" x2="1142" y1="183.5" y2="183.5" stroke="#1b4a42" stroke-width="1"/><text x="72" y="188.5" text-anchor="end" class="axis">$708.58</text><line x1="86" x2="1142" y1="267.0" y2="267.0" stroke="#1b4a42" stroke-width="1"/><text x="72" y="272.0" text-anchor="end" class="axis">$652.22</text><line x1="86" x2="1142" y1="350.5" y2="350.5" stroke="#1b4a42" stroke-width="1"/><text x="72" y="355.5" text-anchor="end" class="axis">$595.86</text><line x1="86" x2="1142" y1="434.0" y2="434.0" stroke="#1b4a42" stroke-width="1"/><text x="72" y="439.0" text-anchor="end" class="axis">$539.49</text>
  <path d="M86.0,344.7 L97.9,332.9 L109.7,332.9 L121.6,333.0 L133.5,348.4 L145.3,353.7 L157.2,343.8 L169.1,339.5 L180.9,351.9 L192.8,354.7 L204.7,370.9 L216.5,362.1 L228.4,368.1 L240.2,362.4 L252.1,383.2 L264.0,399.8 L275.8,406.2 L287.7,378.2 L299.6,367.6 L311.4,366.6 L323.3,361.4 L335.2,361.3 L347.0,335.3 L358.9,329.3 L370.8,328.0 L382.6,318.6 L394.5,302.0 L406.4,289.0 L418.2,284.4 L430.1,272.0 L442.0,275.0 L453.8,278.7 L465.7,262.7 L477.6,268.2 L489.4,249.7 L501.3,249.2 L513.1,259.1 L525.0,253.1 L536.9,244.0 L548.7,234.5 L560.6,236.4 L572.5,223.5 L584.3,202.5 L596.2,203.7 L608.1,179.6 L619.9,176.5 L631.8,185.5 L643.7,174.4 L655.5,166.9 L667.4,183.0 L679.3,187.5 L691.1,194.0 L703.0,176.7 L714.9,174.7 L726.7,170.2 L738.6,151.4 L750.4,152.6 L762.3,143.5 L774.2,139.5 L786.0,132.9 L797.9,127.8 L809.8,130.7 L821.6,136.1 L833.5,188.7 L845.4,172.4 L857.2,184.6 L869.1,205.6 L881.0,170.9 L892.8,164.6 L904.7,131.0 L916.6,152.0 L928.4,162.9 L940.3,136.0 L952.2,140.0 L964.0,176.0 L975.9,180.5 L987.8,172.0 L999.6,186.6 L1011.5,160.5 L1023.3,142.3 L1035.2,158.9 L1047.1,177.6 L1058.9,162.4 L1070.8,182.2 L1082.7,179.3 L1094.5,161.7 L1106.4,158.4 L1118.3,178.8 L1130.1,167.0 L1142.0,169.9 L1142.0,434.0 L86.0,434.0 Z" fill="#0f5949" opacity="0.28"/>
  <path d="M86.0,344.7 L97.9,332.9 L109.7,332.9 L121.6,333.0 L133.5,348.4 L145.3,353.7 L157.2,343.8 L169.1,339.5 L180.9,351.9 L192.8,354.7 L204.7,370.9 L216.5,362.1 L228.4,368.1 L240.2,362.4 L252.1,383.2 L264.0,399.8 L275.8,406.2 L287.7,378.2 L299.6,367.6 L311.4,366.6 L323.3,361.4 L335.2,361.3 L347.0,335.3 L358.9,329.3 L370.8,328.0 L382.6,318.6 L394.5,302.0 L406.4,289.0 L418.2,284.4 L430.1,272.0 L442.0,275.0 L453.8,278.7 L465.7,262.7 L477.6,268.2 L489.4,249.7 L501.3,249.2 L513.1,259.1 L525.0,253.1 L536.9,244.0 L548.7,234.5 L560.6,236.4 L572.5,223.5 L584.3,202.5 L596.2,203.7 L608.1,179.6 L619.9,176.5 L631.8,185.5 L643.7,174.4 L655.5,166.9 L667.4,183.0 L679.3,187.5 L691.1,194.0 L703.0,176.7 L714.9,174.7 L726.7,170.2 L738.6,151.4 L750.4,152.6 L762.3,143.5 L774.2,139.5 L786.0,132.9 L797.9,127.8 L809.8,130.7 L821.6,136.1 L833.5,188.7 L845.4,172.4 L857.2,184.6 L869.1,205.6 L881.0,170.9 L892.8,164.6 L904.7,131.0 L916.6,152.0 L928.4,162.9 L940.3,136.0 L952.2,140.0 L964.0,176.0 L975.9,180.5 L987.8,172.0 L999.6,186.6 L1011.5,160.5 L1023.3,142.3 L1035.2,158.9 L1047.1,177.6 L1058.9,162.4 L1070.8,182.2 L1082.7,179.3 L1094.5,161.7 L1106.4,158.4 L1118.3,178.8 L1130.1,167.0 L1142.0,169.9" fill="none" stroke="#62d9ee" stroke-width="4" stroke-linecap="round" stroke-linejoin="round"/>
  <g>
    <line x1="1118.3" x2="1118.3" y1="100" y2="434" stroke="#18e59c" stroke-width="2" stroke-dasharray="7 7" opacity="0.8"/>
    <circle cx="1118.3" cy="169.9" r="8" fill="#071f1c" stroke="#18e59c" stroke-width="4"/>
    <text x="1030.0" y="151.9" text-anchor="middle" class="marker" fill="#18e59c">ENTRY | Jul 13 | $717.77</text>
  </g>
  
  <text x="86.0" y="472" text-anchor="middle" class="axis">Mar 6</text><text x="347.0" y="472" text-anchor="middle" class="axis">Apr 8</text><text x="619.9" y="472" text-anchor="middle" class="axis">May 11</text><text x="881.0" y="472" text-anchor="middle" class="axis">Jun 11</text><text x="1142.0" y="472" text-anchor="middle" class="axis">Jul 15</text>
  </svg>