<svg xmlns="http://www.w3.org/2000/svg" width="1200" height="500" viewBox="0 0 1200 500" role="img" aria-label="QQQ underlying price from entry">
  <rect width="1200" height="500" fill="#071f1c"/>
  <style>.head{fill:#f4fff9;font:800 27px Georgia,serif}.sub{fill:#9fc4bb;font:14px Arial,sans-serif}.axis{fill:#8eaaa3;font:12px Arial,sans-serif}.marker{font:800 12px Arial,sans-serif}</style>
  <text x="86" y="40" class="head">QQQ Underlying Price</text>
  <text x="86" y="66" class="sub">90 sessions | Entry marked; position remains open | Published option idea rank 4</text>
  <line x1="86" x2="1142" y1="100.0" y2="100.0" stroke="#1b4a42" stroke-width="1"/><text x="72" y="105.0" text-anchor="end" class="axis">$764.95</text><line x1="86" x2="1142" y1="183.5" y2="183.5" stroke="#1b4a42" stroke-width="1"/><text x="72" y="188.5" text-anchor="end" class="axis">$708.58</text><line x1="86" x2="1142" y1="267.0" y2="267.0" stroke="#1b4a42" stroke-width="1"/><text x="72" y="272.0" text-anchor="end" class="axis">$652.22</text><line x1="86" x2="1142" y1="350.5" y2="350.5" stroke="#1b4a42" stroke-width="1"/><text x="72" y="355.5" text-anchor="end" class="axis">$595.86</text><line x1="86" x2="1142" y1="434.0" y2="434.0" stroke="#1b4a42" stroke-width="1"/><text x="72" y="439.0" text-anchor="end" class="axis">$539.49</text>
  <path d="M86.0,343.8 L97.9,339.5 L109.7,351.9 L121.6,354.7 L133.5,370.9 L145.3,362.1 L157.2,368.1 L169.1,362.4 L180.9,383.2 L192.8,399.8 L204.7,406.2 L216.5,378.2 L228.4,367.6 L240.2,366.6 L252.1,361.4 L264.0,361.3 L275.8,335.3 L287.7,329.3 L299.6,328.0 L311.4,318.6 L323.3,302.0 L335.2,289.0 L347.0,284.4 L358.9,272.0 L370.8,275.0 L382.6,278.7 L394.5,262.7 L406.4,268.2 L418.2,249.7 L430.1,249.2 L442.0,259.1 L453.8,253.1 L465.7,244.0 L477.6,234.5 L489.4,236.4 L501.3,223.5 L513.1,202.5 L525.0,203.7 L536.9,179.6 L548.7,176.5 L560.6,185.5 L572.5,174.4 L584.3,166.9 L596.2,183.0 L608.1,187.5 L619.9,194.0 L631.8,176.7 L643.7,174.7 L655.5,170.2 L667.4,151.4 L679.3,152.6 L691.1,143.5 L703.0,139.5 L714.9,132.9 L726.7,127.8 L738.6,130.7 L750.4,136.1 L762.3,188.7 L774.2,172.4 L786.0,184.6 L797.9,205.6 L809.8,170.9 L821.6,164.6 L833.5,131.0 L845.4,152.0 L857.2,162.9 L869.1,136.0 L881.0,140.0 L892.8,176.0 L904.7,180.5 L916.6,172.0 L928.4,186.6 L940.3,160.5 L952.2,142.3 L964.0,158.9 L975.9,177.6 L987.8,162.4 L999.6,182.2 L1011.5,179.3 L1023.3,161.7 L1035.2,158.4 L1047.1,178.8 L1058.9,167.0 L1070.8,169.9 L1082.7,187.4 L1094.5,203.1 L1106.4,202.1 L1118.3,182.9 L1130.1,188.3 L1142.0,208.1 L1142.0,434.0 L86.0,434.0 Z" fill="#0f5949" opacity="0.28"/>
  <path d="M86.0,343.8 L97.9,339.5 L109.7,351.9 L121.6,354.7 L133.5,370.9 L145.3,362.1 L157.2,368.1 L169.1,362.4 L180.9,383.2 L192.8,399.8 L204.7,406.2 L216.5,378.2 L228.4,367.6 L240.2,366.6 L252.1,361.4 L264.0,361.3 L275.8,335.3 L287.7,329.3 L299.6,328.0 L311.4,318.6 L323.3,302.0 L335.2,289.0 L347.0,284.4 L358.9,272.0 L370.8,275.0 L382.6,278.7 L394.5,262.7 L406.4,268.2 L418.2,249.7 L430.1,249.2 L442.0,259.1 L453.8,253.1 L465.7,244.0 L477.6,234.5 L489.4,236.4 L501.3,223.5 L513.1,202.5 L525.0,203.7 L536.9,179.6 L548.7,176.5 L560.6,185.5 L572.5,174.4 L584.3,166.9 L596.2,183.0 L608.1,187.5 L619.9,194.0 L631.8,176.7 L643.7,174.7 L655.5,170.2 L667.4,151.4 L679.3,152.6 L691.1,143.5 L703.0,139.5 L714.9,132.9 L726.7,127.8 L738.6,130.7 L750.4,136.1 L762.3,188.7 L774.2,172.4 L786.0,184.6 L797.9,205.6 L809.8,170.9 L821.6,164.6 L833.5,131.0 L845.4,152.0 L857.2,162.9 L869.1,136.0 L881.0,140.0 L892.8,176.0 L904.7,180.5 L916.6,172.0 L928.4,186.6 L940.3,160.5 L952.2,142.3 L964.0,158.9 L975.9,177.6 L987.8,162.4 L999.6,182.2 L1011.5,179.3 L1023.3,161.7 L1035.2,158.4 L1047.1,178.8 L1058.9,167.0 L1070.8,169.9 L1082.7,187.4 L1094.5,203.1 L1106.4,202.1 L1118.3,182.9 L1130.1,188.3 L1142.0,208.1" fill="none" stroke="#62d9ee" stroke-width="4" stroke-linecap="round" stroke-linejoin="round"/>
  <g>
    <line x1="1047.1" x2="1047.1" y1="100" y2="434" stroke="#18e59c" stroke-width="2" stroke-dasharray="7 7" opacity="0.8"/>
    <circle cx="1047.1" cy="169.9" r="8" fill="#071f1c" stroke="#18e59c" stroke-width="4"/>
    <text x="1030.0" y="151.9" text-anchor="middle" class="marker" fill="#18e59c">ENTRY | Jul 13 | $717.77</text>
  </g>
  
  <text x="86.0" y="472" text-anchor="middle" class="axis">Mar 16</text><text x="347.0" y="472" text-anchor="middle" class="axis">Apr 16</text><text x="619.9" y="472" text-anchor="middle" class="axis">May 19</text><text x="881.0" y="472" text-anchor="middle" class="axis">Jun 22</text><text x="1142.0" y="472" text-anchor="middle" class="axis">Jul 23</text>
  </svg>