<svg xmlns="http://www.w3.org/2000/svg" width="1200" height="500" viewBox="0 0 1200 500" role="img" aria-label="IWM underlying price from entry">
  <rect width="1200" height="500" fill="#071f1c"/>
  <style>.head{fill:#f4fff9;font:800 27px Georgia,serif}.sub{fill:#9fc4bb;font:14px Arial,sans-serif}.axis{fill:#8eaaa3;font:12px Arial,sans-serif}.marker{font:800 12px Arial,sans-serif}</style>
  <text x="86" y="40" class="head">IWM Underlying Price</text>
  <text x="86" y="66" class="sub">90 sessions | Entry marked; position remains open | Published option idea rank 5</text>
  <line x1="86" x2="1142" y1="100.0" y2="100.0" stroke="#1b4a42" stroke-width="1"/><text x="72" y="105.0" text-anchor="end" class="axis">$306.53</text><line x1="86" x2="1142" y1="183.5" y2="183.5" stroke="#1b4a42" stroke-width="1"/><text x="72" y="188.5" text-anchor="end" class="axis">$288.28</text><line x1="86" x2="1142" y1="267.0" y2="267.0" stroke="#1b4a42" stroke-width="1"/><text x="72" y="272.0" text-anchor="end" class="axis">$270.03</text><line x1="86" x2="1142" y1="350.5" y2="350.5" stroke="#1b4a42" stroke-width="1"/><text x="72" y="355.5" text-anchor="end" class="axis">$251.78</text><line x1="86" x2="1142" y1="434.0" y2="434.0" stroke="#1b4a42" stroke-width="1"/><text x="72" y="439.0" text-anchor="end" class="axis">$233.53</text>
  <path d="M86.0,354.6 L97.9,342.1 L109.7,343.3 L121.6,345.6 L133.5,370.5 L145.3,374.2 L157.2,363.6 L169.1,358.4 L180.9,376.8 L192.8,369.5 L204.7,394.2 L216.5,370.3 L228.4,364.2 L240.2,350.3 L252.1,370.3 L264.0,390.2 L275.8,406.2 L287.7,367.8 L299.6,360.6 L311.4,352.7 L323.3,347.8 L335.2,345.3 L347.0,310.7 L358.9,303.9 L370.8,306.9 L382.6,289.7 L394.5,273.0 L406.4,269.9 L418.2,267.4 L430.1,240.7 L442.0,233.5 L453.8,246.5 L465.7,237.5 L477.6,241.9 L489.4,236.7 L501.3,234.5 L513.1,249.2 L525.0,257.6 L536.9,230.7 L548.7,224.7 L560.6,231.1 L572.5,209.7 L584.3,190.3 L596.2,211.0 L608.1,202.3 L619.9,197.0 L631.8,209.6 L643.7,209.2 L655.5,201.0 L667.4,232.4 L679.3,239.8 L691.1,253.4 L703.0,222.0 L714.9,210.0 L726.7,198.0 L738.6,173.3 L750.4,173.9 L762.3,166.4 L774.2,173.7 L786.0,180.3 L797.9,168.0 L809.8,186.3 L821.6,166.4 L833.5,213.8 L845.4,202.6 L857.2,198.4 L869.1,212.0 L881.0,173.8 L892.8,162.1 L904.7,154.4 L916.6,166.1 L928.4,176.2 L940.3,150.1 L952.2,138.2 L964.0,151.3 L975.9,145.0 L987.8,134.9 L999.6,130.7 L1011.5,134.6 L1023.3,127.8 L1035.2,133.0 L1047.1,141.0 L1058.9,134.9 L1070.8,147.3 L1082.7,159.7 L1094.5,142.5 L1106.4,148.2 L1118.3,159.7 L1130.1,155.0 L1142.0,149.2 L1142.0,434.0 L86.0,434.0 Z" fill="#0f5949" opacity="0.28"/>
  <path d="M86.0,354.6 L97.9,342.1 L109.7,343.3 L121.6,345.6 L133.5,370.5 L145.3,374.2 L157.2,363.6 L169.1,358.4 L180.9,376.8 L192.8,369.5 L204.7,394.2 L216.5,370.3 L228.4,364.2 L240.2,350.3 L252.1,370.3 L264.0,390.2 L275.8,406.2 L287.7,367.8 L299.6,360.6 L311.4,352.7 L323.3,347.8 L335.2,345.3 L347.0,310.7 L358.9,303.9 L370.8,306.9 L382.6,289.7 L394.5,273.0 L406.4,269.9 L418.2,267.4 L430.1,240.7 L442.0,233.5 L453.8,246.5 L465.7,237.5 L477.6,241.9 L489.4,236.7 L501.3,234.5 L513.1,249.2 L525.0,257.6 L536.9,230.7 L548.7,224.7 L560.6,231.1 L572.5,209.7 L584.3,190.3 L596.2,211.0 L608.1,202.3 L619.9,197.0 L631.8,209.6 L643.7,209.2 L655.5,201.0 L667.4,232.4 L679.3,239.8 L691.1,253.4 L703.0,222.0 L714.9,210.0 L726.7,198.0 L738.6,173.3 L750.4,173.9 L762.3,166.4 L774.2,173.7 L786.0,180.3 L797.9,168.0 L809.8,186.3 L821.6,166.4 L833.5,213.8 L845.4,202.6 L857.2,198.4 L869.1,212.0 L881.0,173.8 L892.8,162.1 L904.7,154.4 L916.6,166.1 L928.4,176.2 L940.3,150.1 L952.2,138.2 L964.0,151.3 L975.9,145.0 L987.8,134.9 L999.6,130.7 L1011.5,134.6 L1023.3,127.8 L1035.2,133.0 L1047.1,141.0 L1058.9,134.9 L1070.8,147.3 L1082.7,159.7 L1094.5,142.5 L1106.4,148.2 L1118.3,159.7 L1130.1,155.0 L1142.0,149.2" fill="none" stroke="#62d9ee" stroke-width="4" stroke-linecap="round" stroke-linejoin="round"/>
  <g>
    <line x1="1118.3" x2="1118.3" y1="100" y2="434" stroke="#18e59c" stroke-width="2" stroke-dasharray="7 7" opacity="0.8"/>
    <circle cx="1118.3" cy="155.0" r="8" fill="#071f1c" stroke="#18e59c" stroke-width="4"/>
    <text x="1030.0" y="137.0" text-anchor="middle" class="marker" fill="#18e59c">ENTRY | Jul 13 | $294.51</text>
  </g>
  
  <text x="86.0" y="472" text-anchor="middle" class="axis">Mar 6</text><text x="347.0" y="472" text-anchor="middle" class="axis">Apr 8</text><text x="619.9" y="472" text-anchor="middle" class="axis">May 11</text><text x="881.0" y="472" text-anchor="middle" class="axis">Jun 11</text><text x="1142.0" y="472" text-anchor="middle" class="axis">Jul 15</text>
  </svg>