<svg xmlns="http://www.w3.org/2000/svg" width="1200" height="500" viewBox="0 0 1200 500" role="img" aria-label="IWM underlying price from entry">
  <rect width="1200" height="500" fill="#071f1c"/>
  <style>.head{fill:#f4fff9;font:800 27px Georgia,serif}.sub{fill:#9fc4bb;font:14px Arial,sans-serif}.axis{fill:#8eaaa3;font:12px Arial,sans-serif}.marker{font:800 12px Arial,sans-serif}</style>
  <text x="86" y="40" class="head">IWM Underlying Price</text>
  <text x="86" y="66" class="sub">90 sessions | Entry marked; position remains open | Published option idea rank 5</text>
  <line x1="86" x2="1142" y1="100.0" y2="100.0" stroke="#1b4a42" stroke-width="1"/><text x="72" y="105.0" text-anchor="end" class="axis">$306.53</text><line x1="86" x2="1142" y1="183.5" y2="183.5" stroke="#1b4a42" stroke-width="1"/><text x="72" y="188.5" text-anchor="end" class="axis">$288.28</text><line x1="86" x2="1142" y1="267.0" y2="267.0" stroke="#1b4a42" stroke-width="1"/><text x="72" y="272.0" text-anchor="end" class="axis">$270.03</text><line x1="86" x2="1142" y1="350.5" y2="350.5" stroke="#1b4a42" stroke-width="1"/><text x="72" y="355.5" text-anchor="end" class="axis">$251.78</text><line x1="86" x2="1142" y1="434.0" y2="434.0" stroke="#1b4a42" stroke-width="1"/><text x="72" y="439.0" text-anchor="end" class="axis">$233.53</text>
  <path d="M86.0,327.7 L97.9,354.6 L109.7,342.1 L121.6,343.3 L133.5,345.6 L145.3,370.5 L157.2,374.2 L169.1,363.6 L180.9,358.4 L192.8,376.8 L204.7,369.5 L216.5,394.2 L228.4,370.3 L240.2,364.2 L252.1,350.3 L264.0,370.3 L275.8,390.2 L287.7,406.2 L299.6,367.8 L311.4,360.6 L323.3,352.7 L335.2,347.8 L347.0,345.3 L358.9,310.7 L370.8,303.9 L382.6,306.9 L394.5,289.7 L406.4,273.0 L418.2,269.9 L430.1,267.4 L442.0,240.7 L453.8,233.5 L465.7,246.5 L477.6,237.5 L489.4,241.9 L501.3,236.7 L513.1,234.5 L525.0,249.2 L536.9,257.6 L548.7,230.7 L560.6,224.7 L572.5,231.1 L584.3,209.7 L596.2,190.3 L608.1,211.0 L619.9,202.3 L631.8,197.0 L643.7,209.6 L655.5,209.2 L667.4,201.0 L679.3,232.4 L691.1,239.8 L703.0,253.4 L714.9,222.0 L726.7,210.0 L738.6,198.0 L750.4,173.3 L762.3,173.9 L774.2,166.4 L786.0,173.7 L797.9,180.3 L809.8,168.0 L821.6,186.3 L833.5,166.4 L845.4,213.8 L857.2,202.6 L869.1,198.4 L881.0,212.0 L892.8,173.8 L904.7,162.1 L916.6,154.4 L928.4,166.1 L940.3,176.2 L952.2,150.1 L964.0,138.2 L975.9,151.3 L987.8,145.0 L999.6,134.9 L1011.5,130.7 L1023.3,134.6 L1035.2,127.8 L1047.1,133.0 L1058.9,141.0 L1070.8,134.9 L1082.7,147.3 L1094.5,159.7 L1106.4,142.5 L1118.3,148.2 L1130.1,159.7 L1142.0,155.0 L1142.0,434.0 L86.0,434.0 Z" fill="#0f5949" opacity="0.28"/>
  <path d="M86.0,327.7 L97.9,354.6 L109.7,342.1 L121.6,343.3 L133.5,345.6 L145.3,370.5 L157.2,374.2 L169.1,363.6 L180.9,358.4 L192.8,376.8 L204.7,369.5 L216.5,394.2 L228.4,370.3 L240.2,364.2 L252.1,350.3 L264.0,370.3 L275.8,390.2 L287.7,406.2 L299.6,367.8 L311.4,360.6 L323.3,352.7 L335.2,347.8 L347.0,345.3 L358.9,310.7 L370.8,303.9 L382.6,306.9 L394.5,289.7 L406.4,273.0 L418.2,269.9 L430.1,267.4 L442.0,240.7 L453.8,233.5 L465.7,246.5 L477.6,237.5 L489.4,241.9 L501.3,236.7 L513.1,234.5 L525.0,249.2 L536.9,257.6 L548.7,230.7 L560.6,224.7 L572.5,231.1 L584.3,209.7 L596.2,190.3 L608.1,211.0 L619.9,202.3 L631.8,197.0 L643.7,209.6 L655.5,209.2 L667.4,201.0 L679.3,232.4 L691.1,239.8 L703.0,253.4 L714.9,222.0 L726.7,210.0 L738.6,198.0 L750.4,173.3 L762.3,173.9 L774.2,166.4 L786.0,173.7 L797.9,180.3 L809.8,168.0 L821.6,186.3 L833.5,166.4 L845.4,213.8 L857.2,202.6 L869.1,198.4 L881.0,212.0 L892.8,173.8 L904.7,162.1 L916.6,154.4 L928.4,166.1 L940.3,176.2 L952.2,150.1 L964.0,138.2 L975.9,151.3 L987.8,145.0 L999.6,134.9 L1011.5,130.7 L1023.3,134.6 L1035.2,127.8 L1047.1,133.0 L1058.9,141.0 L1070.8,134.9 L1082.7,147.3 L1094.5,159.7 L1106.4,142.5 L1118.3,148.2 L1130.1,159.7 L1142.0,155.0" fill="none" stroke="#62d9ee" stroke-width="4" stroke-linecap="round" stroke-linejoin="round"/>
  <g>
    <line x1="1130.1" x2="1130.1" y1="100" y2="434" stroke="#18e59c" stroke-width="2" stroke-dasharray="7 7" opacity="0.8"/>
    <circle cx="1130.1" cy="155.0" r="8" fill="#071f1c" stroke="#18e59c" stroke-width="4"/>
    <text x="1030.0" y="137.0" text-anchor="middle" class="marker" fill="#18e59c">ENTRY | Jul 13 | $294.51</text>
  </g>
  
  <text x="86.0" y="472" text-anchor="middle" class="axis">Mar 5</text><text x="347.0" y="472" text-anchor="middle" class="axis">Apr 7</text><text x="619.9" y="472" text-anchor="middle" class="axis">May 8</text><text x="881.0" y="472" text-anchor="middle" class="axis">Jun 10</text><text x="1142.0" y="472" text-anchor="middle" class="axis">Jul 14</text>
  </svg>