<svg xmlns="http://www.w3.org/2000/svg" width="1200" height="500" viewBox="0 0 1200 500" role="img" aria-label="IWM underlying price from entry">
  <rect width="1200" height="500" fill="#071f1c"/>
  <style>.head{fill:#f4fff9;font:800 27px Georgia,serif}.sub{fill:#9fc4bb;font:14px Arial,sans-serif}.axis{fill:#8eaaa3;font:12px Arial,sans-serif}.marker{font:800 12px Arial,sans-serif}</style>
  <text x="86" y="40" class="head">IWM Underlying Price</text>
  <text x="86" y="66" class="sub">90 sessions | Entry marked; position remains open | Published option idea rank 5</text>
  <line x1="86" x2="1142" y1="100.0" y2="100.0" stroke="#1b4a42" stroke-width="1"/><text x="72" y="105.0" text-anchor="end" class="axis">$306.53</text><line x1="86" x2="1142" y1="183.5" y2="183.5" stroke="#1b4a42" stroke-width="1"/><text x="72" y="188.5" text-anchor="end" class="axis">$288.28</text><line x1="86" x2="1142" y1="267.0" y2="267.0" stroke="#1b4a42" stroke-width="1"/><text x="72" y="272.0" text-anchor="end" class="axis">$270.03</text><line x1="86" x2="1142" y1="350.5" y2="350.5" stroke="#1b4a42" stroke-width="1"/><text x="72" y="355.5" text-anchor="end" class="axis">$251.78</text><line x1="86" x2="1142" y1="434.0" y2="434.0" stroke="#1b4a42" stroke-width="1"/><text x="72" y="439.0" text-anchor="end" class="axis">$233.53</text>
  <path d="M86.0,370.5 L97.9,374.2 L109.7,363.6 L121.6,358.4 L133.5,376.8 L145.3,369.5 L157.2,394.2 L169.1,370.3 L180.9,364.2 L192.8,350.3 L204.7,370.3 L216.5,390.2 L228.4,406.2 L240.2,367.8 L252.1,360.6 L264.0,352.7 L275.8,347.8 L287.7,345.3 L299.6,310.7 L311.4,303.9 L323.3,306.9 L335.2,289.7 L347.0,273.0 L358.9,269.9 L370.8,267.4 L382.6,240.7 L394.5,233.5 L406.4,246.5 L418.2,237.5 L430.1,241.9 L442.0,236.7 L453.8,234.5 L465.7,249.2 L477.6,257.6 L489.4,230.7 L501.3,224.7 L513.1,231.1 L525.0,209.7 L536.9,190.3 L548.7,211.0 L560.6,202.3 L572.5,197.0 L584.3,209.6 L596.2,209.2 L608.1,201.0 L619.9,232.4 L631.8,239.8 L643.7,253.4 L655.5,222.0 L667.4,210.0 L679.3,198.0 L691.1,173.3 L703.0,173.9 L714.9,166.4 L726.7,173.7 L738.6,180.3 L750.4,168.0 L762.3,186.3 L774.2,166.4 L786.0,213.8 L797.9,202.6 L809.8,198.4 L821.6,212.0 L833.5,173.8 L845.4,162.1 L857.2,154.4 L869.1,166.1 L881.0,176.2 L892.8,150.1 L904.7,138.2 L916.6,151.3 L928.4,145.0 L940.3,134.9 L952.2,130.7 L964.0,134.6 L975.9,127.8 L987.8,133.0 L999.6,141.0 L1011.5,134.9 L1023.3,147.3 L1035.2,159.7 L1047.1,142.5 L1058.9,148.2 L1070.8,159.7 L1082.7,155.0 L1094.5,149.2 L1106.4,150.1 L1118.3,157.2 L1130.1,165.1 L1142.0,145.7 L1142.0,434.0 L86.0,434.0 Z" fill="#0f5949" opacity="0.28"/>
  <path d="M86.0,370.5 L97.9,374.2 L109.7,363.6 L121.6,358.4 L133.5,376.8 L145.3,369.5 L157.2,394.2 L169.1,370.3 L180.9,364.2 L192.8,350.3 L204.7,370.3 L216.5,390.2 L228.4,406.2 L240.2,367.8 L252.1,360.6 L264.0,352.7 L275.8,347.8 L287.7,345.3 L299.6,310.7 L311.4,303.9 L323.3,306.9 L335.2,289.7 L347.0,273.0 L358.9,269.9 L370.8,267.4 L382.6,240.7 L394.5,233.5 L406.4,246.5 L418.2,237.5 L430.1,241.9 L442.0,236.7 L453.8,234.5 L465.7,249.2 L477.6,257.6 L489.4,230.7 L501.3,224.7 L513.1,231.1 L525.0,209.7 L536.9,190.3 L548.7,211.0 L560.6,202.3 L572.5,197.0 L584.3,209.6 L596.2,209.2 L608.1,201.0 L619.9,232.4 L631.8,239.8 L643.7,253.4 L655.5,222.0 L667.4,210.0 L679.3,198.0 L691.1,173.3 L703.0,173.9 L714.9,166.4 L726.7,173.7 L738.6,180.3 L750.4,168.0 L762.3,186.3 L774.2,166.4 L786.0,213.8 L797.9,202.6 L809.8,198.4 L821.6,212.0 L833.5,173.8 L845.4,162.1 L857.2,154.4 L869.1,166.1 L881.0,176.2 L892.8,150.1 L904.7,138.2 L916.6,151.3 L928.4,145.0 L940.3,134.9 L952.2,130.7 L964.0,134.6 L975.9,127.8 L987.8,133.0 L999.6,141.0 L1011.5,134.9 L1023.3,147.3 L1035.2,159.7 L1047.1,142.5 L1058.9,148.2 L1070.8,159.7 L1082.7,155.0 L1094.5,149.2 L1106.4,150.1 L1118.3,157.2 L1130.1,165.1 L1142.0,145.7" fill="none" stroke="#62d9ee" stroke-width="4" stroke-linecap="round" stroke-linejoin="round"/>
  <g>
    <line x1="1070.8" x2="1070.8" y1="100" y2="434" stroke="#18e59c" stroke-width="2" stroke-dasharray="7 7" opacity="0.8"/>
    <circle cx="1070.8" cy="155.0" r="8" fill="#071f1c" stroke="#18e59c" stroke-width="4"/>
    <text x="1030.0" y="137.0" text-anchor="middle" class="marker" fill="#18e59c">ENTRY | Jul 13 | $294.51</text>
  </g>
  
  <text x="86.0" y="472" text-anchor="middle" class="axis">Mar 12</text><text x="347.0" y="472" text-anchor="middle" class="axis">Apr 14</text><text x="619.9" y="472" text-anchor="middle" class="axis">May 15</text><text x="881.0" y="472" text-anchor="middle" class="axis">Jun 17</text><text x="1142.0" y="472" text-anchor="middle" class="axis">Jul 21</text>
  </svg>