<svg xmlns="http://www.w3.org/2000/svg" width="1200" height="500" viewBox="0 0 1200 500" role="img" aria-label="IWM underlying price from entry">
  <rect width="1200" height="500" fill="#071f1c"/>
  <style>.head{fill:#f4fff9;font:800 27px Georgia,serif}.sub{fill:#9fc4bb;font:14px Arial,sans-serif}.axis{fill:#8eaaa3;font:12px Arial,sans-serif}.marker{font:800 12px Arial,sans-serif}</style>
  <text x="86" y="40" class="head">IWM Underlying Price</text>
  <text x="86" y="66" class="sub">90 sessions | Entry marked; position remains open | Published option idea rank 5</text>
  <line x1="86" x2="1142" y1="100.0" y2="100.0" stroke="#1b4a42" stroke-width="1"/><text x="72" y="105.0" text-anchor="end" class="axis">$306.53</text><line x1="86" x2="1142" y1="183.5" y2="183.5" stroke="#1b4a42" stroke-width="1"/><text x="72" y="188.5" text-anchor="end" class="axis">$288.28</text><line x1="86" x2="1142" y1="267.0" y2="267.0" stroke="#1b4a42" stroke-width="1"/><text x="72" y="272.0" text-anchor="end" class="axis">$270.03</text><line x1="86" x2="1142" y1="350.5" y2="350.5" stroke="#1b4a42" stroke-width="1"/><text x="72" y="355.5" text-anchor="end" class="axis">$251.78</text><line x1="86" x2="1142" y1="434.0" y2="434.0" stroke="#1b4a42" stroke-width="1"/><text x="72" y="439.0" text-anchor="end" class="axis">$233.53</text>
  <path d="M86.0,363.6 L97.9,358.4 L109.7,376.8 L121.6,369.5 L133.5,394.2 L145.3,370.3 L157.2,364.2 L169.1,350.3 L180.9,370.3 L192.8,390.2 L204.7,406.2 L216.5,367.8 L228.4,360.6 L240.2,352.7 L252.1,347.8 L264.0,345.3 L275.8,310.7 L287.7,303.9 L299.6,306.9 L311.4,289.7 L323.3,273.0 L335.2,269.9 L347.0,267.4 L358.9,240.7 L370.8,233.5 L382.6,246.5 L394.5,237.5 L406.4,241.9 L418.2,236.7 L430.1,234.5 L442.0,249.2 L453.8,257.6 L465.7,230.7 L477.6,224.7 L489.4,231.1 L501.3,209.7 L513.1,190.3 L525.0,211.0 L536.9,202.3 L548.7,197.0 L560.6,209.6 L572.5,209.2 L584.3,201.0 L596.2,232.4 L608.1,239.8 L619.9,253.4 L631.8,222.0 L643.7,210.0 L655.5,198.0 L667.4,173.3 L679.3,173.9 L691.1,166.4 L703.0,173.7 L714.9,180.3 L726.7,168.0 L738.6,186.3 L750.4,166.4 L762.3,213.8 L774.2,202.6 L786.0,198.4 L797.9,212.0 L809.8,173.8 L821.6,162.1 L833.5,154.4 L845.4,166.1 L857.2,176.2 L869.1,150.1 L881.0,138.2 L892.8,151.3 L904.7,145.0 L916.6,134.9 L928.4,130.7 L940.3,134.6 L952.2,127.8 L964.0,133.0 L975.9,141.0 L987.8,134.9 L999.6,147.3 L1011.5,159.7 L1023.3,142.5 L1035.2,148.2 L1047.1,159.7 L1058.9,155.0 L1070.8,149.2 L1082.7,150.1 L1094.5,157.2 L1106.4,165.1 L1118.3,145.7 L1130.1,158.3 L1142.0,166.1 L1142.0,434.0 L86.0,434.0 Z" fill="#0f5949" opacity="0.28"/>
  <path d="M86.0,363.6 L97.9,358.4 L109.7,376.8 L121.6,369.5 L133.5,394.2 L145.3,370.3 L157.2,364.2 L169.1,350.3 L180.9,370.3 L192.8,390.2 L204.7,406.2 L216.5,367.8 L228.4,360.6 L240.2,352.7 L252.1,347.8 L264.0,345.3 L275.8,310.7 L287.7,303.9 L299.6,306.9 L311.4,289.7 L323.3,273.0 L335.2,269.9 L347.0,267.4 L358.9,240.7 L370.8,233.5 L382.6,246.5 L394.5,237.5 L406.4,241.9 L418.2,236.7 L430.1,234.5 L442.0,249.2 L453.8,257.6 L465.7,230.7 L477.6,224.7 L489.4,231.1 L501.3,209.7 L513.1,190.3 L525.0,211.0 L536.9,202.3 L548.7,197.0 L560.6,209.6 L572.5,209.2 L584.3,201.0 L596.2,232.4 L608.1,239.8 L619.9,253.4 L631.8,222.0 L643.7,210.0 L655.5,198.0 L667.4,173.3 L679.3,173.9 L691.1,166.4 L703.0,173.7 L714.9,180.3 L726.7,168.0 L738.6,186.3 L750.4,166.4 L762.3,213.8 L774.2,202.6 L786.0,198.4 L797.9,212.0 L809.8,173.8 L821.6,162.1 L833.5,154.4 L845.4,166.1 L857.2,176.2 L869.1,150.1 L881.0,138.2 L892.8,151.3 L904.7,145.0 L916.6,134.9 L928.4,130.7 L940.3,134.6 L952.2,127.8 L964.0,133.0 L975.9,141.0 L987.8,134.9 L999.6,147.3 L1011.5,159.7 L1023.3,142.5 L1035.2,148.2 L1047.1,159.7 L1058.9,155.0 L1070.8,149.2 L1082.7,150.1 L1094.5,157.2 L1106.4,165.1 L1118.3,145.7 L1130.1,158.3 L1142.0,166.1" fill="none" stroke="#62d9ee" stroke-width="4" stroke-linecap="round" stroke-linejoin="round"/>
  <g>
    <line x1="1047.1" x2="1047.1" y1="100" y2="434" stroke="#18e59c" stroke-width="2" stroke-dasharray="7 7" opacity="0.8"/>
    <circle cx="1047.1" cy="155.0" r="8" fill="#071f1c" stroke="#18e59c" stroke-width="4"/>
    <text x="1030.0" y="137.0" text-anchor="middle" class="marker" fill="#18e59c">ENTRY | Jul 13 | $294.51</text>
  </g>
  
  <text x="86.0" y="472" text-anchor="middle" class="axis">Mar 16</text><text x="347.0" y="472" text-anchor="middle" class="axis">Apr 16</text><text x="619.9" y="472" text-anchor="middle" class="axis">May 19</text><text x="881.0" y="472" text-anchor="middle" class="axis">Jun 22</text><text x="1142.0" y="472" text-anchor="middle" class="axis">Jul 23</text>
  </svg>