<svg xmlns="http://www.w3.org/2000/svg" width="1200" height="500" viewBox="0 0 1200 500" role="img" aria-label="ON underlying price from entry">
  <rect width="1200" height="500" fill="#071f1c"/>
  <style>.head{fill:#f4fff9;font:800 27px Georgia,serif}.sub{fill:#9fc4bb;font:14px Arial,sans-serif}.axis{fill:#8eaaa3;font:12px Arial,sans-serif}.marker{font:800 12px Arial,sans-serif}</style>
  <text x="86" y="40" class="head">ON Underlying Price</text>
  <text x="86" y="66" class="sub">90 sessions | Entry marked; position remains open | Published option idea rank 5</text>
  <line x1="86" x2="1142" y1="100.0" y2="100.0" stroke="#1b4a42" stroke-width="1"/><text x="72" y="105.0" text-anchor="end" class="axis">$141.76</text><line x1="86" x2="1142" y1="183.5" y2="183.5" stroke="#1b4a42" stroke-width="1"/><text x="72" y="188.5" text-anchor="end" class="axis">$118.28</text><line x1="86" x2="1142" y1="267.0" y2="267.0" stroke="#1b4a42" stroke-width="1"/><text x="72" y="272.0" text-anchor="end" class="axis">$94.80</text><line x1="86" x2="1142" y1="350.5" y2="350.5" stroke="#1b4a42" stroke-width="1"/><text x="72" y="355.5" text-anchor="end" class="axis">$71.31</text><line x1="86" x2="1142" y1="434.0" y2="434.0" stroke="#1b4a42" stroke-width="1"/><text x="72" y="439.0" text-anchor="end" class="axis">$47.83</text>
  <path d="M86.0,381.7 L97.9,387.7 L109.7,401.9 L121.6,393.5 L133.5,392.2 L145.3,393.4 L157.2,398.9 L169.1,395.9 L180.9,391.2 L192.8,387.2 L204.7,389.1 L216.5,393.3 L228.4,393.4 L240.2,391.1 L252.1,382.4 L264.0,379.7 L275.8,387.6 L287.7,396.6 L299.6,406.2 L311.4,383.9 L323.3,382.9 L335.2,382.9 L347.0,378.3 L358.9,377.3 L370.8,360.9 L382.6,360.5 L394.5,360.0 L406.4,351.5 L418.2,347.9 L430.1,346.5 L442.0,319.9 L453.8,308.9 L465.7,299.8 L477.6,295.0 L489.4,287.6 L501.3,256.4 L513.1,254.2 L525.0,255.5 L536.9,272.3 L548.7,252.5 L560.6,245.6 L572.5,237.7 L584.3,241.2 L596.2,239.0 L608.1,228.0 L619.9,246.3 L631.8,237.1 L643.7,222.7 L655.5,233.9 L667.4,192.6 L679.3,183.2 L691.1,201.9 L703.0,215.0 L714.9,227.1 L726.7,212.2 L738.6,214.3 L750.4,190.9 L762.3,152.5 L774.2,160.0 L786.0,164.0 L797.9,175.2 L809.8,174.1 L821.6,146.6 L833.5,127.8 L845.4,135.3 L857.2,187.1 L869.1,174.2 L881.0,188.0 L892.8,212.3 L904.7,191.7 L916.6,188.8 L928.4,156.4 L940.3,183.6 L952.2,202.5 L964.0,171.6 L975.9,136.3 L987.8,187.8 L999.6,192.5 L1011.5,181.8 L1023.3,281.7 L1035.2,289.1 L1047.1,267.9 L1058.9,267.6 L1070.8,279.7 L1082.7,267.4 L1094.5,280.1 L1106.4,270.6 L1118.3,256.1 L1130.1,262.9 L1142.0,277.9 L1142.0,434.0 L86.0,434.0 Z" fill="#0f5949" opacity="0.28"/>
  <path d="M86.0,381.7 L97.9,387.7 L109.7,401.9 L121.6,393.5 L133.5,392.2 L145.3,393.4 L157.2,398.9 L169.1,395.9 L180.9,391.2 L192.8,387.2 L204.7,389.1 L216.5,393.3 L228.4,393.4 L240.2,391.1 L252.1,382.4 L264.0,379.7 L275.8,387.6 L287.7,396.6 L299.6,406.2 L311.4,383.9 L323.3,382.9 L335.2,382.9 L347.0,378.3 L358.9,377.3 L370.8,360.9 L382.6,360.5 L394.5,360.0 L406.4,351.5 L418.2,347.9 L430.1,346.5 L442.0,319.9 L453.8,308.9 L465.7,299.8 L477.6,295.0 L489.4,287.6 L501.3,256.4 L513.1,254.2 L525.0,255.5 L536.9,272.3 L548.7,252.5 L560.6,245.6 L572.5,237.7 L584.3,241.2 L596.2,239.0 L608.1,228.0 L619.9,246.3 L631.8,237.1 L643.7,222.7 L655.5,233.9 L667.4,192.6 L679.3,183.2 L691.1,201.9 L703.0,215.0 L714.9,227.1 L726.7,212.2 L738.6,214.3 L750.4,190.9 L762.3,152.5 L774.2,160.0 L786.0,164.0 L797.9,175.2 L809.8,174.1 L821.6,146.6 L833.5,127.8 L845.4,135.3 L857.2,187.1 L869.1,174.2 L881.0,188.0 L892.8,212.3 L904.7,191.7 L916.6,188.8 L928.4,156.4 L940.3,183.6 L952.2,202.5 L964.0,171.6 L975.9,136.3 L987.8,187.8 L999.6,192.5 L1011.5,181.8 L1023.3,281.7 L1035.2,289.1 L1047.1,267.9 L1058.9,267.6 L1070.8,279.7 L1082.7,267.4 L1094.5,280.1 L1106.4,270.6 L1118.3,256.1 L1130.1,262.9 L1142.0,277.9" fill="none" stroke="#62d9ee" stroke-width="4" stroke-linecap="round" stroke-linejoin="round"/>
  <g>
    <line x1="1142.0" x2="1142.0" y1="100" y2="434" stroke="#18e59c" stroke-width="2" stroke-dasharray="7 7" opacity="0.8"/>
    <circle cx="1142.0" cy="277.9" r="8" fill="#071f1c" stroke="#18e59c" stroke-width="4"/>
    <text x="1030.0" y="259.9" text-anchor="middle" class="marker" fill="#18e59c">ENTRY | Jul 13 | $91.73</text>
  </g>
  
  <text x="86.0" y="472" text-anchor="middle" class="axis">Mar 4</text><text x="347.0" y="472" text-anchor="middle" class="axis">Apr 6</text><text x="619.9" y="472" text-anchor="middle" class="axis">May 7</text><text x="881.0" y="472" text-anchor="middle" class="axis">Jun 9</text><text x="1142.0" y="472" text-anchor="middle" class="axis">Jul 13</text>
  </svg>