<svg xmlns="http://www.w3.org/2000/svg" width="1200" height="500" viewBox="0 0 1200 500" role="img" aria-label="TLT underlying price from entry">
  <rect width="1200" height="500" fill="#071f1c"/>
  <style>.head{fill:#f4fff9;font:800 27px Georgia,serif}.sub{fill:#9fc4bb;font:14px Arial,sans-serif}.axis{fill:#8eaaa3;font:12px Arial,sans-serif}.marker{font:800 12px Arial,sans-serif}</style>
  <text x="86" y="40" class="head">TLT Underlying Price</text>
  <text x="86" y="66" class="sub">90 sessions | Entry marked; position remains open | Published option idea rank 1</text>
  <line x1="86" x2="1142" y1="100.0" y2="100.0" stroke="#1b4a42" stroke-width="1"/><text x="72" y="105.0" text-anchor="end" class="axis">$88.80</text><line x1="86" x2="1142" y1="183.5" y2="183.5" stroke="#1b4a42" stroke-width="1"/><text x="72" y="188.5" text-anchor="end" class="axis">$87.03</text><line x1="86" x2="1142" y1="267.0" y2="267.0" stroke="#1b4a42" stroke-width="1"/><text x="72" y="272.0" text-anchor="end" class="axis">$85.25</text><line x1="86" x2="1142" y1="350.5" y2="350.5" stroke="#1b4a42" stroke-width="1"/><text x="72" y="355.5" text-anchor="end" class="axis">$83.48</text><line x1="86" x2="1142" y1="434.0" y2="434.0" stroke="#1b4a42" stroke-width="1"/><text x="72" y="439.0" text-anchor="end" class="axis">$81.71</text>
  <path d="M86.0,178.3 L97.9,186.3 L109.7,206.5 L121.6,175.0 L133.5,163.7 L145.3,186.7 L157.2,161.8 L169.1,239.9 L180.9,213.6 L192.8,231.5 L204.7,192.4 L216.5,226.7 L228.4,248.9 L240.2,195.2 L252.1,199.4 L264.0,219.7 L275.8,194.7 L287.7,201.3 L299.6,201.8 L311.4,188.6 L323.3,199.0 L335.2,208.9 L347.0,196.6 L358.9,175.0 L370.8,192.9 L382.6,218.7 L394.5,181.6 L406.4,182.5 L418.2,205.1 L430.1,197.1 L442.0,206.0 L453.8,198.5 L465.7,218.7 L477.6,214.5 L489.4,246.1 L501.3,249.8 L513.1,250.3 L525.0,280.9 L536.9,258.8 L548.7,228.2 L560.6,248.4 L572.5,228.2 L584.3,252.6 L596.2,279.5 L608.1,288.4 L619.9,282.8 L631.8,342.1 L643.7,346.8 L655.5,372.2 L667.4,330.3 L679.3,315.7 L691.1,294.1 L703.0,274.3 L714.9,264.9 L726.7,244.2 L738.6,243.2 L750.4,256.9 L762.3,248.4 L774.2,264.4 L786.0,255.5 L797.9,276.2 L809.8,296.9 L821.6,273.4 L833.5,284.7 L845.4,232.9 L857.2,242.8 L869.1,245.1 L881.0,223.0 L892.8,216.4 L904.7,196.6 L916.6,227.7 L928.4,222.5 L940.3,167.0 L952.2,168.4 L964.0,167.9 L975.9,163.7 L987.8,212.2 L999.6,254.5 L1011.5,255.0 L1023.3,257.8 L1035.2,300.2 L1047.1,309.1 L1058.9,303.0 L1070.8,304.0 L1082.7,327.5 L1094.5,322.3 L1106.4,314.8 L1118.3,316.2 L1130.1,301.6 L1142.0,331.3 L1142.0,434.0 L86.0,434.0 Z" fill="#0f5949" opacity="0.28"/>
  <path d="M86.0,178.3 L97.9,186.3 L109.7,206.5 L121.6,175.0 L133.5,163.7 L145.3,186.7 L157.2,161.8 L169.1,239.9 L180.9,213.6 L192.8,231.5 L204.7,192.4 L216.5,226.7 L228.4,248.9 L240.2,195.2 L252.1,199.4 L264.0,219.7 L275.8,194.7 L287.7,201.3 L299.6,201.8 L311.4,188.6 L323.3,199.0 L335.2,208.9 L347.0,196.6 L358.9,175.0 L370.8,192.9 L382.6,218.7 L394.5,181.6 L406.4,182.5 L418.2,205.1 L430.1,197.1 L442.0,206.0 L453.8,198.5 L465.7,218.7 L477.6,214.5 L489.4,246.1 L501.3,249.8 L513.1,250.3 L525.0,280.9 L536.9,258.8 L548.7,228.2 L560.6,248.4 L572.5,228.2 L584.3,252.6 L596.2,279.5 L608.1,288.4 L619.9,282.8 L631.8,342.1 L643.7,346.8 L655.5,372.2 L667.4,330.3 L679.3,315.7 L691.1,294.1 L703.0,274.3 L714.9,264.9 L726.7,244.2 L738.6,243.2 L750.4,256.9 L762.3,248.4 L774.2,264.4 L786.0,255.5 L797.9,276.2 L809.8,296.9 L821.6,273.4 L833.5,284.7 L845.4,232.9 L857.2,242.8 L869.1,245.1 L881.0,223.0 L892.8,216.4 L904.7,196.6 L916.6,227.7 L928.4,222.5 L940.3,167.0 L952.2,168.4 L964.0,167.9 L975.9,163.7 L987.8,212.2 L999.6,254.5 L1011.5,255.0 L1023.3,257.8 L1035.2,300.2 L1047.1,309.1 L1058.9,303.0 L1070.8,304.0 L1082.7,327.5 L1094.5,322.3 L1106.4,314.8 L1118.3,316.2 L1130.1,301.6 L1142.0,331.3" fill="none" stroke="#62d9ee" stroke-width="4" stroke-linecap="round" stroke-linejoin="round"/>
  <g>
    <line x1="1094.5" x2="1094.5" y1="100" y2="434" stroke="#18e59c" stroke-width="2" stroke-dasharray="7 7" opacity="0.8"/>
    <circle cx="1094.5" cy="322.8" r="8" fill="#071f1c" stroke="#18e59c" stroke-width="4"/>
    <text x="1030.0" y="304.8" text-anchor="middle" class="marker" fill="#18e59c">ENTRY | Jul 14 | $84.07</text>
  </g>
  
  <text x="86.0" y="472" text-anchor="middle" class="axis">Mar 11</text><text x="347.0" y="472" text-anchor="middle" class="axis">Apr 13</text><text x="619.9" y="472" text-anchor="middle" class="axis">May 14</text><text x="881.0" y="472" text-anchor="middle" class="axis">Jun 16</text><text x="1142.0" y="472" text-anchor="middle" class="axis">Jul 20</text>
  </svg>