<svg xmlns="http://www.w3.org/2000/svg" width="1200" height="500" viewBox="0 0 1200 500" role="img" aria-label="BAC underlying price from entry">
  <rect width="1200" height="500" fill="#071f1c"/>
  <style>.head{fill:#f4fff9;font:800 27px Georgia,serif}.sub{fill:#9fc4bb;font:14px Arial,sans-serif}.axis{fill:#8eaaa3;font:12px Arial,sans-serif}.marker{font:800 12px Arial,sans-serif}</style>
  <text x="86" y="40" class="head">BAC Underlying Price</text>
  <text x="86" y="66" class="sub">90 sessions | Entry marked; position remains open | Published option idea rank 2</text>
  <line x1="86" x2="1142" y1="100.0" y2="100.0" stroke="#1b4a42" stroke-width="1"/><text x="72" y="105.0" text-anchor="end" class="axis">$63.10</text><line x1="86" x2="1142" y1="183.5" y2="183.5" stroke="#1b4a42" stroke-width="1"/><text x="72" y="188.5" text-anchor="end" class="axis">$58.66</text><line x1="86" x2="1142" y1="267.0" y2="267.0" stroke="#1b4a42" stroke-width="1"/><text x="72" y="272.0" text-anchor="end" class="axis">$54.22</text><line x1="86" x2="1142" y1="350.5" y2="350.5" stroke="#1b4a42" stroke-width="1"/><text x="72" y="355.5" text-anchor="end" class="axis">$49.79</text><line x1="86" x2="1142" y1="434.0" y2="434.0" stroke="#1b4a42" stroke-width="1"/><text x="72" y="439.0" text-anchor="end" class="axis">$45.35</text>
  <path d="M86.0,401.8 L97.9,397.7 L109.7,406.2 L121.6,402.8 L133.5,400.0 L145.3,393.2 L157.2,381.5 L169.1,370.0 L180.9,379.6 L192.8,403.5 L204.7,398.6 L216.5,370.0 L228.4,360.2 L240.2,358.2 L252.1,345.4 L264.0,341.2 L275.8,311.1 L287.7,295.5 L299.6,298.7 L311.4,283.5 L323.3,283.5 L335.2,265.2 L347.0,280.5 L358.9,272.9 L370.8,272.2 L382.6,281.0 L394.5,287.8 L406.4,300.0 L418.2,307.9 L430.1,297.0 L442.0,296.5 L453.8,292.3 L465.7,281.4 L477.6,285.5 L489.4,305.3 L501.3,287.8 L513.1,278.8 L525.0,294.8 L536.9,321.9 L548.7,336.2 L560.6,331.8 L572.5,349.5 L584.3,349.3 L596.2,350.8 L608.1,333.5 L619.9,333.3 L631.8,323.4 L643.7,318.5 L655.5,312.6 L667.4,305.1 L679.3,325.8 L691.1,332.0 L703.0,316.4 L714.9,318.1 L726.7,299.8 L738.6,301.3 L750.4,268.0 L762.3,274.4 L774.2,278.2 L786.0,263.3 L797.9,261.1 L809.8,249.4 L821.6,233.2 L833.5,236.0 L845.4,217.8 L857.2,223.6 L869.1,229.8 L881.0,207.8 L892.8,197.7 L904.7,201.0 L916.6,192.4 L928.4,198.2 L940.3,198.2 L952.2,215.2 L964.0,189.2 L975.9,182.2 L987.8,160.2 L999.6,161.0 L1011.5,190.3 L1023.3,172.4 L1035.2,164.5 L1047.1,167.7 L1058.9,146.7 L1070.8,128.4 L1082.7,130.3 L1094.5,134.4 L1106.4,150.4 L1118.3,135.4 L1130.1,127.8 L1142.0,134.2 L1142.0,434.0 L86.0,434.0 Z" fill="#0f5949" opacity="0.28"/>
  <path d="M86.0,401.8 L97.9,397.7 L109.7,406.2 L121.6,402.8 L133.5,400.0 L145.3,393.2 L157.2,381.5 L169.1,370.0 L180.9,379.6 L192.8,403.5 L204.7,398.6 L216.5,370.0 L228.4,360.2 L240.2,358.2 L252.1,345.4 L264.0,341.2 L275.8,311.1 L287.7,295.5 L299.6,298.7 L311.4,283.5 L323.3,283.5 L335.2,265.2 L347.0,280.5 L358.9,272.9 L370.8,272.2 L382.6,281.0 L394.5,287.8 L406.4,300.0 L418.2,307.9 L430.1,297.0 L442.0,296.5 L453.8,292.3 L465.7,281.4 L477.6,285.5 L489.4,305.3 L501.3,287.8 L513.1,278.8 L525.0,294.8 L536.9,321.9 L548.7,336.2 L560.6,331.8 L572.5,349.5 L584.3,349.3 L596.2,350.8 L608.1,333.5 L619.9,333.3 L631.8,323.4 L643.7,318.5 L655.5,312.6 L667.4,305.1 L679.3,325.8 L691.1,332.0 L703.0,316.4 L714.9,318.1 L726.7,299.8 L738.6,301.3 L750.4,268.0 L762.3,274.4 L774.2,278.2 L786.0,263.3 L797.9,261.1 L809.8,249.4 L821.6,233.2 L833.5,236.0 L845.4,217.8 L857.2,223.6 L869.1,229.8 L881.0,207.8 L892.8,197.7 L904.7,201.0 L916.6,192.4 L928.4,198.2 L940.3,198.2 L952.2,215.2 L964.0,189.2 L975.9,182.2 L987.8,160.2 L999.6,161.0 L1011.5,190.3 L1023.3,172.4 L1035.2,164.5 L1047.1,167.7 L1058.9,146.7 L1070.8,128.4 L1082.7,130.3 L1094.5,134.4 L1106.4,150.4 L1118.3,135.4 L1130.1,127.8 L1142.0,134.2" fill="none" stroke="#62d9ee" stroke-width="4" stroke-linecap="round" stroke-linejoin="round"/>
  <g>
    <line x1="1058.9" x2="1058.9" y1="100" y2="434" stroke="#18e59c" stroke-width="2" stroke-dasharray="7 7" opacity="0.8"/>
    <circle cx="1058.9" cy="145.5" r="8" fill="#071f1c" stroke="#18e59c" stroke-width="4"/>
    <text x="1030.0" y="179.5" text-anchor="middle" class="marker" fill="#18e59c">ENTRY | Jul 14 | $60.68</text>
  </g>
  
  <text x="86.0" y="472" text-anchor="middle" class="axis">Mar 16</text><text x="347.0" y="472" text-anchor="middle" class="axis">Apr 16</text><text x="619.9" y="472" text-anchor="middle" class="axis">May 19</text><text x="881.0" y="472" text-anchor="middle" class="axis">Jun 22</text><text x="1142.0" y="472" text-anchor="middle" class="axis">Jul 23</text>
  </svg>