<svg xmlns="http://www.w3.org/2000/svg" width="1200" height="500" viewBox="0 0 1200 500" role="img" aria-label="BAC underlying price from entry">
  <rect width="1200" height="500" fill="#071f1c"/>
  <style>.head{fill:#f4fff9;font:800 27px Georgia,serif}.sub{fill:#9fc4bb;font:14px Arial,sans-serif}.axis{fill:#8eaaa3;font:12px Arial,sans-serif}.marker{font:800 12px Arial,sans-serif}</style>
  <text x="86" y="40" class="head">BAC Underlying Price</text>
  <text x="86" y="66" class="sub">90 sessions | Entry marked; position remains open | Published option idea rank 2</text>
  <line x1="86" x2="1142" y1="100.0" y2="100.0" stroke="#1b4a42" stroke-width="1"/><text x="72" y="105.0" text-anchor="end" class="axis">$63.08</text><line x1="86" x2="1142" y1="183.5" y2="183.5" stroke="#1b4a42" stroke-width="1"/><text x="72" y="188.5" text-anchor="end" class="axis">$58.62</text><line x1="86" x2="1142" y1="267.0" y2="267.0" stroke="#1b4a42" stroke-width="1"/><text x="72" y="272.0" text-anchor="end" class="axis">$54.16</text><line x1="86" x2="1142" y1="350.5" y2="350.5" stroke="#1b4a42" stroke-width="1"/><text x="72" y="355.5" text-anchor="end" class="axis">$49.69</text><line x1="86" x2="1142" y1="434.0" y2="434.0" stroke="#1b4a42" stroke-width="1"/><text x="72" y="439.0" text-anchor="end" class="axis">$45.23</text>
  <path d="M86.0,371.7 L97.9,372.5 L109.7,398.5 L121.6,406.2 L133.5,399.8 L145.3,395.7 L157.2,404.1 L169.1,400.7 L180.9,397.9 L192.8,391.2 L204.7,379.6 L216.5,368.2 L228.4,377.7 L240.2,401.5 L252.1,396.6 L264.0,368.2 L275.8,358.4 L287.7,356.4 L299.6,343.6 L311.4,339.5 L323.3,309.6 L335.2,294.0 L347.0,297.2 L358.9,282.1 L370.8,282.1 L382.6,263.9 L394.5,279.1 L406.4,271.6 L418.2,270.8 L430.1,279.6 L442.0,286.4 L453.8,298.5 L465.7,306.4 L477.6,295.5 L489.4,295.0 L501.3,290.9 L513.1,280.0 L525.0,284.1 L536.9,303.8 L548.7,286.4 L560.6,277.4 L572.5,293.3 L584.3,320.3 L596.2,334.5 L608.1,330.2 L619.9,347.8 L631.8,347.6 L643.7,349.1 L655.5,331.9 L667.4,331.7 L679.3,321.7 L691.1,316.9 L703.0,311.1 L714.9,303.6 L726.7,324.2 L738.6,330.4 L750.4,314.8 L762.3,316.5 L774.2,298.4 L786.0,299.8 L797.9,266.7 L809.8,273.1 L821.6,276.8 L833.5,262.0 L845.4,259.8 L857.2,248.2 L869.1,232.1 L881.0,234.9 L892.8,216.7 L904.7,222.5 L916.6,228.7 L928.4,206.8 L940.3,196.7 L952.2,200.1 L964.0,191.5 L975.9,197.3 L987.8,197.3 L999.6,214.1 L1011.5,188.3 L1023.3,181.4 L1035.2,159.5 L1047.1,160.2 L1058.9,189.4 L1070.8,171.6 L1082.7,163.8 L1094.5,167.0 L1106.4,146.0 L1118.3,127.8 L1130.1,129.7 L1142.0,133.8 L1142.0,434.0 L86.0,434.0 Z" fill="#0f5949" opacity="0.28"/>
  <path d="M86.0,371.7 L97.9,372.5 L109.7,398.5 L121.6,406.2 L133.5,399.8 L145.3,395.7 L157.2,404.1 L169.1,400.7 L180.9,397.9 L192.8,391.2 L204.7,379.6 L216.5,368.2 L228.4,377.7 L240.2,401.5 L252.1,396.6 L264.0,368.2 L275.8,358.4 L287.7,356.4 L299.6,343.6 L311.4,339.5 L323.3,309.6 L335.2,294.0 L347.0,297.2 L358.9,282.1 L370.8,282.1 L382.6,263.9 L394.5,279.1 L406.4,271.6 L418.2,270.8 L430.1,279.6 L442.0,286.4 L453.8,298.5 L465.7,306.4 L477.6,295.5 L489.4,295.0 L501.3,290.9 L513.1,280.0 L525.0,284.1 L536.9,303.8 L548.7,286.4 L560.6,277.4 L572.5,293.3 L584.3,320.3 L596.2,334.5 L608.1,330.2 L619.9,347.8 L631.8,347.6 L643.7,349.1 L655.5,331.9 L667.4,331.7 L679.3,321.7 L691.1,316.9 L703.0,311.1 L714.9,303.6 L726.7,324.2 L738.6,330.4 L750.4,314.8 L762.3,316.5 L774.2,298.4 L786.0,299.8 L797.9,266.7 L809.8,273.1 L821.6,276.8 L833.5,262.0 L845.4,259.8 L857.2,248.2 L869.1,232.1 L881.0,234.9 L892.8,216.7 L904.7,222.5 L916.6,228.7 L928.4,206.8 L940.3,196.7 L952.2,200.1 L964.0,191.5 L975.9,197.3 L987.8,197.3 L999.6,214.1 L1011.5,188.3 L1023.3,181.4 L1035.2,159.5 L1047.1,160.2 L1058.9,189.4 L1070.8,171.6 L1082.7,163.8 L1094.5,167.0 L1106.4,146.0 L1118.3,127.8 L1130.1,129.7 L1142.0,133.8" fill="none" stroke="#62d9ee" stroke-width="4" stroke-linecap="round" stroke-linejoin="round"/>
  <g>
    <line x1="1106.4" x2="1106.4" y1="100" y2="434" stroke="#18e59c" stroke-width="2" stroke-dasharray="7 7" opacity="0.8"/>
    <circle cx="1106.4" cy="144.9" r="8" fill="#071f1c" stroke="#18e59c" stroke-width="4"/>
    <text x="1030.0" y="178.9" text-anchor="middle" class="marker" fill="#18e59c">ENTRY | Jul 14 | $60.68</text>
  </g>
  
  <text x="86.0" y="472" text-anchor="middle" class="axis">Mar 10</text><text x="347.0" y="472" text-anchor="middle" class="axis">Apr 10</text><text x="619.9" y="472" text-anchor="middle" class="axis">May 13</text><text x="881.0" y="472" text-anchor="middle" class="axis">Jun 15</text><text x="1142.0" y="472" text-anchor="middle" class="axis">Jul 17</text>
  </svg>