<svg xmlns="http://www.w3.org/2000/svg" width="1200" height="500" viewBox="0 0 1200 500" role="img" aria-label="BAC underlying price from entry">
  <rect width="1200" height="500" fill="#071f1c"/>
  <style>.head{fill:#f4fff9;font:800 27px Georgia,serif}.sub{fill:#9fc4bb;font:14px Arial,sans-serif}.axis{fill:#8eaaa3;font:12px Arial,sans-serif}.marker{font:800 12px Arial,sans-serif}</style>
  <text x="86" y="40" class="head">BAC Underlying Price</text>
  <text x="86" y="66" class="sub">90 sessions | Entry marked; position remains open | Published option idea rank 2</text>
  <line x1="86" x2="1142" y1="100.0" y2="100.0" stroke="#1b4a42" stroke-width="1"/><text x="72" y="105.0" text-anchor="end" class="axis">$62.08</text><line x1="86" x2="1142" y1="183.5" y2="183.5" stroke="#1b4a42" stroke-width="1"/><text x="72" y="188.5" text-anchor="end" class="axis">$57.89</text><line x1="86" x2="1142" y1="267.0" y2="267.0" stroke="#1b4a42" stroke-width="1"/><text x="72" y="272.0" text-anchor="end" class="axis">$53.70</text><line x1="86" x2="1142" y1="350.5" y2="350.5" stroke="#1b4a42" stroke-width="1"/><text x="72" y="355.5" text-anchor="end" class="axis">$49.51</text><line x1="86" x2="1142" y1="434.0" y2="434.0" stroke="#1b4a42" stroke-width="1"/><text x="72" y="439.0" text-anchor="end" class="axis">$45.32</text>
  <path d="M86.0,344.6 L97.9,367.9 L109.7,382.6 L121.6,369.5 L133.5,370.3 L145.3,398.0 L157.2,406.2 L169.1,399.4 L180.9,395.0 L192.8,404.0 L204.7,400.4 L216.5,397.4 L228.4,390.2 L240.2,377.9 L252.1,365.7 L264.0,375.9 L275.8,401.2 L287.7,396.0 L299.6,365.7 L311.4,355.3 L323.3,353.1 L335.2,339.6 L347.0,335.2 L358.9,303.3 L370.8,286.7 L382.6,290.1 L394.5,274.0 L406.4,274.0 L418.2,254.6 L430.1,270.8 L442.0,262.8 L453.8,262.0 L465.7,271.4 L477.6,278.6 L489.4,291.5 L501.3,299.9 L513.1,288.3 L525.0,287.7 L536.9,283.3 L548.7,271.8 L560.6,276.2 L572.5,297.1 L584.3,278.6 L596.2,269.0 L608.1,285.9 L619.9,314.7 L631.8,329.8 L643.7,325.2 L655.5,344.0 L667.4,343.8 L679.3,345.4 L691.1,327.0 L703.0,326.8 L714.9,316.2 L726.7,311.1 L738.6,304.9 L750.4,296.9 L762.3,318.8 L774.2,325.4 L786.0,308.9 L797.9,310.7 L809.8,291.3 L821.6,292.9 L833.5,257.6 L845.4,264.4 L857.2,268.4 L869.1,252.6 L881.0,250.3 L892.8,237.9 L904.7,220.7 L916.6,223.7 L928.4,204.4 L940.3,210.6 L952.2,217.2 L964.0,193.8 L975.9,183.1 L987.8,186.7 L999.6,177.5 L1011.5,183.7 L1023.3,183.7 L1035.2,201.6 L1047.1,174.1 L1058.9,166.7 L1070.8,143.4 L1082.7,144.2 L1094.5,175.3 L1106.4,156.3 L1118.3,148.0 L1130.1,151.4 L1142.0,127.8 L1142.0,434.0 L86.0,434.0 Z" fill="#0f5949" opacity="0.28"/>
  <path d="M86.0,344.6 L97.9,367.9 L109.7,382.6 L121.6,369.5 L133.5,370.3 L145.3,398.0 L157.2,406.2 L169.1,399.4 L180.9,395.0 L192.8,404.0 L204.7,400.4 L216.5,397.4 L228.4,390.2 L240.2,377.9 L252.1,365.7 L264.0,375.9 L275.8,401.2 L287.7,396.0 L299.6,365.7 L311.4,355.3 L323.3,353.1 L335.2,339.6 L347.0,335.2 L358.9,303.3 L370.8,286.7 L382.6,290.1 L394.5,274.0 L406.4,274.0 L418.2,254.6 L430.1,270.8 L442.0,262.8 L453.8,262.0 L465.7,271.4 L477.6,278.6 L489.4,291.5 L501.3,299.9 L513.1,288.3 L525.0,287.7 L536.9,283.3 L548.7,271.8 L560.6,276.2 L572.5,297.1 L584.3,278.6 L596.2,269.0 L608.1,285.9 L619.9,314.7 L631.8,329.8 L643.7,325.2 L655.5,344.0 L667.4,343.8 L679.3,345.4 L691.1,327.0 L703.0,326.8 L714.9,316.2 L726.7,311.1 L738.6,304.9 L750.4,296.9 L762.3,318.8 L774.2,325.4 L786.0,308.9 L797.9,310.7 L809.8,291.3 L821.6,292.9 L833.5,257.6 L845.4,264.4 L857.2,268.4 L869.1,252.6 L881.0,250.3 L892.8,237.9 L904.7,220.7 L916.6,223.7 L928.4,204.4 L940.3,210.6 L952.2,217.2 L964.0,193.8 L975.9,183.1 L987.8,186.7 L999.6,177.5 L1011.5,183.7 L1023.3,183.7 L1035.2,201.6 L1047.1,174.1 L1058.9,166.7 L1070.8,143.4 L1082.7,144.2 L1094.5,175.3 L1106.4,156.3 L1118.3,148.0 L1130.1,151.4 L1142.0,127.8" fill="none" stroke="#62d9ee" stroke-width="4" stroke-linecap="round" stroke-linejoin="round"/>
  <g>
    <line x1="1142.0" x2="1142.0" y1="100" y2="434" stroke="#18e59c" stroke-width="2" stroke-dasharray="7 7" opacity="0.8"/>
    <circle cx="1142.0" cy="127.8" r="8" fill="#071f1c" stroke="#18e59c" stroke-width="4"/>
    <text x="1030.0" y="161.8" text-anchor="middle" class="marker" fill="#18e59c">ENTRY | Jul 14 | $60.68</text>
  </g>
  
  <text x="86.0" y="472" text-anchor="middle" class="axis">Mar 5</text><text x="347.0" y="472" text-anchor="middle" class="axis">Apr 7</text><text x="619.9" y="472" text-anchor="middle" class="axis">May 8</text><text x="881.0" y="472" text-anchor="middle" class="axis">Jun 10</text><text x="1142.0" y="472" text-anchor="middle" class="axis">Jul 14</text>
  </svg>