<svg xmlns="http://www.w3.org/2000/svg" width="1200" height="500" viewBox="0 0 1200 500" role="img" aria-label="C underlying price from entry">
  <rect width="1200" height="500" fill="#071f1c"/>
  <style>.head{fill:#f4fff9;font:800 27px Georgia,serif}.sub{fill:#9fc4bb;font:14px Arial,sans-serif}.axis{fill:#8eaaa3;font:12px Arial,sans-serif}.marker{font:800 12px Arial,sans-serif}</style>
  <text x="86" y="40" class="head">C Underlying Price</text>
  <text x="86" y="66" class="sub">90 sessions | Entry marked; position remains open | Published option idea rank 3</text>
  <line x1="86" x2="1142" y1="100.0" y2="100.0" stroke="#1b4a42" stroke-width="1"/><text x="72" y="105.0" text-anchor="end" class="axis">$149.69</text><line x1="86" x2="1142" y1="183.5" y2="183.5" stroke="#1b4a42" stroke-width="1"/><text x="72" y="188.5" text-anchor="end" class="axis">$137.64</text><line x1="86" x2="1142" y1="267.0" y2="267.0" stroke="#1b4a42" stroke-width="1"/><text x="72" y="272.0" text-anchor="end" class="axis">$125.58</text><line x1="86" x2="1142" y1="350.5" y2="350.5" stroke="#1b4a42" stroke-width="1"/><text x="72" y="355.5" text-anchor="end" class="axis">$113.53</text><line x1="86" x2="1142" y1="434.0" y2="434.0" stroke="#1b4a42" stroke-width="1"/><text x="72" y="439.0" text-anchor="end" class="axis">$101.48</text>
  <path d="M86.0,382.1 L97.9,380.6 L109.7,406.2 L121.6,404.9 L133.5,393.3 L145.3,390.9 L157.2,384.2 L169.1,376.0 L180.9,378.3 L192.8,363.6 L204.7,349.1 L216.5,343.9 L228.4,358.3 L240.2,393.1 L252.1,393.9 L264.0,351.4 L275.8,338.3 L287.7,338.6 L299.6,324.0 L311.4,325.6 L323.3,281.5 L335.2,271.6 L347.0,275.3 L358.9,262.2 L370.8,239.3 L382.6,224.7 L394.5,241.0 L406.4,221.3 L418.2,215.3 L430.1,224.8 L442.0,238.3 L453.8,246.7 L465.7,250.4 L477.6,242.4 L489.4,246.6 L501.3,253.0 L513.1,250.4 L525.0,254.1 L536.9,266.7 L548.7,250.2 L560.6,253.0 L572.5,242.7 L584.3,267.2 L596.2,265.2 L608.1,261.1 L619.9,277.3 L631.8,272.3 L643.7,282.0 L655.5,289.0 L667.4,305.9 L679.3,272.3 L691.1,269.5 L703.0,270.4 L714.9,258.2 L726.7,268.4 L738.6,273.3 L750.4,264.8 L762.3,242.7 L774.2,227.7 L786.0,236.9 L797.9,200.7 L809.8,219.3 L821.6,213.7 L833.5,203.6 L845.4,213.0 L857.2,180.5 L869.1,168.3 L881.0,158.7 L892.8,146.4 L904.7,140.9 L916.6,145.9 L928.4,127.8 L940.3,132.7 L952.2,142.2 L964.0,132.6 L975.9,154.9 L987.8,149.9 L999.6,167.4 L1011.5,166.2 L1023.3,167.3 L1035.2,140.4 L1047.1,161.8 L1058.9,185.2 L1070.8,170.1 L1082.7,161.6 L1094.5,162.2 L1106.4,213.8 L1118.3,202.5 L1130.1,224.6 L1142.0,240.8 L1142.0,434.0 L86.0,434.0 Z" fill="#0f5949" opacity="0.28"/>
  <path d="M86.0,382.1 L97.9,380.6 L109.7,406.2 L121.6,404.9 L133.5,393.3 L145.3,390.9 L157.2,384.2 L169.1,376.0 L180.9,378.3 L192.8,363.6 L204.7,349.1 L216.5,343.9 L228.4,358.3 L240.2,393.1 L252.1,393.9 L264.0,351.4 L275.8,338.3 L287.7,338.6 L299.6,324.0 L311.4,325.6 L323.3,281.5 L335.2,271.6 L347.0,275.3 L358.9,262.2 L370.8,239.3 L382.6,224.7 L394.5,241.0 L406.4,221.3 L418.2,215.3 L430.1,224.8 L442.0,238.3 L453.8,246.7 L465.7,250.4 L477.6,242.4 L489.4,246.6 L501.3,253.0 L513.1,250.4 L525.0,254.1 L536.9,266.7 L548.7,250.2 L560.6,253.0 L572.5,242.7 L584.3,267.2 L596.2,265.2 L608.1,261.1 L619.9,277.3 L631.8,272.3 L643.7,282.0 L655.5,289.0 L667.4,305.9 L679.3,272.3 L691.1,269.5 L703.0,270.4 L714.9,258.2 L726.7,268.4 L738.6,273.3 L750.4,264.8 L762.3,242.7 L774.2,227.7 L786.0,236.9 L797.9,200.7 L809.8,219.3 L821.6,213.7 L833.5,203.6 L845.4,213.0 L857.2,180.5 L869.1,168.3 L881.0,158.7 L892.8,146.4 L904.7,140.9 L916.6,145.9 L928.4,127.8 L940.3,132.7 L952.2,142.2 L964.0,132.6 L975.9,154.9 L987.8,149.9 L999.6,167.4 L1011.5,166.2 L1023.3,167.3 L1035.2,140.4 L1047.1,161.8 L1058.9,185.2 L1070.8,170.1 L1082.7,161.6 L1094.5,162.2 L1106.4,213.8 L1118.3,202.5 L1130.1,224.6 L1142.0,240.8" fill="none" stroke="#62d9ee" stroke-width="4" stroke-linecap="round" stroke-linejoin="round"/>
  <g>
    <line x1="1106.4" x2="1106.4" y1="100" y2="434" stroke="#18e59c" stroke-width="2" stroke-dasharray="7 7" opacity="0.8"/>
    <circle cx="1106.4" cy="201.6" r="8" fill="#071f1c" stroke="#18e59c" stroke-width="4"/>
    <text x="1030.0" y="183.6" text-anchor="middle" class="marker" fill="#18e59c">ENTRY | Jul 14 | $135.02</text>
  </g>
  
  <text x="86.0" y="472" text-anchor="middle" class="axis">Mar 10</text><text x="347.0" y="472" text-anchor="middle" class="axis">Apr 10</text><text x="619.9" y="472" text-anchor="middle" class="axis">May 13</text><text x="881.0" y="472" text-anchor="middle" class="axis">Jun 15</text><text x="1142.0" y="472" text-anchor="middle" class="axis">Jul 17</text>
  </svg>