<svg xmlns="http://www.w3.org/2000/svg" width="1200" height="500" viewBox="0 0 1200 500" role="img" aria-label="C underlying price from entry">
  <rect width="1200" height="500" fill="#071f1c"/>
  <style>.head{fill:#f4fff9;font:800 27px Georgia,serif}.sub{fill:#9fc4bb;font:14px Arial,sans-serif}.axis{fill:#8eaaa3;font:12px Arial,sans-serif}.marker{font:800 12px Arial,sans-serif}</style>
  <text x="86" y="40" class="head">C Underlying Price</text>
  <text x="86" y="66" class="sub">90 sessions | Entry marked; position remains open | Published option idea rank 3</text>
  <line x1="86" x2="1142" y1="100.0" y2="100.0" stroke="#1b4a42" stroke-width="1"/><text x="72" y="105.0" text-anchor="end" class="axis">$149.51</text><line x1="86" x2="1142" y1="183.5" y2="183.5" stroke="#1b4a42" stroke-width="1"/><text x="72" y="188.5" text-anchor="end" class="axis">$137.99</text><line x1="86" x2="1142" y1="267.0" y2="267.0" stroke="#1b4a42" stroke-width="1"/><text x="72" y="272.0" text-anchor="end" class="axis">$126.47</text><line x1="86" x2="1142" y1="350.5" y2="350.5" stroke="#1b4a42" stroke-width="1"/><text x="72" y="355.5" text-anchor="end" class="axis">$114.95</text><line x1="86" x2="1142" y1="434.0" y2="434.0" stroke="#1b4a42" stroke-width="1"/><text x="72" y="439.0" text-anchor="end" class="axis">$103.43</text>
  <path d="M86.0,405.6 L97.9,403.0 L109.7,396.0 L121.6,387.5 L133.5,389.9 L145.3,374.5 L157.2,359.3 L169.1,353.9 L180.9,368.9 L192.8,405.4 L204.7,406.2 L216.5,361.7 L228.4,348.0 L240.2,348.3 L252.1,333.0 L264.0,334.7 L275.8,288.6 L287.7,278.2 L299.6,282.1 L311.4,268.4 L323.3,244.5 L335.2,229.2 L347.0,246.2 L358.9,225.6 L370.8,219.3 L382.6,229.2 L394.5,243.4 L406.4,252.2 L418.2,256.1 L430.1,247.6 L442.0,252.1 L453.8,258.7 L465.7,256.1 L477.6,260.0 L489.4,273.1 L501.3,255.8 L513.1,258.8 L525.0,248.0 L536.9,273.7 L548.7,271.5 L560.6,267.2 L572.5,284.2 L584.3,279.0 L596.2,289.1 L608.1,296.4 L619.9,314.1 L631.8,279.0 L643.7,276.1 L655.5,277.0 L667.4,264.2 L679.3,274.8 L691.1,280.0 L703.0,271.1 L714.9,248.0 L726.7,232.3 L738.6,241.9 L750.4,204.1 L762.3,223.5 L774.2,217.6 L786.0,207.1 L797.9,216.9 L809.8,182.9 L821.6,170.2 L833.5,160.2 L845.4,147.3 L857.2,141.5 L869.1,146.8 L881.0,127.8 L892.8,132.9 L904.7,142.9 L916.6,132.8 L928.4,156.2 L940.3,150.9 L952.2,169.2 L964.0,168.0 L975.9,169.1 L987.8,141.0 L999.6,163.3 L1011.5,187.8 L1023.3,172.0 L1035.2,163.2 L1047.1,163.8 L1058.9,217.7 L1070.8,206.0 L1082.7,229.0 L1094.5,246.1 L1106.4,250.7 L1118.3,220.8 L1130.1,225.1 L1142.0,227.8 L1142.0,434.0 L86.0,434.0 Z" fill="#0f5949" opacity="0.28"/>
  <path d="M86.0,405.6 L97.9,403.0 L109.7,396.0 L121.6,387.5 L133.5,389.9 L145.3,374.5 L157.2,359.3 L169.1,353.9 L180.9,368.9 L192.8,405.4 L204.7,406.2 L216.5,361.7 L228.4,348.0 L240.2,348.3 L252.1,333.0 L264.0,334.7 L275.8,288.6 L287.7,278.2 L299.6,282.1 L311.4,268.4 L323.3,244.5 L335.2,229.2 L347.0,246.2 L358.9,225.6 L370.8,219.3 L382.6,229.2 L394.5,243.4 L406.4,252.2 L418.2,256.1 L430.1,247.6 L442.0,252.1 L453.8,258.7 L465.7,256.1 L477.6,260.0 L489.4,273.1 L501.3,255.8 L513.1,258.8 L525.0,248.0 L536.9,273.7 L548.7,271.5 L560.6,267.2 L572.5,284.2 L584.3,279.0 L596.2,289.1 L608.1,296.4 L619.9,314.1 L631.8,279.0 L643.7,276.1 L655.5,277.0 L667.4,264.2 L679.3,274.8 L691.1,280.0 L703.0,271.1 L714.9,248.0 L726.7,232.3 L738.6,241.9 L750.4,204.1 L762.3,223.5 L774.2,217.6 L786.0,207.1 L797.9,216.9 L809.8,182.9 L821.6,170.2 L833.5,160.2 L845.4,147.3 L857.2,141.5 L869.1,146.8 L881.0,127.8 L892.8,132.9 L904.7,142.9 L916.6,132.8 L928.4,156.2 L940.3,150.9 L952.2,169.2 L964.0,168.0 L975.9,169.1 L987.8,141.0 L999.6,163.3 L1011.5,187.8 L1023.3,172.0 L1035.2,163.2 L1047.1,163.8 L1058.9,217.7 L1070.8,206.0 L1082.7,229.0 L1094.5,246.1 L1106.4,250.7 L1118.3,220.8 L1130.1,225.1 L1142.0,227.8" fill="none" stroke="#62d9ee" stroke-width="4" stroke-linecap="round" stroke-linejoin="round"/>
  <g>
    <line x1="1058.9" x2="1058.9" y1="100" y2="434" stroke="#18e59c" stroke-width="2" stroke-dasharray="7 7" opacity="0.8"/>
    <circle cx="1058.9" cy="205.0" r="8" fill="#071f1c" stroke="#18e59c" stroke-width="4"/>
    <text x="1030.0" y="187.0" text-anchor="middle" class="marker" fill="#18e59c">ENTRY | Jul 14 | $135.02</text>
  </g>
  
  <text x="86.0" y="472" text-anchor="middle" class="axis">Mar 16</text><text x="347.0" y="472" text-anchor="middle" class="axis">Apr 16</text><text x="619.9" y="472" text-anchor="middle" class="axis">May 19</text><text x="881.0" y="472" text-anchor="middle" class="axis">Jun 22</text><text x="1142.0" y="472" text-anchor="middle" class="axis">Jul 23</text>
  </svg>