<svg xmlns="http://www.w3.org/2000/svg" width="1200" height="500" viewBox="0 0 1200 500" role="img" aria-label="C underlying price from entry">
  <rect width="1200" height="500" fill="#071f1c"/>
  <style>.head{fill:#f4fff9;font:800 27px Georgia,serif}.sub{fill:#9fc4bb;font:14px Arial,sans-serif}.axis{fill:#8eaaa3;font:12px Arial,sans-serif}.marker{font:800 12px Arial,sans-serif}</style>
  <text x="86" y="40" class="head">C Underlying Price</text>
  <text x="86" y="66" class="sub">90 sessions | Entry marked; position remains open | Published option idea rank 3</text>
  <line x1="86" x2="1142" y1="100.0" y2="100.0" stroke="#1b4a42" stroke-width="1"/><text x="72" y="105.0" text-anchor="end" class="axis">$149.69</text><line x1="86" x2="1142" y1="183.5" y2="183.5" stroke="#1b4a42" stroke-width="1"/><text x="72" y="188.5" text-anchor="end" class="axis">$137.64</text><line x1="86" x2="1142" y1="267.0" y2="267.0" stroke="#1b4a42" stroke-width="1"/><text x="72" y="272.0" text-anchor="end" class="axis">$125.58</text><line x1="86" x2="1142" y1="350.5" y2="350.5" stroke="#1b4a42" stroke-width="1"/><text x="72" y="355.5" text-anchor="end" class="axis">$113.53</text><line x1="86" x2="1142" y1="434.0" y2="434.0" stroke="#1b4a42" stroke-width="1"/><text x="72" y="439.0" text-anchor="end" class="axis">$101.48</text>
  <path d="M86.0,406.2 L97.9,404.9 L109.7,393.3 L121.6,390.9 L133.5,384.2 L145.3,376.0 L157.2,378.3 L169.1,363.6 L180.9,349.1 L192.8,343.9 L204.7,358.3 L216.5,393.1 L228.4,393.9 L240.2,351.4 L252.1,338.3 L264.0,338.6 L275.8,324.0 L287.7,325.6 L299.6,281.5 L311.4,271.6 L323.3,275.3 L335.2,262.2 L347.0,239.3 L358.9,224.7 L370.8,241.0 L382.6,221.3 L394.5,215.3 L406.4,224.8 L418.2,238.3 L430.1,246.7 L442.0,250.4 L453.8,242.4 L465.7,246.6 L477.6,253.0 L489.4,250.4 L501.3,254.1 L513.1,266.7 L525.0,250.2 L536.9,253.0 L548.7,242.7 L560.6,267.2 L572.5,265.2 L584.3,261.1 L596.2,277.3 L608.1,272.3 L619.9,282.0 L631.8,289.0 L643.7,305.9 L655.5,272.3 L667.4,269.5 L679.3,270.4 L691.1,258.2 L703.0,268.4 L714.9,273.3 L726.7,264.8 L738.6,242.7 L750.4,227.7 L762.3,236.9 L774.2,200.7 L786.0,219.3 L797.9,213.7 L809.8,203.6 L821.6,213.0 L833.5,180.5 L845.4,168.3 L857.2,158.7 L869.1,146.4 L881.0,140.9 L892.8,145.9 L904.7,127.8 L916.6,132.7 L928.4,142.2 L940.3,132.6 L952.2,154.9 L964.0,149.9 L975.9,167.4 L987.8,166.2 L999.6,167.3 L1011.5,140.4 L1023.3,161.8 L1035.2,185.2 L1047.1,170.1 L1058.9,161.6 L1070.8,162.2 L1082.7,213.8 L1094.5,202.5 L1106.4,224.6 L1118.3,240.8 L1130.1,245.3 L1142.0,216.7 L1142.0,434.0 L86.0,434.0 Z" fill="#0f5949" opacity="0.28"/>
  <path d="M86.0,406.2 L97.9,404.9 L109.7,393.3 L121.6,390.9 L133.5,384.2 L145.3,376.0 L157.2,378.3 L169.1,363.6 L180.9,349.1 L192.8,343.9 L204.7,358.3 L216.5,393.1 L228.4,393.9 L240.2,351.4 L252.1,338.3 L264.0,338.6 L275.8,324.0 L287.7,325.6 L299.6,281.5 L311.4,271.6 L323.3,275.3 L335.2,262.2 L347.0,239.3 L358.9,224.7 L370.8,241.0 L382.6,221.3 L394.5,215.3 L406.4,224.8 L418.2,238.3 L430.1,246.7 L442.0,250.4 L453.8,242.4 L465.7,246.6 L477.6,253.0 L489.4,250.4 L501.3,254.1 L513.1,266.7 L525.0,250.2 L536.9,253.0 L548.7,242.7 L560.6,267.2 L572.5,265.2 L584.3,261.1 L596.2,277.3 L608.1,272.3 L619.9,282.0 L631.8,289.0 L643.7,305.9 L655.5,272.3 L667.4,269.5 L679.3,270.4 L691.1,258.2 L703.0,268.4 L714.9,273.3 L726.7,264.8 L738.6,242.7 L750.4,227.7 L762.3,236.9 L774.2,200.7 L786.0,219.3 L797.9,213.7 L809.8,203.6 L821.6,213.0 L833.5,180.5 L845.4,168.3 L857.2,158.7 L869.1,146.4 L881.0,140.9 L892.8,145.9 L904.7,127.8 L916.6,132.7 L928.4,142.2 L940.3,132.6 L952.2,154.9 L964.0,149.9 L975.9,167.4 L987.8,166.2 L999.6,167.3 L1011.5,140.4 L1023.3,161.8 L1035.2,185.2 L1047.1,170.1 L1058.9,161.6 L1070.8,162.2 L1082.7,213.8 L1094.5,202.5 L1106.4,224.6 L1118.3,240.8 L1130.1,245.3 L1142.0,216.7" fill="none" stroke="#62d9ee" stroke-width="4" stroke-linecap="round" stroke-linejoin="round"/>
  <g>
    <line x1="1082.7" x2="1082.7" y1="100" y2="434" stroke="#18e59c" stroke-width="2" stroke-dasharray="7 7" opacity="0.8"/>
    <circle cx="1082.7" cy="201.6" r="8" fill="#071f1c" stroke="#18e59c" stroke-width="4"/>
    <text x="1030.0" y="183.6" text-anchor="middle" class="marker" fill="#18e59c">ENTRY | Jul 14 | $135.02</text>
  </g>
  
  <text x="86.0" y="472" text-anchor="middle" class="axis">Mar 12</text><text x="347.0" y="472" text-anchor="middle" class="axis">Apr 14</text><text x="619.9" y="472" text-anchor="middle" class="axis">May 15</text><text x="881.0" y="472" text-anchor="middle" class="axis">Jun 17</text><text x="1142.0" y="472" text-anchor="middle" class="axis">Jul 21</text>
  </svg>