<svg xmlns="http://www.w3.org/2000/svg" width="1200" height="500" viewBox="0 0 1200 500" role="img" aria-label="C underlying price from entry">
  <rect width="1200" height="500" fill="#071f1c"/>
  <style>.head{fill:#f4fff9;font:800 27px Georgia,serif}.sub{fill:#9fc4bb;font:14px Arial,sans-serif}.axis{fill:#8eaaa3;font:12px Arial,sans-serif}.marker{font:800 12px Arial,sans-serif}</style>
  <text x="86" y="40" class="head">C Underlying Price</text>
  <text x="86" y="66" class="sub">90 sessions | Entry marked; position remains open | Published option idea rank 3</text>
  <line x1="86" x2="1142" y1="100.0" y2="100.0" stroke="#1b4a42" stroke-width="1"/><text x="72" y="105.0" text-anchor="end" class="axis">$149.69</text><line x1="86" x2="1142" y1="183.5" y2="183.5" stroke="#1b4a42" stroke-width="1"/><text x="72" y="188.5" text-anchor="end" class="axis">$137.64</text><line x1="86" x2="1142" y1="267.0" y2="267.0" stroke="#1b4a42" stroke-width="1"/><text x="72" y="272.0" text-anchor="end" class="axis">$125.58</text><line x1="86" x2="1142" y1="350.5" y2="350.5" stroke="#1b4a42" stroke-width="1"/><text x="72" y="355.5" text-anchor="end" class="axis">$113.53</text><line x1="86" x2="1142" y1="434.0" y2="434.0" stroke="#1b4a42" stroke-width="1"/><text x="72" y="439.0" text-anchor="end" class="axis">$101.48</text>
  <path d="M86.0,398.6 L97.9,382.1 L109.7,380.6 L121.6,406.2 L133.5,404.9 L145.3,393.3 L157.2,390.9 L169.1,384.2 L180.9,376.0 L192.8,378.3 L204.7,363.6 L216.5,349.1 L228.4,343.9 L240.2,358.3 L252.1,393.1 L264.0,393.9 L275.8,351.4 L287.7,338.3 L299.6,338.6 L311.4,324.0 L323.3,325.6 L335.2,281.5 L347.0,271.6 L358.9,275.3 L370.8,262.2 L382.6,239.3 L394.5,224.7 L406.4,241.0 L418.2,221.3 L430.1,215.3 L442.0,224.8 L453.8,238.3 L465.7,246.7 L477.6,250.4 L489.4,242.4 L501.3,246.6 L513.1,253.0 L525.0,250.4 L536.9,254.1 L548.7,266.7 L560.6,250.2 L572.5,253.0 L584.3,242.7 L596.2,267.2 L608.1,265.2 L619.9,261.1 L631.8,277.3 L643.7,272.3 L655.5,282.0 L667.4,289.0 L679.3,305.9 L691.1,272.3 L703.0,269.5 L714.9,270.4 L726.7,258.2 L738.6,268.4 L750.4,273.3 L762.3,264.8 L774.2,242.7 L786.0,227.7 L797.9,236.9 L809.8,200.7 L821.6,219.3 L833.5,213.7 L845.4,203.6 L857.2,213.0 L869.1,180.5 L881.0,168.3 L892.8,158.7 L904.7,146.4 L916.6,140.9 L928.4,145.9 L940.3,127.8 L952.2,132.7 L964.0,142.2 L975.9,132.6 L987.8,154.9 L999.6,149.9 L1011.5,167.4 L1023.3,166.2 L1035.2,167.3 L1047.1,140.4 L1058.9,161.8 L1070.8,185.2 L1082.7,170.1 L1094.5,161.6 L1106.4,162.2 L1118.3,213.8 L1130.1,202.5 L1142.0,224.6 L1142.0,434.0 L86.0,434.0 Z" fill="#0f5949" opacity="0.28"/>
  <path d="M86.0,398.6 L97.9,382.1 L109.7,380.6 L121.6,406.2 L133.5,404.9 L145.3,393.3 L157.2,390.9 L169.1,384.2 L180.9,376.0 L192.8,378.3 L204.7,363.6 L216.5,349.1 L228.4,343.9 L240.2,358.3 L252.1,393.1 L264.0,393.9 L275.8,351.4 L287.7,338.3 L299.6,338.6 L311.4,324.0 L323.3,325.6 L335.2,281.5 L347.0,271.6 L358.9,275.3 L370.8,262.2 L382.6,239.3 L394.5,224.7 L406.4,241.0 L418.2,221.3 L430.1,215.3 L442.0,224.8 L453.8,238.3 L465.7,246.7 L477.6,250.4 L489.4,242.4 L501.3,246.6 L513.1,253.0 L525.0,250.4 L536.9,254.1 L548.7,266.7 L560.6,250.2 L572.5,253.0 L584.3,242.7 L596.2,267.2 L608.1,265.2 L619.9,261.1 L631.8,277.3 L643.7,272.3 L655.5,282.0 L667.4,289.0 L679.3,305.9 L691.1,272.3 L703.0,269.5 L714.9,270.4 L726.7,258.2 L738.6,268.4 L750.4,273.3 L762.3,264.8 L774.2,242.7 L786.0,227.7 L797.9,236.9 L809.8,200.7 L821.6,219.3 L833.5,213.7 L845.4,203.6 L857.2,213.0 L869.1,180.5 L881.0,168.3 L892.8,158.7 L904.7,146.4 L916.6,140.9 L928.4,145.9 L940.3,127.8 L952.2,132.7 L964.0,142.2 L975.9,132.6 L987.8,154.9 L999.6,149.9 L1011.5,167.4 L1023.3,166.2 L1035.2,167.3 L1047.1,140.4 L1058.9,161.8 L1070.8,185.2 L1082.7,170.1 L1094.5,161.6 L1106.4,162.2 L1118.3,213.8 L1130.1,202.5 L1142.0,224.6" fill="none" stroke="#62d9ee" stroke-width="4" stroke-linecap="round" stroke-linejoin="round"/>
  <g>
    <line x1="1118.3" x2="1118.3" y1="100" y2="434" stroke="#18e59c" stroke-width="2" stroke-dasharray="7 7" opacity="0.8"/>
    <circle cx="1118.3" cy="201.6" r="8" fill="#071f1c" stroke="#18e59c" stroke-width="4"/>
    <text x="1030.0" y="183.6" text-anchor="middle" class="marker" fill="#18e59c">ENTRY | Jul 14 | $135.02</text>
  </g>
  
  <text x="86.0" y="472" text-anchor="middle" class="axis">Mar 9</text><text x="347.0" y="472" text-anchor="middle" class="axis">Apr 9</text><text x="619.9" y="472" text-anchor="middle" class="axis">May 12</text><text x="881.0" y="472" text-anchor="middle" class="axis">Jun 12</text><text x="1142.0" y="472" text-anchor="middle" class="axis">Jul 16</text>
  </svg>