<svg xmlns="http://www.w3.org/2000/svg" width="1200" height="500" viewBox="0 0 1200 500" role="img" aria-label="C underlying price from entry">
  <rect width="1200" height="500" fill="#071f1c"/>
  <style>.head{fill:#f4fff9;font:800 27px Georgia,serif}.sub{fill:#9fc4bb;font:14px Arial,sans-serif}.axis{fill:#8eaaa3;font:12px Arial,sans-serif}.marker{font:800 12px Arial,sans-serif}</style>
  <text x="86" y="40" class="head">C Underlying Price</text>
  <text x="86" y="66" class="sub">90 sessions | Entry marked; position remains open | Published option idea rank 3</text>
  <line x1="86" x2="1142" y1="100.0" y2="100.0" stroke="#1b4a42" stroke-width="1"/><text x="72" y="105.0" text-anchor="end" class="axis">$149.67</text><line x1="86" x2="1142" y1="183.5" y2="183.5" stroke="#1b4a42" stroke-width="1"/><text x="72" y="188.5" text-anchor="end" class="axis">$137.67</text><line x1="86" x2="1142" y1="267.0" y2="267.0" stroke="#1b4a42" stroke-width="1"/><text x="72" y="272.0" text-anchor="end" class="axis">$125.68</text><line x1="86" x2="1142" y1="350.5" y2="350.5" stroke="#1b4a42" stroke-width="1"/><text x="72" y="355.5" text-anchor="end" class="axis">$113.69</text><line x1="86" x2="1142" y1="434.0" y2="434.0" stroke="#1b4a42" stroke-width="1"/><text x="72" y="439.0" text-anchor="end" class="axis">$101.69</text>
  <path d="M86.0,406.2 L97.9,394.6 L109.7,392.1 L121.6,385.4 L133.5,377.2 L145.3,379.5 L157.2,364.7 L169.1,350.1 L180.9,345.0 L192.8,359.4 L204.7,394.4 L216.5,395.2 L228.4,352.4 L240.2,339.3 L252.1,339.6 L264.0,324.9 L275.8,326.5 L287.7,282.2 L299.6,272.3 L311.4,276.0 L323.3,262.8 L335.2,239.8 L347.0,225.2 L358.9,241.5 L370.8,221.7 L382.6,215.7 L394.5,225.2 L406.4,238.8 L418.2,247.3 L430.1,251.0 L442.0,242.9 L453.8,247.2 L465.7,253.6 L477.6,251.0 L489.4,254.7 L501.3,267.3 L513.1,250.8 L525.0,253.6 L536.9,243.3 L548.7,267.9 L560.6,265.8 L572.5,261.7 L584.3,278.0 L596.2,273.0 L608.1,282.7 L619.9,289.8 L631.8,306.8 L643.7,273.0 L655.5,270.2 L667.4,271.1 L679.3,258.8 L691.1,269.0 L703.0,274.0 L714.9,265.5 L726.7,243.3 L738.6,228.2 L750.4,237.4 L762.3,201.1 L774.2,219.7 L786.0,214.1 L797.9,204.0 L809.8,213.4 L821.6,180.7 L833.5,168.5 L845.4,158.9 L857.2,146.5 L869.1,141.0 L881.0,146.0 L892.8,127.8 L904.7,132.7 L916.6,142.3 L928.4,132.6 L940.3,155.1 L952.2,150.0 L964.0,167.6 L975.9,166.4 L987.8,167.5 L999.6,140.4 L1011.5,161.9 L1023.3,185.5 L1035.2,170.3 L1047.1,161.8 L1058.9,162.4 L1070.8,214.2 L1082.7,202.9 L1094.5,225.0 L1106.4,241.4 L1118.3,245.8 L1130.1,217.2 L1142.0,221.3 L1142.0,434.0 L86.0,434.0 Z" fill="#0f5949" opacity="0.28"/>
  <path d="M86.0,406.2 L97.9,394.6 L109.7,392.1 L121.6,385.4 L133.5,377.2 L145.3,379.5 L157.2,364.7 L169.1,350.1 L180.9,345.0 L192.8,359.4 L204.7,394.4 L216.5,395.2 L228.4,352.4 L240.2,339.3 L252.1,339.6 L264.0,324.9 L275.8,326.5 L287.7,282.2 L299.6,272.3 L311.4,276.0 L323.3,262.8 L335.2,239.8 L347.0,225.2 L358.9,241.5 L370.8,221.7 L382.6,215.7 L394.5,225.2 L406.4,238.8 L418.2,247.3 L430.1,251.0 L442.0,242.9 L453.8,247.2 L465.7,253.6 L477.6,251.0 L489.4,254.7 L501.3,267.3 L513.1,250.8 L525.0,253.6 L536.9,243.3 L548.7,267.9 L560.6,265.8 L572.5,261.7 L584.3,278.0 L596.2,273.0 L608.1,282.7 L619.9,289.8 L631.8,306.8 L643.7,273.0 L655.5,270.2 L667.4,271.1 L679.3,258.8 L691.1,269.0 L703.0,274.0 L714.9,265.5 L726.7,243.3 L738.6,228.2 L750.4,237.4 L762.3,201.1 L774.2,219.7 L786.0,214.1 L797.9,204.0 L809.8,213.4 L821.6,180.7 L833.5,168.5 L845.4,158.9 L857.2,146.5 L869.1,141.0 L881.0,146.0 L892.8,127.8 L904.7,132.7 L916.6,142.3 L928.4,132.6 L940.3,155.1 L952.2,150.0 L964.0,167.6 L975.9,166.4 L987.8,167.5 L999.6,140.4 L1011.5,161.9 L1023.3,185.5 L1035.2,170.3 L1047.1,161.8 L1058.9,162.4 L1070.8,214.2 L1082.7,202.9 L1094.5,225.0 L1106.4,241.4 L1118.3,245.8 L1130.1,217.2 L1142.0,221.3" fill="none" stroke="#62d9ee" stroke-width="4" stroke-linecap="round" stroke-linejoin="round"/>
  <g>
    <line x1="1070.8" x2="1070.8" y1="100" y2="434" stroke="#18e59c" stroke-width="2" stroke-dasharray="7 7" opacity="0.8"/>
    <circle cx="1070.8" cy="202.0" r="8" fill="#071f1c" stroke="#18e59c" stroke-width="4"/>
    <text x="1030.0" y="184.0" text-anchor="middle" class="marker" fill="#18e59c">ENTRY | Jul 14 | $135.02</text>
  </g>
  
  <text x="86.0" y="472" text-anchor="middle" class="axis">Mar 13</text><text x="347.0" y="472" text-anchor="middle" class="axis">Apr 15</text><text x="619.9" y="472" text-anchor="middle" class="axis">May 18</text><text x="881.0" y="472" text-anchor="middle" class="axis">Jun 18</text><text x="1142.0" y="472" text-anchor="middle" class="axis">Jul 22</text>
  </svg>