<svg xmlns="http://www.w3.org/2000/svg" width="1200" height="500" viewBox="0 0 1200 500" role="img" aria-label="C underlying price from entry">
  <rect width="1200" height="500" fill="#071f1c"/>
  <style>.head{fill:#f4fff9;font:800 27px Georgia,serif}.sub{fill:#9fc4bb;font:14px Arial,sans-serif}.axis{fill:#8eaaa3;font:12px Arial,sans-serif}.marker{font:800 12px Arial,sans-serif}</style>
  <text x="86" y="40" class="head">C Underlying Price</text>
  <text x="86" y="66" class="sub">90 sessions | Entry marked; position remains open | Published option idea rank 3</text>
  <line x1="86" x2="1142" y1="100.0" y2="100.0" stroke="#1b4a42" stroke-width="1"/><text x="72" y="105.0" text-anchor="end" class="axis">$149.69</text><line x1="86" x2="1142" y1="183.5" y2="183.5" stroke="#1b4a42" stroke-width="1"/><text x="72" y="188.5" text-anchor="end" class="axis">$137.64</text><line x1="86" x2="1142" y1="267.0" y2="267.0" stroke="#1b4a42" stroke-width="1"/><text x="72" y="272.0" text-anchor="end" class="axis">$125.58</text><line x1="86" x2="1142" y1="350.5" y2="350.5" stroke="#1b4a42" stroke-width="1"/><text x="72" y="355.5" text-anchor="end" class="axis">$113.53</text><line x1="86" x2="1142" y1="434.0" y2="434.0" stroke="#1b4a42" stroke-width="1"/><text x="72" y="439.0" text-anchor="end" class="axis">$101.48</text>
  <path d="M86.0,382.3 L97.9,399.0 L109.7,398.6 L121.6,382.1 L133.5,380.6 L145.3,406.2 L157.2,404.9 L169.1,393.3 L180.9,390.9 L192.8,384.2 L204.7,376.0 L216.5,378.3 L228.4,363.6 L240.2,349.1 L252.1,343.9 L264.0,358.3 L275.8,393.1 L287.7,393.9 L299.6,351.4 L311.4,338.3 L323.3,338.6 L335.2,324.0 L347.0,325.6 L358.9,281.5 L370.8,271.6 L382.6,275.3 L394.5,262.2 L406.4,239.3 L418.2,224.7 L430.1,241.0 L442.0,221.3 L453.8,215.3 L465.7,224.8 L477.6,238.3 L489.4,246.7 L501.3,250.4 L513.1,242.4 L525.0,246.6 L536.9,253.0 L548.7,250.4 L560.6,254.1 L572.5,266.7 L584.3,250.2 L596.2,253.0 L608.1,242.7 L619.9,267.2 L631.8,265.2 L643.7,261.1 L655.5,277.3 L667.4,272.3 L679.3,282.0 L691.1,289.0 L703.0,305.9 L714.9,272.3 L726.7,269.5 L738.6,270.4 L750.4,258.2 L762.3,268.4 L774.2,273.3 L786.0,264.8 L797.9,242.7 L809.8,227.7 L821.6,236.9 L833.5,200.7 L845.4,219.3 L857.2,213.7 L869.1,203.6 L881.0,213.0 L892.8,180.5 L904.7,168.3 L916.6,158.7 L928.4,146.4 L940.3,140.9 L952.2,145.9 L964.0,127.8 L975.9,132.7 L987.8,142.2 L999.6,132.6 L1011.5,154.9 L1023.3,149.9 L1035.2,167.4 L1047.1,166.2 L1058.9,167.3 L1070.8,140.4 L1082.7,161.8 L1094.5,185.2 L1106.4,170.1 L1118.3,161.6 L1130.1,162.2 L1142.0,213.8 L1142.0,434.0 L86.0,434.0 Z" fill="#0f5949" opacity="0.28"/>
  <path d="M86.0,382.3 L97.9,399.0 L109.7,398.6 L121.6,382.1 L133.5,380.6 L145.3,406.2 L157.2,404.9 L169.1,393.3 L180.9,390.9 L192.8,384.2 L204.7,376.0 L216.5,378.3 L228.4,363.6 L240.2,349.1 L252.1,343.9 L264.0,358.3 L275.8,393.1 L287.7,393.9 L299.6,351.4 L311.4,338.3 L323.3,338.6 L335.2,324.0 L347.0,325.6 L358.9,281.5 L370.8,271.6 L382.6,275.3 L394.5,262.2 L406.4,239.3 L418.2,224.7 L430.1,241.0 L442.0,221.3 L453.8,215.3 L465.7,224.8 L477.6,238.3 L489.4,246.7 L501.3,250.4 L513.1,242.4 L525.0,246.6 L536.9,253.0 L548.7,250.4 L560.6,254.1 L572.5,266.7 L584.3,250.2 L596.2,253.0 L608.1,242.7 L619.9,267.2 L631.8,265.2 L643.7,261.1 L655.5,277.3 L667.4,272.3 L679.3,282.0 L691.1,289.0 L703.0,305.9 L714.9,272.3 L726.7,269.5 L738.6,270.4 L750.4,258.2 L762.3,268.4 L774.2,273.3 L786.0,264.8 L797.9,242.7 L809.8,227.7 L821.6,236.9 L833.5,200.7 L845.4,219.3 L857.2,213.7 L869.1,203.6 L881.0,213.0 L892.8,180.5 L904.7,168.3 L916.6,158.7 L928.4,146.4 L940.3,140.9 L952.2,145.9 L964.0,127.8 L975.9,132.7 L987.8,142.2 L999.6,132.6 L1011.5,154.9 L1023.3,149.9 L1035.2,167.4 L1047.1,166.2 L1058.9,167.3 L1070.8,140.4 L1082.7,161.8 L1094.5,185.2 L1106.4,170.1 L1118.3,161.6 L1130.1,162.2 L1142.0,213.8" fill="none" stroke="#62d9ee" stroke-width="4" stroke-linecap="round" stroke-linejoin="round"/>
  <g>
    <line x1="1142.0" x2="1142.0" y1="100" y2="434" stroke="#18e59c" stroke-width="2" stroke-dasharray="7 7" opacity="0.8"/>
    <circle cx="1142.0" cy="201.6" r="8" fill="#071f1c" stroke="#18e59c" stroke-width="4"/>
    <text x="1030.0" y="183.6" text-anchor="middle" class="marker" fill="#18e59c">ENTRY | Jul 14 | $135.02</text>
  </g>
  
  <text x="86.0" y="472" text-anchor="middle" class="axis">Mar 5</text><text x="347.0" y="472" text-anchor="middle" class="axis">Apr 7</text><text x="619.9" y="472" text-anchor="middle" class="axis">May 8</text><text x="881.0" y="472" text-anchor="middle" class="axis">Jun 10</text><text x="1142.0" y="472" text-anchor="middle" class="axis">Jul 14</text>
  </svg>