<svg xmlns="http://www.w3.org/2000/svg" width="1200" height="500" viewBox="0 0 1200 500" role="img" aria-label="C underlying price from entry">
  <rect width="1200" height="500" fill="#071f1c"/>
  <style>.head{fill:#f4fff9;font:800 27px Georgia,serif}.sub{fill:#9fc4bb;font:14px Arial,sans-serif}.axis{fill:#8eaaa3;font:12px Arial,sans-serif}.marker{font:800 12px Arial,sans-serif}</style>
  <text x="86" y="40" class="head">C Underlying Price</text>
  <text x="86" y="66" class="sub">90 sessions | Entry marked; position remains open | Published option idea rank 3</text>
  <line x1="86" x2="1142" y1="100.0" y2="100.0" stroke="#1b4a42" stroke-width="1"/><text x="72" y="105.0" text-anchor="end" class="axis">$149.69</text><line x1="86" x2="1142" y1="183.5" y2="183.5" stroke="#1b4a42" stroke-width="1"/><text x="72" y="188.5" text-anchor="end" class="axis">$137.64</text><line x1="86" x2="1142" y1="267.0" y2="267.0" stroke="#1b4a42" stroke-width="1"/><text x="72" y="272.0" text-anchor="end" class="axis">$125.58</text><line x1="86" x2="1142" y1="350.5" y2="350.5" stroke="#1b4a42" stroke-width="1"/><text x="72" y="355.5" text-anchor="end" class="axis">$113.53</text><line x1="86" x2="1142" y1="434.0" y2="434.0" stroke="#1b4a42" stroke-width="1"/><text x="72" y="439.0" text-anchor="end" class="axis">$101.48</text>
  <path d="M86.0,399.0 L97.9,398.6 L109.7,382.1 L121.6,380.6 L133.5,406.2 L145.3,404.9 L157.2,393.3 L169.1,390.9 L180.9,384.2 L192.8,376.0 L204.7,378.3 L216.5,363.6 L228.4,349.1 L240.2,343.9 L252.1,358.3 L264.0,393.1 L275.8,393.9 L287.7,351.4 L299.6,338.3 L311.4,338.6 L323.3,324.0 L335.2,325.6 L347.0,281.5 L358.9,271.6 L370.8,275.3 L382.6,262.2 L394.5,239.3 L406.4,224.7 L418.2,241.0 L430.1,221.3 L442.0,215.3 L453.8,224.8 L465.7,238.3 L477.6,246.7 L489.4,250.4 L501.3,242.4 L513.1,246.6 L525.0,253.0 L536.9,250.4 L548.7,254.1 L560.6,266.7 L572.5,250.2 L584.3,253.0 L596.2,242.7 L608.1,267.2 L619.9,265.2 L631.8,261.1 L643.7,277.3 L655.5,272.3 L667.4,282.0 L679.3,289.0 L691.1,305.9 L703.0,272.3 L714.9,269.5 L726.7,270.4 L738.6,258.2 L750.4,268.4 L762.3,273.3 L774.2,264.8 L786.0,242.7 L797.9,227.7 L809.8,236.9 L821.6,200.7 L833.5,219.3 L845.4,213.7 L857.2,203.6 L869.1,213.0 L881.0,180.5 L892.8,168.3 L904.7,158.7 L916.6,146.4 L928.4,140.9 L940.3,145.9 L952.2,127.8 L964.0,132.7 L975.9,142.2 L987.8,132.6 L999.6,154.9 L1011.5,149.9 L1023.3,167.4 L1035.2,166.2 L1047.1,167.3 L1058.9,140.4 L1070.8,161.8 L1082.7,185.2 L1094.5,170.1 L1106.4,161.6 L1118.3,162.2 L1130.1,213.8 L1142.0,202.5 L1142.0,434.0 L86.0,434.0 Z" fill="#0f5949" opacity="0.28"/>
  <path d="M86.0,399.0 L97.9,398.6 L109.7,382.1 L121.6,380.6 L133.5,406.2 L145.3,404.9 L157.2,393.3 L169.1,390.9 L180.9,384.2 L192.8,376.0 L204.7,378.3 L216.5,363.6 L228.4,349.1 L240.2,343.9 L252.1,358.3 L264.0,393.1 L275.8,393.9 L287.7,351.4 L299.6,338.3 L311.4,338.6 L323.3,324.0 L335.2,325.6 L347.0,281.5 L358.9,271.6 L370.8,275.3 L382.6,262.2 L394.5,239.3 L406.4,224.7 L418.2,241.0 L430.1,221.3 L442.0,215.3 L453.8,224.8 L465.7,238.3 L477.6,246.7 L489.4,250.4 L501.3,242.4 L513.1,246.6 L525.0,253.0 L536.9,250.4 L548.7,254.1 L560.6,266.7 L572.5,250.2 L584.3,253.0 L596.2,242.7 L608.1,267.2 L619.9,265.2 L631.8,261.1 L643.7,277.3 L655.5,272.3 L667.4,282.0 L679.3,289.0 L691.1,305.9 L703.0,272.3 L714.9,269.5 L726.7,270.4 L738.6,258.2 L750.4,268.4 L762.3,273.3 L774.2,264.8 L786.0,242.7 L797.9,227.7 L809.8,236.9 L821.6,200.7 L833.5,219.3 L845.4,213.7 L857.2,203.6 L869.1,213.0 L881.0,180.5 L892.8,168.3 L904.7,158.7 L916.6,146.4 L928.4,140.9 L940.3,145.9 L952.2,127.8 L964.0,132.7 L975.9,142.2 L987.8,132.6 L999.6,154.9 L1011.5,149.9 L1023.3,167.4 L1035.2,166.2 L1047.1,167.3 L1058.9,140.4 L1070.8,161.8 L1082.7,185.2 L1094.5,170.1 L1106.4,161.6 L1118.3,162.2 L1130.1,213.8 L1142.0,202.5" fill="none" stroke="#62d9ee" stroke-width="4" stroke-linecap="round" stroke-linejoin="round"/>
  <g>
    <line x1="1130.1" x2="1130.1" y1="100" y2="434" stroke="#18e59c" stroke-width="2" stroke-dasharray="7 7" opacity="0.8"/>
    <circle cx="1130.1" cy="201.6" r="8" fill="#071f1c" stroke="#18e59c" stroke-width="4"/>
    <text x="1030.0" y="183.6" text-anchor="middle" class="marker" fill="#18e59c">ENTRY | Jul 14 | $135.02</text>
  </g>
  
  <text x="86.0" y="472" text-anchor="middle" class="axis">Mar 6</text><text x="347.0" y="472" text-anchor="middle" class="axis">Apr 8</text><text x="619.9" y="472" text-anchor="middle" class="axis">May 11</text><text x="881.0" y="472" text-anchor="middle" class="axis">Jun 11</text><text x="1142.0" y="472" text-anchor="middle" class="axis">Jul 15</text>
  </svg>