<svg xmlns="http://www.w3.org/2000/svg" width="1200" height="500" viewBox="0 0 1200 500" role="img" aria-label="C underlying price from entry">
  <rect width="1200" height="500" fill="#071f1c"/>
  <style>.head{fill:#f4fff9;font:800 27px Georgia,serif}.sub{fill:#9fc4bb;font:14px Arial,sans-serif}.axis{fill:#8eaaa3;font:12px Arial,sans-serif}.marker{font:800 12px Arial,sans-serif}</style>
  <text x="86" y="40" class="head">C Underlying Price</text>
  <text x="86" y="66" class="sub">90 sessions | Entry marked; position remains open | Published option idea rank 3</text>
  <line x1="86" x2="1142" y1="100.0" y2="100.0" stroke="#1b4a42" stroke-width="1"/><text x="72" y="105.0" text-anchor="end" class="axis">$149.69</text><line x1="86" x2="1142" y1="183.5" y2="183.5" stroke="#1b4a42" stroke-width="1"/><text x="72" y="188.5" text-anchor="end" class="axis">$137.64</text><line x1="86" x2="1142" y1="267.0" y2="267.0" stroke="#1b4a42" stroke-width="1"/><text x="72" y="272.0" text-anchor="end" class="axis">$125.58</text><line x1="86" x2="1142" y1="350.5" y2="350.5" stroke="#1b4a42" stroke-width="1"/><text x="72" y="355.5" text-anchor="end" class="axis">$113.53</text><line x1="86" x2="1142" y1="434.0" y2="434.0" stroke="#1b4a42" stroke-width="1"/><text x="72" y="439.0" text-anchor="end" class="axis">$101.48</text>
  <path d="M86.0,380.6 L97.9,406.2 L109.7,404.9 L121.6,393.3 L133.5,390.9 L145.3,384.2 L157.2,376.0 L169.1,378.3 L180.9,363.6 L192.8,349.1 L204.7,343.9 L216.5,358.3 L228.4,393.1 L240.2,393.9 L252.1,351.4 L264.0,338.3 L275.8,338.6 L287.7,324.0 L299.6,325.6 L311.4,281.5 L323.3,271.6 L335.2,275.3 L347.0,262.2 L358.9,239.3 L370.8,224.7 L382.6,241.0 L394.5,221.3 L406.4,215.3 L418.2,224.8 L430.1,238.3 L442.0,246.7 L453.8,250.4 L465.7,242.4 L477.6,246.6 L489.4,253.0 L501.3,250.4 L513.1,254.1 L525.0,266.7 L536.9,250.2 L548.7,253.0 L560.6,242.7 L572.5,267.2 L584.3,265.2 L596.2,261.1 L608.1,277.3 L619.9,272.3 L631.8,282.0 L643.7,289.0 L655.5,305.9 L667.4,272.3 L679.3,269.5 L691.1,270.4 L703.0,258.2 L714.9,268.4 L726.7,273.3 L738.6,264.8 L750.4,242.7 L762.3,227.7 L774.2,236.9 L786.0,200.7 L797.9,219.3 L809.8,213.7 L821.6,203.6 L833.5,213.0 L845.4,180.5 L857.2,168.3 L869.1,158.7 L881.0,146.4 L892.8,140.9 L904.7,145.9 L916.6,127.8 L928.4,132.7 L940.3,142.2 L952.2,132.6 L964.0,154.9 L975.9,149.9 L987.8,167.4 L999.6,166.2 L1011.5,167.3 L1023.3,140.4 L1035.2,161.8 L1047.1,185.2 L1058.9,170.1 L1070.8,161.6 L1082.7,162.2 L1094.5,213.8 L1106.4,202.5 L1118.3,224.6 L1130.1,240.8 L1142.0,245.3 L1142.0,434.0 L86.0,434.0 Z" fill="#0f5949" opacity="0.28"/>
  <path d="M86.0,380.6 L97.9,406.2 L109.7,404.9 L121.6,393.3 L133.5,390.9 L145.3,384.2 L157.2,376.0 L169.1,378.3 L180.9,363.6 L192.8,349.1 L204.7,343.9 L216.5,358.3 L228.4,393.1 L240.2,393.9 L252.1,351.4 L264.0,338.3 L275.8,338.6 L287.7,324.0 L299.6,325.6 L311.4,281.5 L323.3,271.6 L335.2,275.3 L347.0,262.2 L358.9,239.3 L370.8,224.7 L382.6,241.0 L394.5,221.3 L406.4,215.3 L418.2,224.8 L430.1,238.3 L442.0,246.7 L453.8,250.4 L465.7,242.4 L477.6,246.6 L489.4,253.0 L501.3,250.4 L513.1,254.1 L525.0,266.7 L536.9,250.2 L548.7,253.0 L560.6,242.7 L572.5,267.2 L584.3,265.2 L596.2,261.1 L608.1,277.3 L619.9,272.3 L631.8,282.0 L643.7,289.0 L655.5,305.9 L667.4,272.3 L679.3,269.5 L691.1,270.4 L703.0,258.2 L714.9,268.4 L726.7,273.3 L738.6,264.8 L750.4,242.7 L762.3,227.7 L774.2,236.9 L786.0,200.7 L797.9,219.3 L809.8,213.7 L821.6,203.6 L833.5,213.0 L845.4,180.5 L857.2,168.3 L869.1,158.7 L881.0,146.4 L892.8,140.9 L904.7,145.9 L916.6,127.8 L928.4,132.7 L940.3,142.2 L952.2,132.6 L964.0,154.9 L975.9,149.9 L987.8,167.4 L999.6,166.2 L1011.5,167.3 L1023.3,140.4 L1035.2,161.8 L1047.1,185.2 L1058.9,170.1 L1070.8,161.6 L1082.7,162.2 L1094.5,213.8 L1106.4,202.5 L1118.3,224.6 L1130.1,240.8 L1142.0,245.3" fill="none" stroke="#62d9ee" stroke-width="4" stroke-linecap="round" stroke-linejoin="round"/>
  <g>
    <line x1="1094.5" x2="1094.5" y1="100" y2="434" stroke="#18e59c" stroke-width="2" stroke-dasharray="7 7" opacity="0.8"/>
    <circle cx="1094.5" cy="201.6" r="8" fill="#071f1c" stroke="#18e59c" stroke-width="4"/>
    <text x="1030.0" y="183.6" text-anchor="middle" class="marker" fill="#18e59c">ENTRY | Jul 14 | $135.02</text>
  </g>
  
  <text x="86.0" y="472" text-anchor="middle" class="axis">Mar 11</text><text x="347.0" y="472" text-anchor="middle" class="axis">Apr 13</text><text x="619.9" y="472" text-anchor="middle" class="axis">May 14</text><text x="881.0" y="472" text-anchor="middle" class="axis">Jun 16</text><text x="1142.0" y="472" text-anchor="middle" class="axis">Jul 20</text>
  </svg>