<svg xmlns="http://www.w3.org/2000/svg" width="1200" height="500" viewBox="0 0 1200 500" role="img" aria-label="T underlying price from entry">
  <rect width="1200" height="500" fill="#071f1c"/>
  <style>.head{fill:#f4fff9;font:800 27px Georgia,serif}.sub{fill:#9fc4bb;font:14px Arial,sans-serif}.axis{fill:#8eaaa3;font:12px Arial,sans-serif}.marker{font:800 12px Arial,sans-serif}</style>
  <text x="86" y="40" class="head">T Underlying Price</text>
  <text x="86" y="66" class="sub">90 sessions | Entry marked; position remains open | Published option idea rank 4</text>
  <line x1="86" x2="1142" y1="100.0" y2="100.0" stroke="#1b4a42" stroke-width="1"/><text x="72" y="105.0" text-anchor="end" class="axis">$29.96</text><line x1="86" x2="1142" y1="183.5" y2="183.5" stroke="#1b4a42" stroke-width="1"/><text x="72" y="188.5" text-anchor="end" class="axis">$27.38</text><line x1="86" x2="1142" y1="267.0" y2="267.0" stroke="#1b4a42" stroke-width="1"/><text x="72" y="272.0" text-anchor="end" class="axis">$24.79</text><line x1="86" x2="1142" y1="350.5" y2="350.5" stroke="#1b4a42" stroke-width="1"/><text x="72" y="355.5" text-anchor="end" class="axis">$22.20</text><line x1="86" x2="1142" y1="434.0" y2="434.0" stroke="#1b4a42" stroke-width="1"/><text x="72" y="439.0" text-anchor="end" class="axis">$19.62</text>
  <path d="M86.0,172.4 L97.9,172.1 L109.7,168.2 L121.6,182.4 L133.5,171.7 L145.3,153.3 L157.2,138.8 L169.1,135.3 L180.9,137.2 L192.8,133.6 L204.7,127.8 L216.5,138.2 L228.4,131.4 L240.2,153.3 L252.1,152.7 L264.0,153.0 L275.8,162.1 L287.7,184.3 L299.6,200.8 L311.4,213.1 L323.3,240.5 L335.2,240.2 L347.0,245.4 L358.9,215.0 L370.8,211.5 L382.6,222.1 L394.5,231.8 L406.4,228.6 L418.2,208.2 L430.1,221.5 L442.0,243.4 L453.8,226.0 L465.7,236.0 L477.6,223.7 L489.4,224.1 L501.3,224.7 L513.1,231.2 L525.0,241.8 L536.9,251.8 L548.7,255.1 L560.6,264.4 L572.5,252.8 L584.3,268.6 L596.2,271.5 L608.1,291.5 L619.9,278.6 L631.8,260.9 L643.7,262.5 L655.5,249.2 L667.4,251.8 L679.3,259.6 L691.1,263.8 L703.0,264.1 L714.9,266.7 L726.7,274.7 L738.6,271.8 L750.4,307.0 L762.3,332.2 L774.2,332.9 L786.0,340.9 L797.9,334.2 L809.8,318.0 L821.6,324.8 L833.5,306.1 L845.4,315.4 L857.2,319.6 L869.1,342.9 L881.0,356.8 L892.8,353.9 L904.7,330.9 L916.6,345.1 L928.4,343.5 L940.3,333.8 L952.2,362.9 L964.0,399.1 L975.9,406.2 L987.8,402.9 L999.6,402.9 L1011.5,386.5 L1023.3,385.5 L1035.2,388.1 L1047.1,385.2 L1058.9,371.6 L1070.8,380.3 L1082.7,375.5 L1094.5,357.7 L1106.4,363.2 L1118.3,358.7 L1130.1,348.7 L1142.0,323.5 L1142.0,434.0 L86.0,434.0 Z" fill="#0f5949" opacity="0.28"/>
  <path d="M86.0,172.4 L97.9,172.1 L109.7,168.2 L121.6,182.4 L133.5,171.7 L145.3,153.3 L157.2,138.8 L169.1,135.3 L180.9,137.2 L192.8,133.6 L204.7,127.8 L216.5,138.2 L228.4,131.4 L240.2,153.3 L252.1,152.7 L264.0,153.0 L275.8,162.1 L287.7,184.3 L299.6,200.8 L311.4,213.1 L323.3,240.5 L335.2,240.2 L347.0,245.4 L358.9,215.0 L370.8,211.5 L382.6,222.1 L394.5,231.8 L406.4,228.6 L418.2,208.2 L430.1,221.5 L442.0,243.4 L453.8,226.0 L465.7,236.0 L477.6,223.7 L489.4,224.1 L501.3,224.7 L513.1,231.2 L525.0,241.8 L536.9,251.8 L548.7,255.1 L560.6,264.4 L572.5,252.8 L584.3,268.6 L596.2,271.5 L608.1,291.5 L619.9,278.6 L631.8,260.9 L643.7,262.5 L655.5,249.2 L667.4,251.8 L679.3,259.6 L691.1,263.8 L703.0,264.1 L714.9,266.7 L726.7,274.7 L738.6,271.8 L750.4,307.0 L762.3,332.2 L774.2,332.9 L786.0,340.9 L797.9,334.2 L809.8,318.0 L821.6,324.8 L833.5,306.1 L845.4,315.4 L857.2,319.6 L869.1,342.9 L881.0,356.8 L892.8,353.9 L904.7,330.9 L916.6,345.1 L928.4,343.5 L940.3,333.8 L952.2,362.9 L964.0,399.1 L975.9,406.2 L987.8,402.9 L999.6,402.9 L1011.5,386.5 L1023.3,385.5 L1035.2,388.1 L1047.1,385.2 L1058.9,371.6 L1070.8,380.3 L1082.7,375.5 L1094.5,357.7 L1106.4,363.2 L1118.3,358.7 L1130.1,348.7 L1142.0,323.5" fill="none" stroke="#62d9ee" stroke-width="4" stroke-linecap="round" stroke-linejoin="round"/>
  <g>
    <line x1="1070.8" x2="1070.8" y1="100" y2="434" stroke="#18e59c" stroke-width="2" stroke-dasharray="7 7" opacity="0.8"/>
    <circle cx="1070.8" cy="379.2" r="8" fill="#071f1c" stroke="#18e59c" stroke-width="4"/>
    <text x="1030.0" y="361.2" text-anchor="middle" class="marker" fill="#18e59c">ENTRY | Jul 14 | $21.32</text>
  </g>
  
  <text x="86.0" y="472" text-anchor="middle" class="axis">Mar 13</text><text x="347.0" y="472" text-anchor="middle" class="axis">Apr 15</text><text x="619.9" y="472" text-anchor="middle" class="axis">May 18</text><text x="881.0" y="472" text-anchor="middle" class="axis">Jun 18</text><text x="1142.0" y="472" text-anchor="middle" class="axis">Jul 22</text>
  </svg>