<svg xmlns="http://www.w3.org/2000/svg" width="1200" height="500" viewBox="0 0 1200 500" role="img" aria-label="T underlying price from entry">
  <rect width="1200" height="500" fill="#071f1c"/>
  <style>.head{fill:#f4fff9;font:800 27px Georgia,serif}.sub{fill:#9fc4bb;font:14px Arial,sans-serif}.axis{fill:#8eaaa3;font:12px Arial,sans-serif}.marker{font:800 12px Arial,sans-serif}</style>
  <text x="86" y="40" class="head">T Underlying Price</text>
  <text x="86" y="66" class="sub">90 sessions | Entry marked; position remains open | Published option idea rank 4</text>
  <line x1="86" x2="1142" y1="100.0" y2="100.0" stroke="#1b4a42" stroke-width="1"/><text x="72" y="105.0" text-anchor="end" class="axis">$29.96</text><line x1="86" x2="1142" y1="183.5" y2="183.5" stroke="#1b4a42" stroke-width="1"/><text x="72" y="188.5" text-anchor="end" class="axis">$27.38</text><line x1="86" x2="1142" y1="267.0" y2="267.0" stroke="#1b4a42" stroke-width="1"/><text x="72" y="272.0" text-anchor="end" class="axis">$24.79</text><line x1="86" x2="1142" y1="350.5" y2="350.5" stroke="#1b4a42" stroke-width="1"/><text x="72" y="355.5" text-anchor="end" class="axis">$22.20</text><line x1="86" x2="1142" y1="434.0" y2="434.0" stroke="#1b4a42" stroke-width="1"/><text x="72" y="439.0" text-anchor="end" class="axis">$19.62</text>
  <path d="M86.0,190.5 L97.9,183.0 L109.7,172.4 L121.6,172.1 L133.5,168.2 L145.3,182.4 L157.2,171.7 L169.1,153.3 L180.9,138.8 L192.8,135.3 L204.7,137.2 L216.5,133.6 L228.4,127.8 L240.2,138.2 L252.1,131.4 L264.0,153.3 L275.8,152.7 L287.7,153.0 L299.6,162.1 L311.4,184.3 L323.3,200.8 L335.2,213.1 L347.0,240.5 L358.9,240.2 L370.8,245.4 L382.6,215.0 L394.5,211.5 L406.4,222.1 L418.2,231.8 L430.1,228.6 L442.0,208.2 L453.8,221.5 L465.7,243.4 L477.6,226.0 L489.4,236.0 L501.3,223.7 L513.1,224.1 L525.0,224.7 L536.9,231.2 L548.7,241.8 L560.6,251.8 L572.5,255.1 L584.3,264.4 L596.2,252.8 L608.1,268.6 L619.9,271.5 L631.8,291.5 L643.7,278.6 L655.5,260.9 L667.4,262.5 L679.3,249.2 L691.1,251.8 L703.0,259.6 L714.9,263.8 L726.7,264.1 L738.6,266.7 L750.4,274.7 L762.3,271.8 L774.2,307.0 L786.0,332.2 L797.9,332.9 L809.8,340.9 L821.6,334.2 L833.5,318.0 L845.4,324.8 L857.2,306.1 L869.1,315.4 L881.0,319.6 L892.8,342.9 L904.7,356.8 L916.6,353.9 L928.4,330.9 L940.3,345.1 L952.2,343.5 L964.0,333.8 L975.9,362.9 L987.8,399.1 L999.6,406.2 L1011.5,402.9 L1023.3,402.9 L1035.2,386.5 L1047.1,385.5 L1058.9,388.1 L1070.8,385.2 L1082.7,371.6 L1094.5,380.3 L1106.4,375.5 L1118.3,357.7 L1130.1,363.2 L1142.0,358.7 L1142.0,434.0 L86.0,434.0 Z" fill="#0f5949" opacity="0.28"/>
  <path d="M86.0,190.5 L97.9,183.0 L109.7,172.4 L121.6,172.1 L133.5,168.2 L145.3,182.4 L157.2,171.7 L169.1,153.3 L180.9,138.8 L192.8,135.3 L204.7,137.2 L216.5,133.6 L228.4,127.8 L240.2,138.2 L252.1,131.4 L264.0,153.3 L275.8,152.7 L287.7,153.0 L299.6,162.1 L311.4,184.3 L323.3,200.8 L335.2,213.1 L347.0,240.5 L358.9,240.2 L370.8,245.4 L382.6,215.0 L394.5,211.5 L406.4,222.1 L418.2,231.8 L430.1,228.6 L442.0,208.2 L453.8,221.5 L465.7,243.4 L477.6,226.0 L489.4,236.0 L501.3,223.7 L513.1,224.1 L525.0,224.7 L536.9,231.2 L548.7,241.8 L560.6,251.8 L572.5,255.1 L584.3,264.4 L596.2,252.8 L608.1,268.6 L619.9,271.5 L631.8,291.5 L643.7,278.6 L655.5,260.9 L667.4,262.5 L679.3,249.2 L691.1,251.8 L703.0,259.6 L714.9,263.8 L726.7,264.1 L738.6,266.7 L750.4,274.7 L762.3,271.8 L774.2,307.0 L786.0,332.2 L797.9,332.9 L809.8,340.9 L821.6,334.2 L833.5,318.0 L845.4,324.8 L857.2,306.1 L869.1,315.4 L881.0,319.6 L892.8,342.9 L904.7,356.8 L916.6,353.9 L928.4,330.9 L940.3,345.1 L952.2,343.5 L964.0,333.8 L975.9,362.9 L987.8,399.1 L999.6,406.2 L1011.5,402.9 L1023.3,402.9 L1035.2,386.5 L1047.1,385.5 L1058.9,388.1 L1070.8,385.2 L1082.7,371.6 L1094.5,380.3 L1106.4,375.5 L1118.3,357.7 L1130.1,363.2 L1142.0,358.7" fill="none" stroke="#62d9ee" stroke-width="4" stroke-linecap="round" stroke-linejoin="round"/>
  <g>
    <line x1="1094.5" x2="1094.5" y1="100" y2="434" stroke="#18e59c" stroke-width="2" stroke-dasharray="7 7" opacity="0.8"/>
    <circle cx="1094.5" cy="379.2" r="8" fill="#071f1c" stroke="#18e59c" stroke-width="4"/>
    <text x="1030.0" y="361.2" text-anchor="middle" class="marker" fill="#18e59c">ENTRY | Jul 14 | $21.32</text>
  </g>
  
  <text x="86.0" y="472" text-anchor="middle" class="axis">Mar 11</text><text x="347.0" y="472" text-anchor="middle" class="axis">Apr 13</text><text x="619.9" y="472" text-anchor="middle" class="axis">May 14</text><text x="881.0" y="472" text-anchor="middle" class="axis">Jun 16</text><text x="1142.0" y="472" text-anchor="middle" class="axis">Jul 20</text>
  </svg>