<svg xmlns="http://www.w3.org/2000/svg" width="1200" height="500" viewBox="0 0 1200 500" role="img" aria-label="T underlying price from entry">
  <rect width="1200" height="500" fill="#071f1c"/>
  <style>.head{fill:#f4fff9;font:800 27px Georgia,serif}.sub{fill:#9fc4bb;font:14px Arial,sans-serif}.axis{fill:#8eaaa3;font:12px Arial,sans-serif}.marker{font:800 12px Arial,sans-serif}</style>
  <text x="86" y="40" class="head">T Underlying Price</text>
  <text x="86" y="66" class="sub">90 sessions | Entry marked; position remains open | Published option idea rank 4</text>
  <line x1="86" x2="1142" y1="100.0" y2="100.0" stroke="#1b4a42" stroke-width="1"/><text x="72" y="105.0" text-anchor="end" class="axis">$29.96</text><line x1="86" x2="1142" y1="183.5" y2="183.5" stroke="#1b4a42" stroke-width="1"/><text x="72" y="188.5" text-anchor="end" class="axis">$27.38</text><line x1="86" x2="1142" y1="267.0" y2="267.0" stroke="#1b4a42" stroke-width="1"/><text x="72" y="272.0" text-anchor="end" class="axis">$24.79</text><line x1="86" x2="1142" y1="350.5" y2="350.5" stroke="#1b4a42" stroke-width="1"/><text x="72" y="355.5" text-anchor="end" class="axis">$22.20</text><line x1="86" x2="1142" y1="434.0" y2="434.0" stroke="#1b4a42" stroke-width="1"/><text x="72" y="439.0" text-anchor="end" class="axis">$19.62</text>
  <path d="M86.0,178.5 L97.9,172.7 L109.7,190.5 L121.6,183.0 L133.5,172.4 L145.3,172.1 L157.2,168.2 L169.1,182.4 L180.9,171.7 L192.8,153.3 L204.7,138.8 L216.5,135.3 L228.4,137.2 L240.2,133.6 L252.1,127.8 L264.0,138.2 L275.8,131.4 L287.7,153.3 L299.6,152.7 L311.4,153.0 L323.3,162.1 L335.2,184.3 L347.0,200.8 L358.9,213.1 L370.8,240.5 L382.6,240.2 L394.5,245.4 L406.4,215.0 L418.2,211.5 L430.1,222.1 L442.0,231.8 L453.8,228.6 L465.7,208.2 L477.6,221.5 L489.4,243.4 L501.3,226.0 L513.1,236.0 L525.0,223.7 L536.9,224.1 L548.7,224.7 L560.6,231.2 L572.5,241.8 L584.3,251.8 L596.2,255.1 L608.1,264.4 L619.9,252.8 L631.8,268.6 L643.7,271.5 L655.5,291.5 L667.4,278.6 L679.3,260.9 L691.1,262.5 L703.0,249.2 L714.9,251.8 L726.7,259.6 L738.6,263.8 L750.4,264.1 L762.3,266.7 L774.2,274.7 L786.0,271.8 L797.9,307.0 L809.8,332.2 L821.6,332.9 L833.5,340.9 L845.4,334.2 L857.2,318.0 L869.1,324.8 L881.0,306.1 L892.8,315.4 L904.7,319.6 L916.6,342.9 L928.4,356.8 L940.3,353.9 L952.2,330.9 L964.0,345.1 L975.9,343.5 L987.8,333.8 L999.6,362.9 L1011.5,399.1 L1023.3,406.2 L1035.2,402.9 L1047.1,402.9 L1058.9,386.5 L1070.8,385.5 L1082.7,388.1 L1094.5,385.2 L1106.4,371.6 L1118.3,380.3 L1130.1,375.5 L1142.0,357.7 L1142.0,434.0 L86.0,434.0 Z" fill="#0f5949" opacity="0.28"/>
  <path d="M86.0,178.5 L97.9,172.7 L109.7,190.5 L121.6,183.0 L133.5,172.4 L145.3,172.1 L157.2,168.2 L169.1,182.4 L180.9,171.7 L192.8,153.3 L204.7,138.8 L216.5,135.3 L228.4,137.2 L240.2,133.6 L252.1,127.8 L264.0,138.2 L275.8,131.4 L287.7,153.3 L299.6,152.7 L311.4,153.0 L323.3,162.1 L335.2,184.3 L347.0,200.8 L358.9,213.1 L370.8,240.5 L382.6,240.2 L394.5,245.4 L406.4,215.0 L418.2,211.5 L430.1,222.1 L442.0,231.8 L453.8,228.6 L465.7,208.2 L477.6,221.5 L489.4,243.4 L501.3,226.0 L513.1,236.0 L525.0,223.7 L536.9,224.1 L548.7,224.7 L560.6,231.2 L572.5,241.8 L584.3,251.8 L596.2,255.1 L608.1,264.4 L619.9,252.8 L631.8,268.6 L643.7,271.5 L655.5,291.5 L667.4,278.6 L679.3,260.9 L691.1,262.5 L703.0,249.2 L714.9,251.8 L726.7,259.6 L738.6,263.8 L750.4,264.1 L762.3,266.7 L774.2,274.7 L786.0,271.8 L797.9,307.0 L809.8,332.2 L821.6,332.9 L833.5,340.9 L845.4,334.2 L857.2,318.0 L869.1,324.8 L881.0,306.1 L892.8,315.4 L904.7,319.6 L916.6,342.9 L928.4,356.8 L940.3,353.9 L952.2,330.9 L964.0,345.1 L975.9,343.5 L987.8,333.8 L999.6,362.9 L1011.5,399.1 L1023.3,406.2 L1035.2,402.9 L1047.1,402.9 L1058.9,386.5 L1070.8,385.5 L1082.7,388.1 L1094.5,385.2 L1106.4,371.6 L1118.3,380.3 L1130.1,375.5 L1142.0,357.7" fill="none" stroke="#62d9ee" stroke-width="4" stroke-linecap="round" stroke-linejoin="round"/>
  <g>
    <line x1="1118.3" x2="1118.3" y1="100" y2="434" stroke="#18e59c" stroke-width="2" stroke-dasharray="7 7" opacity="0.8"/>
    <circle cx="1118.3" cy="379.2" r="8" fill="#071f1c" stroke="#18e59c" stroke-width="4"/>
    <text x="1030.0" y="361.2" text-anchor="middle" class="marker" fill="#18e59c">ENTRY | Jul 14 | $21.32</text>
  </g>
  
  <text x="86.0" y="472" text-anchor="middle" class="axis">Mar 9</text><text x="347.0" y="472" text-anchor="middle" class="axis">Apr 9</text><text x="619.9" y="472" text-anchor="middle" class="axis">May 12</text><text x="881.0" y="472" text-anchor="middle" class="axis">Jun 12</text><text x="1142.0" y="472" text-anchor="middle" class="axis">Jul 16</text>
  </svg>