<svg xmlns="http://www.w3.org/2000/svg" width="1200" height="500" viewBox="0 0 1200 500" role="img" aria-label="T underlying price from entry">
  <rect width="1200" height="500" fill="#071f1c"/>
  <style>.head{fill:#f4fff9;font:800 27px Georgia,serif}.sub{fill:#9fc4bb;font:14px Arial,sans-serif}.axis{fill:#8eaaa3;font:12px Arial,sans-serif}.marker{font:800 12px Arial,sans-serif}</style>
  <text x="86" y="40" class="head">T Underlying Price</text>
  <text x="86" y="66" class="sub">90 sessions | Entry marked; position remains open | Published option idea rank 4</text>
  <line x1="86" x2="1142" y1="100.0" y2="100.0" stroke="#1b4a42" stroke-width="1"/><text x="72" y="105.0" text-anchor="end" class="axis">$29.96</text><line x1="86" x2="1142" y1="183.5" y2="183.5" stroke="#1b4a42" stroke-width="1"/><text x="72" y="188.5" text-anchor="end" class="axis">$27.38</text><line x1="86" x2="1142" y1="267.0" y2="267.0" stroke="#1b4a42" stroke-width="1"/><text x="72" y="272.0" text-anchor="end" class="axis">$24.79</text><line x1="86" x2="1142" y1="350.5" y2="350.5" stroke="#1b4a42" stroke-width="1"/><text x="72" y="355.5" text-anchor="end" class="axis">$22.20</text><line x1="86" x2="1142" y1="434.0" y2="434.0" stroke="#1b4a42" stroke-width="1"/><text x="72" y="439.0" text-anchor="end" class="axis">$19.62</text>
  <path d="M86.0,183.0 L97.9,172.4 L109.7,172.1 L121.6,168.2 L133.5,182.4 L145.3,171.7 L157.2,153.3 L169.1,138.8 L180.9,135.3 L192.8,137.2 L204.7,133.6 L216.5,127.8 L228.4,138.2 L240.2,131.4 L252.1,153.3 L264.0,152.7 L275.8,153.0 L287.7,162.1 L299.6,184.3 L311.4,200.8 L323.3,213.1 L335.2,240.5 L347.0,240.2 L358.9,245.4 L370.8,215.0 L382.6,211.5 L394.5,222.1 L406.4,231.8 L418.2,228.6 L430.1,208.2 L442.0,221.5 L453.8,243.4 L465.7,226.0 L477.6,236.0 L489.4,223.7 L501.3,224.1 L513.1,224.7 L525.0,231.2 L536.9,241.8 L548.7,251.8 L560.6,255.1 L572.5,264.4 L584.3,252.8 L596.2,268.6 L608.1,271.5 L619.9,291.5 L631.8,278.6 L643.7,260.9 L655.5,262.5 L667.4,249.2 L679.3,251.8 L691.1,259.6 L703.0,263.8 L714.9,264.1 L726.7,266.7 L738.6,274.7 L750.4,271.8 L762.3,307.0 L774.2,332.2 L786.0,332.9 L797.9,340.9 L809.8,334.2 L821.6,318.0 L833.5,324.8 L845.4,306.1 L857.2,315.4 L869.1,319.6 L881.0,342.9 L892.8,356.8 L904.7,353.9 L916.6,330.9 L928.4,345.1 L940.3,343.5 L952.2,333.8 L964.0,362.9 L975.9,399.1 L987.8,406.2 L999.6,402.9 L1011.5,402.9 L1023.3,386.5 L1035.2,385.5 L1047.1,388.1 L1058.9,385.2 L1070.8,371.6 L1082.7,380.3 L1094.5,375.5 L1106.4,357.7 L1118.3,363.2 L1130.1,358.7 L1142.0,348.7 L1142.0,434.0 L86.0,434.0 Z" fill="#0f5949" opacity="0.28"/>
  <path d="M86.0,183.0 L97.9,172.4 L109.7,172.1 L121.6,168.2 L133.5,182.4 L145.3,171.7 L157.2,153.3 L169.1,138.8 L180.9,135.3 L192.8,137.2 L204.7,133.6 L216.5,127.8 L228.4,138.2 L240.2,131.4 L252.1,153.3 L264.0,152.7 L275.8,153.0 L287.7,162.1 L299.6,184.3 L311.4,200.8 L323.3,213.1 L335.2,240.5 L347.0,240.2 L358.9,245.4 L370.8,215.0 L382.6,211.5 L394.5,222.1 L406.4,231.8 L418.2,228.6 L430.1,208.2 L442.0,221.5 L453.8,243.4 L465.7,226.0 L477.6,236.0 L489.4,223.7 L501.3,224.1 L513.1,224.7 L525.0,231.2 L536.9,241.8 L548.7,251.8 L560.6,255.1 L572.5,264.4 L584.3,252.8 L596.2,268.6 L608.1,271.5 L619.9,291.5 L631.8,278.6 L643.7,260.9 L655.5,262.5 L667.4,249.2 L679.3,251.8 L691.1,259.6 L703.0,263.8 L714.9,264.1 L726.7,266.7 L738.6,274.7 L750.4,271.8 L762.3,307.0 L774.2,332.2 L786.0,332.9 L797.9,340.9 L809.8,334.2 L821.6,318.0 L833.5,324.8 L845.4,306.1 L857.2,315.4 L869.1,319.6 L881.0,342.9 L892.8,356.8 L904.7,353.9 L916.6,330.9 L928.4,345.1 L940.3,343.5 L952.2,333.8 L964.0,362.9 L975.9,399.1 L987.8,406.2 L999.6,402.9 L1011.5,402.9 L1023.3,386.5 L1035.2,385.5 L1047.1,388.1 L1058.9,385.2 L1070.8,371.6 L1082.7,380.3 L1094.5,375.5 L1106.4,357.7 L1118.3,363.2 L1130.1,358.7 L1142.0,348.7" fill="none" stroke="#62d9ee" stroke-width="4" stroke-linecap="round" stroke-linejoin="round"/>
  <g>
    <line x1="1082.7" x2="1082.7" y1="100" y2="434" stroke="#18e59c" stroke-width="2" stroke-dasharray="7 7" opacity="0.8"/>
    <circle cx="1082.7" cy="379.2" r="8" fill="#071f1c" stroke="#18e59c" stroke-width="4"/>
    <text x="1030.0" y="361.2" text-anchor="middle" class="marker" fill="#18e59c">ENTRY | Jul 14 | $21.32</text>
  </g>
  
  <text x="86.0" y="472" text-anchor="middle" class="axis">Mar 12</text><text x="347.0" y="472" text-anchor="middle" class="axis">Apr 14</text><text x="619.9" y="472" text-anchor="middle" class="axis">May 15</text><text x="881.0" y="472" text-anchor="middle" class="axis">Jun 17</text><text x="1142.0" y="472" text-anchor="middle" class="axis">Jul 21</text>
  </svg>