<svg xmlns="http://www.w3.org/2000/svg" width="1200" height="500" viewBox="0 0 1200 500" role="img" aria-label="T underlying price from entry">
  <rect width="1200" height="500" fill="#071f1c"/>
  <style>.head{fill:#f4fff9;font:800 27px Georgia,serif}.sub{fill:#9fc4bb;font:14px Arial,sans-serif}.axis{fill:#8eaaa3;font:12px Arial,sans-serif}.marker{font:800 12px Arial,sans-serif}</style>
  <text x="86" y="40" class="head">T Underlying Price</text>
  <text x="86" y="66" class="sub">90 sessions | Entry marked; position remains open | Published option idea rank 4</text>
  <line x1="86" x2="1142" y1="100.0" y2="100.0" stroke="#1b4a42" stroke-width="1"/><text x="72" y="105.0" text-anchor="end" class="axis">$29.96</text><line x1="86" x2="1142" y1="183.5" y2="183.5" stroke="#1b4a42" stroke-width="1"/><text x="72" y="188.5" text-anchor="end" class="axis">$27.38</text><line x1="86" x2="1142" y1="267.0" y2="267.0" stroke="#1b4a42" stroke-width="1"/><text x="72" y="272.0" text-anchor="end" class="axis">$24.79</text><line x1="86" x2="1142" y1="350.5" y2="350.5" stroke="#1b4a42" stroke-width="1"/><text x="72" y="355.5" text-anchor="end" class="axis">$22.20</text><line x1="86" x2="1142" y1="434.0" y2="434.0" stroke="#1b4a42" stroke-width="1"/><text x="72" y="439.0" text-anchor="end" class="axis">$19.62</text>
  <path d="M86.0,132.0 L97.9,142.7 L109.7,178.5 L121.6,172.7 L133.5,190.5 L145.3,183.0 L157.2,172.4 L169.1,172.1 L180.9,168.2 L192.8,182.4 L204.7,171.7 L216.5,153.3 L228.4,138.8 L240.2,135.3 L252.1,137.2 L264.0,133.6 L275.8,127.8 L287.7,138.2 L299.6,131.4 L311.4,153.3 L323.3,152.7 L335.2,153.0 L347.0,162.1 L358.9,184.3 L370.8,200.8 L382.6,213.1 L394.5,240.5 L406.4,240.2 L418.2,245.4 L430.1,215.0 L442.0,211.5 L453.8,222.1 L465.7,231.8 L477.6,228.6 L489.4,208.2 L501.3,221.5 L513.1,243.4 L525.0,226.0 L536.9,236.0 L548.7,223.7 L560.6,224.1 L572.5,224.7 L584.3,231.2 L596.2,241.8 L608.1,251.8 L619.9,255.1 L631.8,264.4 L643.7,252.8 L655.5,268.6 L667.4,271.5 L679.3,291.5 L691.1,278.6 L703.0,260.9 L714.9,262.5 L726.7,249.2 L738.6,251.8 L750.4,259.6 L762.3,263.8 L774.2,264.1 L786.0,266.7 L797.9,274.7 L809.8,271.8 L821.6,307.0 L833.5,332.2 L845.4,332.9 L857.2,340.9 L869.1,334.2 L881.0,318.0 L892.8,324.8 L904.7,306.1 L916.6,315.4 L928.4,319.6 L940.3,342.9 L952.2,356.8 L964.0,353.9 L975.9,330.9 L987.8,345.1 L999.6,343.5 L1011.5,333.8 L1023.3,362.9 L1035.2,399.1 L1047.1,406.2 L1058.9,402.9 L1070.8,402.9 L1082.7,386.5 L1094.5,385.5 L1106.4,388.1 L1118.3,385.2 L1130.1,371.6 L1142.0,379.2 L1142.0,434.0 L86.0,434.0 Z" fill="#0f5949" opacity="0.28"/>
  <path d="M86.0,132.0 L97.9,142.7 L109.7,178.5 L121.6,172.7 L133.5,190.5 L145.3,183.0 L157.2,172.4 L169.1,172.1 L180.9,168.2 L192.8,182.4 L204.7,171.7 L216.5,153.3 L228.4,138.8 L240.2,135.3 L252.1,137.2 L264.0,133.6 L275.8,127.8 L287.7,138.2 L299.6,131.4 L311.4,153.3 L323.3,152.7 L335.2,153.0 L347.0,162.1 L358.9,184.3 L370.8,200.8 L382.6,213.1 L394.5,240.5 L406.4,240.2 L418.2,245.4 L430.1,215.0 L442.0,211.5 L453.8,222.1 L465.7,231.8 L477.6,228.6 L489.4,208.2 L501.3,221.5 L513.1,243.4 L525.0,226.0 L536.9,236.0 L548.7,223.7 L560.6,224.1 L572.5,224.7 L584.3,231.2 L596.2,241.8 L608.1,251.8 L619.9,255.1 L631.8,264.4 L643.7,252.8 L655.5,268.6 L667.4,271.5 L679.3,291.5 L691.1,278.6 L703.0,260.9 L714.9,262.5 L726.7,249.2 L738.6,251.8 L750.4,259.6 L762.3,263.8 L774.2,264.1 L786.0,266.7 L797.9,274.7 L809.8,271.8 L821.6,307.0 L833.5,332.2 L845.4,332.9 L857.2,340.9 L869.1,334.2 L881.0,318.0 L892.8,324.8 L904.7,306.1 L916.6,315.4 L928.4,319.6 L940.3,342.9 L952.2,356.8 L964.0,353.9 L975.9,330.9 L987.8,345.1 L999.6,343.5 L1011.5,333.8 L1023.3,362.9 L1035.2,399.1 L1047.1,406.2 L1058.9,402.9 L1070.8,402.9 L1082.7,386.5 L1094.5,385.5 L1106.4,388.1 L1118.3,385.2 L1130.1,371.6 L1142.0,379.2" fill="none" stroke="#62d9ee" stroke-width="4" stroke-linecap="round" stroke-linejoin="round"/>
  <g>
    <line x1="1142.0" x2="1142.0" y1="100" y2="434" stroke="#18e59c" stroke-width="2" stroke-dasharray="7 7" opacity="0.8"/>
    <circle cx="1142.0" cy="379.2" r="8" fill="#071f1c" stroke="#18e59c" stroke-width="4"/>
    <text x="1030.0" y="361.2" text-anchor="middle" class="marker" fill="#18e59c">ENTRY | Jul 14 | $21.32</text>
  </g>
  
  <text x="86.0" y="472" text-anchor="middle" class="axis">Mar 5</text><text x="347.0" y="472" text-anchor="middle" class="axis">Apr 7</text><text x="619.9" y="472" text-anchor="middle" class="axis">May 8</text><text x="881.0" y="472" text-anchor="middle" class="axis">Jun 10</text><text x="1142.0" y="472" text-anchor="middle" class="axis">Jul 14</text>
  </svg>