<svg xmlns="http://www.w3.org/2000/svg" width="1200" height="500" viewBox="0 0 1200 500" role="img" aria-label="F underlying price from entry">
  <rect width="1200" height="500" fill="#071f1c"/>
  <style>.head{fill:#f4fff9;font:800 27px Georgia,serif}.sub{fill:#9fc4bb;font:14px Arial,sans-serif}.axis{fill:#8eaaa3;font:12px Arial,sans-serif}.marker{font:800 12px Arial,sans-serif}</style>
  <text x="86" y="40" class="head">F Underlying Price</text>
  <text x="86" y="66" class="sub">90 sessions | Entry marked; position remains open | Published option idea rank 5</text>
  <line x1="86" x2="1142" y1="100.0" y2="100.0" stroke="#1b4a42" stroke-width="1"/><text x="72" y="105.0" text-anchor="end" class="axis">$18.06</text><line x1="86" x2="1142" y1="183.5" y2="183.5" stroke="#1b4a42" stroke-width="1"/><text x="72" y="188.5" text-anchor="end" class="axis">$16.19</text><line x1="86" x2="1142" y1="267.0" y2="267.0" stroke="#1b4a42" stroke-width="1"/><text x="72" y="272.0" text-anchor="end" class="axis">$14.33</text><line x1="86" x2="1142" y1="350.5" y2="350.5" stroke="#1b4a42" stroke-width="1"/><text x="72" y="355.5" text-anchor="end" class="axis">$12.46</text><line x1="86" x2="1142" y1="434.0" y2="434.0" stroke="#1b4a42" stroke-width="1"/><text x="72" y="439.0" text-anchor="end" class="axis">$10.59</text>
  <path d="M86.0,383.8 L97.9,373.6 L109.7,380.3 L121.6,387.0 L133.5,392.3 L145.3,381.6 L157.2,378.0 L169.1,385.6 L180.9,388.7 L192.8,399.0 L204.7,406.2 L216.5,391.4 L228.4,385.2 L240.2,388.7 L252.1,388.3 L264.0,392.3 L275.8,362.8 L287.7,360.2 L299.6,365.1 L311.4,363.7 L323.3,339.2 L335.2,339.2 L347.0,351.2 L358.9,332.0 L370.8,332.0 L382.6,336.0 L394.5,342.7 L406.4,349.4 L418.2,353.9 L430.1,349.0 L442.0,353.0 L453.8,360.2 L465.7,367.3 L477.6,376.2 L489.4,393.2 L501.3,384.7 L513.1,363.3 L525.0,362.8 L536.9,356.6 L548.7,368.6 L560.6,371.3 L572.5,300.7 L584.3,260.1 L596.2,308.3 L608.1,324.9 L619.9,323.5 L631.8,316.4 L643.7,296.3 L655.5,240.0 L667.4,222.5 L679.3,197.5 L691.1,163.1 L703.0,127.8 L714.9,164.0 L726.7,185.5 L738.6,205.1 L750.4,221.7 L762.3,241.3 L774.2,236.8 L786.0,239.1 L797.9,268.1 L809.8,249.8 L821.6,244.0 L833.5,247.1 L845.4,263.2 L857.2,283.3 L869.1,278.8 L881.0,276.6 L892.8,281.5 L904.7,288.7 L916.6,276.6 L928.4,275.7 L940.3,280.6 L952.2,286.0 L964.0,297.6 L975.9,310.1 L987.8,289.1 L999.6,301.2 L1011.5,303.9 L1023.3,298.9 L1035.2,281.5 L1047.1,288.2 L1058.9,284.2 L1070.8,273.5 L1082.7,273.0 L1094.5,271.2 L1106.4,282.0 L1118.3,269.5 L1130.1,262.8 L1142.0,274.8 L1142.0,434.0 L86.0,434.0 Z" fill="#0f5949" opacity="0.28"/>
  <path d="M86.0,383.8 L97.9,373.6 L109.7,380.3 L121.6,387.0 L133.5,392.3 L145.3,381.6 L157.2,378.0 L169.1,385.6 L180.9,388.7 L192.8,399.0 L204.7,406.2 L216.5,391.4 L228.4,385.2 L240.2,388.7 L252.1,388.3 L264.0,392.3 L275.8,362.8 L287.7,360.2 L299.6,365.1 L311.4,363.7 L323.3,339.2 L335.2,339.2 L347.0,351.2 L358.9,332.0 L370.8,332.0 L382.6,336.0 L394.5,342.7 L406.4,349.4 L418.2,353.9 L430.1,349.0 L442.0,353.0 L453.8,360.2 L465.7,367.3 L477.6,376.2 L489.4,393.2 L501.3,384.7 L513.1,363.3 L525.0,362.8 L536.9,356.6 L548.7,368.6 L560.6,371.3 L572.5,300.7 L584.3,260.1 L596.2,308.3 L608.1,324.9 L619.9,323.5 L631.8,316.4 L643.7,296.3 L655.5,240.0 L667.4,222.5 L679.3,197.5 L691.1,163.1 L703.0,127.8 L714.9,164.0 L726.7,185.5 L738.6,205.1 L750.4,221.7 L762.3,241.3 L774.2,236.8 L786.0,239.1 L797.9,268.1 L809.8,249.8 L821.6,244.0 L833.5,247.1 L845.4,263.2 L857.2,283.3 L869.1,278.8 L881.0,276.6 L892.8,281.5 L904.7,288.7 L916.6,276.6 L928.4,275.7 L940.3,280.6 L952.2,286.0 L964.0,297.6 L975.9,310.1 L987.8,289.1 L999.6,301.2 L1011.5,303.9 L1023.3,298.9 L1035.2,281.5 L1047.1,288.2 L1058.9,284.2 L1070.8,273.5 L1082.7,273.0 L1094.5,271.2 L1106.4,282.0 L1118.3,269.5 L1130.1,262.8 L1142.0,274.8" fill="none" stroke="#62d9ee" stroke-width="4" stroke-linecap="round" stroke-linejoin="round"/>
  <g>
    <line x1="1058.9" x2="1058.9" y1="100" y2="434" stroke="#18e59c" stroke-width="2" stroke-dasharray="7 7" opacity="0.8"/>
    <circle cx="1058.9" cy="288.7" r="8" fill="#071f1c" stroke="#18e59c" stroke-width="4"/>
    <text x="1030.0" y="270.7" text-anchor="middle" class="marker" fill="#18e59c">ENTRY | Jul 14 | $13.84</text>
  </g>
  
  <text x="86.0" y="472" text-anchor="middle" class="axis">Mar 16</text><text x="347.0" y="472" text-anchor="middle" class="axis">Apr 16</text><text x="619.9" y="472" text-anchor="middle" class="axis">May 19</text><text x="881.0" y="472" text-anchor="middle" class="axis">Jun 22</text><text x="1142.0" y="472" text-anchor="middle" class="axis">Jul 23</text>
  </svg>