<svg xmlns="http://www.w3.org/2000/svg" width="1200" height="500" viewBox="0 0 1200 500" role="img" aria-label="F underlying price from entry">
  <rect width="1200" height="500" fill="#071f1c"/>
  <style>.head{fill:#f4fff9;font:800 27px Georgia,serif}.sub{fill:#9fc4bb;font:14px Arial,sans-serif}.axis{fill:#8eaaa3;font:12px Arial,sans-serif}.marker{font:800 12px Arial,sans-serif}</style>
  <text x="86" y="40" class="head">F Underlying Price</text>
  <text x="86" y="66" class="sub">90 sessions | Entry marked; position remains open | Published option idea rank 5</text>
  <line x1="86" x2="1142" y1="100.0" y2="100.0" stroke="#1b4a42" stroke-width="1"/><text x="72" y="105.0" text-anchor="end" class="axis">$18.06</text><line x1="86" x2="1142" y1="183.5" y2="183.5" stroke="#1b4a42" stroke-width="1"/><text x="72" y="188.5" text-anchor="end" class="axis">$16.19</text><line x1="86" x2="1142" y1="267.0" y2="267.0" stroke="#1b4a42" stroke-width="1"/><text x="72" y="272.0" text-anchor="end" class="axis">$14.33</text><line x1="86" x2="1142" y1="350.5" y2="350.5" stroke="#1b4a42" stroke-width="1"/><text x="72" y="355.5" text-anchor="end" class="axis">$12.46</text><line x1="86" x2="1142" y1="434.0" y2="434.0" stroke="#1b4a42" stroke-width="1"/><text x="72" y="439.0" text-anchor="end" class="axis">$10.59</text>
  <path d="M86.0,360.2 L97.9,366.0 L109.7,369.1 L121.6,385.6 L133.5,383.8 L145.3,373.6 L157.2,380.3 L169.1,387.0 L180.9,392.3 L192.8,381.6 L204.7,378.0 L216.5,385.6 L228.4,388.7 L240.2,399.0 L252.1,406.2 L264.0,391.4 L275.8,385.2 L287.7,388.7 L299.6,388.3 L311.4,392.3 L323.3,362.8 L335.2,360.2 L347.0,365.1 L358.9,363.7 L370.8,339.2 L382.6,339.2 L394.5,351.2 L406.4,332.0 L418.2,332.0 L430.1,336.0 L442.0,342.7 L453.8,349.4 L465.7,353.9 L477.6,349.0 L489.4,353.0 L501.3,360.2 L513.1,367.3 L525.0,376.2 L536.9,393.2 L548.7,384.7 L560.6,363.3 L572.5,362.8 L584.3,356.6 L596.2,368.6 L608.1,371.3 L619.9,300.7 L631.8,260.1 L643.7,308.3 L655.5,324.9 L667.4,323.5 L679.3,316.4 L691.1,296.3 L703.0,240.0 L714.9,222.5 L726.7,197.5 L738.6,163.1 L750.4,127.8 L762.3,164.0 L774.2,185.5 L786.0,205.1 L797.9,221.7 L809.8,241.3 L821.6,236.8 L833.5,239.1 L845.4,268.1 L857.2,249.8 L869.1,244.0 L881.0,247.1 L892.8,263.2 L904.7,283.3 L916.6,278.8 L928.4,276.6 L940.3,281.5 L952.2,288.7 L964.0,276.6 L975.9,275.7 L987.8,280.6 L999.6,286.0 L1011.5,297.6 L1023.3,310.1 L1035.2,289.1 L1047.1,301.2 L1058.9,303.9 L1070.8,298.9 L1082.7,281.5 L1094.5,288.2 L1106.4,284.2 L1118.3,273.5 L1130.1,273.0 L1142.0,271.2 L1142.0,434.0 L86.0,434.0 Z" fill="#0f5949" opacity="0.28"/>
  <path d="M86.0,360.2 L97.9,366.0 L109.7,369.1 L121.6,385.6 L133.5,383.8 L145.3,373.6 L157.2,380.3 L169.1,387.0 L180.9,392.3 L192.8,381.6 L204.7,378.0 L216.5,385.6 L228.4,388.7 L240.2,399.0 L252.1,406.2 L264.0,391.4 L275.8,385.2 L287.7,388.7 L299.6,388.3 L311.4,392.3 L323.3,362.8 L335.2,360.2 L347.0,365.1 L358.9,363.7 L370.8,339.2 L382.6,339.2 L394.5,351.2 L406.4,332.0 L418.2,332.0 L430.1,336.0 L442.0,342.7 L453.8,349.4 L465.7,353.9 L477.6,349.0 L489.4,353.0 L501.3,360.2 L513.1,367.3 L525.0,376.2 L536.9,393.2 L548.7,384.7 L560.6,363.3 L572.5,362.8 L584.3,356.6 L596.2,368.6 L608.1,371.3 L619.9,300.7 L631.8,260.1 L643.7,308.3 L655.5,324.9 L667.4,323.5 L679.3,316.4 L691.1,296.3 L703.0,240.0 L714.9,222.5 L726.7,197.5 L738.6,163.1 L750.4,127.8 L762.3,164.0 L774.2,185.5 L786.0,205.1 L797.9,221.7 L809.8,241.3 L821.6,236.8 L833.5,239.1 L845.4,268.1 L857.2,249.8 L869.1,244.0 L881.0,247.1 L892.8,263.2 L904.7,283.3 L916.6,278.8 L928.4,276.6 L940.3,281.5 L952.2,288.7 L964.0,276.6 L975.9,275.7 L987.8,280.6 L999.6,286.0 L1011.5,297.6 L1023.3,310.1 L1035.2,289.1 L1047.1,301.2 L1058.9,303.9 L1070.8,298.9 L1082.7,281.5 L1094.5,288.2 L1106.4,284.2 L1118.3,273.5 L1130.1,273.0 L1142.0,271.2" fill="none" stroke="#62d9ee" stroke-width="4" stroke-linecap="round" stroke-linejoin="round"/>
  <g>
    <line x1="1106.4" x2="1106.4" y1="100" y2="434" stroke="#18e59c" stroke-width="2" stroke-dasharray="7 7" opacity="0.8"/>
    <circle cx="1106.4" cy="288.7" r="8" fill="#071f1c" stroke="#18e59c" stroke-width="4"/>
    <text x="1030.0" y="270.7" text-anchor="middle" class="marker" fill="#18e59c">ENTRY | Jul 14 | $13.84</text>
  </g>
  
  <text x="86.0" y="472" text-anchor="middle" class="axis">Mar 10</text><text x="347.0" y="472" text-anchor="middle" class="axis">Apr 10</text><text x="619.9" y="472" text-anchor="middle" class="axis">May 13</text><text x="881.0" y="472" text-anchor="middle" class="axis">Jun 15</text><text x="1142.0" y="472" text-anchor="middle" class="axis">Jul 17</text>
  </svg>