<svg xmlns="http://www.w3.org/2000/svg" width="1200" height="500" viewBox="0 0 1200 500" role="img" aria-label="F underlying price from entry">
  <rect width="1200" height="500" fill="#071f1c"/>
  <style>.head{fill:#f4fff9;font:800 27px Georgia,serif}.sub{fill:#9fc4bb;font:14px Arial,sans-serif}.axis{fill:#8eaaa3;font:12px Arial,sans-serif}.marker{font:800 12px Arial,sans-serif}</style>
  <text x="86" y="40" class="head">F Underlying Price</text>
  <text x="86" y="66" class="sub">90 sessions | Entry marked; position remains open | Published option idea rank 5</text>
  <line x1="86" x2="1142" y1="100.0" y2="100.0" stroke="#1b4a42" stroke-width="1"/><text x="72" y="105.0" text-anchor="end" class="axis">$18.06</text><line x1="86" x2="1142" y1="183.5" y2="183.5" stroke="#1b4a42" stroke-width="1"/><text x="72" y="188.5" text-anchor="end" class="axis">$16.19</text><line x1="86" x2="1142" y1="267.0" y2="267.0" stroke="#1b4a42" stroke-width="1"/><text x="72" y="272.0" text-anchor="end" class="axis">$14.33</text><line x1="86" x2="1142" y1="350.5" y2="350.5" stroke="#1b4a42" stroke-width="1"/><text x="72" y="355.5" text-anchor="end" class="axis">$12.46</text><line x1="86" x2="1142" y1="434.0" y2="434.0" stroke="#1b4a42" stroke-width="1"/><text x="72" y="439.0" text-anchor="end" class="axis">$10.59</text>
  <path d="M86.0,362.4 L97.9,360.2 L109.7,366.0 L121.6,369.1 L133.5,385.6 L145.3,383.8 L157.2,373.6 L169.1,380.3 L180.9,387.0 L192.8,392.3 L204.7,381.6 L216.5,378.0 L228.4,385.6 L240.2,388.7 L252.1,399.0 L264.0,406.2 L275.8,391.4 L287.7,385.2 L299.6,388.7 L311.4,388.3 L323.3,392.3 L335.2,362.8 L347.0,360.2 L358.9,365.1 L370.8,363.7 L382.6,339.2 L394.5,339.2 L406.4,351.2 L418.2,332.0 L430.1,332.0 L442.0,336.0 L453.8,342.7 L465.7,349.4 L477.6,353.9 L489.4,349.0 L501.3,353.0 L513.1,360.2 L525.0,367.3 L536.9,376.2 L548.7,393.2 L560.6,384.7 L572.5,363.3 L584.3,362.8 L596.2,356.6 L608.1,368.6 L619.9,371.3 L631.8,300.7 L643.7,260.1 L655.5,308.3 L667.4,324.9 L679.3,323.5 L691.1,316.4 L703.0,296.3 L714.9,240.0 L726.7,222.5 L738.6,197.5 L750.4,163.1 L762.3,127.8 L774.2,164.0 L786.0,185.5 L797.9,205.1 L809.8,221.7 L821.6,241.3 L833.5,236.8 L845.4,239.1 L857.2,268.1 L869.1,249.8 L881.0,244.0 L892.8,247.1 L904.7,263.2 L916.6,283.3 L928.4,278.8 L940.3,276.6 L952.2,281.5 L964.0,288.7 L975.9,276.6 L987.8,275.7 L999.6,280.6 L1011.5,286.0 L1023.3,297.6 L1035.2,310.1 L1047.1,289.1 L1058.9,301.2 L1070.8,303.9 L1082.7,298.9 L1094.5,281.5 L1106.4,288.2 L1118.3,284.2 L1130.1,273.5 L1142.0,273.0 L1142.0,434.0 L86.0,434.0 Z" fill="#0f5949" opacity="0.28"/>
  <path d="M86.0,362.4 L97.9,360.2 L109.7,366.0 L121.6,369.1 L133.5,385.6 L145.3,383.8 L157.2,373.6 L169.1,380.3 L180.9,387.0 L192.8,392.3 L204.7,381.6 L216.5,378.0 L228.4,385.6 L240.2,388.7 L252.1,399.0 L264.0,406.2 L275.8,391.4 L287.7,385.2 L299.6,388.7 L311.4,388.3 L323.3,392.3 L335.2,362.8 L347.0,360.2 L358.9,365.1 L370.8,363.7 L382.6,339.2 L394.5,339.2 L406.4,351.2 L418.2,332.0 L430.1,332.0 L442.0,336.0 L453.8,342.7 L465.7,349.4 L477.6,353.9 L489.4,349.0 L501.3,353.0 L513.1,360.2 L525.0,367.3 L536.9,376.2 L548.7,393.2 L560.6,384.7 L572.5,363.3 L584.3,362.8 L596.2,356.6 L608.1,368.6 L619.9,371.3 L631.8,300.7 L643.7,260.1 L655.5,308.3 L667.4,324.9 L679.3,323.5 L691.1,316.4 L703.0,296.3 L714.9,240.0 L726.7,222.5 L738.6,197.5 L750.4,163.1 L762.3,127.8 L774.2,164.0 L786.0,185.5 L797.9,205.1 L809.8,221.7 L821.6,241.3 L833.5,236.8 L845.4,239.1 L857.2,268.1 L869.1,249.8 L881.0,244.0 L892.8,247.1 L904.7,263.2 L916.6,283.3 L928.4,278.8 L940.3,276.6 L952.2,281.5 L964.0,288.7 L975.9,276.6 L987.8,275.7 L999.6,280.6 L1011.5,286.0 L1023.3,297.6 L1035.2,310.1 L1047.1,289.1 L1058.9,301.2 L1070.8,303.9 L1082.7,298.9 L1094.5,281.5 L1106.4,288.2 L1118.3,284.2 L1130.1,273.5 L1142.0,273.0" fill="none" stroke="#62d9ee" stroke-width="4" stroke-linecap="round" stroke-linejoin="round"/>
  <g>
    <line x1="1118.3" x2="1118.3" y1="100" y2="434" stroke="#18e59c" stroke-width="2" stroke-dasharray="7 7" opacity="0.8"/>
    <circle cx="1118.3" cy="288.7" r="8" fill="#071f1c" stroke="#18e59c" stroke-width="4"/>
    <text x="1030.0" y="270.7" text-anchor="middle" class="marker" fill="#18e59c">ENTRY | Jul 14 | $13.84</text>
  </g>
  
  <text x="86.0" y="472" text-anchor="middle" class="axis">Mar 9</text><text x="347.0" y="472" text-anchor="middle" class="axis">Apr 9</text><text x="619.9" y="472" text-anchor="middle" class="axis">May 12</text><text x="881.0" y="472" text-anchor="middle" class="axis">Jun 12</text><text x="1142.0" y="472" text-anchor="middle" class="axis">Jul 16</text>
  </svg>