<svg xmlns="http://www.w3.org/2000/svg" width="1200" height="500" viewBox="0 0 1200 500" role="img" aria-label="F underlying price from entry">
  <rect width="1200" height="500" fill="#071f1c"/>
  <style>.head{fill:#f4fff9;font:800 27px Georgia,serif}.sub{fill:#9fc4bb;font:14px Arial,sans-serif}.axis{fill:#8eaaa3;font:12px Arial,sans-serif}.marker{font:800 12px Arial,sans-serif}</style>
  <text x="86" y="40" class="head">F Underlying Price</text>
  <text x="86" y="66" class="sub">90 sessions | Entry marked; position remains open | Published option idea rank 5</text>
  <line x1="86" x2="1142" y1="100.0" y2="100.0" stroke="#1b4a42" stroke-width="1"/><text x="72" y="105.0" text-anchor="end" class="axis">$18.06</text><line x1="86" x2="1142" y1="183.5" y2="183.5" stroke="#1b4a42" stroke-width="1"/><text x="72" y="188.5" text-anchor="end" class="axis">$16.19</text><line x1="86" x2="1142" y1="267.0" y2="267.0" stroke="#1b4a42" stroke-width="1"/><text x="72" y="272.0" text-anchor="end" class="axis">$14.33</text><line x1="86" x2="1142" y1="350.5" y2="350.5" stroke="#1b4a42" stroke-width="1"/><text x="72" y="355.5" text-anchor="end" class="axis">$12.46</text><line x1="86" x2="1142" y1="434.0" y2="434.0" stroke="#1b4a42" stroke-width="1"/><text x="72" y="439.0" text-anchor="end" class="axis">$10.59</text>
  <path d="M86.0,366.0 L97.9,369.1 L109.7,385.6 L121.6,383.8 L133.5,373.6 L145.3,380.3 L157.2,387.0 L169.1,392.3 L180.9,381.6 L192.8,378.0 L204.7,385.6 L216.5,388.7 L228.4,399.0 L240.2,406.2 L252.1,391.4 L264.0,385.2 L275.8,388.7 L287.7,388.3 L299.6,392.3 L311.4,362.8 L323.3,360.2 L335.2,365.1 L347.0,363.7 L358.9,339.2 L370.8,339.2 L382.6,351.2 L394.5,332.0 L406.4,332.0 L418.2,336.0 L430.1,342.7 L442.0,349.4 L453.8,353.9 L465.7,349.0 L477.6,353.0 L489.4,360.2 L501.3,367.3 L513.1,376.2 L525.0,393.2 L536.9,384.7 L548.7,363.3 L560.6,362.8 L572.5,356.6 L584.3,368.6 L596.2,371.3 L608.1,300.7 L619.9,260.1 L631.8,308.3 L643.7,324.9 L655.5,323.5 L667.4,316.4 L679.3,296.3 L691.1,240.0 L703.0,222.5 L714.9,197.5 L726.7,163.1 L738.6,127.8 L750.4,164.0 L762.3,185.5 L774.2,205.1 L786.0,221.7 L797.9,241.3 L809.8,236.8 L821.6,239.1 L833.5,268.1 L845.4,249.8 L857.2,244.0 L869.1,247.1 L881.0,263.2 L892.8,283.3 L904.7,278.8 L916.6,276.6 L928.4,281.5 L940.3,288.7 L952.2,276.6 L964.0,275.7 L975.9,280.6 L987.8,286.0 L999.6,297.6 L1011.5,310.1 L1023.3,289.1 L1035.2,301.2 L1047.1,303.9 L1058.9,298.9 L1070.8,281.5 L1082.7,288.2 L1094.5,284.2 L1106.4,273.5 L1118.3,273.0 L1130.1,271.2 L1142.0,282.0 L1142.0,434.0 L86.0,434.0 Z" fill="#0f5949" opacity="0.28"/>
  <path d="M86.0,366.0 L97.9,369.1 L109.7,385.6 L121.6,383.8 L133.5,373.6 L145.3,380.3 L157.2,387.0 L169.1,392.3 L180.9,381.6 L192.8,378.0 L204.7,385.6 L216.5,388.7 L228.4,399.0 L240.2,406.2 L252.1,391.4 L264.0,385.2 L275.8,388.7 L287.7,388.3 L299.6,392.3 L311.4,362.8 L323.3,360.2 L335.2,365.1 L347.0,363.7 L358.9,339.2 L370.8,339.2 L382.6,351.2 L394.5,332.0 L406.4,332.0 L418.2,336.0 L430.1,342.7 L442.0,349.4 L453.8,353.9 L465.7,349.0 L477.6,353.0 L489.4,360.2 L501.3,367.3 L513.1,376.2 L525.0,393.2 L536.9,384.7 L548.7,363.3 L560.6,362.8 L572.5,356.6 L584.3,368.6 L596.2,371.3 L608.1,300.7 L619.9,260.1 L631.8,308.3 L643.7,324.9 L655.5,323.5 L667.4,316.4 L679.3,296.3 L691.1,240.0 L703.0,222.5 L714.9,197.5 L726.7,163.1 L738.6,127.8 L750.4,164.0 L762.3,185.5 L774.2,205.1 L786.0,221.7 L797.9,241.3 L809.8,236.8 L821.6,239.1 L833.5,268.1 L845.4,249.8 L857.2,244.0 L869.1,247.1 L881.0,263.2 L892.8,283.3 L904.7,278.8 L916.6,276.6 L928.4,281.5 L940.3,288.7 L952.2,276.6 L964.0,275.7 L975.9,280.6 L987.8,286.0 L999.6,297.6 L1011.5,310.1 L1023.3,289.1 L1035.2,301.2 L1047.1,303.9 L1058.9,298.9 L1070.8,281.5 L1082.7,288.2 L1094.5,284.2 L1106.4,273.5 L1118.3,273.0 L1130.1,271.2 L1142.0,282.0" fill="none" stroke="#62d9ee" stroke-width="4" stroke-linecap="round" stroke-linejoin="round"/>
  <g>
    <line x1="1094.5" x2="1094.5" y1="100" y2="434" stroke="#18e59c" stroke-width="2" stroke-dasharray="7 7" opacity="0.8"/>
    <circle cx="1094.5" cy="288.7" r="8" fill="#071f1c" stroke="#18e59c" stroke-width="4"/>
    <text x="1030.0" y="270.7" text-anchor="middle" class="marker" fill="#18e59c">ENTRY | Jul 14 | $13.84</text>
  </g>
  
  <text x="86.0" y="472" text-anchor="middle" class="axis">Mar 11</text><text x="347.0" y="472" text-anchor="middle" class="axis">Apr 13</text><text x="619.9" y="472" text-anchor="middle" class="axis">May 14</text><text x="881.0" y="472" text-anchor="middle" class="axis">Jun 16</text><text x="1142.0" y="472" text-anchor="middle" class="axis">Jul 20</text>
  </svg>