<svg xmlns="http://www.w3.org/2000/svg" width="1200" height="500" viewBox="0 0 1200 500" role="img" aria-label="F underlying price from entry">
  <rect width="1200" height="500" fill="#071f1c"/>
  <style>.head{fill:#f4fff9;font:800 27px Georgia,serif}.sub{fill:#9fc4bb;font:14px Arial,sans-serif}.axis{fill:#8eaaa3;font:12px Arial,sans-serif}.marker{font:800 12px Arial,sans-serif}</style>
  <text x="86" y="40" class="head">F Underlying Price</text>
  <text x="86" y="66" class="sub">90 sessions | Entry marked; position remains open | Published option idea rank 5</text>
  <line x1="86" x2="1142" y1="100.0" y2="100.0" stroke="#1b4a42" stroke-width="1"/><text x="72" y="105.0" text-anchor="end" class="axis">$18.06</text><line x1="86" x2="1142" y1="183.5" y2="183.5" stroke="#1b4a42" stroke-width="1"/><text x="72" y="188.5" text-anchor="end" class="axis">$16.19</text><line x1="86" x2="1142" y1="267.0" y2="267.0" stroke="#1b4a42" stroke-width="1"/><text x="72" y="272.0" text-anchor="end" class="axis">$14.33</text><line x1="86" x2="1142" y1="350.5" y2="350.5" stroke="#1b4a42" stroke-width="1"/><text x="72" y="355.5" text-anchor="end" class="axis">$12.46</text><line x1="86" x2="1142" y1="434.0" y2="434.0" stroke="#1b4a42" stroke-width="1"/><text x="72" y="439.0" text-anchor="end" class="axis">$10.59</text>
  <path d="M86.0,369.1 L97.9,385.6 L109.7,383.8 L121.6,373.6 L133.5,380.3 L145.3,387.0 L157.2,392.3 L169.1,381.6 L180.9,378.0 L192.8,385.6 L204.7,388.7 L216.5,399.0 L228.4,406.2 L240.2,391.4 L252.1,385.2 L264.0,388.7 L275.8,388.3 L287.7,392.3 L299.6,362.8 L311.4,360.2 L323.3,365.1 L335.2,363.7 L347.0,339.2 L358.9,339.2 L370.8,351.2 L382.6,332.0 L394.5,332.0 L406.4,336.0 L418.2,342.7 L430.1,349.4 L442.0,353.9 L453.8,349.0 L465.7,353.0 L477.6,360.2 L489.4,367.3 L501.3,376.2 L513.1,393.2 L525.0,384.7 L536.9,363.3 L548.7,362.8 L560.6,356.6 L572.5,368.6 L584.3,371.3 L596.2,300.7 L608.1,260.1 L619.9,308.3 L631.8,324.9 L643.7,323.5 L655.5,316.4 L667.4,296.3 L679.3,240.0 L691.1,222.5 L703.0,197.5 L714.9,163.1 L726.7,127.8 L738.6,164.0 L750.4,185.5 L762.3,205.1 L774.2,221.7 L786.0,241.3 L797.9,236.8 L809.8,239.1 L821.6,268.1 L833.5,249.8 L845.4,244.0 L857.2,247.1 L869.1,263.2 L881.0,283.3 L892.8,278.8 L904.7,276.6 L916.6,281.5 L928.4,288.7 L940.3,276.6 L952.2,275.7 L964.0,280.6 L975.9,286.0 L987.8,297.6 L999.6,310.1 L1011.5,289.1 L1023.3,301.2 L1035.2,303.9 L1047.1,298.9 L1058.9,281.5 L1070.8,288.2 L1082.7,284.2 L1094.5,273.5 L1106.4,273.0 L1118.3,271.2 L1130.1,282.0 L1142.0,269.5 L1142.0,434.0 L86.0,434.0 Z" fill="#0f5949" opacity="0.28"/>
  <path d="M86.0,369.1 L97.9,385.6 L109.7,383.8 L121.6,373.6 L133.5,380.3 L145.3,387.0 L157.2,392.3 L169.1,381.6 L180.9,378.0 L192.8,385.6 L204.7,388.7 L216.5,399.0 L228.4,406.2 L240.2,391.4 L252.1,385.2 L264.0,388.7 L275.8,388.3 L287.7,392.3 L299.6,362.8 L311.4,360.2 L323.3,365.1 L335.2,363.7 L347.0,339.2 L358.9,339.2 L370.8,351.2 L382.6,332.0 L394.5,332.0 L406.4,336.0 L418.2,342.7 L430.1,349.4 L442.0,353.9 L453.8,349.0 L465.7,353.0 L477.6,360.2 L489.4,367.3 L501.3,376.2 L513.1,393.2 L525.0,384.7 L536.9,363.3 L548.7,362.8 L560.6,356.6 L572.5,368.6 L584.3,371.3 L596.2,300.7 L608.1,260.1 L619.9,308.3 L631.8,324.9 L643.7,323.5 L655.5,316.4 L667.4,296.3 L679.3,240.0 L691.1,222.5 L703.0,197.5 L714.9,163.1 L726.7,127.8 L738.6,164.0 L750.4,185.5 L762.3,205.1 L774.2,221.7 L786.0,241.3 L797.9,236.8 L809.8,239.1 L821.6,268.1 L833.5,249.8 L845.4,244.0 L857.2,247.1 L869.1,263.2 L881.0,283.3 L892.8,278.8 L904.7,276.6 L916.6,281.5 L928.4,288.7 L940.3,276.6 L952.2,275.7 L964.0,280.6 L975.9,286.0 L987.8,297.6 L999.6,310.1 L1011.5,289.1 L1023.3,301.2 L1035.2,303.9 L1047.1,298.9 L1058.9,281.5 L1070.8,288.2 L1082.7,284.2 L1094.5,273.5 L1106.4,273.0 L1118.3,271.2 L1130.1,282.0 L1142.0,269.5" fill="none" stroke="#62d9ee" stroke-width="4" stroke-linecap="round" stroke-linejoin="round"/>
  <g>
    <line x1="1082.7" x2="1082.7" y1="100" y2="434" stroke="#18e59c" stroke-width="2" stroke-dasharray="7 7" opacity="0.8"/>
    <circle cx="1082.7" cy="288.7" r="8" fill="#071f1c" stroke="#18e59c" stroke-width="4"/>
    <text x="1030.0" y="270.7" text-anchor="middle" class="marker" fill="#18e59c">ENTRY | Jul 14 | $13.84</text>
  </g>
  
  <text x="86.0" y="472" text-anchor="middle" class="axis">Mar 12</text><text x="347.0" y="472" text-anchor="middle" class="axis">Apr 14</text><text x="619.9" y="472" text-anchor="middle" class="axis">May 15</text><text x="881.0" y="472" text-anchor="middle" class="axis">Jun 17</text><text x="1142.0" y="472" text-anchor="middle" class="axis">Jul 21</text>
  </svg>