<svg xmlns="http://www.w3.org/2000/svg" width="1200" height="500" viewBox="0 0 1200 500" role="img" aria-label="F underlying price from entry">
  <rect width="1200" height="500" fill="#071f1c"/>
  <style>.head{fill:#f4fff9;font:800 27px Georgia,serif}.sub{fill:#9fc4bb;font:14px Arial,sans-serif}.axis{fill:#8eaaa3;font:12px Arial,sans-serif}.marker{font:800 12px Arial,sans-serif}</style>
  <text x="86" y="40" class="head">F Underlying Price</text>
  <text x="86" y="66" class="sub">90 sessions | Entry marked; position remains open | Published option idea rank 5</text>
  <line x1="86" x2="1142" y1="100.0" y2="100.0" stroke="#1b4a42" stroke-width="1"/><text x="72" y="105.0" text-anchor="end" class="axis">$18.06</text><line x1="86" x2="1142" y1="183.5" y2="183.5" stroke="#1b4a42" stroke-width="1"/><text x="72" y="188.5" text-anchor="end" class="axis">$16.19</text><line x1="86" x2="1142" y1="267.0" y2="267.0" stroke="#1b4a42" stroke-width="1"/><text x="72" y="272.0" text-anchor="end" class="axis">$14.33</text><line x1="86" x2="1142" y1="350.5" y2="350.5" stroke="#1b4a42" stroke-width="1"/><text x="72" y="355.5" text-anchor="end" class="axis">$12.46</text><line x1="86" x2="1142" y1="434.0" y2="434.0" stroke="#1b4a42" stroke-width="1"/><text x="72" y="439.0" text-anchor="end" class="axis">$10.59</text>
  <path d="M86.0,385.6 L97.9,383.8 L109.7,373.6 L121.6,380.3 L133.5,387.0 L145.3,392.3 L157.2,381.6 L169.1,378.0 L180.9,385.6 L192.8,388.7 L204.7,399.0 L216.5,406.2 L228.4,391.4 L240.2,385.2 L252.1,388.7 L264.0,388.3 L275.8,392.3 L287.7,362.8 L299.6,360.2 L311.4,365.1 L323.3,363.7 L335.2,339.2 L347.0,339.2 L358.9,351.2 L370.8,332.0 L382.6,332.0 L394.5,336.0 L406.4,342.7 L418.2,349.4 L430.1,353.9 L442.0,349.0 L453.8,353.0 L465.7,360.2 L477.6,367.3 L489.4,376.2 L501.3,393.2 L513.1,384.7 L525.0,363.3 L536.9,362.8 L548.7,356.6 L560.6,368.6 L572.5,371.3 L584.3,300.7 L596.2,260.1 L608.1,308.3 L619.9,324.9 L631.8,323.5 L643.7,316.4 L655.5,296.3 L667.4,240.0 L679.3,222.5 L691.1,197.5 L703.0,163.1 L714.9,127.8 L726.7,164.0 L738.6,185.5 L750.4,205.1 L762.3,221.7 L774.2,241.3 L786.0,236.8 L797.9,239.1 L809.8,268.1 L821.6,249.8 L833.5,244.0 L845.4,247.1 L857.2,263.2 L869.1,283.3 L881.0,278.8 L892.8,276.6 L904.7,281.5 L916.6,288.7 L928.4,276.6 L940.3,275.7 L952.2,280.6 L964.0,286.0 L975.9,297.6 L987.8,310.1 L999.6,289.1 L1011.5,301.2 L1023.3,303.9 L1035.2,298.9 L1047.1,281.5 L1058.9,288.2 L1070.8,284.2 L1082.7,273.5 L1094.5,273.0 L1106.4,271.2 L1118.3,282.0 L1130.1,269.5 L1142.0,262.8 L1142.0,434.0 L86.0,434.0 Z" fill="#0f5949" opacity="0.28"/>
  <path d="M86.0,385.6 L97.9,383.8 L109.7,373.6 L121.6,380.3 L133.5,387.0 L145.3,392.3 L157.2,381.6 L169.1,378.0 L180.9,385.6 L192.8,388.7 L204.7,399.0 L216.5,406.2 L228.4,391.4 L240.2,385.2 L252.1,388.7 L264.0,388.3 L275.8,392.3 L287.7,362.8 L299.6,360.2 L311.4,365.1 L323.3,363.7 L335.2,339.2 L347.0,339.2 L358.9,351.2 L370.8,332.0 L382.6,332.0 L394.5,336.0 L406.4,342.7 L418.2,349.4 L430.1,353.9 L442.0,349.0 L453.8,353.0 L465.7,360.2 L477.6,367.3 L489.4,376.2 L501.3,393.2 L513.1,384.7 L525.0,363.3 L536.9,362.8 L548.7,356.6 L560.6,368.6 L572.5,371.3 L584.3,300.7 L596.2,260.1 L608.1,308.3 L619.9,324.9 L631.8,323.5 L643.7,316.4 L655.5,296.3 L667.4,240.0 L679.3,222.5 L691.1,197.5 L703.0,163.1 L714.9,127.8 L726.7,164.0 L738.6,185.5 L750.4,205.1 L762.3,221.7 L774.2,241.3 L786.0,236.8 L797.9,239.1 L809.8,268.1 L821.6,249.8 L833.5,244.0 L845.4,247.1 L857.2,263.2 L869.1,283.3 L881.0,278.8 L892.8,276.6 L904.7,281.5 L916.6,288.7 L928.4,276.6 L940.3,275.7 L952.2,280.6 L964.0,286.0 L975.9,297.6 L987.8,310.1 L999.6,289.1 L1011.5,301.2 L1023.3,303.9 L1035.2,298.9 L1047.1,281.5 L1058.9,288.2 L1070.8,284.2 L1082.7,273.5 L1094.5,273.0 L1106.4,271.2 L1118.3,282.0 L1130.1,269.5 L1142.0,262.8" fill="none" stroke="#62d9ee" stroke-width="4" stroke-linecap="round" stroke-linejoin="round"/>
  <g>
    <line x1="1070.8" x2="1070.8" y1="100" y2="434" stroke="#18e59c" stroke-width="2" stroke-dasharray="7 7" opacity="0.8"/>
    <circle cx="1070.8" cy="288.7" r="8" fill="#071f1c" stroke="#18e59c" stroke-width="4"/>
    <text x="1030.0" y="270.7" text-anchor="middle" class="marker" fill="#18e59c">ENTRY | Jul 14 | $13.84</text>
  </g>
  
  <text x="86.0" y="472" text-anchor="middle" class="axis">Mar 13</text><text x="347.0" y="472" text-anchor="middle" class="axis">Apr 15</text><text x="619.9" y="472" text-anchor="middle" class="axis">May 18</text><text x="881.0" y="472" text-anchor="middle" class="axis">Jun 18</text><text x="1142.0" y="472" text-anchor="middle" class="axis">Jul 22</text>
  </svg>