<svg xmlns="http://www.w3.org/2000/svg" width="1200" height="500" viewBox="0 0 1200 500" role="img" aria-label="F underlying price from entry">
  <rect width="1200" height="500" fill="#071f1c"/>
  <style>.head{fill:#f4fff9;font:800 27px Georgia,serif}.sub{fill:#9fc4bb;font:14px Arial,sans-serif}.axis{fill:#8eaaa3;font:12px Arial,sans-serif}.marker{font:800 12px Arial,sans-serif}</style>
  <text x="86" y="40" class="head">F Underlying Price</text>
  <text x="86" y="66" class="sub">90 sessions | Entry marked; position remains open | Published option idea rank 5</text>
  <line x1="86" x2="1142" y1="100.0" y2="100.0" stroke="#1b4a42" stroke-width="1"/><text x="72" y="105.0" text-anchor="end" class="axis">$18.06</text><line x1="86" x2="1142" y1="183.5" y2="183.5" stroke="#1b4a42" stroke-width="1"/><text x="72" y="188.5" text-anchor="end" class="axis">$16.19</text><line x1="86" x2="1142" y1="267.0" y2="267.0" stroke="#1b4a42" stroke-width="1"/><text x="72" y="272.0" text-anchor="end" class="axis">$14.33</text><line x1="86" x2="1142" y1="350.5" y2="350.5" stroke="#1b4a42" stroke-width="1"/><text x="72" y="355.5" text-anchor="end" class="axis">$12.46</text><line x1="86" x2="1142" y1="434.0" y2="434.0" stroke="#1b4a42" stroke-width="1"/><text x="72" y="439.0" text-anchor="end" class="axis">$10.59</text>
  <path d="M86.0,355.7 L97.9,364.2 L109.7,362.4 L121.6,360.2 L133.5,366.0 L145.3,369.1 L157.2,385.6 L169.1,383.8 L180.9,373.6 L192.8,380.3 L204.7,387.0 L216.5,392.3 L228.4,381.6 L240.2,378.0 L252.1,385.6 L264.0,388.7 L275.8,399.0 L287.7,406.2 L299.6,391.4 L311.4,385.2 L323.3,388.7 L335.2,388.3 L347.0,392.3 L358.9,362.8 L370.8,360.2 L382.6,365.1 L394.5,363.7 L406.4,339.2 L418.2,339.2 L430.1,351.2 L442.0,332.0 L453.8,332.0 L465.7,336.0 L477.6,342.7 L489.4,349.4 L501.3,353.9 L513.1,349.0 L525.0,353.0 L536.9,360.2 L548.7,367.3 L560.6,376.2 L572.5,393.2 L584.3,384.7 L596.2,363.3 L608.1,362.8 L619.9,356.6 L631.8,368.6 L643.7,371.3 L655.5,300.7 L667.4,260.1 L679.3,308.3 L691.1,324.9 L703.0,323.5 L714.9,316.4 L726.7,296.3 L738.6,240.0 L750.4,222.5 L762.3,197.5 L774.2,163.1 L786.0,127.8 L797.9,164.0 L809.8,185.5 L821.6,205.1 L833.5,221.7 L845.4,241.3 L857.2,236.8 L869.1,239.1 L881.0,268.1 L892.8,249.8 L904.7,244.0 L916.6,247.1 L928.4,263.2 L940.3,283.3 L952.2,278.8 L964.0,276.6 L975.9,281.5 L987.8,288.7 L999.6,276.6 L1011.5,275.7 L1023.3,280.6 L1035.2,286.0 L1047.1,297.6 L1058.9,310.1 L1070.8,289.1 L1082.7,301.2 L1094.5,303.9 L1106.4,298.9 L1118.3,281.5 L1130.1,288.2 L1142.0,288.7 L1142.0,434.0 L86.0,434.0 Z" fill="#0f5949" opacity="0.28"/>
  <path d="M86.0,355.7 L97.9,364.2 L109.7,362.4 L121.6,360.2 L133.5,366.0 L145.3,369.1 L157.2,385.6 L169.1,383.8 L180.9,373.6 L192.8,380.3 L204.7,387.0 L216.5,392.3 L228.4,381.6 L240.2,378.0 L252.1,385.6 L264.0,388.7 L275.8,399.0 L287.7,406.2 L299.6,391.4 L311.4,385.2 L323.3,388.7 L335.2,388.3 L347.0,392.3 L358.9,362.8 L370.8,360.2 L382.6,365.1 L394.5,363.7 L406.4,339.2 L418.2,339.2 L430.1,351.2 L442.0,332.0 L453.8,332.0 L465.7,336.0 L477.6,342.7 L489.4,349.4 L501.3,353.9 L513.1,349.0 L525.0,353.0 L536.9,360.2 L548.7,367.3 L560.6,376.2 L572.5,393.2 L584.3,384.7 L596.2,363.3 L608.1,362.8 L619.9,356.6 L631.8,368.6 L643.7,371.3 L655.5,300.7 L667.4,260.1 L679.3,308.3 L691.1,324.9 L703.0,323.5 L714.9,316.4 L726.7,296.3 L738.6,240.0 L750.4,222.5 L762.3,197.5 L774.2,163.1 L786.0,127.8 L797.9,164.0 L809.8,185.5 L821.6,205.1 L833.5,221.7 L845.4,241.3 L857.2,236.8 L869.1,239.1 L881.0,268.1 L892.8,249.8 L904.7,244.0 L916.6,247.1 L928.4,263.2 L940.3,283.3 L952.2,278.8 L964.0,276.6 L975.9,281.5 L987.8,288.7 L999.6,276.6 L1011.5,275.7 L1023.3,280.6 L1035.2,286.0 L1047.1,297.6 L1058.9,310.1 L1070.8,289.1 L1082.7,301.2 L1094.5,303.9 L1106.4,298.9 L1118.3,281.5 L1130.1,288.2 L1142.0,288.7" fill="none" stroke="#62d9ee" stroke-width="4" stroke-linecap="round" stroke-linejoin="round"/>
  <g>
    <line x1="1142.0" x2="1142.0" y1="100" y2="434" stroke="#18e59c" stroke-width="2" stroke-dasharray="7 7" opacity="0.8"/>
    <circle cx="1142.0" cy="288.7" r="8" fill="#071f1c" stroke="#18e59c" stroke-width="4"/>
    <text x="1030.0" y="270.7" text-anchor="middle" class="marker" fill="#18e59c">ENTRY | Jul 14 | $13.84</text>
  </g>
  
  <text x="86.0" y="472" text-anchor="middle" class="axis">Mar 5</text><text x="347.0" y="472" text-anchor="middle" class="axis">Apr 7</text><text x="619.9" y="472" text-anchor="middle" class="axis">May 8</text><text x="881.0" y="472" text-anchor="middle" class="axis">Jun 10</text><text x="1142.0" y="472" text-anchor="middle" class="axis">Jul 14</text>
  </svg>