<svg xmlns="http://www.w3.org/2000/svg" width="1200" height="500" viewBox="0 0 1200 500" role="img" aria-label="TLT underlying price from entry">
  <rect width="1200" height="500" fill="#071f1c"/>
  <style>.head{fill:#f4fff9;font:800 27px Georgia,serif}.sub{fill:#9fc4bb;font:14px Arial,sans-serif}.axis{fill:#8eaaa3;font:12px Arial,sans-serif}.marker{font:800 12px Arial,sans-serif}</style>
  <text x="86" y="40" class="head">TLT Underlying Price</text>
  <text x="86" y="66" class="sub">90 sessions | Entry marked; position remains open | Published option idea rank 1</text>
  <line x1="86" x2="1142" y1="100.0" y2="100.0" stroke="#1b4a42" stroke-width="1"/><text x="72" y="105.0" text-anchor="end" class="axis">$88.80</text><line x1="86" x2="1142" y1="183.5" y2="183.5" stroke="#1b4a42" stroke-width="1"/><text x="72" y="188.5" text-anchor="end" class="axis">$87.03</text><line x1="86" x2="1142" y1="267.0" y2="267.0" stroke="#1b4a42" stroke-width="1"/><text x="72" y="272.0" text-anchor="end" class="axis">$85.25</text><line x1="86" x2="1142" y1="350.5" y2="350.5" stroke="#1b4a42" stroke-width="1"/><text x="72" y="355.5" text-anchor="end" class="axis">$83.48</text><line x1="86" x2="1142" y1="434.0" y2="434.0" stroke="#1b4a42" stroke-width="1"/><text x="72" y="439.0" text-anchor="end" class="axis">$81.71</text>
  <path d="M86.0,175.0 L97.9,163.7 L109.7,186.7 L121.6,161.8 L133.5,239.9 L145.3,213.6 L157.2,231.5 L169.1,192.4 L180.9,226.7 L192.8,248.9 L204.7,195.2 L216.5,199.4 L228.4,219.7 L240.2,194.7 L252.1,201.3 L264.0,201.8 L275.8,188.6 L287.7,199.0 L299.6,208.9 L311.4,196.6 L323.3,175.0 L335.2,192.9 L347.0,218.7 L358.9,181.6 L370.8,182.5 L382.6,205.1 L394.5,197.1 L406.4,206.0 L418.2,198.5 L430.1,218.7 L442.0,214.5 L453.8,246.1 L465.7,249.8 L477.6,250.3 L489.4,280.9 L501.3,258.8 L513.1,228.2 L525.0,248.4 L536.9,228.2 L548.7,252.6 L560.6,279.5 L572.5,288.4 L584.3,282.8 L596.2,342.1 L608.1,346.8 L619.9,372.2 L631.8,330.3 L643.7,315.7 L655.5,294.1 L667.4,274.3 L679.3,264.9 L691.1,244.2 L703.0,243.2 L714.9,256.9 L726.7,248.4 L738.6,264.4 L750.4,255.5 L762.3,276.2 L774.2,296.9 L786.0,273.4 L797.9,284.7 L809.8,232.9 L821.6,242.8 L833.5,245.1 L845.4,223.0 L857.2,216.4 L869.1,196.6 L881.0,227.7 L892.8,222.5 L904.7,167.0 L916.6,168.4 L928.4,167.9 L940.3,163.7 L952.2,212.2 L964.0,254.5 L975.9,255.0 L987.8,257.8 L999.6,300.2 L1011.5,309.1 L1023.3,303.0 L1035.2,304.0 L1047.1,327.5 L1058.9,322.3 L1070.8,314.8 L1082.7,316.2 L1094.5,301.6 L1106.4,331.3 L1118.3,342.1 L1130.1,352.4 L1142.0,365.2 L1142.0,434.0 L86.0,434.0 Z" fill="#0f5949" opacity="0.28"/>
  <path d="M86.0,175.0 L97.9,163.7 L109.7,186.7 L121.6,161.8 L133.5,239.9 L145.3,213.6 L157.2,231.5 L169.1,192.4 L180.9,226.7 L192.8,248.9 L204.7,195.2 L216.5,199.4 L228.4,219.7 L240.2,194.7 L252.1,201.3 L264.0,201.8 L275.8,188.6 L287.7,199.0 L299.6,208.9 L311.4,196.6 L323.3,175.0 L335.2,192.9 L347.0,218.7 L358.9,181.6 L370.8,182.5 L382.6,205.1 L394.5,197.1 L406.4,206.0 L418.2,198.5 L430.1,218.7 L442.0,214.5 L453.8,246.1 L465.7,249.8 L477.6,250.3 L489.4,280.9 L501.3,258.8 L513.1,228.2 L525.0,248.4 L536.9,228.2 L548.7,252.6 L560.6,279.5 L572.5,288.4 L584.3,282.8 L596.2,342.1 L608.1,346.8 L619.9,372.2 L631.8,330.3 L643.7,315.7 L655.5,294.1 L667.4,274.3 L679.3,264.9 L691.1,244.2 L703.0,243.2 L714.9,256.9 L726.7,248.4 L738.6,264.4 L750.4,255.5 L762.3,276.2 L774.2,296.9 L786.0,273.4 L797.9,284.7 L809.8,232.9 L821.6,242.8 L833.5,245.1 L845.4,223.0 L857.2,216.4 L869.1,196.6 L881.0,227.7 L892.8,222.5 L904.7,167.0 L916.6,168.4 L928.4,167.9 L940.3,163.7 L952.2,212.2 L964.0,254.5 L975.9,255.0 L987.8,257.8 L999.6,300.2 L1011.5,309.1 L1023.3,303.0 L1035.2,304.0 L1047.1,327.5 L1058.9,322.3 L1070.8,314.8 L1082.7,316.2 L1094.5,301.6 L1106.4,331.3 L1118.3,342.1 L1130.1,352.4 L1142.0,365.2" fill="none" stroke="#62d9ee" stroke-width="4" stroke-linecap="round" stroke-linejoin="round"/>
  <g>
    <line x1="1118.3" x2="1118.3" y1="100" y2="434" stroke="#18e59c" stroke-width="2" stroke-dasharray="7 7" opacity="0.8"/>
    <circle cx="1118.3" cy="341.9" r="8" fill="#071f1c" stroke="#18e59c" stroke-width="4"/>
    <text x="1030.0" y="323.9" text-anchor="middle" class="marker" fill="#18e59c">ENTRY | Jul 21 | $83.67</text>
  </g>
  
  <text x="86.0" y="472" text-anchor="middle" class="axis">Mar 16</text><text x="347.0" y="472" text-anchor="middle" class="axis">Apr 16</text><text x="619.9" y="472" text-anchor="middle" class="axis">May 19</text><text x="881.0" y="472" text-anchor="middle" class="axis">Jun 22</text><text x="1142.0" y="472" text-anchor="middle" class="axis">Jul 23</text>
  </svg>