<svg xmlns="http://www.w3.org/2000/svg" width="1200" height="500" viewBox="0 0 1200 500" role="img" aria-label="TLT underlying price from entry">
  <rect width="1200" height="500" fill="#071f1c"/>
  <style>.head{fill:#f4fff9;font:800 27px Georgia,serif}.sub{fill:#9fc4bb;font:14px Arial,sans-serif}.axis{fill:#8eaaa3;font:12px Arial,sans-serif}.marker{font:800 12px Arial,sans-serif}</style>
  <text x="86" y="40" class="head">TLT Underlying Price</text>
  <text x="86" y="66" class="sub">90 sessions | Entry marked; position remains open | Published option idea rank 1</text>
  <line x1="86" x2="1142" y1="100.0" y2="100.0" stroke="#1b4a42" stroke-width="1"/><text x="72" y="105.0" text-anchor="end" class="axis">$88.80</text><line x1="86" x2="1142" y1="183.5" y2="183.5" stroke="#1b4a42" stroke-width="1"/><text x="72" y="188.5" text-anchor="end" class="axis">$87.03</text><line x1="86" x2="1142" y1="267.0" y2="267.0" stroke="#1b4a42" stroke-width="1"/><text x="72" y="272.0" text-anchor="end" class="axis">$85.25</text><line x1="86" x2="1142" y1="350.5" y2="350.5" stroke="#1b4a42" stroke-width="1"/><text x="72" y="355.5" text-anchor="end" class="axis">$83.48</text><line x1="86" x2="1142" y1="434.0" y2="434.0" stroke="#1b4a42" stroke-width="1"/><text x="72" y="439.0" text-anchor="end" class="axis">$81.71</text>
  <path d="M86.0,186.3 L97.9,206.5 L109.7,175.0 L121.6,163.7 L133.5,186.7 L145.3,161.8 L157.2,239.9 L169.1,213.6 L180.9,231.5 L192.8,192.4 L204.7,226.7 L216.5,248.9 L228.4,195.2 L240.2,199.4 L252.1,219.7 L264.0,194.7 L275.8,201.3 L287.7,201.8 L299.6,188.6 L311.4,199.0 L323.3,208.9 L335.2,196.6 L347.0,175.0 L358.9,192.9 L370.8,218.7 L382.6,181.6 L394.5,182.5 L406.4,205.1 L418.2,197.1 L430.1,206.0 L442.0,198.5 L453.8,218.7 L465.7,214.5 L477.6,246.1 L489.4,249.8 L501.3,250.3 L513.1,280.9 L525.0,258.8 L536.9,228.2 L548.7,248.4 L560.6,228.2 L572.5,252.6 L584.3,279.5 L596.2,288.4 L608.1,282.8 L619.9,342.1 L631.8,346.8 L643.7,372.2 L655.5,330.3 L667.4,315.7 L679.3,294.1 L691.1,274.3 L703.0,264.9 L714.9,244.2 L726.7,243.2 L738.6,256.9 L750.4,248.4 L762.3,264.4 L774.2,255.5 L786.0,276.2 L797.9,296.9 L809.8,273.4 L821.6,284.7 L833.5,232.9 L845.4,242.8 L857.2,245.1 L869.1,223.0 L881.0,216.4 L892.8,196.6 L904.7,227.7 L916.6,222.5 L928.4,167.0 L940.3,168.4 L952.2,167.9 L964.0,163.7 L975.9,212.2 L987.8,254.5 L999.6,255.0 L1011.5,257.8 L1023.3,300.2 L1035.2,309.1 L1047.1,303.0 L1058.9,304.0 L1070.8,327.5 L1082.7,322.3 L1094.5,314.8 L1106.4,316.2 L1118.3,301.6 L1130.1,331.3 L1142.0,342.1 L1142.0,434.0 L86.0,434.0 Z" fill="#0f5949" opacity="0.28"/>
  <path d="M86.0,186.3 L97.9,206.5 L109.7,175.0 L121.6,163.7 L133.5,186.7 L145.3,161.8 L157.2,239.9 L169.1,213.6 L180.9,231.5 L192.8,192.4 L204.7,226.7 L216.5,248.9 L228.4,195.2 L240.2,199.4 L252.1,219.7 L264.0,194.7 L275.8,201.3 L287.7,201.8 L299.6,188.6 L311.4,199.0 L323.3,208.9 L335.2,196.6 L347.0,175.0 L358.9,192.9 L370.8,218.7 L382.6,181.6 L394.5,182.5 L406.4,205.1 L418.2,197.1 L430.1,206.0 L442.0,198.5 L453.8,218.7 L465.7,214.5 L477.6,246.1 L489.4,249.8 L501.3,250.3 L513.1,280.9 L525.0,258.8 L536.9,228.2 L548.7,248.4 L560.6,228.2 L572.5,252.6 L584.3,279.5 L596.2,288.4 L608.1,282.8 L619.9,342.1 L631.8,346.8 L643.7,372.2 L655.5,330.3 L667.4,315.7 L679.3,294.1 L691.1,274.3 L703.0,264.9 L714.9,244.2 L726.7,243.2 L738.6,256.9 L750.4,248.4 L762.3,264.4 L774.2,255.5 L786.0,276.2 L797.9,296.9 L809.8,273.4 L821.6,284.7 L833.5,232.9 L845.4,242.8 L857.2,245.1 L869.1,223.0 L881.0,216.4 L892.8,196.6 L904.7,227.7 L916.6,222.5 L928.4,167.0 L940.3,168.4 L952.2,167.9 L964.0,163.7 L975.9,212.2 L987.8,254.5 L999.6,255.0 L1011.5,257.8 L1023.3,300.2 L1035.2,309.1 L1047.1,303.0 L1058.9,304.0 L1070.8,327.5 L1082.7,322.3 L1094.5,314.8 L1106.4,316.2 L1118.3,301.6 L1130.1,331.3 L1142.0,342.1" fill="none" stroke="#62d9ee" stroke-width="4" stroke-linecap="round" stroke-linejoin="round"/>
  <g>
    <line x1="1142.0" x2="1142.0" y1="100" y2="434" stroke="#18e59c" stroke-width="2" stroke-dasharray="7 7" opacity="0.8"/>
    <circle cx="1142.0" cy="341.9" r="8" fill="#071f1c" stroke="#18e59c" stroke-width="4"/>
    <text x="1030.0" y="323.9" text-anchor="middle" class="marker" fill="#18e59c">ENTRY | Jul 21 | $83.67</text>
  </g>
  
  <text x="86.0" y="472" text-anchor="middle" class="axis">Mar 12</text><text x="347.0" y="472" text-anchor="middle" class="axis">Apr 14</text><text x="619.9" y="472" text-anchor="middle" class="axis">May 15</text><text x="881.0" y="472" text-anchor="middle" class="axis">Jun 17</text><text x="1142.0" y="472" text-anchor="middle" class="axis">Jul 21</text>
  </svg>