<svg xmlns="http://www.w3.org/2000/svg" width="1200" height="500" viewBox="0 0 1200 500" role="img" aria-label="NFLX underlying price from entry">
  <rect width="1200" height="500" fill="#071f1c"/>
  <style>.head{fill:#f4fff9;font:800 27px Georgia,serif}.sub{fill:#9fc4bb;font:14px Arial,sans-serif}.axis{fill:#8eaaa3;font:12px Arial,sans-serif}.marker{font:800 12px Arial,sans-serif}</style>
  <text x="86" y="40" class="head">NFLX Underlying Price</text>
  <text x="86" y="66" class="sub">90 sessions | Entry marked; position remains open | Published option idea rank 1</text>
  <line x1="86" x2="1142" y1="100.0" y2="100.0" stroke="#1b4a42" stroke-width="1"/><text x="72" y="105.0" text-anchor="end" class="axis">$111.48</text><line x1="86" x2="1142" y1="183.5" y2="183.5" stroke="#1b4a42" stroke-width="1"/><text x="72" y="188.5" text-anchor="end" class="axis">$100.41</text><line x1="86" x2="1142" y1="267.0" y2="267.0" stroke="#1b4a42" stroke-width="1"/><text x="72" y="272.0" text-anchor="end" class="axis">$89.35</text><line x1="86" x2="1142" y1="350.5" y2="350.5" stroke="#1b4a42" stroke-width="1"/><text x="72" y="355.5" text-anchor="end" class="axis">$78.28</text><line x1="86" x2="1142" y1="434.0" y2="434.0" stroke="#1b4a42" stroke-width="1"/><text x="72" y="439.0" text-anchor="end" class="axis">$67.21</text>
  <path d="M86.0,194.0 L97.9,199.3 L109.7,209.7 L121.6,225.2 L133.5,229.5 L145.3,222.0 L157.2,222.8 L169.1,229.2 L180.9,226.6 L192.8,248.9 L204.7,248.3 L216.5,236.6 L228.4,255.1 L240.2,244.9 L252.1,237.0 L264.0,236.2 L275.8,239.6 L287.7,215.7 L299.6,220.2 L311.4,196.7 L323.3,194.7 L335.2,195.5 L347.0,191.2 L358.9,171.1 L370.8,163.9 L382.6,162.8 L394.5,139.2 L406.4,128.4 L418.2,127.8 L430.1,206.9 L442.0,225.6 L453.8,242.6 L465.7,237.6 L477.6,240.8 L489.4,243.6 L501.3,251.7 L513.1,244.9 L525.0,246.1 L536.9,234.8 L548.7,246.5 L560.6,254.4 L572.5,278.0 L584.3,275.1 L596.2,275.3 L608.1,281.0 L619.9,296.4 L631.8,279.7 L643.7,280.5 L655.5,285.1 L667.4,284.5 L679.3,264.7 L691.1,267.1 L703.0,276.5 L714.9,267.3 L726.7,272.6 L738.6,279.6 L750.4,282.1 L762.3,289.5 L774.2,292.1 L786.0,293.4 L797.9,312.4 L809.8,326.0 L821.6,325.7 L833.5,321.1 L845.4,317.6 L857.2,326.9 L869.1,322.4 L881.0,327.9 L892.8,334.9 L904.7,324.9 L916.6,347.2 L928.4,360.4 L940.3,357.3 L952.2,391.2 L964.0,391.7 L975.9,399.1 L987.8,406.2 L999.6,384.2 L1011.5,384.4 L1023.3,402.4 L1035.2,381.3 L1047.1,355.2 L1058.9,367.5 L1070.8,366.3 L1082.7,370.8 L1094.5,371.7 L1106.4,387.5 L1118.3,384.1 L1130.1,386.3 L1142.0,385.2 L1142.0,434.0 L86.0,434.0 Z" fill="#0f5949" opacity="0.28"/>
  <path d="M86.0,194.0 L97.9,199.3 L109.7,209.7 L121.6,225.2 L133.5,229.5 L145.3,222.0 L157.2,222.8 L169.1,229.2 L180.9,226.6 L192.8,248.9 L204.7,248.3 L216.5,236.6 L228.4,255.1 L240.2,244.9 L252.1,237.0 L264.0,236.2 L275.8,239.6 L287.7,215.7 L299.6,220.2 L311.4,196.7 L323.3,194.7 L335.2,195.5 L347.0,191.2 L358.9,171.1 L370.8,163.9 L382.6,162.8 L394.5,139.2 L406.4,128.4 L418.2,127.8 L430.1,206.9 L442.0,225.6 L453.8,242.6 L465.7,237.6 L477.6,240.8 L489.4,243.6 L501.3,251.7 L513.1,244.9 L525.0,246.1 L536.9,234.8 L548.7,246.5 L560.6,254.4 L572.5,278.0 L584.3,275.1 L596.2,275.3 L608.1,281.0 L619.9,296.4 L631.8,279.7 L643.7,280.5 L655.5,285.1 L667.4,284.5 L679.3,264.7 L691.1,267.1 L703.0,276.5 L714.9,267.3 L726.7,272.6 L738.6,279.6 L750.4,282.1 L762.3,289.5 L774.2,292.1 L786.0,293.4 L797.9,312.4 L809.8,326.0 L821.6,325.7 L833.5,321.1 L845.4,317.6 L857.2,326.9 L869.1,322.4 L881.0,327.9 L892.8,334.9 L904.7,324.9 L916.6,347.2 L928.4,360.4 L940.3,357.3 L952.2,391.2 L964.0,391.7 L975.9,399.1 L987.8,406.2 L999.6,384.2 L1011.5,384.4 L1023.3,402.4 L1035.2,381.3 L1047.1,355.2 L1058.9,367.5 L1070.8,366.3 L1082.7,370.8 L1094.5,371.7 L1106.4,387.5 L1118.3,384.1 L1130.1,386.3 L1142.0,385.2" fill="none" stroke="#62d9ee" stroke-width="4" stroke-linecap="round" stroke-linejoin="round"/>
  <g>
    <line x1="1106.4" x2="1106.4" y1="100" y2="434" stroke="#18e59c" stroke-width="2" stroke-dasharray="7 7" opacity="0.8"/>
    <circle cx="1106.4" cy="387.3" r="8" fill="#071f1c" stroke="#18e59c" stroke-width="4"/>
    <text x="1030.0" y="369.3" text-anchor="middle" class="marker" fill="#18e59c">ENTRY | Jul 10 | $73.40</text>
  </g>
  
  <text x="86.0" y="472" text-anchor="middle" class="axis">Mar 6</text><text x="347.0" y="472" text-anchor="middle" class="axis">Apr 8</text><text x="619.9" y="472" text-anchor="middle" class="axis">May 11</text><text x="881.0" y="472" text-anchor="middle" class="axis">Jun 11</text><text x="1142.0" y="472" text-anchor="middle" class="axis">Jul 15</text>
  </svg>