<svg xmlns="http://www.w3.org/2000/svg" width="1200" height="500" viewBox="0 0 1200 500" role="img" aria-label="NFLX underlying price from entry">
  <rect width="1200" height="500" fill="#071f1c"/>
  <style>.head{fill:#f4fff9;font:800 27px Georgia,serif}.sub{fill:#9fc4bb;font:14px Arial,sans-serif}.axis{fill:#8eaaa3;font:12px Arial,sans-serif}.marker{font:800 12px Arial,sans-serif}</style>
  <text x="86" y="40" class="head">NFLX Underlying Price</text>
  <text x="86" y="66" class="sub">90 sessions | Entry marked; position remains open | Published option idea rank 1</text>
  <line x1="86" x2="1142" y1="100.0" y2="100.0" stroke="#1b4a42" stroke-width="1"/><text x="72" y="105.0" text-anchor="end" class="axis">$111.81</text><line x1="86" x2="1142" y1="183.5" y2="183.5" stroke="#1b4a42" stroke-width="1"/><text x="72" y="188.5" text-anchor="end" class="axis">$99.75</text><line x1="86" x2="1142" y1="267.0" y2="267.0" stroke="#1b4a42" stroke-width="1"/><text x="72" y="272.0" text-anchor="end" class="axis">$87.70</text><line x1="86" x2="1142" y1="350.5" y2="350.5" stroke="#1b4a42" stroke-width="1"/><text x="72" y="355.5" text-anchor="end" class="axis">$75.64</text><line x1="86" x2="1142" y1="434.0" y2="434.0" stroke="#1b4a42" stroke-width="1"/><text x="72" y="439.0" text-anchor="end" class="axis">$63.58</text>
  <path d="M86.0,215.0 L97.9,220.8 L109.7,218.5 L121.6,239.0 L133.5,238.4 L145.3,227.6 L157.2,244.7 L169.1,235.2 L180.9,228.0 L192.8,227.3 L204.7,230.5 L216.5,208.4 L228.4,212.6 L240.2,191.1 L252.1,189.2 L264.0,190.0 L275.8,186.0 L287.7,167.6 L299.6,160.9 L311.4,159.9 L323.3,138.3 L335.2,128.4 L347.0,127.8 L358.9,200.4 L370.8,217.6 L382.6,233.2 L394.5,228.6 L406.4,231.5 L418.2,234.1 L430.1,241.5 L442.0,235.3 L453.8,236.4 L465.7,226.0 L477.6,236.8 L489.4,244.0 L501.3,265.6 L513.1,263.0 L525.0,263.2 L536.9,268.4 L548.7,282.5 L560.6,267.2 L572.5,267.9 L584.3,272.2 L596.2,271.7 L608.1,253.5 L619.9,255.7 L631.8,264.3 L643.7,255.9 L655.5,260.7 L667.4,267.1 L679.3,269.4 L691.1,276.2 L703.0,278.6 L714.9,279.8 L726.7,297.2 L738.6,309.8 L750.4,309.5 L762.3,305.2 L774.2,302.0 L786.0,310.5 L797.9,306.4 L809.8,311.5 L821.6,317.9 L833.5,308.7 L845.4,329.2 L857.2,341.3 L869.1,338.4 L881.0,369.6 L892.8,370.0 L904.7,376.8 L916.6,383.3 L928.4,363.2 L940.3,363.4 L952.2,379.9 L964.0,360.5 L975.9,336.6 L987.8,347.9 L999.6,346.7 L1011.5,350.8 L1023.3,351.7 L1035.2,366.2 L1047.1,363.0 L1058.9,365.1 L1070.8,364.1 L1082.7,359.4 L1094.5,396.8 L1106.4,406.2 L1118.3,398.8 L1130.1,399.7 L1142.0,397.2 L1142.0,434.0 L86.0,434.0 Z" fill="#0f5949" opacity="0.28"/>
  <path d="M86.0,215.0 L97.9,220.8 L109.7,218.5 L121.6,239.0 L133.5,238.4 L145.3,227.6 L157.2,244.7 L169.1,235.2 L180.9,228.0 L192.8,227.3 L204.7,230.5 L216.5,208.4 L228.4,212.6 L240.2,191.1 L252.1,189.2 L264.0,190.0 L275.8,186.0 L287.7,167.6 L299.6,160.9 L311.4,159.9 L323.3,138.3 L335.2,128.4 L347.0,127.8 L358.9,200.4 L370.8,217.6 L382.6,233.2 L394.5,228.6 L406.4,231.5 L418.2,234.1 L430.1,241.5 L442.0,235.3 L453.8,236.4 L465.7,226.0 L477.6,236.8 L489.4,244.0 L501.3,265.6 L513.1,263.0 L525.0,263.2 L536.9,268.4 L548.7,282.5 L560.6,267.2 L572.5,267.9 L584.3,272.2 L596.2,271.7 L608.1,253.5 L619.9,255.7 L631.8,264.3 L643.7,255.9 L655.5,260.7 L667.4,267.1 L679.3,269.4 L691.1,276.2 L703.0,278.6 L714.9,279.8 L726.7,297.2 L738.6,309.8 L750.4,309.5 L762.3,305.2 L774.2,302.0 L786.0,310.5 L797.9,306.4 L809.8,311.5 L821.6,317.9 L833.5,308.7 L845.4,329.2 L857.2,341.3 L869.1,338.4 L881.0,369.6 L892.8,370.0 L904.7,376.8 L916.6,383.3 L928.4,363.2 L940.3,363.4 L952.2,379.9 L964.0,360.5 L975.9,336.6 L987.8,347.9 L999.6,346.7 L1011.5,350.8 L1023.3,351.7 L1035.2,366.2 L1047.1,363.0 L1058.9,365.1 L1070.8,364.1 L1082.7,359.4 L1094.5,396.8 L1106.4,406.2 L1118.3,398.8 L1130.1,399.7 L1142.0,397.2" fill="none" stroke="#62d9ee" stroke-width="4" stroke-linecap="round" stroke-linejoin="round"/>
  <g>
    <line x1="1035.2" x2="1035.2" y1="100" y2="434" stroke="#18e59c" stroke-width="2" stroke-dasharray="7 7" opacity="0.8"/>
    <circle cx="1035.2" cy="366.0" r="8" fill="#071f1c" stroke="#18e59c" stroke-width="4"/>
    <text x="1030.0" y="348.0" text-anchor="middle" class="marker" fill="#18e59c">ENTRY | Jul 10 | $73.40</text>
  </g>
  
  <text x="86.0" y="472" text-anchor="middle" class="axis">Mar 16</text><text x="347.0" y="472" text-anchor="middle" class="axis">Apr 16</text><text x="619.9" y="472" text-anchor="middle" class="axis">May 19</text><text x="881.0" y="472" text-anchor="middle" class="axis">Jun 22</text><text x="1142.0" y="472" text-anchor="middle" class="axis">Jul 23</text>
  </svg>