<svg xmlns="http://www.w3.org/2000/svg" width="1200" height="500" viewBox="0 0 1200 500" role="img" aria-label="NFLX underlying price from entry">
  <rect width="1200" height="500" fill="#071f1c"/>
  <style>.head{fill:#f4fff9;font:800 27px Georgia,serif}.sub{fill:#9fc4bb;font:14px Arial,sans-serif}.axis{fill:#8eaaa3;font:12px Arial,sans-serif}.marker{font:800 12px Arial,sans-serif}</style>
  <text x="86" y="40" class="head">NFLX Underlying Price</text>
  <text x="86" y="66" class="sub">90 sessions | Entry marked; position remains open | Published option idea rank 1</text>
  <line x1="86" x2="1142" y1="100.0" y2="100.0" stroke="#1b4a42" stroke-width="1"/><text x="72" y="105.0" text-anchor="end" class="axis">$111.48</text><line x1="86" x2="1142" y1="183.5" y2="183.5" stroke="#1b4a42" stroke-width="1"/><text x="72" y="188.5" text-anchor="end" class="axis">$100.41</text><line x1="86" x2="1142" y1="267.0" y2="267.0" stroke="#1b4a42" stroke-width="1"/><text x="72" y="272.0" text-anchor="end" class="axis">$89.35</text><line x1="86" x2="1142" y1="350.5" y2="350.5" stroke="#1b4a42" stroke-width="1"/><text x="72" y="355.5" text-anchor="end" class="axis">$78.28</text><line x1="86" x2="1142" y1="434.0" y2="434.0" stroke="#1b4a42" stroke-width="1"/><text x="72" y="439.0" text-anchor="end" class="axis">$67.21</text>
  <path d="M86.0,199.3 L97.9,209.7 L109.7,225.2 L121.6,229.5 L133.5,222.0 L145.3,222.8 L157.2,229.2 L169.1,226.6 L180.9,248.9 L192.8,248.3 L204.7,236.6 L216.5,255.1 L228.4,244.9 L240.2,237.0 L252.1,236.2 L264.0,239.6 L275.8,215.7 L287.7,220.2 L299.6,196.7 L311.4,194.7 L323.3,195.5 L335.2,191.2 L347.0,171.1 L358.9,163.9 L370.8,162.8 L382.6,139.2 L394.5,128.4 L406.4,127.8 L418.2,206.9 L430.1,225.6 L442.0,242.6 L453.8,237.6 L465.7,240.8 L477.6,243.6 L489.4,251.7 L501.3,244.9 L513.1,246.1 L525.0,234.8 L536.9,246.5 L548.7,254.4 L560.6,278.0 L572.5,275.1 L584.3,275.3 L596.2,281.0 L608.1,296.4 L619.9,279.7 L631.8,280.5 L643.7,285.1 L655.5,284.5 L667.4,264.7 L679.3,267.1 L691.1,276.5 L703.0,267.3 L714.9,272.6 L726.7,279.6 L738.6,282.1 L750.4,289.5 L762.3,292.1 L774.2,293.4 L786.0,312.4 L797.9,326.0 L809.8,325.7 L821.6,321.1 L833.5,317.6 L845.4,326.9 L857.2,322.4 L869.1,327.9 L881.0,334.9 L892.8,324.9 L904.7,347.2 L916.6,360.4 L928.4,357.3 L940.3,391.2 L952.2,391.7 L964.0,399.1 L975.9,406.2 L987.8,384.2 L999.6,384.4 L1011.5,402.4 L1023.3,381.3 L1035.2,355.2 L1047.1,367.5 L1058.9,366.3 L1070.8,370.8 L1082.7,371.7 L1094.5,387.5 L1106.4,384.1 L1118.3,386.3 L1130.1,385.2 L1142.0,380.1 L1142.0,434.0 L86.0,434.0 Z" fill="#0f5949" opacity="0.28"/>
  <path d="M86.0,199.3 L97.9,209.7 L109.7,225.2 L121.6,229.5 L133.5,222.0 L145.3,222.8 L157.2,229.2 L169.1,226.6 L180.9,248.9 L192.8,248.3 L204.7,236.6 L216.5,255.1 L228.4,244.9 L240.2,237.0 L252.1,236.2 L264.0,239.6 L275.8,215.7 L287.7,220.2 L299.6,196.7 L311.4,194.7 L323.3,195.5 L335.2,191.2 L347.0,171.1 L358.9,163.9 L370.8,162.8 L382.6,139.2 L394.5,128.4 L406.4,127.8 L418.2,206.9 L430.1,225.6 L442.0,242.6 L453.8,237.6 L465.7,240.8 L477.6,243.6 L489.4,251.7 L501.3,244.9 L513.1,246.1 L525.0,234.8 L536.9,246.5 L548.7,254.4 L560.6,278.0 L572.5,275.1 L584.3,275.3 L596.2,281.0 L608.1,296.4 L619.9,279.7 L631.8,280.5 L643.7,285.1 L655.5,284.5 L667.4,264.7 L679.3,267.1 L691.1,276.5 L703.0,267.3 L714.9,272.6 L726.7,279.6 L738.6,282.1 L750.4,289.5 L762.3,292.1 L774.2,293.4 L786.0,312.4 L797.9,326.0 L809.8,325.7 L821.6,321.1 L833.5,317.6 L845.4,326.9 L857.2,322.4 L869.1,327.9 L881.0,334.9 L892.8,324.9 L904.7,347.2 L916.6,360.4 L928.4,357.3 L940.3,391.2 L952.2,391.7 L964.0,399.1 L975.9,406.2 L987.8,384.2 L999.6,384.4 L1011.5,402.4 L1023.3,381.3 L1035.2,355.2 L1047.1,367.5 L1058.9,366.3 L1070.8,370.8 L1082.7,371.7 L1094.5,387.5 L1106.4,384.1 L1118.3,386.3 L1130.1,385.2 L1142.0,380.1" fill="none" stroke="#62d9ee" stroke-width="4" stroke-linecap="round" stroke-linejoin="round"/>
  <g>
    <line x1="1094.5" x2="1094.5" y1="100" y2="434" stroke="#18e59c" stroke-width="2" stroke-dasharray="7 7" opacity="0.8"/>
    <circle cx="1094.5" cy="387.3" r="8" fill="#071f1c" stroke="#18e59c" stroke-width="4"/>
    <text x="1030.0" y="369.3" text-anchor="middle" class="marker" fill="#18e59c">ENTRY | Jul 10 | $73.40</text>
  </g>
  
  <text x="86.0" y="472" text-anchor="middle" class="axis">Mar 9</text><text x="347.0" y="472" text-anchor="middle" class="axis">Apr 9</text><text x="619.9" y="472" text-anchor="middle" class="axis">May 12</text><text x="881.0" y="472" text-anchor="middle" class="axis">Jun 12</text><text x="1142.0" y="472" text-anchor="middle" class="axis">Jul 16</text>
  </svg>