<svg xmlns="http://www.w3.org/2000/svg" width="1200" height="500" viewBox="0 0 1200 500" role="img" aria-label="NFLX underlying price from entry">
  <rect width="1200" height="500" fill="#071f1c"/>
  <style>.head{fill:#f4fff9;font:800 27px Georgia,serif}.sub{fill:#9fc4bb;font:14px Arial,sans-serif}.axis{fill:#8eaaa3;font:12px Arial,sans-serif}.marker{font:800 12px Arial,sans-serif}</style>
  <text x="86" y="40" class="head">NFLX Underlying Price</text>
  <text x="86" y="66" class="sub">90 sessions | Entry marked; position remains open | Published option idea rank 1</text>
  <line x1="86" x2="1142" y1="100.0" y2="100.0" stroke="#1b4a42" stroke-width="1"/><text x="72" y="105.0" text-anchor="end" class="axis">$111.48</text><line x1="86" x2="1142" y1="183.5" y2="183.5" stroke="#1b4a42" stroke-width="1"/><text x="72" y="188.5" text-anchor="end" class="axis">$100.41</text><line x1="86" x2="1142" y1="267.0" y2="267.0" stroke="#1b4a42" stroke-width="1"/><text x="72" y="272.0" text-anchor="end" class="axis">$89.35</text><line x1="86" x2="1142" y1="350.5" y2="350.5" stroke="#1b4a42" stroke-width="1"/><text x="72" y="355.5" text-anchor="end" class="axis">$78.28</text><line x1="86" x2="1142" y1="434.0" y2="434.0" stroke="#1b4a42" stroke-width="1"/><text x="72" y="439.0" text-anchor="end" class="axis">$67.21</text>
  <path d="M86.0,196.7 L97.9,192.9 L109.7,194.0 L121.6,199.3 L133.5,209.7 L145.3,225.2 L157.2,229.5 L169.1,222.0 L180.9,222.8 L192.8,229.2 L204.7,226.6 L216.5,248.9 L228.4,248.3 L240.2,236.6 L252.1,255.1 L264.0,244.9 L275.8,237.0 L287.7,236.2 L299.6,239.6 L311.4,215.7 L323.3,220.2 L335.2,196.7 L347.0,194.7 L358.9,195.5 L370.8,191.2 L382.6,171.1 L394.5,163.9 L406.4,162.8 L418.2,139.2 L430.1,128.4 L442.0,127.8 L453.8,206.9 L465.7,225.6 L477.6,242.6 L489.4,237.6 L501.3,240.8 L513.1,243.6 L525.0,251.7 L536.9,244.9 L548.7,246.1 L560.6,234.8 L572.5,246.5 L584.3,254.4 L596.2,278.0 L608.1,275.1 L619.9,275.3 L631.8,281.0 L643.7,296.4 L655.5,279.7 L667.4,280.5 L679.3,285.1 L691.1,284.5 L703.0,264.7 L714.9,267.1 L726.7,276.5 L738.6,267.3 L750.4,272.6 L762.3,279.6 L774.2,282.1 L786.0,289.5 L797.9,292.1 L809.8,293.4 L821.6,312.4 L833.5,326.0 L845.4,325.7 L857.2,321.1 L869.1,317.6 L881.0,326.9 L892.8,322.4 L904.7,327.9 L916.6,334.9 L928.4,324.9 L940.3,347.2 L952.2,360.4 L964.0,357.3 L975.9,391.2 L987.8,391.7 L999.6,399.1 L1011.5,406.2 L1023.3,384.2 L1035.2,384.4 L1047.1,402.4 L1058.9,381.3 L1070.8,355.2 L1082.7,367.5 L1094.5,366.3 L1106.4,370.8 L1118.3,371.7 L1130.1,387.5 L1142.0,384.1 L1142.0,434.0 L86.0,434.0 Z" fill="#0f5949" opacity="0.28"/>
  <path d="M86.0,196.7 L97.9,192.9 L109.7,194.0 L121.6,199.3 L133.5,209.7 L145.3,225.2 L157.2,229.5 L169.1,222.0 L180.9,222.8 L192.8,229.2 L204.7,226.6 L216.5,248.9 L228.4,248.3 L240.2,236.6 L252.1,255.1 L264.0,244.9 L275.8,237.0 L287.7,236.2 L299.6,239.6 L311.4,215.7 L323.3,220.2 L335.2,196.7 L347.0,194.7 L358.9,195.5 L370.8,191.2 L382.6,171.1 L394.5,163.9 L406.4,162.8 L418.2,139.2 L430.1,128.4 L442.0,127.8 L453.8,206.9 L465.7,225.6 L477.6,242.6 L489.4,237.6 L501.3,240.8 L513.1,243.6 L525.0,251.7 L536.9,244.9 L548.7,246.1 L560.6,234.8 L572.5,246.5 L584.3,254.4 L596.2,278.0 L608.1,275.1 L619.9,275.3 L631.8,281.0 L643.7,296.4 L655.5,279.7 L667.4,280.5 L679.3,285.1 L691.1,284.5 L703.0,264.7 L714.9,267.1 L726.7,276.5 L738.6,267.3 L750.4,272.6 L762.3,279.6 L774.2,282.1 L786.0,289.5 L797.9,292.1 L809.8,293.4 L821.6,312.4 L833.5,326.0 L845.4,325.7 L857.2,321.1 L869.1,317.6 L881.0,326.9 L892.8,322.4 L904.7,327.9 L916.6,334.9 L928.4,324.9 L940.3,347.2 L952.2,360.4 L964.0,357.3 L975.9,391.2 L987.8,391.7 L999.6,399.1 L1011.5,406.2 L1023.3,384.2 L1035.2,384.4 L1047.1,402.4 L1058.9,381.3 L1070.8,355.2 L1082.7,367.5 L1094.5,366.3 L1106.4,370.8 L1118.3,371.7 L1130.1,387.5 L1142.0,384.1" fill="none" stroke="#62d9ee" stroke-width="4" stroke-linecap="round" stroke-linejoin="round"/>
  <g>
    <line x1="1130.1" x2="1130.1" y1="100" y2="434" stroke="#18e59c" stroke-width="2" stroke-dasharray="7 7" opacity="0.8"/>
    <circle cx="1130.1" cy="387.3" r="8" fill="#071f1c" stroke="#18e59c" stroke-width="4"/>
    <text x="1030.0" y="369.3" text-anchor="middle" class="marker" fill="#18e59c">ENTRY | Jul 10 | $73.40</text>
  </g>
  
  <text x="86.0" y="472" text-anchor="middle" class="axis">Mar 4</text><text x="347.0" y="472" text-anchor="middle" class="axis">Apr 6</text><text x="619.9" y="472" text-anchor="middle" class="axis">May 7</text><text x="881.0" y="472" text-anchor="middle" class="axis">Jun 9</text><text x="1142.0" y="472" text-anchor="middle" class="axis">Jul 13</text>
  </svg>