<svg xmlns="http://www.w3.org/2000/svg" width="1200" height="500" viewBox="0 0 1200 500" role="img" aria-label="NFLX underlying price from entry">
  <rect width="1200" height="500" fill="#071f1c"/>
  <style>.head{fill:#f4fff9;font:800 27px Georgia,serif}.sub{fill:#9fc4bb;font:14px Arial,sans-serif}.axis{fill:#8eaaa3;font:12px Arial,sans-serif}.marker{font:800 12px Arial,sans-serif}</style>
  <text x="86" y="40" class="head">NFLX Underlying Price</text>
  <text x="86" y="66" class="sub">90 sessions | Entry marked; position remains open | Published option idea rank 1</text>
  <line x1="86" x2="1142" y1="100.0" y2="100.0" stroke="#1b4a42" stroke-width="1"/><text x="72" y="105.0" text-anchor="end" class="axis">$111.81</text><line x1="86" x2="1142" y1="183.5" y2="183.5" stroke="#1b4a42" stroke-width="1"/><text x="72" y="188.5" text-anchor="end" class="axis">$99.75</text><line x1="86" x2="1142" y1="267.0" y2="267.0" stroke="#1b4a42" stroke-width="1"/><text x="72" y="272.0" text-anchor="end" class="axis">$87.70</text><line x1="86" x2="1142" y1="350.5" y2="350.5" stroke="#1b4a42" stroke-width="1"/><text x="72" y="355.5" text-anchor="end" class="axis">$75.64</text><line x1="86" x2="1142" y1="434.0" y2="434.0" stroke="#1b4a42" stroke-width="1"/><text x="72" y="439.0" text-anchor="end" class="axis">$63.58</text>
  <path d="M86.0,221.2 L97.9,214.3 L109.7,215.0 L121.6,220.8 L133.5,218.5 L145.3,239.0 L157.2,238.4 L169.1,227.6 L180.9,244.7 L192.8,235.2 L204.7,228.0 L216.5,227.3 L228.4,230.5 L240.2,208.4 L252.1,212.6 L264.0,191.1 L275.8,189.2 L287.7,190.0 L299.6,186.0 L311.4,167.6 L323.3,160.9 L335.2,159.9 L347.0,138.3 L358.9,128.4 L370.8,127.8 L382.6,200.4 L394.5,217.6 L406.4,233.2 L418.2,228.6 L430.1,231.5 L442.0,234.1 L453.8,241.5 L465.7,235.3 L477.6,236.4 L489.4,226.0 L501.3,236.8 L513.1,244.0 L525.0,265.6 L536.9,263.0 L548.7,263.2 L560.6,268.4 L572.5,282.5 L584.3,267.2 L596.2,267.9 L608.1,272.2 L619.9,271.7 L631.8,253.5 L643.7,255.7 L655.5,264.3 L667.4,255.9 L679.3,260.7 L691.1,267.1 L703.0,269.4 L714.9,276.2 L726.7,278.6 L738.6,279.8 L750.4,297.2 L762.3,309.8 L774.2,309.5 L786.0,305.2 L797.9,302.0 L809.8,310.5 L821.6,306.4 L833.5,311.5 L845.4,317.9 L857.2,308.7 L869.1,329.2 L881.0,341.3 L892.8,338.4 L904.7,369.6 L916.6,370.0 L928.4,376.8 L940.3,383.3 L952.2,363.2 L964.0,363.4 L975.9,379.9 L987.8,360.5 L999.6,336.6 L1011.5,347.9 L1023.3,346.7 L1035.2,350.8 L1047.1,351.7 L1058.9,366.2 L1070.8,363.0 L1082.7,365.1 L1094.5,364.1 L1106.4,359.4 L1118.3,396.8 L1130.1,406.2 L1142.0,398.8 L1142.0,434.0 L86.0,434.0 Z" fill="#0f5949" opacity="0.28"/>
  <path d="M86.0,221.2 L97.9,214.3 L109.7,215.0 L121.6,220.8 L133.5,218.5 L145.3,239.0 L157.2,238.4 L169.1,227.6 L180.9,244.7 L192.8,235.2 L204.7,228.0 L216.5,227.3 L228.4,230.5 L240.2,208.4 L252.1,212.6 L264.0,191.1 L275.8,189.2 L287.7,190.0 L299.6,186.0 L311.4,167.6 L323.3,160.9 L335.2,159.9 L347.0,138.3 L358.9,128.4 L370.8,127.8 L382.6,200.4 L394.5,217.6 L406.4,233.2 L418.2,228.6 L430.1,231.5 L442.0,234.1 L453.8,241.5 L465.7,235.3 L477.6,236.4 L489.4,226.0 L501.3,236.8 L513.1,244.0 L525.0,265.6 L536.9,263.0 L548.7,263.2 L560.6,268.4 L572.5,282.5 L584.3,267.2 L596.2,267.9 L608.1,272.2 L619.9,271.7 L631.8,253.5 L643.7,255.7 L655.5,264.3 L667.4,255.9 L679.3,260.7 L691.1,267.1 L703.0,269.4 L714.9,276.2 L726.7,278.6 L738.6,279.8 L750.4,297.2 L762.3,309.8 L774.2,309.5 L786.0,305.2 L797.9,302.0 L809.8,310.5 L821.6,306.4 L833.5,311.5 L845.4,317.9 L857.2,308.7 L869.1,329.2 L881.0,341.3 L892.8,338.4 L904.7,369.6 L916.6,370.0 L928.4,376.8 L940.3,383.3 L952.2,363.2 L964.0,363.4 L975.9,379.9 L987.8,360.5 L999.6,336.6 L1011.5,347.9 L1023.3,346.7 L1035.2,350.8 L1047.1,351.7 L1058.9,366.2 L1070.8,363.0 L1082.7,365.1 L1094.5,364.1 L1106.4,359.4 L1118.3,396.8 L1130.1,406.2 L1142.0,398.8" fill="none" stroke="#62d9ee" stroke-width="4" stroke-linecap="round" stroke-linejoin="round"/>
  <g>
    <line x1="1058.9" x2="1058.9" y1="100" y2="434" stroke="#18e59c" stroke-width="2" stroke-dasharray="7 7" opacity="0.8"/>
    <circle cx="1058.9" cy="366.0" r="8" fill="#071f1c" stroke="#18e59c" stroke-width="4"/>
    <text x="1030.0" y="348.0" text-anchor="middle" class="marker" fill="#18e59c">ENTRY | Jul 10 | $73.40</text>
  </g>
  
  <text x="86.0" y="472" text-anchor="middle" class="axis">Mar 12</text><text x="347.0" y="472" text-anchor="middle" class="axis">Apr 14</text><text x="619.9" y="472" text-anchor="middle" class="axis">May 15</text><text x="881.0" y="472" text-anchor="middle" class="axis">Jun 17</text><text x="1142.0" y="472" text-anchor="middle" class="axis">Jul 21</text>
  </svg>