<svg xmlns="http://www.w3.org/2000/svg" width="1200" height="500" viewBox="0 0 1200 500" role="img" aria-label="NFLX underlying price from entry through expiration close">
  <rect width="1200" height="500" fill="#071f1c"/>
  <style>.head{fill:#f4fff9;font:800 27px Georgia,serif}.sub{fill:#9fc4bb;font:14px Arial,sans-serif}.axis{fill:#8eaaa3;font:12px Arial,sans-serif}.marker{font:800 12px Arial,sans-serif}</style>
  <text x="86" y="40" class="head">NFLX Underlying Price</text>
  <text x="86" y="66" class="sub">90 sessions | Entry through expiration settlement | Published option idea rank 1</text>
  <line x1="86" x2="1142" y1="100.0" y2="100.0" stroke="#1b4a42" stroke-width="1"/><text x="72" y="105.0" text-anchor="end" class="axis">$111.81</text><line x1="86" x2="1142" y1="183.5" y2="183.5" stroke="#1b4a42" stroke-width="1"/><text x="72" y="188.5" text-anchor="end" class="axis">$99.75</text><line x1="86" x2="1142" y1="267.0" y2="267.0" stroke="#1b4a42" stroke-width="1"/><text x="72" y="272.0" text-anchor="end" class="axis">$87.70</text><line x1="86" x2="1142" y1="350.5" y2="350.5" stroke="#1b4a42" stroke-width="1"/><text x="72" y="355.5" text-anchor="end" class="axis">$75.64</text><line x1="86" x2="1142" y1="434.0" y2="434.0" stroke="#1b4a42" stroke-width="1"/><text x="72" y="439.0" text-anchor="end" class="axis">$63.58</text>
  <path d="M86.0,220.8 L97.9,218.5 L109.7,239.0 L121.6,238.4 L133.5,227.6 L145.3,244.7 L157.2,235.2 L169.1,228.0 L180.9,227.3 L192.8,230.5 L204.7,208.4 L216.5,212.6 L228.4,191.1 L240.2,189.2 L252.1,190.0 L264.0,186.0 L275.8,167.6 L287.7,160.9 L299.6,159.9 L311.4,138.3 L323.3,128.4 L335.2,127.8 L347.0,200.4 L358.9,217.6 L370.8,233.2 L382.6,228.6 L394.5,231.5 L406.4,234.1 L418.2,241.5 L430.1,235.3 L442.0,236.4 L453.8,226.0 L465.7,236.8 L477.6,244.0 L489.4,265.6 L501.3,263.0 L513.1,263.2 L525.0,268.4 L536.9,282.5 L548.7,267.2 L560.6,267.9 L572.5,272.2 L584.3,271.7 L596.2,253.5 L608.1,255.7 L619.9,264.3 L631.8,255.9 L643.7,260.7 L655.5,267.1 L667.4,269.4 L679.3,276.2 L691.1,278.6 L703.0,279.8 L714.9,297.2 L726.7,309.8 L738.6,309.5 L750.4,305.2 L762.3,302.0 L774.2,310.5 L786.0,306.4 L797.9,311.5 L809.8,317.9 L821.6,308.7 L833.5,329.2 L845.4,341.3 L857.2,338.4 L869.1,369.6 L881.0,370.0 L892.8,376.8 L904.7,383.3 L916.6,363.2 L928.4,363.4 L940.3,379.9 L952.2,360.5 L964.0,336.6 L975.9,347.9 L987.8,346.7 L999.6,350.8 L1011.5,351.7 L1023.3,366.2 L1035.2,363.0 L1047.1,365.1 L1058.9,364.1 L1070.8,359.4 L1082.7,396.8 L1094.5,406.2 L1106.4,398.8 L1118.3,399.7 L1130.1,397.2 L1142.0,388.9 L1142.0,434.0 L86.0,434.0 Z" fill="#0f5949" opacity="0.28"/>
  <path d="M86.0,220.8 L97.9,218.5 L109.7,239.0 L121.6,238.4 L133.5,227.6 L145.3,244.7 L157.2,235.2 L169.1,228.0 L180.9,227.3 L192.8,230.5 L204.7,208.4 L216.5,212.6 L228.4,191.1 L240.2,189.2 L252.1,190.0 L264.0,186.0 L275.8,167.6 L287.7,160.9 L299.6,159.9 L311.4,138.3 L323.3,128.4 L335.2,127.8 L347.0,200.4 L358.9,217.6 L370.8,233.2 L382.6,228.6 L394.5,231.5 L406.4,234.1 L418.2,241.5 L430.1,235.3 L442.0,236.4 L453.8,226.0 L465.7,236.8 L477.6,244.0 L489.4,265.6 L501.3,263.0 L513.1,263.2 L525.0,268.4 L536.9,282.5 L548.7,267.2 L560.6,267.9 L572.5,272.2 L584.3,271.7 L596.2,253.5 L608.1,255.7 L619.9,264.3 L631.8,255.9 L643.7,260.7 L655.5,267.1 L667.4,269.4 L679.3,276.2 L691.1,278.6 L703.0,279.8 L714.9,297.2 L726.7,309.8 L738.6,309.5 L750.4,305.2 L762.3,302.0 L774.2,310.5 L786.0,306.4 L797.9,311.5 L809.8,317.9 L821.6,308.7 L833.5,329.2 L845.4,341.3 L857.2,338.4 L869.1,369.6 L881.0,370.0 L892.8,376.8 L904.7,383.3 L916.6,363.2 L928.4,363.4 L940.3,379.9 L952.2,360.5 L964.0,336.6 L975.9,347.9 L987.8,346.7 L999.6,350.8 L1011.5,351.7 L1023.3,366.2 L1035.2,363.0 L1047.1,365.1 L1058.9,364.1 L1070.8,359.4 L1082.7,396.8 L1094.5,406.2 L1106.4,398.8 L1118.3,399.7 L1130.1,397.2 L1142.0,388.9" fill="none" stroke="#62d9ee" stroke-width="4" stroke-linecap="round" stroke-linejoin="round"/>
  <g>
    <line x1="1023.3" x2="1023.3" y1="100" y2="434" stroke="#18e59c" stroke-width="2" stroke-dasharray="7 7" opacity="0.8"/>
    <circle cx="1023.3" cy="366.0" r="8" fill="#071f1c" stroke="#18e59c" stroke-width="4"/>
    <text x="1023.3" y="348.0" text-anchor="middle" class="marker" fill="#18e59c">ENTRY | Jul 10 | $73.40</text>
  </g>
  <g>
    <line x1="1142.0" x2="1142.0" y1="100" y2="434" stroke="#f3bd5b" stroke-width="2" stroke-dasharray="7 7" opacity="0.8"/>
    <circle cx="1142.0" cy="388.9" r="8" fill="#071f1c" stroke="#f3bd5b" stroke-width="4"/>
    <text x="1030.0" y="370.9" text-anchor="middle" class="marker" fill="#f3bd5b">EXPIRATION CLOSE | Jul 24 | $70.09</text>
  </g>
  <text x="86.0" y="472" text-anchor="middle" class="axis">Mar 17</text><text x="347.0" y="472" text-anchor="middle" class="axis">Apr 17</text><text x="619.9" y="472" text-anchor="middle" class="axis">May 20</text><text x="881.0" y="472" text-anchor="middle" class="axis">Jun 23</text><text x="1142.0" y="472" text-anchor="middle" class="axis">Jul 24</text>
  </svg>