<svg xmlns="http://www.w3.org/2000/svg" width="1200" height="500" viewBox="0 0 1200 500" role="img" aria-label="NFLX underlying price from entry">
  <rect width="1200" height="500" fill="#071f1c"/>
  <style>.head{fill:#f4fff9;font:800 27px Georgia,serif}.sub{fill:#9fc4bb;font:14px Arial,sans-serif}.axis{fill:#8eaaa3;font:12px Arial,sans-serif}.marker{font:800 12px Arial,sans-serif}</style>
  <text x="86" y="40" class="head">NFLX Underlying Price</text>
  <text x="86" y="66" class="sub">90 sessions | Entry marked; position remains open | Published option idea rank 1</text>
  <line x1="86" x2="1142" y1="100.0" y2="100.0" stroke="#1b4a42" stroke-width="1"/><text x="72" y="105.0" text-anchor="end" class="axis">$111.48</text><line x1="86" x2="1142" y1="183.5" y2="183.5" stroke="#1b4a42" stroke-width="1"/><text x="72" y="188.5" text-anchor="end" class="axis">$100.41</text><line x1="86" x2="1142" y1="267.0" y2="267.0" stroke="#1b4a42" stroke-width="1"/><text x="72" y="272.0" text-anchor="end" class="axis">$89.35</text><line x1="86" x2="1142" y1="350.5" y2="350.5" stroke="#1b4a42" stroke-width="1"/><text x="72" y="355.5" text-anchor="end" class="axis">$78.28</text><line x1="86" x2="1142" y1="434.0" y2="434.0" stroke="#1b4a42" stroke-width="1"/><text x="72" y="439.0" text-anchor="end" class="axis">$67.21</text>
  <path d="M86.0,204.0 L97.9,196.7 L109.7,192.9 L121.6,194.0 L133.5,199.3 L145.3,209.7 L157.2,225.2 L169.1,229.5 L180.9,222.0 L192.8,222.8 L204.7,229.2 L216.5,226.6 L228.4,248.9 L240.2,248.3 L252.1,236.6 L264.0,255.1 L275.8,244.9 L287.7,237.0 L299.6,236.2 L311.4,239.6 L323.3,215.7 L335.2,220.2 L347.0,196.7 L358.9,194.7 L370.8,195.5 L382.6,191.2 L394.5,171.1 L406.4,163.9 L418.2,162.8 L430.1,139.2 L442.0,128.4 L453.8,127.8 L465.7,206.9 L477.6,225.6 L489.4,242.6 L501.3,237.6 L513.1,240.8 L525.0,243.6 L536.9,251.7 L548.7,244.9 L560.6,246.1 L572.5,234.8 L584.3,246.5 L596.2,254.4 L608.1,278.0 L619.9,275.1 L631.8,275.3 L643.7,281.0 L655.5,296.4 L667.4,279.7 L679.3,280.5 L691.1,285.1 L703.0,284.5 L714.9,264.7 L726.7,267.1 L738.6,276.5 L750.4,267.3 L762.3,272.6 L774.2,279.6 L786.0,282.1 L797.9,289.5 L809.8,292.1 L821.6,293.4 L833.5,312.4 L845.4,326.0 L857.2,325.7 L869.1,321.1 L881.0,317.6 L892.8,326.9 L904.7,322.4 L916.6,327.9 L928.4,334.9 L940.3,324.9 L952.2,347.2 L964.0,360.4 L975.9,357.3 L987.8,391.2 L999.6,391.7 L1011.5,399.1 L1023.3,406.2 L1035.2,384.2 L1047.1,384.4 L1058.9,402.4 L1070.8,381.3 L1082.7,355.2 L1094.5,367.5 L1106.4,366.3 L1118.3,370.8 L1130.1,371.7 L1142.0,387.5 L1142.0,434.0 L86.0,434.0 Z" fill="#0f5949" opacity="0.28"/>
  <path d="M86.0,204.0 L97.9,196.7 L109.7,192.9 L121.6,194.0 L133.5,199.3 L145.3,209.7 L157.2,225.2 L169.1,229.5 L180.9,222.0 L192.8,222.8 L204.7,229.2 L216.5,226.6 L228.4,248.9 L240.2,248.3 L252.1,236.6 L264.0,255.1 L275.8,244.9 L287.7,237.0 L299.6,236.2 L311.4,239.6 L323.3,215.7 L335.2,220.2 L347.0,196.7 L358.9,194.7 L370.8,195.5 L382.6,191.2 L394.5,171.1 L406.4,163.9 L418.2,162.8 L430.1,139.2 L442.0,128.4 L453.8,127.8 L465.7,206.9 L477.6,225.6 L489.4,242.6 L501.3,237.6 L513.1,240.8 L525.0,243.6 L536.9,251.7 L548.7,244.9 L560.6,246.1 L572.5,234.8 L584.3,246.5 L596.2,254.4 L608.1,278.0 L619.9,275.1 L631.8,275.3 L643.7,281.0 L655.5,296.4 L667.4,279.7 L679.3,280.5 L691.1,285.1 L703.0,284.5 L714.9,264.7 L726.7,267.1 L738.6,276.5 L750.4,267.3 L762.3,272.6 L774.2,279.6 L786.0,282.1 L797.9,289.5 L809.8,292.1 L821.6,293.4 L833.5,312.4 L845.4,326.0 L857.2,325.7 L869.1,321.1 L881.0,317.6 L892.8,326.9 L904.7,322.4 L916.6,327.9 L928.4,334.9 L940.3,324.9 L952.2,347.2 L964.0,360.4 L975.9,357.3 L987.8,391.2 L999.6,391.7 L1011.5,399.1 L1023.3,406.2 L1035.2,384.2 L1047.1,384.4 L1058.9,402.4 L1070.8,381.3 L1082.7,355.2 L1094.5,367.5 L1106.4,366.3 L1118.3,370.8 L1130.1,371.7 L1142.0,387.5" fill="none" stroke="#62d9ee" stroke-width="4" stroke-linecap="round" stroke-linejoin="round"/>
  <g>
    <line x1="1142.0" x2="1142.0" y1="100" y2="434" stroke="#18e59c" stroke-width="2" stroke-dasharray="7 7" opacity="0.8"/>
    <circle cx="1142.0" cy="387.3" r="8" fill="#071f1c" stroke="#18e59c" stroke-width="4"/>
    <text x="1030.0" y="369.3" text-anchor="middle" class="marker" fill="#18e59c">ENTRY | Jul 10 | $73.40</text>
  </g>
  
  <text x="86.0" y="472" text-anchor="middle" class="axis">Mar 3</text><text x="347.0" y="472" text-anchor="middle" class="axis">Apr 2</text><text x="619.9" y="472" text-anchor="middle" class="axis">May 6</text><text x="881.0" y="472" text-anchor="middle" class="axis">Jun 8</text><text x="1142.0" y="472" text-anchor="middle" class="axis">Jul 10</text>
  </svg>