<svg xmlns="http://www.w3.org/2000/svg" width="1200" height="500" viewBox="0 0 1200 500" role="img" aria-label="NFLX underlying price from entry">
  <rect width="1200" height="500" fill="#071f1c"/>
  <style>.head{fill:#f4fff9;font:800 27px Georgia,serif}.sub{fill:#9fc4bb;font:14px Arial,sans-serif}.axis{fill:#8eaaa3;font:12px Arial,sans-serif}.marker{font:800 12px Arial,sans-serif}</style>
  <text x="86" y="40" class="head">NFLX Underlying Price</text>
  <text x="86" y="66" class="sub">90 sessions | Entry marked; position remains open | Published option idea rank 1</text>
  <line x1="86" x2="1142" y1="100.0" y2="100.0" stroke="#1b4a42" stroke-width="1"/><text x="72" y="105.0" text-anchor="end" class="axis">$111.67</text><line x1="86" x2="1142" y1="183.5" y2="183.5" stroke="#1b4a42" stroke-width="1"/><text x="72" y="188.5" text-anchor="end" class="axis">$100.02</text><line x1="86" x2="1142" y1="267.0" y2="267.0" stroke="#1b4a42" stroke-width="1"/><text x="72" y="272.0" text-anchor="end" class="axis">$88.37</text><line x1="86" x2="1142" y1="350.5" y2="350.5" stroke="#1b4a42" stroke-width="1"/><text x="72" y="355.5" text-anchor="end" class="axis">$76.72</text><line x1="86" x2="1142" y1="434.0" y2="434.0" stroke="#1b4a42" stroke-width="1"/><text x="72" y="439.0" text-anchor="end" class="axis">$65.07</text>
  <path d="M86.0,205.6 L97.9,220.3 L109.7,224.4 L121.6,217.3 L133.5,218.1 L145.3,224.1 L157.2,221.6 L169.1,242.9 L180.9,242.3 L192.8,231.1 L204.7,248.7 L216.5,239.0 L228.4,231.5 L240.2,230.7 L252.1,234.0 L264.0,211.2 L275.8,215.5 L287.7,193.3 L299.6,191.3 L311.4,192.1 L323.3,188.0 L335.2,169.0 L347.0,162.1 L358.9,161.0 L370.8,138.7 L382.6,128.4 L394.5,127.8 L406.4,202.9 L418.2,220.7 L430.1,236.8 L442.0,232.1 L453.8,235.1 L465.7,237.8 L477.6,245.5 L489.4,239.1 L501.3,240.1 L513.1,229.4 L525.0,240.6 L536.9,248.0 L548.7,270.4 L560.6,267.7 L572.5,267.9 L584.3,273.3 L596.2,287.9 L608.1,272.1 L619.9,272.8 L631.8,277.2 L643.7,276.7 L655.5,257.8 L667.4,260.1 L679.3,269.0 L691.1,260.3 L703.0,265.4 L714.9,271.9 L726.7,274.3 L738.6,281.4 L750.4,283.8 L762.3,285.1 L774.2,303.1 L786.0,316.1 L797.9,315.8 L809.8,311.4 L821.6,308.1 L833.5,316.9 L845.4,312.6 L857.2,317.9 L869.1,324.5 L881.0,315.0 L892.8,336.2 L904.7,348.8 L916.6,345.8 L928.4,378.0 L940.3,378.4 L952.2,385.5 L964.0,392.2 L975.9,371.3 L987.8,371.6 L999.6,388.6 L1011.5,368.6 L1023.3,343.8 L1035.2,355.5 L1047.1,354.4 L1058.9,358.6 L1070.8,359.4 L1082.7,374.5 L1094.5,371.2 L1106.4,373.3 L1118.3,372.3 L1130.1,367.5 L1142.0,406.2 L1142.0,434.0 L86.0,434.0 Z" fill="#0f5949" opacity="0.28"/>
  <path d="M86.0,205.6 L97.9,220.3 L109.7,224.4 L121.6,217.3 L133.5,218.1 L145.3,224.1 L157.2,221.6 L169.1,242.9 L180.9,242.3 L192.8,231.1 L204.7,248.7 L216.5,239.0 L228.4,231.5 L240.2,230.7 L252.1,234.0 L264.0,211.2 L275.8,215.5 L287.7,193.3 L299.6,191.3 L311.4,192.1 L323.3,188.0 L335.2,169.0 L347.0,162.1 L358.9,161.0 L370.8,138.7 L382.6,128.4 L394.5,127.8 L406.4,202.9 L418.2,220.7 L430.1,236.8 L442.0,232.1 L453.8,235.1 L465.7,237.8 L477.6,245.5 L489.4,239.1 L501.3,240.1 L513.1,229.4 L525.0,240.6 L536.9,248.0 L548.7,270.4 L560.6,267.7 L572.5,267.9 L584.3,273.3 L596.2,287.9 L608.1,272.1 L619.9,272.8 L631.8,277.2 L643.7,276.7 L655.5,257.8 L667.4,260.1 L679.3,269.0 L691.1,260.3 L703.0,265.4 L714.9,271.9 L726.7,274.3 L738.6,281.4 L750.4,283.8 L762.3,285.1 L774.2,303.1 L786.0,316.1 L797.9,315.8 L809.8,311.4 L821.6,308.1 L833.5,316.9 L845.4,312.6 L857.2,317.9 L869.1,324.5 L881.0,315.0 L892.8,336.2 L904.7,348.8 L916.6,345.8 L928.4,378.0 L940.3,378.4 L952.2,385.5 L964.0,392.2 L975.9,371.3 L987.8,371.6 L999.6,388.6 L1011.5,368.6 L1023.3,343.8 L1035.2,355.5 L1047.1,354.4 L1058.9,358.6 L1070.8,359.4 L1082.7,374.5 L1094.5,371.2 L1106.4,373.3 L1118.3,372.3 L1130.1,367.5 L1142.0,406.2" fill="none" stroke="#62d9ee" stroke-width="4" stroke-linecap="round" stroke-linejoin="round"/>
  <g>
    <line x1="1082.7" x2="1082.7" y1="100" y2="434" stroke="#18e59c" stroke-width="2" stroke-dasharray="7 7" opacity="0.8"/>
    <circle cx="1082.7" cy="374.3" r="8" fill="#071f1c" stroke="#18e59c" stroke-width="4"/>
    <text x="1030.0" y="356.3" text-anchor="middle" class="marker" fill="#18e59c">ENTRY | Jul 10 | $73.40</text>
  </g>
  
  <text x="86.0" y="472" text-anchor="middle" class="axis">Mar 10</text><text x="347.0" y="472" text-anchor="middle" class="axis">Apr 10</text><text x="619.9" y="472" text-anchor="middle" class="axis">May 13</text><text x="881.0" y="472" text-anchor="middle" class="axis">Jun 15</text><text x="1142.0" y="472" text-anchor="middle" class="axis">Jul 17</text>
  </svg>