<svg xmlns="http://www.w3.org/2000/svg" width="1200" height="500" viewBox="0 0 1200 500" role="img" aria-label="NFLX underlying price from entry">
  <rect width="1200" height="500" fill="#071f1c"/>
  <style>.head{fill:#f4fff9;font:800 27px Georgia,serif}.sub{fill:#9fc4bb;font:14px Arial,sans-serif}.axis{fill:#8eaaa3;font:12px Arial,sans-serif}.marker{font:800 12px Arial,sans-serif}</style>
  <text x="86" y="40" class="head">NFLX Underlying Price</text>
  <text x="86" y="66" class="sub">90 sessions | Entry marked; position remains open | Published option idea rank 1</text>
  <line x1="86" x2="1142" y1="100.0" y2="100.0" stroke="#1b4a42" stroke-width="1"/><text x="72" y="105.0" text-anchor="end" class="axis">$111.81</text><line x1="86" x2="1142" y1="183.5" y2="183.5" stroke="#1b4a42" stroke-width="1"/><text x="72" y="188.5" text-anchor="end" class="axis">$99.75</text><line x1="86" x2="1142" y1="267.0" y2="267.0" stroke="#1b4a42" stroke-width="1"/><text x="72" y="272.0" text-anchor="end" class="axis">$87.70</text><line x1="86" x2="1142" y1="350.5" y2="350.5" stroke="#1b4a42" stroke-width="1"/><text x="72" y="355.5" text-anchor="end" class="axis">$75.64</text><line x1="86" x2="1142" y1="434.0" y2="434.0" stroke="#1b4a42" stroke-width="1"/><text x="72" y="439.0" text-anchor="end" class="axis">$63.58</text>
  <path d="M86.0,217.2 L97.9,221.2 L109.7,214.3 L121.6,215.0 L133.5,220.8 L145.3,218.5 L157.2,239.0 L169.1,238.4 L180.9,227.6 L192.8,244.7 L204.7,235.2 L216.5,228.0 L228.4,227.3 L240.2,230.5 L252.1,208.4 L264.0,212.6 L275.8,191.1 L287.7,189.2 L299.6,190.0 L311.4,186.0 L323.3,167.6 L335.2,160.9 L347.0,159.9 L358.9,138.3 L370.8,128.4 L382.6,127.8 L394.5,200.4 L406.4,217.6 L418.2,233.2 L430.1,228.6 L442.0,231.5 L453.8,234.1 L465.7,241.5 L477.6,235.3 L489.4,236.4 L501.3,226.0 L513.1,236.8 L525.0,244.0 L536.9,265.6 L548.7,263.0 L560.6,263.2 L572.5,268.4 L584.3,282.5 L596.2,267.2 L608.1,267.9 L619.9,272.2 L631.8,271.7 L643.7,253.5 L655.5,255.7 L667.4,264.3 L679.3,255.9 L691.1,260.7 L703.0,267.1 L714.9,269.4 L726.7,276.2 L738.6,278.6 L750.4,279.8 L762.3,297.2 L774.2,309.8 L786.0,309.5 L797.9,305.2 L809.8,302.0 L821.6,310.5 L833.5,306.4 L845.4,311.5 L857.2,317.9 L869.1,308.7 L881.0,329.2 L892.8,341.3 L904.7,338.4 L916.6,369.6 L928.4,370.0 L940.3,376.8 L952.2,383.3 L964.0,363.2 L975.9,363.4 L987.8,379.9 L999.6,360.5 L1011.5,336.6 L1023.3,347.9 L1035.2,346.7 L1047.1,350.8 L1058.9,351.7 L1070.8,366.2 L1082.7,363.0 L1094.5,365.1 L1106.4,364.1 L1118.3,359.4 L1130.1,396.8 L1142.0,406.2 L1142.0,434.0 L86.0,434.0 Z" fill="#0f5949" opacity="0.28"/>
  <path d="M86.0,217.2 L97.9,221.2 L109.7,214.3 L121.6,215.0 L133.5,220.8 L145.3,218.5 L157.2,239.0 L169.1,238.4 L180.9,227.6 L192.8,244.7 L204.7,235.2 L216.5,228.0 L228.4,227.3 L240.2,230.5 L252.1,208.4 L264.0,212.6 L275.8,191.1 L287.7,189.2 L299.6,190.0 L311.4,186.0 L323.3,167.6 L335.2,160.9 L347.0,159.9 L358.9,138.3 L370.8,128.4 L382.6,127.8 L394.5,200.4 L406.4,217.6 L418.2,233.2 L430.1,228.6 L442.0,231.5 L453.8,234.1 L465.7,241.5 L477.6,235.3 L489.4,236.4 L501.3,226.0 L513.1,236.8 L525.0,244.0 L536.9,265.6 L548.7,263.0 L560.6,263.2 L572.5,268.4 L584.3,282.5 L596.2,267.2 L608.1,267.9 L619.9,272.2 L631.8,271.7 L643.7,253.5 L655.5,255.7 L667.4,264.3 L679.3,255.9 L691.1,260.7 L703.0,267.1 L714.9,269.4 L726.7,276.2 L738.6,278.6 L750.4,279.8 L762.3,297.2 L774.2,309.8 L786.0,309.5 L797.9,305.2 L809.8,302.0 L821.6,310.5 L833.5,306.4 L845.4,311.5 L857.2,317.9 L869.1,308.7 L881.0,329.2 L892.8,341.3 L904.7,338.4 L916.6,369.6 L928.4,370.0 L940.3,376.8 L952.2,383.3 L964.0,363.2 L975.9,363.4 L987.8,379.9 L999.6,360.5 L1011.5,336.6 L1023.3,347.9 L1035.2,346.7 L1047.1,350.8 L1058.9,351.7 L1070.8,366.2 L1082.7,363.0 L1094.5,365.1 L1106.4,364.1 L1118.3,359.4 L1130.1,396.8 L1142.0,406.2" fill="none" stroke="#62d9ee" stroke-width="4" stroke-linecap="round" stroke-linejoin="round"/>
  <g>
    <line x1="1070.8" x2="1070.8" y1="100" y2="434" stroke="#18e59c" stroke-width="2" stroke-dasharray="7 7" opacity="0.8"/>
    <circle cx="1070.8" cy="366.0" r="8" fill="#071f1c" stroke="#18e59c" stroke-width="4"/>
    <text x="1030.0" y="348.0" text-anchor="middle" class="marker" fill="#18e59c">ENTRY | Jul 10 | $73.40</text>
  </g>
  
  <text x="86.0" y="472" text-anchor="middle" class="axis">Mar 11</text><text x="347.0" y="472" text-anchor="middle" class="axis">Apr 13</text><text x="619.9" y="472" text-anchor="middle" class="axis">May 14</text><text x="881.0" y="472" text-anchor="middle" class="axis">Jun 16</text><text x="1142.0" y="472" text-anchor="middle" class="axis">Jul 20</text>
  </svg>