<svg xmlns="http://www.w3.org/2000/svg" width="1200" height="500" viewBox="0 0 1200 500" role="img" aria-label="NFLX underlying price from entry">
  <rect width="1200" height="500" fill="#071f1c"/>
  <style>.head{fill:#f4fff9;font:800 27px Georgia,serif}.sub{fill:#9fc4bb;font:14px Arial,sans-serif}.axis{fill:#8eaaa3;font:12px Arial,sans-serif}.marker{font:800 12px Arial,sans-serif}</style>
  <text x="86" y="40" class="head">NFLX Underlying Price</text>
  <text x="86" y="66" class="sub">90 sessions | Entry marked; position remains open | Published option idea rank 1</text>
  <line x1="86" x2="1142" y1="100.0" y2="100.0" stroke="#1b4a42" stroke-width="1"/><text x="72" y="105.0" text-anchor="end" class="axis">$111.81</text><line x1="86" x2="1142" y1="183.5" y2="183.5" stroke="#1b4a42" stroke-width="1"/><text x="72" y="188.5" text-anchor="end" class="axis">$99.75</text><line x1="86" x2="1142" y1="267.0" y2="267.0" stroke="#1b4a42" stroke-width="1"/><text x="72" y="272.0" text-anchor="end" class="axis">$87.70</text><line x1="86" x2="1142" y1="350.5" y2="350.5" stroke="#1b4a42" stroke-width="1"/><text x="72" y="355.5" text-anchor="end" class="axis">$75.64</text><line x1="86" x2="1142" y1="434.0" y2="434.0" stroke="#1b4a42" stroke-width="1"/><text x="72" y="439.0" text-anchor="end" class="axis">$63.58</text>
  <path d="M86.0,214.3 L97.9,215.0 L109.7,220.8 L121.6,218.5 L133.5,239.0 L145.3,238.4 L157.2,227.6 L169.1,244.7 L180.9,235.2 L192.8,228.0 L204.7,227.3 L216.5,230.5 L228.4,208.4 L240.2,212.6 L252.1,191.1 L264.0,189.2 L275.8,190.0 L287.7,186.0 L299.6,167.6 L311.4,160.9 L323.3,159.9 L335.2,138.3 L347.0,128.4 L358.9,127.8 L370.8,200.4 L382.6,217.6 L394.5,233.2 L406.4,228.6 L418.2,231.5 L430.1,234.1 L442.0,241.5 L453.8,235.3 L465.7,236.4 L477.6,226.0 L489.4,236.8 L501.3,244.0 L513.1,265.6 L525.0,263.0 L536.9,263.2 L548.7,268.4 L560.6,282.5 L572.5,267.2 L584.3,267.9 L596.2,272.2 L608.1,271.7 L619.9,253.5 L631.8,255.7 L643.7,264.3 L655.5,255.9 L667.4,260.7 L679.3,267.1 L691.1,269.4 L703.0,276.2 L714.9,278.6 L726.7,279.8 L738.6,297.2 L750.4,309.8 L762.3,309.5 L774.2,305.2 L786.0,302.0 L797.9,310.5 L809.8,306.4 L821.6,311.5 L833.5,317.9 L845.4,308.7 L857.2,329.2 L869.1,341.3 L881.0,338.4 L892.8,369.6 L904.7,370.0 L916.6,376.8 L928.4,383.3 L940.3,363.2 L952.2,363.4 L964.0,379.9 L975.9,360.5 L987.8,336.6 L999.6,347.9 L1011.5,346.7 L1023.3,350.8 L1035.2,351.7 L1047.1,366.2 L1058.9,363.0 L1070.8,365.1 L1082.7,364.1 L1094.5,359.4 L1106.4,396.8 L1118.3,406.2 L1130.1,398.8 L1142.0,399.7 L1142.0,434.0 L86.0,434.0 Z" fill="#0f5949" opacity="0.28"/>
  <path d="M86.0,214.3 L97.9,215.0 L109.7,220.8 L121.6,218.5 L133.5,239.0 L145.3,238.4 L157.2,227.6 L169.1,244.7 L180.9,235.2 L192.8,228.0 L204.7,227.3 L216.5,230.5 L228.4,208.4 L240.2,212.6 L252.1,191.1 L264.0,189.2 L275.8,190.0 L287.7,186.0 L299.6,167.6 L311.4,160.9 L323.3,159.9 L335.2,138.3 L347.0,128.4 L358.9,127.8 L370.8,200.4 L382.6,217.6 L394.5,233.2 L406.4,228.6 L418.2,231.5 L430.1,234.1 L442.0,241.5 L453.8,235.3 L465.7,236.4 L477.6,226.0 L489.4,236.8 L501.3,244.0 L513.1,265.6 L525.0,263.0 L536.9,263.2 L548.7,268.4 L560.6,282.5 L572.5,267.2 L584.3,267.9 L596.2,272.2 L608.1,271.7 L619.9,253.5 L631.8,255.7 L643.7,264.3 L655.5,255.9 L667.4,260.7 L679.3,267.1 L691.1,269.4 L703.0,276.2 L714.9,278.6 L726.7,279.8 L738.6,297.2 L750.4,309.8 L762.3,309.5 L774.2,305.2 L786.0,302.0 L797.9,310.5 L809.8,306.4 L821.6,311.5 L833.5,317.9 L845.4,308.7 L857.2,329.2 L869.1,341.3 L881.0,338.4 L892.8,369.6 L904.7,370.0 L916.6,376.8 L928.4,383.3 L940.3,363.2 L952.2,363.4 L964.0,379.9 L975.9,360.5 L987.8,336.6 L999.6,347.9 L1011.5,346.7 L1023.3,350.8 L1035.2,351.7 L1047.1,366.2 L1058.9,363.0 L1070.8,365.1 L1082.7,364.1 L1094.5,359.4 L1106.4,396.8 L1118.3,406.2 L1130.1,398.8 L1142.0,399.7" fill="none" stroke="#62d9ee" stroke-width="4" stroke-linecap="round" stroke-linejoin="round"/>
  <g>
    <line x1="1047.1" x2="1047.1" y1="100" y2="434" stroke="#18e59c" stroke-width="2" stroke-dasharray="7 7" opacity="0.8"/>
    <circle cx="1047.1" cy="366.0" r="8" fill="#071f1c" stroke="#18e59c" stroke-width="4"/>
    <text x="1030.0" y="348.0" text-anchor="middle" class="marker" fill="#18e59c">ENTRY | Jul 10 | $73.40</text>
  </g>
  
  <text x="86.0" y="472" text-anchor="middle" class="axis">Mar 13</text><text x="347.0" y="472" text-anchor="middle" class="axis">Apr 15</text><text x="619.9" y="472" text-anchor="middle" class="axis">May 18</text><text x="881.0" y="472" text-anchor="middle" class="axis">Jun 18</text><text x="1142.0" y="472" text-anchor="middle" class="axis">Jul 22</text>
  </svg>