<svg xmlns="http://www.w3.org/2000/svg" width="1200" height="500" viewBox="0 0 1200 500" role="img" aria-label="T underlying price from entry">
  <rect width="1200" height="500" fill="#071f1c"/>
  <style>.head{fill:#f4fff9;font:800 27px Georgia,serif}.sub{fill:#9fc4bb;font:14px Arial,sans-serif}.axis{fill:#8eaaa3;font:12px Arial,sans-serif}.marker{font:800 12px Arial,sans-serif}</style>
  <text x="86" y="40" class="head">T Underlying Price</text>
  <text x="86" y="66" class="sub">90 sessions | Entry marked; position remains open | Published option idea rank 2</text>
  <line x1="86" x2="1142" y1="100.0" y2="100.0" stroke="#1b4a42" stroke-width="1"/><text x="72" y="105.0" text-anchor="end" class="axis">$29.96</text><line x1="86" x2="1142" y1="183.5" y2="183.5" stroke="#1b4a42" stroke-width="1"/><text x="72" y="188.5" text-anchor="end" class="axis">$27.38</text><line x1="86" x2="1142" y1="267.0" y2="267.0" stroke="#1b4a42" stroke-width="1"/><text x="72" y="272.0" text-anchor="end" class="axis">$24.79</text><line x1="86" x2="1142" y1="350.5" y2="350.5" stroke="#1b4a42" stroke-width="1"/><text x="72" y="355.5" text-anchor="end" class="axis">$22.20</text><line x1="86" x2="1142" y1="434.0" y2="434.0" stroke="#1b4a42" stroke-width="1"/><text x="72" y="439.0" text-anchor="end" class="axis">$19.62</text>
  <path d="M86.0,141.7 L97.9,131.7 L109.7,132.0 L121.6,142.7 L133.5,178.5 L145.3,172.7 L157.2,190.5 L169.1,183.0 L180.9,172.4 L192.8,172.1 L204.7,168.2 L216.5,182.4 L228.4,171.7 L240.2,153.3 L252.1,138.8 L264.0,135.3 L275.8,137.2 L287.7,133.6 L299.6,127.8 L311.4,138.2 L323.3,131.4 L335.2,153.3 L347.0,152.7 L358.9,153.0 L370.8,162.1 L382.6,184.3 L394.5,200.8 L406.4,213.1 L418.2,240.5 L430.1,240.2 L442.0,245.4 L453.8,215.0 L465.7,211.5 L477.6,222.1 L489.4,231.8 L501.3,228.6 L513.1,208.2 L525.0,221.5 L536.9,243.4 L548.7,226.0 L560.6,236.0 L572.5,223.7 L584.3,224.1 L596.2,224.7 L608.1,231.2 L619.9,241.8 L631.8,251.8 L643.7,255.1 L655.5,264.4 L667.4,252.8 L679.3,268.6 L691.1,271.5 L703.0,291.5 L714.9,278.6 L726.7,260.9 L738.6,262.5 L750.4,249.2 L762.3,251.8 L774.2,259.6 L786.0,263.8 L797.9,264.1 L809.8,266.7 L821.6,274.7 L833.5,271.8 L845.4,307.0 L857.2,332.2 L869.1,332.9 L881.0,340.9 L892.8,334.2 L904.7,318.0 L916.6,324.8 L928.4,306.1 L940.3,315.4 L952.2,319.6 L964.0,342.9 L975.9,356.8 L987.8,353.9 L999.6,330.9 L1011.5,345.1 L1023.3,343.5 L1035.2,333.8 L1047.1,362.9 L1058.9,399.1 L1070.8,406.2 L1082.7,402.9 L1094.5,402.9 L1106.4,386.5 L1118.3,385.5 L1130.1,388.1 L1142.0,385.2 L1142.0,434.0 L86.0,434.0 Z" fill="#0f5949" opacity="0.28"/>
  <path d="M86.0,141.7 L97.9,131.7 L109.7,132.0 L121.6,142.7 L133.5,178.5 L145.3,172.7 L157.2,190.5 L169.1,183.0 L180.9,172.4 L192.8,172.1 L204.7,168.2 L216.5,182.4 L228.4,171.7 L240.2,153.3 L252.1,138.8 L264.0,135.3 L275.8,137.2 L287.7,133.6 L299.6,127.8 L311.4,138.2 L323.3,131.4 L335.2,153.3 L347.0,152.7 L358.9,153.0 L370.8,162.1 L382.6,184.3 L394.5,200.8 L406.4,213.1 L418.2,240.5 L430.1,240.2 L442.0,245.4 L453.8,215.0 L465.7,211.5 L477.6,222.1 L489.4,231.8 L501.3,228.6 L513.1,208.2 L525.0,221.5 L536.9,243.4 L548.7,226.0 L560.6,236.0 L572.5,223.7 L584.3,224.1 L596.2,224.7 L608.1,231.2 L619.9,241.8 L631.8,251.8 L643.7,255.1 L655.5,264.4 L667.4,252.8 L679.3,268.6 L691.1,271.5 L703.0,291.5 L714.9,278.6 L726.7,260.9 L738.6,262.5 L750.4,249.2 L762.3,251.8 L774.2,259.6 L786.0,263.8 L797.9,264.1 L809.8,266.7 L821.6,274.7 L833.5,271.8 L845.4,307.0 L857.2,332.2 L869.1,332.9 L881.0,340.9 L892.8,334.2 L904.7,318.0 L916.6,324.8 L928.4,306.1 L940.3,315.4 L952.2,319.6 L964.0,342.9 L975.9,356.8 L987.8,353.9 L999.6,330.9 L1011.5,345.1 L1023.3,343.5 L1035.2,333.8 L1047.1,362.9 L1058.9,399.1 L1070.8,406.2 L1082.7,402.9 L1094.5,402.9 L1106.4,386.5 L1118.3,385.5 L1130.1,388.1 L1142.0,385.2" fill="none" stroke="#62d9ee" stroke-width="4" stroke-linecap="round" stroke-linejoin="round"/>
  <g>
    <line x1="1142.0" x2="1142.0" y1="100" y2="434" stroke="#18e59c" stroke-width="2" stroke-dasharray="7 7" opacity="0.8"/>
    <circle cx="1142.0" cy="385.2" r="8" fill="#071f1c" stroke="#18e59c" stroke-width="4"/>
    <text x="1030.0" y="367.2" text-anchor="middle" class="marker" fill="#18e59c">ENTRY | Jul 10 | $21.13</text>
  </g>
  
  <text x="86.0" y="472" text-anchor="middle" class="axis">Mar 3</text><text x="347.0" y="472" text-anchor="middle" class="axis">Apr 2</text><text x="619.9" y="472" text-anchor="middle" class="axis">May 6</text><text x="881.0" y="472" text-anchor="middle" class="axis">Jun 8</text><text x="1142.0" y="472" text-anchor="middle" class="axis">Jul 10</text>
  </svg>