<svg xmlns="http://www.w3.org/2000/svg" width="1200" height="500" viewBox="0 0 1200 500" role="img" aria-label="T underlying price from entry">
  <rect width="1200" height="500" fill="#071f1c"/>
  <style>.head{fill:#f4fff9;font:800 27px Georgia,serif}.sub{fill:#9fc4bb;font:14px Arial,sans-serif}.axis{fill:#8eaaa3;font:12px Arial,sans-serif}.marker{font:800 12px Arial,sans-serif}</style>
  <text x="86" y="40" class="head">T Underlying Price</text>
  <text x="86" y="66" class="sub">90 sessions | Entry marked; position remains open | Published option idea rank 2</text>
  <line x1="86" x2="1142" y1="100.0" y2="100.0" stroke="#1b4a42" stroke-width="1"/><text x="72" y="105.0" text-anchor="end" class="axis">$29.96</text><line x1="86" x2="1142" y1="183.5" y2="183.5" stroke="#1b4a42" stroke-width="1"/><text x="72" y="188.5" text-anchor="end" class="axis">$27.38</text><line x1="86" x2="1142" y1="267.0" y2="267.0" stroke="#1b4a42" stroke-width="1"/><text x="72" y="272.0" text-anchor="end" class="axis">$24.79</text><line x1="86" x2="1142" y1="350.5" y2="350.5" stroke="#1b4a42" stroke-width="1"/><text x="72" y="355.5" text-anchor="end" class="axis">$22.20</text><line x1="86" x2="1142" y1="434.0" y2="434.0" stroke="#1b4a42" stroke-width="1"/><text x="72" y="439.0" text-anchor="end" class="axis">$19.62</text>
  <path d="M86.0,142.7 L97.9,178.5 L109.7,172.7 L121.6,190.5 L133.5,183.0 L145.3,172.4 L157.2,172.1 L169.1,168.2 L180.9,182.4 L192.8,171.7 L204.7,153.3 L216.5,138.8 L228.4,135.3 L240.2,137.2 L252.1,133.6 L264.0,127.8 L275.8,138.2 L287.7,131.4 L299.6,153.3 L311.4,152.7 L323.3,153.0 L335.2,162.1 L347.0,184.3 L358.9,200.8 L370.8,213.1 L382.6,240.5 L394.5,240.2 L406.4,245.4 L418.2,215.0 L430.1,211.5 L442.0,222.1 L453.8,231.8 L465.7,228.6 L477.6,208.2 L489.4,221.5 L501.3,243.4 L513.1,226.0 L525.0,236.0 L536.9,223.7 L548.7,224.1 L560.6,224.7 L572.5,231.2 L584.3,241.8 L596.2,251.8 L608.1,255.1 L619.9,264.4 L631.8,252.8 L643.7,268.6 L655.5,271.5 L667.4,291.5 L679.3,278.6 L691.1,260.9 L703.0,262.5 L714.9,249.2 L726.7,251.8 L738.6,259.6 L750.4,263.8 L762.3,264.1 L774.2,266.7 L786.0,274.7 L797.9,271.8 L809.8,307.0 L821.6,332.2 L833.5,332.9 L845.4,340.9 L857.2,334.2 L869.1,318.0 L881.0,324.8 L892.8,306.1 L904.7,315.4 L916.6,319.6 L928.4,342.9 L940.3,356.8 L952.2,353.9 L964.0,330.9 L975.9,345.1 L987.8,343.5 L999.6,333.8 L1011.5,362.9 L1023.3,399.1 L1035.2,406.2 L1047.1,402.9 L1058.9,402.9 L1070.8,386.5 L1082.7,385.5 L1094.5,388.1 L1106.4,385.2 L1118.3,371.6 L1130.1,380.3 L1142.0,375.5 L1142.0,434.0 L86.0,434.0 Z" fill="#0f5949" opacity="0.28"/>
  <path d="M86.0,142.7 L97.9,178.5 L109.7,172.7 L121.6,190.5 L133.5,183.0 L145.3,172.4 L157.2,172.1 L169.1,168.2 L180.9,182.4 L192.8,171.7 L204.7,153.3 L216.5,138.8 L228.4,135.3 L240.2,137.2 L252.1,133.6 L264.0,127.8 L275.8,138.2 L287.7,131.4 L299.6,153.3 L311.4,152.7 L323.3,153.0 L335.2,162.1 L347.0,184.3 L358.9,200.8 L370.8,213.1 L382.6,240.5 L394.5,240.2 L406.4,245.4 L418.2,215.0 L430.1,211.5 L442.0,222.1 L453.8,231.8 L465.7,228.6 L477.6,208.2 L489.4,221.5 L501.3,243.4 L513.1,226.0 L525.0,236.0 L536.9,223.7 L548.7,224.1 L560.6,224.7 L572.5,231.2 L584.3,241.8 L596.2,251.8 L608.1,255.1 L619.9,264.4 L631.8,252.8 L643.7,268.6 L655.5,271.5 L667.4,291.5 L679.3,278.6 L691.1,260.9 L703.0,262.5 L714.9,249.2 L726.7,251.8 L738.6,259.6 L750.4,263.8 L762.3,264.1 L774.2,266.7 L786.0,274.7 L797.9,271.8 L809.8,307.0 L821.6,332.2 L833.5,332.9 L845.4,340.9 L857.2,334.2 L869.1,318.0 L881.0,324.8 L892.8,306.1 L904.7,315.4 L916.6,319.6 L928.4,342.9 L940.3,356.8 L952.2,353.9 L964.0,330.9 L975.9,345.1 L987.8,343.5 L999.6,333.8 L1011.5,362.9 L1023.3,399.1 L1035.2,406.2 L1047.1,402.9 L1058.9,402.9 L1070.8,386.5 L1082.7,385.5 L1094.5,388.1 L1106.4,385.2 L1118.3,371.6 L1130.1,380.3 L1142.0,375.5" fill="none" stroke="#62d9ee" stroke-width="4" stroke-linecap="round" stroke-linejoin="round"/>
  <g>
    <line x1="1106.4" x2="1106.4" y1="100" y2="434" stroke="#18e59c" stroke-width="2" stroke-dasharray="7 7" opacity="0.8"/>
    <circle cx="1106.4" cy="385.2" r="8" fill="#071f1c" stroke="#18e59c" stroke-width="4"/>
    <text x="1030.0" y="367.2" text-anchor="middle" class="marker" fill="#18e59c">ENTRY | Jul 10 | $21.13</text>
  </g>
  
  <text x="86.0" y="472" text-anchor="middle" class="axis">Mar 6</text><text x="347.0" y="472" text-anchor="middle" class="axis">Apr 8</text><text x="619.9" y="472" text-anchor="middle" class="axis">May 11</text><text x="881.0" y="472" text-anchor="middle" class="axis">Jun 11</text><text x="1142.0" y="472" text-anchor="middle" class="axis">Jul 15</text>
  </svg>