<svg xmlns="http://www.w3.org/2000/svg" width="1200" height="500" viewBox="0 0 1200 500" role="img" aria-label="T underlying price from entry">
  <rect width="1200" height="500" fill="#071f1c"/>
  <style>.head{fill:#f4fff9;font:800 27px Georgia,serif}.sub{fill:#9fc4bb;font:14px Arial,sans-serif}.axis{fill:#8eaaa3;font:12px Arial,sans-serif}.marker{font:800 12px Arial,sans-serif}</style>
  <text x="86" y="40" class="head">T Underlying Price</text>
  <text x="86" y="66" class="sub">90 sessions | Entry marked; position remains open | Published option idea rank 2</text>
  <line x1="86" x2="1142" y1="100.0" y2="100.0" stroke="#1b4a42" stroke-width="1"/><text x="72" y="105.0" text-anchor="end" class="axis">$29.96</text><line x1="86" x2="1142" y1="183.5" y2="183.5" stroke="#1b4a42" stroke-width="1"/><text x="72" y="188.5" text-anchor="end" class="axis">$27.38</text><line x1="86" x2="1142" y1="267.0" y2="267.0" stroke="#1b4a42" stroke-width="1"/><text x="72" y="272.0" text-anchor="end" class="axis">$24.79</text><line x1="86" x2="1142" y1="350.5" y2="350.5" stroke="#1b4a42" stroke-width="1"/><text x="72" y="355.5" text-anchor="end" class="axis">$22.20</text><line x1="86" x2="1142" y1="434.0" y2="434.0" stroke="#1b4a42" stroke-width="1"/><text x="72" y="439.0" text-anchor="end" class="axis">$19.62</text>
  <path d="M86.0,131.7 L97.9,132.0 L109.7,142.7 L121.6,178.5 L133.5,172.7 L145.3,190.5 L157.2,183.0 L169.1,172.4 L180.9,172.1 L192.8,168.2 L204.7,182.4 L216.5,171.7 L228.4,153.3 L240.2,138.8 L252.1,135.3 L264.0,137.2 L275.8,133.6 L287.7,127.8 L299.6,138.2 L311.4,131.4 L323.3,153.3 L335.2,152.7 L347.0,153.0 L358.9,162.1 L370.8,184.3 L382.6,200.8 L394.5,213.1 L406.4,240.5 L418.2,240.2 L430.1,245.4 L442.0,215.0 L453.8,211.5 L465.7,222.1 L477.6,231.8 L489.4,228.6 L501.3,208.2 L513.1,221.5 L525.0,243.4 L536.9,226.0 L548.7,236.0 L560.6,223.7 L572.5,224.1 L584.3,224.7 L596.2,231.2 L608.1,241.8 L619.9,251.8 L631.8,255.1 L643.7,264.4 L655.5,252.8 L667.4,268.6 L679.3,271.5 L691.1,291.5 L703.0,278.6 L714.9,260.9 L726.7,262.5 L738.6,249.2 L750.4,251.8 L762.3,259.6 L774.2,263.8 L786.0,264.1 L797.9,266.7 L809.8,274.7 L821.6,271.8 L833.5,307.0 L845.4,332.2 L857.2,332.9 L869.1,340.9 L881.0,334.2 L892.8,318.0 L904.7,324.8 L916.6,306.1 L928.4,315.4 L940.3,319.6 L952.2,342.9 L964.0,356.8 L975.9,353.9 L987.8,330.9 L999.6,345.1 L1011.5,343.5 L1023.3,333.8 L1035.2,362.9 L1047.1,399.1 L1058.9,406.2 L1070.8,402.9 L1082.7,402.9 L1094.5,386.5 L1106.4,385.5 L1118.3,388.1 L1130.1,385.2 L1142.0,371.6 L1142.0,434.0 L86.0,434.0 Z" fill="#0f5949" opacity="0.28"/>
  <path d="M86.0,131.7 L97.9,132.0 L109.7,142.7 L121.6,178.5 L133.5,172.7 L145.3,190.5 L157.2,183.0 L169.1,172.4 L180.9,172.1 L192.8,168.2 L204.7,182.4 L216.5,171.7 L228.4,153.3 L240.2,138.8 L252.1,135.3 L264.0,137.2 L275.8,133.6 L287.7,127.8 L299.6,138.2 L311.4,131.4 L323.3,153.3 L335.2,152.7 L347.0,153.0 L358.9,162.1 L370.8,184.3 L382.6,200.8 L394.5,213.1 L406.4,240.5 L418.2,240.2 L430.1,245.4 L442.0,215.0 L453.8,211.5 L465.7,222.1 L477.6,231.8 L489.4,228.6 L501.3,208.2 L513.1,221.5 L525.0,243.4 L536.9,226.0 L548.7,236.0 L560.6,223.7 L572.5,224.1 L584.3,224.7 L596.2,231.2 L608.1,241.8 L619.9,251.8 L631.8,255.1 L643.7,264.4 L655.5,252.8 L667.4,268.6 L679.3,271.5 L691.1,291.5 L703.0,278.6 L714.9,260.9 L726.7,262.5 L738.6,249.2 L750.4,251.8 L762.3,259.6 L774.2,263.8 L786.0,264.1 L797.9,266.7 L809.8,274.7 L821.6,271.8 L833.5,307.0 L845.4,332.2 L857.2,332.9 L869.1,340.9 L881.0,334.2 L892.8,318.0 L904.7,324.8 L916.6,306.1 L928.4,315.4 L940.3,319.6 L952.2,342.9 L964.0,356.8 L975.9,353.9 L987.8,330.9 L999.6,345.1 L1011.5,343.5 L1023.3,333.8 L1035.2,362.9 L1047.1,399.1 L1058.9,406.2 L1070.8,402.9 L1082.7,402.9 L1094.5,386.5 L1106.4,385.5 L1118.3,388.1 L1130.1,385.2 L1142.0,371.6" fill="none" stroke="#62d9ee" stroke-width="4" stroke-linecap="round" stroke-linejoin="round"/>
  <g>
    <line x1="1130.1" x2="1130.1" y1="100" y2="434" stroke="#18e59c" stroke-width="2" stroke-dasharray="7 7" opacity="0.8"/>
    <circle cx="1130.1" cy="385.2" r="8" fill="#071f1c" stroke="#18e59c" stroke-width="4"/>
    <text x="1030.0" y="367.2" text-anchor="middle" class="marker" fill="#18e59c">ENTRY | Jul 10 | $21.13</text>
  </g>
  
  <text x="86.0" y="472" text-anchor="middle" class="axis">Mar 4</text><text x="347.0" y="472" text-anchor="middle" class="axis">Apr 6</text><text x="619.9" y="472" text-anchor="middle" class="axis">May 7</text><text x="881.0" y="472" text-anchor="middle" class="axis">Jun 9</text><text x="1142.0" y="472" text-anchor="middle" class="axis">Jul 13</text>
  </svg>