<svg xmlns="http://www.w3.org/2000/svg" width="1200" height="500" viewBox="0 0 1200 500" role="img" aria-label="T underlying price from entry">
  <rect width="1200" height="500" fill="#071f1c"/>
  <style>.head{fill:#f4fff9;font:800 27px Georgia,serif}.sub{fill:#9fc4bb;font:14px Arial,sans-serif}.axis{fill:#8eaaa3;font:12px Arial,sans-serif}.marker{font:800 12px Arial,sans-serif}</style>
  <text x="86" y="40" class="head">T Underlying Price</text>
  <text x="86" y="66" class="sub">90 sessions | Entry marked; position remains open | Published option idea rank 2</text>
  <line x1="86" x2="1142" y1="100.0" y2="100.0" stroke="#1b4a42" stroke-width="1"/><text x="72" y="105.0" text-anchor="end" class="axis">$29.96</text><line x1="86" x2="1142" y1="183.5" y2="183.5" stroke="#1b4a42" stroke-width="1"/><text x="72" y="188.5" text-anchor="end" class="axis">$27.38</text><line x1="86" x2="1142" y1="267.0" y2="267.0" stroke="#1b4a42" stroke-width="1"/><text x="72" y="272.0" text-anchor="end" class="axis">$24.79</text><line x1="86" x2="1142" y1="350.5" y2="350.5" stroke="#1b4a42" stroke-width="1"/><text x="72" y="355.5" text-anchor="end" class="axis">$22.20</text><line x1="86" x2="1142" y1="434.0" y2="434.0" stroke="#1b4a42" stroke-width="1"/><text x="72" y="439.0" text-anchor="end" class="axis">$19.62</text>
  <path d="M86.0,172.7 L97.9,190.5 L109.7,183.0 L121.6,172.4 L133.5,172.1 L145.3,168.2 L157.2,182.4 L169.1,171.7 L180.9,153.3 L192.8,138.8 L204.7,135.3 L216.5,137.2 L228.4,133.6 L240.2,127.8 L252.1,138.2 L264.0,131.4 L275.8,153.3 L287.7,152.7 L299.6,153.0 L311.4,162.1 L323.3,184.3 L335.2,200.8 L347.0,213.1 L358.9,240.5 L370.8,240.2 L382.6,245.4 L394.5,215.0 L406.4,211.5 L418.2,222.1 L430.1,231.8 L442.0,228.6 L453.8,208.2 L465.7,221.5 L477.6,243.4 L489.4,226.0 L501.3,236.0 L513.1,223.7 L525.0,224.1 L536.9,224.7 L548.7,231.2 L560.6,241.8 L572.5,251.8 L584.3,255.1 L596.2,264.4 L608.1,252.8 L619.9,268.6 L631.8,271.5 L643.7,291.5 L655.5,278.6 L667.4,260.9 L679.3,262.5 L691.1,249.2 L703.0,251.8 L714.9,259.6 L726.7,263.8 L738.6,264.1 L750.4,266.7 L762.3,274.7 L774.2,271.8 L786.0,307.0 L797.9,332.2 L809.8,332.9 L821.6,340.9 L833.5,334.2 L845.4,318.0 L857.2,324.8 L869.1,306.1 L881.0,315.4 L892.8,319.6 L904.7,342.9 L916.6,356.8 L928.4,353.9 L940.3,330.9 L952.2,345.1 L964.0,343.5 L975.9,333.8 L987.8,362.9 L999.6,399.1 L1011.5,406.2 L1023.3,402.9 L1035.2,402.9 L1047.1,386.5 L1058.9,385.5 L1070.8,388.1 L1082.7,385.2 L1094.5,371.6 L1106.4,380.3 L1118.3,375.5 L1130.1,357.7 L1142.0,363.2 L1142.0,434.0 L86.0,434.0 Z" fill="#0f5949" opacity="0.28"/>
  <path d="M86.0,172.7 L97.9,190.5 L109.7,183.0 L121.6,172.4 L133.5,172.1 L145.3,168.2 L157.2,182.4 L169.1,171.7 L180.9,153.3 L192.8,138.8 L204.7,135.3 L216.5,137.2 L228.4,133.6 L240.2,127.8 L252.1,138.2 L264.0,131.4 L275.8,153.3 L287.7,152.7 L299.6,153.0 L311.4,162.1 L323.3,184.3 L335.2,200.8 L347.0,213.1 L358.9,240.5 L370.8,240.2 L382.6,245.4 L394.5,215.0 L406.4,211.5 L418.2,222.1 L430.1,231.8 L442.0,228.6 L453.8,208.2 L465.7,221.5 L477.6,243.4 L489.4,226.0 L501.3,236.0 L513.1,223.7 L525.0,224.1 L536.9,224.7 L548.7,231.2 L560.6,241.8 L572.5,251.8 L584.3,255.1 L596.2,264.4 L608.1,252.8 L619.9,268.6 L631.8,271.5 L643.7,291.5 L655.5,278.6 L667.4,260.9 L679.3,262.5 L691.1,249.2 L703.0,251.8 L714.9,259.6 L726.7,263.8 L738.6,264.1 L750.4,266.7 L762.3,274.7 L774.2,271.8 L786.0,307.0 L797.9,332.2 L809.8,332.9 L821.6,340.9 L833.5,334.2 L845.4,318.0 L857.2,324.8 L869.1,306.1 L881.0,315.4 L892.8,319.6 L904.7,342.9 L916.6,356.8 L928.4,353.9 L940.3,330.9 L952.2,345.1 L964.0,343.5 L975.9,333.8 L987.8,362.9 L999.6,399.1 L1011.5,406.2 L1023.3,402.9 L1035.2,402.9 L1047.1,386.5 L1058.9,385.5 L1070.8,388.1 L1082.7,385.2 L1094.5,371.6 L1106.4,380.3 L1118.3,375.5 L1130.1,357.7 L1142.0,363.2" fill="none" stroke="#62d9ee" stroke-width="4" stroke-linecap="round" stroke-linejoin="round"/>
  <g>
    <line x1="1082.7" x2="1082.7" y1="100" y2="434" stroke="#18e59c" stroke-width="2" stroke-dasharray="7 7" opacity="0.8"/>
    <circle cx="1082.7" cy="385.2" r="8" fill="#071f1c" stroke="#18e59c" stroke-width="4"/>
    <text x="1030.0" y="367.2" text-anchor="middle" class="marker" fill="#18e59c">ENTRY | Jul 10 | $21.13</text>
  </g>
  
  <text x="86.0" y="472" text-anchor="middle" class="axis">Mar 10</text><text x="347.0" y="472" text-anchor="middle" class="axis">Apr 10</text><text x="619.9" y="472" text-anchor="middle" class="axis">May 13</text><text x="881.0" y="472" text-anchor="middle" class="axis">Jun 15</text><text x="1142.0" y="472" text-anchor="middle" class="axis">Jul 17</text>
  </svg>