<svg xmlns="http://www.w3.org/2000/svg" width="1200" height="500" viewBox="0 0 1200 500" role="img" aria-label="WFC underlying price from entry">
  <rect width="1200" height="500" fill="#071f1c"/>
  <style>.head{fill:#f4fff9;font:800 27px Georgia,serif}.sub{fill:#9fc4bb;font:14px Arial,sans-serif}.axis{fill:#8eaaa3;font:12px Arial,sans-serif}.marker{font:800 12px Arial,sans-serif}</style>
  <text x="86" y="40" class="head">WFC Underlying Price</text>
  <text x="86" y="66" class="sub">90 sessions | Entry marked; position remains open | Published option idea rank 3</text>
  <line x1="86" x2="1142" y1="100.0" y2="100.0" stroke="#1b4a42" stroke-width="1"/><text x="72" y="105.0" text-anchor="end" class="axis">$89.09</text><line x1="86" x2="1142" y1="183.5" y2="183.5" stroke="#1b4a42" stroke-width="1"/><text x="72" y="188.5" text-anchor="end" class="axis">$84.82</text><line x1="86" x2="1142" y1="267.0" y2="267.0" stroke="#1b4a42" stroke-width="1"/><text x="72" y="272.0" text-anchor="end" class="axis">$80.55</text><line x1="86" x2="1142" y1="350.5" y2="350.5" stroke="#1b4a42" stroke-width="1"/><text x="72" y="355.5" text-anchor="end" class="axis">$76.27</text><line x1="86" x2="1142" y1="434.0" y2="434.0" stroke="#1b4a42" stroke-width="1"/><text x="72" y="439.0" text-anchor="end" class="axis">$72.00</text>
  <path d="M86.0,200.9 L97.9,236.4 L109.7,269.4 L121.6,300.5 L133.5,310.8 L145.3,338.6 L157.2,370.4 L169.1,392.9 L180.9,360.7 L192.8,351.3 L204.7,352.1 L216.5,348.2 L228.4,324.5 L240.2,311.2 L252.1,285.3 L264.0,272.6 L275.8,296.8 L287.7,332.5 L299.6,340.1 L311.4,285.3 L323.3,266.5 L335.2,265.9 L347.0,241.5 L358.9,243.5 L370.8,186.6 L382.6,160.1 L394.5,172.2 L406.4,148.0 L418.2,244.4 L430.1,272.0 L442.0,253.2 L453.8,250.1 L465.7,239.2 L477.6,247.4 L489.4,266.3 L501.3,267.7 L513.1,289.0 L525.0,266.7 L536.9,248.3 L548.7,248.2 L560.6,234.1 L572.5,261.8 L584.3,293.7 L596.2,279.8 L608.1,269.4 L619.9,294.1 L631.8,362.8 L643.7,403.0 L655.5,371.8 L667.4,404.0 L679.3,398.9 L691.1,406.2 L703.0,387.6 L714.9,384.1 L726.7,359.5 L738.6,357.3 L750.4,348.0 L762.3,326.1 L774.2,353.6 L786.0,343.1 L797.9,325.7 L809.8,332.9 L821.6,288.6 L833.5,303.4 L845.4,246.0 L857.2,239.8 L869.1,258.9 L881.0,238.6 L892.8,239.2 L904.7,230.8 L916.6,204.8 L928.4,216.3 L940.3,179.0 L952.2,203.2 L964.0,234.7 L975.9,202.6 L987.8,197.0 L999.6,193.7 L1011.5,185.1 L1023.3,202.3 L1035.2,209.1 L1047.1,226.1 L1058.9,161.6 L1070.8,170.0 L1082.7,132.1 L1094.5,137.4 L1106.4,169.0 L1118.3,142.7 L1130.1,137.8 L1142.0,127.8 L1142.0,434.0 L86.0,434.0 Z" fill="#0f5949" opacity="0.28"/>
  <path d="M86.0,200.9 L97.9,236.4 L109.7,269.4 L121.6,300.5 L133.5,310.8 L145.3,338.6 L157.2,370.4 L169.1,392.9 L180.9,360.7 L192.8,351.3 L204.7,352.1 L216.5,348.2 L228.4,324.5 L240.2,311.2 L252.1,285.3 L264.0,272.6 L275.8,296.8 L287.7,332.5 L299.6,340.1 L311.4,285.3 L323.3,266.5 L335.2,265.9 L347.0,241.5 L358.9,243.5 L370.8,186.6 L382.6,160.1 L394.5,172.2 L406.4,148.0 L418.2,244.4 L430.1,272.0 L442.0,253.2 L453.8,250.1 L465.7,239.2 L477.6,247.4 L489.4,266.3 L501.3,267.7 L513.1,289.0 L525.0,266.7 L536.9,248.3 L548.7,248.2 L560.6,234.1 L572.5,261.8 L584.3,293.7 L596.2,279.8 L608.1,269.4 L619.9,294.1 L631.8,362.8 L643.7,403.0 L655.5,371.8 L667.4,404.0 L679.3,398.9 L691.1,406.2 L703.0,387.6 L714.9,384.1 L726.7,359.5 L738.6,357.3 L750.4,348.0 L762.3,326.1 L774.2,353.6 L786.0,343.1 L797.9,325.7 L809.8,332.9 L821.6,288.6 L833.5,303.4 L845.4,246.0 L857.2,239.8 L869.1,258.9 L881.0,238.6 L892.8,239.2 L904.7,230.8 L916.6,204.8 L928.4,216.3 L940.3,179.0 L952.2,203.2 L964.0,234.7 L975.9,202.6 L987.8,197.0 L999.6,193.7 L1011.5,185.1 L1023.3,202.3 L1035.2,209.1 L1047.1,226.1 L1058.9,161.6 L1070.8,170.0 L1082.7,132.1 L1094.5,137.4 L1106.4,169.0 L1118.3,142.7 L1130.1,137.8 L1142.0,127.8" fill="none" stroke="#62d9ee" stroke-width="4" stroke-linecap="round" stroke-linejoin="round"/>
  <g>
    <line x1="1130.1" x2="1130.1" y1="100" y2="434" stroke="#18e59c" stroke-width="2" stroke-dasharray="7 7" opacity="0.8"/>
    <circle cx="1130.1" cy="138.8" r="8" fill="#071f1c" stroke="#18e59c" stroke-width="4"/>
    <text x="1030.0" y="172.8" text-anchor="middle" class="marker" fill="#18e59c">ENTRY | Jul 10 | $87.11</text>
  </g>
  
  <text x="86.0" y="472" text-anchor="middle" class="axis">Mar 4</text><text x="347.0" y="472" text-anchor="middle" class="axis">Apr 6</text><text x="619.9" y="472" text-anchor="middle" class="axis">May 7</text><text x="881.0" y="472" text-anchor="middle" class="axis">Jun 9</text><text x="1142.0" y="472" text-anchor="middle" class="axis">Jul 13</text>
  </svg>