<svg xmlns="http://www.w3.org/2000/svg" width="1200" height="500" viewBox="0 0 1200 500" role="img" aria-label="WFC underlying price from entry">
  <rect width="1200" height="500" fill="#071f1c"/>
  <style>.head{fill:#f4fff9;font:800 27px Georgia,serif}.sub{fill:#9fc4bb;font:14px Arial,sans-serif}.axis{fill:#8eaaa3;font:12px Arial,sans-serif}.marker{font:800 12px Arial,sans-serif}</style>
  <text x="86" y="40" class="head">WFC Underlying Price</text>
  <text x="86" y="66" class="sub">90 sessions | Entry marked; position remains open | Published option idea rank 3</text>
  <line x1="86" x2="1142" y1="100.0" y2="100.0" stroke="#1b4a42" stroke-width="1"/><text x="72" y="105.0" text-anchor="end" class="axis">$89.09</text><line x1="86" x2="1142" y1="183.5" y2="183.5" stroke="#1b4a42" stroke-width="1"/><text x="72" y="188.5" text-anchor="end" class="axis">$84.82</text><line x1="86" x2="1142" y1="267.0" y2="267.0" stroke="#1b4a42" stroke-width="1"/><text x="72" y="272.0" text-anchor="end" class="axis">$80.55</text><line x1="86" x2="1142" y1="350.5" y2="350.5" stroke="#1b4a42" stroke-width="1"/><text x="72" y="355.5" text-anchor="end" class="axis">$76.27</text><line x1="86" x2="1142" y1="434.0" y2="434.0" stroke="#1b4a42" stroke-width="1"/><text x="72" y="439.0" text-anchor="end" class="axis">$72.00</text>
  <path d="M86.0,269.4 L97.9,300.5 L109.7,310.8 L121.6,338.6 L133.5,370.4 L145.3,392.9 L157.2,360.7 L169.1,351.3 L180.9,352.1 L192.8,348.2 L204.7,324.5 L216.5,311.2 L228.4,285.3 L240.2,272.6 L252.1,296.8 L264.0,332.5 L275.8,340.1 L287.7,285.3 L299.6,266.5 L311.4,265.9 L323.3,241.5 L335.2,243.5 L347.0,186.6 L358.9,160.1 L370.8,172.2 L382.6,148.0 L394.5,244.4 L406.4,272.0 L418.2,253.2 L430.1,250.1 L442.0,239.2 L453.8,247.4 L465.7,266.3 L477.6,267.7 L489.4,289.0 L501.3,266.7 L513.1,248.3 L525.0,248.2 L536.9,234.1 L548.7,261.8 L560.6,293.7 L572.5,279.8 L584.3,269.4 L596.2,294.1 L608.1,362.8 L619.9,403.0 L631.8,371.8 L643.7,404.0 L655.5,398.9 L667.4,406.2 L679.3,387.6 L691.1,384.1 L703.0,359.5 L714.9,357.3 L726.7,348.0 L738.6,326.1 L750.4,353.6 L762.3,343.1 L774.2,325.7 L786.0,332.9 L797.9,288.6 L809.8,303.4 L821.6,246.0 L833.5,239.8 L845.4,258.9 L857.2,238.6 L869.1,239.2 L881.0,230.8 L892.8,204.8 L904.7,216.3 L916.6,179.0 L928.4,203.2 L940.3,234.7 L952.2,202.6 L964.0,197.0 L975.9,193.7 L987.8,185.1 L999.6,202.3 L1011.5,209.1 L1023.3,226.1 L1035.2,161.6 L1047.1,170.0 L1058.9,132.1 L1070.8,137.4 L1082.7,169.0 L1094.5,142.7 L1106.4,137.8 L1118.3,127.8 L1130.1,174.3 L1142.0,131.0 L1142.0,434.0 L86.0,434.0 Z" fill="#0f5949" opacity="0.28"/>
  <path d="M86.0,269.4 L97.9,300.5 L109.7,310.8 L121.6,338.6 L133.5,370.4 L145.3,392.9 L157.2,360.7 L169.1,351.3 L180.9,352.1 L192.8,348.2 L204.7,324.5 L216.5,311.2 L228.4,285.3 L240.2,272.6 L252.1,296.8 L264.0,332.5 L275.8,340.1 L287.7,285.3 L299.6,266.5 L311.4,265.9 L323.3,241.5 L335.2,243.5 L347.0,186.6 L358.9,160.1 L370.8,172.2 L382.6,148.0 L394.5,244.4 L406.4,272.0 L418.2,253.2 L430.1,250.1 L442.0,239.2 L453.8,247.4 L465.7,266.3 L477.6,267.7 L489.4,289.0 L501.3,266.7 L513.1,248.3 L525.0,248.2 L536.9,234.1 L548.7,261.8 L560.6,293.7 L572.5,279.8 L584.3,269.4 L596.2,294.1 L608.1,362.8 L619.9,403.0 L631.8,371.8 L643.7,404.0 L655.5,398.9 L667.4,406.2 L679.3,387.6 L691.1,384.1 L703.0,359.5 L714.9,357.3 L726.7,348.0 L738.6,326.1 L750.4,353.6 L762.3,343.1 L774.2,325.7 L786.0,332.9 L797.9,288.6 L809.8,303.4 L821.6,246.0 L833.5,239.8 L845.4,258.9 L857.2,238.6 L869.1,239.2 L881.0,230.8 L892.8,204.8 L904.7,216.3 L916.6,179.0 L928.4,203.2 L940.3,234.7 L952.2,202.6 L964.0,197.0 L975.9,193.7 L987.8,185.1 L999.6,202.3 L1011.5,209.1 L1023.3,226.1 L1035.2,161.6 L1047.1,170.0 L1058.9,132.1 L1070.8,137.4 L1082.7,169.0 L1094.5,142.7 L1106.4,137.8 L1118.3,127.8 L1130.1,174.3 L1142.0,131.0" fill="none" stroke="#62d9ee" stroke-width="4" stroke-linecap="round" stroke-linejoin="round"/>
  <g>
    <line x1="1106.4" x2="1106.4" y1="100" y2="434" stroke="#18e59c" stroke-width="2" stroke-dasharray="7 7" opacity="0.8"/>
    <circle cx="1106.4" cy="138.8" r="8" fill="#071f1c" stroke="#18e59c" stroke-width="4"/>
    <text x="1030.0" y="172.8" text-anchor="middle" class="marker" fill="#18e59c">ENTRY | Jul 10 | $87.11</text>
  </g>
  
  <text x="86.0" y="472" text-anchor="middle" class="axis">Mar 6</text><text x="347.0" y="472" text-anchor="middle" class="axis">Apr 8</text><text x="619.9" y="472" text-anchor="middle" class="axis">May 11</text><text x="881.0" y="472" text-anchor="middle" class="axis">Jun 11</text><text x="1142.0" y="472" text-anchor="middle" class="axis">Jul 15</text>
  </svg>