<svg xmlns="http://www.w3.org/2000/svg" width="1200" height="500" viewBox="0 0 1200 500" role="img" aria-label="WFC underlying price from entry">
  <rect width="1200" height="500" fill="#071f1c"/>
  <style>.head{fill:#f4fff9;font:800 27px Georgia,serif}.sub{fill:#9fc4bb;font:14px Arial,sans-serif}.axis{fill:#8eaaa3;font:12px Arial,sans-serif}.marker{font:800 12px Arial,sans-serif}</style>
  <text x="86" y="40" class="head">WFC Underlying Price</text>
  <text x="86" y="66" class="sub">90 sessions | Entry marked; position remains open | Published option idea rank 3</text>
  <line x1="86" x2="1142" y1="100.0" y2="100.0" stroke="#1b4a42" stroke-width="1"/><text x="72" y="105.0" text-anchor="end" class="axis">$89.53</text><line x1="86" x2="1142" y1="183.5" y2="183.5" stroke="#1b4a42" stroke-width="1"/><text x="72" y="188.5" text-anchor="end" class="axis">$85.14</text><line x1="86" x2="1142" y1="267.0" y2="267.0" stroke="#1b4a42" stroke-width="1"/><text x="72" y="272.0" text-anchor="end" class="axis">$80.75</text><line x1="86" x2="1142" y1="350.5" y2="350.5" stroke="#1b4a42" stroke-width="1"/><text x="72" y="355.5" text-anchor="end" class="axis">$76.35</text><line x1="86" x2="1142" y1="434.0" y2="434.0" stroke="#1b4a42" stroke-width="1"/><text x="72" y="439.0" text-anchor="end" class="axis">$71.95</text>
  <path d="M86.0,393.2 L97.9,361.9 L109.7,352.8 L121.6,353.5 L133.5,349.7 L145.3,326.8 L157.2,313.8 L169.1,288.6 L180.9,276.2 L192.8,299.8 L204.7,334.5 L216.5,342.0 L228.4,288.6 L240.2,270.3 L252.1,269.8 L264.0,246.0 L275.8,247.9 L287.7,192.6 L299.6,166.8 L311.4,178.6 L323.3,155.0 L335.2,248.9 L347.0,275.6 L358.9,257.4 L370.8,254.4 L382.6,243.7 L394.5,251.7 L406.4,270.1 L418.2,271.5 L430.1,292.2 L442.0,270.5 L453.8,252.7 L465.7,252.5 L477.6,238.8 L489.4,265.8 L501.3,296.7 L513.1,283.2 L525.0,273.2 L536.9,297.1 L548.7,364.0 L560.6,403.1 L572.5,372.7 L584.3,404.1 L596.2,399.1 L608.1,406.2 L619.9,388.1 L631.8,384.7 L643.7,360.8 L655.5,358.7 L667.4,349.6 L679.3,328.3 L691.1,355.1 L703.0,344.8 L714.9,327.9 L726.7,334.9 L738.6,291.8 L750.4,306.2 L762.3,250.4 L774.2,244.3 L786.0,262.9 L797.9,243.2 L809.8,243.7 L821.6,235.6 L833.5,210.3 L845.4,221.5 L857.2,185.2 L869.1,208.8 L881.0,239.4 L892.8,208.2 L904.7,202.7 L916.6,199.5 L928.4,191.1 L940.3,207.8 L952.2,214.5 L964.0,231.0 L975.9,168.3 L987.8,176.5 L999.6,139.6 L1011.5,144.7 L1023.3,175.5 L1035.2,149.9 L1047.1,145.1 L1058.9,135.4 L1070.8,180.7 L1082.7,138.5 L1094.5,127.8 L1106.4,138.5 L1118.3,160.9 L1130.1,134.1 L1142.0,159.2 L1142.0,434.0 L86.0,434.0 Z" fill="#0f5949" opacity="0.28"/>
  <path d="M86.0,393.2 L97.9,361.9 L109.7,352.8 L121.6,353.5 L133.5,349.7 L145.3,326.8 L157.2,313.8 L169.1,288.6 L180.9,276.2 L192.8,299.8 L204.7,334.5 L216.5,342.0 L228.4,288.6 L240.2,270.3 L252.1,269.8 L264.0,246.0 L275.8,247.9 L287.7,192.6 L299.6,166.8 L311.4,178.6 L323.3,155.0 L335.2,248.9 L347.0,275.6 L358.9,257.4 L370.8,254.4 L382.6,243.7 L394.5,251.7 L406.4,270.1 L418.2,271.5 L430.1,292.2 L442.0,270.5 L453.8,252.7 L465.7,252.5 L477.6,238.8 L489.4,265.8 L501.3,296.7 L513.1,283.2 L525.0,273.2 L536.9,297.1 L548.7,364.0 L560.6,403.1 L572.5,372.7 L584.3,404.1 L596.2,399.1 L608.1,406.2 L619.9,388.1 L631.8,384.7 L643.7,360.8 L655.5,358.7 L667.4,349.6 L679.3,328.3 L691.1,355.1 L703.0,344.8 L714.9,327.9 L726.7,334.9 L738.6,291.8 L750.4,306.2 L762.3,250.4 L774.2,244.3 L786.0,262.9 L797.9,243.2 L809.8,243.7 L821.6,235.6 L833.5,210.3 L845.4,221.5 L857.2,185.2 L869.1,208.8 L881.0,239.4 L892.8,208.2 L904.7,202.7 L916.6,199.5 L928.4,191.1 L940.3,207.8 L952.2,214.5 L964.0,231.0 L975.9,168.3 L987.8,176.5 L999.6,139.6 L1011.5,144.7 L1023.3,175.5 L1035.2,149.9 L1047.1,145.1 L1058.9,135.4 L1070.8,180.7 L1082.7,138.5 L1094.5,127.8 L1106.4,138.5 L1118.3,160.9 L1130.1,134.1 L1142.0,159.2" fill="none" stroke="#62d9ee" stroke-width="4" stroke-linecap="round" stroke-linejoin="round"/>
  <g>
    <line x1="1047.1" x2="1047.1" y1="100" y2="434" stroke="#18e59c" stroke-width="2" stroke-dasharray="7 7" opacity="0.8"/>
    <circle cx="1047.1" cy="146.1" r="8" fill="#071f1c" stroke="#18e59c" stroke-width="4"/>
    <text x="1030.0" y="180.1" text-anchor="middle" class="marker" fill="#18e59c">ENTRY | Jul 10 | $87.11</text>
  </g>
  
  <text x="86.0" y="472" text-anchor="middle" class="axis">Mar 13</text><text x="347.0" y="472" text-anchor="middle" class="axis">Apr 15</text><text x="619.9" y="472" text-anchor="middle" class="axis">May 18</text><text x="881.0" y="472" text-anchor="middle" class="axis">Jun 18</text><text x="1142.0" y="472" text-anchor="middle" class="axis">Jul 22</text>
  </svg>