<svg xmlns="http://www.w3.org/2000/svg" width="1200" height="500" viewBox="0 0 1200 500" role="img" aria-label="WFC underlying price from entry">
  <rect width="1200" height="500" fill="#071f1c"/>
  <style>.head{fill:#f4fff9;font:800 27px Georgia,serif}.sub{fill:#9fc4bb;font:14px Arial,sans-serif}.axis{fill:#8eaaa3;font:12px Arial,sans-serif}.marker{font:800 12px Arial,sans-serif}</style>
  <text x="86" y="40" class="head">WFC Underlying Price</text>
  <text x="86" y="66" class="sub">90 sessions | Entry marked; position remains open | Published option idea rank 3</text>
  <line x1="86" x2="1142" y1="100.0" y2="100.0" stroke="#1b4a42" stroke-width="1"/><text x="72" y="105.0" text-anchor="end" class="axis">$89.09</text><line x1="86" x2="1142" y1="183.5" y2="183.5" stroke="#1b4a42" stroke-width="1"/><text x="72" y="188.5" text-anchor="end" class="axis">$84.82</text><line x1="86" x2="1142" y1="267.0" y2="267.0" stroke="#1b4a42" stroke-width="1"/><text x="72" y="272.0" text-anchor="end" class="axis">$80.55</text><line x1="86" x2="1142" y1="350.5" y2="350.5" stroke="#1b4a42" stroke-width="1"/><text x="72" y="355.5" text-anchor="end" class="axis">$76.27</text><line x1="86" x2="1142" y1="434.0" y2="434.0" stroke="#1b4a42" stroke-width="1"/><text x="72" y="439.0" text-anchor="end" class="axis">$72.00</text>
  <path d="M86.0,236.4 L97.9,269.4 L109.7,300.5 L121.6,310.8 L133.5,338.6 L145.3,370.4 L157.2,392.9 L169.1,360.7 L180.9,351.3 L192.8,352.1 L204.7,348.2 L216.5,324.5 L228.4,311.2 L240.2,285.3 L252.1,272.6 L264.0,296.8 L275.8,332.5 L287.7,340.1 L299.6,285.3 L311.4,266.5 L323.3,265.9 L335.2,241.5 L347.0,243.5 L358.9,186.6 L370.8,160.1 L382.6,172.2 L394.5,148.0 L406.4,244.4 L418.2,272.0 L430.1,253.2 L442.0,250.1 L453.8,239.2 L465.7,247.4 L477.6,266.3 L489.4,267.7 L501.3,289.0 L513.1,266.7 L525.0,248.3 L536.9,248.2 L548.7,234.1 L560.6,261.8 L572.5,293.7 L584.3,279.8 L596.2,269.4 L608.1,294.1 L619.9,362.8 L631.8,403.0 L643.7,371.8 L655.5,404.0 L667.4,398.9 L679.3,406.2 L691.1,387.6 L703.0,384.1 L714.9,359.5 L726.7,357.3 L738.6,348.0 L750.4,326.1 L762.3,353.6 L774.2,343.1 L786.0,325.7 L797.9,332.9 L809.8,288.6 L821.6,303.4 L833.5,246.0 L845.4,239.8 L857.2,258.9 L869.1,238.6 L881.0,239.2 L892.8,230.8 L904.7,204.8 L916.6,216.3 L928.4,179.0 L940.3,203.2 L952.2,234.7 L964.0,202.6 L975.9,197.0 L987.8,193.7 L999.6,185.1 L1011.5,202.3 L1023.3,209.1 L1035.2,226.1 L1047.1,161.6 L1058.9,170.0 L1070.8,132.1 L1082.7,137.4 L1094.5,169.0 L1106.4,142.7 L1118.3,137.8 L1130.1,127.8 L1142.0,174.3 L1142.0,434.0 L86.0,434.0 Z" fill="#0f5949" opacity="0.28"/>
  <path d="M86.0,236.4 L97.9,269.4 L109.7,300.5 L121.6,310.8 L133.5,338.6 L145.3,370.4 L157.2,392.9 L169.1,360.7 L180.9,351.3 L192.8,352.1 L204.7,348.2 L216.5,324.5 L228.4,311.2 L240.2,285.3 L252.1,272.6 L264.0,296.8 L275.8,332.5 L287.7,340.1 L299.6,285.3 L311.4,266.5 L323.3,265.9 L335.2,241.5 L347.0,243.5 L358.9,186.6 L370.8,160.1 L382.6,172.2 L394.5,148.0 L406.4,244.4 L418.2,272.0 L430.1,253.2 L442.0,250.1 L453.8,239.2 L465.7,247.4 L477.6,266.3 L489.4,267.7 L501.3,289.0 L513.1,266.7 L525.0,248.3 L536.9,248.2 L548.7,234.1 L560.6,261.8 L572.5,293.7 L584.3,279.8 L596.2,269.4 L608.1,294.1 L619.9,362.8 L631.8,403.0 L643.7,371.8 L655.5,404.0 L667.4,398.9 L679.3,406.2 L691.1,387.6 L703.0,384.1 L714.9,359.5 L726.7,357.3 L738.6,348.0 L750.4,326.1 L762.3,353.6 L774.2,343.1 L786.0,325.7 L797.9,332.9 L809.8,288.6 L821.6,303.4 L833.5,246.0 L845.4,239.8 L857.2,258.9 L869.1,238.6 L881.0,239.2 L892.8,230.8 L904.7,204.8 L916.6,216.3 L928.4,179.0 L940.3,203.2 L952.2,234.7 L964.0,202.6 L975.9,197.0 L987.8,193.7 L999.6,185.1 L1011.5,202.3 L1023.3,209.1 L1035.2,226.1 L1047.1,161.6 L1058.9,170.0 L1070.8,132.1 L1082.7,137.4 L1094.5,169.0 L1106.4,142.7 L1118.3,137.8 L1130.1,127.8 L1142.0,174.3" fill="none" stroke="#62d9ee" stroke-width="4" stroke-linecap="round" stroke-linejoin="round"/>
  <g>
    <line x1="1118.3" x2="1118.3" y1="100" y2="434" stroke="#18e59c" stroke-width="2" stroke-dasharray="7 7" opacity="0.8"/>
    <circle cx="1118.3" cy="138.8" r="8" fill="#071f1c" stroke="#18e59c" stroke-width="4"/>
    <text x="1030.0" y="172.8" text-anchor="middle" class="marker" fill="#18e59c">ENTRY | Jul 10 | $87.11</text>
  </g>
  
  <text x="86.0" y="472" text-anchor="middle" class="axis">Mar 5</text><text x="347.0" y="472" text-anchor="middle" class="axis">Apr 7</text><text x="619.9" y="472" text-anchor="middle" class="axis">May 8</text><text x="881.0" y="472" text-anchor="middle" class="axis">Jun 10</text><text x="1142.0" y="472" text-anchor="middle" class="axis">Jul 14</text>
  </svg>