<svg xmlns="http://www.w3.org/2000/svg" width="1200" height="500" viewBox="0 0 1200 500" role="img" aria-label="WFC underlying price from entry">
  <rect width="1200" height="500" fill="#071f1c"/>
  <style>.head{fill:#f4fff9;font:800 27px Georgia,serif}.sub{fill:#9fc4bb;font:14px Arial,sans-serif}.axis{fill:#8eaaa3;font:12px Arial,sans-serif}.marker{font:800 12px Arial,sans-serif}</style>
  <text x="86" y="40" class="head">WFC Underlying Price</text>
  <text x="86" y="66" class="sub">90 sessions | Entry marked; position remains open | Published option idea rank 3</text>
  <line x1="86" x2="1142" y1="100.0" y2="100.0" stroke="#1b4a42" stroke-width="1"/><text x="72" y="105.0" text-anchor="end" class="axis">$88.85</text><line x1="86" x2="1142" y1="183.5" y2="183.5" stroke="#1b4a42" stroke-width="1"/><text x="72" y="188.5" text-anchor="end" class="axis">$84.64</text><line x1="86" x2="1142" y1="267.0" y2="267.0" stroke="#1b4a42" stroke-width="1"/><text x="72" y="272.0" text-anchor="end" class="axis">$80.44</text><line x1="86" x2="1142" y1="350.5" y2="350.5" stroke="#1b4a42" stroke-width="1"/><text x="72" y="355.5" text-anchor="end" class="axis">$76.23</text><line x1="86" x2="1142" y1="434.0" y2="434.0" stroke="#1b4a42" stroke-width="1"/><text x="72" y="439.0" text-anchor="end" class="axis">$72.02</text>
  <path d="M86.0,225.4 L97.9,197.7 L109.7,233.8 L121.6,267.3 L133.5,298.8 L145.3,309.4 L157.2,337.5 L169.1,369.9 L180.9,392.7 L192.8,359.9 L204.7,350.4 L216.5,351.2 L228.4,347.2 L240.2,323.2 L252.1,309.8 L264.0,283.4 L275.8,270.5 L287.7,295.1 L299.6,331.4 L311.4,339.1 L323.3,283.4 L335.2,264.3 L347.0,263.7 L358.9,238.9 L370.8,240.9 L382.6,183.2 L394.5,156.2 L406.4,168.5 L418.2,143.9 L430.1,241.9 L442.0,269.9 L453.8,250.8 L465.7,247.7 L477.6,236.5 L489.4,244.9 L501.3,264.1 L513.1,265.5 L525.0,287.1 L536.9,264.5 L548.7,245.9 L560.6,245.7 L572.5,231.4 L584.3,259.6 L596.2,291.9 L608.1,277.8 L619.9,267.3 L631.8,292.3 L643.7,362.1 L655.5,403.0 L667.4,371.3 L679.3,404.0 L691.1,398.8 L703.0,406.2 L714.9,387.3 L726.7,383.7 L738.6,358.8 L750.4,356.6 L762.3,347.0 L774.2,324.8 L786.0,352.8 L797.9,342.1 L809.8,324.4 L821.6,331.8 L833.5,286.7 L845.4,301.8 L857.2,243.5 L869.1,237.1 L881.0,256.6 L892.8,236.0 L904.7,236.5 L916.6,228.0 L928.4,201.6 L940.3,213.3 L952.2,175.4 L964.0,200.0 L975.9,232.0 L987.8,199.5 L999.6,193.7 L1011.5,190.3 L1023.3,181.6 L1035.2,199.1 L1047.1,206.0 L1058.9,223.3 L1070.8,157.8 L1082.7,166.3 L1094.5,127.8 L1106.4,133.2 L1118.3,165.3 L1130.1,138.5 L1142.0,133.6 L1142.0,434.0 L86.0,434.0 Z" fill="#0f5949" opacity="0.28"/>
  <path d="M86.0,225.4 L97.9,197.7 L109.7,233.8 L121.6,267.3 L133.5,298.8 L145.3,309.4 L157.2,337.5 L169.1,369.9 L180.9,392.7 L192.8,359.9 L204.7,350.4 L216.5,351.2 L228.4,347.2 L240.2,323.2 L252.1,309.8 L264.0,283.4 L275.8,270.5 L287.7,295.1 L299.6,331.4 L311.4,339.1 L323.3,283.4 L335.2,264.3 L347.0,263.7 L358.9,238.9 L370.8,240.9 L382.6,183.2 L394.5,156.2 L406.4,168.5 L418.2,143.9 L430.1,241.9 L442.0,269.9 L453.8,250.8 L465.7,247.7 L477.6,236.5 L489.4,244.9 L501.3,264.1 L513.1,265.5 L525.0,287.1 L536.9,264.5 L548.7,245.9 L560.6,245.7 L572.5,231.4 L584.3,259.6 L596.2,291.9 L608.1,277.8 L619.9,267.3 L631.8,292.3 L643.7,362.1 L655.5,403.0 L667.4,371.3 L679.3,404.0 L691.1,398.8 L703.0,406.2 L714.9,387.3 L726.7,383.7 L738.6,358.8 L750.4,356.6 L762.3,347.0 L774.2,324.8 L786.0,352.8 L797.9,342.1 L809.8,324.4 L821.6,331.8 L833.5,286.7 L845.4,301.8 L857.2,243.5 L869.1,237.1 L881.0,256.6 L892.8,236.0 L904.7,236.5 L916.6,228.0 L928.4,201.6 L940.3,213.3 L952.2,175.4 L964.0,200.0 L975.9,232.0 L987.8,199.5 L999.6,193.7 L1011.5,190.3 L1023.3,181.6 L1035.2,199.1 L1047.1,206.0 L1058.9,223.3 L1070.8,157.8 L1082.7,166.3 L1094.5,127.8 L1106.4,133.2 L1118.3,165.3 L1130.1,138.5 L1142.0,133.6" fill="none" stroke="#62d9ee" stroke-width="4" stroke-linecap="round" stroke-linejoin="round"/>
  <g>
    <line x1="1142.0" x2="1142.0" y1="100" y2="434" stroke="#18e59c" stroke-width="2" stroke-dasharray="7 7" opacity="0.8"/>
    <circle cx="1142.0" cy="134.6" r="8" fill="#071f1c" stroke="#18e59c" stroke-width="4"/>
    <text x="1030.0" y="168.6" text-anchor="middle" class="marker" fill="#18e59c">ENTRY | Jul 10 | $87.11</text>
  </g>
  
  <text x="86.0" y="472" text-anchor="middle" class="axis">Mar 3</text><text x="347.0" y="472" text-anchor="middle" class="axis">Apr 2</text><text x="619.9" y="472" text-anchor="middle" class="axis">May 6</text><text x="881.0" y="472" text-anchor="middle" class="axis">Jun 8</text><text x="1142.0" y="472" text-anchor="middle" class="axis">Jul 10</text>
  </svg>