<svg xmlns="http://www.w3.org/2000/svg" width="1200" height="500" viewBox="0 0 1200 500" role="img" aria-label="WFC underlying price from entry">
  <rect width="1200" height="500" fill="#071f1c"/>
  <style>.head{fill:#f4fff9;font:800 27px Georgia,serif}.sub{fill:#9fc4bb;font:14px Arial,sans-serif}.axis{fill:#8eaaa3;font:12px Arial,sans-serif}.marker{font:800 12px Arial,sans-serif}</style>
  <text x="86" y="40" class="head">WFC Underlying Price</text>
  <text x="86" y="66" class="sub">90 sessions | Entry marked; position remains open | Published option idea rank 3</text>
  <line x1="86" x2="1142" y1="100.0" y2="100.0" stroke="#1b4a42" stroke-width="1"/><text x="72" y="105.0" text-anchor="end" class="axis">$89.53</text><line x1="86" x2="1142" y1="183.5" y2="183.5" stroke="#1b4a42" stroke-width="1"/><text x="72" y="188.5" text-anchor="end" class="axis">$85.14</text><line x1="86" x2="1142" y1="267.0" y2="267.0" stroke="#1b4a42" stroke-width="1"/><text x="72" y="272.0" text-anchor="end" class="axis">$80.75</text><line x1="86" x2="1142" y1="350.5" y2="350.5" stroke="#1b4a42" stroke-width="1"/><text x="72" y="355.5" text-anchor="end" class="axis">$76.35</text><line x1="86" x2="1142" y1="434.0" y2="434.0" stroke="#1b4a42" stroke-width="1"/><text x="72" y="439.0" text-anchor="end" class="axis">$71.95</text>
  <path d="M86.0,303.4 L97.9,313.5 L109.7,340.4 L121.6,371.4 L133.5,393.2 L145.3,361.9 L157.2,352.8 L169.1,353.5 L180.9,349.7 L192.8,326.8 L204.7,313.8 L216.5,288.6 L228.4,276.2 L240.2,299.8 L252.1,334.5 L264.0,342.0 L275.8,288.6 L287.7,270.3 L299.6,269.8 L311.4,246.0 L323.3,247.9 L335.2,192.6 L347.0,166.8 L358.9,178.6 L370.8,155.0 L382.6,248.9 L394.5,275.6 L406.4,257.4 L418.2,254.4 L430.1,243.7 L442.0,251.7 L453.8,270.1 L465.7,271.5 L477.6,292.2 L489.4,270.5 L501.3,252.7 L513.1,252.5 L525.0,238.8 L536.9,265.8 L548.7,296.7 L560.6,283.2 L572.5,273.2 L584.3,297.1 L596.2,364.0 L608.1,403.1 L619.9,372.7 L631.8,404.1 L643.7,399.1 L655.5,406.2 L667.4,388.1 L679.3,384.7 L691.1,360.8 L703.0,358.7 L714.9,349.6 L726.7,328.3 L738.6,355.1 L750.4,344.8 L762.3,327.9 L774.2,334.9 L786.0,291.8 L797.9,306.2 L809.8,250.4 L821.6,244.3 L833.5,262.9 L845.4,243.2 L857.2,243.7 L869.1,235.6 L881.0,210.3 L892.8,221.5 L904.7,185.2 L916.6,208.8 L928.4,239.4 L940.3,208.2 L952.2,202.7 L964.0,199.5 L975.9,191.1 L987.8,207.8 L999.6,214.5 L1011.5,231.0 L1023.3,168.3 L1035.2,176.5 L1047.1,139.6 L1058.9,144.7 L1070.8,175.5 L1082.7,149.9 L1094.5,145.1 L1106.4,135.4 L1118.3,180.7 L1130.1,138.5 L1142.0,127.8 L1142.0,434.0 L86.0,434.0 Z" fill="#0f5949" opacity="0.28"/>
  <path d="M86.0,303.4 L97.9,313.5 L109.7,340.4 L121.6,371.4 L133.5,393.2 L145.3,361.9 L157.2,352.8 L169.1,353.5 L180.9,349.7 L192.8,326.8 L204.7,313.8 L216.5,288.6 L228.4,276.2 L240.2,299.8 L252.1,334.5 L264.0,342.0 L275.8,288.6 L287.7,270.3 L299.6,269.8 L311.4,246.0 L323.3,247.9 L335.2,192.6 L347.0,166.8 L358.9,178.6 L370.8,155.0 L382.6,248.9 L394.5,275.6 L406.4,257.4 L418.2,254.4 L430.1,243.7 L442.0,251.7 L453.8,270.1 L465.7,271.5 L477.6,292.2 L489.4,270.5 L501.3,252.7 L513.1,252.5 L525.0,238.8 L536.9,265.8 L548.7,296.7 L560.6,283.2 L572.5,273.2 L584.3,297.1 L596.2,364.0 L608.1,403.1 L619.9,372.7 L631.8,404.1 L643.7,399.1 L655.5,406.2 L667.4,388.1 L679.3,384.7 L691.1,360.8 L703.0,358.7 L714.9,349.6 L726.7,328.3 L738.6,355.1 L750.4,344.8 L762.3,327.9 L774.2,334.9 L786.0,291.8 L797.9,306.2 L809.8,250.4 L821.6,244.3 L833.5,262.9 L845.4,243.2 L857.2,243.7 L869.1,235.6 L881.0,210.3 L892.8,221.5 L904.7,185.2 L916.6,208.8 L928.4,239.4 L940.3,208.2 L952.2,202.7 L964.0,199.5 L975.9,191.1 L987.8,207.8 L999.6,214.5 L1011.5,231.0 L1023.3,168.3 L1035.2,176.5 L1047.1,139.6 L1058.9,144.7 L1070.8,175.5 L1082.7,149.9 L1094.5,145.1 L1106.4,135.4 L1118.3,180.7 L1130.1,138.5 L1142.0,127.8" fill="none" stroke="#62d9ee" stroke-width="4" stroke-linecap="round" stroke-linejoin="round"/>
  <g>
    <line x1="1094.5" x2="1094.5" y1="100" y2="434" stroke="#18e59c" stroke-width="2" stroke-dasharray="7 7" opacity="0.8"/>
    <circle cx="1094.5" cy="146.1" r="8" fill="#071f1c" stroke="#18e59c" stroke-width="4"/>
    <text x="1030.0" y="180.1" text-anchor="middle" class="marker" fill="#18e59c">ENTRY | Jul 10 | $87.11</text>
  </g>
  
  <text x="86.0" y="472" text-anchor="middle" class="axis">Mar 9</text><text x="347.0" y="472" text-anchor="middle" class="axis">Apr 9</text><text x="619.9" y="472" text-anchor="middle" class="axis">May 12</text><text x="881.0" y="472" text-anchor="middle" class="axis">Jun 12</text><text x="1142.0" y="472" text-anchor="middle" class="axis">Jul 16</text>
  </svg>