<svg xmlns="http://www.w3.org/2000/svg" width="1200" height="500" viewBox="0 0 1200 500" role="img" aria-label="WFC underlying price from entry">
  <rect width="1200" height="500" fill="#071f1c"/>
  <style>.head{fill:#f4fff9;font:800 27px Georgia,serif}.sub{fill:#9fc4bb;font:14px Arial,sans-serif}.axis{fill:#8eaaa3;font:12px Arial,sans-serif}.marker{font:800 12px Arial,sans-serif}</style>
  <text x="86" y="40" class="head">WFC Underlying Price</text>
  <text x="86" y="66" class="sub">90 sessions | Entry marked; position remains open | Published option idea rank 3</text>
  <line x1="86" x2="1142" y1="100.0" y2="100.0" stroke="#1b4a42" stroke-width="1"/><text x="72" y="105.0" text-anchor="end" class="axis">$89.53</text><line x1="86" x2="1142" y1="183.5" y2="183.5" stroke="#1b4a42" stroke-width="1"/><text x="72" y="188.5" text-anchor="end" class="axis">$85.14</text><line x1="86" x2="1142" y1="267.0" y2="267.0" stroke="#1b4a42" stroke-width="1"/><text x="72" y="272.0" text-anchor="end" class="axis">$80.75</text><line x1="86" x2="1142" y1="350.5" y2="350.5" stroke="#1b4a42" stroke-width="1"/><text x="72" y="355.5" text-anchor="end" class="axis">$76.35</text><line x1="86" x2="1142" y1="434.0" y2="434.0" stroke="#1b4a42" stroke-width="1"/><text x="72" y="439.0" text-anchor="end" class="axis">$71.95</text>
  <path d="M86.0,371.4 L97.9,393.2 L109.7,361.9 L121.6,352.8 L133.5,353.5 L145.3,349.7 L157.2,326.8 L169.1,313.8 L180.9,288.6 L192.8,276.2 L204.7,299.8 L216.5,334.5 L228.4,342.0 L240.2,288.6 L252.1,270.3 L264.0,269.8 L275.8,246.0 L287.7,247.9 L299.6,192.6 L311.4,166.8 L323.3,178.6 L335.2,155.0 L347.0,248.9 L358.9,275.6 L370.8,257.4 L382.6,254.4 L394.5,243.7 L406.4,251.7 L418.2,270.1 L430.1,271.5 L442.0,292.2 L453.8,270.5 L465.7,252.7 L477.6,252.5 L489.4,238.8 L501.3,265.8 L513.1,296.7 L525.0,283.2 L536.9,273.2 L548.7,297.1 L560.6,364.0 L572.5,403.1 L584.3,372.7 L596.2,404.1 L608.1,399.1 L619.9,406.2 L631.8,388.1 L643.7,384.7 L655.5,360.8 L667.4,358.7 L679.3,349.6 L691.1,328.3 L703.0,355.1 L714.9,344.8 L726.7,327.9 L738.6,334.9 L750.4,291.8 L762.3,306.2 L774.2,250.4 L786.0,244.3 L797.9,262.9 L809.8,243.2 L821.6,243.7 L833.5,235.6 L845.4,210.3 L857.2,221.5 L869.1,185.2 L881.0,208.8 L892.8,239.4 L904.7,208.2 L916.6,202.7 L928.4,199.5 L940.3,191.1 L952.2,207.8 L964.0,214.5 L975.9,231.0 L987.8,168.3 L999.6,176.5 L1011.5,139.6 L1023.3,144.7 L1035.2,175.5 L1047.1,149.9 L1058.9,145.1 L1070.8,135.4 L1082.7,180.7 L1094.5,138.5 L1106.4,127.8 L1118.3,138.5 L1130.1,160.9 L1142.0,134.1 L1142.0,434.0 L86.0,434.0 Z" fill="#0f5949" opacity="0.28"/>
  <path d="M86.0,371.4 L97.9,393.2 L109.7,361.9 L121.6,352.8 L133.5,353.5 L145.3,349.7 L157.2,326.8 L169.1,313.8 L180.9,288.6 L192.8,276.2 L204.7,299.8 L216.5,334.5 L228.4,342.0 L240.2,288.6 L252.1,270.3 L264.0,269.8 L275.8,246.0 L287.7,247.9 L299.6,192.6 L311.4,166.8 L323.3,178.6 L335.2,155.0 L347.0,248.9 L358.9,275.6 L370.8,257.4 L382.6,254.4 L394.5,243.7 L406.4,251.7 L418.2,270.1 L430.1,271.5 L442.0,292.2 L453.8,270.5 L465.7,252.7 L477.6,252.5 L489.4,238.8 L501.3,265.8 L513.1,296.7 L525.0,283.2 L536.9,273.2 L548.7,297.1 L560.6,364.0 L572.5,403.1 L584.3,372.7 L596.2,404.1 L608.1,399.1 L619.9,406.2 L631.8,388.1 L643.7,384.7 L655.5,360.8 L667.4,358.7 L679.3,349.6 L691.1,328.3 L703.0,355.1 L714.9,344.8 L726.7,327.9 L738.6,334.9 L750.4,291.8 L762.3,306.2 L774.2,250.4 L786.0,244.3 L797.9,262.9 L809.8,243.2 L821.6,243.7 L833.5,235.6 L845.4,210.3 L857.2,221.5 L869.1,185.2 L881.0,208.8 L892.8,239.4 L904.7,208.2 L916.6,202.7 L928.4,199.5 L940.3,191.1 L952.2,207.8 L964.0,214.5 L975.9,231.0 L987.8,168.3 L999.6,176.5 L1011.5,139.6 L1023.3,144.7 L1035.2,175.5 L1047.1,149.9 L1058.9,145.1 L1070.8,135.4 L1082.7,180.7 L1094.5,138.5 L1106.4,127.8 L1118.3,138.5 L1130.1,160.9 L1142.0,134.1" fill="none" stroke="#62d9ee" stroke-width="4" stroke-linecap="round" stroke-linejoin="round"/>
  <g>
    <line x1="1058.9" x2="1058.9" y1="100" y2="434" stroke="#18e59c" stroke-width="2" stroke-dasharray="7 7" opacity="0.8"/>
    <circle cx="1058.9" cy="146.1" r="8" fill="#071f1c" stroke="#18e59c" stroke-width="4"/>
    <text x="1030.0" y="180.1" text-anchor="middle" class="marker" fill="#18e59c">ENTRY | Jul 10 | $87.11</text>
  </g>
  
  <text x="86.0" y="472" text-anchor="middle" class="axis">Mar 12</text><text x="347.0" y="472" text-anchor="middle" class="axis">Apr 14</text><text x="619.9" y="472" text-anchor="middle" class="axis">May 15</text><text x="881.0" y="472" text-anchor="middle" class="axis">Jun 17</text><text x="1142.0" y="472" text-anchor="middle" class="axis">Jul 21</text>
  </svg>