<svg xmlns="http://www.w3.org/2000/svg" width="1200" height="500" viewBox="0 0 1200 500" role="img" aria-label="WFC underlying price from entry">
  <rect width="1200" height="500" fill="#071f1c"/>
  <style>.head{fill:#f4fff9;font:800 27px Georgia,serif}.sub{fill:#9fc4bb;font:14px Arial,sans-serif}.axis{fill:#8eaaa3;font:12px Arial,sans-serif}.marker{font:800 12px Arial,sans-serif}</style>
  <text x="86" y="40" class="head">WFC Underlying Price</text>
  <text x="86" y="66" class="sub">90 sessions | Entry marked; position remains open | Published option idea rank 3</text>
  <line x1="86" x2="1142" y1="100.0" y2="100.0" stroke="#1b4a42" stroke-width="1"/><text x="72" y="105.0" text-anchor="end" class="axis">$89.53</text><line x1="86" x2="1142" y1="183.5" y2="183.5" stroke="#1b4a42" stroke-width="1"/><text x="72" y="188.5" text-anchor="end" class="axis">$85.14</text><line x1="86" x2="1142" y1="267.0" y2="267.0" stroke="#1b4a42" stroke-width="1"/><text x="72" y="272.0" text-anchor="end" class="axis">$80.75</text><line x1="86" x2="1142" y1="350.5" y2="350.5" stroke="#1b4a42" stroke-width="1"/><text x="72" y="355.5" text-anchor="end" class="axis">$76.35</text><line x1="86" x2="1142" y1="434.0" y2="434.0" stroke="#1b4a42" stroke-width="1"/><text x="72" y="439.0" text-anchor="end" class="axis">$71.95</text>
  <path d="M86.0,340.4 L97.9,371.4 L109.7,393.2 L121.6,361.9 L133.5,352.8 L145.3,353.5 L157.2,349.7 L169.1,326.8 L180.9,313.8 L192.8,288.6 L204.7,276.2 L216.5,299.8 L228.4,334.5 L240.2,342.0 L252.1,288.6 L264.0,270.3 L275.8,269.8 L287.7,246.0 L299.6,247.9 L311.4,192.6 L323.3,166.8 L335.2,178.6 L347.0,155.0 L358.9,248.9 L370.8,275.6 L382.6,257.4 L394.5,254.4 L406.4,243.7 L418.2,251.7 L430.1,270.1 L442.0,271.5 L453.8,292.2 L465.7,270.5 L477.6,252.7 L489.4,252.5 L501.3,238.8 L513.1,265.8 L525.0,296.7 L536.9,283.2 L548.7,273.2 L560.6,297.1 L572.5,364.0 L584.3,403.1 L596.2,372.7 L608.1,404.1 L619.9,399.1 L631.8,406.2 L643.7,388.1 L655.5,384.7 L667.4,360.8 L679.3,358.7 L691.1,349.6 L703.0,328.3 L714.9,355.1 L726.7,344.8 L738.6,327.9 L750.4,334.9 L762.3,291.8 L774.2,306.2 L786.0,250.4 L797.9,244.3 L809.8,262.9 L821.6,243.2 L833.5,243.7 L845.4,235.6 L857.2,210.3 L869.1,221.5 L881.0,185.2 L892.8,208.8 L904.7,239.4 L916.6,208.2 L928.4,202.7 L940.3,199.5 L952.2,191.1 L964.0,207.8 L975.9,214.5 L987.8,231.0 L999.6,168.3 L1011.5,176.5 L1023.3,139.6 L1035.2,144.7 L1047.1,175.5 L1058.9,149.9 L1070.8,145.1 L1082.7,135.4 L1094.5,180.7 L1106.4,138.5 L1118.3,127.8 L1130.1,138.5 L1142.0,160.9 L1142.0,434.0 L86.0,434.0 Z" fill="#0f5949" opacity="0.28"/>
  <path d="M86.0,340.4 L97.9,371.4 L109.7,393.2 L121.6,361.9 L133.5,352.8 L145.3,353.5 L157.2,349.7 L169.1,326.8 L180.9,313.8 L192.8,288.6 L204.7,276.2 L216.5,299.8 L228.4,334.5 L240.2,342.0 L252.1,288.6 L264.0,270.3 L275.8,269.8 L287.7,246.0 L299.6,247.9 L311.4,192.6 L323.3,166.8 L335.2,178.6 L347.0,155.0 L358.9,248.9 L370.8,275.6 L382.6,257.4 L394.5,254.4 L406.4,243.7 L418.2,251.7 L430.1,270.1 L442.0,271.5 L453.8,292.2 L465.7,270.5 L477.6,252.7 L489.4,252.5 L501.3,238.8 L513.1,265.8 L525.0,296.7 L536.9,283.2 L548.7,273.2 L560.6,297.1 L572.5,364.0 L584.3,403.1 L596.2,372.7 L608.1,404.1 L619.9,399.1 L631.8,406.2 L643.7,388.1 L655.5,384.7 L667.4,360.8 L679.3,358.7 L691.1,349.6 L703.0,328.3 L714.9,355.1 L726.7,344.8 L738.6,327.9 L750.4,334.9 L762.3,291.8 L774.2,306.2 L786.0,250.4 L797.9,244.3 L809.8,262.9 L821.6,243.2 L833.5,243.7 L845.4,235.6 L857.2,210.3 L869.1,221.5 L881.0,185.2 L892.8,208.8 L904.7,239.4 L916.6,208.2 L928.4,202.7 L940.3,199.5 L952.2,191.1 L964.0,207.8 L975.9,214.5 L987.8,231.0 L999.6,168.3 L1011.5,176.5 L1023.3,139.6 L1035.2,144.7 L1047.1,175.5 L1058.9,149.9 L1070.8,145.1 L1082.7,135.4 L1094.5,180.7 L1106.4,138.5 L1118.3,127.8 L1130.1,138.5 L1142.0,160.9" fill="none" stroke="#62d9ee" stroke-width="4" stroke-linecap="round" stroke-linejoin="round"/>
  <g>
    <line x1="1070.8" x2="1070.8" y1="100" y2="434" stroke="#18e59c" stroke-width="2" stroke-dasharray="7 7" opacity="0.8"/>
    <circle cx="1070.8" cy="146.1" r="8" fill="#071f1c" stroke="#18e59c" stroke-width="4"/>
    <text x="1030.0" y="180.1" text-anchor="middle" class="marker" fill="#18e59c">ENTRY | Jul 10 | $87.11</text>
  </g>
  
  <text x="86.0" y="472" text-anchor="middle" class="axis">Mar 11</text><text x="347.0" y="472" text-anchor="middle" class="axis">Apr 13</text><text x="619.9" y="472" text-anchor="middle" class="axis">May 14</text><text x="881.0" y="472" text-anchor="middle" class="axis">Jun 16</text><text x="1142.0" y="472" text-anchor="middle" class="axis">Jul 20</text>
  </svg>