<svg xmlns="http://www.w3.org/2000/svg" width="1200" height="500" viewBox="0 0 1200 500" role="img" aria-label="WFC underlying price from entry">
  <rect width="1200" height="500" fill="#071f1c"/>
  <style>.head{fill:#f4fff9;font:800 27px Georgia,serif}.sub{fill:#9fc4bb;font:14px Arial,sans-serif}.axis{fill:#8eaaa3;font:12px Arial,sans-serif}.marker{font:800 12px Arial,sans-serif}</style>
  <text x="86" y="40" class="head">WFC Underlying Price</text>
  <text x="86" y="66" class="sub">90 sessions | Entry marked; position remains open | Published option idea rank 3</text>
  <line x1="86" x2="1142" y1="100.0" y2="100.0" stroke="#1b4a42" stroke-width="1"/><text x="72" y="105.0" text-anchor="end" class="axis">$89.53</text><line x1="86" x2="1142" y1="183.5" y2="183.5" stroke="#1b4a42" stroke-width="1"/><text x="72" y="188.5" text-anchor="end" class="axis">$85.14</text><line x1="86" x2="1142" y1="267.0" y2="267.0" stroke="#1b4a42" stroke-width="1"/><text x="72" y="272.0" text-anchor="end" class="axis">$80.75</text><line x1="86" x2="1142" y1="350.5" y2="350.5" stroke="#1b4a42" stroke-width="1"/><text x="72" y="355.5" text-anchor="end" class="axis">$76.35</text><line x1="86" x2="1142" y1="434.0" y2="434.0" stroke="#1b4a42" stroke-width="1"/><text x="72" y="439.0" text-anchor="end" class="axis">$71.95</text>
  <path d="M86.0,361.9 L97.9,352.8 L109.7,353.5 L121.6,349.7 L133.5,326.8 L145.3,313.8 L157.2,288.6 L169.1,276.2 L180.9,299.8 L192.8,334.5 L204.7,342.0 L216.5,288.6 L228.4,270.3 L240.2,269.8 L252.1,246.0 L264.0,247.9 L275.8,192.6 L287.7,166.8 L299.6,178.6 L311.4,155.0 L323.3,248.9 L335.2,275.6 L347.0,257.4 L358.9,254.4 L370.8,243.7 L382.6,251.7 L394.5,270.1 L406.4,271.5 L418.2,292.2 L430.1,270.5 L442.0,252.7 L453.8,252.5 L465.7,238.8 L477.6,265.8 L489.4,296.7 L501.3,283.2 L513.1,273.2 L525.0,297.1 L536.9,364.0 L548.7,403.1 L560.6,372.7 L572.5,404.1 L584.3,399.1 L596.2,406.2 L608.1,388.1 L619.9,384.7 L631.8,360.8 L643.7,358.7 L655.5,349.6 L667.4,328.3 L679.3,355.1 L691.1,344.8 L703.0,327.9 L714.9,334.9 L726.7,291.8 L738.6,306.2 L750.4,250.4 L762.3,244.3 L774.2,262.9 L786.0,243.2 L797.9,243.7 L809.8,235.6 L821.6,210.3 L833.5,221.5 L845.4,185.2 L857.2,208.8 L869.1,239.4 L881.0,208.2 L892.8,202.7 L904.7,199.5 L916.6,191.1 L928.4,207.8 L940.3,214.5 L952.2,231.0 L964.0,168.3 L975.9,176.5 L987.8,139.6 L999.6,144.7 L1011.5,175.5 L1023.3,149.9 L1035.2,145.1 L1047.1,135.4 L1058.9,180.7 L1070.8,138.5 L1082.7,127.8 L1094.5,138.5 L1106.4,160.9 L1118.3,134.1 L1130.1,159.2 L1142.0,163.6 L1142.0,434.0 L86.0,434.0 Z" fill="#0f5949" opacity="0.28"/>
  <path d="M86.0,361.9 L97.9,352.8 L109.7,353.5 L121.6,349.7 L133.5,326.8 L145.3,313.8 L157.2,288.6 L169.1,276.2 L180.9,299.8 L192.8,334.5 L204.7,342.0 L216.5,288.6 L228.4,270.3 L240.2,269.8 L252.1,246.0 L264.0,247.9 L275.8,192.6 L287.7,166.8 L299.6,178.6 L311.4,155.0 L323.3,248.9 L335.2,275.6 L347.0,257.4 L358.9,254.4 L370.8,243.7 L382.6,251.7 L394.5,270.1 L406.4,271.5 L418.2,292.2 L430.1,270.5 L442.0,252.7 L453.8,252.5 L465.7,238.8 L477.6,265.8 L489.4,296.7 L501.3,283.2 L513.1,273.2 L525.0,297.1 L536.9,364.0 L548.7,403.1 L560.6,372.7 L572.5,404.1 L584.3,399.1 L596.2,406.2 L608.1,388.1 L619.9,384.7 L631.8,360.8 L643.7,358.7 L655.5,349.6 L667.4,328.3 L679.3,355.1 L691.1,344.8 L703.0,327.9 L714.9,334.9 L726.7,291.8 L738.6,306.2 L750.4,250.4 L762.3,244.3 L774.2,262.9 L786.0,243.2 L797.9,243.7 L809.8,235.6 L821.6,210.3 L833.5,221.5 L845.4,185.2 L857.2,208.8 L869.1,239.4 L881.0,208.2 L892.8,202.7 L904.7,199.5 L916.6,191.1 L928.4,207.8 L940.3,214.5 L952.2,231.0 L964.0,168.3 L975.9,176.5 L987.8,139.6 L999.6,144.7 L1011.5,175.5 L1023.3,149.9 L1035.2,145.1 L1047.1,135.4 L1058.9,180.7 L1070.8,138.5 L1082.7,127.8 L1094.5,138.5 L1106.4,160.9 L1118.3,134.1 L1130.1,159.2 L1142.0,163.6" fill="none" stroke="#62d9ee" stroke-width="4" stroke-linecap="round" stroke-linejoin="round"/>
  <g>
    <line x1="1035.2" x2="1035.2" y1="100" y2="434" stroke="#18e59c" stroke-width="2" stroke-dasharray="7 7" opacity="0.8"/>
    <circle cx="1035.2" cy="146.1" r="8" fill="#071f1c" stroke="#18e59c" stroke-width="4"/>
    <text x="1030.0" y="180.1" text-anchor="middle" class="marker" fill="#18e59c">ENTRY | Jul 10 | $87.11</text>
  </g>
  
  <text x="86.0" y="472" text-anchor="middle" class="axis">Mar 16</text><text x="347.0" y="472" text-anchor="middle" class="axis">Apr 16</text><text x="619.9" y="472" text-anchor="middle" class="axis">May 19</text><text x="881.0" y="472" text-anchor="middle" class="axis">Jun 22</text><text x="1142.0" y="472" text-anchor="middle" class="axis">Jul 23</text>
  </svg>