<svg xmlns="http://www.w3.org/2000/svg" width="1200" height="500" viewBox="0 0 1200 500" role="img" aria-label="WFC underlying price from entry">
  <rect width="1200" height="500" fill="#071f1c"/>
  <style>.head{fill:#f4fff9;font:800 27px Georgia,serif}.sub{fill:#9fc4bb;font:14px Arial,sans-serif}.axis{fill:#8eaaa3;font:12px Arial,sans-serif}.marker{font:800 12px Arial,sans-serif}</style>
  <text x="86" y="40" class="head">WFC Underlying Price</text>
  <text x="86" y="66" class="sub">90 sessions | Entry marked; position remains open | Published option idea rank 3</text>
  <line x1="86" x2="1142" y1="100.0" y2="100.0" stroke="#1b4a42" stroke-width="1"/><text x="72" y="105.0" text-anchor="end" class="axis">$89.53</text><line x1="86" x2="1142" y1="183.5" y2="183.5" stroke="#1b4a42" stroke-width="1"/><text x="72" y="188.5" text-anchor="end" class="axis">$85.14</text><line x1="86" x2="1142" y1="267.0" y2="267.0" stroke="#1b4a42" stroke-width="1"/><text x="72" y="272.0" text-anchor="end" class="axis">$80.75</text><line x1="86" x2="1142" y1="350.5" y2="350.5" stroke="#1b4a42" stroke-width="1"/><text x="72" y="355.5" text-anchor="end" class="axis">$76.35</text><line x1="86" x2="1142" y1="434.0" y2="434.0" stroke="#1b4a42" stroke-width="1"/><text x="72" y="439.0" text-anchor="end" class="axis">$71.95</text>
  <path d="M86.0,313.5 L97.9,340.4 L109.7,371.4 L121.6,393.2 L133.5,361.9 L145.3,352.8 L157.2,353.5 L169.1,349.7 L180.9,326.8 L192.8,313.8 L204.7,288.6 L216.5,276.2 L228.4,299.8 L240.2,334.5 L252.1,342.0 L264.0,288.6 L275.8,270.3 L287.7,269.8 L299.6,246.0 L311.4,247.9 L323.3,192.6 L335.2,166.8 L347.0,178.6 L358.9,155.0 L370.8,248.9 L382.6,275.6 L394.5,257.4 L406.4,254.4 L418.2,243.7 L430.1,251.7 L442.0,270.1 L453.8,271.5 L465.7,292.2 L477.6,270.5 L489.4,252.7 L501.3,252.5 L513.1,238.8 L525.0,265.8 L536.9,296.7 L548.7,283.2 L560.6,273.2 L572.5,297.1 L584.3,364.0 L596.2,403.1 L608.1,372.7 L619.9,404.1 L631.8,399.1 L643.7,406.2 L655.5,388.1 L667.4,384.7 L679.3,360.8 L691.1,358.7 L703.0,349.6 L714.9,328.3 L726.7,355.1 L738.6,344.8 L750.4,327.9 L762.3,334.9 L774.2,291.8 L786.0,306.2 L797.9,250.4 L809.8,244.3 L821.6,262.9 L833.5,243.2 L845.4,243.7 L857.2,235.6 L869.1,210.3 L881.0,221.5 L892.8,185.2 L904.7,208.8 L916.6,239.4 L928.4,208.2 L940.3,202.7 L952.2,199.5 L964.0,191.1 L975.9,207.8 L987.8,214.5 L999.6,231.0 L1011.5,168.3 L1023.3,176.5 L1035.2,139.6 L1047.1,144.7 L1058.9,175.5 L1070.8,149.9 L1082.7,145.1 L1094.5,135.4 L1106.4,180.7 L1118.3,138.5 L1130.1,127.8 L1142.0,138.5 L1142.0,434.0 L86.0,434.0 Z" fill="#0f5949" opacity="0.28"/>
  <path d="M86.0,313.5 L97.9,340.4 L109.7,371.4 L121.6,393.2 L133.5,361.9 L145.3,352.8 L157.2,353.5 L169.1,349.7 L180.9,326.8 L192.8,313.8 L204.7,288.6 L216.5,276.2 L228.4,299.8 L240.2,334.5 L252.1,342.0 L264.0,288.6 L275.8,270.3 L287.7,269.8 L299.6,246.0 L311.4,247.9 L323.3,192.6 L335.2,166.8 L347.0,178.6 L358.9,155.0 L370.8,248.9 L382.6,275.6 L394.5,257.4 L406.4,254.4 L418.2,243.7 L430.1,251.7 L442.0,270.1 L453.8,271.5 L465.7,292.2 L477.6,270.5 L489.4,252.7 L501.3,252.5 L513.1,238.8 L525.0,265.8 L536.9,296.7 L548.7,283.2 L560.6,273.2 L572.5,297.1 L584.3,364.0 L596.2,403.1 L608.1,372.7 L619.9,404.1 L631.8,399.1 L643.7,406.2 L655.5,388.1 L667.4,384.7 L679.3,360.8 L691.1,358.7 L703.0,349.6 L714.9,328.3 L726.7,355.1 L738.6,344.8 L750.4,327.9 L762.3,334.9 L774.2,291.8 L786.0,306.2 L797.9,250.4 L809.8,244.3 L821.6,262.9 L833.5,243.2 L845.4,243.7 L857.2,235.6 L869.1,210.3 L881.0,221.5 L892.8,185.2 L904.7,208.8 L916.6,239.4 L928.4,208.2 L940.3,202.7 L952.2,199.5 L964.0,191.1 L975.9,207.8 L987.8,214.5 L999.6,231.0 L1011.5,168.3 L1023.3,176.5 L1035.2,139.6 L1047.1,144.7 L1058.9,175.5 L1070.8,149.9 L1082.7,145.1 L1094.5,135.4 L1106.4,180.7 L1118.3,138.5 L1130.1,127.8 L1142.0,138.5" fill="none" stroke="#62d9ee" stroke-width="4" stroke-linecap="round" stroke-linejoin="round"/>
  <g>
    <line x1="1082.7" x2="1082.7" y1="100" y2="434" stroke="#18e59c" stroke-width="2" stroke-dasharray="7 7" opacity="0.8"/>
    <circle cx="1082.7" cy="146.1" r="8" fill="#071f1c" stroke="#18e59c" stroke-width="4"/>
    <text x="1030.0" y="180.1" text-anchor="middle" class="marker" fill="#18e59c">ENTRY | Jul 10 | $87.11</text>
  </g>
  
  <text x="86.0" y="472" text-anchor="middle" class="axis">Mar 10</text><text x="347.0" y="472" text-anchor="middle" class="axis">Apr 10</text><text x="619.9" y="472" text-anchor="middle" class="axis">May 13</text><text x="881.0" y="472" text-anchor="middle" class="axis">Jun 15</text><text x="1142.0" y="472" text-anchor="middle" class="axis">Jul 17</text>
  </svg>