<svg xmlns="http://www.w3.org/2000/svg" width="1200" height="500" viewBox="0 0 1200 500" role="img" aria-label="TLT underlying price from entry">
  <rect width="1200" height="500" fill="#071f1c"/>
  <style>.head{fill:#f4fff9;font:800 27px Georgia,serif}.sub{fill:#9fc4bb;font:14px Arial,sans-serif}.axis{fill:#8eaaa3;font:12px Arial,sans-serif}.marker{font:800 12px Arial,sans-serif}</style>
  <text x="86" y="40" class="head">TLT Underlying Price</text>
  <text x="86" y="66" class="sub">90 sessions | Entry marked; position remains open | Published option idea rank 4</text>
  <line x1="86" x2="1142" y1="100.0" y2="100.0" stroke="#1b4a42" stroke-width="1"/><text x="72" y="105.0" text-anchor="end" class="axis">$90.57</text><line x1="86" x2="1142" y1="183.5" y2="183.5" stroke="#1b4a42" stroke-width="1"/><text x="72" y="188.5" text-anchor="end" class="axis">$88.35</text><line x1="86" x2="1142" y1="267.0" y2="267.0" stroke="#1b4a42" stroke-width="1"/><text x="72" y="272.0" text-anchor="end" class="axis">$86.13</text><line x1="86" x2="1142" y1="350.5" y2="350.5" stroke="#1b4a42" stroke-width="1"/><text x="72" y="355.5" text-anchor="end" class="axis">$83.90</text><line x1="86" x2="1142" y1="434.0" y2="434.0" stroke="#1b4a42" stroke-width="1"/><text x="72" y="439.0" text-anchor="end" class="axis">$81.68</text>
  <path d="M86.0,150.3 L97.9,186.0 L109.7,228.9 L121.6,235.2 L133.5,251.4 L145.3,226.2 L157.2,217.2 L169.1,235.6 L180.9,215.7 L192.8,278.1 L204.7,257.0 L216.5,271.3 L228.4,240.1 L240.2,267.6 L252.1,285.2 L264.0,242.4 L275.8,245.8 L287.7,261.9 L299.6,242.0 L311.4,247.3 L323.3,247.6 L335.2,237.1 L347.0,245.4 L358.9,253.3 L370.8,243.5 L382.6,226.2 L394.5,240.5 L406.4,261.2 L418.2,231.5 L430.1,232.2 L442.0,250.3 L453.8,243.9 L465.7,251.0 L477.6,245.0 L489.4,261.2 L501.3,257.8 L513.1,283.0 L525.0,286.0 L536.9,286.4 L548.7,310.8 L560.6,293.1 L572.5,268.7 L584.3,284.9 L596.2,268.7 L608.1,288.2 L619.9,309.7 L631.8,316.8 L643.7,312.3 L655.5,359.6 L667.4,363.4 L679.3,383.7 L691.1,350.2 L703.0,338.6 L714.9,321.3 L726.7,305.5 L738.6,298.0 L750.4,281.5 L762.3,280.7 L774.2,291.6 L786.0,284.9 L797.9,297.6 L809.8,290.5 L821.6,307.0 L833.5,323.6 L845.4,304.8 L857.2,313.8 L869.1,272.4 L881.0,280.3 L892.8,282.2 L904.7,264.6 L916.6,259.3 L928.4,243.5 L940.3,268.3 L952.2,264.2 L964.0,219.8 L975.9,221.0 L987.8,220.6 L999.6,217.2 L1011.5,255.9 L1023.3,289.7 L1035.2,290.1 L1047.1,292.4 L1058.9,326.2 L1070.8,333.3 L1082.7,328.4 L1094.5,329.2 L1106.4,348.0 L1118.3,343.9 L1130.1,337.8 L1142.0,339.0 L1142.0,434.0 L86.0,434.0 Z" fill="#0f5949" opacity="0.28"/>
  <path d="M86.0,150.3 L97.9,186.0 L109.7,228.9 L121.6,235.2 L133.5,251.4 L145.3,226.2 L157.2,217.2 L169.1,235.6 L180.9,215.7 L192.8,278.1 L204.7,257.0 L216.5,271.3 L228.4,240.1 L240.2,267.6 L252.1,285.2 L264.0,242.4 L275.8,245.8 L287.7,261.9 L299.6,242.0 L311.4,247.3 L323.3,247.6 L335.2,237.1 L347.0,245.4 L358.9,253.3 L370.8,243.5 L382.6,226.2 L394.5,240.5 L406.4,261.2 L418.2,231.5 L430.1,232.2 L442.0,250.3 L453.8,243.9 L465.7,251.0 L477.6,245.0 L489.4,261.2 L501.3,257.8 L513.1,283.0 L525.0,286.0 L536.9,286.4 L548.7,310.8 L560.6,293.1 L572.5,268.7 L584.3,284.9 L596.2,268.7 L608.1,288.2 L619.9,309.7 L631.8,316.8 L643.7,312.3 L655.5,359.6 L667.4,363.4 L679.3,383.7 L691.1,350.2 L703.0,338.6 L714.9,321.3 L726.7,305.5 L738.6,298.0 L750.4,281.5 L762.3,280.7 L774.2,291.6 L786.0,284.9 L797.9,297.6 L809.8,290.5 L821.6,307.0 L833.5,323.6 L845.4,304.8 L857.2,313.8 L869.1,272.4 L881.0,280.3 L892.8,282.2 L904.7,264.6 L916.6,259.3 L928.4,243.5 L940.3,268.3 L952.2,264.2 L964.0,219.8 L975.9,221.0 L987.8,220.6 L999.6,217.2 L1011.5,255.9 L1023.3,289.7 L1035.2,290.1 L1047.1,292.4 L1058.9,326.2 L1070.8,333.3 L1082.7,328.4 L1094.5,329.2 L1106.4,348.0 L1118.3,343.9 L1130.1,337.8 L1142.0,339.0" fill="none" stroke="#62d9ee" stroke-width="4" stroke-linecap="round" stroke-linejoin="round"/>
  <g>
    <line x1="1094.5" x2="1094.5" y1="100" y2="434" stroke="#18e59c" stroke-width="2" stroke-dasharray="7 7" opacity="0.8"/>
    <circle cx="1094.5" cy="326.2" r="8" fill="#071f1c" stroke="#18e59c" stroke-width="4"/>
    <text x="1030.0" y="308.2" text-anchor="middle" class="marker" fill="#18e59c">ENTRY | Jul 10 | $84.55</text>
  </g>
  
  <text x="86.0" y="472" text-anchor="middle" class="axis">Mar 9</text><text x="347.0" y="472" text-anchor="middle" class="axis">Apr 9</text><text x="619.9" y="472" text-anchor="middle" class="axis">May 12</text><text x="881.0" y="472" text-anchor="middle" class="axis">Jun 12</text><text x="1142.0" y="472" text-anchor="middle" class="axis">Jul 16</text>
  </svg>