<svg xmlns="http://www.w3.org/2000/svg" width="1200" height="500" viewBox="0 0 1200 500" role="img" aria-label="TLT underlying price from entry">
  <rect width="1200" height="500" fill="#071f1c"/>
  <style>.head{fill:#f4fff9;font:800 27px Georgia,serif}.sub{fill:#9fc4bb;font:14px Arial,sans-serif}.axis{fill:#8eaaa3;font:12px Arial,sans-serif}.marker{font:800 12px Arial,sans-serif}</style>
  <text x="86" y="40" class="head">TLT Underlying Price</text>
  <text x="86" y="66" class="sub">90 sessions | Entry marked; position remains open | Published option idea rank 4</text>
  <line x1="86" x2="1142" y1="100.0" y2="100.0" stroke="#1b4a42" stroke-width="1"/><text x="72" y="105.0" text-anchor="end" class="axis">$90.57</text><line x1="86" x2="1142" y1="183.5" y2="183.5" stroke="#1b4a42" stroke-width="1"/><text x="72" y="188.5" text-anchor="end" class="axis">$88.35</text><line x1="86" x2="1142" y1="267.0" y2="267.0" stroke="#1b4a42" stroke-width="1"/><text x="72" y="272.0" text-anchor="end" class="axis">$86.13</text><line x1="86" x2="1142" y1="350.5" y2="350.5" stroke="#1b4a42" stroke-width="1"/><text x="72" y="355.5" text-anchor="end" class="axis">$83.90</text><line x1="86" x2="1142" y1="434.0" y2="434.0" stroke="#1b4a42" stroke-width="1"/><text x="72" y="439.0" text-anchor="end" class="axis">$81.68</text>
  <path d="M86.0,153.3 L97.9,166.8 L109.7,179.2 L121.6,150.3 L133.5,186.0 L145.3,228.9 L157.2,235.2 L169.1,251.4 L180.9,226.2 L192.8,217.2 L204.7,235.6 L216.5,215.7 L228.4,278.1 L240.2,257.0 L252.1,271.3 L264.0,240.1 L275.8,267.6 L287.7,285.2 L299.6,242.4 L311.4,245.8 L323.3,261.9 L335.2,242.0 L347.0,247.3 L358.9,247.6 L370.8,237.1 L382.6,245.4 L394.5,253.3 L406.4,243.5 L418.2,226.2 L430.1,240.5 L442.0,261.2 L453.8,231.5 L465.7,232.2 L477.6,250.3 L489.4,243.9 L501.3,251.0 L513.1,245.0 L525.0,261.2 L536.9,257.8 L548.7,283.0 L560.6,286.0 L572.5,286.4 L584.3,310.8 L596.2,293.1 L608.1,268.7 L619.9,284.9 L631.8,268.7 L643.7,288.2 L655.5,309.7 L667.4,316.8 L679.3,312.3 L691.1,359.6 L703.0,363.4 L714.9,383.7 L726.7,350.2 L738.6,338.6 L750.4,321.3 L762.3,305.5 L774.2,298.0 L786.0,281.5 L797.9,280.7 L809.8,291.6 L821.6,284.9 L833.5,297.6 L845.4,290.5 L857.2,307.0 L869.1,323.6 L881.0,304.8 L892.8,313.8 L904.7,272.4 L916.6,280.3 L928.4,282.2 L940.3,264.6 L952.2,259.3 L964.0,243.5 L975.9,268.3 L987.8,264.2 L999.6,219.8 L1011.5,221.0 L1023.3,220.6 L1035.2,217.2 L1047.1,255.9 L1058.9,289.7 L1070.8,290.1 L1082.7,292.4 L1094.5,326.2 L1106.4,333.3 L1118.3,328.4 L1130.1,329.2 L1142.0,348.0 L1142.0,434.0 L86.0,434.0 Z" fill="#0f5949" opacity="0.28"/>
  <path d="M86.0,153.3 L97.9,166.8 L109.7,179.2 L121.6,150.3 L133.5,186.0 L145.3,228.9 L157.2,235.2 L169.1,251.4 L180.9,226.2 L192.8,217.2 L204.7,235.6 L216.5,215.7 L228.4,278.1 L240.2,257.0 L252.1,271.3 L264.0,240.1 L275.8,267.6 L287.7,285.2 L299.6,242.4 L311.4,245.8 L323.3,261.9 L335.2,242.0 L347.0,247.3 L358.9,247.6 L370.8,237.1 L382.6,245.4 L394.5,253.3 L406.4,243.5 L418.2,226.2 L430.1,240.5 L442.0,261.2 L453.8,231.5 L465.7,232.2 L477.6,250.3 L489.4,243.9 L501.3,251.0 L513.1,245.0 L525.0,261.2 L536.9,257.8 L548.7,283.0 L560.6,286.0 L572.5,286.4 L584.3,310.8 L596.2,293.1 L608.1,268.7 L619.9,284.9 L631.8,268.7 L643.7,288.2 L655.5,309.7 L667.4,316.8 L679.3,312.3 L691.1,359.6 L703.0,363.4 L714.9,383.7 L726.7,350.2 L738.6,338.6 L750.4,321.3 L762.3,305.5 L774.2,298.0 L786.0,281.5 L797.9,280.7 L809.8,291.6 L821.6,284.9 L833.5,297.6 L845.4,290.5 L857.2,307.0 L869.1,323.6 L881.0,304.8 L892.8,313.8 L904.7,272.4 L916.6,280.3 L928.4,282.2 L940.3,264.6 L952.2,259.3 L964.0,243.5 L975.9,268.3 L987.8,264.2 L999.6,219.8 L1011.5,221.0 L1023.3,220.6 L1035.2,217.2 L1047.1,255.9 L1058.9,289.7 L1070.8,290.1 L1082.7,292.4 L1094.5,326.2 L1106.4,333.3 L1118.3,328.4 L1130.1,329.2 L1142.0,348.0" fill="none" stroke="#62d9ee" stroke-width="4" stroke-linecap="round" stroke-linejoin="round"/>
  <g>
    <line x1="1130.1" x2="1130.1" y1="100" y2="434" stroke="#18e59c" stroke-width="2" stroke-dasharray="7 7" opacity="0.8"/>
    <circle cx="1130.1" cy="326.2" r="8" fill="#071f1c" stroke="#18e59c" stroke-width="4"/>
    <text x="1030.0" y="308.2" text-anchor="middle" class="marker" fill="#18e59c">ENTRY | Jul 10 | $84.55</text>
  </g>
  
  <text x="86.0" y="472" text-anchor="middle" class="axis">Mar 4</text><text x="347.0" y="472" text-anchor="middle" class="axis">Apr 6</text><text x="619.9" y="472" text-anchor="middle" class="axis">May 7</text><text x="881.0" y="472" text-anchor="middle" class="axis">Jun 9</text><text x="1142.0" y="472" text-anchor="middle" class="axis">Jul 13</text>
  </svg>