<svg xmlns="http://www.w3.org/2000/svg" width="1200" height="500" viewBox="0 0 1200 500" role="img" aria-label="TLT underlying price from entry">
  <rect width="1200" height="500" fill="#071f1c"/>
  <style>.head{fill:#f4fff9;font:800 27px Georgia,serif}.sub{fill:#9fc4bb;font:14px Arial,sans-serif}.axis{fill:#8eaaa3;font:12px Arial,sans-serif}.marker{font:800 12px Arial,sans-serif}</style>
  <text x="86" y="40" class="head">TLT Underlying Price</text>
  <text x="86" y="66" class="sub">90 sessions | Entry marked; position remains open | Published option idea rank 4</text>
  <line x1="86" x2="1142" y1="100.0" y2="100.0" stroke="#1b4a42" stroke-width="1"/><text x="72" y="105.0" text-anchor="end" class="axis">$90.57</text><line x1="86" x2="1142" y1="183.5" y2="183.5" stroke="#1b4a42" stroke-width="1"/><text x="72" y="188.5" text-anchor="end" class="axis">$88.35</text><line x1="86" x2="1142" y1="267.0" y2="267.0" stroke="#1b4a42" stroke-width="1"/><text x="72" y="272.0" text-anchor="end" class="axis">$86.13</text><line x1="86" x2="1142" y1="350.5" y2="350.5" stroke="#1b4a42" stroke-width="1"/><text x="72" y="355.5" text-anchor="end" class="axis">$83.90</text><line x1="86" x2="1142" y1="434.0" y2="434.0" stroke="#1b4a42" stroke-width="1"/><text x="72" y="439.0" text-anchor="end" class="axis">$81.68</text>
  <path d="M86.0,179.2 L97.9,150.3 L109.7,186.0 L121.6,228.9 L133.5,235.2 L145.3,251.4 L157.2,226.2 L169.1,217.2 L180.9,235.6 L192.8,215.7 L204.7,278.1 L216.5,257.0 L228.4,271.3 L240.2,240.1 L252.1,267.6 L264.0,285.2 L275.8,242.4 L287.7,245.8 L299.6,261.9 L311.4,242.0 L323.3,247.3 L335.2,247.6 L347.0,237.1 L358.9,245.4 L370.8,253.3 L382.6,243.5 L394.5,226.2 L406.4,240.5 L418.2,261.2 L430.1,231.5 L442.0,232.2 L453.8,250.3 L465.7,243.9 L477.6,251.0 L489.4,245.0 L501.3,261.2 L513.1,257.8 L525.0,283.0 L536.9,286.0 L548.7,286.4 L560.6,310.8 L572.5,293.1 L584.3,268.7 L596.2,284.9 L608.1,268.7 L619.9,288.2 L631.8,309.7 L643.7,316.8 L655.5,312.3 L667.4,359.6 L679.3,363.4 L691.1,383.7 L703.0,350.2 L714.9,338.6 L726.7,321.3 L738.6,305.5 L750.4,298.0 L762.3,281.5 L774.2,280.7 L786.0,291.6 L797.9,284.9 L809.8,297.6 L821.6,290.5 L833.5,307.0 L845.4,323.6 L857.2,304.8 L869.1,313.8 L881.0,272.4 L892.8,280.3 L904.7,282.2 L916.6,264.6 L928.4,259.3 L940.3,243.5 L952.2,268.3 L964.0,264.2 L975.9,219.8 L987.8,221.0 L999.6,220.6 L1011.5,217.2 L1023.3,255.9 L1035.2,289.7 L1047.1,290.1 L1058.9,292.4 L1070.8,326.2 L1082.7,333.3 L1094.5,328.4 L1106.4,329.2 L1118.3,348.0 L1130.1,343.9 L1142.0,337.8 L1142.0,434.0 L86.0,434.0 Z" fill="#0f5949" opacity="0.28"/>
  <path d="M86.0,179.2 L97.9,150.3 L109.7,186.0 L121.6,228.9 L133.5,235.2 L145.3,251.4 L157.2,226.2 L169.1,217.2 L180.9,235.6 L192.8,215.7 L204.7,278.1 L216.5,257.0 L228.4,271.3 L240.2,240.1 L252.1,267.6 L264.0,285.2 L275.8,242.4 L287.7,245.8 L299.6,261.9 L311.4,242.0 L323.3,247.3 L335.2,247.6 L347.0,237.1 L358.9,245.4 L370.8,253.3 L382.6,243.5 L394.5,226.2 L406.4,240.5 L418.2,261.2 L430.1,231.5 L442.0,232.2 L453.8,250.3 L465.7,243.9 L477.6,251.0 L489.4,245.0 L501.3,261.2 L513.1,257.8 L525.0,283.0 L536.9,286.0 L548.7,286.4 L560.6,310.8 L572.5,293.1 L584.3,268.7 L596.2,284.9 L608.1,268.7 L619.9,288.2 L631.8,309.7 L643.7,316.8 L655.5,312.3 L667.4,359.6 L679.3,363.4 L691.1,383.7 L703.0,350.2 L714.9,338.6 L726.7,321.3 L738.6,305.5 L750.4,298.0 L762.3,281.5 L774.2,280.7 L786.0,291.6 L797.9,284.9 L809.8,297.6 L821.6,290.5 L833.5,307.0 L845.4,323.6 L857.2,304.8 L869.1,313.8 L881.0,272.4 L892.8,280.3 L904.7,282.2 L916.6,264.6 L928.4,259.3 L940.3,243.5 L952.2,268.3 L964.0,264.2 L975.9,219.8 L987.8,221.0 L999.6,220.6 L1011.5,217.2 L1023.3,255.9 L1035.2,289.7 L1047.1,290.1 L1058.9,292.4 L1070.8,326.2 L1082.7,333.3 L1094.5,328.4 L1106.4,329.2 L1118.3,348.0 L1130.1,343.9 L1142.0,337.8" fill="none" stroke="#62d9ee" stroke-width="4" stroke-linecap="round" stroke-linejoin="round"/>
  <g>
    <line x1="1106.4" x2="1106.4" y1="100" y2="434" stroke="#18e59c" stroke-width="2" stroke-dasharray="7 7" opacity="0.8"/>
    <circle cx="1106.4" cy="326.2" r="8" fill="#071f1c" stroke="#18e59c" stroke-width="4"/>
    <text x="1030.0" y="308.2" text-anchor="middle" class="marker" fill="#18e59c">ENTRY | Jul 10 | $84.55</text>
  </g>
  
  <text x="86.0" y="472" text-anchor="middle" class="axis">Mar 6</text><text x="347.0" y="472" text-anchor="middle" class="axis">Apr 8</text><text x="619.9" y="472" text-anchor="middle" class="axis">May 11</text><text x="881.0" y="472" text-anchor="middle" class="axis">Jun 11</text><text x="1142.0" y="472" text-anchor="middle" class="axis">Jul 15</text>
  </svg>