<svg xmlns="http://www.w3.org/2000/svg" width="1200" height="500" viewBox="0 0 1200 500" role="img" aria-label="TLT underlying price from entry">
  <rect width="1200" height="500" fill="#071f1c"/>
  <style>.head{fill:#f4fff9;font:800 27px Georgia,serif}.sub{fill:#9fc4bb;font:14px Arial,sans-serif}.axis{fill:#8eaaa3;font:12px Arial,sans-serif}.marker{font:800 12px Arial,sans-serif}</style>
  <text x="86" y="40" class="head">TLT Underlying Price</text>
  <text x="86" y="66" class="sub">90 sessions | Entry marked; position remains open | Published option idea rank 4</text>
  <line x1="86" x2="1142" y1="100.0" y2="100.0" stroke="#1b4a42" stroke-width="1"/><text x="72" y="105.0" text-anchor="end" class="axis">$90.77</text><line x1="86" x2="1142" y1="183.5" y2="183.5" stroke="#1b4a42" stroke-width="1"/><text x="72" y="188.5" text-anchor="end" class="axis">$88.50</text><line x1="86" x2="1142" y1="267.0" y2="267.0" stroke="#1b4a42" stroke-width="1"/><text x="72" y="272.0" text-anchor="end" class="axis">$86.22</text><line x1="86" x2="1142" y1="350.5" y2="350.5" stroke="#1b4a42" stroke-width="1"/><text x="72" y="355.5" text-anchor="end" class="axis">$83.95</text><line x1="86" x2="1142" y1="434.0" y2="434.0" stroke="#1b4a42" stroke-width="1"/><text x="72" y="439.0" text-anchor="end" class="axis">$81.68</text>
  <path d="M86.0,149.3 L97.9,159.6 L109.7,172.8 L121.6,184.9 L133.5,156.6 L145.3,191.5 L157.2,233.4 L169.1,239.6 L180.9,255.4 L192.8,230.8 L204.7,222.0 L216.5,240.0 L228.4,220.5 L240.2,281.5 L252.1,260.9 L264.0,274.9 L275.8,244.4 L287.7,271.2 L299.6,288.5 L311.4,246.6 L323.3,249.9 L335.2,265.7 L347.0,246.2 L358.9,251.4 L370.8,251.8 L382.6,241.5 L394.5,249.6 L406.4,257.3 L418.2,247.7 L430.1,230.8 L442.0,244.8 L453.8,265.0 L465.7,236.0 L477.6,236.7 L489.4,254.3 L501.3,248.1 L513.1,255.1 L525.0,249.2 L536.9,265.0 L548.7,261.7 L560.6,286.3 L572.5,289.2 L584.3,289.6 L596.2,313.5 L608.1,296.2 L619.9,272.3 L631.8,288.1 L643.7,272.3 L655.5,291.4 L667.4,312.4 L679.3,319.3 L691.1,314.9 L703.0,361.2 L714.9,364.9 L726.7,384.7 L738.6,352.0 L750.4,340.6 L762.3,323.8 L774.2,308.3 L786.0,301.0 L797.9,284.8 L809.8,284.1 L821.6,294.7 L833.5,288.1 L845.4,300.6 L857.2,293.6 L869.1,309.8 L881.0,326.0 L892.8,307.6 L904.7,316.4 L916.6,276.0 L928.4,283.7 L940.3,285.5 L952.2,268.3 L964.0,263.1 L975.9,247.7 L987.8,272.0 L999.6,267.9 L1011.5,224.6 L1023.3,225.7 L1035.2,225.3 L1047.1,222.0 L1058.9,259.8 L1070.8,292.9 L1082.7,293.3 L1094.5,295.5 L1106.4,328.5 L1118.3,335.5 L1130.1,330.7 L1142.0,328.5 L1142.0,434.0 L86.0,434.0 Z" fill="#0f5949" opacity="0.28"/>
  <path d="M86.0,149.3 L97.9,159.6 L109.7,172.8 L121.6,184.9 L133.5,156.6 L145.3,191.5 L157.2,233.4 L169.1,239.6 L180.9,255.4 L192.8,230.8 L204.7,222.0 L216.5,240.0 L228.4,220.5 L240.2,281.5 L252.1,260.9 L264.0,274.9 L275.8,244.4 L287.7,271.2 L299.6,288.5 L311.4,246.6 L323.3,249.9 L335.2,265.7 L347.0,246.2 L358.9,251.4 L370.8,251.8 L382.6,241.5 L394.5,249.6 L406.4,257.3 L418.2,247.7 L430.1,230.8 L442.0,244.8 L453.8,265.0 L465.7,236.0 L477.6,236.7 L489.4,254.3 L501.3,248.1 L513.1,255.1 L525.0,249.2 L536.9,265.0 L548.7,261.7 L560.6,286.3 L572.5,289.2 L584.3,289.6 L596.2,313.5 L608.1,296.2 L619.9,272.3 L631.8,288.1 L643.7,272.3 L655.5,291.4 L667.4,312.4 L679.3,319.3 L691.1,314.9 L703.0,361.2 L714.9,364.9 L726.7,384.7 L738.6,352.0 L750.4,340.6 L762.3,323.8 L774.2,308.3 L786.0,301.0 L797.9,284.8 L809.8,284.1 L821.6,294.7 L833.5,288.1 L845.4,300.6 L857.2,293.6 L869.1,309.8 L881.0,326.0 L892.8,307.6 L904.7,316.4 L916.6,276.0 L928.4,283.7 L940.3,285.5 L952.2,268.3 L964.0,263.1 L975.9,247.7 L987.8,272.0 L999.6,267.9 L1011.5,224.6 L1023.3,225.7 L1035.2,225.3 L1047.1,222.0 L1058.9,259.8 L1070.8,292.9 L1082.7,293.3 L1094.5,295.5 L1106.4,328.5 L1118.3,335.5 L1130.1,330.7 L1142.0,328.5" fill="none" stroke="#62d9ee" stroke-width="4" stroke-linecap="round" stroke-linejoin="round"/>
  <g>
    <line x1="1142.0" x2="1142.0" y1="100" y2="434" stroke="#18e59c" stroke-width="2" stroke-dasharray="7 7" opacity="0.8"/>
    <circle cx="1142.0" cy="328.5" r="8" fill="#071f1c" stroke="#18e59c" stroke-width="4"/>
    <text x="1030.0" y="310.5" text-anchor="middle" class="marker" fill="#18e59c">ENTRY | Jul 10 | $84.55</text>
  </g>
  
  <text x="86.0" y="472" text-anchor="middle" class="axis">Mar 3</text><text x="347.0" y="472" text-anchor="middle" class="axis">Apr 2</text><text x="619.9" y="472" text-anchor="middle" class="axis">May 6</text><text x="881.0" y="472" text-anchor="middle" class="axis">Jun 8</text><text x="1142.0" y="472" text-anchor="middle" class="axis">Jul 10</text>
  </svg>