<svg xmlns="http://www.w3.org/2000/svg" width="1200" height="500" viewBox="0 0 1200 500" role="img" aria-label="TLT underlying price from entry">
  <rect width="1200" height="500" fill="#071f1c"/>
  <style>.head{fill:#f4fff9;font:800 27px Georgia,serif}.sub{fill:#9fc4bb;font:14px Arial,sans-serif}.axis{fill:#8eaaa3;font:12px Arial,sans-serif}.marker{font:800 12px Arial,sans-serif}</style>
  <text x="86" y="40" class="head">TLT Underlying Price</text>
  <text x="86" y="66" class="sub">90 sessions | Entry marked; position remains open | Published option idea rank 4</text>
  <line x1="86" x2="1142" y1="100.0" y2="100.0" stroke="#1b4a42" stroke-width="1"/><text x="72" y="105.0" text-anchor="end" class="axis">$88.80</text><line x1="86" x2="1142" y1="183.5" y2="183.5" stroke="#1b4a42" stroke-width="1"/><text x="72" y="188.5" text-anchor="end" class="axis">$87.03</text><line x1="86" x2="1142" y1="267.0" y2="267.0" stroke="#1b4a42" stroke-width="1"/><text x="72" y="272.0" text-anchor="end" class="axis">$85.25</text><line x1="86" x2="1142" y1="350.5" y2="350.5" stroke="#1b4a42" stroke-width="1"/><text x="72" y="355.5" text-anchor="end" class="axis">$83.48</text><line x1="86" x2="1142" y1="434.0" y2="434.0" stroke="#1b4a42" stroke-width="1"/><text x="72" y="439.0" text-anchor="end" class="axis">$81.71</text>
  <path d="M86.0,206.5 L97.9,175.0 L109.7,163.7 L121.6,186.7 L133.5,161.8 L145.3,239.9 L157.2,213.6 L169.1,231.5 L180.9,192.4 L192.8,226.7 L204.7,248.9 L216.5,195.2 L228.4,199.4 L240.2,219.7 L252.1,194.7 L264.0,201.3 L275.8,201.8 L287.7,188.6 L299.6,199.0 L311.4,208.9 L323.3,196.6 L335.2,175.0 L347.0,192.9 L358.9,218.7 L370.8,181.6 L382.6,182.5 L394.5,205.1 L406.4,197.1 L418.2,206.0 L430.1,198.5 L442.0,218.7 L453.8,214.5 L465.7,246.1 L477.6,249.8 L489.4,250.3 L501.3,280.9 L513.1,258.8 L525.0,228.2 L536.9,248.4 L548.7,228.2 L560.6,252.6 L572.5,279.5 L584.3,288.4 L596.2,282.8 L608.1,342.1 L619.9,346.8 L631.8,372.2 L643.7,330.3 L655.5,315.7 L667.4,294.1 L679.3,274.3 L691.1,264.9 L703.0,244.2 L714.9,243.2 L726.7,256.9 L738.6,248.4 L750.4,264.4 L762.3,255.5 L774.2,276.2 L786.0,296.9 L797.9,273.4 L809.8,284.7 L821.6,232.9 L833.5,242.8 L845.4,245.1 L857.2,223.0 L869.1,216.4 L881.0,196.6 L892.8,227.7 L904.7,222.5 L916.6,167.0 L928.4,168.4 L940.3,167.9 L952.2,163.7 L964.0,212.2 L975.9,254.5 L987.8,255.0 L999.6,257.8 L1011.5,300.2 L1023.3,309.1 L1035.2,303.0 L1047.1,304.0 L1058.9,327.5 L1070.8,322.3 L1082.7,314.8 L1094.5,316.2 L1106.4,301.6 L1118.3,331.3 L1130.1,342.1 L1142.0,352.4 L1142.0,434.0 L86.0,434.0 Z" fill="#0f5949" opacity="0.28"/>
  <path d="M86.0,206.5 L97.9,175.0 L109.7,163.7 L121.6,186.7 L133.5,161.8 L145.3,239.9 L157.2,213.6 L169.1,231.5 L180.9,192.4 L192.8,226.7 L204.7,248.9 L216.5,195.2 L228.4,199.4 L240.2,219.7 L252.1,194.7 L264.0,201.3 L275.8,201.8 L287.7,188.6 L299.6,199.0 L311.4,208.9 L323.3,196.6 L335.2,175.0 L347.0,192.9 L358.9,218.7 L370.8,181.6 L382.6,182.5 L394.5,205.1 L406.4,197.1 L418.2,206.0 L430.1,198.5 L442.0,218.7 L453.8,214.5 L465.7,246.1 L477.6,249.8 L489.4,250.3 L501.3,280.9 L513.1,258.8 L525.0,228.2 L536.9,248.4 L548.7,228.2 L560.6,252.6 L572.5,279.5 L584.3,288.4 L596.2,282.8 L608.1,342.1 L619.9,346.8 L631.8,372.2 L643.7,330.3 L655.5,315.7 L667.4,294.1 L679.3,274.3 L691.1,264.9 L703.0,244.2 L714.9,243.2 L726.7,256.9 L738.6,248.4 L750.4,264.4 L762.3,255.5 L774.2,276.2 L786.0,296.9 L797.9,273.4 L809.8,284.7 L821.6,232.9 L833.5,242.8 L845.4,245.1 L857.2,223.0 L869.1,216.4 L881.0,196.6 L892.8,227.7 L904.7,222.5 L916.6,167.0 L928.4,168.4 L940.3,167.9 L952.2,163.7 L964.0,212.2 L975.9,254.5 L987.8,255.0 L999.6,257.8 L1011.5,300.2 L1023.3,309.1 L1035.2,303.0 L1047.1,304.0 L1058.9,327.5 L1070.8,322.3 L1082.7,314.8 L1094.5,316.2 L1106.4,301.6 L1118.3,331.3 L1130.1,342.1 L1142.0,352.4" fill="none" stroke="#62d9ee" stroke-width="4" stroke-linecap="round" stroke-linejoin="round"/>
  <g>
    <line x1="1047.1" x2="1047.1" y1="100" y2="434" stroke="#18e59c" stroke-width="2" stroke-dasharray="7 7" opacity="0.8"/>
    <circle cx="1047.1" cy="300.2" r="8" fill="#071f1c" stroke="#18e59c" stroke-width="4"/>
    <text x="1030.0" y="282.2" text-anchor="middle" class="marker" fill="#18e59c">ENTRY | Jul 10 | $84.55</text>
  </g>
  
  <text x="86.0" y="472" text-anchor="middle" class="axis">Mar 13</text><text x="347.0" y="472" text-anchor="middle" class="axis">Apr 15</text><text x="619.9" y="472" text-anchor="middle" class="axis">May 18</text><text x="881.0" y="472" text-anchor="middle" class="axis">Jun 18</text><text x="1142.0" y="472" text-anchor="middle" class="axis">Jul 22</text>
  </svg>