<svg xmlns="http://www.w3.org/2000/svg" width="1200" height="500" viewBox="0 0 1200 500" role="img" aria-label="TLT underlying price from entry">
  <rect width="1200" height="500" fill="#071f1c"/>
  <style>.head{fill:#f4fff9;font:800 27px Georgia,serif}.sub{fill:#9fc4bb;font:14px Arial,sans-serif}.axis{fill:#8eaaa3;font:12px Arial,sans-serif}.marker{font:800 12px Arial,sans-serif}</style>
  <text x="86" y="40" class="head">TLT Underlying Price</text>
  <text x="86" y="66" class="sub">90 sessions | Entry marked; position remains open | Published option idea rank 4</text>
  <line x1="86" x2="1142" y1="100.0" y2="100.0" stroke="#1b4a42" stroke-width="1"/><text x="72" y="105.0" text-anchor="end" class="axis">$90.57</text><line x1="86" x2="1142" y1="183.5" y2="183.5" stroke="#1b4a42" stroke-width="1"/><text x="72" y="188.5" text-anchor="end" class="axis">$88.35</text><line x1="86" x2="1142" y1="267.0" y2="267.0" stroke="#1b4a42" stroke-width="1"/><text x="72" y="272.0" text-anchor="end" class="axis">$86.13</text><line x1="86" x2="1142" y1="350.5" y2="350.5" stroke="#1b4a42" stroke-width="1"/><text x="72" y="355.5" text-anchor="end" class="axis">$83.90</text><line x1="86" x2="1142" y1="434.0" y2="434.0" stroke="#1b4a42" stroke-width="1"/><text x="72" y="439.0" text-anchor="end" class="axis">$81.68</text>
  <path d="M86.0,166.8 L97.9,179.2 L109.7,150.3 L121.6,186.0 L133.5,228.9 L145.3,235.2 L157.2,251.4 L169.1,226.2 L180.9,217.2 L192.8,235.6 L204.7,215.7 L216.5,278.1 L228.4,257.0 L240.2,271.3 L252.1,240.1 L264.0,267.6 L275.8,285.2 L287.7,242.4 L299.6,245.8 L311.4,261.9 L323.3,242.0 L335.2,247.3 L347.0,247.6 L358.9,237.1 L370.8,245.4 L382.6,253.3 L394.5,243.5 L406.4,226.2 L418.2,240.5 L430.1,261.2 L442.0,231.5 L453.8,232.2 L465.7,250.3 L477.6,243.9 L489.4,251.0 L501.3,245.0 L513.1,261.2 L525.0,257.8 L536.9,283.0 L548.7,286.0 L560.6,286.4 L572.5,310.8 L584.3,293.1 L596.2,268.7 L608.1,284.9 L619.9,268.7 L631.8,288.2 L643.7,309.7 L655.5,316.8 L667.4,312.3 L679.3,359.6 L691.1,363.4 L703.0,383.7 L714.9,350.2 L726.7,338.6 L738.6,321.3 L750.4,305.5 L762.3,298.0 L774.2,281.5 L786.0,280.7 L797.9,291.6 L809.8,284.9 L821.6,297.6 L833.5,290.5 L845.4,307.0 L857.2,323.6 L869.1,304.8 L881.0,313.8 L892.8,272.4 L904.7,280.3 L916.6,282.2 L928.4,264.6 L940.3,259.3 L952.2,243.5 L964.0,268.3 L975.9,264.2 L987.8,219.8 L999.6,221.0 L1011.5,220.6 L1023.3,217.2 L1035.2,255.9 L1047.1,289.7 L1058.9,290.1 L1070.8,292.4 L1082.7,326.2 L1094.5,333.3 L1106.4,328.4 L1118.3,329.2 L1130.1,348.0 L1142.0,343.9 L1142.0,434.0 L86.0,434.0 Z" fill="#0f5949" opacity="0.28"/>
  <path d="M86.0,166.8 L97.9,179.2 L109.7,150.3 L121.6,186.0 L133.5,228.9 L145.3,235.2 L157.2,251.4 L169.1,226.2 L180.9,217.2 L192.8,235.6 L204.7,215.7 L216.5,278.1 L228.4,257.0 L240.2,271.3 L252.1,240.1 L264.0,267.6 L275.8,285.2 L287.7,242.4 L299.6,245.8 L311.4,261.9 L323.3,242.0 L335.2,247.3 L347.0,247.6 L358.9,237.1 L370.8,245.4 L382.6,253.3 L394.5,243.5 L406.4,226.2 L418.2,240.5 L430.1,261.2 L442.0,231.5 L453.8,232.2 L465.7,250.3 L477.6,243.9 L489.4,251.0 L501.3,245.0 L513.1,261.2 L525.0,257.8 L536.9,283.0 L548.7,286.0 L560.6,286.4 L572.5,310.8 L584.3,293.1 L596.2,268.7 L608.1,284.9 L619.9,268.7 L631.8,288.2 L643.7,309.7 L655.5,316.8 L667.4,312.3 L679.3,359.6 L691.1,363.4 L703.0,383.7 L714.9,350.2 L726.7,338.6 L738.6,321.3 L750.4,305.5 L762.3,298.0 L774.2,281.5 L786.0,280.7 L797.9,291.6 L809.8,284.9 L821.6,297.6 L833.5,290.5 L845.4,307.0 L857.2,323.6 L869.1,304.8 L881.0,313.8 L892.8,272.4 L904.7,280.3 L916.6,282.2 L928.4,264.6 L940.3,259.3 L952.2,243.5 L964.0,268.3 L975.9,264.2 L987.8,219.8 L999.6,221.0 L1011.5,220.6 L1023.3,217.2 L1035.2,255.9 L1047.1,289.7 L1058.9,290.1 L1070.8,292.4 L1082.7,326.2 L1094.5,333.3 L1106.4,328.4 L1118.3,329.2 L1130.1,348.0 L1142.0,343.9" fill="none" stroke="#62d9ee" stroke-width="4" stroke-linecap="round" stroke-linejoin="round"/>
  <g>
    <line x1="1118.3" x2="1118.3" y1="100" y2="434" stroke="#18e59c" stroke-width="2" stroke-dasharray="7 7" opacity="0.8"/>
    <circle cx="1118.3" cy="326.2" r="8" fill="#071f1c" stroke="#18e59c" stroke-width="4"/>
    <text x="1030.0" y="308.2" text-anchor="middle" class="marker" fill="#18e59c">ENTRY | Jul 10 | $84.55</text>
  </g>
  
  <text x="86.0" y="472" text-anchor="middle" class="axis">Mar 5</text><text x="347.0" y="472" text-anchor="middle" class="axis">Apr 7</text><text x="619.9" y="472" text-anchor="middle" class="axis">May 8</text><text x="881.0" y="472" text-anchor="middle" class="axis">Jun 10</text><text x="1142.0" y="472" text-anchor="middle" class="axis">Jul 14</text>
  </svg>