<svg xmlns="http://www.w3.org/2000/svg" width="1200" height="500" viewBox="0 0 1200 500" role="img" aria-label="PLTR underlying price from entry">
  <rect width="1200" height="500" fill="#071f1c"/>
  <style>.head{fill:#f4fff9;font:800 27px Georgia,serif}.sub{fill:#9fc4bb;font:14px Arial,sans-serif}.axis{fill:#8eaaa3;font:12px Arial,sans-serif}.marker{font:800 12px Arial,sans-serif}</style>
  <text x="86" y="40" class="head">PLTR Underlying Price</text>
  <text x="86" y="66" class="sub">90 sessions | Entry marked; position remains open | Published option idea rank 5</text>
  <line x1="86" x2="1142" y1="100.0" y2="100.0" stroke="#1b4a42" stroke-width="1"/><text x="72" y="105.0" text-anchor="end" class="axis">$166.20</text><line x1="86" x2="1142" y1="183.5" y2="183.5" stroke="#1b4a42" stroke-width="1"/><text x="72" y="188.5" text-anchor="end" class="axis">$150.13</text><line x1="86" x2="1142" y1="267.0" y2="267.0" stroke="#1b4a42" stroke-width="1"/><text x="72" y="272.0" text-anchor="end" class="axis">$134.06</text><line x1="86" x2="1142" y1="350.5" y2="350.5" stroke="#1b4a42" stroke-width="1"/><text x="72" y="355.5" text-anchor="end" class="axis">$117.98</text><line x1="86" x2="1142" y1="434.0" y2="434.0" stroke="#1b4a42" stroke-width="1"/><text x="72" y="439.0" text-anchor="end" class="axis">$101.91</text>
  <path d="M86.0,170.0 L97.9,157.8 L109.7,169.8 L121.6,154.6 L133.5,180.6 L145.3,127.8 L157.2,159.3 L169.1,158.4 L180.9,196.8 L192.8,220.2 L204.7,248.8 L216.5,203.5 L228.4,202.4 L240.2,192.2 L252.1,194.9 L264.0,183.8 L275.8,232.2 L287.7,285.5 L299.6,298.1 L311.4,275.8 L323.3,258.5 L335.2,224.9 L347.0,221.8 L358.9,202.9 L370.8,205.5 L382.6,205.1 L394.5,170.5 L406.4,228.0 L418.2,220.1 L430.1,220.0 L442.0,230.0 L453.8,246.7 L465.7,240.7 L477.6,215.0 L489.4,204.8 L501.3,257.4 L513.1,268.4 L525.0,251.4 L536.9,247.5 L548.7,252.3 L560.6,256.9 L572.5,287.8 L584.3,268.7 L596.2,267.3 L608.1,261.4 L619.9,260.7 L631.8,250.9 L643.7,249.5 L655.5,252.3 L667.4,253.8 L679.3,275.0 L691.1,218.8 L703.0,150.2 L714.9,128.8 L726.7,172.9 L738.6,224.7 L750.4,227.3 L762.3,259.3 L774.2,254.5 L786.0,277.3 L797.9,287.0 L809.8,282.5 L821.6,298.5 L833.5,263.6 L845.4,271.2 L857.2,284.8 L869.1,296.0 L881.0,342.6 L892.8,357.2 L904.7,373.8 L916.6,406.2 L928.4,376.8 L940.3,362.4 L952.2,357.3 L964.0,310.3 L975.9,291.7 L987.8,274.9 L999.6,265.4 L1011.5,276.5 L1023.3,293.1 L1035.2,304.7 L1047.1,287.9 L1058.9,268.7 L1070.8,268.5 L1082.7,265.0 L1094.5,275.7 L1106.4,262.9 L1118.3,274.2 L1130.1,316.3 L1142.0,322.5 L1142.0,434.0 L86.0,434.0 Z" fill="#0f5949" opacity="0.28"/>
  <path d="M86.0,170.0 L97.9,157.8 L109.7,169.8 L121.6,154.6 L133.5,180.6 L145.3,127.8 L157.2,159.3 L169.1,158.4 L180.9,196.8 L192.8,220.2 L204.7,248.8 L216.5,203.5 L228.4,202.4 L240.2,192.2 L252.1,194.9 L264.0,183.8 L275.8,232.2 L287.7,285.5 L299.6,298.1 L311.4,275.8 L323.3,258.5 L335.2,224.9 L347.0,221.8 L358.9,202.9 L370.8,205.5 L382.6,205.1 L394.5,170.5 L406.4,228.0 L418.2,220.1 L430.1,220.0 L442.0,230.0 L453.8,246.7 L465.7,240.7 L477.6,215.0 L489.4,204.8 L501.3,257.4 L513.1,268.4 L525.0,251.4 L536.9,247.5 L548.7,252.3 L560.6,256.9 L572.5,287.8 L584.3,268.7 L596.2,267.3 L608.1,261.4 L619.9,260.7 L631.8,250.9 L643.7,249.5 L655.5,252.3 L667.4,253.8 L679.3,275.0 L691.1,218.8 L703.0,150.2 L714.9,128.8 L726.7,172.9 L738.6,224.7 L750.4,227.3 L762.3,259.3 L774.2,254.5 L786.0,277.3 L797.9,287.0 L809.8,282.5 L821.6,298.5 L833.5,263.6 L845.4,271.2 L857.2,284.8 L869.1,296.0 L881.0,342.6 L892.8,357.2 L904.7,373.8 L916.6,406.2 L928.4,376.8 L940.3,362.4 L952.2,357.3 L964.0,310.3 L975.9,291.7 L987.8,274.9 L999.6,265.4 L1011.5,276.5 L1023.3,293.1 L1035.2,304.7 L1047.1,287.9 L1058.9,268.7 L1070.8,268.5 L1082.7,265.0 L1094.5,275.7 L1106.4,262.9 L1118.3,274.2 L1130.1,316.3 L1142.0,322.5" fill="none" stroke="#62d9ee" stroke-width="4" stroke-linecap="round" stroke-linejoin="round"/>
  <g>
    <line x1="1035.2" x2="1035.2" y1="100" y2="434" stroke="#18e59c" stroke-width="2" stroke-dasharray="7 7" opacity="0.8"/>
    <circle cx="1035.2" cy="306.0" r="8" fill="#071f1c" stroke="#18e59c" stroke-width="4"/>
    <text x="1030.0" y="288.0" text-anchor="middle" class="marker" fill="#18e59c">ENTRY | Jul 10 | $126.55</text>
  </g>
  
  <text x="86.0" y="472" text-anchor="middle" class="axis">Mar 16</text><text x="347.0" y="472" text-anchor="middle" class="axis">Apr 16</text><text x="619.9" y="472" text-anchor="middle" class="axis">May 19</text><text x="881.0" y="472" text-anchor="middle" class="axis">Jun 22</text><text x="1142.0" y="472" text-anchor="middle" class="axis">Jul 23</text>
  </svg>