<svg xmlns="http://www.w3.org/2000/svg" width="1200" height="500" viewBox="0 0 1200 500" role="img" aria-label="PLTR underlying price from entry">
  <rect width="1200" height="500" fill="#071f1c"/>
  <style>.head{fill:#f4fff9;font:800 27px Georgia,serif}.sub{fill:#9fc4bb;font:14px Arial,sans-serif}.axis{fill:#8eaaa3;font:12px Arial,sans-serif}.marker{font:800 12px Arial,sans-serif}</style>
  <text x="86" y="40" class="head">PLTR Underlying Price</text>
  <text x="86" y="66" class="sub">90 sessions | Entry marked; position remains open | Published option idea rank 5</text>
  <line x1="86" x2="1142" y1="100.0" y2="100.0" stroke="#1b4a42" stroke-width="1"/><text x="72" y="105.0" text-anchor="end" class="axis">$166.20</text><line x1="86" x2="1142" y1="183.5" y2="183.5" stroke="#1b4a42" stroke-width="1"/><text x="72" y="188.5" text-anchor="end" class="axis">$150.13</text><line x1="86" x2="1142" y1="267.0" y2="267.0" stroke="#1b4a42" stroke-width="1"/><text x="72" y="272.0" text-anchor="end" class="axis">$134.06</text><line x1="86" x2="1142" y1="350.5" y2="350.5" stroke="#1b4a42" stroke-width="1"/><text x="72" y="355.5" text-anchor="end" class="axis">$117.98</text><line x1="86" x2="1142" y1="434.0" y2="434.0" stroke="#1b4a42" stroke-width="1"/><text x="72" y="439.0" text-anchor="end" class="axis">$101.91</text>
  <path d="M86.0,147.0 L97.9,150.7 L109.7,178.2 L121.6,175.8 L133.5,166.0 L145.3,179.2 L157.2,170.0 L169.1,157.8 L180.9,169.8 L192.8,154.6 L204.7,180.6 L216.5,127.8 L228.4,159.3 L240.2,158.4 L252.1,196.8 L264.0,220.2 L275.8,248.8 L287.7,203.5 L299.6,202.4 L311.4,192.2 L323.3,194.9 L335.2,183.8 L347.0,232.2 L358.9,285.5 L370.8,298.1 L382.6,275.8 L394.5,258.5 L406.4,224.9 L418.2,221.8 L430.1,202.9 L442.0,205.5 L453.8,205.1 L465.7,170.5 L477.6,228.0 L489.4,220.1 L501.3,220.0 L513.1,230.0 L525.0,246.7 L536.9,240.7 L548.7,215.0 L560.6,204.8 L572.5,257.4 L584.3,268.4 L596.2,251.4 L608.1,247.5 L619.9,252.3 L631.8,256.9 L643.7,287.8 L655.5,268.7 L667.4,267.3 L679.3,261.4 L691.1,260.7 L703.0,250.9 L714.9,249.5 L726.7,252.3 L738.6,253.8 L750.4,275.0 L762.3,218.8 L774.2,150.2 L786.0,128.8 L797.9,172.9 L809.8,224.7 L821.6,227.3 L833.5,259.3 L845.4,254.5 L857.2,277.3 L869.1,287.0 L881.0,282.5 L892.8,298.5 L904.7,263.6 L916.6,271.2 L928.4,284.8 L940.3,296.0 L952.2,342.6 L964.0,357.2 L975.9,373.8 L987.8,406.2 L999.6,376.8 L1011.5,362.4 L1023.3,357.3 L1035.2,310.3 L1047.1,291.7 L1058.9,274.9 L1070.8,265.4 L1082.7,276.5 L1094.5,293.1 L1106.4,304.7 L1118.3,287.9 L1130.1,268.7 L1142.0,268.5 L1142.0,434.0 L86.0,434.0 Z" fill="#0f5949" opacity="0.28"/>
  <path d="M86.0,147.0 L97.9,150.7 L109.7,178.2 L121.6,175.8 L133.5,166.0 L145.3,179.2 L157.2,170.0 L169.1,157.8 L180.9,169.8 L192.8,154.6 L204.7,180.6 L216.5,127.8 L228.4,159.3 L240.2,158.4 L252.1,196.8 L264.0,220.2 L275.8,248.8 L287.7,203.5 L299.6,202.4 L311.4,192.2 L323.3,194.9 L335.2,183.8 L347.0,232.2 L358.9,285.5 L370.8,298.1 L382.6,275.8 L394.5,258.5 L406.4,224.9 L418.2,221.8 L430.1,202.9 L442.0,205.5 L453.8,205.1 L465.7,170.5 L477.6,228.0 L489.4,220.1 L501.3,220.0 L513.1,230.0 L525.0,246.7 L536.9,240.7 L548.7,215.0 L560.6,204.8 L572.5,257.4 L584.3,268.4 L596.2,251.4 L608.1,247.5 L619.9,252.3 L631.8,256.9 L643.7,287.8 L655.5,268.7 L667.4,267.3 L679.3,261.4 L691.1,260.7 L703.0,250.9 L714.9,249.5 L726.7,252.3 L738.6,253.8 L750.4,275.0 L762.3,218.8 L774.2,150.2 L786.0,128.8 L797.9,172.9 L809.8,224.7 L821.6,227.3 L833.5,259.3 L845.4,254.5 L857.2,277.3 L869.1,287.0 L881.0,282.5 L892.8,298.5 L904.7,263.6 L916.6,271.2 L928.4,284.8 L940.3,296.0 L952.2,342.6 L964.0,357.2 L975.9,373.8 L987.8,406.2 L999.6,376.8 L1011.5,362.4 L1023.3,357.3 L1035.2,310.3 L1047.1,291.7 L1058.9,274.9 L1070.8,265.4 L1082.7,276.5 L1094.5,293.1 L1106.4,304.7 L1118.3,287.9 L1130.1,268.7 L1142.0,268.5" fill="none" stroke="#62d9ee" stroke-width="4" stroke-linecap="round" stroke-linejoin="round"/>
  <g>
    <line x1="1106.4" x2="1106.4" y1="100" y2="434" stroke="#18e59c" stroke-width="2" stroke-dasharray="7 7" opacity="0.8"/>
    <circle cx="1106.4" cy="306.0" r="8" fill="#071f1c" stroke="#18e59c" stroke-width="4"/>
    <text x="1030.0" y="288.0" text-anchor="middle" class="marker" fill="#18e59c">ENTRY | Jul 10 | $126.55</text>
  </g>
  
  <text x="86.0" y="472" text-anchor="middle" class="axis">Mar 6</text><text x="347.0" y="472" text-anchor="middle" class="axis">Apr 8</text><text x="619.9" y="472" text-anchor="middle" class="axis">May 11</text><text x="881.0" y="472" text-anchor="middle" class="axis">Jun 11</text><text x="1142.0" y="472" text-anchor="middle" class="axis">Jul 15</text>
  </svg>