<svg xmlns="http://www.w3.org/2000/svg" width="1200" height="500" viewBox="0 0 1200 500" role="img" aria-label="PLTR underlying price from entry">
  <rect width="1200" height="500" fill="#071f1c"/>
  <style>.head{fill:#f4fff9;font:800 27px Georgia,serif}.sub{fill:#9fc4bb;font:14px Arial,sans-serif}.axis{fill:#8eaaa3;font:12px Arial,sans-serif}.marker{font:800 12px Arial,sans-serif}</style>
  <text x="86" y="40" class="head">PLTR Underlying Price</text>
  <text x="86" y="66" class="sub">90 sessions | Entry marked; position remains open | Published option idea rank 5</text>
  <line x1="86" x2="1142" y1="100.0" y2="100.0" stroke="#1b4a42" stroke-width="1"/><text x="72" y="105.0" text-anchor="end" class="axis">$166.20</text><line x1="86" x2="1142" y1="183.5" y2="183.5" stroke="#1b4a42" stroke-width="1"/><text x="72" y="188.5" text-anchor="end" class="axis">$150.13</text><line x1="86" x2="1142" y1="267.0" y2="267.0" stroke="#1b4a42" stroke-width="1"/><text x="72" y="272.0" text-anchor="end" class="axis">$134.06</text><line x1="86" x2="1142" y1="350.5" y2="350.5" stroke="#1b4a42" stroke-width="1"/><text x="72" y="355.5" text-anchor="end" class="axis">$117.98</text><line x1="86" x2="1142" y1="434.0" y2="434.0" stroke="#1b4a42" stroke-width="1"/><text x="72" y="439.0" text-anchor="end" class="axis">$101.91</text>
  <path d="M86.0,178.2 L97.9,175.8 L109.7,166.0 L121.6,179.2 L133.5,170.0 L145.3,157.8 L157.2,169.8 L169.1,154.6 L180.9,180.6 L192.8,127.8 L204.7,159.3 L216.5,158.4 L228.4,196.8 L240.2,220.2 L252.1,248.8 L264.0,203.5 L275.8,202.4 L287.7,192.2 L299.6,194.9 L311.4,183.8 L323.3,232.2 L335.2,285.5 L347.0,298.1 L358.9,275.8 L370.8,258.5 L382.6,224.9 L394.5,221.8 L406.4,202.9 L418.2,205.5 L430.1,205.1 L442.0,170.5 L453.8,228.0 L465.7,220.1 L477.6,220.0 L489.4,230.0 L501.3,246.7 L513.1,240.7 L525.0,215.0 L536.9,204.8 L548.7,257.4 L560.6,268.4 L572.5,251.4 L584.3,247.5 L596.2,252.3 L608.1,256.9 L619.9,287.8 L631.8,268.7 L643.7,267.3 L655.5,261.4 L667.4,260.7 L679.3,250.9 L691.1,249.5 L703.0,252.3 L714.9,253.8 L726.7,275.0 L738.6,218.8 L750.4,150.2 L762.3,128.8 L774.2,172.9 L786.0,224.7 L797.9,227.3 L809.8,259.3 L821.6,254.5 L833.5,277.3 L845.4,287.0 L857.2,282.5 L869.1,298.5 L881.0,263.6 L892.8,271.2 L904.7,284.8 L916.6,296.0 L928.4,342.6 L940.3,357.2 L952.2,373.8 L964.0,406.2 L975.9,376.8 L987.8,362.4 L999.6,357.3 L1011.5,310.3 L1023.3,291.7 L1035.2,274.9 L1047.1,265.4 L1058.9,276.5 L1070.8,293.1 L1082.7,304.7 L1094.5,287.9 L1106.4,268.7 L1118.3,268.5 L1130.1,265.0 L1142.0,275.7 L1142.0,434.0 L86.0,434.0 Z" fill="#0f5949" opacity="0.28"/>
  <path d="M86.0,178.2 L97.9,175.8 L109.7,166.0 L121.6,179.2 L133.5,170.0 L145.3,157.8 L157.2,169.8 L169.1,154.6 L180.9,180.6 L192.8,127.8 L204.7,159.3 L216.5,158.4 L228.4,196.8 L240.2,220.2 L252.1,248.8 L264.0,203.5 L275.8,202.4 L287.7,192.2 L299.6,194.9 L311.4,183.8 L323.3,232.2 L335.2,285.5 L347.0,298.1 L358.9,275.8 L370.8,258.5 L382.6,224.9 L394.5,221.8 L406.4,202.9 L418.2,205.5 L430.1,205.1 L442.0,170.5 L453.8,228.0 L465.7,220.1 L477.6,220.0 L489.4,230.0 L501.3,246.7 L513.1,240.7 L525.0,215.0 L536.9,204.8 L548.7,257.4 L560.6,268.4 L572.5,251.4 L584.3,247.5 L596.2,252.3 L608.1,256.9 L619.9,287.8 L631.8,268.7 L643.7,267.3 L655.5,261.4 L667.4,260.7 L679.3,250.9 L691.1,249.5 L703.0,252.3 L714.9,253.8 L726.7,275.0 L738.6,218.8 L750.4,150.2 L762.3,128.8 L774.2,172.9 L786.0,224.7 L797.9,227.3 L809.8,259.3 L821.6,254.5 L833.5,277.3 L845.4,287.0 L857.2,282.5 L869.1,298.5 L881.0,263.6 L892.8,271.2 L904.7,284.8 L916.6,296.0 L928.4,342.6 L940.3,357.2 L952.2,373.8 L964.0,406.2 L975.9,376.8 L987.8,362.4 L999.6,357.3 L1011.5,310.3 L1023.3,291.7 L1035.2,274.9 L1047.1,265.4 L1058.9,276.5 L1070.8,293.1 L1082.7,304.7 L1094.5,287.9 L1106.4,268.7 L1118.3,268.5 L1130.1,265.0 L1142.0,275.7" fill="none" stroke="#62d9ee" stroke-width="4" stroke-linecap="round" stroke-linejoin="round"/>
  <g>
    <line x1="1082.7" x2="1082.7" y1="100" y2="434" stroke="#18e59c" stroke-width="2" stroke-dasharray="7 7" opacity="0.8"/>
    <circle cx="1082.7" cy="306.0" r="8" fill="#071f1c" stroke="#18e59c" stroke-width="4"/>
    <text x="1030.0" y="288.0" text-anchor="middle" class="marker" fill="#18e59c">ENTRY | Jul 10 | $126.55</text>
  </g>
  
  <text x="86.0" y="472" text-anchor="middle" class="axis">Mar 10</text><text x="347.0" y="472" text-anchor="middle" class="axis">Apr 10</text><text x="619.9" y="472" text-anchor="middle" class="axis">May 13</text><text x="881.0" y="472" text-anchor="middle" class="axis">Jun 15</text><text x="1142.0" y="472" text-anchor="middle" class="axis">Jul 17</text>
  </svg>