<svg xmlns="http://www.w3.org/2000/svg" width="1200" height="500" viewBox="0 0 1200 500" role="img" aria-label="PLTR underlying price from entry">
  <rect width="1200" height="500" fill="#071f1c"/>
  <style>.head{fill:#f4fff9;font:800 27px Georgia,serif}.sub{fill:#9fc4bb;font:14px Arial,sans-serif}.axis{fill:#8eaaa3;font:12px Arial,sans-serif}.marker{font:800 12px Arial,sans-serif}</style>
  <text x="86" y="40" class="head">PLTR Underlying Price</text>
  <text x="86" y="66" class="sub">90 sessions | Entry marked; position remains open | Published option idea rank 5</text>
  <line x1="86" x2="1142" y1="100.0" y2="100.0" stroke="#1b4a42" stroke-width="1"/><text x="72" y="105.0" text-anchor="end" class="axis">$166.20</text><line x1="86" x2="1142" y1="183.5" y2="183.5" stroke="#1b4a42" stroke-width="1"/><text x="72" y="188.5" text-anchor="end" class="axis">$150.13</text><line x1="86" x2="1142" y1="267.0" y2="267.0" stroke="#1b4a42" stroke-width="1"/><text x="72" y="272.0" text-anchor="end" class="axis">$134.06</text><line x1="86" x2="1142" y1="350.5" y2="350.5" stroke="#1b4a42" stroke-width="1"/><text x="72" y="355.5" text-anchor="end" class="axis">$117.98</text><line x1="86" x2="1142" y1="434.0" y2="434.0" stroke="#1b4a42" stroke-width="1"/><text x="72" y="439.0" text-anchor="end" class="axis">$101.91</text>
  <path d="M86.0,170.3 L97.9,147.0 L109.7,150.7 L121.6,178.2 L133.5,175.8 L145.3,166.0 L157.2,179.2 L169.1,170.0 L180.9,157.8 L192.8,169.8 L204.7,154.6 L216.5,180.6 L228.4,127.8 L240.2,159.3 L252.1,158.4 L264.0,196.8 L275.8,220.2 L287.7,248.8 L299.6,203.5 L311.4,202.4 L323.3,192.2 L335.2,194.9 L347.0,183.8 L358.9,232.2 L370.8,285.5 L382.6,298.1 L394.5,275.8 L406.4,258.5 L418.2,224.9 L430.1,221.8 L442.0,202.9 L453.8,205.5 L465.7,205.1 L477.6,170.5 L489.4,228.0 L501.3,220.1 L513.1,220.0 L525.0,230.0 L536.9,246.7 L548.7,240.7 L560.6,215.0 L572.5,204.8 L584.3,257.4 L596.2,268.4 L608.1,251.4 L619.9,247.5 L631.8,252.3 L643.7,256.9 L655.5,287.8 L667.4,268.7 L679.3,267.3 L691.1,261.4 L703.0,260.7 L714.9,250.9 L726.7,249.5 L738.6,252.3 L750.4,253.8 L762.3,275.0 L774.2,218.8 L786.0,150.2 L797.9,128.8 L809.8,172.9 L821.6,224.7 L833.5,227.3 L845.4,259.3 L857.2,254.5 L869.1,277.3 L881.0,287.0 L892.8,282.5 L904.7,298.5 L916.6,263.6 L928.4,271.2 L940.3,284.8 L952.2,296.0 L964.0,342.6 L975.9,357.2 L987.8,373.8 L999.6,406.2 L1011.5,376.8 L1023.3,362.4 L1035.2,357.3 L1047.1,310.3 L1058.9,291.7 L1070.8,274.9 L1082.7,265.4 L1094.5,276.5 L1106.4,293.1 L1118.3,304.7 L1130.1,287.9 L1142.0,268.7 L1142.0,434.0 L86.0,434.0 Z" fill="#0f5949" opacity="0.28"/>
  <path d="M86.0,170.3 L97.9,147.0 L109.7,150.7 L121.6,178.2 L133.5,175.8 L145.3,166.0 L157.2,179.2 L169.1,170.0 L180.9,157.8 L192.8,169.8 L204.7,154.6 L216.5,180.6 L228.4,127.8 L240.2,159.3 L252.1,158.4 L264.0,196.8 L275.8,220.2 L287.7,248.8 L299.6,203.5 L311.4,202.4 L323.3,192.2 L335.2,194.9 L347.0,183.8 L358.9,232.2 L370.8,285.5 L382.6,298.1 L394.5,275.8 L406.4,258.5 L418.2,224.9 L430.1,221.8 L442.0,202.9 L453.8,205.5 L465.7,205.1 L477.6,170.5 L489.4,228.0 L501.3,220.1 L513.1,220.0 L525.0,230.0 L536.9,246.7 L548.7,240.7 L560.6,215.0 L572.5,204.8 L584.3,257.4 L596.2,268.4 L608.1,251.4 L619.9,247.5 L631.8,252.3 L643.7,256.9 L655.5,287.8 L667.4,268.7 L679.3,267.3 L691.1,261.4 L703.0,260.7 L714.9,250.9 L726.7,249.5 L738.6,252.3 L750.4,253.8 L762.3,275.0 L774.2,218.8 L786.0,150.2 L797.9,128.8 L809.8,172.9 L821.6,224.7 L833.5,227.3 L845.4,259.3 L857.2,254.5 L869.1,277.3 L881.0,287.0 L892.8,282.5 L904.7,298.5 L916.6,263.6 L928.4,271.2 L940.3,284.8 L952.2,296.0 L964.0,342.6 L975.9,357.2 L987.8,373.8 L999.6,406.2 L1011.5,376.8 L1023.3,362.4 L1035.2,357.3 L1047.1,310.3 L1058.9,291.7 L1070.8,274.9 L1082.7,265.4 L1094.5,276.5 L1106.4,293.1 L1118.3,304.7 L1130.1,287.9 L1142.0,268.7" fill="none" stroke="#62d9ee" stroke-width="4" stroke-linecap="round" stroke-linejoin="round"/>
  <g>
    <line x1="1118.3" x2="1118.3" y1="100" y2="434" stroke="#18e59c" stroke-width="2" stroke-dasharray="7 7" opacity="0.8"/>
    <circle cx="1118.3" cy="306.0" r="8" fill="#071f1c" stroke="#18e59c" stroke-width="4"/>
    <text x="1030.0" y="288.0" text-anchor="middle" class="marker" fill="#18e59c">ENTRY | Jul 10 | $126.55</text>
  </g>
  
  <text x="86.0" y="472" text-anchor="middle" class="axis">Mar 5</text><text x="347.0" y="472" text-anchor="middle" class="axis">Apr 7</text><text x="619.9" y="472" text-anchor="middle" class="axis">May 8</text><text x="881.0" y="472" text-anchor="middle" class="axis">Jun 10</text><text x="1142.0" y="472" text-anchor="middle" class="axis">Jul 14</text>
  </svg>