<svg xmlns="http://www.w3.org/2000/svg" width="1200" height="500" viewBox="0 0 1200 500" role="img" aria-label="PLTR underlying price from entry">
  <rect width="1200" height="500" fill="#071f1c"/>
  <style>.head{fill:#f4fff9;font:800 27px Georgia,serif}.sub{fill:#9fc4bb;font:14px Arial,sans-serif}.axis{fill:#8eaaa3;font:12px Arial,sans-serif}.marker{font:800 12px Arial,sans-serif}</style>
  <text x="86" y="40" class="head">PLTR Underlying Price</text>
  <text x="86" y="66" class="sub">90 sessions | Entry marked; position remains open | Published option idea rank 5</text>
  <line x1="86" x2="1142" y1="100.0" y2="100.0" stroke="#1b4a42" stroke-width="1"/><text x="72" y="105.0" text-anchor="end" class="axis">$166.20</text><line x1="86" x2="1142" y1="183.5" y2="183.5" stroke="#1b4a42" stroke-width="1"/><text x="72" y="188.5" text-anchor="end" class="axis">$150.13</text><line x1="86" x2="1142" y1="267.0" y2="267.0" stroke="#1b4a42" stroke-width="1"/><text x="72" y="272.0" text-anchor="end" class="axis">$134.06</text><line x1="86" x2="1142" y1="350.5" y2="350.5" stroke="#1b4a42" stroke-width="1"/><text x="72" y="355.5" text-anchor="end" class="axis">$117.98</text><line x1="86" x2="1142" y1="434.0" y2="434.0" stroke="#1b4a42" stroke-width="1"/><text x="72" y="439.0" text-anchor="end" class="axis">$101.91</text>
  <path d="M86.0,179.2 L97.9,170.0 L109.7,157.8 L121.6,169.8 L133.5,154.6 L145.3,180.6 L157.2,127.8 L169.1,159.3 L180.9,158.4 L192.8,196.8 L204.7,220.2 L216.5,248.8 L228.4,203.5 L240.2,202.4 L252.1,192.2 L264.0,194.9 L275.8,183.8 L287.7,232.2 L299.6,285.5 L311.4,298.1 L323.3,275.8 L335.2,258.5 L347.0,224.9 L358.9,221.8 L370.8,202.9 L382.6,205.5 L394.5,205.1 L406.4,170.5 L418.2,228.0 L430.1,220.1 L442.0,220.0 L453.8,230.0 L465.7,246.7 L477.6,240.7 L489.4,215.0 L501.3,204.8 L513.1,257.4 L525.0,268.4 L536.9,251.4 L548.7,247.5 L560.6,252.3 L572.5,256.9 L584.3,287.8 L596.2,268.7 L608.1,267.3 L619.9,261.4 L631.8,260.7 L643.7,250.9 L655.5,249.5 L667.4,252.3 L679.3,253.8 L691.1,275.0 L703.0,218.8 L714.9,150.2 L726.7,128.8 L738.6,172.9 L750.4,224.7 L762.3,227.3 L774.2,259.3 L786.0,254.5 L797.9,277.3 L809.8,287.0 L821.6,282.5 L833.5,298.5 L845.4,263.6 L857.2,271.2 L869.1,284.8 L881.0,296.0 L892.8,342.6 L904.7,357.2 L916.6,373.8 L928.4,406.2 L940.3,376.8 L952.2,362.4 L964.0,357.3 L975.9,310.3 L987.8,291.7 L999.6,274.9 L1011.5,265.4 L1023.3,276.5 L1035.2,293.1 L1047.1,304.7 L1058.9,287.9 L1070.8,268.7 L1082.7,268.5 L1094.5,265.0 L1106.4,275.7 L1118.3,262.9 L1130.1,274.2 L1142.0,316.3 L1142.0,434.0 L86.0,434.0 Z" fill="#0f5949" opacity="0.28"/>
  <path d="M86.0,179.2 L97.9,170.0 L109.7,157.8 L121.6,169.8 L133.5,154.6 L145.3,180.6 L157.2,127.8 L169.1,159.3 L180.9,158.4 L192.8,196.8 L204.7,220.2 L216.5,248.8 L228.4,203.5 L240.2,202.4 L252.1,192.2 L264.0,194.9 L275.8,183.8 L287.7,232.2 L299.6,285.5 L311.4,298.1 L323.3,275.8 L335.2,258.5 L347.0,224.9 L358.9,221.8 L370.8,202.9 L382.6,205.5 L394.5,205.1 L406.4,170.5 L418.2,228.0 L430.1,220.1 L442.0,220.0 L453.8,230.0 L465.7,246.7 L477.6,240.7 L489.4,215.0 L501.3,204.8 L513.1,257.4 L525.0,268.4 L536.9,251.4 L548.7,247.5 L560.6,252.3 L572.5,256.9 L584.3,287.8 L596.2,268.7 L608.1,267.3 L619.9,261.4 L631.8,260.7 L643.7,250.9 L655.5,249.5 L667.4,252.3 L679.3,253.8 L691.1,275.0 L703.0,218.8 L714.9,150.2 L726.7,128.8 L738.6,172.9 L750.4,224.7 L762.3,227.3 L774.2,259.3 L786.0,254.5 L797.9,277.3 L809.8,287.0 L821.6,282.5 L833.5,298.5 L845.4,263.6 L857.2,271.2 L869.1,284.8 L881.0,296.0 L892.8,342.6 L904.7,357.2 L916.6,373.8 L928.4,406.2 L940.3,376.8 L952.2,362.4 L964.0,357.3 L975.9,310.3 L987.8,291.7 L999.6,274.9 L1011.5,265.4 L1023.3,276.5 L1035.2,293.1 L1047.1,304.7 L1058.9,287.9 L1070.8,268.7 L1082.7,268.5 L1094.5,265.0 L1106.4,275.7 L1118.3,262.9 L1130.1,274.2 L1142.0,316.3" fill="none" stroke="#62d9ee" stroke-width="4" stroke-linecap="round" stroke-linejoin="round"/>
  <g>
    <line x1="1047.1" x2="1047.1" y1="100" y2="434" stroke="#18e59c" stroke-width="2" stroke-dasharray="7 7" opacity="0.8"/>
    <circle cx="1047.1" cy="306.0" r="8" fill="#071f1c" stroke="#18e59c" stroke-width="4"/>
    <text x="1030.0" y="288.0" text-anchor="middle" class="marker" fill="#18e59c">ENTRY | Jul 10 | $126.55</text>
  </g>
  
  <text x="86.0" y="472" text-anchor="middle" class="axis">Mar 13</text><text x="347.0" y="472" text-anchor="middle" class="axis">Apr 15</text><text x="619.9" y="472" text-anchor="middle" class="axis">May 18</text><text x="881.0" y="472" text-anchor="middle" class="axis">Jun 18</text><text x="1142.0" y="472" text-anchor="middle" class="axis">Jul 22</text>
  </svg>