<svg xmlns="http://www.w3.org/2000/svg" width="1200" height="500" viewBox="0 0 1200 500" role="img" aria-label="PLTR underlying price from entry">
  <rect width="1200" height="500" fill="#071f1c"/>
  <style>.head{fill:#f4fff9;font:800 27px Georgia,serif}.sub{fill:#9fc4bb;font:14px Arial,sans-serif}.axis{fill:#8eaaa3;font:12px Arial,sans-serif}.marker{font:800 12px Arial,sans-serif}</style>
  <text x="86" y="40" class="head">PLTR Underlying Price</text>
  <text x="86" y="66" class="sub">90 sessions | Entry marked; position remains open | Published option idea rank 5</text>
  <line x1="86" x2="1142" y1="100.0" y2="100.0" stroke="#1b4a42" stroke-width="1"/><text x="72" y="105.0" text-anchor="end" class="axis">$166.20</text><line x1="86" x2="1142" y1="183.5" y2="183.5" stroke="#1b4a42" stroke-width="1"/><text x="72" y="188.5" text-anchor="end" class="axis">$150.13</text><line x1="86" x2="1142" y1="267.0" y2="267.0" stroke="#1b4a42" stroke-width="1"/><text x="72" y="272.0" text-anchor="end" class="axis">$134.06</text><line x1="86" x2="1142" y1="350.5" y2="350.5" stroke="#1b4a42" stroke-width="1"/><text x="72" y="355.5" text-anchor="end" class="axis">$117.98</text><line x1="86" x2="1142" y1="434.0" y2="434.0" stroke="#1b4a42" stroke-width="1"/><text x="72" y="439.0" text-anchor="end" class="axis">$101.91</text>
  <path d="M86.0,198.6 L97.9,167.6 L109.7,170.3 L121.6,147.0 L133.5,150.7 L145.3,178.2 L157.2,175.8 L169.1,166.0 L180.9,179.2 L192.8,170.0 L204.7,157.8 L216.5,169.8 L228.4,154.6 L240.2,180.6 L252.1,127.8 L264.0,159.3 L275.8,158.4 L287.7,196.8 L299.6,220.2 L311.4,248.8 L323.3,203.5 L335.2,202.4 L347.0,192.2 L358.9,194.9 L370.8,183.8 L382.6,232.2 L394.5,285.5 L406.4,298.1 L418.2,275.8 L430.1,258.5 L442.0,224.9 L453.8,221.8 L465.7,202.9 L477.6,205.5 L489.4,205.1 L501.3,170.5 L513.1,228.0 L525.0,220.1 L536.9,220.0 L548.7,230.0 L560.6,246.7 L572.5,240.7 L584.3,215.0 L596.2,204.8 L608.1,257.4 L619.9,268.4 L631.8,251.4 L643.7,247.5 L655.5,252.3 L667.4,256.9 L679.3,287.8 L691.1,268.7 L703.0,267.3 L714.9,261.4 L726.7,260.7 L738.6,250.9 L750.4,249.5 L762.3,252.3 L774.2,253.8 L786.0,275.0 L797.9,218.8 L809.8,150.2 L821.6,128.8 L833.5,172.9 L845.4,224.7 L857.2,227.3 L869.1,259.3 L881.0,254.5 L892.8,277.3 L904.7,287.0 L916.6,282.5 L928.4,298.5 L940.3,263.6 L952.2,271.2 L964.0,284.8 L975.9,296.0 L987.8,342.6 L999.6,357.2 L1011.5,373.8 L1023.3,406.2 L1035.2,376.8 L1047.1,362.4 L1058.9,357.3 L1070.8,310.3 L1082.7,291.7 L1094.5,274.9 L1106.4,265.4 L1118.3,276.5 L1130.1,293.1 L1142.0,306.0 L1142.0,434.0 L86.0,434.0 Z" fill="#0f5949" opacity="0.28"/>
  <path d="M86.0,198.6 L97.9,167.6 L109.7,170.3 L121.6,147.0 L133.5,150.7 L145.3,178.2 L157.2,175.8 L169.1,166.0 L180.9,179.2 L192.8,170.0 L204.7,157.8 L216.5,169.8 L228.4,154.6 L240.2,180.6 L252.1,127.8 L264.0,159.3 L275.8,158.4 L287.7,196.8 L299.6,220.2 L311.4,248.8 L323.3,203.5 L335.2,202.4 L347.0,192.2 L358.9,194.9 L370.8,183.8 L382.6,232.2 L394.5,285.5 L406.4,298.1 L418.2,275.8 L430.1,258.5 L442.0,224.9 L453.8,221.8 L465.7,202.9 L477.6,205.5 L489.4,205.1 L501.3,170.5 L513.1,228.0 L525.0,220.1 L536.9,220.0 L548.7,230.0 L560.6,246.7 L572.5,240.7 L584.3,215.0 L596.2,204.8 L608.1,257.4 L619.9,268.4 L631.8,251.4 L643.7,247.5 L655.5,252.3 L667.4,256.9 L679.3,287.8 L691.1,268.7 L703.0,267.3 L714.9,261.4 L726.7,260.7 L738.6,250.9 L750.4,249.5 L762.3,252.3 L774.2,253.8 L786.0,275.0 L797.9,218.8 L809.8,150.2 L821.6,128.8 L833.5,172.9 L845.4,224.7 L857.2,227.3 L869.1,259.3 L881.0,254.5 L892.8,277.3 L904.7,287.0 L916.6,282.5 L928.4,298.5 L940.3,263.6 L952.2,271.2 L964.0,284.8 L975.9,296.0 L987.8,342.6 L999.6,357.2 L1011.5,373.8 L1023.3,406.2 L1035.2,376.8 L1047.1,362.4 L1058.9,357.3 L1070.8,310.3 L1082.7,291.7 L1094.5,274.9 L1106.4,265.4 L1118.3,276.5 L1130.1,293.1 L1142.0,306.0" fill="none" stroke="#62d9ee" stroke-width="4" stroke-linecap="round" stroke-linejoin="round"/>
  <g>
    <line x1="1142.0" x2="1142.0" y1="100" y2="434" stroke="#18e59c" stroke-width="2" stroke-dasharray="7 7" opacity="0.8"/>
    <circle cx="1142.0" cy="306.0" r="8" fill="#071f1c" stroke="#18e59c" stroke-width="4"/>
    <text x="1030.0" y="288.0" text-anchor="middle" class="marker" fill="#18e59c">ENTRY | Jul 10 | $126.55</text>
  </g>
  
  <text x="86.0" y="472" text-anchor="middle" class="axis">Mar 3</text><text x="347.0" y="472" text-anchor="middle" class="axis">Apr 2</text><text x="619.9" y="472" text-anchor="middle" class="axis">May 6</text><text x="881.0" y="472" text-anchor="middle" class="axis">Jun 8</text><text x="1142.0" y="472" text-anchor="middle" class="axis">Jul 10</text>
  </svg>