<svg xmlns="http://www.w3.org/2000/svg" width="1200" height="500" viewBox="0 0 1200 500" role="img" aria-label="PLTR underlying price from entry">
  <rect width="1200" height="500" fill="#071f1c"/>
  <style>.head{fill:#f4fff9;font:800 27px Georgia,serif}.sub{fill:#9fc4bb;font:14px Arial,sans-serif}.axis{fill:#8eaaa3;font:12px Arial,sans-serif}.marker{font:800 12px Arial,sans-serif}</style>
  <text x="86" y="40" class="head">PLTR Underlying Price</text>
  <text x="86" y="66" class="sub">90 sessions | Entry marked; position remains open | Published option idea rank 5</text>
  <line x1="86" x2="1142" y1="100.0" y2="100.0" stroke="#1b4a42" stroke-width="1"/><text x="72" y="105.0" text-anchor="end" class="axis">$166.20</text><line x1="86" x2="1142" y1="183.5" y2="183.5" stroke="#1b4a42" stroke-width="1"/><text x="72" y="188.5" text-anchor="end" class="axis">$150.13</text><line x1="86" x2="1142" y1="267.0" y2="267.0" stroke="#1b4a42" stroke-width="1"/><text x="72" y="272.0" text-anchor="end" class="axis">$134.06</text><line x1="86" x2="1142" y1="350.5" y2="350.5" stroke="#1b4a42" stroke-width="1"/><text x="72" y="355.5" text-anchor="end" class="axis">$117.98</text><line x1="86" x2="1142" y1="434.0" y2="434.0" stroke="#1b4a42" stroke-width="1"/><text x="72" y="439.0" text-anchor="end" class="axis">$101.91</text>
  <path d="M86.0,150.7 L97.9,178.2 L109.7,175.8 L121.6,166.0 L133.5,179.2 L145.3,170.0 L157.2,157.8 L169.1,169.8 L180.9,154.6 L192.8,180.6 L204.7,127.8 L216.5,159.3 L228.4,158.4 L240.2,196.8 L252.1,220.2 L264.0,248.8 L275.8,203.5 L287.7,202.4 L299.6,192.2 L311.4,194.9 L323.3,183.8 L335.2,232.2 L347.0,285.5 L358.9,298.1 L370.8,275.8 L382.6,258.5 L394.5,224.9 L406.4,221.8 L418.2,202.9 L430.1,205.5 L442.0,205.1 L453.8,170.5 L465.7,228.0 L477.6,220.1 L489.4,220.0 L501.3,230.0 L513.1,246.7 L525.0,240.7 L536.9,215.0 L548.7,204.8 L560.6,257.4 L572.5,268.4 L584.3,251.4 L596.2,247.5 L608.1,252.3 L619.9,256.9 L631.8,287.8 L643.7,268.7 L655.5,267.3 L667.4,261.4 L679.3,260.7 L691.1,250.9 L703.0,249.5 L714.9,252.3 L726.7,253.8 L738.6,275.0 L750.4,218.8 L762.3,150.2 L774.2,128.8 L786.0,172.9 L797.9,224.7 L809.8,227.3 L821.6,259.3 L833.5,254.5 L845.4,277.3 L857.2,287.0 L869.1,282.5 L881.0,298.5 L892.8,263.6 L904.7,271.2 L916.6,284.8 L928.4,296.0 L940.3,342.6 L952.2,357.2 L964.0,373.8 L975.9,406.2 L987.8,376.8 L999.6,362.4 L1011.5,357.3 L1023.3,310.3 L1035.2,291.7 L1047.1,274.9 L1058.9,265.4 L1070.8,276.5 L1082.7,293.1 L1094.5,304.7 L1106.4,287.9 L1118.3,268.7 L1130.1,268.5 L1142.0,265.0 L1142.0,434.0 L86.0,434.0 Z" fill="#0f5949" opacity="0.28"/>
  <path d="M86.0,150.7 L97.9,178.2 L109.7,175.8 L121.6,166.0 L133.5,179.2 L145.3,170.0 L157.2,157.8 L169.1,169.8 L180.9,154.6 L192.8,180.6 L204.7,127.8 L216.5,159.3 L228.4,158.4 L240.2,196.8 L252.1,220.2 L264.0,248.8 L275.8,203.5 L287.7,202.4 L299.6,192.2 L311.4,194.9 L323.3,183.8 L335.2,232.2 L347.0,285.5 L358.9,298.1 L370.8,275.8 L382.6,258.5 L394.5,224.9 L406.4,221.8 L418.2,202.9 L430.1,205.5 L442.0,205.1 L453.8,170.5 L465.7,228.0 L477.6,220.1 L489.4,220.0 L501.3,230.0 L513.1,246.7 L525.0,240.7 L536.9,215.0 L548.7,204.8 L560.6,257.4 L572.5,268.4 L584.3,251.4 L596.2,247.5 L608.1,252.3 L619.9,256.9 L631.8,287.8 L643.7,268.7 L655.5,267.3 L667.4,261.4 L679.3,260.7 L691.1,250.9 L703.0,249.5 L714.9,252.3 L726.7,253.8 L738.6,275.0 L750.4,218.8 L762.3,150.2 L774.2,128.8 L786.0,172.9 L797.9,224.7 L809.8,227.3 L821.6,259.3 L833.5,254.5 L845.4,277.3 L857.2,287.0 L869.1,282.5 L881.0,298.5 L892.8,263.6 L904.7,271.2 L916.6,284.8 L928.4,296.0 L940.3,342.6 L952.2,357.2 L964.0,373.8 L975.9,406.2 L987.8,376.8 L999.6,362.4 L1011.5,357.3 L1023.3,310.3 L1035.2,291.7 L1047.1,274.9 L1058.9,265.4 L1070.8,276.5 L1082.7,293.1 L1094.5,304.7 L1106.4,287.9 L1118.3,268.7 L1130.1,268.5 L1142.0,265.0" fill="none" stroke="#62d9ee" stroke-width="4" stroke-linecap="round" stroke-linejoin="round"/>
  <g>
    <line x1="1094.5" x2="1094.5" y1="100" y2="434" stroke="#18e59c" stroke-width="2" stroke-dasharray="7 7" opacity="0.8"/>
    <circle cx="1094.5" cy="306.0" r="8" fill="#071f1c" stroke="#18e59c" stroke-width="4"/>
    <text x="1030.0" y="288.0" text-anchor="middle" class="marker" fill="#18e59c">ENTRY | Jul 10 | $126.55</text>
  </g>
  
  <text x="86.0" y="472" text-anchor="middle" class="axis">Mar 9</text><text x="347.0" y="472" text-anchor="middle" class="axis">Apr 9</text><text x="619.9" y="472" text-anchor="middle" class="axis">May 12</text><text x="881.0" y="472" text-anchor="middle" class="axis">Jun 12</text><text x="1142.0" y="472" text-anchor="middle" class="axis">Jul 16</text>
  </svg>