<svg xmlns="http://www.w3.org/2000/svg" width="1200" height="500" viewBox="0 0 1200 500" role="img" aria-label="PLTR underlying price from entry">
  <rect width="1200" height="500" fill="#071f1c"/>
  <style>.head{fill:#f4fff9;font:800 27px Georgia,serif}.sub{fill:#9fc4bb;font:14px Arial,sans-serif}.axis{fill:#8eaaa3;font:12px Arial,sans-serif}.marker{font:800 12px Arial,sans-serif}</style>
  <text x="86" y="40" class="head">PLTR Underlying Price</text>
  <text x="86" y="66" class="sub">90 sessions | Entry marked; position remains open | Published option idea rank 5</text>
  <line x1="86" x2="1142" y1="100.0" y2="100.0" stroke="#1b4a42" stroke-width="1"/><text x="72" y="105.0" text-anchor="end" class="axis">$166.20</text><line x1="86" x2="1142" y1="183.5" y2="183.5" stroke="#1b4a42" stroke-width="1"/><text x="72" y="188.5" text-anchor="end" class="axis">$150.13</text><line x1="86" x2="1142" y1="267.0" y2="267.0" stroke="#1b4a42" stroke-width="1"/><text x="72" y="272.0" text-anchor="end" class="axis">$134.06</text><line x1="86" x2="1142" y1="350.5" y2="350.5" stroke="#1b4a42" stroke-width="1"/><text x="72" y="355.5" text-anchor="end" class="axis">$117.98</text><line x1="86" x2="1142" y1="434.0" y2="434.0" stroke="#1b4a42" stroke-width="1"/><text x="72" y="439.0" text-anchor="end" class="axis">$101.91</text>
  <path d="M86.0,175.8 L97.9,166.0 L109.7,179.2 L121.6,170.0 L133.5,157.8 L145.3,169.8 L157.2,154.6 L169.1,180.6 L180.9,127.8 L192.8,159.3 L204.7,158.4 L216.5,196.8 L228.4,220.2 L240.2,248.8 L252.1,203.5 L264.0,202.4 L275.8,192.2 L287.7,194.9 L299.6,183.8 L311.4,232.2 L323.3,285.5 L335.2,298.1 L347.0,275.8 L358.9,258.5 L370.8,224.9 L382.6,221.8 L394.5,202.9 L406.4,205.5 L418.2,205.1 L430.1,170.5 L442.0,228.0 L453.8,220.1 L465.7,220.0 L477.6,230.0 L489.4,246.7 L501.3,240.7 L513.1,215.0 L525.0,204.8 L536.9,257.4 L548.7,268.4 L560.6,251.4 L572.5,247.5 L584.3,252.3 L596.2,256.9 L608.1,287.8 L619.9,268.7 L631.8,267.3 L643.7,261.4 L655.5,260.7 L667.4,250.9 L679.3,249.5 L691.1,252.3 L703.0,253.8 L714.9,275.0 L726.7,218.8 L738.6,150.2 L750.4,128.8 L762.3,172.9 L774.2,224.7 L786.0,227.3 L797.9,259.3 L809.8,254.5 L821.6,277.3 L833.5,287.0 L845.4,282.5 L857.2,298.5 L869.1,263.6 L881.0,271.2 L892.8,284.8 L904.7,296.0 L916.6,342.6 L928.4,357.2 L940.3,373.8 L952.2,406.2 L964.0,376.8 L975.9,362.4 L987.8,357.3 L999.6,310.3 L1011.5,291.7 L1023.3,274.9 L1035.2,265.4 L1047.1,276.5 L1058.9,293.1 L1070.8,304.7 L1082.7,287.9 L1094.5,268.7 L1106.4,268.5 L1118.3,265.0 L1130.1,275.7 L1142.0,262.9 L1142.0,434.0 L86.0,434.0 Z" fill="#0f5949" opacity="0.28"/>
  <path d="M86.0,175.8 L97.9,166.0 L109.7,179.2 L121.6,170.0 L133.5,157.8 L145.3,169.8 L157.2,154.6 L169.1,180.6 L180.9,127.8 L192.8,159.3 L204.7,158.4 L216.5,196.8 L228.4,220.2 L240.2,248.8 L252.1,203.5 L264.0,202.4 L275.8,192.2 L287.7,194.9 L299.6,183.8 L311.4,232.2 L323.3,285.5 L335.2,298.1 L347.0,275.8 L358.9,258.5 L370.8,224.9 L382.6,221.8 L394.5,202.9 L406.4,205.5 L418.2,205.1 L430.1,170.5 L442.0,228.0 L453.8,220.1 L465.7,220.0 L477.6,230.0 L489.4,246.7 L501.3,240.7 L513.1,215.0 L525.0,204.8 L536.9,257.4 L548.7,268.4 L560.6,251.4 L572.5,247.5 L584.3,252.3 L596.2,256.9 L608.1,287.8 L619.9,268.7 L631.8,267.3 L643.7,261.4 L655.5,260.7 L667.4,250.9 L679.3,249.5 L691.1,252.3 L703.0,253.8 L714.9,275.0 L726.7,218.8 L738.6,150.2 L750.4,128.8 L762.3,172.9 L774.2,224.7 L786.0,227.3 L797.9,259.3 L809.8,254.5 L821.6,277.3 L833.5,287.0 L845.4,282.5 L857.2,298.5 L869.1,263.6 L881.0,271.2 L892.8,284.8 L904.7,296.0 L916.6,342.6 L928.4,357.2 L940.3,373.8 L952.2,406.2 L964.0,376.8 L975.9,362.4 L987.8,357.3 L999.6,310.3 L1011.5,291.7 L1023.3,274.9 L1035.2,265.4 L1047.1,276.5 L1058.9,293.1 L1070.8,304.7 L1082.7,287.9 L1094.5,268.7 L1106.4,268.5 L1118.3,265.0 L1130.1,275.7 L1142.0,262.9" fill="none" stroke="#62d9ee" stroke-width="4" stroke-linecap="round" stroke-linejoin="round"/>
  <g>
    <line x1="1070.8" x2="1070.8" y1="100" y2="434" stroke="#18e59c" stroke-width="2" stroke-dasharray="7 7" opacity="0.8"/>
    <circle cx="1070.8" cy="306.0" r="8" fill="#071f1c" stroke="#18e59c" stroke-width="4"/>
    <text x="1030.0" y="288.0" text-anchor="middle" class="marker" fill="#18e59c">ENTRY | Jul 10 | $126.55</text>
  </g>
  
  <text x="86.0" y="472" text-anchor="middle" class="axis">Mar 11</text><text x="347.0" y="472" text-anchor="middle" class="axis">Apr 13</text><text x="619.9" y="472" text-anchor="middle" class="axis">May 14</text><text x="881.0" y="472" text-anchor="middle" class="axis">Jun 16</text><text x="1142.0" y="472" text-anchor="middle" class="axis">Jul 20</text>
  </svg>