<svg xmlns="http://www.w3.org/2000/svg" width="1200" height="500" viewBox="0 0 1200 500" role="img" aria-label="PLTR underlying price from entry">
  <rect width="1200" height="500" fill="#071f1c"/>
  <style>.head{fill:#f4fff9;font:800 27px Georgia,serif}.sub{fill:#9fc4bb;font:14px Arial,sans-serif}.axis{fill:#8eaaa3;font:12px Arial,sans-serif}.marker{font:800 12px Arial,sans-serif}</style>
  <text x="86" y="40" class="head">PLTR Underlying Price</text>
  <text x="86" y="66" class="sub">90 sessions | Entry marked; position remains open | Published option idea rank 5</text>
  <line x1="86" x2="1142" y1="100.0" y2="100.0" stroke="#1b4a42" stroke-width="1"/><text x="72" y="105.0" text-anchor="end" class="axis">$166.20</text><line x1="86" x2="1142" y1="183.5" y2="183.5" stroke="#1b4a42" stroke-width="1"/><text x="72" y="188.5" text-anchor="end" class="axis">$150.13</text><line x1="86" x2="1142" y1="267.0" y2="267.0" stroke="#1b4a42" stroke-width="1"/><text x="72" y="272.0" text-anchor="end" class="axis">$134.06</text><line x1="86" x2="1142" y1="350.5" y2="350.5" stroke="#1b4a42" stroke-width="1"/><text x="72" y="355.5" text-anchor="end" class="axis">$117.98</text><line x1="86" x2="1142" y1="434.0" y2="434.0" stroke="#1b4a42" stroke-width="1"/><text x="72" y="439.0" text-anchor="end" class="axis">$101.91</text>
  <path d="M86.0,166.0 L97.9,179.2 L109.7,170.0 L121.6,157.8 L133.5,169.8 L145.3,154.6 L157.2,180.6 L169.1,127.8 L180.9,159.3 L192.8,158.4 L204.7,196.8 L216.5,220.2 L228.4,248.8 L240.2,203.5 L252.1,202.4 L264.0,192.2 L275.8,194.9 L287.7,183.8 L299.6,232.2 L311.4,285.5 L323.3,298.1 L335.2,275.8 L347.0,258.5 L358.9,224.9 L370.8,221.8 L382.6,202.9 L394.5,205.5 L406.4,205.1 L418.2,170.5 L430.1,228.0 L442.0,220.1 L453.8,220.0 L465.7,230.0 L477.6,246.7 L489.4,240.7 L501.3,215.0 L513.1,204.8 L525.0,257.4 L536.9,268.4 L548.7,251.4 L560.6,247.5 L572.5,252.3 L584.3,256.9 L596.2,287.8 L608.1,268.7 L619.9,267.3 L631.8,261.4 L643.7,260.7 L655.5,250.9 L667.4,249.5 L679.3,252.3 L691.1,253.8 L703.0,275.0 L714.9,218.8 L726.7,150.2 L738.6,128.8 L750.4,172.9 L762.3,224.7 L774.2,227.3 L786.0,259.3 L797.9,254.5 L809.8,277.3 L821.6,287.0 L833.5,282.5 L845.4,298.5 L857.2,263.6 L869.1,271.2 L881.0,284.8 L892.8,296.0 L904.7,342.6 L916.6,357.2 L928.4,373.8 L940.3,406.2 L952.2,376.8 L964.0,362.4 L975.9,357.3 L987.8,310.3 L999.6,291.7 L1011.5,274.9 L1023.3,265.4 L1035.2,276.5 L1047.1,293.1 L1058.9,304.7 L1070.8,287.9 L1082.7,268.7 L1094.5,268.5 L1106.4,265.0 L1118.3,275.7 L1130.1,262.9 L1142.0,274.2 L1142.0,434.0 L86.0,434.0 Z" fill="#0f5949" opacity="0.28"/>
  <path d="M86.0,166.0 L97.9,179.2 L109.7,170.0 L121.6,157.8 L133.5,169.8 L145.3,154.6 L157.2,180.6 L169.1,127.8 L180.9,159.3 L192.8,158.4 L204.7,196.8 L216.5,220.2 L228.4,248.8 L240.2,203.5 L252.1,202.4 L264.0,192.2 L275.8,194.9 L287.7,183.8 L299.6,232.2 L311.4,285.5 L323.3,298.1 L335.2,275.8 L347.0,258.5 L358.9,224.9 L370.8,221.8 L382.6,202.9 L394.5,205.5 L406.4,205.1 L418.2,170.5 L430.1,228.0 L442.0,220.1 L453.8,220.0 L465.7,230.0 L477.6,246.7 L489.4,240.7 L501.3,215.0 L513.1,204.8 L525.0,257.4 L536.9,268.4 L548.7,251.4 L560.6,247.5 L572.5,252.3 L584.3,256.9 L596.2,287.8 L608.1,268.7 L619.9,267.3 L631.8,261.4 L643.7,260.7 L655.5,250.9 L667.4,249.5 L679.3,252.3 L691.1,253.8 L703.0,275.0 L714.9,218.8 L726.7,150.2 L738.6,128.8 L750.4,172.9 L762.3,224.7 L774.2,227.3 L786.0,259.3 L797.9,254.5 L809.8,277.3 L821.6,287.0 L833.5,282.5 L845.4,298.5 L857.2,263.6 L869.1,271.2 L881.0,284.8 L892.8,296.0 L904.7,342.6 L916.6,357.2 L928.4,373.8 L940.3,406.2 L952.2,376.8 L964.0,362.4 L975.9,357.3 L987.8,310.3 L999.6,291.7 L1011.5,274.9 L1023.3,265.4 L1035.2,276.5 L1047.1,293.1 L1058.9,304.7 L1070.8,287.9 L1082.7,268.7 L1094.5,268.5 L1106.4,265.0 L1118.3,275.7 L1130.1,262.9 L1142.0,274.2" fill="none" stroke="#62d9ee" stroke-width="4" stroke-linecap="round" stroke-linejoin="round"/>
  <g>
    <line x1="1058.9" x2="1058.9" y1="100" y2="434" stroke="#18e59c" stroke-width="2" stroke-dasharray="7 7" opacity="0.8"/>
    <circle cx="1058.9" cy="306.0" r="8" fill="#071f1c" stroke="#18e59c" stroke-width="4"/>
    <text x="1030.0" y="288.0" text-anchor="middle" class="marker" fill="#18e59c">ENTRY | Jul 10 | $126.55</text>
  </g>
  
  <text x="86.0" y="472" text-anchor="middle" class="axis">Mar 12</text><text x="347.0" y="472" text-anchor="middle" class="axis">Apr 14</text><text x="619.9" y="472" text-anchor="middle" class="axis">May 15</text><text x="881.0" y="472" text-anchor="middle" class="axis">Jun 17</text><text x="1142.0" y="472" text-anchor="middle" class="axis">Jul 21</text>
  </svg>