<svg xmlns="http://www.w3.org/2000/svg" width="1200" height="500" viewBox="0 0 1200 500" role="img" aria-label="MARA underlying price from entry through expiration close">
  <rect width="1200" height="500" fill="#071f1c"/>
  <style>.head{fill:#f4fff9;font:800 27px Georgia,serif}.sub{fill:#9fc4bb;font:14px Arial,sans-serif}.axis{fill:#8eaaa3;font:12px Arial,sans-serif}.marker{font:800 12px Arial,sans-serif}</style>
  <text x="86" y="40" class="head">MARA Underlying Price</text>
  <text x="86" y="66" class="sub">40 sessions | Entry through expiration settlement | Published option idea rank 1</text>
  <line x1="86" x2="1142" y1="100.0" y2="100.0" stroke="#1b4a42" stroke-width="1"/><text x="72" y="105.0" text-anchor="end" class="axis">$15.10</text><line x1="86" x2="1142" y1="183.5" y2="183.5" stroke="#1b4a42" stroke-width="1"/><text x="72" y="188.5" text-anchor="end" class="axis">$14.36</text><line x1="86" x2="1142" y1="267.0" y2="267.0" stroke="#1b4a42" stroke-width="1"/><text x="72" y="272.0" text-anchor="end" class="axis">$13.63</text><line x1="86" x2="1142" y1="350.5" y2="350.5" stroke="#1b4a42" stroke-width="1"/><text x="72" y="355.5" text-anchor="end" class="axis">$12.89</text><line x1="86" x2="1142" y1="434.0" y2="434.0" stroke="#1b4a42" stroke-width="1"/><text x="72" y="439.0" text-anchor="end" class="axis">$12.15</text>
  <path d="M86.0,269.6 L113.1,241.2 L140.2,191.9 L167.2,183.0 L194.3,226.4 L221.4,268.5 L248.5,259.8 L275.5,211.0 L302.6,181.7 L329.7,209.4 L356.8,259.7 L383.8,272.2 L410.9,232.9 L438.0,189.0 L465.1,195.8 L492.2,245.2 L519.2,276.9 L546.3,254.0 L573.4,204.1 L600.5,188.8 L627.5,228.1 L654.6,273.3 L681.7,271.0 L708.8,224.3 L735.8,190.0 L762.9,211.8 L790.0,262.6 L817.1,281.1 L844.2,246.3 L871.2,199.8 L898.3,199.9 L925.4,128.3 L952.5,145.3 L979.5,224.5 L1006.6,238.1 L1033.7,163.4 L1060.8,221.1 L1087.8,237.0 L1114.9,295.9 L1142.0,405.7 L1142.0,434.0 L86.0,434.0 Z" fill="#0f5949" opacity="0.28"/>
  <path d="M86.0,269.6 L113.1,241.2 L140.2,191.9 L167.2,183.0 L194.3,226.4 L221.4,268.5 L248.5,259.8 L275.5,211.0 L302.6,181.7 L329.7,209.4 L356.8,259.7 L383.8,272.2 L410.9,232.9 L438.0,189.0 L465.1,195.8 L492.2,245.2 L519.2,276.9 L546.3,254.0 L573.4,204.1 L600.5,188.8 L627.5,228.1 L654.6,273.3 L681.7,271.0 L708.8,224.3 L735.8,190.0 L762.9,211.8 L790.0,262.6 L817.1,281.1 L844.2,246.3 L871.2,199.8 L898.3,199.9 L925.4,128.3 L952.5,145.3 L979.5,224.5 L1006.6,238.1 L1033.7,163.4 L1060.8,221.1 L1087.8,237.0 L1114.9,295.9 L1142.0,405.7" fill="none" stroke="#62d9ee" stroke-width="4" stroke-linecap="round" stroke-linejoin="round"/>
  <g>
    <line x1="898.3" x2="898.3" y1="100" y2="434" stroke="#18e59c" stroke-width="2" stroke-dasharray="7 7" opacity="0.8"/>
    <circle cx="898.3" cy="199.9" r="8" fill="#071f1c" stroke="#18e59c" stroke-width="4"/>
    <text x="898.3" y="181.9" text-anchor="middle" class="marker" fill="#18e59c">ENTRY | Jun 19 | $14.22</text>
  </g>
  <g>
    <line x1="1142.0" x2="1142.0" y1="100" y2="434" stroke="#f3bd5b" stroke-width="2" stroke-dasharray="7 7" opacity="0.8"/>
    <circle cx="1142.0" cy="405.7" r="8" fill="#071f1c" stroke="#f3bd5b" stroke-width="4"/>
    <text x="1030.0" y="387.7" text-anchor="middle" class="marker" fill="#f3bd5b">EXPIRATION CLOSE | Jul 2 | $12.40</text>
  </g>
  <text x="86.0" y="472" text-anchor="middle" class="axis">May 20</text><text x="356.8" y="472" text-anchor="middle" class="axis">May 30</text><text x="627.5" y="472" text-anchor="middle" class="axis">Jun 9</text><text x="871.2" y="472" text-anchor="middle" class="axis">Jun 18</text><text x="1142.0" y="472" text-anchor="middle" class="axis">Jul 2</text>
  </svg>