<svg xmlns="http://www.w3.org/2000/svg" width="1200" height="500" viewBox="0 0 1200 500" role="img" aria-label="SMCI underlying price from entry through expiration close">
  <rect width="1200" height="500" fill="#071f1c"/>
  <style>.head{fill:#f4fff9;font:800 27px Georgia,serif}.sub{fill:#9fc4bb;font:14px Arial,sans-serif}.axis{fill:#8eaaa3;font:12px Arial,sans-serif}.marker{font:800 12px Arial,sans-serif}</style>
  <text x="86" y="40" class="head">SMCI Underlying Price</text>
  <text x="86" y="66" class="sub">40 sessions | Entry through expiration settlement | Published option idea rank 2</text>
  <line x1="86" x2="1142" y1="100.0" y2="100.0" stroke="#1b4a42" stroke-width="1"/><text x="72" y="105.0" text-anchor="end" class="axis">$36.28</text><line x1="86" x2="1142" y1="183.5" y2="183.5" stroke="#1b4a42" stroke-width="1"/><text x="72" y="188.5" text-anchor="end" class="axis">$33.81</text><line x1="86" x2="1142" y1="267.0" y2="267.0" stroke="#1b4a42" stroke-width="1"/><text x="72" y="272.0" text-anchor="end" class="axis">$31.34</text><line x1="86" x2="1142" y1="350.5" y2="350.5" stroke="#1b4a42" stroke-width="1"/><text x="72" y="355.5" text-anchor="end" class="axis">$28.87</text><line x1="86" x2="1142" y1="434.0" y2="434.0" stroke="#1b4a42" stroke-width="1"/><text x="72" y="439.0" text-anchor="end" class="axis">$26.40</text>
  <path d="M86.0,316.3 L113.1,282.8 L140.2,265.2 L167.2,285.6 L194.3,318.1 L221.4,323.4 L248.5,295.1 L275.5,266.9 L302.6,273.8 L329.7,307.0 L356.8,325.5 L383.8,307.5 L410.9,273.9 L438.0,265.9 L465.1,293.6 L492.2,322.1 L519.2,317.4 L546.3,284.8 L573.4,263.5 L600.5,280.2 L627.5,313.7 L654.6,323.1 L681.7,297.5 L708.8,266.9 L735.8,269.4 L762.9,301.6 L790.0,323.6 L817.1,309.3 L844.2,275.3 L871.2,263.1 L898.3,287.9 L925.4,127.8 L952.5,200.1 L979.5,229.5 L1006.6,255.5 L1033.7,291.0 L1060.8,374.8 L1087.8,334.9 L1114.9,391.6 L1142.0,406.2 L1142.0,434.0 L86.0,434.0 Z" fill="#0f5949" opacity="0.28"/>
  <path d="M86.0,316.3 L113.1,282.8 L140.2,265.2 L167.2,285.6 L194.3,318.1 L221.4,323.4 L248.5,295.1 L275.5,266.9 L302.6,273.8 L329.7,307.0 L356.8,325.5 L383.8,307.5 L410.9,273.9 L438.0,265.9 L465.1,293.6 L492.2,322.1 L519.2,317.4 L546.3,284.8 L573.4,263.5 L600.5,280.2 L627.5,313.7 L654.6,323.1 L681.7,297.5 L708.8,266.9 L735.8,269.4 L762.9,301.6 L790.0,323.6 L817.1,309.3 L844.2,275.3 L871.2,263.1 L898.3,287.9 L925.4,127.8 L952.5,200.1 L979.5,229.5 L1006.6,255.5 L1033.7,291.0 L1060.8,374.8 L1087.8,334.9 L1114.9,391.6 L1142.0,406.2" fill="none" stroke="#62d9ee" stroke-width="4" stroke-linecap="round" stroke-linejoin="round"/>
  <g>
    <line x1="898.3" x2="898.3" y1="100" y2="434" stroke="#18e59c" stroke-width="2" stroke-dasharray="7 7" opacity="0.8"/>
    <circle cx="898.3" cy="287.9" r="8" fill="#071f1c" stroke="#18e59c" stroke-width="4"/>
    <text x="898.3" y="269.9" text-anchor="middle" class="marker" fill="#18e59c">ENTRY | Jun 19 | $30.72</text>
  </g>
  <g>
    <line x1="1142.0" x2="1142.0" y1="100" y2="434" stroke="#f3bd5b" stroke-width="2" stroke-dasharray="7 7" opacity="0.8"/>
    <circle cx="1142.0" cy="406.2" r="8" fill="#071f1c" stroke="#f3bd5b" stroke-width="4"/>
    <text x="1030.0" y="388.2" text-anchor="middle" class="marker" fill="#f3bd5b">EXPIRATION CLOSE | Jul 2 | $27.22</text>
  </g>
  <text x="86.0" y="472" text-anchor="middle" class="axis">May 20</text><text x="356.8" y="472" text-anchor="middle" class="axis">May 30</text><text x="627.5" y="472" text-anchor="middle" class="axis">Jun 9</text><text x="871.2" y="472" text-anchor="middle" class="axis">Jun 18</text><text x="1142.0" y="472" text-anchor="middle" class="axis">Jul 2</text>
  </svg>