<svg xmlns="http://www.w3.org/2000/svg" width="1200" height="500" viewBox="0 0 1200 500" role="img" aria-label="RGTI underlying price from entry through expiration close">
  <rect width="1200" height="500" fill="#071f1c"/>
  <style>.head{fill:#f4fff9;font:800 27px Georgia,serif}.sub{fill:#9fc4bb;font:14px Arial,sans-serif}.axis{fill:#8eaaa3;font:12px Arial,sans-serif}.marker{font:800 12px Arial,sans-serif}</style>
  <text x="86" y="40" class="head">RGTI Underlying Price</text>
  <text x="86" y="66" class="sub">40 sessions | Entry through expiration settlement | Published option idea rank 3</text>
  <line x1="86" x2="1142" y1="100.0" y2="100.0" stroke="#1b4a42" stroke-width="1"/><text x="72" y="105.0" text-anchor="end" class="axis">$23.21</text><line x1="86" x2="1142" y1="183.5" y2="183.5" stroke="#1b4a42" stroke-width="1"/><text x="72" y="188.5" text-anchor="end" class="axis">$21.77</text><line x1="86" x2="1142" y1="267.0" y2="267.0" stroke="#1b4a42" stroke-width="1"/><text x="72" y="272.0" text-anchor="end" class="axis">$20.34</text><line x1="86" x2="1142" y1="350.5" y2="350.5" stroke="#1b4a42" stroke-width="1"/><text x="72" y="355.5" text-anchor="end" class="axis">$18.90</text><line x1="86" x2="1142" y1="434.0" y2="434.0" stroke="#1b4a42" stroke-width="1"/><text x="72" y="439.0" text-anchor="end" class="axis">$17.46</text>
  <path d="M86.0,167.8 L113.1,127.8 L140.2,143.3 L167.2,194.9 L194.3,220.0 L221.4,190.0 L248.5,140.6 L275.5,133.4 L302.6,178.3 L329.7,219.6 L356.8,209.2 L383.8,159.7 L410.9,131.5 L438.0,161.2 L465.1,211.5 L492.2,222.4 L519.2,181.9 L546.3,138.5 L573.4,147.2 L600.5,197.5 L627.5,227.9 L654.6,203.5 L681.7,153.3 L708.8,139.5 L735.8,180.4 L762.9,225.1 L790.0,221.1 L817.1,173.6 L844.2,140.3 L871.2,164.0 L898.3,215.0 L925.4,206.3 L952.5,212.1 L979.5,313.8 L1006.6,378.9 L1033.7,381.8 L1060.8,319.0 L1087.8,326.0 L1114.9,363.2 L1142.0,406.2 L1142.0,434.0 L86.0,434.0 Z" fill="#0f5949" opacity="0.28"/>
  <path d="M86.0,167.8 L113.1,127.8 L140.2,143.3 L167.2,194.9 L194.3,220.0 L221.4,190.0 L248.5,140.6 L275.5,133.4 L302.6,178.3 L329.7,219.6 L356.8,209.2 L383.8,159.7 L410.9,131.5 L438.0,161.2 L465.1,211.5 L492.2,222.4 L519.2,181.9 L546.3,138.5 L573.4,147.2 L600.5,197.5 L627.5,227.9 L654.6,203.5 L681.7,153.3 L708.8,139.5 L735.8,180.4 L762.9,225.1 L790.0,221.1 L817.1,173.6 L844.2,140.3 L871.2,164.0 L898.3,215.0 L925.4,206.3 L952.5,212.1 L979.5,313.8 L1006.6,378.9 L1033.7,381.8 L1060.8,319.0 L1087.8,326.0 L1114.9,363.2 L1142.0,406.2" fill="none" stroke="#62d9ee" stroke-width="4" stroke-linecap="round" stroke-linejoin="round"/>
  <g>
    <line x1="898.3" x2="898.3" y1="100" y2="434" stroke="#18e59c" stroke-width="2" stroke-dasharray="7 7" opacity="0.8"/>
    <circle cx="898.3" cy="215.0" r="8" fill="#071f1c" stroke="#18e59c" stroke-width="4"/>
    <text x="898.3" y="197.0" text-anchor="middle" class="marker" fill="#18e59c">ENTRY | Jun 19 | $21.23</text>
  </g>
  <g>
    <line x1="1142.0" x2="1142.0" y1="100" y2="434" stroke="#f3bd5b" stroke-width="2" stroke-dasharray="7 7" opacity="0.8"/>
    <circle cx="1142.0" cy="406.2" r="8" fill="#071f1c" stroke="#f3bd5b" stroke-width="4"/>
    <text x="1030.0" y="388.2" text-anchor="middle" class="marker" fill="#f3bd5b">EXPIRATION CLOSE | Jul 2 | $17.94</text>
  </g>
  <text x="86.0" y="472" text-anchor="middle" class="axis">May 20</text><text x="356.8" y="472" text-anchor="middle" class="axis">May 30</text><text x="627.5" y="472" text-anchor="middle" class="axis">Jun 9</text><text x="871.2" y="472" text-anchor="middle" class="axis">Jun 18</text><text x="1142.0" y="472" text-anchor="middle" class="axis">Jul 2</text>
  </svg>