<svg xmlns="http://www.w3.org/2000/svg" width="1200" height="500" viewBox="0 0 1200 500" role="img" aria-label="RGTI underlying price from entry">
  <rect width="1200" height="500" fill="#071f1c"/>
  <style>.head{fill:#f4fff9;font:800 27px Georgia,serif}.sub{fill:#9fc4bb;font:14px Arial,sans-serif}.axis{fill:#8eaaa3;font:12px Arial,sans-serif}.marker{font:800 12px Arial,sans-serif}</style>
  <text x="86" y="40" class="head">RGTI Underlying Price</text>
  <text x="86" y="66" class="sub">31 sessions | Entry marked; position remains open | Published option idea rank 3</text>
  <line x1="86" x2="1142" y1="100.0" y2="100.0" stroke="#1b4a42" stroke-width="1"/><text x="72" y="105.0" text-anchor="end" class="axis">$23.07</text><line x1="86" x2="1142" y1="183.5" y2="183.5" stroke="#1b4a42" stroke-width="1"/><text x="72" y="188.5" text-anchor="end" class="axis">$22.47</text><line x1="86" x2="1142" y1="267.0" y2="267.0" stroke="#1b4a42" stroke-width="1"/><text x="72" y="272.0" text-anchor="end" class="axis">$21.87</text><line x1="86" x2="1142" y1="350.5" y2="350.5" stroke="#1b4a42" stroke-width="1"/><text x="72" y="355.5" text-anchor="end" class="axis">$21.27</text><line x1="86" x2="1142" y1="434.0" y2="434.0" stroke="#1b4a42" stroke-width="1"/><text x="72" y="439.0" text-anchor="end" class="axis">$20.67</text>
  <path d="M86.0,242.9 L121.2,147.4 L156.4,184.3 L191.6,307.8 L226.8,367.8 L262.0,296.2 L297.2,177.9 L332.4,160.7 L367.6,268.1 L402.8,367.0 L438.0,342.1 L473.2,223.6 L508.4,156.2 L543.6,227.1 L578.8,347.6 L614.0,373.6 L649.2,276.7 L684.4,172.8 L719.6,193.6 L754.8,314.0 L790.0,386.6 L825.2,328.4 L860.4,208.3 L895.6,175.4 L930.8,273.2 L966.0,380.0 L1001.2,370.3 L1036.4,256.9 L1071.6,177.1 L1106.8,233.8 L1142.0,355.9 L1142.0,434.0 L86.0,434.0 Z" fill="#0f5949" opacity="0.28"/>
  <path d="M86.0,242.9 L121.2,147.4 L156.4,184.3 L191.6,307.8 L226.8,367.8 L262.0,296.2 L297.2,177.9 L332.4,160.7 L367.6,268.1 L402.8,367.0 L438.0,342.1 L473.2,223.6 L508.4,156.2 L543.6,227.1 L578.8,347.6 L614.0,373.6 L649.2,276.7 L684.4,172.8 L719.6,193.6 L754.8,314.0 L790.0,386.6 L825.2,328.4 L860.4,208.3 L895.6,175.4 L930.8,273.2 L966.0,380.0 L1001.2,370.3 L1036.4,256.9 L1071.6,177.1 L1106.8,233.8 L1142.0,355.9" fill="none" stroke="#62d9ee" stroke-width="4" stroke-linecap="round" stroke-linejoin="round"/>
  <g>
    <line x1="1142.0" x2="1142.0" y1="100" y2="434" stroke="#18e59c" stroke-width="2" stroke-dasharray="7 7" opacity="0.8"/>
    <circle cx="1142.0" cy="355.9" r="8" fill="#071f1c" stroke="#18e59c" stroke-width="4"/>
    <text x="1030.0" y="337.9" text-anchor="middle" class="marker" fill="#18e59c">ENTRY | Jun 19 | $21.23</text>
  </g>
  
  <text x="86.0" y="472" text-anchor="middle" class="axis">May 20</text><text x="367.6" y="472" text-anchor="middle" class="axis">May 28</text><text x="614.0" y="472" text-anchor="middle" class="axis">Jun 4</text><text x="895.6" y="472" text-anchor="middle" class="axis">Jun 12</text><text x="1142.0" y="472" text-anchor="middle" class="axis">Jun 19</text>
  </svg>