<svg xmlns="http://www.w3.org/2000/svg" width="1200" height="500" viewBox="0 0 1200 500" role="img" aria-label="QUBT underlying price from entry through expiration close">
  <rect width="1200" height="500" fill="#071f1c"/>
  <style>.head{fill:#f4fff9;font:800 27px Georgia,serif}.sub{fill:#9fc4bb;font:14px Arial,sans-serif}.axis{fill:#8eaaa3;font:12px Arial,sans-serif}.marker{font:800 12px Arial,sans-serif}</style>
  <text x="86" y="40" class="head">QUBT Underlying Price</text>
  <text x="86" y="66" class="sub">40 sessions | Entry through expiration settlement | Published option idea rank 4</text>
  <line x1="86" x2="1142" y1="100.0" y2="100.0" stroke="#1b4a42" stroke-width="1"/><text x="72" y="105.0" text-anchor="end" class="axis">$11.69</text><line x1="86" x2="1142" y1="183.5" y2="183.5" stroke="#1b4a42" stroke-width="1"/><text x="72" y="188.5" text-anchor="end" class="axis">$10.97</text><line x1="86" x2="1142" y1="267.0" y2="267.0" stroke="#1b4a42" stroke-width="1"/><text x="72" y="272.0" text-anchor="end" class="axis">$10.25</text><line x1="86" x2="1142" y1="350.5" y2="350.5" stroke="#1b4a42" stroke-width="1"/><text x="72" y="355.5" text-anchor="end" class="axis">$9.52</text><line x1="86" x2="1142" y1="434.0" y2="434.0" stroke="#1b4a42" stroke-width="1"/><text x="72" y="439.0" text-anchor="end" class="axis">$8.80</text>
  <path d="M86.0,146.7 L113.1,170.1 L140.2,219.3 L167.2,233.8 L194.3,196.1 L221.4,149.7 L248.5,151.8 L275.5,198.9 L302.6,231.8 L329.7,211.2 L356.8,160.2 L383.8,140.2 L410.9,176.1 L438.0,221.6 L465.1,221.6 L492.2,175.4 L519.2,137.2 L546.3,154.7 L573.4,204.6 L600.5,225.2 L627.5,191.8 L654.6,142.7 L681.7,138.0 L708.8,183.0 L735.8,220.7 L762.9,205.9 L790.0,155.0 L817.1,128.9 L844.2,160.1 L871.2,208.2 L898.3,214.6 L925.4,233.1 L952.5,238.8 L979.5,330.1 L1006.6,400.5 L1033.7,390.1 L1060.8,304.7 L1087.8,330.1 L1114.9,361.2 L1142.0,405.1 L1142.0,434.0 L86.0,434.0 Z" fill="#0f5949" opacity="0.28"/>
  <path d="M86.0,146.7 L113.1,170.1 L140.2,219.3 L167.2,233.8 L194.3,196.1 L221.4,149.7 L248.5,151.8 L275.5,198.9 L302.6,231.8 L329.7,211.2 L356.8,160.2 L383.8,140.2 L410.9,176.1 L438.0,221.6 L465.1,221.6 L492.2,175.4 L519.2,137.2 L546.3,154.7 L573.4,204.6 L600.5,225.2 L627.5,191.8 L654.6,142.7 L681.7,138.0 L708.8,183.0 L735.8,220.7 L762.9,205.9 L790.0,155.0 L817.1,128.9 L844.2,160.1 L871.2,208.2 L898.3,214.6 L925.4,233.1 L952.5,238.8 L979.5,330.1 L1006.6,400.5 L1033.7,390.1 L1060.8,304.7 L1087.8,330.1 L1114.9,361.2 L1142.0,405.1" fill="none" stroke="#62d9ee" stroke-width="4" stroke-linecap="round" stroke-linejoin="round"/>
  <g>
    <line x1="898.3" x2="898.3" y1="100" y2="434" stroke="#18e59c" stroke-width="2" stroke-dasharray="7 7" opacity="0.8"/>
    <circle cx="898.3" cy="214.6" r="8" fill="#071f1c" stroke="#18e59c" stroke-width="4"/>
    <text x="898.3" y="196.6" text-anchor="middle" class="marker" fill="#18e59c">ENTRY | Jun 19 | $10.70</text>
  </g>
  <g>
    <line x1="1142.0" x2="1142.0" y1="100" y2="434" stroke="#f3bd5b" stroke-width="2" stroke-dasharray="7 7" opacity="0.8"/>
    <circle cx="1142.0" cy="405.1" r="8" fill="#071f1c" stroke="#f3bd5b" stroke-width="4"/>
    <text x="1030.0" y="387.1" text-anchor="middle" class="marker" fill="#f3bd5b">EXPIRATION CLOSE | Jul 2 | $9.05</text>
  </g>
  <text x="86.0" y="472" text-anchor="middle" class="axis">May 20</text><text x="356.8" y="472" text-anchor="middle" class="axis">May 30</text><text x="627.5" y="472" text-anchor="middle" class="axis">Jun 9</text><text x="871.2" y="472" text-anchor="middle" class="axis">Jun 18</text><text x="1142.0" y="472" text-anchor="middle" class="axis">Jul 2</text>
  </svg>