<svg xmlns="http://www.w3.org/2000/svg" width="1200" height="500" viewBox="0 0 1200 500" role="img" aria-label="QUBT underlying price from entry">
  <rect width="1200" height="500" fill="#071f1c"/>
  <style>.head{fill:#f4fff9;font:800 27px Georgia,serif}.sub{fill:#9fc4bb;font:14px Arial,sans-serif}.axis{fill:#8eaaa3;font:12px Arial,sans-serif}.marker{font:800 12px Arial,sans-serif}</style>
  <text x="86" y="40" class="head">QUBT Underlying Price</text>
  <text x="86" y="66" class="sub">31 sessions | Entry marked; position remains open | Published option idea rank 4</text>
  <line x1="86" x2="1142" y1="100.0" y2="100.0" stroke="#1b4a42" stroke-width="1"/><text x="72" y="105.0" text-anchor="end" class="axis">$11.69</text><line x1="86" x2="1142" y1="183.5" y2="183.5" stroke="#1b4a42" stroke-width="1"/><text x="72" y="188.5" text-anchor="end" class="axis">$11.34</text><line x1="86" x2="1142" y1="267.0" y2="267.0" stroke="#1b4a42" stroke-width="1"/><text x="72" y="272.0" text-anchor="end" class="axis">$10.99</text><line x1="86" x2="1142" y1="350.5" y2="350.5" stroke="#1b4a42" stroke-width="1"/><text x="72" y="355.5" text-anchor="end" class="axis">$10.64</text><line x1="86" x2="1142" y1="434.0" y2="434.0" stroke="#1b4a42" stroke-width="1"/><text x="72" y="439.0" text-anchor="end" class="axis">$10.28</text>
  <path d="M86.0,195.9 L121.2,243.8 L156.4,344.9 L191.6,374.7 L226.8,297.3 L262.0,202.1 L297.2,206.3 L332.4,303.0 L367.6,370.5 L402.8,328.2 L438.0,223.5 L473.2,182.6 L508.4,256.3 L543.6,349.7 L578.8,349.7 L614.0,254.7 L649.2,176.4 L684.4,212.3 L719.6,314.8 L754.8,357.1 L790.0,288.5 L825.2,187.7 L860.4,178.1 L895.6,270.4 L930.8,347.7 L966.0,317.4 L1001.2,212.9 L1036.4,159.3 L1071.6,223.4 L1106.8,322.2 L1142.0,335.2 L1142.0,434.0 L86.0,434.0 Z" fill="#0f5949" opacity="0.28"/>
  <path d="M86.0,195.9 L121.2,243.8 L156.4,344.9 L191.6,374.7 L226.8,297.3 L262.0,202.1 L297.2,206.3 L332.4,303.0 L367.6,370.5 L402.8,328.2 L438.0,223.5 L473.2,182.6 L508.4,256.3 L543.6,349.7 L578.8,349.7 L614.0,254.7 L649.2,176.4 L684.4,212.3 L719.6,314.8 L754.8,357.1 L790.0,288.5 L825.2,187.7 L860.4,178.1 L895.6,270.4 L930.8,347.7 L966.0,317.4 L1001.2,212.9 L1036.4,159.3 L1071.6,223.4 L1106.8,322.2 L1142.0,335.2" fill="none" stroke="#62d9ee" stroke-width="4" stroke-linecap="round" stroke-linejoin="round"/>
  <g>
    <line x1="1142.0" x2="1142.0" y1="100" y2="434" stroke="#18e59c" stroke-width="2" stroke-dasharray="7 7" opacity="0.8"/>
    <circle cx="1142.0" cy="335.2" r="8" fill="#071f1c" stroke="#18e59c" stroke-width="4"/>
    <text x="1030.0" y="317.2" text-anchor="middle" class="marker" fill="#18e59c">ENTRY | Jun 19 | $10.70</text>
  </g>
  
  <text x="86.0" y="472" text-anchor="middle" class="axis">May 20</text><text x="367.6" y="472" text-anchor="middle" class="axis">May 28</text><text x="614.0" y="472" text-anchor="middle" class="axis">Jun 4</text><text x="895.6" y="472" text-anchor="middle" class="axis">Jun 12</text><text x="1142.0" y="472" text-anchor="middle" class="axis">Jun 19</text>
  </svg>