<svg xmlns="http://www.w3.org/2000/svg" width="1200" height="500" viewBox="0 0 1200 500" role="img" aria-label="SOFI underlying price from entry through expiration close">
  <rect width="1200" height="500" fill="#071f1c"/>
  <style>.head{fill:#f4fff9;font:800 27px Georgia,serif}.sub{fill:#9fc4bb;font:14px Arial,sans-serif}.axis{fill:#8eaaa3;font:12px Arial,sans-serif}.marker{font:800 12px Arial,sans-serif}</style>
  <text x="86" y="40" class="head">SOFI Underlying Price</text>
  <text x="86" y="66" class="sub">40 sessions | Entry through expiration settlement | Published option idea rank 5</text>
  <line x1="86" x2="1142" y1="100.0" y2="100.0" stroke="#1b4a42" stroke-width="1"/><text x="72" y="105.0" text-anchor="end" class="axis">$18.82</text><line x1="86" x2="1142" y1="183.5" y2="183.5" stroke="#1b4a42" stroke-width="1"/><text x="72" y="188.5" text-anchor="end" class="axis">$18.32</text><line x1="86" x2="1142" y1="267.0" y2="267.0" stroke="#1b4a42" stroke-width="1"/><text x="72" y="272.0" text-anchor="end" class="axis">$17.82</text><line x1="86" x2="1142" y1="350.5" y2="350.5" stroke="#1b4a42" stroke-width="1"/><text x="72" y="355.5" text-anchor="end" class="axis">$17.32</text><line x1="86" x2="1142" y1="434.0" y2="434.0" stroke="#1b4a42" stroke-width="1"/><text x="72" y="439.0" text-anchor="end" class="axis">$16.82</text>
  <path d="M86.0,182.4 L113.1,159.8 L140.2,208.9 L167.2,268.1 L194.3,265.2 L221.4,203.0 L248.5,155.8 L275.5,181.6 L302.6,247.4 L329.7,272.2 L356.8,225.8 L383.8,162.9 L410.9,160.2 L438.0,220.4 L465.1,268.5 L492.2,246.1 L519.2,179.2 L546.3,148.4 L573.4,191.5 L600.5,254.1 L627.5,259.7 L654.6,201.0 L681.7,147.8 L708.8,165.5 L735.8,231.1 L762.9,263.6 L790.0,223.6 L817.1,158.0 L844.2,146.6 L871.2,203.0 L898.3,256.5 L925.4,387.4 L952.5,355.6 L979.5,352.2 L1006.6,353.9 L1033.7,256.8 L1060.8,204.8 L1087.8,248.4 L1114.9,163.0 L1142.0,196.5 L1142.0,434.0 L86.0,434.0 Z" fill="#0f5949" opacity="0.28"/>
  <path d="M86.0,182.4 L113.1,159.8 L140.2,208.9 L167.2,268.1 L194.3,265.2 L221.4,203.0 L248.5,155.8 L275.5,181.6 L302.6,247.4 L329.7,272.2 L356.8,225.8 L383.8,162.9 L410.9,160.2 L438.0,220.4 L465.1,268.5 L492.2,246.1 L519.2,179.2 L546.3,148.4 L573.4,191.5 L600.5,254.1 L627.5,259.7 L654.6,201.0 L681.7,147.8 L708.8,165.5 L735.8,231.1 L762.9,263.6 L790.0,223.6 L817.1,158.0 L844.2,146.6 L871.2,203.0 L898.3,256.5 L925.4,387.4 L952.5,355.6 L979.5,352.2 L1006.6,353.9 L1033.7,256.8 L1060.8,204.8 L1087.8,248.4 L1114.9,163.0 L1142.0,196.5" fill="none" stroke="#62d9ee" stroke-width="4" stroke-linecap="round" stroke-linejoin="round"/>
  <g>
    <line x1="898.3" x2="898.3" y1="100" y2="434" stroke="#18e59c" stroke-width="2" stroke-dasharray="7 7" opacity="0.8"/>
    <circle cx="898.3" cy="256.5" r="8" fill="#071f1c" stroke="#18e59c" stroke-width="4"/>
    <text x="898.3" y="238.5" text-anchor="middle" class="marker" fill="#18e59c">ENTRY | Jun 19 | $17.88</text>
  </g>
  <g>
    <line x1="1142.0" x2="1142.0" y1="100" y2="434" stroke="#f3bd5b" stroke-width="2" stroke-dasharray="7 7" opacity="0.8"/>
    <circle cx="1142.0" cy="196.5" r="8" fill="#071f1c" stroke="#f3bd5b" stroke-width="4"/>
    <text x="1030.0" y="178.5" text-anchor="middle" class="marker" fill="#f3bd5b">EXPIRATION CLOSE | Jul 2 | $18.24</text>
  </g>
  <text x="86.0" y="472" text-anchor="middle" class="axis">May 20</text><text x="356.8" y="472" text-anchor="middle" class="axis">May 30</text><text x="627.5" y="472" text-anchor="middle" class="axis">Jun 9</text><text x="871.2" y="472" text-anchor="middle" class="axis">Jun 18</text><text x="1142.0" y="472" text-anchor="middle" class="axis">Jul 2</text>
  </svg>