<svg xmlns="http://www.w3.org/2000/svg" width="1200" height="500" viewBox="0 0 1200 500" role="img" aria-label="SOFI underlying price from entry">
  <rect width="1200" height="500" fill="#071f1c"/>
  <style>.head{fill:#f4fff9;font:800 27px Georgia,serif}.sub{fill:#9fc4bb;font:14px Arial,sans-serif}.axis{fill:#8eaaa3;font:12px Arial,sans-serif}.marker{font:800 12px Arial,sans-serif}</style>
  <text x="86" y="40" class="head">SOFI Underlying Price</text>
  <text x="86" y="66" class="sub">31 sessions | Entry marked; position remains open | Published option idea rank 5</text>
  <line x1="86" x2="1142" y1="100.0" y2="100.0" stroke="#1b4a42" stroke-width="1"/><text x="72" y="105.0" text-anchor="end" class="axis">$18.82</text><line x1="86" x2="1142" y1="183.5" y2="183.5" stroke="#1b4a42" stroke-width="1"/><text x="72" y="188.5" text-anchor="end" class="axis">$18.49</text><line x1="86" x2="1142" y1="267.0" y2="267.0" stroke="#1b4a42" stroke-width="1"/><text x="72" y="272.0" text-anchor="end" class="axis">$18.16</text><line x1="86" x2="1142" y1="350.5" y2="350.5" stroke="#1b4a42" stroke-width="1"/><text x="72" y="355.5" text-anchor="end" class="axis">$17.84</text><line x1="86" x2="1142" y1="434.0" y2="434.0" stroke="#1b4a42" stroke-width="1"/><text x="72" y="439.0" text-anchor="end" class="axis">$17.51</text>
  <path d="M86.0,225.9 L121.2,191.2 L156.4,266.3 L191.6,356.6 L226.8,352.2 L262.0,257.2 L297.2,185.1 L332.4,224.6 L367.6,325.0 L402.8,362.9 L438.0,292.1 L473.2,196.0 L508.4,191.9 L543.6,283.9 L578.8,357.2 L614.0,323.1 L649.2,220.9 L684.4,173.8 L719.6,239.7 L754.8,335.3 L790.0,343.8 L825.2,254.1 L860.4,172.9 L895.6,199.9 L930.8,300.1 L966.0,349.7 L1001.2,288.7 L1036.4,188.5 L1071.6,171.1 L1106.8,257.2 L1142.0,339.0 L1142.0,434.0 L86.0,434.0 Z" fill="#0f5949" opacity="0.28"/>
  <path d="M86.0,225.9 L121.2,191.2 L156.4,266.3 L191.6,356.6 L226.8,352.2 L262.0,257.2 L297.2,185.1 L332.4,224.6 L367.6,325.0 L402.8,362.9 L438.0,292.1 L473.2,196.0 L508.4,191.9 L543.6,283.9 L578.8,357.2 L614.0,323.1 L649.2,220.9 L684.4,173.8 L719.6,239.7 L754.8,335.3 L790.0,343.8 L825.2,254.1 L860.4,172.9 L895.6,199.9 L930.8,300.1 L966.0,349.7 L1001.2,288.7 L1036.4,188.5 L1071.6,171.1 L1106.8,257.2 L1142.0,339.0" fill="none" stroke="#62d9ee" stroke-width="4" stroke-linecap="round" stroke-linejoin="round"/>
  <g>
    <line x1="1142.0" x2="1142.0" y1="100" y2="434" stroke="#18e59c" stroke-width="2" stroke-dasharray="7 7" opacity="0.8"/>
    <circle cx="1142.0" cy="339.0" r="8" fill="#071f1c" stroke="#18e59c" stroke-width="4"/>
    <text x="1030.0" y="321.0" text-anchor="middle" class="marker" fill="#18e59c">ENTRY | Jun 19 | $17.88</text>
  </g>
  
  <text x="86.0" y="472" text-anchor="middle" class="axis">May 20</text><text x="367.6" y="472" text-anchor="middle" class="axis">May 28</text><text x="614.0" y="472" text-anchor="middle" class="axis">Jun 4</text><text x="895.6" y="472" text-anchor="middle" class="axis">Jun 12</text><text x="1142.0" y="472" text-anchor="middle" class="axis">Jun 19</text>
  </svg>