<svg xmlns="http://www.w3.org/2000/svg" width="1200" height="500" viewBox="0 0 1200 500" role="img" aria-label="QQQ underlying price from entry">
  <rect width="1200" height="500" fill="#071f1c"/>
  <style>.head{fill:#f4fff9;font:800 27px Georgia,serif}.sub{fill:#9fc4bb;font:14px Arial,sans-serif}.axis{fill:#8eaaa3;font:12px Arial,sans-serif}.marker{font:800 12px Arial,sans-serif}</style>
  <text x="86" y="40" class="head">QQQ Underlying Price</text>
  <text x="86" y="66" class="sub">90 sessions | Entry marked; position remains open | Published option idea rank 1</text>
  <line x1="86" x2="1142" y1="100.0" y2="100.0" stroke="#1b4a42" stroke-width="1"/><text x="72" y="105.0" text-anchor="end" class="axis">$764.95</text><line x1="86" x2="1142" y1="183.5" y2="183.5" stroke="#1b4a42" stroke-width="1"/><text x="72" y="188.5" text-anchor="end" class="axis">$708.58</text><line x1="86" x2="1142" y1="267.0" y2="267.0" stroke="#1b4a42" stroke-width="1"/><text x="72" y="272.0" text-anchor="end" class="axis">$652.22</text><line x1="86" x2="1142" y1="350.5" y2="350.5" stroke="#1b4a42" stroke-width="1"/><text x="72" y="355.5" text-anchor="end" class="axis">$595.86</text><line x1="86" x2="1142" y1="434.0" y2="434.0" stroke="#1b4a42" stroke-width="1"/><text x="72" y="439.0" text-anchor="end" class="axis">$539.49</text>
  <path d="M86.0,353.7 L97.9,343.8 L109.7,339.5 L121.6,351.9 L133.5,354.7 L145.3,370.9 L157.2,362.1 L169.1,368.1 L180.9,362.4 L192.8,383.2 L204.7,399.8 L216.5,406.2 L228.4,378.2 L240.2,367.6 L252.1,366.6 L264.0,361.4 L275.8,361.3 L287.7,335.3 L299.6,329.3 L311.4,328.0 L323.3,318.6 L335.2,302.0 L347.0,289.0 L358.9,284.4 L370.8,272.0 L382.6,275.0 L394.5,278.7 L406.4,262.7 L418.2,268.2 L430.1,249.7 L442.0,249.2 L453.8,259.1 L465.7,253.1 L477.6,244.0 L489.4,234.5 L501.3,236.4 L513.1,223.5 L525.0,202.5 L536.9,203.7 L548.7,179.6 L560.6,176.5 L572.5,185.5 L584.3,174.4 L596.2,166.9 L608.1,183.0 L619.9,187.5 L631.8,194.0 L643.7,176.7 L655.5,174.7 L667.4,170.2 L679.3,151.4 L691.1,152.6 L703.0,143.5 L714.9,139.5 L726.7,132.9 L738.6,127.8 L750.4,130.7 L762.3,136.1 L774.2,188.7 L786.0,172.4 L797.9,184.6 L809.8,205.6 L821.6,170.9 L833.5,164.6 L845.4,131.0 L857.2,152.0 L869.1,162.9 L881.0,136.0 L892.8,140.0 L904.7,176.0 L916.6,180.5 L928.4,172.0 L940.3,186.6 L952.2,160.5 L964.0,142.3 L975.9,158.9 L987.8,177.6 L999.6,162.4 L1011.5,182.2 L1023.3,179.3 L1035.2,161.7 L1047.1,158.4 L1058.9,178.8 L1070.8,167.0 L1082.7,169.9 L1094.5,187.4 L1106.4,203.1 L1118.3,202.1 L1130.1,182.9 L1142.0,188.3 L1142.0,434.0 L86.0,434.0 Z" fill="#0f5949" opacity="0.28"/>
  <path d="M86.0,353.7 L97.9,343.8 L109.7,339.5 L121.6,351.9 L133.5,354.7 L145.3,370.9 L157.2,362.1 L169.1,368.1 L180.9,362.4 L192.8,383.2 L204.7,399.8 L216.5,406.2 L228.4,378.2 L240.2,367.6 L252.1,366.6 L264.0,361.4 L275.8,361.3 L287.7,335.3 L299.6,329.3 L311.4,328.0 L323.3,318.6 L335.2,302.0 L347.0,289.0 L358.9,284.4 L370.8,272.0 L382.6,275.0 L394.5,278.7 L406.4,262.7 L418.2,268.2 L430.1,249.7 L442.0,249.2 L453.8,259.1 L465.7,253.1 L477.6,244.0 L489.4,234.5 L501.3,236.4 L513.1,223.5 L525.0,202.5 L536.9,203.7 L548.7,179.6 L560.6,176.5 L572.5,185.5 L584.3,174.4 L596.2,166.9 L608.1,183.0 L619.9,187.5 L631.8,194.0 L643.7,176.7 L655.5,174.7 L667.4,170.2 L679.3,151.4 L691.1,152.6 L703.0,143.5 L714.9,139.5 L726.7,132.9 L738.6,127.8 L750.4,130.7 L762.3,136.1 L774.2,188.7 L786.0,172.4 L797.9,184.6 L809.8,205.6 L821.6,170.9 L833.5,164.6 L845.4,131.0 L857.2,152.0 L869.1,162.9 L881.0,136.0 L892.8,140.0 L904.7,176.0 L916.6,180.5 L928.4,172.0 L940.3,186.6 L952.2,160.5 L964.0,142.3 L975.9,158.9 L987.8,177.6 L999.6,162.4 L1011.5,182.2 L1023.3,179.3 L1035.2,161.7 L1047.1,158.4 L1058.9,178.8 L1070.8,167.0 L1082.7,169.9 L1094.5,187.4 L1106.4,203.1 L1118.3,202.1 L1130.1,182.9 L1142.0,188.3" fill="none" stroke="#62d9ee" stroke-width="4" stroke-linecap="round" stroke-linejoin="round"/>
  <g>
    <line x1="1106.4" x2="1106.4" y1="100" y2="434" stroke="#18e59c" stroke-width="2" stroke-dasharray="7 7" opacity="0.8"/>
    <circle cx="1106.4" cy="199.0" r="8" fill="#071f1c" stroke="#18e59c" stroke-width="4"/>
    <text x="1030.0" y="181.0" text-anchor="middle" class="marker" fill="#18e59c">ENTRY | Jul 17 | $698.11</text>
  </g>
  
  <text x="86.0" y="472" text-anchor="middle" class="axis">Mar 13</text><text x="347.0" y="472" text-anchor="middle" class="axis">Apr 15</text><text x="619.9" y="472" text-anchor="middle" class="axis">May 18</text><text x="881.0" y="472" text-anchor="middle" class="axis">Jun 18</text><text x="1142.0" y="472" text-anchor="middle" class="axis">Jul 22</text>
  </svg>