<svg xmlns="http://www.w3.org/2000/svg" width="1200" height="500" viewBox="0 0 1200 500" role="img" aria-label="QQQ underlying price from entry">
  <rect width="1200" height="500" fill="#071f1c"/>
  <style>.head{fill:#f4fff9;font:800 27px Georgia,serif}.sub{fill:#9fc4bb;font:14px Arial,sans-serif}.axis{fill:#8eaaa3;font:12px Arial,sans-serif}.marker{font:800 12px Arial,sans-serif}</style>
  <text x="86" y="40" class="head">QQQ Underlying Price</text>
  <text x="86" y="66" class="sub">90 sessions | Entry marked; position remains open | Published option idea rank 1</text>
  <line x1="86" x2="1142" y1="100.0" y2="100.0" stroke="#1b4a42" stroke-width="1"/><text x="72" y="105.0" text-anchor="end" class="axis">$764.95</text><line x1="86" x2="1142" y1="183.5" y2="183.5" stroke="#1b4a42" stroke-width="1"/><text x="72" y="188.5" text-anchor="end" class="axis">$708.58</text><line x1="86" x2="1142" y1="267.0" y2="267.0" stroke="#1b4a42" stroke-width="1"/><text x="72" y="272.0" text-anchor="end" class="axis">$652.22</text><line x1="86" x2="1142" y1="350.5" y2="350.5" stroke="#1b4a42" stroke-width="1"/><text x="72" y="355.5" text-anchor="end" class="axis">$595.86</text><line x1="86" x2="1142" y1="434.0" y2="434.0" stroke="#1b4a42" stroke-width="1"/><text x="72" y="439.0" text-anchor="end" class="axis">$539.49</text>
  <path d="M86.0,332.9 L97.9,333.0 L109.7,348.4 L121.6,353.7 L133.5,343.8 L145.3,339.5 L157.2,351.9 L169.1,354.7 L180.9,370.9 L192.8,362.1 L204.7,368.1 L216.5,362.4 L228.4,383.2 L240.2,399.8 L252.1,406.2 L264.0,378.2 L275.8,367.6 L287.7,366.6 L299.6,361.4 L311.4,361.3 L323.3,335.3 L335.2,329.3 L347.0,328.0 L358.9,318.6 L370.8,302.0 L382.6,289.0 L394.5,284.4 L406.4,272.0 L418.2,275.0 L430.1,278.7 L442.0,262.7 L453.8,268.2 L465.7,249.7 L477.6,249.2 L489.4,259.1 L501.3,253.1 L513.1,244.0 L525.0,234.5 L536.9,236.4 L548.7,223.5 L560.6,202.5 L572.5,203.7 L584.3,179.6 L596.2,176.5 L608.1,185.5 L619.9,174.4 L631.8,166.9 L643.7,183.0 L655.5,187.5 L667.4,194.0 L679.3,176.7 L691.1,174.7 L703.0,170.2 L714.9,151.4 L726.7,152.6 L738.6,143.5 L750.4,139.5 L762.3,132.9 L774.2,127.8 L786.0,130.7 L797.9,136.1 L809.8,188.7 L821.6,172.4 L833.5,184.6 L845.4,205.6 L857.2,170.9 L869.1,164.6 L881.0,131.0 L892.8,152.0 L904.7,162.9 L916.6,136.0 L928.4,140.0 L940.3,176.0 L952.2,180.5 L964.0,172.0 L975.9,186.6 L987.8,160.5 L999.6,142.3 L1011.5,158.9 L1023.3,177.6 L1035.2,162.4 L1047.1,182.2 L1058.9,179.3 L1070.8,161.7 L1082.7,158.4 L1094.5,178.8 L1106.4,167.0 L1118.3,169.9 L1130.1,187.4 L1142.0,199.0 L1142.0,434.0 L86.0,434.0 Z" fill="#0f5949" opacity="0.28"/>
  <path d="M86.0,332.9 L97.9,333.0 L109.7,348.4 L121.6,353.7 L133.5,343.8 L145.3,339.5 L157.2,351.9 L169.1,354.7 L180.9,370.9 L192.8,362.1 L204.7,368.1 L216.5,362.4 L228.4,383.2 L240.2,399.8 L252.1,406.2 L264.0,378.2 L275.8,367.6 L287.7,366.6 L299.6,361.4 L311.4,361.3 L323.3,335.3 L335.2,329.3 L347.0,328.0 L358.9,318.6 L370.8,302.0 L382.6,289.0 L394.5,284.4 L406.4,272.0 L418.2,275.0 L430.1,278.7 L442.0,262.7 L453.8,268.2 L465.7,249.7 L477.6,249.2 L489.4,259.1 L501.3,253.1 L513.1,244.0 L525.0,234.5 L536.9,236.4 L548.7,223.5 L560.6,202.5 L572.5,203.7 L584.3,179.6 L596.2,176.5 L608.1,185.5 L619.9,174.4 L631.8,166.9 L643.7,183.0 L655.5,187.5 L667.4,194.0 L679.3,176.7 L691.1,174.7 L703.0,170.2 L714.9,151.4 L726.7,152.6 L738.6,143.5 L750.4,139.5 L762.3,132.9 L774.2,127.8 L786.0,130.7 L797.9,136.1 L809.8,188.7 L821.6,172.4 L833.5,184.6 L845.4,205.6 L857.2,170.9 L869.1,164.6 L881.0,131.0 L892.8,152.0 L904.7,162.9 L916.6,136.0 L928.4,140.0 L940.3,176.0 L952.2,180.5 L964.0,172.0 L975.9,186.6 L987.8,160.5 L999.6,142.3 L1011.5,158.9 L1023.3,177.6 L1035.2,162.4 L1047.1,182.2 L1058.9,179.3 L1070.8,161.7 L1082.7,158.4 L1094.5,178.8 L1106.4,167.0 L1118.3,169.9 L1130.1,187.4 L1142.0,199.0" fill="none" stroke="#62d9ee" stroke-width="4" stroke-linecap="round" stroke-linejoin="round"/>
  <g>
    <line x1="1142.0" x2="1142.0" y1="100" y2="434" stroke="#18e59c" stroke-width="2" stroke-dasharray="7 7" opacity="0.8"/>
    <circle cx="1142.0" cy="199.0" r="8" fill="#071f1c" stroke="#18e59c" stroke-width="4"/>
    <text x="1030.0" y="181.0" text-anchor="middle" class="marker" fill="#18e59c">ENTRY | Jul 17 | $698.11</text>
  </g>
  
  <text x="86.0" y="472" text-anchor="middle" class="axis">Mar 10</text><text x="347.0" y="472" text-anchor="middle" class="axis">Apr 10</text><text x="619.9" y="472" text-anchor="middle" class="axis">May 13</text><text x="881.0" y="472" text-anchor="middle" class="axis">Jun 15</text><text x="1142.0" y="472" text-anchor="middle" class="axis">Jul 17</text>
  </svg>