<svg xmlns="http://www.w3.org/2000/svg" width="1200" height="500" viewBox="0 0 1200 500" role="img" aria-label="QQQ underlying price from entry">
  <rect width="1200" height="500" fill="#071f1c"/>
  <style>.head{fill:#f4fff9;font:800 27px Georgia,serif}.sub{fill:#9fc4bb;font:14px Arial,sans-serif}.axis{fill:#8eaaa3;font:12px Arial,sans-serif}.marker{font:800 12px Arial,sans-serif}</style>
  <text x="86" y="40" class="head">QQQ Underlying Price</text>
  <text x="86" y="66" class="sub">90 sessions | Entry marked; position remains open | Published option idea rank 1</text>
  <line x1="86" x2="1142" y1="100.0" y2="100.0" stroke="#1b4a42" stroke-width="1"/><text x="72" y="105.0" text-anchor="end" class="axis">$764.95</text><line x1="86" x2="1142" y1="183.5" y2="183.5" stroke="#1b4a42" stroke-width="1"/><text x="72" y="188.5" text-anchor="end" class="axis">$708.58</text><line x1="86" x2="1142" y1="267.0" y2="267.0" stroke="#1b4a42" stroke-width="1"/><text x="72" y="272.0" text-anchor="end" class="axis">$652.22</text><line x1="86" x2="1142" y1="350.5" y2="350.5" stroke="#1b4a42" stroke-width="1"/><text x="72" y="355.5" text-anchor="end" class="axis">$595.86</text><line x1="86" x2="1142" y1="434.0" y2="434.0" stroke="#1b4a42" stroke-width="1"/><text x="72" y="439.0" text-anchor="end" class="axis">$539.49</text>
  <path d="M86.0,348.4 L97.9,353.7 L109.7,343.8 L121.6,339.5 L133.5,351.9 L145.3,354.7 L157.2,370.9 L169.1,362.1 L180.9,368.1 L192.8,362.4 L204.7,383.2 L216.5,399.8 L228.4,406.2 L240.2,378.2 L252.1,367.6 L264.0,366.6 L275.8,361.4 L287.7,361.3 L299.6,335.3 L311.4,329.3 L323.3,328.0 L335.2,318.6 L347.0,302.0 L358.9,289.0 L370.8,284.4 L382.6,272.0 L394.5,275.0 L406.4,278.7 L418.2,262.7 L430.1,268.2 L442.0,249.7 L453.8,249.2 L465.7,259.1 L477.6,253.1 L489.4,244.0 L501.3,234.5 L513.1,236.4 L525.0,223.5 L536.9,202.5 L548.7,203.7 L560.6,179.6 L572.5,176.5 L584.3,185.5 L596.2,174.4 L608.1,166.9 L619.9,183.0 L631.8,187.5 L643.7,194.0 L655.5,176.7 L667.4,174.7 L679.3,170.2 L691.1,151.4 L703.0,152.6 L714.9,143.5 L726.7,139.5 L738.6,132.9 L750.4,127.8 L762.3,130.7 L774.2,136.1 L786.0,188.7 L797.9,172.4 L809.8,184.6 L821.6,205.6 L833.5,170.9 L845.4,164.6 L857.2,131.0 L869.1,152.0 L881.0,162.9 L892.8,136.0 L904.7,140.0 L916.6,176.0 L928.4,180.5 L940.3,172.0 L952.2,186.6 L964.0,160.5 L975.9,142.3 L987.8,158.9 L999.6,177.6 L1011.5,162.4 L1023.3,182.2 L1035.2,179.3 L1047.1,161.7 L1058.9,158.4 L1070.8,178.8 L1082.7,167.0 L1094.5,169.9 L1106.4,187.4 L1118.3,203.1 L1130.1,202.1 L1142.0,182.9 L1142.0,434.0 L86.0,434.0 Z" fill="#0f5949" opacity="0.28"/>
  <path d="M86.0,348.4 L97.9,353.7 L109.7,343.8 L121.6,339.5 L133.5,351.9 L145.3,354.7 L157.2,370.9 L169.1,362.1 L180.9,368.1 L192.8,362.4 L204.7,383.2 L216.5,399.8 L228.4,406.2 L240.2,378.2 L252.1,367.6 L264.0,366.6 L275.8,361.4 L287.7,361.3 L299.6,335.3 L311.4,329.3 L323.3,328.0 L335.2,318.6 L347.0,302.0 L358.9,289.0 L370.8,284.4 L382.6,272.0 L394.5,275.0 L406.4,278.7 L418.2,262.7 L430.1,268.2 L442.0,249.7 L453.8,249.2 L465.7,259.1 L477.6,253.1 L489.4,244.0 L501.3,234.5 L513.1,236.4 L525.0,223.5 L536.9,202.5 L548.7,203.7 L560.6,179.6 L572.5,176.5 L584.3,185.5 L596.2,174.4 L608.1,166.9 L619.9,183.0 L631.8,187.5 L643.7,194.0 L655.5,176.7 L667.4,174.7 L679.3,170.2 L691.1,151.4 L703.0,152.6 L714.9,143.5 L726.7,139.5 L738.6,132.9 L750.4,127.8 L762.3,130.7 L774.2,136.1 L786.0,188.7 L797.9,172.4 L809.8,184.6 L821.6,205.6 L833.5,170.9 L845.4,164.6 L857.2,131.0 L869.1,152.0 L881.0,162.9 L892.8,136.0 L904.7,140.0 L916.6,176.0 L928.4,180.5 L940.3,172.0 L952.2,186.6 L964.0,160.5 L975.9,142.3 L987.8,158.9 L999.6,177.6 L1011.5,162.4 L1023.3,182.2 L1035.2,179.3 L1047.1,161.7 L1058.9,158.4 L1070.8,178.8 L1082.7,167.0 L1094.5,169.9 L1106.4,187.4 L1118.3,203.1 L1130.1,202.1 L1142.0,182.9" fill="none" stroke="#62d9ee" stroke-width="4" stroke-linecap="round" stroke-linejoin="round"/>
  <g>
    <line x1="1118.3" x2="1118.3" y1="100" y2="434" stroke="#18e59c" stroke-width="2" stroke-dasharray="7 7" opacity="0.8"/>
    <circle cx="1118.3" cy="199.0" r="8" fill="#071f1c" stroke="#18e59c" stroke-width="4"/>
    <text x="1030.0" y="181.0" text-anchor="middle" class="marker" fill="#18e59c">ENTRY | Jul 17 | $698.11</text>
  </g>
  
  <text x="86.0" y="472" text-anchor="middle" class="axis">Mar 12</text><text x="347.0" y="472" text-anchor="middle" class="axis">Apr 14</text><text x="619.9" y="472" text-anchor="middle" class="axis">May 15</text><text x="881.0" y="472" text-anchor="middle" class="axis">Jun 17</text><text x="1142.0" y="472" text-anchor="middle" class="axis">Jul 21</text>
  </svg>