<svg xmlns="http://www.w3.org/2000/svg" width="1200" height="672" viewBox="0 0 1200 672" role="img" aria-label="RFDELTA ranked option trade scores">
  <defs>
    <linearGradient id="background" x1="0" x2="1"><stop stop-color="#061b19"/><stop offset="1" stop-color="#0a2d28"/></linearGradient>
    <linearGradient id="scoreBar" x1="0" x2="1"><stop stop-color="#18e59c"/><stop offset="0.7" stop-color="#5bd7f4"/><stop offset="1" stop-color="#f4c95d"/></linearGradient>
    <style>.title{fill:#f4fff9;font:700 18px Arial,sans-serif}.rank,.score{fill:#f4fff9;font:800 18px Arial,sans-serif}.meta{fill:#9fc4bb;font:13px Arial,sans-serif}.head{fill:#f4fff9;font:800 28px Georgia,serif}.sub{fill:#9fc4bb;font:14px Arial,sans-serif}</style>
  </defs>
  <rect width="1200" height="672" fill="url(#background)"/>
  <text x="34" y="42" class="head">RFDELTA Top Option Trades</text>
  <text x="34" y="69" class="sub">Deterministic ranking for 2026-07-13. Labels and scores are separated from payoff bars for legibility.</text>
  <g>
      <text x="34" y="105" class="rank">1</text>
      <text x="78" y="105" class="title"><tspan x="78" dy="0">BAC 7/24 59/58 Put Credit Spread</tspan></text>
      <text x="1166" y="105" class="score" text-anchor="end">49.91</text>
      <text x="78" y="144" class="meta">financial and digital-market structure | credit | 55% modeled probability</text>
      <rect x="78" y="161" width="1070" height="16" rx="3" fill="#143b36"/>
      <rect x="78" y="161" width="534.0" height="16" rx="3" fill="url(#scoreBar)"/>
    </g>
<g>
      <text x="34" y="217" class="rank">2</text>
      <text x="78" y="217" class="title"><tspan x="78" dy="0">NKE 7/24 43/42 Put Credit Spread</tspan></text>
      <text x="1166" y="217" class="score" text-anchor="end">49.55</text>
      <text x="78" y="256" class="meta">consumer and communications demand | credit | 70% modeled probability</text>
      <rect x="78" y="273" width="1070" height="16" rx="3" fill="#143b36"/>
      <rect x="78" y="273" width="530.2" height="16" rx="3" fill="url(#scoreBar)"/>
    </g>
<g>
      <text x="34" y="329" class="rank">3</text>
      <text x="78" y="329" class="title"><tspan x="78" dy="0">ORCL 7/24 145/148 Call Credit Spread</tspan></text>
      <text x="1166" y="329" class="score" text-anchor="end">45.85</text>
      <text x="78" y="368" class="meta">technology and AI leadership | credit | 74% modeled probability</text>
      <rect x="78" y="385" width="1070" height="16" rx="3" fill="#143b36"/>
      <rect x="78" y="385" width="490.6" height="16" rx="3" fill="url(#scoreBar)"/>
    </g>
<g>
      <text x="34" y="441" class="rank">4</text>
      <text x="78" y="441" class="title"><tspan x="78" dy="0">QQQ 7/24 715/708 Put Debit Spread</tspan></text>
      <text x="1166" y="441" class="score" text-anchor="end">42.58</text>
      <text x="78" y="480" class="meta">large-cap growth | debit | 43% modeled probability</text>
      <rect x="78" y="497" width="1070" height="16" rx="3" fill="#143b36"/>
      <rect x="78" y="497" width="455.6" height="16" rx="3" fill="url(#scoreBar)"/>
    </g>
<g>
      <text x="34" y="553" class="rank">5</text>
      <text x="78" y="553" class="title"><tspan x="78" dy="0">IWM 7/24 294/291 Put Debit Spread</tspan></text>
      <text x="1166" y="553" class="score" text-anchor="end">40.89</text>
      <text x="78" y="592" class="meta">small-cap breadth | debit | 43% modeled probability</text>
      <rect x="78" y="609" width="1070" height="16" rx="3" fill="#143b36"/>
      <rect x="78" y="609" width="437.5" height="16" rx="3" fill="url(#scoreBar)"/>
    </g>
  </svg>