<svg xmlns="http://www.w3.org/2000/svg" width="1200" height="500" viewBox="0 0 1200 500" role="img" aria-label="TLT underlying price from entry">
  <rect width="1200" height="500" fill="#071f1c"/>
  <style>.head{fill:#f4fff9;font:800 27px Georgia,serif}.sub{fill:#9fc4bb;font:14px Arial,sans-serif}.axis{fill:#8eaaa3;font:12px Arial,sans-serif}.marker{font:800 12px Arial,sans-serif}</style>
  <text x="86" y="40" class="head">TLT Underlying Price</text>
  <text x="86" y="66" class="sub">90 sessions | Entry marked; position remains open | Published option idea rank 1</text>
  <line x1="86" x2="1142" y1="100.0" y2="100.0" stroke="#1b4a42" stroke-width="1"/><text x="72" y="105.0" text-anchor="end" class="axis">$89.60</text><line x1="86" x2="1142" y1="183.5" y2="183.5" stroke="#1b4a42" stroke-width="1"/><text x="72" y="188.5" text-anchor="end" class="axis">$87.63</text><line x1="86" x2="1142" y1="267.0" y2="267.0" stroke="#1b4a42" stroke-width="1"/><text x="72" y="272.0" text-anchor="end" class="axis">$85.65</text><line x1="86" x2="1142" y1="350.5" y2="350.5" stroke="#1b4a42" stroke-width="1"/><text x="72" y="355.5" text-anchor="end" class="axis">$83.67</text><line x1="86" x2="1142" y1="434.0" y2="434.0" stroke="#1b4a42" stroke-width="1"/><text x="72" y="439.0" text-anchor="end" class="axis">$81.70</text>
  <path d="M86.0,155.9 L97.9,204.1 L109.7,211.3 L121.6,229.4 L133.5,201.1 L145.3,191.0 L157.2,211.7 L169.1,189.3 L180.9,259.4 L192.8,235.7 L204.7,251.8 L216.5,216.7 L228.4,247.6 L240.2,267.4 L252.1,219.3 L264.0,223.1 L275.8,241.2 L287.7,218.9 L299.6,224.8 L311.4,225.2 L323.3,213.4 L335.2,222.7 L347.0,231.5 L358.9,220.5 L370.8,201.1 L382.6,217.2 L394.5,240.4 L406.4,207.0 L418.2,207.9 L430.1,228.1 L442.0,221.0 L453.8,229.0 L465.7,222.2 L477.6,240.4 L489.4,236.6 L501.3,264.9 L513.1,268.3 L525.0,268.7 L536.9,296.1 L548.7,276.3 L560.6,248.8 L572.5,267.0 L584.3,248.8 L596.2,270.8 L608.1,294.9 L619.9,302.9 L631.8,297.8 L643.7,351.0 L655.5,355.3 L667.4,378.1 L679.3,340.5 L691.1,327.4 L703.0,308.0 L714.9,290.2 L726.7,281.8 L738.6,263.2 L750.4,262.4 L762.3,274.6 L774.2,267.0 L786.0,281.4 L797.9,273.3 L809.8,291.9 L821.6,310.5 L833.5,289.4 L845.4,299.5 L857.2,253.1 L869.1,261.9 L881.0,264.0 L892.8,244.2 L904.7,238.3 L916.6,220.5 L928.4,248.4 L940.3,243.8 L952.2,193.9 L964.0,195.2 L975.9,194.8 L987.8,191.0 L999.6,234.5 L1011.5,272.5 L1023.3,272.9 L1035.2,275.4 L1047.1,313.5 L1058.9,321.5 L1070.8,316.0 L1082.7,316.8 L1094.5,338.0 L1106.4,333.3 L1118.3,326.5 L1130.1,327.8 L1142.0,314.7 L1142.0,434.0 L86.0,434.0 Z" fill="#0f5949" opacity="0.28"/>
  <path d="M86.0,155.9 L97.9,204.1 L109.7,211.3 L121.6,229.4 L133.5,201.1 L145.3,191.0 L157.2,211.7 L169.1,189.3 L180.9,259.4 L192.8,235.7 L204.7,251.8 L216.5,216.7 L228.4,247.6 L240.2,267.4 L252.1,219.3 L264.0,223.1 L275.8,241.2 L287.7,218.9 L299.6,224.8 L311.4,225.2 L323.3,213.4 L335.2,222.7 L347.0,231.5 L358.9,220.5 L370.8,201.1 L382.6,217.2 L394.5,240.4 L406.4,207.0 L418.2,207.9 L430.1,228.1 L442.0,221.0 L453.8,229.0 L465.7,222.2 L477.6,240.4 L489.4,236.6 L501.3,264.9 L513.1,268.3 L525.0,268.7 L536.9,296.1 L548.7,276.3 L560.6,248.8 L572.5,267.0 L584.3,248.8 L596.2,270.8 L608.1,294.9 L619.9,302.9 L631.8,297.8 L643.7,351.0 L655.5,355.3 L667.4,378.1 L679.3,340.5 L691.1,327.4 L703.0,308.0 L714.9,290.2 L726.7,281.8 L738.6,263.2 L750.4,262.4 L762.3,274.6 L774.2,267.0 L786.0,281.4 L797.9,273.3 L809.8,291.9 L821.6,310.5 L833.5,289.4 L845.4,299.5 L857.2,253.1 L869.1,261.9 L881.0,264.0 L892.8,244.2 L904.7,238.3 L916.6,220.5 L928.4,248.4 L940.3,243.8 L952.2,193.9 L964.0,195.2 L975.9,194.8 L987.8,191.0 L999.6,234.5 L1011.5,272.5 L1023.3,272.9 L1035.2,275.4 L1047.1,313.5 L1058.9,321.5 L1070.8,316.0 L1082.7,316.8 L1094.5,338.0 L1106.4,333.3 L1118.3,326.5 L1130.1,327.8 L1142.0,314.7" fill="none" stroke="#62d9ee" stroke-width="4" stroke-linecap="round" stroke-linejoin="round"/>
  <g>
    <line x1="1130.1" x2="1130.1" y1="100" y2="434" stroke="#18e59c" stroke-width="2" stroke-dasharray="7 7" opacity="0.8"/>
    <circle cx="1130.1" cy="332.9" r="8" fill="#071f1c" stroke="#18e59c" stroke-width="4"/>
    <text x="1030.0" y="314.9" text-anchor="middle" class="marker" fill="#18e59c">ENTRY | Jul 16 | $84.09</text>
  </g>
  
  <text x="86.0" y="472" text-anchor="middle" class="axis">Mar 10</text><text x="347.0" y="472" text-anchor="middle" class="axis">Apr 10</text><text x="619.9" y="472" text-anchor="middle" class="axis">May 13</text><text x="881.0" y="472" text-anchor="middle" class="axis">Jun 15</text><text x="1142.0" y="472" text-anchor="middle" class="axis">Jul 17</text>
  </svg>