<svg xmlns="http://www.w3.org/2000/svg" width="1200" height="500" viewBox="0 0 1200 500" role="img" aria-label="IWM underlying price from entry">
  <rect width="1200" height="500" fill="#071f1c"/>
  <style>.head{fill:#f4fff9;font:800 27px Georgia,serif}.sub{fill:#9fc4bb;font:14px Arial,sans-serif}.axis{fill:#8eaaa3;font:12px Arial,sans-serif}.marker{font:800 12px Arial,sans-serif}</style>
  <text x="86" y="40" class="head">IWM Underlying Price</text>
  <text x="86" y="66" class="sub">90 sessions | Entry marked; position remains open | Published option idea rank 2</text>
  <line x1="86" x2="1142" y1="100.0" y2="100.0" stroke="#1b4a42" stroke-width="1"/><text x="72" y="105.0" text-anchor="end" class="axis">$306.53</text><line x1="86" x2="1142" y1="183.5" y2="183.5" stroke="#1b4a42" stroke-width="1"/><text x="72" y="188.5" text-anchor="end" class="axis">$288.28</text><line x1="86" x2="1142" y1="267.0" y2="267.0" stroke="#1b4a42" stroke-width="1"/><text x="72" y="272.0" text-anchor="end" class="axis">$270.03</text><line x1="86" x2="1142" y1="350.5" y2="350.5" stroke="#1b4a42" stroke-width="1"/><text x="72" y="355.5" text-anchor="end" class="axis">$251.78</text><line x1="86" x2="1142" y1="434.0" y2="434.0" stroke="#1b4a42" stroke-width="1"/><text x="72" y="439.0" text-anchor="end" class="axis">$233.53</text>
  <path d="M86.0,343.3 L97.9,345.6 L109.7,370.5 L121.6,374.2 L133.5,363.6 L145.3,358.4 L157.2,376.8 L169.1,369.5 L180.9,394.2 L192.8,370.3 L204.7,364.2 L216.5,350.3 L228.4,370.3 L240.2,390.2 L252.1,406.2 L264.0,367.8 L275.8,360.6 L287.7,352.7 L299.6,347.8 L311.4,345.3 L323.3,310.7 L335.2,303.9 L347.0,306.9 L358.9,289.7 L370.8,273.0 L382.6,269.9 L394.5,267.4 L406.4,240.7 L418.2,233.5 L430.1,246.5 L442.0,237.5 L453.8,241.9 L465.7,236.7 L477.6,234.5 L489.4,249.2 L501.3,257.6 L513.1,230.7 L525.0,224.7 L536.9,231.1 L548.7,209.7 L560.6,190.3 L572.5,211.0 L584.3,202.3 L596.2,197.0 L608.1,209.6 L619.9,209.2 L631.8,201.0 L643.7,232.4 L655.5,239.8 L667.4,253.4 L679.3,222.0 L691.1,210.0 L703.0,198.0 L714.9,173.3 L726.7,173.9 L738.6,166.4 L750.4,173.7 L762.3,180.3 L774.2,168.0 L786.0,186.3 L797.9,166.4 L809.8,213.8 L821.6,202.6 L833.5,198.4 L845.4,212.0 L857.2,173.8 L869.1,162.1 L881.0,154.4 L892.8,166.1 L904.7,176.2 L916.6,150.1 L928.4,138.2 L940.3,151.3 L952.2,145.0 L964.0,134.9 L975.9,130.7 L987.8,134.6 L999.6,127.8 L1011.5,133.0 L1023.3,141.0 L1035.2,134.9 L1047.1,147.3 L1058.9,159.7 L1070.8,142.5 L1082.7,148.2 L1094.5,159.7 L1106.4,155.0 L1118.3,149.2 L1130.1,150.1 L1142.0,157.2 L1142.0,434.0 L86.0,434.0 Z" fill="#0f5949" opacity="0.28"/>
  <path d="M86.0,343.3 L97.9,345.6 L109.7,370.5 L121.6,374.2 L133.5,363.6 L145.3,358.4 L157.2,376.8 L169.1,369.5 L180.9,394.2 L192.8,370.3 L204.7,364.2 L216.5,350.3 L228.4,370.3 L240.2,390.2 L252.1,406.2 L264.0,367.8 L275.8,360.6 L287.7,352.7 L299.6,347.8 L311.4,345.3 L323.3,310.7 L335.2,303.9 L347.0,306.9 L358.9,289.7 L370.8,273.0 L382.6,269.9 L394.5,267.4 L406.4,240.7 L418.2,233.5 L430.1,246.5 L442.0,237.5 L453.8,241.9 L465.7,236.7 L477.6,234.5 L489.4,249.2 L501.3,257.6 L513.1,230.7 L525.0,224.7 L536.9,231.1 L548.7,209.7 L560.6,190.3 L572.5,211.0 L584.3,202.3 L596.2,197.0 L608.1,209.6 L619.9,209.2 L631.8,201.0 L643.7,232.4 L655.5,239.8 L667.4,253.4 L679.3,222.0 L691.1,210.0 L703.0,198.0 L714.9,173.3 L726.7,173.9 L738.6,166.4 L750.4,173.7 L762.3,180.3 L774.2,168.0 L786.0,186.3 L797.9,166.4 L809.8,213.8 L821.6,202.6 L833.5,198.4 L845.4,212.0 L857.2,173.8 L869.1,162.1 L881.0,154.4 L892.8,166.1 L904.7,176.2 L916.6,150.1 L928.4,138.2 L940.3,151.3 L952.2,145.0 L964.0,134.9 L975.9,130.7 L987.8,134.6 L999.6,127.8 L1011.5,133.0 L1023.3,141.0 L1035.2,134.9 L1047.1,147.3 L1058.9,159.7 L1070.8,142.5 L1082.7,148.2 L1094.5,159.7 L1106.4,155.0 L1118.3,149.2 L1130.1,150.1 L1142.0,157.2" fill="none" stroke="#62d9ee" stroke-width="4" stroke-linecap="round" stroke-linejoin="round"/>
  <g>
    <line x1="1130.1" x2="1130.1" y1="100" y2="434" stroke="#18e59c" stroke-width="2" stroke-dasharray="7 7" opacity="0.8"/>
    <circle cx="1130.1" cy="151.3" r="8" fill="#071f1c" stroke="#18e59c" stroke-width="4"/>
    <text x="1030.0" y="133.3" text-anchor="middle" class="marker" fill="#18e59c">ENTRY | Jul 16 | $295.32</text>
  </g>
  
  <text x="86.0" y="472" text-anchor="middle" class="axis">Mar 10</text><text x="347.0" y="472" text-anchor="middle" class="axis">Apr 10</text><text x="619.9" y="472" text-anchor="middle" class="axis">May 13</text><text x="881.0" y="472" text-anchor="middle" class="axis">Jun 15</text><text x="1142.0" y="472" text-anchor="middle" class="axis">Jul 17</text>
  </svg>