<svg xmlns="http://www.w3.org/2000/svg" width="1200" height="500" viewBox="0 0 1200 500" role="img" aria-label="IWM underlying price from entry">
  <rect width="1200" height="500" fill="#071f1c"/>
  <style>.head{fill:#f4fff9;font:800 27px Georgia,serif}.sub{fill:#9fc4bb;font:14px Arial,sans-serif}.axis{fill:#8eaaa3;font:12px Arial,sans-serif}.marker{font:800 12px Arial,sans-serif}</style>
  <text x="86" y="40" class="head">IWM Underlying Price</text>
  <text x="86" y="66" class="sub">90 sessions | Entry marked; position remains open | Published option idea rank 2</text>
  <line x1="86" x2="1142" y1="100.0" y2="100.0" stroke="#1b4a42" stroke-width="1"/><text x="72" y="105.0" text-anchor="end" class="axis">$306.53</text><line x1="86" x2="1142" y1="183.5" y2="183.5" stroke="#1b4a42" stroke-width="1"/><text x="72" y="188.5" text-anchor="end" class="axis">$288.28</text><line x1="86" x2="1142" y1="267.0" y2="267.0" stroke="#1b4a42" stroke-width="1"/><text x="72" y="272.0" text-anchor="end" class="axis">$270.03</text><line x1="86" x2="1142" y1="350.5" y2="350.5" stroke="#1b4a42" stroke-width="1"/><text x="72" y="355.5" text-anchor="end" class="axis">$251.78</text><line x1="86" x2="1142" y1="434.0" y2="434.0" stroke="#1b4a42" stroke-width="1"/><text x="72" y="439.0" text-anchor="end" class="axis">$233.53</text>
  <path d="M86.0,374.2 L97.9,363.6 L109.7,358.4 L121.6,376.8 L133.5,369.5 L145.3,394.2 L157.2,370.3 L169.1,364.2 L180.9,350.3 L192.8,370.3 L204.7,390.2 L216.5,406.2 L228.4,367.8 L240.2,360.6 L252.1,352.7 L264.0,347.8 L275.8,345.3 L287.7,310.7 L299.6,303.9 L311.4,306.9 L323.3,289.7 L335.2,273.0 L347.0,269.9 L358.9,267.4 L370.8,240.7 L382.6,233.5 L394.5,246.5 L406.4,237.5 L418.2,241.9 L430.1,236.7 L442.0,234.5 L453.8,249.2 L465.7,257.6 L477.6,230.7 L489.4,224.7 L501.3,231.1 L513.1,209.7 L525.0,190.3 L536.9,211.0 L548.7,202.3 L560.6,197.0 L572.5,209.6 L584.3,209.2 L596.2,201.0 L608.1,232.4 L619.9,239.8 L631.8,253.4 L643.7,222.0 L655.5,210.0 L667.4,198.0 L679.3,173.3 L691.1,173.9 L703.0,166.4 L714.9,173.7 L726.7,180.3 L738.6,168.0 L750.4,186.3 L762.3,166.4 L774.2,213.8 L786.0,202.6 L797.9,198.4 L809.8,212.0 L821.6,173.8 L833.5,162.1 L845.4,154.4 L857.2,166.1 L869.1,176.2 L881.0,150.1 L892.8,138.2 L904.7,151.3 L916.6,145.0 L928.4,134.9 L940.3,130.7 L952.2,134.6 L964.0,127.8 L975.9,133.0 L987.8,141.0 L999.6,134.9 L1011.5,147.3 L1023.3,159.7 L1035.2,142.5 L1047.1,148.2 L1058.9,159.7 L1070.8,155.0 L1082.7,149.2 L1094.5,150.1 L1106.4,157.2 L1118.3,165.1 L1130.1,145.7 L1142.0,158.3 L1142.0,434.0 L86.0,434.0 Z" fill="#0f5949" opacity="0.28"/>
  <path d="M86.0,374.2 L97.9,363.6 L109.7,358.4 L121.6,376.8 L133.5,369.5 L145.3,394.2 L157.2,370.3 L169.1,364.2 L180.9,350.3 L192.8,370.3 L204.7,390.2 L216.5,406.2 L228.4,367.8 L240.2,360.6 L252.1,352.7 L264.0,347.8 L275.8,345.3 L287.7,310.7 L299.6,303.9 L311.4,306.9 L323.3,289.7 L335.2,273.0 L347.0,269.9 L358.9,267.4 L370.8,240.7 L382.6,233.5 L394.5,246.5 L406.4,237.5 L418.2,241.9 L430.1,236.7 L442.0,234.5 L453.8,249.2 L465.7,257.6 L477.6,230.7 L489.4,224.7 L501.3,231.1 L513.1,209.7 L525.0,190.3 L536.9,211.0 L548.7,202.3 L560.6,197.0 L572.5,209.6 L584.3,209.2 L596.2,201.0 L608.1,232.4 L619.9,239.8 L631.8,253.4 L643.7,222.0 L655.5,210.0 L667.4,198.0 L679.3,173.3 L691.1,173.9 L703.0,166.4 L714.9,173.7 L726.7,180.3 L738.6,168.0 L750.4,186.3 L762.3,166.4 L774.2,213.8 L786.0,202.6 L797.9,198.4 L809.8,212.0 L821.6,173.8 L833.5,162.1 L845.4,154.4 L857.2,166.1 L869.1,176.2 L881.0,150.1 L892.8,138.2 L904.7,151.3 L916.6,145.0 L928.4,134.9 L940.3,130.7 L952.2,134.6 L964.0,127.8 L975.9,133.0 L987.8,141.0 L999.6,134.9 L1011.5,147.3 L1023.3,159.7 L1035.2,142.5 L1047.1,148.2 L1058.9,159.7 L1070.8,155.0 L1082.7,149.2 L1094.5,150.1 L1106.4,157.2 L1118.3,165.1 L1130.1,145.7 L1142.0,158.3" fill="none" stroke="#62d9ee" stroke-width="4" stroke-linecap="round" stroke-linejoin="round"/>
  <g>
    <line x1="1094.5" x2="1094.5" y1="100" y2="434" stroke="#18e59c" stroke-width="2" stroke-dasharray="7 7" opacity="0.8"/>
    <circle cx="1094.5" cy="151.3" r="8" fill="#071f1c" stroke="#18e59c" stroke-width="4"/>
    <text x="1030.0" y="133.3" text-anchor="middle" class="marker" fill="#18e59c">ENTRY | Jul 16 | $295.32</text>
  </g>
  
  <text x="86.0" y="472" text-anchor="middle" class="axis">Mar 13</text><text x="347.0" y="472" text-anchor="middle" class="axis">Apr 15</text><text x="619.9" y="472" text-anchor="middle" class="axis">May 18</text><text x="881.0" y="472" text-anchor="middle" class="axis">Jun 18</text><text x="1142.0" y="472" text-anchor="middle" class="axis">Jul 22</text>
  </svg>