<svg xmlns="http://www.w3.org/2000/svg" width="1200" height="500" viewBox="0 0 1200 500" role="img" aria-label="IWM underlying price from entry">
  <rect width="1200" height="500" fill="#071f1c"/>
  <style>.head{fill:#f4fff9;font:800 27px Georgia,serif}.sub{fill:#9fc4bb;font:14px Arial,sans-serif}.axis{fill:#8eaaa3;font:12px Arial,sans-serif}.marker{font:800 12px Arial,sans-serif}</style>
  <text x="86" y="40" class="head">IWM Underlying Price</text>
  <text x="86" y="66" class="sub">90 sessions | Entry marked; position remains open | Published option idea rank 2</text>
  <line x1="86" x2="1142" y1="100.0" y2="100.0" stroke="#1b4a42" stroke-width="1"/><text x="72" y="105.0" text-anchor="end" class="axis">$306.53</text><line x1="86" x2="1142" y1="183.5" y2="183.5" stroke="#1b4a42" stroke-width="1"/><text x="72" y="188.5" text-anchor="end" class="axis">$288.28</text><line x1="86" x2="1142" y1="267.0" y2="267.0" stroke="#1b4a42" stroke-width="1"/><text x="72" y="272.0" text-anchor="end" class="axis">$270.03</text><line x1="86" x2="1142" y1="350.5" y2="350.5" stroke="#1b4a42" stroke-width="1"/><text x="72" y="355.5" text-anchor="end" class="axis">$251.78</text><line x1="86" x2="1142" y1="434.0" y2="434.0" stroke="#1b4a42" stroke-width="1"/><text x="72" y="439.0" text-anchor="end" class="axis">$233.53</text>
  <path d="M86.0,342.1 L97.9,343.3 L109.7,345.6 L121.6,370.5 L133.5,374.2 L145.3,363.6 L157.2,358.4 L169.1,376.8 L180.9,369.5 L192.8,394.2 L204.7,370.3 L216.5,364.2 L228.4,350.3 L240.2,370.3 L252.1,390.2 L264.0,406.2 L275.8,367.8 L287.7,360.6 L299.6,352.7 L311.4,347.8 L323.3,345.3 L335.2,310.7 L347.0,303.9 L358.9,306.9 L370.8,289.7 L382.6,273.0 L394.5,269.9 L406.4,267.4 L418.2,240.7 L430.1,233.5 L442.0,246.5 L453.8,237.5 L465.7,241.9 L477.6,236.7 L489.4,234.5 L501.3,249.2 L513.1,257.6 L525.0,230.7 L536.9,224.7 L548.7,231.1 L560.6,209.7 L572.5,190.3 L584.3,211.0 L596.2,202.3 L608.1,197.0 L619.9,209.6 L631.8,209.2 L643.7,201.0 L655.5,232.4 L667.4,239.8 L679.3,253.4 L691.1,222.0 L703.0,210.0 L714.9,198.0 L726.7,173.3 L738.6,173.9 L750.4,166.4 L762.3,173.7 L774.2,180.3 L786.0,168.0 L797.9,186.3 L809.8,166.4 L821.6,213.8 L833.5,202.6 L845.4,198.4 L857.2,212.0 L869.1,173.8 L881.0,162.1 L892.8,154.4 L904.7,166.1 L916.6,176.2 L928.4,150.1 L940.3,138.2 L952.2,151.3 L964.0,145.0 L975.9,134.9 L987.8,130.7 L999.6,134.6 L1011.5,127.8 L1023.3,133.0 L1035.2,141.0 L1047.1,134.9 L1058.9,147.3 L1070.8,159.7 L1082.7,142.5 L1094.5,148.2 L1106.4,159.7 L1118.3,155.0 L1130.1,149.2 L1142.0,150.1 L1142.0,434.0 L86.0,434.0 Z" fill="#0f5949" opacity="0.28"/>
  <path d="M86.0,342.1 L97.9,343.3 L109.7,345.6 L121.6,370.5 L133.5,374.2 L145.3,363.6 L157.2,358.4 L169.1,376.8 L180.9,369.5 L192.8,394.2 L204.7,370.3 L216.5,364.2 L228.4,350.3 L240.2,370.3 L252.1,390.2 L264.0,406.2 L275.8,367.8 L287.7,360.6 L299.6,352.7 L311.4,347.8 L323.3,345.3 L335.2,310.7 L347.0,303.9 L358.9,306.9 L370.8,289.7 L382.6,273.0 L394.5,269.9 L406.4,267.4 L418.2,240.7 L430.1,233.5 L442.0,246.5 L453.8,237.5 L465.7,241.9 L477.6,236.7 L489.4,234.5 L501.3,249.2 L513.1,257.6 L525.0,230.7 L536.9,224.7 L548.7,231.1 L560.6,209.7 L572.5,190.3 L584.3,211.0 L596.2,202.3 L608.1,197.0 L619.9,209.6 L631.8,209.2 L643.7,201.0 L655.5,232.4 L667.4,239.8 L679.3,253.4 L691.1,222.0 L703.0,210.0 L714.9,198.0 L726.7,173.3 L738.6,173.9 L750.4,166.4 L762.3,173.7 L774.2,180.3 L786.0,168.0 L797.9,186.3 L809.8,166.4 L821.6,213.8 L833.5,202.6 L845.4,198.4 L857.2,212.0 L869.1,173.8 L881.0,162.1 L892.8,154.4 L904.7,166.1 L916.6,176.2 L928.4,150.1 L940.3,138.2 L952.2,151.3 L964.0,145.0 L975.9,134.9 L987.8,130.7 L999.6,134.6 L1011.5,127.8 L1023.3,133.0 L1035.2,141.0 L1047.1,134.9 L1058.9,147.3 L1070.8,159.7 L1082.7,142.5 L1094.5,148.2 L1106.4,159.7 L1118.3,155.0 L1130.1,149.2 L1142.0,150.1" fill="none" stroke="#62d9ee" stroke-width="4" stroke-linecap="round" stroke-linejoin="round"/>
  <g>
    <line x1="1142.0" x2="1142.0" y1="100" y2="434" stroke="#18e59c" stroke-width="2" stroke-dasharray="7 7" opacity="0.8"/>
    <circle cx="1142.0" cy="151.3" r="8" fill="#071f1c" stroke="#18e59c" stroke-width="4"/>
    <text x="1030.0" y="133.3" text-anchor="middle" class="marker" fill="#18e59c">ENTRY | Jul 16 | $295.32</text>
  </g>
  
  <text x="86.0" y="472" text-anchor="middle" class="axis">Mar 9</text><text x="347.0" y="472" text-anchor="middle" class="axis">Apr 9</text><text x="619.9" y="472" text-anchor="middle" class="axis">May 12</text><text x="881.0" y="472" text-anchor="middle" class="axis">Jun 12</text><text x="1142.0" y="472" text-anchor="middle" class="axis">Jul 16</text>
  </svg>