<svg xmlns="http://www.w3.org/2000/svg" width="1200" height="500" viewBox="0 0 1200 500" role="img" aria-label="IWM underlying price from entry">
  <rect width="1200" height="500" fill="#071f1c"/>
  <style>.head{fill:#f4fff9;font:800 27px Georgia,serif}.sub{fill:#9fc4bb;font:14px Arial,sans-serif}.axis{fill:#8eaaa3;font:12px Arial,sans-serif}.marker{font:800 12px Arial,sans-serif}</style>
  <text x="86" y="40" class="head">IWM Underlying Price</text>
  <text x="86" y="66" class="sub">90 sessions | Entry marked; position remains open | Published option idea rank 2</text>
  <line x1="86" x2="1142" y1="100.0" y2="100.0" stroke="#1b4a42" stroke-width="1"/><text x="72" y="105.0" text-anchor="end" class="axis">$306.53</text><line x1="86" x2="1142" y1="183.5" y2="183.5" stroke="#1b4a42" stroke-width="1"/><text x="72" y="188.5" text-anchor="end" class="axis">$288.28</text><line x1="86" x2="1142" y1="267.0" y2="267.0" stroke="#1b4a42" stroke-width="1"/><text x="72" y="272.0" text-anchor="end" class="axis">$270.03</text><line x1="86" x2="1142" y1="350.5" y2="350.5" stroke="#1b4a42" stroke-width="1"/><text x="72" y="355.5" text-anchor="end" class="axis">$251.78</text><line x1="86" x2="1142" y1="434.0" y2="434.0" stroke="#1b4a42" stroke-width="1"/><text x="72" y="439.0" text-anchor="end" class="axis">$233.53</text>
  <path d="M86.0,345.6 L97.9,370.5 L109.7,374.2 L121.6,363.6 L133.5,358.4 L145.3,376.8 L157.2,369.5 L169.1,394.2 L180.9,370.3 L192.8,364.2 L204.7,350.3 L216.5,370.3 L228.4,390.2 L240.2,406.2 L252.1,367.8 L264.0,360.6 L275.8,352.7 L287.7,347.8 L299.6,345.3 L311.4,310.7 L323.3,303.9 L335.2,306.9 L347.0,289.7 L358.9,273.0 L370.8,269.9 L382.6,267.4 L394.5,240.7 L406.4,233.5 L418.2,246.5 L430.1,237.5 L442.0,241.9 L453.8,236.7 L465.7,234.5 L477.6,249.2 L489.4,257.6 L501.3,230.7 L513.1,224.7 L525.0,231.1 L536.9,209.7 L548.7,190.3 L560.6,211.0 L572.5,202.3 L584.3,197.0 L596.2,209.6 L608.1,209.2 L619.9,201.0 L631.8,232.4 L643.7,239.8 L655.5,253.4 L667.4,222.0 L679.3,210.0 L691.1,198.0 L703.0,173.3 L714.9,173.9 L726.7,166.4 L738.6,173.7 L750.4,180.3 L762.3,168.0 L774.2,186.3 L786.0,166.4 L797.9,213.8 L809.8,202.6 L821.6,198.4 L833.5,212.0 L845.4,173.8 L857.2,162.1 L869.1,154.4 L881.0,166.1 L892.8,176.2 L904.7,150.1 L916.6,138.2 L928.4,151.3 L940.3,145.0 L952.2,134.9 L964.0,130.7 L975.9,134.6 L987.8,127.8 L999.6,133.0 L1011.5,141.0 L1023.3,134.9 L1035.2,147.3 L1047.1,159.7 L1058.9,142.5 L1070.8,148.2 L1082.7,159.7 L1094.5,155.0 L1106.4,149.2 L1118.3,150.1 L1130.1,157.2 L1142.0,165.1 L1142.0,434.0 L86.0,434.0 Z" fill="#0f5949" opacity="0.28"/>
  <path d="M86.0,345.6 L97.9,370.5 L109.7,374.2 L121.6,363.6 L133.5,358.4 L145.3,376.8 L157.2,369.5 L169.1,394.2 L180.9,370.3 L192.8,364.2 L204.7,350.3 L216.5,370.3 L228.4,390.2 L240.2,406.2 L252.1,367.8 L264.0,360.6 L275.8,352.7 L287.7,347.8 L299.6,345.3 L311.4,310.7 L323.3,303.9 L335.2,306.9 L347.0,289.7 L358.9,273.0 L370.8,269.9 L382.6,267.4 L394.5,240.7 L406.4,233.5 L418.2,246.5 L430.1,237.5 L442.0,241.9 L453.8,236.7 L465.7,234.5 L477.6,249.2 L489.4,257.6 L501.3,230.7 L513.1,224.7 L525.0,231.1 L536.9,209.7 L548.7,190.3 L560.6,211.0 L572.5,202.3 L584.3,197.0 L596.2,209.6 L608.1,209.2 L619.9,201.0 L631.8,232.4 L643.7,239.8 L655.5,253.4 L667.4,222.0 L679.3,210.0 L691.1,198.0 L703.0,173.3 L714.9,173.9 L726.7,166.4 L738.6,173.7 L750.4,180.3 L762.3,168.0 L774.2,186.3 L786.0,166.4 L797.9,213.8 L809.8,202.6 L821.6,198.4 L833.5,212.0 L845.4,173.8 L857.2,162.1 L869.1,154.4 L881.0,166.1 L892.8,176.2 L904.7,150.1 L916.6,138.2 L928.4,151.3 L940.3,145.0 L952.2,134.9 L964.0,130.7 L975.9,134.6 L987.8,127.8 L999.6,133.0 L1011.5,141.0 L1023.3,134.9 L1035.2,147.3 L1047.1,159.7 L1058.9,142.5 L1070.8,148.2 L1082.7,159.7 L1094.5,155.0 L1106.4,149.2 L1118.3,150.1 L1130.1,157.2 L1142.0,165.1" fill="none" stroke="#62d9ee" stroke-width="4" stroke-linecap="round" stroke-linejoin="round"/>
  <g>
    <line x1="1118.3" x2="1118.3" y1="100" y2="434" stroke="#18e59c" stroke-width="2" stroke-dasharray="7 7" opacity="0.8"/>
    <circle cx="1118.3" cy="151.3" r="8" fill="#071f1c" stroke="#18e59c" stroke-width="4"/>
    <text x="1030.0" y="133.3" text-anchor="middle" class="marker" fill="#18e59c">ENTRY | Jul 16 | $295.32</text>
  </g>
  
  <text x="86.0" y="472" text-anchor="middle" class="axis">Mar 11</text><text x="347.0" y="472" text-anchor="middle" class="axis">Apr 13</text><text x="619.9" y="472" text-anchor="middle" class="axis">May 14</text><text x="881.0" y="472" text-anchor="middle" class="axis">Jun 16</text><text x="1142.0" y="472" text-anchor="middle" class="axis">Jul 20</text>
  </svg>