<svg xmlns="http://www.w3.org/2000/svg" width="1200" height="500" viewBox="0 0 1200 500" role="img" aria-label="F underlying price from entry">
  <rect width="1200" height="500" fill="#071f1c"/>
  <style>.head{fill:#f4fff9;font:800 27px Georgia,serif}.sub{fill:#9fc4bb;font:14px Arial,sans-serif}.axis{fill:#8eaaa3;font:12px Arial,sans-serif}.marker{font:800 12px Arial,sans-serif}</style>
  <text x="86" y="40" class="head">F Underlying Price</text>
  <text x="86" y="66" class="sub">90 sessions | Entry marked; position remains open | Published option idea rank 1</text>
  <line x1="86" x2="1142" y1="100.0" y2="100.0" stroke="#1b4a42" stroke-width="1"/><text x="72" y="105.0" text-anchor="end" class="axis">$18.06</text><line x1="86" x2="1142" y1="183.5" y2="183.5" stroke="#1b4a42" stroke-width="1"/><text x="72" y="188.5" text-anchor="end" class="axis">$16.19</text><line x1="86" x2="1142" y1="267.0" y2="267.0" stroke="#1b4a42" stroke-width="1"/><text x="72" y="272.0" text-anchor="end" class="axis">$14.33</text><line x1="86" x2="1142" y1="350.5" y2="350.5" stroke="#1b4a42" stroke-width="1"/><text x="72" y="355.5" text-anchor="end" class="axis">$12.46</text><line x1="86" x2="1142" y1="434.0" y2="434.0" stroke="#1b4a42" stroke-width="1"/><text x="72" y="439.0" text-anchor="end" class="axis">$10.59</text>
  <path d="M86.0,364.2 L97.9,362.4 L109.7,360.2 L121.6,366.0 L133.5,369.1 L145.3,385.6 L157.2,383.8 L169.1,373.6 L180.9,380.3 L192.8,387.0 L204.7,392.3 L216.5,381.6 L228.4,378.0 L240.2,385.6 L252.1,388.7 L264.0,399.0 L275.8,406.2 L287.7,391.4 L299.6,385.2 L311.4,388.7 L323.3,388.3 L335.2,392.3 L347.0,362.8 L358.9,360.2 L370.8,365.1 L382.6,363.7 L394.5,339.2 L406.4,339.2 L418.2,351.2 L430.1,332.0 L442.0,332.0 L453.8,336.0 L465.7,342.7 L477.6,349.4 L489.4,353.9 L501.3,349.0 L513.1,353.0 L525.0,360.2 L536.9,367.3 L548.7,376.2 L560.6,393.2 L572.5,384.7 L584.3,363.3 L596.2,362.8 L608.1,356.6 L619.9,368.6 L631.8,371.3 L643.7,300.7 L655.5,260.1 L667.4,308.3 L679.3,324.9 L691.1,323.5 L703.0,316.4 L714.9,296.3 L726.7,240.0 L738.6,222.5 L750.4,197.5 L762.3,163.1 L774.2,127.8 L786.0,164.0 L797.9,185.5 L809.8,205.1 L821.6,221.7 L833.5,241.3 L845.4,236.8 L857.2,239.1 L869.1,268.1 L881.0,249.8 L892.8,244.0 L904.7,247.1 L916.6,263.2 L928.4,283.3 L940.3,278.8 L952.2,276.6 L964.0,281.5 L975.9,288.7 L987.8,276.6 L999.6,275.7 L1011.5,280.6 L1023.3,286.0 L1035.2,297.6 L1047.1,310.1 L1058.9,289.1 L1070.8,301.2 L1082.7,303.9 L1094.5,298.9 L1106.4,281.5 L1118.3,288.2 L1130.1,284.2 L1142.0,270.6 L1142.0,434.0 L86.0,434.0 Z" fill="#0f5949" opacity="0.28"/>
  <path d="M86.0,364.2 L97.9,362.4 L109.7,360.2 L121.6,366.0 L133.5,369.1 L145.3,385.6 L157.2,383.8 L169.1,373.6 L180.9,380.3 L192.8,387.0 L204.7,392.3 L216.5,381.6 L228.4,378.0 L240.2,385.6 L252.1,388.7 L264.0,399.0 L275.8,406.2 L287.7,391.4 L299.6,385.2 L311.4,388.7 L323.3,388.3 L335.2,392.3 L347.0,362.8 L358.9,360.2 L370.8,365.1 L382.6,363.7 L394.5,339.2 L406.4,339.2 L418.2,351.2 L430.1,332.0 L442.0,332.0 L453.8,336.0 L465.7,342.7 L477.6,349.4 L489.4,353.9 L501.3,349.0 L513.1,353.0 L525.0,360.2 L536.9,367.3 L548.7,376.2 L560.6,393.2 L572.5,384.7 L584.3,363.3 L596.2,362.8 L608.1,356.6 L619.9,368.6 L631.8,371.3 L643.7,300.7 L655.5,260.1 L667.4,308.3 L679.3,324.9 L691.1,323.5 L703.0,316.4 L714.9,296.3 L726.7,240.0 L738.6,222.5 L750.4,197.5 L762.3,163.1 L774.2,127.8 L786.0,164.0 L797.9,185.5 L809.8,205.1 L821.6,221.7 L833.5,241.3 L845.4,236.8 L857.2,239.1 L869.1,268.1 L881.0,249.8 L892.8,244.0 L904.7,247.1 L916.6,263.2 L928.4,283.3 L940.3,278.8 L952.2,276.6 L964.0,281.5 L975.9,288.7 L987.8,276.6 L999.6,275.7 L1011.5,280.6 L1023.3,286.0 L1035.2,297.6 L1047.1,310.1 L1058.9,289.1 L1070.8,301.2 L1082.7,303.9 L1094.5,298.9 L1106.4,281.5 L1118.3,288.2 L1130.1,284.2 L1142.0,270.6" fill="none" stroke="#62d9ee" stroke-width="4" stroke-linecap="round" stroke-linejoin="round"/>
  <g>
    <line x1="1142.0" x2="1142.0" y1="100" y2="434" stroke="#18e59c" stroke-width="2" stroke-dasharray="7 7" opacity="0.8"/>
    <circle cx="1142.0" cy="270.6" r="8" fill="#071f1c" stroke="#18e59c" stroke-width="4"/>
    <text x="1030.0" y="252.6" text-anchor="middle" class="marker" fill="#18e59c">ENTRY | Jul 15 | $14.24</text>
  </g>
  
  <text x="86.0" y="472" text-anchor="middle" class="axis">Mar 6</text><text x="347.0" y="472" text-anchor="middle" class="axis">Apr 8</text><text x="619.9" y="472" text-anchor="middle" class="axis">May 11</text><text x="881.0" y="472" text-anchor="middle" class="axis">Jun 11</text><text x="1142.0" y="472" text-anchor="middle" class="axis">Jul 15</text>
  </svg>