<svg xmlns="http://www.w3.org/2000/svg" width="1200" height="500" viewBox="0 0 1200 500" role="img" aria-label="SMCI underlying price from entry">
  <rect width="1200" height="500" fill="#071f1c"/>
  <style>.head{fill:#f4fff9;font:800 27px Georgia,serif}.sub{fill:#9fc4bb;font:14px Arial,sans-serif}.axis{fill:#8eaaa3;font:12px Arial,sans-serif}.marker{font:800 12px Arial,sans-serif}</style>
  <text x="86" y="40" class="head">SMCI Underlying Price</text>
  <text x="86" y="66" class="sub">90 sessions | Entry marked; position remains open | Published option idea rank 2</text>
  <line x1="86" x2="1142" y1="100.0" y2="100.0" stroke="#1b4a42" stroke-width="1"/><text x="72" y="105.0" text-anchor="end" class="axis">$53.13</text><line x1="86" x2="1142" y1="183.5" y2="183.5" stroke="#1b4a42" stroke-width="1"/><text x="72" y="188.5" text-anchor="end" class="axis">$44.24</text><line x1="86" x2="1142" y1="267.0" y2="267.0" stroke="#1b4a42" stroke-width="1"/><text x="72" y="272.0" text-anchor="end" class="axis">$35.35</text><line x1="86" x2="1142" y1="350.5" y2="350.5" stroke="#1b4a42" stroke-width="1"/><text x="72" y="355.5" text-anchor="end" class="axis">$26.46</text><line x1="86" x2="1142" y1="434.0" y2="434.0" stroke="#1b4a42" stroke-width="1"/><text x="72" y="439.0" text-anchor="end" class="axis">$17.57</text>
  <path d="M86.0,304.9 L97.9,298.6 L109.7,300.4 L121.6,300.4 L133.5,308.8 L145.3,310.2 L157.2,299.8 L169.1,303.1 L180.9,314.0 L192.8,309.8 L204.7,406.2 L216.5,396.3 L228.4,390.2 L240.2,373.1 L252.1,390.4 L264.0,392.6 L275.8,401.2 L287.7,385.1 L299.6,387.6 L311.4,380.9 L323.3,391.9 L335.2,386.1 L347.0,379.5 L358.9,380.9 L370.8,361.7 L382.6,355.1 L394.5,343.5 L406.4,342.7 L418.2,332.3 L430.1,330.8 L442.0,328.4 L453.8,332.0 L465.7,324.9 L477.6,347.8 L489.4,325.9 L501.3,337.4 L513.1,343.1 L525.0,351.8 L536.9,341.7 L548.7,344.6 L560.6,336.8 L572.5,337.6 L584.3,273.5 L596.2,283.2 L608.1,266.8 L619.9,284.2 L631.8,291.0 L643.7,298.5 L655.5,288.8 L667.4,307.5 L679.3,309.3 L691.1,312.0 L703.0,284.7 L714.9,284.7 L726.7,264.8 L738.6,250.6 L750.4,240.3 L762.3,211.1 L774.2,166.1 L786.0,158.7 L797.9,127.8 L809.8,153.7 L821.6,158.5 L833.5,207.9 L845.4,185.9 L857.2,217.3 L869.1,324.1 L881.0,298.7 L892.8,312.9 L904.7,309.3 L916.6,324.6 L928.4,338.1 L940.3,311.0 L952.2,266.0 L964.0,286.1 L975.9,294.2 L987.8,301.5 L999.6,311.3 L1011.5,334.6 L1023.3,323.5 L1035.2,339.3 L1047.1,343.3 L1058.9,343.6 L1070.8,352.5 L1082.7,334.4 L1094.5,333.8 L1106.4,333.1 L1118.3,339.2 L1130.1,339.3 L1142.0,349.5 L1142.0,434.0 L86.0,434.0 Z" fill="#0f5949" opacity="0.28"/>
  <path d="M86.0,304.9 L97.9,298.6 L109.7,300.4 L121.6,300.4 L133.5,308.8 L145.3,310.2 L157.2,299.8 L169.1,303.1 L180.9,314.0 L192.8,309.8 L204.7,406.2 L216.5,396.3 L228.4,390.2 L240.2,373.1 L252.1,390.4 L264.0,392.6 L275.8,401.2 L287.7,385.1 L299.6,387.6 L311.4,380.9 L323.3,391.9 L335.2,386.1 L347.0,379.5 L358.9,380.9 L370.8,361.7 L382.6,355.1 L394.5,343.5 L406.4,342.7 L418.2,332.3 L430.1,330.8 L442.0,328.4 L453.8,332.0 L465.7,324.9 L477.6,347.8 L489.4,325.9 L501.3,337.4 L513.1,343.1 L525.0,351.8 L536.9,341.7 L548.7,344.6 L560.6,336.8 L572.5,337.6 L584.3,273.5 L596.2,283.2 L608.1,266.8 L619.9,284.2 L631.8,291.0 L643.7,298.5 L655.5,288.8 L667.4,307.5 L679.3,309.3 L691.1,312.0 L703.0,284.7 L714.9,284.7 L726.7,264.8 L738.6,250.6 L750.4,240.3 L762.3,211.1 L774.2,166.1 L786.0,158.7 L797.9,127.8 L809.8,153.7 L821.6,158.5 L833.5,207.9 L845.4,185.9 L857.2,217.3 L869.1,324.1 L881.0,298.7 L892.8,312.9 L904.7,309.3 L916.6,324.6 L928.4,338.1 L940.3,311.0 L952.2,266.0 L964.0,286.1 L975.9,294.2 L987.8,301.5 L999.6,311.3 L1011.5,334.6 L1023.3,323.5 L1035.2,339.3 L1047.1,343.3 L1058.9,343.6 L1070.8,352.5 L1082.7,334.4 L1094.5,333.8 L1106.4,333.1 L1118.3,339.2 L1130.1,339.3 L1142.0,349.5" fill="none" stroke="#62d9ee" stroke-width="4" stroke-linecap="round" stroke-linejoin="round"/>
  <g>
    <line x1="1142.0" x2="1142.0" y1="100" y2="434" stroke="#18e59c" stroke-width="2" stroke-dasharray="7 7" opacity="0.8"/>
    <circle cx="1142.0" cy="349.5" r="8" fill="#071f1c" stroke="#18e59c" stroke-width="4"/>
    <text x="1030.0" y="331.5" text-anchor="middle" class="marker" fill="#18e59c">ENTRY | Jul 15 | $26.56</text>
  </g>
  
  <text x="86.0" y="472" text-anchor="middle" class="axis">Mar 6</text><text x="347.0" y="472" text-anchor="middle" class="axis">Apr 8</text><text x="619.9" y="472" text-anchor="middle" class="axis">May 11</text><text x="881.0" y="472" text-anchor="middle" class="axis">Jun 11</text><text x="1142.0" y="472" text-anchor="middle" class="axis">Jul 15</text>
  </svg>