<svg xmlns="http://www.w3.org/2000/svg" width="1200" height="500" viewBox="0 0 1200 500" role="img" aria-label="UBER underlying price from entry">
  <rect width="1200" height="500" fill="#071f1c"/>
  <style>.head{fill:#f4fff9;font:800 27px Georgia,serif}.sub{fill:#9fc4bb;font:14px Arial,sans-serif}.axis{fill:#8eaaa3;font:12px Arial,sans-serif}.marker{font:800 12px Arial,sans-serif}</style>
  <text x="86" y="40" class="head">UBER Underlying Price</text>
  <text x="86" y="66" class="sub">90 sessions | Entry marked; position remains open | Published option idea rank 3</text>
  <line x1="86" x2="1142" y1="100.0" y2="100.0" stroke="#1b4a42" stroke-width="1"/><text x="72" y="105.0" text-anchor="end" class="axis">$80.36</text><line x1="86" x2="1142" y1="183.5" y2="183.5" stroke="#1b4a42" stroke-width="1"/><text x="72" y="188.5" text-anchor="end" class="axis">$77.12</text><line x1="86" x2="1142" y1="267.0" y2="267.0" stroke="#1b4a42" stroke-width="1"/><text x="72" y="272.0" text-anchor="end" class="axis">$73.89</text><line x1="86" x2="1142" y1="350.5" y2="350.5" stroke="#1b4a42" stroke-width="1"/><text x="72" y="355.5" text-anchor="end" class="axis">$70.66</text><line x1="86" x2="1142" y1="434.0" y2="434.0" stroke="#1b4a42" stroke-width="1"/><text x="72" y="439.0" text-anchor="end" class="axis">$67.42</text>
  <path d="M86.0,235.0 L97.9,268.3 L109.7,306.5 L121.6,239.1 L133.5,290.8 L145.3,281.5 L157.2,247.1 L169.1,166.3 L180.9,195.5 L192.8,229.6 L204.7,267.0 L216.5,235.2 L228.4,307.0 L240.2,287.9 L252.1,353.2 L264.0,388.6 L275.8,369.8 L287.7,317.6 L299.6,323.3 L311.4,319.9 L323.3,311.4 L335.2,322.8 L347.0,306.0 L358.9,320.7 L370.8,355.1 L382.6,307.0 L394.5,292.3 L406.4,179.5 L418.2,200.1 L430.1,183.6 L442.0,174.0 L453.8,180.0 L465.7,223.4 L477.6,246.1 L489.4,247.6 L501.3,205.5 L513.1,261.3 L525.0,252.0 L536.9,248.4 L548.7,235.2 L560.6,266.0 L572.5,291.3 L584.3,130.7 L596.2,193.7 L608.1,226.7 L619.9,208.6 L631.8,203.2 L643.7,246.1 L655.5,246.3 L667.4,236.0 L679.3,236.3 L691.1,261.8 L703.0,248.7 L714.9,274.2 L726.7,320.4 L738.6,364.3 L750.4,348.6 L762.3,343.7 L774.2,357.1 L786.0,270.1 L797.9,325.6 L809.8,323.8 L821.6,310.4 L833.5,349.1 L845.4,365.9 L857.2,357.6 L869.1,403.3 L881.0,379.1 L892.8,397.1 L904.7,293.9 L916.6,283.5 L928.4,343.9 L940.3,325.1 L952.2,330.5 L964.0,376.0 L975.9,268.0 L987.8,309.3 L999.6,207.4 L1011.5,225.4 L1023.3,311.7 L1035.2,298.8 L1047.1,253.1 L1058.9,305.0 L1070.8,255.6 L1082.7,274.5 L1094.5,255.1 L1106.4,250.2 L1118.3,257.4 L1130.1,313.7 L1142.0,268.9 L1142.0,434.0 L86.0,434.0 Z" fill="#0f5949" opacity="0.28"/>
  <path d="M86.0,235.0 L97.9,268.3 L109.7,306.5 L121.6,239.1 L133.5,290.8 L145.3,281.5 L157.2,247.1 L169.1,166.3 L180.9,195.5 L192.8,229.6 L204.7,267.0 L216.5,235.2 L228.4,307.0 L240.2,287.9 L252.1,353.2 L264.0,388.6 L275.8,369.8 L287.7,317.6 L299.6,323.3 L311.4,319.9 L323.3,311.4 L335.2,322.8 L347.0,306.0 L358.9,320.7 L370.8,355.1 L382.6,307.0 L394.5,292.3 L406.4,179.5 L418.2,200.1 L430.1,183.6 L442.0,174.0 L453.8,180.0 L465.7,223.4 L477.6,246.1 L489.4,247.6 L501.3,205.5 L513.1,261.3 L525.0,252.0 L536.9,248.4 L548.7,235.2 L560.6,266.0 L572.5,291.3 L584.3,130.7 L596.2,193.7 L608.1,226.7 L619.9,208.6 L631.8,203.2 L643.7,246.1 L655.5,246.3 L667.4,236.0 L679.3,236.3 L691.1,261.8 L703.0,248.7 L714.9,274.2 L726.7,320.4 L738.6,364.3 L750.4,348.6 L762.3,343.7 L774.2,357.1 L786.0,270.1 L797.9,325.6 L809.8,323.8 L821.6,310.4 L833.5,349.1 L845.4,365.9 L857.2,357.6 L869.1,403.3 L881.0,379.1 L892.8,397.1 L904.7,293.9 L916.6,283.5 L928.4,343.9 L940.3,325.1 L952.2,330.5 L964.0,376.0 L975.9,268.0 L987.8,309.3 L999.6,207.4 L1011.5,225.4 L1023.3,311.7 L1035.2,298.8 L1047.1,253.1 L1058.9,305.0 L1070.8,255.6 L1082.7,274.5 L1094.5,255.1 L1106.4,250.2 L1118.3,257.4 L1130.1,313.7 L1142.0,268.9" fill="none" stroke="#62d9ee" stroke-width="4" stroke-linecap="round" stroke-linejoin="round"/>
  <g>
    <line x1="1142.0" x2="1142.0" y1="100" y2="434" stroke="#18e59c" stroke-width="2" stroke-dasharray="7 7" opacity="0.8"/>
    <circle cx="1142.0" cy="268.9" r="8" fill="#071f1c" stroke="#18e59c" stroke-width="4"/>
    <text x="1030.0" y="250.9" text-anchor="middle" class="marker" fill="#18e59c">ENTRY | Jul 15 | $73.81</text>
  </g>
  
  <text x="86.0" y="472" text-anchor="middle" class="axis">Mar 6</text><text x="347.0" y="472" text-anchor="middle" class="axis">Apr 8</text><text x="619.9" y="472" text-anchor="middle" class="axis">May 11</text><text x="881.0" y="472" text-anchor="middle" class="axis">Jun 11</text><text x="1142.0" y="472" text-anchor="middle" class="axis">Jul 15</text>
  </svg>