<svg xmlns="http://www.w3.org/2000/svg" width="1200" height="500" viewBox="0 0 1200 500" role="img" aria-label="BAC underlying price from entry">
  <rect width="1200" height="500" fill="#071f1c"/>
  <style>.head{fill:#f4fff9;font:800 27px Georgia,serif}.sub{fill:#9fc4bb;font:14px Arial,sans-serif}.axis{fill:#8eaaa3;font:12px Arial,sans-serif}.marker{font:800 12px Arial,sans-serif}</style>
  <text x="86" y="40" class="head">BAC Underlying Price</text>
  <text x="86" y="66" class="sub">90 sessions | Entry marked; position remains open | Published option idea rank 4</text>
  <line x1="86" x2="1142" y1="100.0" y2="100.0" stroke="#1b4a42" stroke-width="1"/><text x="72" y="105.0" text-anchor="end" class="axis">$63.25</text><line x1="86" x2="1142" y1="183.5" y2="183.5" stroke="#1b4a42" stroke-width="1"/><text x="72" y="188.5" text-anchor="end" class="axis">$58.74</text><line x1="86" x2="1142" y1="267.0" y2="267.0" stroke="#1b4a42" stroke-width="1"/><text x="72" y="272.0" text-anchor="end" class="axis">$54.23</text><line x1="86" x2="1142" y1="350.5" y2="350.5" stroke="#1b4a42" stroke-width="1"/><text x="72" y="355.5" text-anchor="end" class="axis">$49.73</text><line x1="86" x2="1142" y1="434.0" y2="434.0" stroke="#1b4a42" stroke-width="1"/><text x="72" y="439.0" text-anchor="end" class="axis">$45.22</text>
  <path d="M86.0,370.6 L97.9,384.3 L109.7,372.1 L121.6,372.8 L133.5,398.6 L145.3,406.2 L157.2,399.9 L169.1,395.8 L180.9,404.1 L192.8,400.8 L204.7,398.0 L216.5,391.4 L228.4,379.9 L240.2,368.6 L252.1,378.0 L264.0,401.5 L275.8,396.7 L287.7,368.6 L299.6,358.9 L311.4,356.9 L323.3,344.3 L335.2,340.2 L347.0,310.6 L358.9,295.2 L370.8,298.4 L382.6,283.4 L394.5,283.4 L406.4,265.4 L418.2,280.4 L430.1,273.0 L442.0,272.3 L453.8,281.0 L465.7,287.6 L477.6,299.7 L489.4,307.5 L501.3,296.7 L513.1,296.2 L525.0,292.1 L536.9,281.4 L548.7,285.4 L560.6,304.9 L572.5,287.6 L584.3,278.8 L596.2,294.5 L608.1,321.2 L619.9,335.2 L631.8,331.0 L643.7,348.4 L655.5,348.2 L667.4,349.7 L679.3,332.6 L691.1,332.5 L703.0,322.6 L714.9,317.8 L726.7,312.1 L738.6,304.7 L750.4,325.1 L762.3,331.2 L774.2,315.8 L786.0,317.5 L797.9,299.5 L809.8,301.0 L821.6,268.2 L833.5,274.5 L845.4,278.2 L857.2,263.6 L869.1,261.4 L881.0,249.9 L892.8,233.9 L904.7,236.7 L916.6,218.8 L928.4,224.5 L940.3,230.6 L952.2,208.9 L964.0,198.9 L975.9,202.3 L987.8,193.8 L999.6,199.5 L1011.5,199.5 L1023.3,216.2 L1035.2,190.6 L1047.1,183.8 L1058.9,162.1 L1070.8,162.8 L1082.7,191.7 L1094.5,174.1 L1106.4,166.4 L1118.3,169.5 L1130.1,148.8 L1142.0,127.8 L1142.0,434.0 L86.0,434.0 Z" fill="#0f5949" opacity="0.28"/>
  <path d="M86.0,370.6 L97.9,384.3 L109.7,372.1 L121.6,372.8 L133.5,398.6 L145.3,406.2 L157.2,399.9 L169.1,395.8 L180.9,404.1 L192.8,400.8 L204.7,398.0 L216.5,391.4 L228.4,379.9 L240.2,368.6 L252.1,378.0 L264.0,401.5 L275.8,396.7 L287.7,368.6 L299.6,358.9 L311.4,356.9 L323.3,344.3 L335.2,340.2 L347.0,310.6 L358.9,295.2 L370.8,298.4 L382.6,283.4 L394.5,283.4 L406.4,265.4 L418.2,280.4 L430.1,273.0 L442.0,272.3 L453.8,281.0 L465.7,287.6 L477.6,299.7 L489.4,307.5 L501.3,296.7 L513.1,296.2 L525.0,292.1 L536.9,281.4 L548.7,285.4 L560.6,304.9 L572.5,287.6 L584.3,278.8 L596.2,294.5 L608.1,321.2 L619.9,335.2 L631.8,331.0 L643.7,348.4 L655.5,348.2 L667.4,349.7 L679.3,332.6 L691.1,332.5 L703.0,322.6 L714.9,317.8 L726.7,312.1 L738.6,304.7 L750.4,325.1 L762.3,331.2 L774.2,315.8 L786.0,317.5 L797.9,299.5 L809.8,301.0 L821.6,268.2 L833.5,274.5 L845.4,278.2 L857.2,263.6 L869.1,261.4 L881.0,249.9 L892.8,233.9 L904.7,236.7 L916.6,218.8 L928.4,224.5 L940.3,230.6 L952.2,208.9 L964.0,198.9 L975.9,202.3 L987.8,193.8 L999.6,199.5 L1011.5,199.5 L1023.3,216.2 L1035.2,190.6 L1047.1,183.8 L1058.9,162.1 L1070.8,162.8 L1082.7,191.7 L1094.5,174.1 L1106.4,166.4 L1118.3,169.5 L1130.1,148.8 L1142.0,127.8" fill="none" stroke="#62d9ee" stroke-width="4" stroke-linecap="round" stroke-linejoin="round"/>
  <g>
    <line x1="1142.0" x2="1142.0" y1="100" y2="434" stroke="#18e59c" stroke-width="2" stroke-dasharray="7 7" opacity="0.8"/>
    <circle cx="1142.0" cy="127.8" r="8" fill="#071f1c" stroke="#18e59c" stroke-width="4"/>
    <text x="1030.0" y="161.8" text-anchor="middle" class="marker" fill="#18e59c">ENTRY | Jul 15 | $61.75</text>
  </g>
  
  <text x="86.0" y="472" text-anchor="middle" class="axis">Mar 6</text><text x="347.0" y="472" text-anchor="middle" class="axis">Apr 8</text><text x="619.9" y="472" text-anchor="middle" class="axis">May 11</text><text x="881.0" y="472" text-anchor="middle" class="axis">Jun 11</text><text x="1142.0" y="472" text-anchor="middle" class="axis">Jul 15</text>
  </svg>