<svg xmlns="http://www.w3.org/2000/svg" width="1200" height="500" viewBox="0 0 1200 500" role="img" aria-label="SPY underlying price from entry">
  <rect width="1200" height="500" fill="#071f1c"/>
  <style>.head{fill:#f4fff9;font:800 27px Georgia,serif}.sub{fill:#9fc4bb;font:14px Arial,sans-serif}.axis{fill:#8eaaa3;font:12px Arial,sans-serif}.marker{font:800 12px Arial,sans-serif}</style>
  <text x="86" y="40" class="head">SPY Underlying Price</text>
  <text x="86" y="66" class="sub">90 sessions | Entry marked; position remains open | Published option idea rank 1</text>
  <line x1="86" x2="1142" y1="100.0" y2="100.0" stroke="#1b4a42" stroke-width="1"/><text x="72" y="105.0" text-anchor="end" class="axis">$789.55</text><line x1="86" x2="1142" y1="183.5" y2="183.5" stroke="#1b4a42" stroke-width="1"/><text x="72" y="188.5" text-anchor="end" class="axis">$770.60</text><line x1="86" x2="1142" y1="267.0" y2="267.0" stroke="#1b4a42" stroke-width="1"/><text x="72" y="272.0" text-anchor="end" class="axis">$751.65</text><line x1="86" x2="1142" y1="350.5" y2="350.5" stroke="#1b4a42" stroke-width="1"/><text x="72" y="355.5" text-anchor="end" class="axis">$732.71</text><line x1="86" x2="1142" y1="434.0" y2="434.0" stroke="#1b4a42" stroke-width="1"/><text x="72" y="439.0" text-anchor="end" class="axis">$713.76</text>
  <path d="M86.0,282.4 L97.9,322.0 L109.7,324.3 L121.6,346.0 L133.5,312.9 L145.3,306.4 L157.2,293.5 L169.1,271.7 L180.9,272.3 L192.8,254.0 L204.7,245.7 L216.5,236.7 L228.4,232.1 L240.2,255.6 L252.1,243.0 L264.0,329.2 L275.8,321.8 L287.7,331.4 L299.6,382.6 L311.4,328.2 L323.3,310.7 L335.2,253.0 L347.0,272.8 L358.9,314.1 L370.8,288.7 L382.6,299.0 L394.5,346.7 L406.4,348.2 L418.2,343.5 L430.1,366.9 L442.0,314.0 L453.8,288.5 L465.7,293.0 L477.6,297.3 L489.4,268.7 L501.3,284.4 L513.1,294.6 L525.0,266.8 L536.9,252.5 L548.7,278.0 L560.6,266.2 L572.5,253.1 L584.3,271.1 L596.2,303.9 L608.1,309.2 L619.9,281.9 L631.8,285.7 L643.7,326.4 L655.5,323.1 L667.4,322.4 L679.3,314.6 L691.1,364.8 L703.0,310.9 L714.9,287.4 L726.7,240.5 L738.6,180.3 L750.4,187.1 L762.3,192.5 L774.2,171.8 L786.0,172.8 L797.9,183.7 L809.8,175.2 L821.6,151.4 L833.5,158.2 L845.4,174.4 L857.2,197.4 L869.1,190.3 L881.0,218.8 L892.8,205.0 L904.7,214.9 L916.6,204.2 L928.4,203.4 L940.3,181.3 L952.2,189.0 L964.0,199.2 L975.9,222.4 L987.8,207.5 L999.6,172.2 L1011.5,185.3 L1023.3,204.0 L1035.2,219.6 L1047.1,239.8 L1058.9,211.3 L1070.8,226.3 L1082.7,241.7 L1094.5,256.4 L1106.4,218.8 L1118.3,222.8 L1130.1,170.7 L1142.0,171.3 L1142.0,434.0 L86.0,434.0 Z" fill="#0f5949" opacity="0.28"/>
  <path d="M86.0,282.4 L97.9,322.0 L109.7,324.3 L121.6,346.0 L133.5,312.9 L145.3,306.4 L157.2,293.5 L169.1,271.7 L180.9,272.3 L192.8,254.0 L204.7,245.7 L216.5,236.7 L228.4,232.1 L240.2,255.6 L252.1,243.0 L264.0,329.2 L275.8,321.8 L287.7,331.4 L299.6,382.6 L311.4,328.2 L323.3,310.7 L335.2,253.0 L347.0,272.8 L358.9,314.1 L370.8,288.7 L382.6,299.0 L394.5,346.7 L406.4,348.2 L418.2,343.5 L430.1,366.9 L442.0,314.0 L453.8,288.5 L465.7,293.0 L477.6,297.3 L489.4,268.7 L501.3,284.4 L513.1,294.6 L525.0,266.8 L536.9,252.5 L548.7,278.0 L560.6,266.2 L572.5,253.1 L584.3,271.1 L596.2,303.9 L608.1,309.2 L619.9,281.9 L631.8,285.7 L643.7,326.4 L655.5,323.1 L667.4,322.4 L679.3,314.6 L691.1,364.8 L703.0,310.9 L714.9,287.4 L726.7,240.5 L738.6,180.3 L750.4,187.1 L762.3,192.5 L774.2,171.8 L786.0,172.8 L797.9,183.7 L809.8,175.2 L821.6,151.4 L833.5,158.2 L845.4,174.4 L857.2,197.4 L869.1,190.3 L881.0,218.8 L892.8,205.0 L904.7,214.9 L916.6,204.2 L928.4,203.4 L940.3,181.3 L952.2,189.0 L964.0,199.2 L975.9,222.4 L987.8,207.5 L999.6,172.2 L1011.5,185.3 L1023.3,204.0 L1035.2,219.6 L1047.1,239.8 L1058.9,211.3 L1070.8,226.3 L1082.7,241.7 L1094.5,256.4 L1106.4,218.8 L1118.3,222.8 L1130.1,170.7 L1142.0,171.3" fill="none" stroke="#62d9ee" stroke-width="4" stroke-linecap="round" stroke-linejoin="round"/>
  <g>
    <line x1="1047.1" x2="1047.1" y1="100" y2="434" stroke="#18e59c" stroke-width="2" stroke-dasharray="7 7" opacity="0.8"/>
    <circle cx="1047.1" cy="237.5" r="8" fill="#071f1c" stroke="#18e59c" stroke-width="4"/>
    <text x="1030.0" y="219.5" text-anchor="middle" class="marker" fill="#18e59c">ENTRY | Sep 10 | $758.34</text>
  </g>
  
  <text x="86.0" y="472" text-anchor="middle" class="axis">May 14</text><text x="347.0" y="472" text-anchor="middle" class="axis">Jun 16</text><text x="619.9" y="472" text-anchor="middle" class="axis">Jul 21</text><text x="881.0" y="472" text-anchor="middle" class="axis">Aug 20</text><text x="1142.0" y="472" text-anchor="middle" class="axis">Sep 22</text>
  </svg>