<svg xmlns="http://www.w3.org/2000/svg" width="1200" height="500" viewBox="0 0 1200 500" role="img" aria-label="IWM underlying price from entry">
  <rect width="1200" height="500" fill="#071f1c"/>
  <style>.head{fill:#f4fff9;font:800 27px Georgia,serif}.sub{fill:#9fc4bb;font:14px Arial,sans-serif}.axis{fill:#8eaaa3;font:12px Arial,sans-serif}.marker{font:800 12px Arial,sans-serif}</style>
  <text x="86" y="40" class="head">IWM Underlying Price</text>
  <text x="86" y="66" class="sub">90 sessions | Entry marked; position remains open | Published option idea rank 2</text>
  <line x1="86" x2="1142" y1="100.0" y2="100.0" stroke="#1b4a42" stroke-width="1"/><text x="72" y="105.0" text-anchor="end" class="axis">$309.67</text><line x1="86" x2="1142" y1="183.5" y2="183.5" stroke="#1b4a42" stroke-width="1"/><text x="72" y="188.5" text-anchor="end" class="axis">$299.36</text><line x1="86" x2="1142" y1="267.0" y2="267.0" stroke="#1b4a42" stroke-width="1"/><text x="72" y="272.0" text-anchor="end" class="axis">$289.04</text><line x1="86" x2="1142" y1="350.5" y2="350.5" stroke="#1b4a42" stroke-width="1"/><text x="72" y="355.5" text-anchor="end" class="axis">$278.73</text><line x1="86" x2="1142" y1="434.0" y2="434.0" stroke="#1b4a42" stroke-width="1"/><text x="72" y="439.0" text-anchor="end" class="axis">$268.42</text>
  <path d="M86.0,318.6 L97.9,304.2 L109.7,359.7 L121.6,372.9 L133.5,396.9 L145.3,341.3 L157.2,320.1 L169.1,298.8 L180.9,255.1 L192.8,256.3 L204.7,242.8 L216.5,255.8 L228.4,267.5 L240.2,245.8 L252.1,278.1 L264.0,243.0 L275.8,326.9 L287.7,307.0 L299.6,299.6 L311.4,323.6 L323.3,255.9 L335.2,235.4 L347.0,221.7 L358.9,242.4 L370.8,260.2 L382.6,214.0 L394.5,193.0 L406.4,216.2 L418.2,205.1 L430.1,187.1 L442.0,179.7 L453.8,186.6 L465.7,174.6 L477.6,183.8 L489.4,197.9 L501.3,187.2 L513.1,209.1 L525.0,231.1 L536.9,200.6 L548.7,210.8 L560.6,231.1 L572.5,222.7 L584.3,212.5 L596.2,214.0 L608.1,226.5 L619.9,240.6 L631.8,206.3 L643.7,228.6 L655.5,242.3 L667.4,249.8 L679.3,235.7 L691.1,232.0 L703.0,270.8 L714.9,238.3 L726.7,249.5 L738.6,208.9 L750.4,164.4 L762.3,180.1 L774.2,192.5 L786.0,165.6 L797.9,178.4 L809.8,170.3 L821.6,156.3 L833.5,149.9 L845.4,137.1 L857.2,145.4 L869.1,176.4 L881.0,164.4 L892.8,197.2 L904.7,178.6 L916.6,194.7 L928.4,184.5 L940.3,186.9 L952.2,179.8 L964.0,212.7 L975.9,227.4 L987.8,254.6 L999.6,226.8 L1011.5,217.2 L1023.3,210.6 L1035.2,221.4 L1047.1,254.1 L1058.9,277.9 L1070.8,268.3 L1082.7,276.2 L1094.5,298.6 L1106.4,308.5 L1118.3,296.3 L1130.1,307.0 L1142.0,295.1 L1142.0,434.0 L86.0,434.0 Z" fill="#0f5949" opacity="0.28"/>
  <path d="M86.0,318.6 L97.9,304.2 L109.7,359.7 L121.6,372.9 L133.5,396.9 L145.3,341.3 L157.2,320.1 L169.1,298.8 L180.9,255.1 L192.8,256.3 L204.7,242.8 L216.5,255.8 L228.4,267.5 L240.2,245.8 L252.1,278.1 L264.0,243.0 L275.8,326.9 L287.7,307.0 L299.6,299.6 L311.4,323.6 L323.3,255.9 L335.2,235.4 L347.0,221.7 L358.9,242.4 L370.8,260.2 L382.6,214.0 L394.5,193.0 L406.4,216.2 L418.2,205.1 L430.1,187.1 L442.0,179.7 L453.8,186.6 L465.7,174.6 L477.6,183.8 L489.4,197.9 L501.3,187.2 L513.1,209.1 L525.0,231.1 L536.9,200.6 L548.7,210.8 L560.6,231.1 L572.5,222.7 L584.3,212.5 L596.2,214.0 L608.1,226.5 L619.9,240.6 L631.8,206.3 L643.7,228.6 L655.5,242.3 L667.4,249.8 L679.3,235.7 L691.1,232.0 L703.0,270.8 L714.9,238.3 L726.7,249.5 L738.6,208.9 L750.4,164.4 L762.3,180.1 L774.2,192.5 L786.0,165.6 L797.9,178.4 L809.8,170.3 L821.6,156.3 L833.5,149.9 L845.4,137.1 L857.2,145.4 L869.1,176.4 L881.0,164.4 L892.8,197.2 L904.7,178.6 L916.6,194.7 L928.4,184.5 L940.3,186.9 L952.2,179.8 L964.0,212.7 L975.9,227.4 L987.8,254.6 L999.6,226.8 L1011.5,217.2 L1023.3,210.6 L1035.2,221.4 L1047.1,254.1 L1058.9,277.9 L1070.8,268.3 L1082.7,276.2 L1094.5,298.6 L1106.4,308.5 L1118.3,296.3 L1130.1,307.0 L1142.0,295.1" fill="none" stroke="#62d9ee" stroke-width="4" stroke-linecap="round" stroke-linejoin="round"/>
  <g>
    <line x1="1058.9" x2="1058.9" y1="100" y2="434" stroke="#18e59c" stroke-width="2" stroke-dasharray="7 7" opacity="0.8"/>
    <circle cx="1058.9" cy="277.5" r="8" fill="#071f1c" stroke="#18e59c" stroke-width="4"/>
    <text x="1030.0" y="259.5" text-anchor="middle" class="marker" fill="#18e59c">ENTRY | Sep 10 | $287.75</text>
  </g>
  
  <text x="86.0" y="472" text-anchor="middle" class="axis">May 13</text><text x="347.0" y="472" text-anchor="middle" class="axis">Jun 15</text><text x="619.9" y="472" text-anchor="middle" class="axis">Jul 20</text><text x="881.0" y="472" text-anchor="middle" class="axis">Aug 19</text><text x="1142.0" y="472" text-anchor="middle" class="axis">Sep 21</text>
  </svg>